G04 #@! TF.FileFunction,Copper,L1,Top,Signal*
%FSLAX46Y46*%
G04 Gerber Fmt 4.6, Leading zero omitted, Abs format (unit mm)*
G04 Created by KiCad (PCBNEW 4.0.7) date 02/22/19 22:28:47*
%MOMM*%
%LPD*%
G01*
G04 APERTURE LIST*
%ADD10C,0.100000*%
%ADD11C,1.600000*%
%ADD12C,1.400000*%
%ADD13O,1.400000X1.400000*%
%ADD14R,1.600000X1.600000*%
%ADD15O,1.600000X1.600000*%
%ADD16R,1.350000X1.350000*%
%ADD17O,1.350000X1.350000*%
%ADD18C,3.000000*%
%ADD19R,1.800000X1.800000*%
%ADD20C,1.800000*%
%ADD21R,1.750000X1.750000*%
%ADD22C,1.750000*%
%ADD23C,2.400000*%
%ADD24O,2.400000X2.400000*%
%ADD25C,0.600000*%
%ADD26C,0.250000*%
G04 APERTURE END LIST*
D10*
D11*
X201327680Y-67975480D03*
X201327680Y-70475480D03*
D12*
X185406960Y-72412860D03*
D13*
X185406960Y-67332860D03*
D14*
X190260900Y-67960240D03*
D15*
X197880900Y-75580240D03*
X190260900Y-70500240D03*
X197880900Y-73040240D03*
X190260900Y-73040240D03*
X197880900Y-70500240D03*
X190260900Y-75580240D03*
X197880900Y-67960240D03*
D12*
X185363780Y-74912220D03*
D13*
X185363780Y-79992220D03*
D11*
X189156000Y-81373980D03*
D15*
X201856000Y-81373980D03*
D11*
X191937300Y-119622420D03*
X191937300Y-122122420D03*
X191937300Y-93622420D03*
X191937300Y-96122420D03*
X177233240Y-67942460D03*
X177233240Y-70442460D03*
X163937300Y-119622420D03*
X163937300Y-122122420D03*
X163937300Y-93622420D03*
X163937300Y-96122420D03*
X155291140Y-67972940D03*
X155291140Y-70472940D03*
X135937300Y-119622420D03*
X135937300Y-122122420D03*
X135937300Y-93622420D03*
X135937300Y-96122420D03*
X132617520Y-67790060D03*
X132617520Y-70290060D03*
X107937300Y-119622420D03*
X107937300Y-122122420D03*
X107937300Y-93622420D03*
X107937300Y-96122420D03*
X179765620Y-133020920D03*
D15*
X192465620Y-133020920D03*
D11*
X179765620Y-107020920D03*
D15*
X192465620Y-107020920D03*
D11*
X165061560Y-81340960D03*
D15*
X177761560Y-81340960D03*
D11*
X151765620Y-133020920D03*
D15*
X164465620Y-133020920D03*
D11*
X151765620Y-107020920D03*
D15*
X164465620Y-107020920D03*
D11*
X143119460Y-81371440D03*
D15*
X155819460Y-81371440D03*
D11*
X123765620Y-133020920D03*
D15*
X136465620Y-133020920D03*
D11*
X123765620Y-107020920D03*
D15*
X136465620Y-107020920D03*
D11*
X120445840Y-81188560D03*
D15*
X133145840Y-81188560D03*
D11*
X95765620Y-133020920D03*
D15*
X108465620Y-133020920D03*
D11*
X95765620Y-107020920D03*
D15*
X108465620Y-107020920D03*
D12*
X176016580Y-124059800D03*
D13*
X176016580Y-118979800D03*
D12*
X176016580Y-98059800D03*
D13*
X176016580Y-92979800D03*
D12*
X161312520Y-72379840D03*
D13*
X161312520Y-67299840D03*
D12*
X148016580Y-124059800D03*
D13*
X148016580Y-118979800D03*
D12*
X148016580Y-98059800D03*
D13*
X148016580Y-92979800D03*
D12*
X139370420Y-72410320D03*
D13*
X139370420Y-67330320D03*
D12*
X120016580Y-124059800D03*
D13*
X120016580Y-118979800D03*
D12*
X120016580Y-98059800D03*
D13*
X120016580Y-92979800D03*
D12*
X116696800Y-72227440D03*
D13*
X116696800Y-67147440D03*
D12*
X92016580Y-124059800D03*
D13*
X92016580Y-118979800D03*
D12*
X92016580Y-98059800D03*
D13*
X92016580Y-92979800D03*
D14*
X180870520Y-119607180D03*
D15*
X188490520Y-127227180D03*
X180870520Y-122147180D03*
X188490520Y-124687180D03*
X180870520Y-124687180D03*
X188490520Y-122147180D03*
X180870520Y-127227180D03*
X188490520Y-119607180D03*
D14*
X180870520Y-93607180D03*
D15*
X188490520Y-101227180D03*
X180870520Y-96147180D03*
X188490520Y-98687180D03*
X180870520Y-98687180D03*
X188490520Y-96147180D03*
X180870520Y-101227180D03*
X188490520Y-93607180D03*
D14*
X166166460Y-67927220D03*
D15*
X173786460Y-75547220D03*
X166166460Y-70467220D03*
X173786460Y-73007220D03*
X166166460Y-73007220D03*
X173786460Y-70467220D03*
X166166460Y-75547220D03*
X173786460Y-67927220D03*
D14*
X152870520Y-119607180D03*
D15*
X160490520Y-127227180D03*
X152870520Y-122147180D03*
X160490520Y-124687180D03*
X152870520Y-124687180D03*
X160490520Y-122147180D03*
X152870520Y-127227180D03*
X160490520Y-119607180D03*
D14*
X152870520Y-93607180D03*
D15*
X160490520Y-101227180D03*
X152870520Y-96147180D03*
X160490520Y-98687180D03*
X152870520Y-98687180D03*
X160490520Y-96147180D03*
X152870520Y-101227180D03*
X160490520Y-93607180D03*
D14*
X144224360Y-67957700D03*
D15*
X151844360Y-75577700D03*
X144224360Y-70497700D03*
X151844360Y-73037700D03*
X144224360Y-73037700D03*
X151844360Y-70497700D03*
X144224360Y-75577700D03*
X151844360Y-67957700D03*
D14*
X124870520Y-119607180D03*
D15*
X132490520Y-127227180D03*
X124870520Y-122147180D03*
X132490520Y-124687180D03*
X124870520Y-124687180D03*
X132490520Y-122147180D03*
X124870520Y-127227180D03*
X132490520Y-119607180D03*
D14*
X124870520Y-93607180D03*
D15*
X132490520Y-101227180D03*
X124870520Y-96147180D03*
X132490520Y-98687180D03*
X124870520Y-98687180D03*
X132490520Y-96147180D03*
X124870520Y-101227180D03*
X132490520Y-93607180D03*
D14*
X121550740Y-67774820D03*
D15*
X129170740Y-75394820D03*
X121550740Y-70314820D03*
X129170740Y-72854820D03*
X121550740Y-72854820D03*
X129170740Y-70314820D03*
X121550740Y-75394820D03*
X129170740Y-67774820D03*
D14*
X96870520Y-119607180D03*
D15*
X104490520Y-127227180D03*
X96870520Y-122147180D03*
X104490520Y-124687180D03*
X96870520Y-124687180D03*
X104490520Y-122147180D03*
X96870520Y-127227180D03*
X104490520Y-119607180D03*
D14*
X96870520Y-93607180D03*
D15*
X104490520Y-101227180D03*
X96870520Y-96147180D03*
X104490520Y-98687180D03*
X96870520Y-98687180D03*
X104490520Y-96147180D03*
X96870520Y-101227180D03*
X104490520Y-93607180D03*
D12*
X175973400Y-126559160D03*
D13*
X175973400Y-131639160D03*
D12*
X175973400Y-100559160D03*
D13*
X175973400Y-105639160D03*
D12*
X161269340Y-74879200D03*
D13*
X161269340Y-79959200D03*
D12*
X147973400Y-126559160D03*
D13*
X147973400Y-131639160D03*
D12*
X147973400Y-100559160D03*
D13*
X147973400Y-105639160D03*
D12*
X139327240Y-74909680D03*
D13*
X139327240Y-79989680D03*
D12*
X119973400Y-126559160D03*
D13*
X119973400Y-131639160D03*
D12*
X119973400Y-100559160D03*
D13*
X119973400Y-105639160D03*
D12*
X116653620Y-74726800D03*
D13*
X116653620Y-79806800D03*
D12*
X91973400Y-126559160D03*
D13*
X91973400Y-131639160D03*
D12*
X91973400Y-100559160D03*
D13*
X91973400Y-105639160D03*
D14*
X96870520Y-67607180D03*
D15*
X104490520Y-75227180D03*
X96870520Y-70147180D03*
X104490520Y-72687180D03*
X96870520Y-72687180D03*
X104490520Y-70147180D03*
X96870520Y-75227180D03*
X104490520Y-67607180D03*
D16*
X69771260Y-92870000D03*
D17*
X69771260Y-94870000D03*
X69771260Y-96870000D03*
X69771260Y-98870000D03*
X69771260Y-100870000D03*
X69771260Y-102870000D03*
X69771260Y-104870000D03*
X69771260Y-106870000D03*
X69771260Y-108870000D03*
X69771260Y-110870000D03*
X69771260Y-112870000D03*
X69771260Y-114870000D03*
X69771260Y-116870000D03*
D16*
X216334340Y-92798900D03*
D17*
X216334340Y-94798900D03*
X216334340Y-96798900D03*
X216334340Y-98798900D03*
X216334340Y-100798900D03*
X216334340Y-102798900D03*
X216334340Y-104798900D03*
X216334340Y-106798900D03*
X216334340Y-108798900D03*
X216334340Y-110798900D03*
X216334340Y-112798900D03*
X216334340Y-114798900D03*
X216334340Y-116798900D03*
D12*
X91973400Y-74559160D03*
D13*
X91973400Y-79639160D03*
D12*
X92016580Y-72059800D03*
D13*
X92016580Y-66979800D03*
D18*
X87147400Y-76972160D03*
X111798100Y-76880720D03*
D11*
X95765620Y-81020920D03*
D15*
X108465620Y-81020920D03*
D11*
X107937300Y-67622420D03*
X107937300Y-70122420D03*
D19*
X79204820Y-86558120D03*
D20*
X76664820Y-86558120D03*
D21*
X77746860Y-75786620D03*
D22*
X77746860Y-73286620D03*
D23*
X71145400Y-87094060D03*
D24*
X71145400Y-71854060D03*
D25*
X87152480Y-79275940D03*
X87147400Y-88419940D03*
X88806020Y-94861380D03*
X88806020Y-100584000D03*
X87576660Y-96967040D03*
X87607140Y-126535180D03*
X114843560Y-81315560D03*
X85686900Y-98755200D03*
X85686900Y-90860880D03*
X117685820Y-87152480D03*
X114335560Y-74701400D03*
X86469220Y-100797360D03*
X86530180Y-92008960D03*
X116799360Y-88041480D03*
X117287040Y-100553520D03*
X86438740Y-102979220D03*
X86545420Y-109321600D03*
X117612160Y-110012480D03*
X117665500Y-126479300D03*
X150929340Y-90876120D03*
X137040620Y-74876660D03*
X84739480Y-104907080D03*
X84797900Y-94173040D03*
X90004900Y-106934000D03*
X90043000Y-91851480D03*
X145605500Y-90347800D03*
X145605500Y-100568760D03*
X145780760Y-110817660D03*
X145869660Y-126537720D03*
X169318940Y-110398560D03*
X169318940Y-94465140D03*
X158948120Y-91102180D03*
X158948120Y-74881740D03*
X172252640Y-112824260D03*
X172305980Y-100533200D03*
X173093380Y-114747040D03*
X173093380Y-126535180D03*
X183395620Y-74912220D03*
X194536060Y-116773960D03*
X108452920Y-75354180D03*
X108422440Y-78541880D03*
X111795560Y-79126080D03*
X111798100Y-82755740D03*
X110594140Y-85615780D03*
X110583980Y-96565720D03*
X111414560Y-86311740D03*
X111020860Y-122880120D03*
X138734800Y-86959440D03*
X135465820Y-81280000D03*
X139217400Y-87708740D03*
X138755120Y-96657160D03*
X139933680Y-88557100D03*
X139110720Y-122549920D03*
X155788360Y-89385140D03*
X155788360Y-83969860D03*
X155859480Y-75288140D03*
X155811220Y-79034640D03*
X167170100Y-90378280D03*
X167073580Y-96654620D03*
X168051480Y-91150440D03*
X166956740Y-122400060D03*
X181416960Y-84030820D03*
X190342520Y-91981020D03*
X177779680Y-75265280D03*
X177769520Y-79029560D03*
X212994240Y-114805460D03*
X198368920Y-114805460D03*
X94947740Y-71554340D03*
X94973140Y-78115160D03*
X193822320Y-96281240D03*
X193730880Y-122110500D03*
X165930580Y-96194880D03*
X165821360Y-122115580D03*
X137888980Y-96133920D03*
X137711180Y-122135900D03*
X109791500Y-122102880D03*
X109827060Y-71277480D03*
X109827060Y-96146620D03*
X94973140Y-104115160D03*
X94947740Y-97554340D03*
X94973140Y-130115160D03*
X94947740Y-123554340D03*
X119653360Y-78282800D03*
X119627960Y-71721980D03*
X122973140Y-104115160D03*
X122947740Y-97554340D03*
X122973140Y-130115160D03*
X122947740Y-123554340D03*
X142326980Y-78465680D03*
X142301580Y-71904860D03*
X150973140Y-104115160D03*
X150947740Y-97554340D03*
X150973140Y-130115160D03*
X150947740Y-123554340D03*
X164269080Y-78435200D03*
X164243680Y-71874380D03*
X178973140Y-104115160D03*
X178947740Y-97554340D03*
X178973140Y-130115160D03*
X178947740Y-123554340D03*
X188338120Y-71907400D03*
X188363520Y-78468220D03*
D26*
X87152480Y-79275940D02*
X87147400Y-79270860D01*
X87147400Y-79270860D02*
X87147400Y-76972160D01*
X67624960Y-92456000D02*
X68038960Y-92870000D01*
X68038960Y-92870000D02*
X69771260Y-92870000D01*
X67624960Y-90576400D02*
X67624960Y-92456000D01*
X68346320Y-89855040D02*
X67624960Y-90576400D01*
X85712300Y-89855040D02*
X68346320Y-89855040D01*
X87147400Y-88419940D02*
X85712300Y-89855040D01*
X91973400Y-74559160D02*
X89560400Y-74559160D01*
X89560400Y-74559160D02*
X87147400Y-76972160D01*
X91973400Y-74559160D02*
X94998540Y-74559160D01*
X94998540Y-74559160D02*
X96870520Y-72687180D01*
X96695260Y-72862440D02*
X96870520Y-72687180D01*
X96710500Y-72847200D02*
X96870520Y-72687180D01*
X96763840Y-72793860D02*
X96870520Y-72687180D01*
X96751140Y-72806560D02*
X96870520Y-72687180D01*
X88806020Y-94861380D02*
X69779880Y-94861380D01*
X69779880Y-94861380D02*
X69771260Y-94870000D01*
X91973400Y-100559160D02*
X88830860Y-100559160D01*
X88830860Y-100559160D02*
X88806020Y-100584000D01*
X96763840Y-98793860D02*
X96870520Y-98687180D01*
X91973400Y-100559160D02*
X94998540Y-100559160D01*
X94998540Y-100559160D02*
X96870520Y-98687180D01*
X96695260Y-98862440D02*
X96870520Y-98687180D01*
X96710500Y-98847200D02*
X96870520Y-98687180D01*
X96751140Y-98806560D02*
X96870520Y-98687180D01*
X87576660Y-96967040D02*
X69868300Y-96967040D01*
X69868300Y-96967040D02*
X69771260Y-96870000D01*
X91973400Y-126559160D02*
X87631120Y-126559160D01*
X87631120Y-126559160D02*
X87607140Y-126535180D01*
X96763840Y-124793860D02*
X96870520Y-124687180D01*
X91973400Y-126559160D02*
X94998540Y-126559160D01*
X94998540Y-126559160D02*
X96870520Y-124687180D01*
X96695260Y-124862440D02*
X96870520Y-124687180D01*
X96710500Y-124847200D02*
X96870520Y-124687180D01*
X96751140Y-124806560D02*
X96870520Y-124687180D01*
X114843560Y-81315560D02*
X114335560Y-80807560D01*
X114335560Y-80807560D02*
X114335560Y-80799940D01*
X114335560Y-74701400D02*
X114335560Y-80799940D01*
X85686900Y-98755200D02*
X69886060Y-98755200D01*
X69886060Y-98755200D02*
X69771260Y-98870000D01*
X89994740Y-87152480D02*
X86286340Y-90860880D01*
X86286340Y-90860880D02*
X85686900Y-90860880D01*
X117685820Y-87152480D02*
X89994740Y-87152480D01*
X116653620Y-74726800D02*
X114360960Y-74726800D01*
X114360960Y-74726800D02*
X114335560Y-74701400D01*
X121444060Y-72961500D02*
X121550740Y-72854820D01*
X116653620Y-74726800D02*
X119678760Y-74726800D01*
X119678760Y-74726800D02*
X121550740Y-72854820D01*
X121375480Y-73030080D02*
X121550740Y-72854820D01*
X121390720Y-73014840D02*
X121550740Y-72854820D01*
X121431360Y-72974200D02*
X121550740Y-72854820D01*
X86469220Y-100797360D02*
X69843900Y-100797360D01*
X69843900Y-100797360D02*
X69771260Y-100870000D01*
X116799360Y-88041480D02*
X90497660Y-88041480D01*
X90497660Y-88041480D02*
X86530180Y-92008960D01*
X119973400Y-100559160D02*
X117292680Y-100559160D01*
X117292680Y-100559160D02*
X117287040Y-100553520D01*
X124763840Y-98793860D02*
X124870520Y-98687180D01*
X119973400Y-100559160D02*
X122998540Y-100559160D01*
X122998540Y-100559160D02*
X124870520Y-98687180D01*
X124695260Y-98862440D02*
X124870520Y-98687180D01*
X124710500Y-98847200D02*
X124870520Y-98687180D01*
X124751140Y-98806560D02*
X124870520Y-98687180D01*
X86438740Y-102979220D02*
X86329520Y-102870000D01*
X86329520Y-102870000D02*
X69771260Y-102870000D01*
X109456220Y-110012480D02*
X108765340Y-109321600D01*
X108765340Y-109321600D02*
X86545420Y-109321600D01*
X117612160Y-110012480D02*
X109456220Y-110012480D01*
X118657520Y-126559160D02*
X117745360Y-126559160D01*
X117745360Y-126559160D02*
X117665500Y-126479300D01*
X119973400Y-126559160D02*
X118657520Y-126559160D01*
X124763840Y-124793860D02*
X124870520Y-124687180D01*
X119973400Y-126559160D02*
X122998540Y-126559160D01*
X122998540Y-126559160D02*
X124870520Y-124687180D01*
X124695260Y-124862440D02*
X124870520Y-124687180D01*
X124710500Y-124847200D02*
X124870520Y-124687180D01*
X124751140Y-124806560D02*
X124870520Y-124687180D01*
X150929340Y-90876120D02*
X149316440Y-89263220D01*
X149316440Y-89263220D02*
X145948400Y-89263220D01*
X139327240Y-74909680D02*
X137073640Y-74909680D01*
X137073640Y-74909680D02*
X137040620Y-74876660D01*
X84739480Y-104907080D02*
X84702400Y-104870000D01*
X84702400Y-104870000D02*
X69771260Y-104870000D01*
X91018360Y-89263220D02*
X86108540Y-94173040D01*
X86108540Y-94173040D02*
X84797900Y-94173040D01*
X145948400Y-89263220D02*
X91018360Y-89263220D01*
X144117680Y-73144380D02*
X144224360Y-73037700D01*
X139327240Y-74909680D02*
X142352380Y-74909680D01*
X142352380Y-74909680D02*
X144224360Y-73037700D01*
X144049100Y-73212960D02*
X144224360Y-73037700D01*
X144064340Y-73197720D02*
X144224360Y-73037700D01*
X144104980Y-73157080D02*
X144224360Y-73037700D01*
X90004900Y-106934000D02*
X69835260Y-106934000D01*
X69835260Y-106934000D02*
X69771260Y-106870000D01*
X92732860Y-90347800D02*
X91546680Y-90347800D01*
X91546680Y-90347800D02*
X90043000Y-91851480D01*
X145605500Y-90347800D02*
X92732860Y-90347800D01*
X147973400Y-100559160D02*
X145615100Y-100559160D01*
X145615100Y-100559160D02*
X145605500Y-100568760D01*
X152763840Y-98793860D02*
X152870520Y-98687180D01*
X147973400Y-100559160D02*
X150998540Y-100559160D01*
X150998540Y-100559160D02*
X152870520Y-98687180D01*
X152695260Y-98862440D02*
X152870520Y-98687180D01*
X152710500Y-98847200D02*
X152870520Y-98687180D01*
X152751140Y-98806560D02*
X152870520Y-98687180D01*
X85714840Y-110205520D02*
X84379320Y-108870000D01*
X84379320Y-108870000D02*
X69771260Y-108870000D01*
X107947460Y-110205520D02*
X85714840Y-110205520D01*
X108559600Y-110817660D02*
X107947460Y-110205520D01*
X145780760Y-110817660D02*
X108559600Y-110817660D01*
X147973400Y-126559160D02*
X145891100Y-126559160D01*
X145891100Y-126559160D02*
X145869660Y-126537720D01*
X152763840Y-124793860D02*
X152870520Y-124687180D01*
X147973400Y-126559160D02*
X150998540Y-126559160D01*
X150998540Y-126559160D02*
X152870520Y-124687180D01*
X152695260Y-124862440D02*
X152870520Y-124687180D01*
X152710500Y-124847200D02*
X152870520Y-124687180D01*
X152751140Y-124806560D02*
X152870520Y-124687180D01*
X169318940Y-111724440D02*
X169130980Y-111912400D01*
X169130980Y-111912400D02*
X84244180Y-111912400D01*
X169318940Y-110398560D02*
X169318940Y-111724440D01*
X165915340Y-91102180D02*
X169278300Y-94465140D01*
X169278300Y-94465140D02*
X169318940Y-94465140D01*
X158948120Y-91102180D02*
X165915340Y-91102180D01*
X161269340Y-74879200D02*
X158950660Y-74879200D01*
X158950660Y-74879200D02*
X158948120Y-74881740D01*
X84244180Y-111912400D02*
X83201780Y-110870000D01*
X83201780Y-110870000D02*
X69771260Y-110870000D01*
X166059780Y-73113900D02*
X166166460Y-73007220D01*
X161269340Y-74879200D02*
X164294480Y-74879200D01*
X164294480Y-74879200D02*
X166166460Y-73007220D01*
X165991200Y-73182480D02*
X166166460Y-73007220D01*
X166006440Y-73167240D02*
X166166460Y-73007220D01*
X166047080Y-73126600D02*
X166166460Y-73007220D01*
X172252640Y-112824260D02*
X69817000Y-112824260D01*
X69817000Y-112824260D02*
X69771260Y-112870000D01*
X175973400Y-100559160D02*
X172331940Y-100559160D01*
X172331940Y-100559160D02*
X172305980Y-100533200D01*
X180763840Y-98793860D02*
X180870520Y-98687180D01*
X175973400Y-100559160D02*
X178998540Y-100559160D01*
X178998540Y-100559160D02*
X180870520Y-98687180D01*
X180695260Y-98862440D02*
X180870520Y-98687180D01*
X180710500Y-98847200D02*
X180870520Y-98687180D01*
X180751140Y-98806560D02*
X180870520Y-98687180D01*
X173093380Y-114747040D02*
X69894220Y-114747040D01*
X69894220Y-114747040D02*
X69771260Y-114870000D01*
X175973400Y-126559160D02*
X173117360Y-126559160D01*
X173117360Y-126559160D02*
X173093380Y-126535180D01*
X180763840Y-124793860D02*
X180870520Y-124687180D01*
X175973400Y-126559160D02*
X178998540Y-126559160D01*
X178998540Y-126559160D02*
X180870520Y-124687180D01*
X180695260Y-124862440D02*
X180870520Y-124687180D01*
X180710500Y-124847200D02*
X180870520Y-124687180D01*
X180751140Y-124806560D02*
X180870520Y-124687180D01*
X185363780Y-74912220D02*
X183395620Y-74912220D01*
X194536060Y-116773960D02*
X194440020Y-116870000D01*
X194440020Y-116870000D02*
X69771260Y-116870000D01*
X190154220Y-73146920D02*
X190260900Y-73040240D01*
X188388920Y-74912220D02*
X190260900Y-73040240D01*
X190085640Y-73215500D02*
X190260900Y-73040240D01*
X190100880Y-73200260D02*
X190260900Y-73040240D01*
X190141520Y-73159620D02*
X190260900Y-73040240D01*
X185363780Y-74912220D02*
X188388920Y-74912220D01*
X108465620Y-74439780D02*
X108445300Y-74419460D01*
X108445300Y-74419460D02*
X106713020Y-72687180D01*
X108452920Y-75354180D02*
X108452920Y-74427080D01*
X108452920Y-74427080D02*
X108445300Y-74419460D01*
X108465620Y-81020920D02*
X108465620Y-78585060D01*
X108465620Y-78585060D02*
X108422440Y-78541880D01*
X111795560Y-79126080D02*
X111798100Y-79123540D01*
X111798100Y-79123540D02*
X111798100Y-76880720D01*
X111798100Y-82755740D02*
X113837720Y-84795360D01*
X113837720Y-84795360D02*
X213537442Y-84795360D01*
X213537442Y-84795360D02*
X216334340Y-87592258D01*
X216334340Y-87592258D02*
X216334340Y-92798900D01*
X108465620Y-74439780D02*
X109357160Y-74439780D01*
X109357160Y-74439780D02*
X111798100Y-76880720D01*
X106713020Y-72687180D02*
X106172000Y-72687180D01*
X104490520Y-72687180D02*
X106172000Y-72687180D01*
X110594140Y-85615780D02*
X110704939Y-85504981D01*
X110704939Y-85504981D02*
X212946941Y-85504981D01*
X212946941Y-85504981D02*
X214550780Y-87108820D01*
X214550780Y-87108820D02*
X214550780Y-94101440D01*
X214550780Y-94101440D02*
X215248240Y-94798900D01*
X215248240Y-94798900D02*
X216334340Y-94798900D01*
X108465620Y-98668840D02*
X110568740Y-96565720D01*
X110568740Y-96565720D02*
X110583980Y-96565720D01*
X108465620Y-100439780D02*
X108465620Y-98668840D01*
X106713020Y-98687180D02*
X106172000Y-98687180D01*
X108465620Y-107020920D02*
X108465620Y-100439780D01*
X108465620Y-100439780D02*
X106713020Y-98687180D01*
X104490520Y-98687180D02*
X106172000Y-98687180D01*
X213603840Y-95229680D02*
X215173060Y-96798900D01*
X215173060Y-96798900D02*
X216334340Y-96798900D01*
X213603840Y-87696040D02*
X213603840Y-95229680D01*
X212219540Y-86311740D02*
X213603840Y-87696040D01*
X111414560Y-86311740D02*
X212219540Y-86311740D01*
X108465620Y-125242320D02*
X110827820Y-122880120D01*
X110827820Y-122880120D02*
X111020860Y-122880120D01*
X108465620Y-126439780D02*
X108465620Y-125242320D01*
X106713020Y-124687180D02*
X106172000Y-124687180D01*
X108465620Y-133020920D02*
X108465620Y-126439780D01*
X108465620Y-126439780D02*
X106713020Y-124687180D01*
X104490520Y-124687180D02*
X106172000Y-124687180D01*
X138734800Y-86959440D02*
X211018120Y-86959440D01*
X211018120Y-86959440D02*
X212785519Y-88726839D01*
X212785519Y-88726839D02*
X212785519Y-96339219D01*
X212785519Y-96339219D02*
X215245200Y-98798900D01*
X215245200Y-98798900D02*
X216334340Y-98798900D01*
X133145840Y-81188560D02*
X135374380Y-81188560D01*
X135374380Y-81188560D02*
X135465820Y-81280000D01*
X131393240Y-72854820D02*
X130852220Y-72854820D01*
X133145840Y-81188560D02*
X133145840Y-74607420D01*
X133145840Y-74607420D02*
X131393240Y-72854820D01*
X129170740Y-72854820D02*
X130852220Y-72854820D01*
X211884260Y-97381060D02*
X215302100Y-100798900D01*
X215302100Y-100798900D02*
X216334340Y-100798900D01*
X211884260Y-89415620D02*
X211884260Y-97381060D01*
X210177380Y-87708740D02*
X211884260Y-89415620D01*
X139217400Y-87708740D02*
X210177380Y-87708740D01*
X136465620Y-100439780D02*
X136465620Y-98946660D01*
X136465620Y-98946660D02*
X138755120Y-96657160D01*
X134713020Y-98687180D02*
X134172000Y-98687180D01*
X136465620Y-107020920D02*
X136465620Y-100439780D01*
X136465620Y-100439780D02*
X134713020Y-98687180D01*
X132490520Y-98687180D02*
X134172000Y-98687180D01*
X210974940Y-98638360D02*
X215135480Y-102798900D01*
X215135480Y-102798900D02*
X216334340Y-102798900D01*
X210974940Y-90584020D02*
X210974940Y-98638360D01*
X208948020Y-88557100D02*
X210974940Y-90584020D01*
X139933680Y-88557100D02*
X208948020Y-88557100D01*
X136465620Y-126439780D02*
X136465620Y-125195020D01*
X136465620Y-125195020D02*
X139110720Y-122549920D01*
X134713020Y-124687180D02*
X134172000Y-124687180D01*
X136465620Y-133020920D02*
X136465620Y-126439780D01*
X136465620Y-126439780D02*
X134713020Y-124687180D01*
X132490520Y-124687180D02*
X134172000Y-124687180D01*
X155788360Y-89385140D02*
X166811960Y-89385140D01*
X166811960Y-89385140D02*
X166832280Y-89364820D01*
X166832280Y-89364820D02*
X208206340Y-89364820D01*
X208206340Y-89364820D02*
X210185000Y-91343480D01*
X210185000Y-91343480D02*
X210185000Y-100180140D01*
X210185000Y-100180140D02*
X214803760Y-104798900D01*
X214803760Y-104798900D02*
X216334340Y-104798900D01*
X155819460Y-81371440D02*
X155819460Y-83938760D01*
X155819460Y-83938760D02*
X155788360Y-83969860D01*
X155859480Y-75288140D02*
X155859480Y-74830320D01*
X155859480Y-74830320D02*
X154066860Y-73037700D01*
X154066860Y-73037700D02*
X153525840Y-73037700D01*
X153525840Y-73037700D02*
X151844360Y-73037700D01*
X155819460Y-81371440D02*
X155819460Y-79042880D01*
X155819460Y-79042880D02*
X155811220Y-79034640D01*
X155819460Y-81371440D02*
X155819460Y-82085800D01*
X209072480Y-101480620D02*
X214390760Y-106798900D01*
X214390760Y-106798900D02*
X216334340Y-106798900D01*
X209072480Y-91970860D02*
X209072480Y-101480620D01*
X207479900Y-90378280D02*
X209072480Y-91970860D01*
X167170100Y-90378280D02*
X207479900Y-90378280D01*
X164465620Y-99262580D02*
X167073580Y-96654620D01*
X164465620Y-100439780D02*
X164465620Y-99262580D01*
X162713020Y-98687180D02*
X162172000Y-98687180D01*
X164465620Y-107020920D02*
X164465620Y-100439780D01*
X164465620Y-100439780D02*
X162713020Y-98687180D01*
X160490520Y-98687180D02*
X162172000Y-98687180D01*
X208033620Y-102430580D02*
X214401940Y-108798900D01*
X214401940Y-108798900D02*
X216334340Y-108798900D01*
X208033620Y-92555060D02*
X208033620Y-102430580D01*
X206629000Y-91150440D02*
X208033620Y-92555060D01*
X168051480Y-91150440D02*
X206629000Y-91150440D01*
X164465620Y-126439780D02*
X164465620Y-124891180D01*
X164465620Y-124891180D02*
X166956740Y-122400060D01*
X162713020Y-124687180D02*
X162172000Y-124687180D01*
X164465620Y-133020920D02*
X164465620Y-126439780D01*
X164465620Y-126439780D02*
X162713020Y-124687180D01*
X160490520Y-124687180D02*
X162172000Y-124687180D01*
X180878480Y-84030820D02*
X180845460Y-84063840D01*
X180845460Y-84063840D02*
X180286660Y-84063840D01*
X181416960Y-84030820D02*
X180878480Y-84030820D01*
X195044060Y-91955620D02*
X190367920Y-91955620D01*
X190367920Y-91955620D02*
X190342520Y-91981020D01*
X177779680Y-75265280D02*
X177779680Y-74777940D01*
X177779680Y-74777940D02*
X176008960Y-73007220D01*
X176008960Y-73007220D02*
X175467940Y-73007220D01*
X175467940Y-73007220D02*
X173786460Y-73007220D01*
X177761560Y-81340960D02*
X177761560Y-79037520D01*
X177761560Y-79037520D02*
X177769520Y-79029560D01*
X206926180Y-103416100D02*
X214308980Y-110798900D01*
X214308980Y-110798900D02*
X216334340Y-110798900D01*
X206926180Y-92986860D02*
X206926180Y-103416100D01*
X205894940Y-91955620D02*
X206926180Y-92986860D01*
X195044060Y-91955620D02*
X205894940Y-91955620D01*
X177761560Y-81340960D02*
X177761560Y-81538740D01*
X177761560Y-81538740D02*
X180286660Y-84063840D01*
X208493920Y-107020920D02*
X214271900Y-112798900D01*
X214271900Y-112798900D02*
X216334340Y-112798900D01*
X192465620Y-107020920D02*
X208493920Y-107020920D01*
X190713020Y-98687180D02*
X190172000Y-98687180D01*
X192465620Y-107020920D02*
X192465620Y-100439780D01*
X192465620Y-100439780D02*
X190713020Y-98687180D01*
X188490520Y-98687180D02*
X190172000Y-98687180D01*
X212994240Y-114805460D02*
X216327780Y-114805460D01*
X216327780Y-114805460D02*
X216334340Y-114798900D01*
X197433140Y-114798900D02*
X198362360Y-114798900D01*
X198362360Y-114798900D02*
X198368920Y-114805460D01*
X195572380Y-116659660D02*
X197433140Y-114798900D01*
X195572380Y-122100340D02*
X195572380Y-116659660D01*
X192465620Y-125207100D02*
X195572380Y-122100340D01*
X192465620Y-126439780D02*
X192465620Y-125207100D01*
X190713020Y-124687180D02*
X190172000Y-124687180D01*
X192465620Y-133020920D02*
X192465620Y-126439780D01*
X192465620Y-126439780D02*
X190713020Y-124687180D01*
X188490520Y-124687180D02*
X190172000Y-124687180D01*
X218620340Y-116118640D02*
X217940080Y-116798900D01*
X217940080Y-116798900D02*
X216334340Y-116798900D01*
X218620340Y-88386920D02*
X218620340Y-116118640D01*
X213690540Y-83457120D02*
X218620340Y-88386920D01*
X203939140Y-83457120D02*
X213690540Y-83457120D01*
X203939140Y-83457120D02*
X201856000Y-81373980D01*
X201856000Y-81373980D02*
X201856000Y-74792840D01*
X201856000Y-74792840D02*
X200103400Y-73040240D01*
X200103400Y-73040240D02*
X199562380Y-73040240D01*
X197880900Y-73040240D02*
X199562380Y-73040240D01*
X92016580Y-72059800D02*
X94442280Y-72059800D01*
X94442280Y-72059800D02*
X94947740Y-71554340D01*
X95791020Y-78933040D02*
X95791020Y-80995520D01*
X95791020Y-80995520D02*
X95765620Y-81020920D01*
X95791020Y-78933040D02*
X94973140Y-78115160D01*
X94947740Y-71554340D02*
X96354900Y-70147180D01*
X96354900Y-70147180D02*
X96870520Y-70147180D01*
X96857820Y-70134480D02*
X96870520Y-70147180D01*
X76664820Y-86558120D02*
X71681340Y-86558120D01*
X71681340Y-86558120D02*
X71145400Y-87094060D01*
X193560700Y-63947040D02*
X201902060Y-63947040D01*
X201327680Y-70475480D02*
X203608940Y-68194220D01*
X203608940Y-68194220D02*
X203608940Y-65653920D01*
X203608940Y-65653920D02*
X201902060Y-63947040D01*
X164211000Y-63947040D02*
X179900580Y-63947040D01*
X179900580Y-63947040D02*
X193560700Y-63947040D01*
X177233240Y-70442460D02*
X179557040Y-70442460D01*
X181391560Y-68607940D02*
X181391560Y-65438020D01*
X179557040Y-70442460D02*
X181391560Y-68607940D01*
X181391560Y-65438020D02*
X179900580Y-63947040D01*
X107614720Y-63947040D02*
X78851760Y-63947040D01*
X78851760Y-63947040D02*
X77746860Y-65051940D01*
X77746860Y-65051940D02*
X77746860Y-65948560D01*
X77746860Y-65948560D02*
X77746860Y-73286620D01*
X134815580Y-63947040D02*
X156004260Y-63947040D01*
X156004260Y-63947040D02*
X164211000Y-63947040D01*
X155291140Y-70472940D02*
X156608140Y-70472940D01*
X156608140Y-70472940D02*
X157068520Y-70012560D01*
X157068520Y-70012560D02*
X157068520Y-65011300D01*
X157068520Y-65011300D02*
X156004260Y-63947040D01*
X107614720Y-63947040D02*
X133126480Y-63947040D01*
X133126480Y-63947040D02*
X134815580Y-63947040D01*
X132617520Y-70290060D02*
X133572880Y-70290060D01*
X134376160Y-69486780D02*
X134376160Y-65196720D01*
X133572880Y-70290060D02*
X134376160Y-69486780D01*
X134376160Y-65196720D02*
X133126480Y-63947040D01*
X193822320Y-96281240D02*
X192096120Y-96281240D01*
X192096120Y-96281240D02*
X191937300Y-96122420D01*
X191937300Y-122122420D02*
X193718960Y-122122420D01*
X193718960Y-122122420D02*
X193730880Y-122110500D01*
X156142060Y-70472940D02*
X155291140Y-70472940D01*
X165930580Y-96194880D02*
X164009760Y-96194880D01*
X164009760Y-96194880D02*
X163937300Y-96122420D01*
X163937300Y-122122420D02*
X165814520Y-122122420D01*
X165814520Y-122122420D02*
X165821360Y-122115580D01*
X133177920Y-70290060D02*
X132617520Y-70290060D01*
X137888980Y-96133920D02*
X135948800Y-96133920D01*
X135948800Y-96133920D02*
X135937300Y-96122420D01*
X135937300Y-122122420D02*
X137697700Y-122122420D01*
X137697700Y-122122420D02*
X137711180Y-122135900D01*
X107937300Y-122122420D02*
X109771960Y-122122420D01*
X109771960Y-122122420D02*
X109791500Y-122102880D01*
X109827060Y-71277480D02*
X108672000Y-70122420D01*
X108672000Y-70122420D02*
X107937300Y-70122420D01*
X107937300Y-96122420D02*
X109802860Y-96122420D01*
X109802860Y-96122420D02*
X109827060Y-96146620D01*
X109634020Y-68933060D02*
X109634020Y-65966340D01*
X109634020Y-65966340D02*
X107614720Y-63947040D01*
X108444660Y-70122420D02*
X109634020Y-68933060D01*
X107937300Y-70122420D02*
X108444660Y-70122420D01*
X77746860Y-73286620D02*
X72577960Y-73286620D01*
X72577960Y-73286620D02*
X71145400Y-71854060D01*
X201302920Y-70500240D02*
X201327680Y-70475480D01*
X197880900Y-70500240D02*
X201302920Y-70500240D01*
X188490520Y-122147180D02*
X191912540Y-122147180D01*
X188490520Y-96147180D02*
X191912540Y-96147180D01*
X173786460Y-70467220D02*
X177208480Y-70467220D01*
X160490520Y-122147180D02*
X163912540Y-122147180D01*
X160490520Y-96147180D02*
X163912540Y-96147180D01*
X151844360Y-70497700D02*
X155266380Y-70497700D01*
X132490520Y-122147180D02*
X135912540Y-122147180D01*
X132490520Y-96147180D02*
X135912540Y-96147180D01*
X129170740Y-70314820D02*
X132592760Y-70314820D01*
X104490520Y-122147180D02*
X107912540Y-122147180D01*
X104490520Y-96147180D02*
X107912540Y-96147180D01*
X191912540Y-122147180D02*
X191937300Y-122122420D01*
X191912540Y-96147180D02*
X191937300Y-96122420D01*
X177208480Y-70467220D02*
X177233240Y-70442460D01*
X163912540Y-122147180D02*
X163937300Y-122122420D01*
X163912540Y-96147180D02*
X163937300Y-96122420D01*
X155266380Y-70497700D02*
X155291140Y-70472940D01*
X135912540Y-122147180D02*
X135937300Y-122122420D01*
X135912540Y-96147180D02*
X135937300Y-96122420D01*
X132592760Y-70314820D02*
X132617520Y-70290060D01*
X107912540Y-122147180D02*
X107937300Y-122122420D01*
X107912540Y-96147180D02*
X107937300Y-96122420D01*
X104490520Y-70147180D02*
X107912540Y-70147180D01*
X107912540Y-70147180D02*
X107937300Y-70122420D01*
X94947740Y-97554340D02*
X96354900Y-96147180D01*
X96857820Y-96134480D02*
X96870520Y-96147180D01*
X96354900Y-96147180D02*
X96870520Y-96147180D01*
X92016580Y-98059800D02*
X94442280Y-98059800D01*
X94442280Y-98059800D02*
X94947740Y-97554340D01*
X95791020Y-104933040D02*
X94973140Y-104115160D01*
X95791020Y-104933040D02*
X95791020Y-106995520D01*
X95791020Y-106995520D02*
X95765620Y-107020920D01*
X94947740Y-123554340D02*
X96354900Y-122147180D01*
X96857820Y-122134480D02*
X96870520Y-122147180D01*
X96354900Y-122147180D02*
X96870520Y-122147180D01*
X92016580Y-124059800D02*
X94442280Y-124059800D01*
X94442280Y-124059800D02*
X94947740Y-123554340D01*
X95791020Y-130933040D02*
X94973140Y-130115160D01*
X95791020Y-130933040D02*
X95791020Y-132995520D01*
X95791020Y-132995520D02*
X95765620Y-133020920D01*
X119627960Y-71721980D02*
X121035120Y-70314820D01*
X121538040Y-70302120D02*
X121550740Y-70314820D01*
X121035120Y-70314820D02*
X121550740Y-70314820D01*
X116696800Y-72227440D02*
X119122500Y-72227440D01*
X119122500Y-72227440D02*
X119627960Y-71721980D01*
X120471240Y-79100680D02*
X119653360Y-78282800D01*
X120471240Y-79100680D02*
X120471240Y-81163160D01*
X120471240Y-81163160D02*
X120445840Y-81188560D01*
X122947740Y-97554340D02*
X124354900Y-96147180D01*
X124857820Y-96134480D02*
X124870520Y-96147180D01*
X124354900Y-96147180D02*
X124870520Y-96147180D01*
X120016580Y-98059800D02*
X122442280Y-98059800D01*
X122442280Y-98059800D02*
X122947740Y-97554340D01*
X123791020Y-104933040D02*
X122973140Y-104115160D01*
X123791020Y-104933040D02*
X123791020Y-106995520D01*
X123791020Y-106995520D02*
X123765620Y-107020920D01*
X122947740Y-123554340D02*
X124354900Y-122147180D01*
X124857820Y-122134480D02*
X124870520Y-122147180D01*
X124354900Y-122147180D02*
X124870520Y-122147180D01*
X120016580Y-124059800D02*
X122442280Y-124059800D01*
X122442280Y-124059800D02*
X122947740Y-123554340D01*
X123791020Y-130933040D02*
X122973140Y-130115160D01*
X123791020Y-130933040D02*
X123791020Y-132995520D01*
X123791020Y-132995520D02*
X123765620Y-133020920D01*
X142301580Y-71904860D02*
X143708740Y-70497700D01*
X144211660Y-70485000D02*
X144224360Y-70497700D01*
X143708740Y-70497700D02*
X144224360Y-70497700D01*
X139370420Y-72410320D02*
X141796120Y-72410320D01*
X141796120Y-72410320D02*
X142301580Y-71904860D01*
X143144860Y-79283560D02*
X142326980Y-78465680D01*
X143144860Y-79283560D02*
X143144860Y-81346040D01*
X143144860Y-81346040D02*
X143119460Y-81371440D01*
X150947740Y-97554340D02*
X152354900Y-96147180D01*
X152857820Y-96134480D02*
X152870520Y-96147180D01*
X152354900Y-96147180D02*
X152870520Y-96147180D01*
X148016580Y-98059800D02*
X150442280Y-98059800D01*
X150442280Y-98059800D02*
X150947740Y-97554340D01*
X151791020Y-104933040D02*
X150973140Y-104115160D01*
X151791020Y-104933040D02*
X151791020Y-106995520D01*
X151791020Y-106995520D02*
X151765620Y-107020920D01*
X150947740Y-123554340D02*
X152354900Y-122147180D01*
X152857820Y-122134480D02*
X152870520Y-122147180D01*
X152354900Y-122147180D02*
X152870520Y-122147180D01*
X148016580Y-124059800D02*
X150442280Y-124059800D01*
X150442280Y-124059800D02*
X150947740Y-123554340D01*
X151791020Y-130933040D02*
X150973140Y-130115160D01*
X151791020Y-130933040D02*
X151791020Y-132995520D01*
X151791020Y-132995520D02*
X151765620Y-133020920D01*
X164243680Y-71874380D02*
X165650840Y-70467220D01*
X166153760Y-70454520D02*
X166166460Y-70467220D01*
X165650840Y-70467220D02*
X166166460Y-70467220D01*
X161312520Y-72379840D02*
X163738220Y-72379840D01*
X163738220Y-72379840D02*
X164243680Y-71874380D01*
X165086960Y-79253080D02*
X164269080Y-78435200D01*
X165086960Y-79253080D02*
X165086960Y-81315560D01*
X165086960Y-81315560D02*
X165061560Y-81340960D01*
X178947740Y-97554340D02*
X180354900Y-96147180D01*
X180857820Y-96134480D02*
X180870520Y-96147180D01*
X180354900Y-96147180D02*
X180870520Y-96147180D01*
X176016580Y-98059800D02*
X178442280Y-98059800D01*
X178442280Y-98059800D02*
X178947740Y-97554340D01*
X179791020Y-104933040D02*
X178973140Y-104115160D01*
X179791020Y-104933040D02*
X179791020Y-106995520D01*
X179791020Y-106995520D02*
X179765620Y-107020920D01*
X178947740Y-123554340D02*
X180354900Y-122147180D01*
X180857820Y-122134480D02*
X180870520Y-122147180D01*
X180354900Y-122147180D02*
X180870520Y-122147180D01*
X176016580Y-124059800D02*
X178442280Y-124059800D01*
X178442280Y-124059800D02*
X178947740Y-123554340D01*
X179791020Y-130933040D02*
X178973140Y-130115160D01*
X179791020Y-130933040D02*
X179791020Y-132995520D01*
X179791020Y-132995520D02*
X179765620Y-133020920D01*
X185406960Y-72412860D02*
X187832660Y-72412860D01*
X187832660Y-72412860D02*
X188338120Y-71907400D01*
X190248200Y-70487540D02*
X190260900Y-70500240D01*
X188338120Y-71907400D02*
X189745280Y-70500240D01*
X189745280Y-70500240D02*
X190260900Y-70500240D01*
X189181400Y-79286100D02*
X188363520Y-78468220D01*
X189181400Y-79286100D02*
X189181400Y-81348580D01*
X189181400Y-81348580D02*
X189156000Y-81373980D01*
M02*
