M48
;DRILL file {KiCad 4.0.7} date 02/22/19 22:29:33
;FORMAT={-:-/ absolute / metric / decimal}
FMAT,2
METRIC,TZ
T1C0.400
T2C0.700
T3C0.800
T4C0.900
T5C1.050
T6C1.200
T7C4.300
%
G90
G05
M71
T1
X84.739Y-104.907
X84.798Y-94.173
X85.687Y-90.861
X85.687Y-98.755
X86.439Y-102.979
X86.469Y-100.797
X86.53Y-92.009
X86.545Y-109.322
X87.147Y-88.42
X87.152Y-79.276
X87.577Y-96.967
X87.607Y-126.535
X88.806Y-94.861
X88.806Y-100.584
X90.005Y-106.934
X90.043Y-91.851
X94.948Y-71.554
X94.948Y-97.554
X94.948Y-123.554
X94.973Y-78.115
X94.973Y-104.115
X94.973Y-130.115
X108.422Y-78.542
X108.453Y-75.354
X109.791Y-122.103
X109.827Y-71.277
X109.827Y-96.147
X110.584Y-96.566
X110.594Y-85.616
X111.021Y-122.88
X111.415Y-86.312
X111.796Y-79.126
X111.798Y-82.756
X114.336Y-74.701
X114.844Y-81.316
X116.799Y-88.041
X117.287Y-100.554
X117.612Y-110.012
X117.665Y-126.479
X117.686Y-87.152
X119.628Y-71.722
X119.653Y-78.283
X122.948Y-97.554
X122.948Y-123.554
X122.973Y-104.115
X122.973Y-130.115
X135.466Y-81.28
X137.041Y-74.877
X137.711Y-122.136
X137.889Y-96.134
X138.735Y-86.959
X138.755Y-96.657
X139.111Y-122.55
X139.217Y-87.709
X139.934Y-88.557
X142.302Y-71.905
X142.327Y-78.466
X145.606Y-90.348
X145.606Y-100.569
X145.781Y-110.818
X145.87Y-126.538
X150.929Y-90.876
X150.948Y-97.554
X150.948Y-123.554
X150.973Y-104.115
X150.973Y-130.115
X155.788Y-83.97
X155.788Y-89.385
X155.811Y-79.035
X155.859Y-75.288
X158.948Y-74.882
X158.948Y-91.102
X164.244Y-71.874
X164.269Y-78.435
X165.821Y-122.116
X165.931Y-96.195
X166.957Y-122.4
X167.074Y-96.655
X167.17Y-90.378
X168.051Y-91.15
X169.319Y-94.465
X169.319Y-110.399
X172.253Y-112.824
X172.306Y-100.533
X173.093Y-114.747
X173.093Y-126.535
X177.77Y-79.03
X177.78Y-75.265
X178.948Y-97.554
X178.948Y-123.554
X178.973Y-104.115
X178.973Y-130.115
X181.417Y-84.031
X183.396Y-74.912
X188.338Y-71.907
X188.364Y-78.468
X190.343Y-91.981
X193.731Y-122.11
X193.822Y-96.281
X194.536Y-116.774
X198.369Y-114.805
X212.994Y-114.805
T2
X91.973Y-74.559
X91.973Y-79.639
X91.973Y-100.559
X91.973Y-105.639
X91.973Y-126.559
X91.973Y-131.639
X92.017Y-66.98
X92.017Y-72.06
X92.017Y-92.98
X92.017Y-98.06
X92.017Y-118.98
X92.017Y-124.06
X116.654Y-74.727
X116.654Y-79.807
X116.697Y-67.147
X116.697Y-72.227
X119.973Y-100.559
X119.973Y-105.639
X119.973Y-126.559
X119.973Y-131.639
X120.017Y-92.98
X120.017Y-98.06
X120.017Y-118.98
X120.017Y-124.06
X139.327Y-74.91
X139.327Y-79.99
X139.37Y-67.33
X139.37Y-72.41
X147.973Y-100.559
X147.973Y-105.639
X147.973Y-126.559
X147.973Y-131.639
X148.017Y-92.98
X148.017Y-98.06
X148.017Y-118.98
X148.017Y-124.06
X161.269Y-74.879
X161.269Y-79.959
X161.313Y-67.3
X161.313Y-72.38
X175.973Y-100.559
X175.973Y-105.639
X175.973Y-126.559
X175.973Y-131.639
X176.017Y-92.98
X176.017Y-98.06
X176.017Y-118.98
X176.017Y-124.06
X185.364Y-74.912
X185.364Y-79.992
X185.407Y-67.333
X185.407Y-72.413
T3
X69.771Y-92.87
X69.771Y-94.87
X69.771Y-96.87
X69.771Y-98.87
X69.771Y-100.87
X69.771Y-102.87
X69.771Y-104.87
X69.771Y-106.87
X69.771Y-108.87
X69.771Y-110.87
X69.771Y-112.87
X69.771Y-114.87
X69.771Y-116.87
X95.766Y-81.021
X95.766Y-107.021
X95.766Y-133.021
X96.871Y-67.607
X96.871Y-70.147
X96.871Y-72.687
X96.871Y-75.227
X96.871Y-93.607
X96.871Y-96.147
X96.871Y-98.687
X96.871Y-101.227
X96.871Y-119.607
X96.871Y-122.147
X96.871Y-124.687
X96.871Y-127.227
X104.491Y-67.607
X104.491Y-70.147
X104.491Y-72.687
X104.491Y-75.227
X104.491Y-93.607
X104.491Y-96.147
X104.491Y-98.687
X104.491Y-101.227
X104.491Y-119.607
X104.491Y-122.147
X104.491Y-124.687
X104.491Y-127.227
X107.937Y-67.622
X107.937Y-70.122
X107.937Y-93.622
X107.937Y-96.122
X107.937Y-119.622
X107.937Y-122.122
X108.466Y-81.021
X108.466Y-107.021
X108.466Y-133.021
X120.446Y-81.189
X121.551Y-67.775
X121.551Y-70.315
X121.551Y-72.855
X121.551Y-75.395
X123.766Y-107.021
X123.766Y-133.021
X124.871Y-93.607
X124.871Y-96.147
X124.871Y-98.687
X124.871Y-101.227
X124.871Y-119.607
X124.871Y-122.147
X124.871Y-124.687
X124.871Y-127.227
X129.171Y-67.775
X129.171Y-70.315
X129.171Y-72.855
X129.171Y-75.395
X132.491Y-93.607
X132.491Y-96.147
X132.491Y-98.687
X132.491Y-101.227
X132.491Y-119.607
X132.491Y-122.147
X132.491Y-124.687
X132.491Y-127.227
X132.618Y-67.79
X132.618Y-70.29
X133.146Y-81.189
X135.937Y-93.622
X135.937Y-96.122
X135.937Y-119.622
X135.937Y-122.122
X136.466Y-107.021
X136.466Y-133.021
X143.119Y-81.371
X144.224Y-67.958
X144.224Y-70.498
X144.224Y-73.038
X144.224Y-75.578
X151.766Y-107.021
X151.766Y-133.021
X151.844Y-67.958
X151.844Y-70.498
X151.844Y-73.038
X151.844Y-75.578
X152.871Y-93.607
X152.871Y-96.147
X152.871Y-98.687
X152.871Y-101.227
X152.871Y-119.607
X152.871Y-122.147
X152.871Y-124.687
X152.871Y-127.227
X155.291Y-67.973
X155.291Y-70.473
X155.819Y-81.371
X160.491Y-93.607
X160.491Y-96.147
X160.491Y-98.687
X160.491Y-101.227
X160.491Y-119.607
X160.491Y-122.147
X160.491Y-124.687
X160.491Y-127.227
X163.937Y-93.622
X163.937Y-96.122
X163.937Y-119.622
X163.937Y-122.122
X164.466Y-107.021
X164.466Y-133.021
X165.062Y-81.341
X166.166Y-67.927
X166.166Y-70.467
X166.166Y-73.007
X166.166Y-75.547
X173.786Y-67.927
X173.786Y-70.467
X173.786Y-73.007
X173.786Y-75.547
X177.233Y-67.942
X177.233Y-70.442
X177.762Y-81.341
X179.766Y-107.021
X179.766Y-133.021
X180.871Y-93.607
X180.871Y-96.147
X180.871Y-98.687
X180.871Y-101.227
X180.871Y-119.607
X180.871Y-122.147
X180.871Y-124.687
X180.871Y-127.227
X188.491Y-93.607
X188.491Y-96.147
X188.491Y-98.687
X188.491Y-101.227
X188.491Y-119.607
X188.491Y-122.147
X188.491Y-124.687
X188.491Y-127.227
X189.156Y-81.374
X190.261Y-67.96
X190.261Y-70.5
X190.261Y-73.04
X190.261Y-75.58
X191.937Y-93.622
X191.937Y-96.122
X191.937Y-119.622
X191.937Y-122.122
X192.466Y-107.021
X192.466Y-133.021
X197.881Y-67.96
X197.881Y-70.5
X197.881Y-73.04
X197.881Y-75.58
X201.328Y-67.975
X201.328Y-70.475
X201.856Y-81.374
X216.334Y-92.799
X216.334Y-94.799
X216.334Y-96.799
X216.334Y-98.799
X216.334Y-100.799
X216.334Y-102.799
X216.334Y-104.799
X216.334Y-106.799
X216.334Y-108.799
X216.334Y-110.799
X216.334Y-112.799
X216.334Y-114.799
X216.334Y-116.799
T4
X76.665Y-86.558
X79.205Y-86.558
T5
X77.747Y-73.287
X77.747Y-75.787
T6
X71.145Y-71.854
X71.145Y-87.094
T7
X69.327Y-65.166
X69.406Y-135.669
X216.55Y-135.402
X216.634Y-65.009
T0
M30
