G04 #@! TF.FileFunction,Copper,L2,Bot,Signal*
%FSLAX46Y46*%
G04 Gerber Fmt 4.6, Leading zero omitted, Abs format (unit mm)*
G04 Created by KiCad (PCBNEW 4.0.7) date 02/22/19 22:28:47*
%MOMM*%
%LPD*%
G01*
G04 APERTURE LIST*
%ADD10C,0.100000*%
%ADD11C,1.600000*%
%ADD12C,1.400000*%
%ADD13O,1.400000X1.400000*%
%ADD14R,1.600000X1.600000*%
%ADD15O,1.600000X1.600000*%
%ADD16R,1.350000X1.350000*%
%ADD17O,1.350000X1.350000*%
%ADD18R,1.800000X1.800000*%
%ADD19C,1.800000*%
%ADD20R,1.750000X1.750000*%
%ADD21C,1.750000*%
%ADD22C,2.400000*%
%ADD23O,2.400000X2.400000*%
%ADD24C,0.600000*%
%ADD25C,0.250000*%
G04 APERTURE END LIST*
D10*
D11*
X201327680Y-67975480D03*
X201327680Y-70475480D03*
D12*
X185406960Y-72412860D03*
D13*
X185406960Y-67332860D03*
D14*
X190260900Y-67960240D03*
D15*
X197880900Y-75580240D03*
X190260900Y-70500240D03*
X197880900Y-73040240D03*
X190260900Y-73040240D03*
X197880900Y-70500240D03*
X190260900Y-75580240D03*
X197880900Y-67960240D03*
D12*
X185363780Y-74912220D03*
D13*
X185363780Y-79992220D03*
D11*
X189156000Y-81373980D03*
D15*
X201856000Y-81373980D03*
D11*
X191937300Y-119622420D03*
X191937300Y-122122420D03*
X191937300Y-93622420D03*
X191937300Y-96122420D03*
X177233240Y-67942460D03*
X177233240Y-70442460D03*
X163937300Y-119622420D03*
X163937300Y-122122420D03*
X163937300Y-93622420D03*
X163937300Y-96122420D03*
X155291140Y-67972940D03*
X155291140Y-70472940D03*
X135937300Y-119622420D03*
X135937300Y-122122420D03*
X135937300Y-93622420D03*
X135937300Y-96122420D03*
X132617520Y-67790060D03*
X132617520Y-70290060D03*
X107937300Y-119622420D03*
X107937300Y-122122420D03*
X107937300Y-93622420D03*
X107937300Y-96122420D03*
X179765620Y-133020920D03*
D15*
X192465620Y-133020920D03*
D11*
X179765620Y-107020920D03*
D15*
X192465620Y-107020920D03*
D11*
X165061560Y-81340960D03*
D15*
X177761560Y-81340960D03*
D11*
X151765620Y-133020920D03*
D15*
X164465620Y-133020920D03*
D11*
X151765620Y-107020920D03*
D15*
X164465620Y-107020920D03*
D11*
X143119460Y-81371440D03*
D15*
X155819460Y-81371440D03*
D11*
X123765620Y-133020920D03*
D15*
X136465620Y-133020920D03*
D11*
X123765620Y-107020920D03*
D15*
X136465620Y-107020920D03*
D11*
X120445840Y-81188560D03*
D15*
X133145840Y-81188560D03*
D11*
X95765620Y-133020920D03*
D15*
X108465620Y-133020920D03*
D11*
X95765620Y-107020920D03*
D15*
X108465620Y-107020920D03*
D12*
X176016580Y-124059800D03*
D13*
X176016580Y-118979800D03*
D12*
X176016580Y-98059800D03*
D13*
X176016580Y-92979800D03*
D12*
X161312520Y-72379840D03*
D13*
X161312520Y-67299840D03*
D12*
X148016580Y-124059800D03*
D13*
X148016580Y-118979800D03*
D12*
X148016580Y-98059800D03*
D13*
X148016580Y-92979800D03*
D12*
X139370420Y-72410320D03*
D13*
X139370420Y-67330320D03*
D12*
X120016580Y-124059800D03*
D13*
X120016580Y-118979800D03*
D12*
X120016580Y-98059800D03*
D13*
X120016580Y-92979800D03*
D12*
X116696800Y-72227440D03*
D13*
X116696800Y-67147440D03*
D12*
X92016580Y-124059800D03*
D13*
X92016580Y-118979800D03*
D12*
X92016580Y-98059800D03*
D13*
X92016580Y-92979800D03*
D14*
X180870520Y-119607180D03*
D15*
X188490520Y-127227180D03*
X180870520Y-122147180D03*
X188490520Y-124687180D03*
X180870520Y-124687180D03*
X188490520Y-122147180D03*
X180870520Y-127227180D03*
X188490520Y-119607180D03*
D14*
X180870520Y-93607180D03*
D15*
X188490520Y-101227180D03*
X180870520Y-96147180D03*
X188490520Y-98687180D03*
X180870520Y-98687180D03*
X188490520Y-96147180D03*
X180870520Y-101227180D03*
X188490520Y-93607180D03*
D14*
X166166460Y-67927220D03*
D15*
X173786460Y-75547220D03*
X166166460Y-70467220D03*
X173786460Y-73007220D03*
X166166460Y-73007220D03*
X173786460Y-70467220D03*
X166166460Y-75547220D03*
X173786460Y-67927220D03*
D14*
X152870520Y-119607180D03*
D15*
X160490520Y-127227180D03*
X152870520Y-122147180D03*
X160490520Y-124687180D03*
X152870520Y-124687180D03*
X160490520Y-122147180D03*
X152870520Y-127227180D03*
X160490520Y-119607180D03*
D14*
X152870520Y-93607180D03*
D15*
X160490520Y-101227180D03*
X152870520Y-96147180D03*
X160490520Y-98687180D03*
X152870520Y-98687180D03*
X160490520Y-96147180D03*
X152870520Y-101227180D03*
X160490520Y-93607180D03*
D14*
X144224360Y-67957700D03*
D15*
X151844360Y-75577700D03*
X144224360Y-70497700D03*
X151844360Y-73037700D03*
X144224360Y-73037700D03*
X151844360Y-70497700D03*
X144224360Y-75577700D03*
X151844360Y-67957700D03*
D14*
X124870520Y-119607180D03*
D15*
X132490520Y-127227180D03*
X124870520Y-122147180D03*
X132490520Y-124687180D03*
X124870520Y-124687180D03*
X132490520Y-122147180D03*
X124870520Y-127227180D03*
X132490520Y-119607180D03*
D14*
X124870520Y-93607180D03*
D15*
X132490520Y-101227180D03*
X124870520Y-96147180D03*
X132490520Y-98687180D03*
X124870520Y-98687180D03*
X132490520Y-96147180D03*
X124870520Y-101227180D03*
X132490520Y-93607180D03*
D14*
X121550740Y-67774820D03*
D15*
X129170740Y-75394820D03*
X121550740Y-70314820D03*
X129170740Y-72854820D03*
X121550740Y-72854820D03*
X129170740Y-70314820D03*
X121550740Y-75394820D03*
X129170740Y-67774820D03*
D14*
X96870520Y-119607180D03*
D15*
X104490520Y-127227180D03*
X96870520Y-122147180D03*
X104490520Y-124687180D03*
X96870520Y-124687180D03*
X104490520Y-122147180D03*
X96870520Y-127227180D03*
X104490520Y-119607180D03*
D14*
X96870520Y-93607180D03*
D15*
X104490520Y-101227180D03*
X96870520Y-96147180D03*
X104490520Y-98687180D03*
X96870520Y-98687180D03*
X104490520Y-96147180D03*
X96870520Y-101227180D03*
X104490520Y-93607180D03*
D12*
X175973400Y-126559160D03*
D13*
X175973400Y-131639160D03*
D12*
X175973400Y-100559160D03*
D13*
X175973400Y-105639160D03*
D12*
X161269340Y-74879200D03*
D13*
X161269340Y-79959200D03*
D12*
X147973400Y-126559160D03*
D13*
X147973400Y-131639160D03*
D12*
X147973400Y-100559160D03*
D13*
X147973400Y-105639160D03*
D12*
X139327240Y-74909680D03*
D13*
X139327240Y-79989680D03*
D12*
X119973400Y-126559160D03*
D13*
X119973400Y-131639160D03*
D12*
X119973400Y-100559160D03*
D13*
X119973400Y-105639160D03*
D12*
X116653620Y-74726800D03*
D13*
X116653620Y-79806800D03*
D12*
X91973400Y-126559160D03*
D13*
X91973400Y-131639160D03*
D12*
X91973400Y-100559160D03*
D13*
X91973400Y-105639160D03*
D14*
X96870520Y-67607180D03*
D15*
X104490520Y-75227180D03*
X96870520Y-70147180D03*
X104490520Y-72687180D03*
X96870520Y-72687180D03*
X104490520Y-70147180D03*
X96870520Y-75227180D03*
X104490520Y-67607180D03*
D16*
X69771260Y-92870000D03*
D17*
X69771260Y-94870000D03*
X69771260Y-96870000D03*
X69771260Y-98870000D03*
X69771260Y-100870000D03*
X69771260Y-102870000D03*
X69771260Y-104870000D03*
X69771260Y-106870000D03*
X69771260Y-108870000D03*
X69771260Y-110870000D03*
X69771260Y-112870000D03*
X69771260Y-114870000D03*
X69771260Y-116870000D03*
D16*
X216334340Y-92798900D03*
D17*
X216334340Y-94798900D03*
X216334340Y-96798900D03*
X216334340Y-98798900D03*
X216334340Y-100798900D03*
X216334340Y-102798900D03*
X216334340Y-104798900D03*
X216334340Y-106798900D03*
X216334340Y-108798900D03*
X216334340Y-110798900D03*
X216334340Y-112798900D03*
X216334340Y-114798900D03*
X216334340Y-116798900D03*
D12*
X91973400Y-74559160D03*
D13*
X91973400Y-79639160D03*
D12*
X92016580Y-72059800D03*
D13*
X92016580Y-66979800D03*
D11*
X95765620Y-81020920D03*
D15*
X108465620Y-81020920D03*
D11*
X107937300Y-67622420D03*
X107937300Y-70122420D03*
D18*
X79204820Y-86558120D03*
D19*
X76664820Y-86558120D03*
D20*
X77746860Y-75786620D03*
D21*
X77746860Y-73286620D03*
D22*
X71145400Y-87094060D03*
D23*
X71145400Y-71854060D03*
D24*
X87152480Y-79275940D03*
X87147400Y-88419940D03*
X88806020Y-94861380D03*
X88806020Y-100584000D03*
X87576660Y-96967040D03*
X87607140Y-126535180D03*
X114843560Y-81315560D03*
X85686900Y-98755200D03*
X85686900Y-90860880D03*
X117685820Y-87152480D03*
X114335560Y-74701400D03*
X86469220Y-100797360D03*
X86530180Y-92008960D03*
X116799360Y-88041480D03*
X117287040Y-100553520D03*
X86438740Y-102979220D03*
X86545420Y-109321600D03*
X117612160Y-110012480D03*
X117665500Y-126479300D03*
X150929340Y-90876120D03*
X137040620Y-74876660D03*
X84739480Y-104907080D03*
X84797900Y-94173040D03*
X90004900Y-106934000D03*
X90043000Y-91851480D03*
X145605500Y-90347800D03*
X145605500Y-100568760D03*
X145780760Y-110817660D03*
X145869660Y-126537720D03*
X169318940Y-110398560D03*
X169318940Y-94465140D03*
X158948120Y-91102180D03*
X158948120Y-74881740D03*
X172252640Y-112824260D03*
X172305980Y-100533200D03*
X173093380Y-114747040D03*
X173093380Y-126535180D03*
X183395620Y-74912220D03*
X194536060Y-116773960D03*
X108452920Y-75354180D03*
X108422440Y-78541880D03*
X111795560Y-79126080D03*
X111798100Y-82755740D03*
X110594140Y-85615780D03*
X110583980Y-96565720D03*
X111414560Y-86311740D03*
X111020860Y-122880120D03*
X138734800Y-86959440D03*
X135465820Y-81280000D03*
X139217400Y-87708740D03*
X138755120Y-96657160D03*
X139933680Y-88557100D03*
X139110720Y-122549920D03*
X155788360Y-89385140D03*
X155788360Y-83969860D03*
X155859480Y-75288140D03*
X155811220Y-79034640D03*
X167170100Y-90378280D03*
X167073580Y-96654620D03*
X168051480Y-91150440D03*
X166956740Y-122400060D03*
X181416960Y-84030820D03*
X190342520Y-91981020D03*
X177779680Y-75265280D03*
X177769520Y-79029560D03*
X212994240Y-114805460D03*
X198368920Y-114805460D03*
X94947740Y-71554340D03*
X94973140Y-78115160D03*
X193822320Y-96281240D03*
X193730880Y-122110500D03*
X165930580Y-96194880D03*
X165821360Y-122115580D03*
X137888980Y-96133920D03*
X137711180Y-122135900D03*
X109791500Y-122102880D03*
X109827060Y-71277480D03*
X109827060Y-96146620D03*
X94973140Y-104115160D03*
X94947740Y-97554340D03*
X94973140Y-130115160D03*
X94947740Y-123554340D03*
X119653360Y-78282800D03*
X119627960Y-71721980D03*
X122973140Y-104115160D03*
X122947740Y-97554340D03*
X122973140Y-130115160D03*
X122947740Y-123554340D03*
X142326980Y-78465680D03*
X142301580Y-71904860D03*
X150973140Y-104115160D03*
X150947740Y-97554340D03*
X150973140Y-130115160D03*
X150947740Y-123554340D03*
X164269080Y-78435200D03*
X164243680Y-71874380D03*
X178973140Y-104115160D03*
X178947740Y-97554340D03*
X178973140Y-130115160D03*
X178947740Y-123554340D03*
X188338120Y-71907400D03*
X188363520Y-78468220D03*
D25*
X87147400Y-88419940D02*
X87147400Y-79281020D01*
X87147400Y-79281020D02*
X87152480Y-79275940D01*
X88806020Y-100584000D02*
X88806020Y-94861380D01*
X87607140Y-126535180D02*
X87576660Y-126504700D01*
X87576660Y-126504700D02*
X87576660Y-96967040D01*
X117553740Y-84018120D02*
X117546120Y-84018120D01*
X117546120Y-84018120D02*
X114843560Y-81315560D01*
X117553740Y-84018120D02*
X117685820Y-84150200D01*
X117685820Y-84150200D02*
X117685820Y-87152480D01*
X85686900Y-90860880D02*
X85686900Y-98755200D01*
X114335560Y-74701400D02*
X114366040Y-74731880D01*
X86530180Y-92008960D02*
X86469220Y-92069920D01*
X86469220Y-92069920D02*
X86469220Y-100797360D01*
X117287040Y-100553520D02*
X116799360Y-100065840D01*
X116799360Y-100065840D02*
X116799360Y-88041480D01*
X86545420Y-109321600D02*
X86545420Y-103085900D01*
X86545420Y-103085900D02*
X86438740Y-102979220D01*
X117665500Y-126479300D02*
X117612160Y-126425960D01*
X117612160Y-126425960D02*
X117612160Y-110012480D01*
X152006300Y-88978740D02*
X152006300Y-89799160D01*
X152006300Y-89799160D02*
X150929340Y-90876120D01*
X149677120Y-86649560D02*
X152006300Y-88978740D01*
X140622020Y-86649560D02*
X149677120Y-86649560D01*
X136867900Y-82895440D02*
X140622020Y-86649560D01*
X136867900Y-75049380D02*
X136867900Y-82895440D01*
X137040620Y-74876660D02*
X136867900Y-75049380D01*
X84797900Y-94173040D02*
X84797900Y-104848660D01*
X84797900Y-104848660D02*
X84739480Y-104907080D01*
X90043000Y-91851480D02*
X90004900Y-91889580D01*
X90004900Y-91889580D02*
X90004900Y-106934000D01*
X145605500Y-100568760D02*
X145605500Y-90347800D01*
X145869660Y-126537720D02*
X145780760Y-126448820D01*
X145780760Y-126448820D02*
X145780760Y-110817660D01*
X169318940Y-94465140D02*
X169318940Y-110398560D01*
X158948120Y-74881740D02*
X158948120Y-91102180D01*
X172305980Y-100533200D02*
X172252640Y-100586540D01*
X172252640Y-100586540D02*
X172252640Y-112824260D01*
X173093380Y-126535180D02*
X173093380Y-114747040D01*
X196471540Y-91968320D02*
X197340220Y-92837000D01*
X197340220Y-92837000D02*
X197340220Y-113969800D01*
X192041780Y-91968320D02*
X196471540Y-91968320D01*
X183395620Y-83322160D02*
X192041780Y-91968320D01*
X183395620Y-74912220D02*
X183395620Y-83322160D01*
X197340220Y-113969800D02*
X194536060Y-116773960D01*
X108422440Y-78541880D02*
X108452920Y-78511400D01*
X108452920Y-78511400D02*
X108452920Y-75354180D01*
X111798100Y-82755740D02*
X111798100Y-79128620D01*
X111798100Y-79128620D02*
X111795560Y-79126080D01*
X110583980Y-96565720D02*
X110583980Y-85625940D01*
X110583980Y-85625940D02*
X110594140Y-85615780D01*
X111020860Y-97177860D02*
X111414560Y-96784160D01*
X111414560Y-96784160D02*
X111414560Y-86311740D01*
X111020860Y-122880120D02*
X111020860Y-97177860D01*
X135465820Y-81280000D02*
X135465820Y-83690460D01*
X135465820Y-83690460D02*
X138734800Y-86959440D01*
X135465820Y-81280000D02*
X135415020Y-81330800D01*
X138755120Y-96657160D02*
X139217400Y-96194880D01*
X139217400Y-96194880D02*
X139217400Y-87708740D01*
X139110720Y-122549920D02*
X139933680Y-121726960D01*
X139933680Y-121726960D02*
X139933680Y-88557100D01*
X155788360Y-83969860D02*
X155788360Y-89385140D01*
X155811220Y-79034640D02*
X155859480Y-78986380D01*
X155859480Y-78986380D02*
X155859480Y-75288140D01*
X167073580Y-96654620D02*
X167170100Y-96558100D01*
X167170100Y-96558100D02*
X167170100Y-90378280D01*
X166956740Y-122400060D02*
X168051480Y-121305320D01*
X168051480Y-121305320D02*
X168051480Y-91150440D01*
X190342520Y-91981020D02*
X182392320Y-84030820D01*
X182392320Y-84030820D02*
X181416960Y-84030820D01*
X177769520Y-79029560D02*
X177779680Y-79019400D01*
X177779680Y-79019400D02*
X177779680Y-75265280D01*
X198368920Y-114805460D02*
X212994240Y-114805460D01*
X94973140Y-78115160D02*
X94973140Y-71579740D01*
X94973140Y-71579740D02*
X94947740Y-71554340D01*
X193730880Y-122110500D02*
X193822320Y-122019060D01*
X193822320Y-122019060D02*
X193822320Y-96281240D01*
X165821360Y-122115580D02*
X165930580Y-122006360D01*
X165930580Y-122006360D02*
X165930580Y-96194880D01*
X137711180Y-122135900D02*
X137888980Y-121958100D01*
X137888980Y-121958100D02*
X137888980Y-96133920D01*
X109791500Y-122102880D02*
X109827060Y-122067320D01*
X109827060Y-122067320D02*
X109827060Y-96146620D01*
X109849920Y-96123760D02*
X109849920Y-71300340D01*
X109849920Y-71300340D02*
X109827060Y-71277480D01*
X109827060Y-96146620D02*
X109849920Y-96123760D01*
X94973140Y-104115160D02*
X94973140Y-97579740D01*
X94973140Y-97579740D02*
X94947740Y-97554340D01*
X94973140Y-130115160D02*
X94973140Y-123579740D01*
X94973140Y-123579740D02*
X94947740Y-123554340D01*
X119653360Y-78282800D02*
X119653360Y-71747380D01*
X119653360Y-71747380D02*
X119627960Y-71721980D01*
X122973140Y-104115160D02*
X122973140Y-97579740D01*
X122973140Y-97579740D02*
X122947740Y-97554340D01*
X122973140Y-130115160D02*
X122973140Y-123579740D01*
X122973140Y-123579740D02*
X122947740Y-123554340D01*
X142326980Y-78465680D02*
X142326980Y-71930260D01*
X142326980Y-71930260D02*
X142301580Y-71904860D01*
X150973140Y-104115160D02*
X150973140Y-97579740D01*
X150973140Y-97579740D02*
X150947740Y-97554340D01*
X150973140Y-130115160D02*
X150973140Y-123579740D01*
X150973140Y-123579740D02*
X150947740Y-123554340D01*
X164269080Y-78435200D02*
X164269080Y-71899780D01*
X164269080Y-71899780D02*
X164243680Y-71874380D01*
X178973140Y-104115160D02*
X178973140Y-97579740D01*
X178973140Y-97579740D02*
X178947740Y-97554340D01*
X178973140Y-130115160D02*
X178973140Y-123579740D01*
X178973140Y-123579740D02*
X178947740Y-123554340D01*
X188363520Y-78468220D02*
X188363520Y-71932800D01*
X188363520Y-71932800D02*
X188338120Y-71907400D01*
M02*
