%FSLAX45Y45*%
G04 Gerber Fmt 4.5, Leading zero omitted, Abs format (unit mm)*
G04 Created by KiCad (PCBNEW (5.1.2)-2) date 2020-01-31 13:49:44*
%MOMM*%
%LPD*%
G04 APERTURE LIST*
%ADD10C,0.050000*%
%ADD11C,0.200000*%
%ADD12C,0.300000*%
G04 APERTURE END LIST*
D10*
X8511540Y-9570720D02*
X8511540Y-8822690D01*
X21000720Y-8825200D02*
X21000720Y-15363190D01*
X8718550Y-15572740D02*
G75*
G02X8508980Y-15360635I-20J209565D01*
G01*
X21000735Y-15363190D02*
G75*
G02X20788630Y-15572740I-209565J0D01*
G01*
X20791150Y-8613125D02*
G75*
G02X21000720Y-8825230I20J-209565D01*
G01*
X8511540Y-8822690D02*
G75*
G02X8723645Y-8613120I209565J20D01*
G01*
X9486900Y-9570720D02*
X8511540Y-9570720D01*
X9486900Y-10736580D02*
X9486900Y-9570720D01*
X8511540Y-10736580D02*
X9486900Y-10736580D01*
X8511540Y-12738100D02*
X8511540Y-10736580D01*
X9679940Y-12738100D02*
X8511540Y-12738100D01*
X9679940Y-13660120D02*
X9679940Y-12738100D01*
X8509000Y-13660120D02*
X9679940Y-13660120D01*
X8509000Y-13883640D02*
X8509000Y-13660120D01*
X20791150Y-8613125D02*
X8723645Y-8613140D01*
X8718550Y-15572740D02*
X20788630Y-15572740D01*
X8509000Y-13883640D02*
X8508980Y-15360635D01*
D11*
X10216200Y-14686600D02*
X10256200Y-14726600D01*
X10256200Y-14686600D02*
X10216200Y-14726600D01*
X10267000Y-14000800D02*
X10307000Y-14040800D01*
X10307000Y-14000800D02*
X10267000Y-14040800D01*
X10368600Y-10648000D02*
X10408600Y-10688000D01*
X10408600Y-10648000D02*
X10368600Y-10688000D01*
X10368600Y-11410000D02*
X10408600Y-11450000D01*
X10408600Y-11410000D02*
X10368600Y-11450000D01*
X10368600Y-11918000D02*
X10408600Y-11958000D01*
X10408600Y-11918000D02*
X10368600Y-11958000D01*
X10444800Y-11520000D02*
X10484800Y-11560000D01*
X10484800Y-11520000D02*
X10444800Y-11560000D01*
X10444800Y-11740200D02*
X10484800Y-11780200D01*
X10484800Y-11740200D02*
X10444800Y-11780200D01*
X10470200Y-12095800D02*
X10510200Y-12135800D01*
X10510200Y-12095800D02*
X10470200Y-12135800D01*
X10470200Y-13315000D02*
X10510200Y-13355000D01*
X10510200Y-13315000D02*
X10470200Y-13355000D01*
X10495600Y-10495600D02*
X10535600Y-10535600D01*
X10535600Y-10495600D02*
X10495600Y-10535600D01*
X10546400Y-11283000D02*
X10586400Y-11323000D01*
X10586400Y-11283000D02*
X10546400Y-11323000D01*
X10546400Y-11638600D02*
X10586400Y-11678600D01*
X10586400Y-11638600D02*
X10546400Y-11678600D01*
X10546400Y-13467400D02*
X10586400Y-13507400D01*
X10586400Y-13467400D02*
X10546400Y-13507400D01*
X10648000Y-11410000D02*
X10688000Y-11450000D01*
X10688000Y-11410000D02*
X10648000Y-11450000D01*
X10648000Y-11841800D02*
X10688000Y-11881800D01*
X10688000Y-11841800D02*
X10648000Y-11881800D01*
X10673400Y-11990500D02*
X10713400Y-12030500D01*
X10713400Y-11990500D02*
X10673400Y-12030500D01*
X10673400Y-12299000D02*
X10713400Y-12339000D01*
X10713400Y-12299000D02*
X10673400Y-12339000D01*
X10978200Y-11791000D02*
X11018200Y-11831000D01*
X11018200Y-11791000D02*
X10978200Y-11831000D01*
X10978200Y-13242500D02*
X11018200Y-13282500D01*
X11018200Y-13242500D02*
X10978200Y-13282500D01*
X11029000Y-13543600D02*
X11069000Y-13583600D01*
X11069000Y-13543600D02*
X11029000Y-13583600D01*
X11029000Y-14686600D02*
X11069000Y-14726600D01*
X11069000Y-14686600D02*
X11029000Y-14726600D01*
X11041700Y-11105200D02*
X11081700Y-11145200D01*
X11081700Y-11105200D02*
X11041700Y-11145200D01*
X11130600Y-11537000D02*
X11170600Y-11577000D01*
X11170600Y-11537000D02*
X11130600Y-11577000D01*
X11130600Y-13170000D02*
X11170600Y-13210000D01*
X11170600Y-13170000D02*
X11130600Y-13210000D01*
X11613200Y-11143300D02*
X11653200Y-11183300D01*
X11653200Y-11143300D02*
X11613200Y-11183300D01*
X11613200Y-12045000D02*
X11653200Y-12085000D01*
X11653200Y-12045000D02*
X11613200Y-12085000D01*
X11613200Y-12299000D02*
X11653200Y-12339000D01*
X11653200Y-12299000D02*
X11613200Y-12339000D01*
X11714800Y-12172000D02*
X11754800Y-12212000D01*
X11754800Y-12172000D02*
X11714800Y-12212000D01*
X11714800Y-13394900D02*
X11754800Y-13434900D01*
X11754800Y-13394900D02*
X11714800Y-13434900D01*
X11778300Y-9974900D02*
X11818300Y-10014900D01*
X11818300Y-9974900D02*
X11778300Y-10014900D01*
X11778300Y-11016300D02*
X11818300Y-11056300D01*
X11818300Y-11016300D02*
X11778300Y-11056300D01*
X11790965Y-13543249D02*
X11830965Y-13583249D01*
X11830965Y-13543249D02*
X11790965Y-13583249D01*
X11867200Y-13848400D02*
X11907200Y-13888400D01*
X11907200Y-13848400D02*
X11867200Y-13888400D01*
X12120849Y-13543249D02*
X12160849Y-13583249D01*
X12160849Y-13543249D02*
X12120849Y-13583249D01*
X12133392Y-14684314D02*
X12173392Y-14724314D01*
X12173392Y-14684314D02*
X12133392Y-14724314D01*
X12184700Y-13892342D02*
X12224700Y-13932342D01*
X12224700Y-13892342D02*
X12184700Y-13932342D01*
X13111800Y-14686600D02*
X13151800Y-14726600D01*
X13151800Y-14686600D02*
X13111800Y-14726600D01*
X13365800Y-13696000D02*
X13405800Y-13736000D01*
X13405800Y-13696000D02*
X13365800Y-13736000D01*
X13365800Y-14000800D02*
X13405800Y-14040800D01*
X13405800Y-14000800D02*
X13365800Y-14040800D01*
X13391200Y-13086400D02*
X13431200Y-13126400D01*
X13431200Y-13086400D02*
X13391200Y-13126400D01*
X13505500Y-9505000D02*
X13545500Y-9545000D01*
X13545500Y-9505000D02*
X13505500Y-9545000D01*
X13505500Y-9987600D02*
X13545500Y-10027600D01*
X13545500Y-9987600D02*
X13505500Y-10027600D01*
X13518200Y-10432100D02*
X13558200Y-10472100D01*
X13558200Y-10432100D02*
X13518200Y-10472100D01*
X13518200Y-10851200D02*
X13558200Y-10891200D01*
X13558200Y-10851200D02*
X13518200Y-10891200D01*
X13873800Y-11600500D02*
X13913800Y-11640500D01*
X13913800Y-11600500D02*
X13873800Y-11640500D01*
X13950000Y-10978200D02*
X13990000Y-11018200D01*
X13990000Y-10978200D02*
X13950000Y-11018200D01*
X14026200Y-10724200D02*
X14066200Y-10764200D01*
X14066200Y-10724200D02*
X14026200Y-10764200D01*
X14153200Y-10114600D02*
X14193200Y-10154600D01*
X14193200Y-10114600D02*
X14153200Y-10154600D01*
X14229400Y-9860600D02*
X14269400Y-9900600D01*
X14269400Y-9860600D02*
X14229400Y-9900600D01*
X14445300Y-14610400D02*
X14485300Y-14650400D01*
X14485300Y-14610400D02*
X14445300Y-14650400D01*
X14496100Y-13886500D02*
X14536100Y-13926500D01*
X14536100Y-13886500D02*
X14496100Y-13926500D01*
X14635800Y-9403400D02*
X14675800Y-9443400D01*
X14675800Y-9403400D02*
X14635800Y-9443400D01*
X14635800Y-9733600D02*
X14675800Y-9773600D01*
X14675800Y-9733600D02*
X14635800Y-9773600D01*
X14889800Y-9593900D02*
X14929800Y-9633900D01*
X14929800Y-9593900D02*
X14889800Y-9633900D01*
X15114590Y-9299942D02*
X15154590Y-9339942D01*
X15154590Y-9299942D02*
X15114590Y-9339942D01*
X15114590Y-9854250D02*
X15154590Y-9894250D01*
X15154590Y-9854250D02*
X15114590Y-9894250D01*
X15239191Y-9227442D02*
X15279191Y-9267442D01*
X15279191Y-9227442D02*
X15239191Y-9267442D01*
X15241370Y-9842820D02*
X15281370Y-9882820D01*
X15281370Y-9842820D02*
X15241370Y-9882820D01*
X15270800Y-12854388D02*
X15310800Y-12894388D01*
X15310800Y-12854388D02*
X15270800Y-12894388D01*
X15313870Y-9157240D02*
X15353870Y-9197240D01*
X15353870Y-9157240D02*
X15313870Y-9197240D01*
X15313870Y-10471470D02*
X15353870Y-10511470D01*
X15353870Y-10471470D02*
X15313870Y-10511470D01*
X15386370Y-9084740D02*
X15426370Y-9124740D01*
X15426370Y-9084740D02*
X15386370Y-9124740D01*
X15386370Y-10648000D02*
X15426370Y-10688000D01*
X15426370Y-10648000D02*
X15386370Y-10688000D01*
X15410500Y-12857800D02*
X15450500Y-12897800D01*
X15450500Y-12857800D02*
X15410500Y-12897800D01*
X15477810Y-9939340D02*
X15517810Y-9979340D01*
X15517810Y-9939340D02*
X15477810Y-9979340D01*
X15477810Y-11669080D02*
X15517810Y-11709080D01*
X15517810Y-11669080D02*
X15477810Y-11709080D01*
X15489240Y-9416100D02*
X15529240Y-9456100D01*
X15529240Y-9416100D02*
X15489240Y-9456100D01*
X15490510Y-9012240D02*
X15530510Y-9052240D01*
X15530510Y-9012240D02*
X15490510Y-9052240D01*
X15518450Y-11878630D02*
X15558450Y-11918630D01*
X15558450Y-11878630D02*
X15518450Y-11918630D01*
X15550500Y-12857800D02*
X15590500Y-12897800D01*
X15590500Y-12857800D02*
X15550500Y-12897800D01*
X15565440Y-9845360D02*
X15605440Y-9885360D01*
X15605440Y-9845360D02*
X15565440Y-9885360D01*
X15690500Y-12857800D02*
X15730500Y-12897800D01*
X15730500Y-12857800D02*
X15690500Y-12897800D01*
X15702600Y-10038400D02*
X15742600Y-10078400D01*
X15742600Y-10038400D02*
X15702600Y-10078400D01*
X15708950Y-10398970D02*
X15748950Y-10438970D01*
X15748950Y-10398970D02*
X15708950Y-10438970D01*
X15830500Y-12857800D02*
X15870500Y-12897800D01*
X15870500Y-12857800D02*
X15830500Y-12897800D01*
X15842300Y-14565950D02*
X15882300Y-14605950D01*
X15882300Y-14565950D02*
X15842300Y-14605950D01*
X15848650Y-12999388D02*
X15888650Y-13039388D01*
X15888650Y-12999388D02*
X15848650Y-13039388D01*
X15880400Y-10140000D02*
X15920400Y-10180000D01*
X15920400Y-10140000D02*
X15880400Y-10180000D01*
X15982000Y-13886500D02*
X16022000Y-13926500D01*
X16022000Y-13886500D02*
X15982000Y-13926500D01*
X16007400Y-10140000D02*
X16047400Y-10180000D01*
X16047400Y-10140000D02*
X16007400Y-10180000D01*
X16109000Y-13188000D02*
X16149000Y-13228000D01*
X16149000Y-13188000D02*
X16109000Y-13228000D01*
X16110500Y-12857800D02*
X16150500Y-12897800D01*
X16150500Y-12857800D02*
X16110500Y-12897800D01*
X16134400Y-10140000D02*
X16174400Y-10180000D01*
X16174400Y-10140000D02*
X16134400Y-10180000D01*
X16248700Y-13188000D02*
X16288700Y-13228000D01*
X16288700Y-13188000D02*
X16248700Y-13228000D01*
X16250500Y-12857800D02*
X16290500Y-12897800D01*
X16290500Y-12857800D02*
X16250500Y-12897800D01*
X16261400Y-10140000D02*
X16301400Y-10180000D01*
X16301400Y-10140000D02*
X16261400Y-10180000D01*
X16274100Y-11321100D02*
X16314100Y-11361100D01*
X16314100Y-11321100D02*
X16274100Y-11361100D01*
X16388400Y-10140000D02*
X16428400Y-10180000D01*
X16428400Y-10140000D02*
X16388400Y-10180000D01*
X16388400Y-13188000D02*
X16428400Y-13228000D01*
X16428400Y-13188000D02*
X16388400Y-13228000D01*
X16390500Y-12857800D02*
X16430500Y-12897800D01*
X16430500Y-12857800D02*
X16390500Y-12897800D01*
X16515400Y-10140000D02*
X16555400Y-10180000D01*
X16555400Y-10140000D02*
X16515400Y-10180000D01*
X16528100Y-13188000D02*
X16568100Y-13228000D01*
X16568100Y-13188000D02*
X16528100Y-13228000D01*
X16530500Y-12857800D02*
X16570500Y-12897800D01*
X16570500Y-12857800D02*
X16530500Y-12897800D01*
X16661450Y-14667550D02*
X16701450Y-14707550D01*
X16701450Y-14667550D02*
X16661450Y-14707550D01*
X16693200Y-12854388D02*
X16733200Y-12894388D01*
X16733200Y-12854388D02*
X16693200Y-12894388D01*
X16972600Y-10330500D02*
X17012600Y-10370500D01*
X17012600Y-10330500D02*
X16972600Y-10370500D01*
X16972600Y-10565450D02*
X17012600Y-10605450D01*
X17012600Y-10565450D02*
X16972600Y-10605450D01*
X16998000Y-12813350D02*
X17038000Y-12853350D01*
X17038000Y-12813350D02*
X16998000Y-12853350D01*
X16998000Y-14680250D02*
X17038000Y-14720250D01*
X17038000Y-14680250D02*
X16998000Y-14720250D01*
X17099600Y-13324499D02*
X17139600Y-13364499D01*
X17139600Y-13324499D02*
X17099600Y-13364499D01*
X17125000Y-10165400D02*
X17165000Y-10205400D01*
X17165000Y-10165400D02*
X17125000Y-10205400D01*
X17226600Y-11308400D02*
X17266600Y-11348400D01*
X17266600Y-11308400D02*
X17226600Y-11348400D01*
X17258350Y-10159050D02*
X17298350Y-10199050D01*
X17298350Y-10159050D02*
X17258350Y-10199050D01*
X17258350Y-10425750D02*
X17298350Y-10465750D01*
X17298350Y-10425750D02*
X17258350Y-10465750D01*
X17366300Y-11308400D02*
X17406300Y-11348400D01*
X17406300Y-11308400D02*
X17366300Y-11348400D01*
X17385350Y-12999388D02*
X17425350Y-13039388D01*
X17425350Y-12999388D02*
X17385350Y-13039388D01*
X17423450Y-11657650D02*
X17463450Y-11697650D01*
X17463450Y-11657650D02*
X17423450Y-11697650D01*
X17429800Y-10165400D02*
X17469800Y-10205400D01*
X17469800Y-10165400D02*
X17429800Y-10205400D01*
X17467900Y-12540300D02*
X17507900Y-12580300D01*
X17507900Y-12540300D02*
X17467900Y-12580300D01*
X17506000Y-11308400D02*
X17546000Y-11348400D01*
X17546000Y-11308400D02*
X17506000Y-11348400D01*
X17525050Y-9174800D02*
X17565050Y-9214800D01*
X17565050Y-9174800D02*
X17525050Y-9214800D01*
X17531400Y-11537000D02*
X17571400Y-11577000D01*
X17571400Y-11537000D02*
X17531400Y-11577000D01*
X17537750Y-12756200D02*
X17577750Y-12796200D01*
X17577750Y-12756200D02*
X17537750Y-12796200D01*
X17556800Y-10165400D02*
X17596800Y-10205400D01*
X17596800Y-10165400D02*
X17556800Y-10205400D01*
X17582200Y-12540300D02*
X17622200Y-12580300D01*
X17622200Y-12540300D02*
X17582200Y-12580300D01*
X17645700Y-11308400D02*
X17685700Y-11348400D01*
X17685700Y-11308400D02*
X17645700Y-11348400D01*
X17658400Y-11537000D02*
X17698400Y-11577000D01*
X17698400Y-11537000D02*
X17658400Y-11577000D01*
X17683800Y-10165400D02*
X17723800Y-10205400D01*
X17723800Y-10165400D02*
X17683800Y-10205400D01*
X17696500Y-12540300D02*
X17736500Y-12580300D01*
X17736500Y-12540300D02*
X17696500Y-12580300D01*
X17734600Y-13518200D02*
X17774600Y-13558200D01*
X17774600Y-13518200D02*
X17734600Y-13558200D01*
X17785400Y-11537000D02*
X17825400Y-11577000D01*
X17825400Y-11537000D02*
X17785400Y-11577000D01*
X17810800Y-10165400D02*
X17850800Y-10205400D01*
X17850800Y-10165400D02*
X17810800Y-10205400D01*
X17810800Y-13324499D02*
X17850800Y-13364499D01*
X17850800Y-13324499D02*
X17810800Y-13364499D01*
X17836200Y-14585000D02*
X17876200Y-14625000D01*
X17876200Y-14585000D02*
X17836200Y-14625000D01*
X17893350Y-8806500D02*
X17933350Y-8846500D01*
X17933350Y-8806500D02*
X17893350Y-8846500D01*
X17937800Y-10165400D02*
X17977800Y-10205400D01*
X17977800Y-10165400D02*
X17937800Y-10205400D01*
X18007650Y-11585150D02*
X18047650Y-11625150D01*
X18047650Y-11585150D02*
X18007650Y-11625150D01*
X18064800Y-10165400D02*
X18104800Y-10205400D01*
X18104800Y-10165400D02*
X18064800Y-10205400D01*
X18287050Y-11670350D02*
X18327050Y-11710350D01*
X18327050Y-11670350D02*
X18287050Y-11710350D01*
X18344200Y-13442000D02*
X18384200Y-13482000D01*
X18384200Y-13442000D02*
X18344200Y-13482000D01*
X19305590Y-9412290D02*
X19345590Y-9452290D01*
X19345590Y-9412290D02*
X19305590Y-9452290D01*
X19305590Y-10776270D02*
X19345590Y-10816270D01*
X19345590Y-10776270D02*
X19305590Y-10816270D01*
X14151692Y-14456282D02*
G75*
G03X14151692Y-14456282I-42500J0D01*
G01*
X14151692Y-14706282D02*
G75*
G03X14151692Y-14706282I-42500J0D01*
G01*
X14151692Y-14956282D02*
G75*
G03X14151692Y-14956282I-42500J0D01*
G01*
X16451916Y-14456282D02*
G75*
G03X16451916Y-14456282I-42500J0D01*
G01*
X16451916Y-14706282D02*
G75*
G03X16451916Y-14706282I-42500J0D01*
G01*
X16451916Y-14956282D02*
G75*
G03X16451916Y-14956282I-42500J0D01*
G01*
X9988886Y-14456282D02*
G75*
G03X9988886Y-14456282I-42500J0D01*
G01*
X9988886Y-14706282D02*
G75*
G03X9988886Y-14706282I-42500J0D01*
G01*
X9988886Y-14956282D02*
G75*
G03X9988886Y-14956282I-42500J0D01*
G01*
X11651800Y-14456282D02*
G75*
G03X11651800Y-14456282I-42500J0D01*
G01*
X11651800Y-14706282D02*
G75*
G03X11651800Y-14706282I-42500J0D01*
G01*
X11651800Y-14956282D02*
G75*
G03X11651800Y-14956282I-42500J0D01*
G01*
X17286052Y-14456282D02*
G75*
G03X17286052Y-14456282I-42500J0D01*
G01*
X17286052Y-14706282D02*
G75*
G03X17286052Y-14706282I-42500J0D01*
G01*
X17286052Y-14956282D02*
G75*
G03X17286052Y-14956282I-42500J0D01*
G01*
X15617780Y-14456282D02*
G75*
G03X15617780Y-14456282I-42500J0D01*
G01*
X15617780Y-14706282D02*
G75*
G03X15617780Y-14706282I-42500J0D01*
G01*
X15617780Y-14956282D02*
G75*
G03X15617780Y-14956282I-42500J0D01*
G01*
X12459036Y-14456282D02*
G75*
G03X12459036Y-14456282I-42500J0D01*
G01*
X12459036Y-14706282D02*
G75*
G03X12459036Y-14706282I-42500J0D01*
G01*
X12459036Y-14956282D02*
G75*
G03X12459036Y-14956282I-42500J0D01*
G01*
X13378262Y-14456282D02*
G75*
G03X13378262Y-14456282I-42500J0D01*
G01*
X13378262Y-14706282D02*
G75*
G03X13378262Y-14706282I-42500J0D01*
G01*
X13378262Y-14956282D02*
G75*
G03X13378262Y-14956282I-42500J0D01*
G01*
X10812269Y-14456282D02*
G75*
G03X10812269Y-14456282I-42500J0D01*
G01*
X10812269Y-14706282D02*
G75*
G03X10812269Y-14706282I-42500J0D01*
G01*
X10812269Y-14956282D02*
G75*
G03X10812269Y-14956282I-42500J0D01*
G01*
X10403078Y-8832088D02*
X10403078Y-8933688D01*
X10352278Y-8882888D02*
X10453878Y-8882888D01*
X10657078Y-8832088D02*
X10657078Y-8933688D01*
X10606278Y-8882888D02*
X10707878Y-8882888D01*
X10911078Y-8832088D02*
X10911078Y-8933688D01*
X10860278Y-8882888D02*
X10961878Y-8882888D01*
X11165078Y-8832088D02*
X11165078Y-8933688D01*
X11114278Y-8882888D02*
X11215878Y-8882888D01*
X11317478Y-13658088D02*
X11317478Y-13759688D01*
X11266678Y-13708888D02*
X11368278Y-13708888D01*
X11419078Y-8832088D02*
X11419078Y-8933688D01*
X11368278Y-8882888D02*
X11469878Y-8882888D01*
X11571478Y-13658088D02*
X11571478Y-13759688D01*
X11520678Y-13708888D02*
X11622278Y-13708888D01*
X11673078Y-8832088D02*
X11673078Y-8933688D01*
X11622278Y-8882888D02*
X11723878Y-8882888D01*
X11825478Y-13658088D02*
X11825478Y-13759688D01*
X11774678Y-13708888D02*
X11876278Y-13708888D01*
X11927078Y-8832088D02*
X11927078Y-8933688D01*
X11876278Y-8882888D02*
X11977878Y-8882888D01*
X12079478Y-13658088D02*
X12079478Y-13759688D01*
X12028678Y-13708888D02*
X12130278Y-13708888D01*
X12181078Y-8832088D02*
X12181078Y-8933688D01*
X12130278Y-8882888D02*
X12231878Y-8882888D01*
X12333478Y-13658088D02*
X12333478Y-13759688D01*
X12282678Y-13708888D02*
X12384278Y-13708888D01*
X12435078Y-8832088D02*
X12435078Y-8933688D01*
X12384278Y-8882888D02*
X12485878Y-8882888D01*
X12587478Y-13658088D02*
X12587478Y-13759688D01*
X12536678Y-13708888D02*
X12638278Y-13708888D01*
X12689078Y-8832088D02*
X12689078Y-8933688D01*
X12638278Y-8882888D02*
X12739878Y-8882888D01*
X12841478Y-13658088D02*
X12841478Y-13759688D01*
X12790678Y-13708888D02*
X12892278Y-13708888D01*
X13095478Y-8832088D02*
X13095478Y-8933688D01*
X13044678Y-8882888D02*
X13146278Y-8882888D01*
X13095478Y-13658088D02*
X13095478Y-13759688D01*
X13044678Y-13708888D02*
X13146278Y-13708888D01*
X13349478Y-8832088D02*
X13349478Y-8933688D01*
X13298678Y-8882888D02*
X13400278Y-8882888D01*
X13603478Y-8832088D02*
X13603478Y-8933688D01*
X13552678Y-8882888D02*
X13654278Y-8882888D01*
X13603478Y-13658088D02*
X13603478Y-13759688D01*
X13552678Y-13708888D02*
X13654278Y-13708888D01*
X13857478Y-8832088D02*
X13857478Y-8933688D01*
X13806678Y-8882888D02*
X13908278Y-8882888D01*
X13857478Y-13658088D02*
X13857478Y-13759688D01*
X13806678Y-13708888D02*
X13908278Y-13708888D01*
X14111478Y-8832088D02*
X14111478Y-8933688D01*
X14060678Y-8882888D02*
X14162278Y-8882888D01*
X14111478Y-13658088D02*
X14111478Y-13759688D01*
X14060678Y-13708888D02*
X14162278Y-13708888D01*
X14365478Y-8832088D02*
X14365478Y-8933688D01*
X14314678Y-8882888D02*
X14416278Y-8882888D01*
X14365478Y-13658088D02*
X14365478Y-13759688D01*
X14314678Y-13708888D02*
X14416278Y-13708888D01*
X14619478Y-8832088D02*
X14619478Y-8933688D01*
X14568678Y-8882888D02*
X14670278Y-8882888D01*
X14619478Y-13658088D02*
X14619478Y-13759688D01*
X14568678Y-13708888D02*
X14670278Y-13708888D01*
X14873478Y-8832088D02*
X14873478Y-8933688D01*
X14822678Y-8882888D02*
X14924278Y-8882888D01*
X14873478Y-13658088D02*
X14873478Y-13759688D01*
X14822678Y-13708888D02*
X14924278Y-13708888D01*
X14886178Y-10864088D02*
X14886178Y-10965688D01*
X14835378Y-10914888D02*
X14936978Y-10914888D01*
X14886178Y-11118088D02*
X14886178Y-11219688D01*
X14835378Y-11168888D02*
X14936978Y-11168888D01*
X14886178Y-11372088D02*
X14886178Y-11473688D01*
X14835378Y-11422888D02*
X14936978Y-11422888D01*
X15127478Y-13658088D02*
X15127478Y-13759688D01*
X15076678Y-13708888D02*
X15178278Y-13708888D01*
X15140178Y-10864088D02*
X15140178Y-10965688D01*
X15089378Y-10914888D02*
X15190978Y-10914888D01*
X15140178Y-11118088D02*
X15140178Y-11219688D01*
X15089378Y-11168888D02*
X15190978Y-11168888D01*
X15140178Y-11372088D02*
X15140178Y-11473688D01*
X15089378Y-11422888D02*
X15190978Y-11422888D01*
X15381478Y-8832088D02*
X15381478Y-8933688D01*
X15330678Y-8882888D02*
X15432278Y-8882888D01*
X15381478Y-13658088D02*
X15381478Y-13759688D01*
X15330678Y-13708888D02*
X15432278Y-13708888D01*
X15635478Y-8832088D02*
X15635478Y-8933688D01*
X15584678Y-8882888D02*
X15686278Y-8882888D01*
X15889478Y-8832088D02*
X15889478Y-8933688D01*
X15838678Y-8882888D02*
X15940278Y-8882888D01*
X15889478Y-13658088D02*
X15889478Y-13759688D01*
X15838678Y-13708888D02*
X15940278Y-13708888D01*
X16143478Y-8832088D02*
X16143478Y-8933688D01*
X16092678Y-8882888D02*
X16194278Y-8882888D01*
X16143478Y-13658088D02*
X16143478Y-13759688D01*
X16092678Y-13708888D02*
X16194278Y-13708888D01*
X16397478Y-8832088D02*
X16397478Y-8933688D01*
X16346678Y-8882888D02*
X16448278Y-8882888D01*
X16397478Y-13658088D02*
X16397478Y-13759688D01*
X16346678Y-13708888D02*
X16448278Y-13708888D01*
X16651478Y-8832088D02*
X16651478Y-8933688D01*
X16600678Y-8882888D02*
X16702278Y-8882888D01*
X16651478Y-13658088D02*
X16651478Y-13759688D01*
X16600678Y-13708888D02*
X16702278Y-13708888D01*
X16905478Y-8832088D02*
X16905478Y-8933688D01*
X16854678Y-8882888D02*
X16956278Y-8882888D01*
X16905478Y-13658088D02*
X16905478Y-13759688D01*
X16854678Y-13708888D02*
X16956278Y-13708888D01*
X17159478Y-8832088D02*
X17159478Y-8933688D01*
X17108678Y-8882888D02*
X17210278Y-8882888D01*
X17159478Y-13658088D02*
X17159478Y-13759688D01*
X17108678Y-13708888D02*
X17210278Y-13708888D01*
X17413478Y-13658088D02*
X17413478Y-13759688D01*
X17362678Y-13708888D02*
X17464278Y-13708888D01*
X17667478Y-13658088D02*
X17667478Y-13759688D01*
X17616678Y-13708888D02*
X17718278Y-13708888D01*
X17921478Y-12642088D02*
X17921478Y-12743688D01*
X17870678Y-12692888D02*
X17972278Y-12692888D01*
X17921478Y-12896088D02*
X17921478Y-12997688D01*
X17870678Y-12946888D02*
X17972278Y-12946888D01*
X17921478Y-13150088D02*
X17921478Y-13251688D01*
X17870678Y-13200888D02*
X17972278Y-13200888D01*
X18175478Y-12642088D02*
X18175478Y-12743688D01*
X18124678Y-12692888D02*
X18226278Y-12692888D01*
X18175478Y-12896088D02*
X18175478Y-12997688D01*
X18124678Y-12946888D02*
X18226278Y-12946888D01*
X18175478Y-13150088D02*
X18175478Y-13251688D01*
X18124678Y-13200888D02*
X18226278Y-13200888D01*
X18302098Y-14732698D02*
X18302098Y-14633702D01*
X18203102Y-14633702D01*
X18203102Y-14732698D01*
X18302098Y-14732698D01*
X18302098Y-14982698D02*
X18302098Y-14883702D01*
X18203102Y-14883702D01*
X18203102Y-14982698D01*
X18302098Y-14982698D01*
X18652098Y-14732698D02*
X18652098Y-14633702D01*
X18553102Y-14633702D01*
X18553102Y-14732698D01*
X18652098Y-14732698D01*
X18652098Y-14982698D02*
X18652098Y-14883702D01*
X18553102Y-14883702D01*
X18553102Y-14982698D01*
X18652098Y-14982698D01*
X19232098Y-14732698D02*
X19232098Y-14633702D01*
X19133102Y-14633702D01*
X19133102Y-14732698D01*
X19232098Y-14732698D01*
X19232098Y-14982698D02*
X19232098Y-14883702D01*
X19133102Y-14883702D01*
X19133102Y-14982698D01*
X19232098Y-14982698D01*
X19582098Y-14732698D02*
X19582098Y-14633702D01*
X19483102Y-14633702D01*
X19483102Y-14732698D01*
X19582098Y-14732698D01*
X19582098Y-14982698D02*
X19582098Y-14883702D01*
X19483102Y-14883702D01*
X19483102Y-14982698D01*
X19582098Y-14982698D01*
X19963098Y-12089098D02*
X19963098Y-11990102D01*
X19864102Y-11990102D01*
X19864102Y-12089098D01*
X19963098Y-12089098D01*
X20513098Y-12089098D02*
X20513098Y-11990102D01*
X20414102Y-11990102D01*
X20414102Y-12089098D01*
X20513098Y-12089098D01*
X19582098Y-12708898D02*
X19582098Y-12609902D01*
X19483102Y-12609902D01*
X19483102Y-12708898D01*
X19582098Y-12708898D01*
X19582098Y-13409898D02*
X19582098Y-13310902D01*
X19483102Y-13310902D01*
X19483102Y-13409898D01*
X19582098Y-13409898D01*
X19582098Y-14110898D02*
X19582098Y-14011902D01*
X19483102Y-14011902D01*
X19483102Y-14110898D01*
X19582098Y-14110898D01*
X19026250Y-11141380D02*
X19126250Y-11041380D01*
X19026250Y-10941380D01*
X18926250Y-11041380D01*
X19026250Y-11141380D01*
X20581250Y-11141380D02*
X20681250Y-11041380D01*
X20581250Y-10941380D01*
X20481250Y-11041380D01*
X20581250Y-11141380D01*
X19001250Y-10101250D02*
X19101250Y-10001250D01*
X19001250Y-9901250D01*
X18901250Y-10001250D01*
X19001250Y-10101250D01*
X20556250Y-10101250D02*
X20656250Y-10001250D01*
X20556250Y-9901250D01*
X20456250Y-10001250D01*
X20556250Y-10101250D01*
D12*
X8792893Y-16040970D02*
X8792893Y-15740970D01*
X8864321Y-15740970D01*
X8907178Y-15755255D01*
X8935750Y-15783827D01*
X8950036Y-15812398D01*
X8964321Y-15869541D01*
X8964321Y-15912398D01*
X8950036Y-15969541D01*
X8935750Y-15998113D01*
X8907178Y-16026684D01*
X8864321Y-16040970D01*
X8792893Y-16040970D01*
X9092893Y-16040970D02*
X9092893Y-15840970D01*
X9092893Y-15898113D02*
X9107178Y-15869541D01*
X9121464Y-15855255D01*
X9150036Y-15840970D01*
X9178607Y-15840970D01*
X9278607Y-16040970D02*
X9278607Y-15840970D01*
X9278607Y-15740970D02*
X9264321Y-15755255D01*
X9278607Y-15769541D01*
X9292893Y-15755255D01*
X9278607Y-15740970D01*
X9278607Y-15769541D01*
X9464321Y-16040970D02*
X9435750Y-16026684D01*
X9421464Y-15998113D01*
X9421464Y-15740970D01*
X9621464Y-16040970D02*
X9592893Y-16026684D01*
X9578607Y-15998113D01*
X9578607Y-15740970D01*
X9964321Y-16040970D02*
X9964321Y-15740970D01*
X10064321Y-15955255D01*
X10164321Y-15740970D01*
X10164321Y-16040970D01*
X10435750Y-16040970D02*
X10435750Y-15883827D01*
X10421464Y-15855255D01*
X10392893Y-15840970D01*
X10335750Y-15840970D01*
X10307178Y-15855255D01*
X10435750Y-16026684D02*
X10407178Y-16040970D01*
X10335750Y-16040970D01*
X10307178Y-16026684D01*
X10292893Y-15998113D01*
X10292893Y-15969541D01*
X10307178Y-15940970D01*
X10335750Y-15926684D01*
X10407178Y-15926684D01*
X10435750Y-15912398D01*
X10578607Y-15840970D02*
X10578607Y-16140970D01*
X10578607Y-15855255D02*
X10607178Y-15840970D01*
X10664321Y-15840970D01*
X10692893Y-15855255D01*
X10707178Y-15869541D01*
X10721464Y-15898113D01*
X10721464Y-15983827D01*
X10707178Y-16012398D01*
X10692893Y-16026684D01*
X10664321Y-16040970D01*
X10607178Y-16040970D01*
X10578607Y-16026684D01*
X10850036Y-16012398D02*
X10864321Y-16026684D01*
X10850036Y-16040970D01*
X10835750Y-16026684D01*
X10850036Y-16012398D01*
X10850036Y-16040970D01*
X10850036Y-15855255D02*
X10864321Y-15869541D01*
X10850036Y-15883827D01*
X10835750Y-15869541D01*
X10850036Y-15855255D01*
X10850036Y-15883827D01*
X8466464Y-16515255D02*
X8506464Y-16555255D01*
X8506464Y-16515255D02*
X8466464Y-16555255D01*
X8850036Y-16370970D02*
X8878607Y-16370970D01*
X8907178Y-16385255D01*
X8921464Y-16399541D01*
X8935750Y-16428113D01*
X8950036Y-16485255D01*
X8950036Y-16556684D01*
X8935750Y-16613827D01*
X8921464Y-16642398D01*
X8907178Y-16656684D01*
X8878607Y-16670970D01*
X8850036Y-16670970D01*
X8821464Y-16656684D01*
X8807178Y-16642398D01*
X8792893Y-16613827D01*
X8778607Y-16556684D01*
X8778607Y-16485255D01*
X8792893Y-16428113D01*
X8807178Y-16399541D01*
X8821464Y-16385255D01*
X8850036Y-16370970D01*
X9078607Y-16642398D02*
X9092893Y-16656684D01*
X9078607Y-16670970D01*
X9064321Y-16656684D01*
X9078607Y-16642398D01*
X9078607Y-16670970D01*
X9350036Y-16470970D02*
X9350036Y-16670970D01*
X9278607Y-16356684D02*
X9207178Y-16570970D01*
X9392893Y-16570970D01*
X9564321Y-16370970D02*
X9592893Y-16370970D01*
X9621464Y-16385255D01*
X9635750Y-16399541D01*
X9650036Y-16428113D01*
X9664321Y-16485255D01*
X9664321Y-16556684D01*
X9650036Y-16613827D01*
X9635750Y-16642398D01*
X9621464Y-16656684D01*
X9592893Y-16670970D01*
X9564321Y-16670970D01*
X9535750Y-16656684D01*
X9521464Y-16642398D01*
X9507178Y-16613827D01*
X9492893Y-16556684D01*
X9492893Y-16485255D01*
X9507178Y-16428113D01*
X9521464Y-16399541D01*
X9535750Y-16385255D01*
X9564321Y-16370970D01*
X9792893Y-16670970D02*
X9792893Y-16470970D01*
X9792893Y-16499541D02*
X9807178Y-16485255D01*
X9835750Y-16470970D01*
X9878607Y-16470970D01*
X9907178Y-16485255D01*
X9921464Y-16513827D01*
X9921464Y-16670970D01*
X9921464Y-16513827D02*
X9935750Y-16485255D01*
X9964321Y-16470970D01*
X10007178Y-16470970D01*
X10035750Y-16485255D01*
X10050036Y-16513827D01*
X10050036Y-16670970D01*
X10192893Y-16670970D02*
X10192893Y-16470970D01*
X10192893Y-16499541D02*
X10207178Y-16485255D01*
X10235750Y-16470970D01*
X10278607Y-16470970D01*
X10307178Y-16485255D01*
X10321464Y-16513827D01*
X10321464Y-16670970D01*
X10321464Y-16513827D02*
X10335750Y-16485255D01*
X10364321Y-16470970D01*
X10407178Y-16470970D01*
X10435750Y-16485255D01*
X10450036Y-16513827D01*
X10450036Y-16670970D01*
X11035750Y-16356684D02*
X10778607Y-16742398D01*
X11421464Y-16370970D02*
X11450036Y-16370970D01*
X11478607Y-16385255D01*
X11492893Y-16399541D01*
X11507178Y-16428113D01*
X11521464Y-16485255D01*
X11521464Y-16556684D01*
X11507178Y-16613827D01*
X11492893Y-16642398D01*
X11478607Y-16656684D01*
X11450036Y-16670970D01*
X11421464Y-16670970D01*
X11392893Y-16656684D01*
X11378607Y-16642398D01*
X11364321Y-16613827D01*
X11350036Y-16556684D01*
X11350036Y-16485255D01*
X11364321Y-16428113D01*
X11378607Y-16399541D01*
X11392893Y-16385255D01*
X11421464Y-16370970D01*
X11650036Y-16642398D02*
X11664321Y-16656684D01*
X11650036Y-16670970D01*
X11635750Y-16656684D01*
X11650036Y-16642398D01*
X11650036Y-16670970D01*
X11850036Y-16370970D02*
X11878607Y-16370970D01*
X11907178Y-16385255D01*
X11921464Y-16399541D01*
X11935750Y-16428113D01*
X11950036Y-16485255D01*
X11950036Y-16556684D01*
X11935750Y-16613827D01*
X11921464Y-16642398D01*
X11907178Y-16656684D01*
X11878607Y-16670970D01*
X11850036Y-16670970D01*
X11821464Y-16656684D01*
X11807178Y-16642398D01*
X11792893Y-16613827D01*
X11778607Y-16556684D01*
X11778607Y-16485255D01*
X11792893Y-16428113D01*
X11807178Y-16399541D01*
X11821464Y-16385255D01*
X11850036Y-16370970D01*
X12235750Y-16670970D02*
X12064321Y-16670970D01*
X12150036Y-16670970D02*
X12150036Y-16370970D01*
X12121464Y-16413827D01*
X12092893Y-16442398D01*
X12064321Y-16456684D01*
X12492893Y-16370970D02*
X12435750Y-16370970D01*
X12407178Y-16385255D01*
X12392893Y-16399541D01*
X12364321Y-16442398D01*
X12350036Y-16499541D01*
X12350036Y-16613827D01*
X12364321Y-16642398D01*
X12378607Y-16656684D01*
X12407178Y-16670970D01*
X12464321Y-16670970D01*
X12492893Y-16656684D01*
X12507178Y-16642398D01*
X12521464Y-16613827D01*
X12521464Y-16542398D01*
X12507178Y-16513827D01*
X12492893Y-16499541D01*
X12464321Y-16485255D01*
X12407178Y-16485255D01*
X12378607Y-16499541D01*
X12364321Y-16513827D01*
X12350036Y-16542398D01*
X12635750Y-16370970D02*
X12635750Y-16428113D01*
X12750036Y-16370970D02*
X12750036Y-16428113D01*
X13192893Y-16785256D02*
X13178607Y-16770970D01*
X13150036Y-16728113D01*
X13135750Y-16699541D01*
X13121464Y-16656684D01*
X13107178Y-16585255D01*
X13107178Y-16528113D01*
X13121464Y-16456684D01*
X13135750Y-16413827D01*
X13150036Y-16385255D01*
X13178607Y-16342398D01*
X13192893Y-16328113D01*
X13464321Y-16670970D02*
X13292893Y-16670970D01*
X13378607Y-16670970D02*
X13378607Y-16370970D01*
X13350036Y-16413827D01*
X13321464Y-16442398D01*
X13292893Y-16456684D01*
X13564321Y-16370970D02*
X13750036Y-16370970D01*
X13650036Y-16485255D01*
X13692893Y-16485255D01*
X13721464Y-16499541D01*
X13735750Y-16513827D01*
X13750036Y-16542398D01*
X13750036Y-16613827D01*
X13735750Y-16642398D01*
X13721464Y-16656684D01*
X13692893Y-16670970D01*
X13607178Y-16670970D01*
X13578607Y-16656684D01*
X13564321Y-16642398D01*
X13864321Y-16399541D02*
X13878607Y-16385255D01*
X13907178Y-16370970D01*
X13978607Y-16370970D01*
X14007178Y-16385255D01*
X14021464Y-16399541D01*
X14035750Y-16428113D01*
X14035750Y-16456684D01*
X14021464Y-16499541D01*
X13850036Y-16670970D01*
X14035750Y-16670970D01*
X14392893Y-16670970D02*
X14392893Y-16370970D01*
X14521464Y-16670970D02*
X14521464Y-16513827D01*
X14507178Y-16485255D01*
X14478607Y-16470970D01*
X14435750Y-16470970D01*
X14407178Y-16485255D01*
X14392893Y-16499541D01*
X14707178Y-16670970D02*
X14678607Y-16656684D01*
X14664321Y-16642398D01*
X14650036Y-16613827D01*
X14650036Y-16528113D01*
X14664321Y-16499541D01*
X14678607Y-16485255D01*
X14707178Y-16470970D01*
X14750036Y-16470970D01*
X14778607Y-16485255D01*
X14792893Y-16499541D01*
X14807178Y-16528113D01*
X14807178Y-16613827D01*
X14792893Y-16642398D01*
X14778607Y-16656684D01*
X14750036Y-16670970D01*
X14707178Y-16670970D01*
X14978607Y-16670970D02*
X14950036Y-16656684D01*
X14935750Y-16628113D01*
X14935750Y-16370970D01*
X15207178Y-16656684D02*
X15178607Y-16670970D01*
X15121464Y-16670970D01*
X15092893Y-16656684D01*
X15078607Y-16628113D01*
X15078607Y-16513827D01*
X15092893Y-16485255D01*
X15121464Y-16470970D01*
X15178607Y-16470970D01*
X15207178Y-16485255D01*
X15221464Y-16513827D01*
X15221464Y-16542398D01*
X15078607Y-16570970D01*
X15335750Y-16656684D02*
X15364321Y-16670970D01*
X15421464Y-16670970D01*
X15450036Y-16656684D01*
X15464321Y-16628113D01*
X15464321Y-16613827D01*
X15450036Y-16585255D01*
X15421464Y-16570970D01*
X15378607Y-16570970D01*
X15350036Y-16556684D01*
X15335750Y-16528113D01*
X15335750Y-16513827D01*
X15350036Y-16485255D01*
X15378607Y-16470970D01*
X15421464Y-16470970D01*
X15450036Y-16485255D01*
X15564321Y-16785256D02*
X15578607Y-16770970D01*
X15607178Y-16728113D01*
X15621464Y-16699541D01*
X15635750Y-16656684D01*
X15650036Y-16585255D01*
X15650036Y-16528113D01*
X15635750Y-16456684D01*
X15621464Y-16413827D01*
X15607178Y-16385255D01*
X15578607Y-16342398D01*
X15564321Y-16328113D01*
X8506464Y-16931256D02*
G75*
G03X8506464Y-16931256I-42500J0D01*
G01*
X8850036Y-16766970D02*
X8878607Y-16766970D01*
X8907178Y-16781256D01*
X8921464Y-16795541D01*
X8935750Y-16824113D01*
X8950036Y-16881256D01*
X8950036Y-16952684D01*
X8935750Y-17009827D01*
X8921464Y-17038398D01*
X8907178Y-17052684D01*
X8878607Y-17066970D01*
X8850036Y-17066970D01*
X8821464Y-17052684D01*
X8807178Y-17038398D01*
X8792893Y-17009827D01*
X8778607Y-16952684D01*
X8778607Y-16881256D01*
X8792893Y-16824113D01*
X8807178Y-16795541D01*
X8821464Y-16781256D01*
X8850036Y-16766970D01*
X9078607Y-17038398D02*
X9092893Y-17052684D01*
X9078607Y-17066970D01*
X9064321Y-17052684D01*
X9078607Y-17038398D01*
X9078607Y-17066970D01*
X9264321Y-16895541D02*
X9235750Y-16881256D01*
X9221464Y-16866970D01*
X9207178Y-16838398D01*
X9207178Y-16824113D01*
X9221464Y-16795541D01*
X9235750Y-16781256D01*
X9264321Y-16766970D01*
X9321464Y-16766970D01*
X9350036Y-16781256D01*
X9364321Y-16795541D01*
X9378607Y-16824113D01*
X9378607Y-16838398D01*
X9364321Y-16866970D01*
X9350036Y-16881256D01*
X9321464Y-16895541D01*
X9264321Y-16895541D01*
X9235750Y-16909827D01*
X9221464Y-16924113D01*
X9207178Y-16952684D01*
X9207178Y-17009827D01*
X9221464Y-17038398D01*
X9235750Y-17052684D01*
X9264321Y-17066970D01*
X9321464Y-17066970D01*
X9350036Y-17052684D01*
X9364321Y-17038398D01*
X9378607Y-17009827D01*
X9378607Y-16952684D01*
X9364321Y-16924113D01*
X9350036Y-16909827D01*
X9321464Y-16895541D01*
X9650036Y-16766970D02*
X9507178Y-16766970D01*
X9492893Y-16909827D01*
X9507178Y-16895541D01*
X9535750Y-16881256D01*
X9607178Y-16881256D01*
X9635750Y-16895541D01*
X9650036Y-16909827D01*
X9664321Y-16938398D01*
X9664321Y-17009827D01*
X9650036Y-17038398D01*
X9635750Y-17052684D01*
X9607178Y-17066970D01*
X9535750Y-17066970D01*
X9507178Y-17052684D01*
X9492893Y-17038398D01*
X9792893Y-17066970D02*
X9792893Y-16866970D01*
X9792893Y-16895541D02*
X9807178Y-16881256D01*
X9835750Y-16866970D01*
X9878607Y-16866970D01*
X9907178Y-16881256D01*
X9921464Y-16909827D01*
X9921464Y-17066970D01*
X9921464Y-16909827D02*
X9935750Y-16881256D01*
X9964321Y-16866970D01*
X10007178Y-16866970D01*
X10035750Y-16881256D01*
X10050036Y-16909827D01*
X10050036Y-17066970D01*
X10192893Y-17066970D02*
X10192893Y-16866970D01*
X10192893Y-16895541D02*
X10207178Y-16881256D01*
X10235750Y-16866970D01*
X10278607Y-16866970D01*
X10307178Y-16881256D01*
X10321464Y-16909827D01*
X10321464Y-17066970D01*
X10321464Y-16909827D02*
X10335750Y-16881256D01*
X10364321Y-16866970D01*
X10407178Y-16866970D01*
X10435750Y-16881256D01*
X10450036Y-16909827D01*
X10450036Y-17066970D01*
X11035750Y-16752684D02*
X10778607Y-17138398D01*
X11421464Y-16766970D02*
X11450036Y-16766970D01*
X11478607Y-16781256D01*
X11492893Y-16795541D01*
X11507178Y-16824113D01*
X11521464Y-16881256D01*
X11521464Y-16952684D01*
X11507178Y-17009827D01*
X11492893Y-17038398D01*
X11478607Y-17052684D01*
X11450036Y-17066970D01*
X11421464Y-17066970D01*
X11392893Y-17052684D01*
X11378607Y-17038398D01*
X11364321Y-17009827D01*
X11350036Y-16952684D01*
X11350036Y-16881256D01*
X11364321Y-16824113D01*
X11378607Y-16795541D01*
X11392893Y-16781256D01*
X11421464Y-16766970D01*
X11650036Y-17038398D02*
X11664321Y-17052684D01*
X11650036Y-17066970D01*
X11635750Y-17052684D01*
X11650036Y-17038398D01*
X11650036Y-17066970D01*
X11850036Y-16766970D02*
X11878607Y-16766970D01*
X11907178Y-16781256D01*
X11921464Y-16795541D01*
X11935750Y-16824113D01*
X11950036Y-16881256D01*
X11950036Y-16952684D01*
X11935750Y-17009827D01*
X11921464Y-17038398D01*
X11907178Y-17052684D01*
X11878607Y-17066970D01*
X11850036Y-17066970D01*
X11821464Y-17052684D01*
X11807178Y-17038398D01*
X11792893Y-17009827D01*
X11778607Y-16952684D01*
X11778607Y-16881256D01*
X11792893Y-16824113D01*
X11807178Y-16795541D01*
X11821464Y-16781256D01*
X11850036Y-16766970D01*
X12050036Y-16766970D02*
X12235750Y-16766970D01*
X12135750Y-16881256D01*
X12178607Y-16881256D01*
X12207178Y-16895541D01*
X12221464Y-16909827D01*
X12235750Y-16938398D01*
X12235750Y-17009827D01*
X12221464Y-17038398D01*
X12207178Y-17052684D01*
X12178607Y-17066970D01*
X12092893Y-17066970D01*
X12064321Y-17052684D01*
X12050036Y-17038398D01*
X12335750Y-16766970D02*
X12521464Y-16766970D01*
X12421464Y-16881256D01*
X12464321Y-16881256D01*
X12492893Y-16895541D01*
X12507178Y-16909827D01*
X12521464Y-16938398D01*
X12521464Y-17009827D01*
X12507178Y-17038398D01*
X12492893Y-17052684D01*
X12464321Y-17066970D01*
X12378607Y-17066970D01*
X12350036Y-17052684D01*
X12335750Y-17038398D01*
X12635750Y-16766970D02*
X12635750Y-16824113D01*
X12750036Y-16766970D02*
X12750036Y-16824113D01*
X13192893Y-17181256D02*
X13178607Y-17166970D01*
X13150036Y-17124113D01*
X13135750Y-17095541D01*
X13121464Y-17052684D01*
X13107178Y-16981256D01*
X13107178Y-16924113D01*
X13121464Y-16852684D01*
X13135750Y-16809827D01*
X13150036Y-16781256D01*
X13178607Y-16738398D01*
X13192893Y-16724113D01*
X13292893Y-16795541D02*
X13307178Y-16781256D01*
X13335750Y-16766970D01*
X13407178Y-16766970D01*
X13435750Y-16781256D01*
X13450036Y-16795541D01*
X13464321Y-16824113D01*
X13464321Y-16852684D01*
X13450036Y-16895541D01*
X13278607Y-17066970D01*
X13464321Y-17066970D01*
X13564321Y-16766970D02*
X13764321Y-16766970D01*
X13635750Y-17066970D01*
X14107178Y-17066970D02*
X14107178Y-16766970D01*
X14235750Y-17066970D02*
X14235750Y-16909827D01*
X14221464Y-16881256D01*
X14192893Y-16866970D01*
X14150036Y-16866970D01*
X14121464Y-16881256D01*
X14107178Y-16895541D01*
X14421464Y-17066970D02*
X14392893Y-17052684D01*
X14378607Y-17038398D01*
X14364321Y-17009827D01*
X14364321Y-16924113D01*
X14378607Y-16895541D01*
X14392893Y-16881256D01*
X14421464Y-16866970D01*
X14464321Y-16866970D01*
X14492893Y-16881256D01*
X14507178Y-16895541D01*
X14521464Y-16924113D01*
X14521464Y-17009827D01*
X14507178Y-17038398D01*
X14492893Y-17052684D01*
X14464321Y-17066970D01*
X14421464Y-17066970D01*
X14692893Y-17066970D02*
X14664321Y-17052684D01*
X14650036Y-17024113D01*
X14650036Y-16766970D01*
X14921464Y-17052684D02*
X14892893Y-17066970D01*
X14835750Y-17066970D01*
X14807178Y-17052684D01*
X14792893Y-17024113D01*
X14792893Y-16909827D01*
X14807178Y-16881256D01*
X14835750Y-16866970D01*
X14892893Y-16866970D01*
X14921464Y-16881256D01*
X14935750Y-16909827D01*
X14935750Y-16938398D01*
X14792893Y-16966970D01*
X15050036Y-17052684D02*
X15078607Y-17066970D01*
X15135750Y-17066970D01*
X15164321Y-17052684D01*
X15178607Y-17024113D01*
X15178607Y-17009827D01*
X15164321Y-16981256D01*
X15135750Y-16966970D01*
X15092893Y-16966970D01*
X15064321Y-16952684D01*
X15050036Y-16924113D01*
X15050036Y-16909827D01*
X15064321Y-16881256D01*
X15092893Y-16866970D01*
X15135750Y-16866970D01*
X15164321Y-16881256D01*
X15278607Y-17181256D02*
X15292893Y-17166970D01*
X15321464Y-17124113D01*
X15335750Y-17095541D01*
X15350036Y-17052684D01*
X15364321Y-16981256D01*
X15364321Y-16924113D01*
X15350036Y-16852684D01*
X15335750Y-16809827D01*
X15321464Y-16781256D01*
X15292893Y-16738398D01*
X15278607Y-16724113D01*
X8455664Y-17276456D02*
X8455664Y-17378056D01*
X8404864Y-17327256D02*
X8506464Y-17327256D01*
X8950036Y-17462970D02*
X8778607Y-17462970D01*
X8864321Y-17462970D02*
X8864321Y-17162970D01*
X8835750Y-17205827D01*
X8807178Y-17234398D01*
X8778607Y-17248684D01*
X9078607Y-17434398D02*
X9092893Y-17448684D01*
X9078607Y-17462970D01*
X9064321Y-17448684D01*
X9078607Y-17434398D01*
X9078607Y-17462970D01*
X9278607Y-17162970D02*
X9307178Y-17162970D01*
X9335750Y-17177256D01*
X9350036Y-17191541D01*
X9364321Y-17220113D01*
X9378607Y-17277256D01*
X9378607Y-17348684D01*
X9364321Y-17405827D01*
X9350036Y-17434398D01*
X9335750Y-17448684D01*
X9307178Y-17462970D01*
X9278607Y-17462970D01*
X9250036Y-17448684D01*
X9235750Y-17434398D01*
X9221464Y-17405827D01*
X9207178Y-17348684D01*
X9207178Y-17277256D01*
X9221464Y-17220113D01*
X9235750Y-17191541D01*
X9250036Y-17177256D01*
X9278607Y-17162970D01*
X9492893Y-17191541D02*
X9507178Y-17177256D01*
X9535750Y-17162970D01*
X9607178Y-17162970D01*
X9635750Y-17177256D01*
X9650036Y-17191541D01*
X9664321Y-17220113D01*
X9664321Y-17248684D01*
X9650036Y-17291541D01*
X9478607Y-17462970D01*
X9664321Y-17462970D01*
X9792893Y-17462970D02*
X9792893Y-17262970D01*
X9792893Y-17291541D02*
X9807178Y-17277256D01*
X9835750Y-17262970D01*
X9878607Y-17262970D01*
X9907178Y-17277256D01*
X9921464Y-17305827D01*
X9921464Y-17462970D01*
X9921464Y-17305827D02*
X9935750Y-17277256D01*
X9964321Y-17262970D01*
X10007178Y-17262970D01*
X10035750Y-17277256D01*
X10050036Y-17305827D01*
X10050036Y-17462970D01*
X10192893Y-17462970D02*
X10192893Y-17262970D01*
X10192893Y-17291541D02*
X10207178Y-17277256D01*
X10235750Y-17262970D01*
X10278607Y-17262970D01*
X10307178Y-17277256D01*
X10321464Y-17305827D01*
X10321464Y-17462970D01*
X10321464Y-17305827D02*
X10335750Y-17277256D01*
X10364321Y-17262970D01*
X10407178Y-17262970D01*
X10435750Y-17277256D01*
X10450036Y-17305827D01*
X10450036Y-17462970D01*
X11035750Y-17148684D02*
X10778607Y-17534398D01*
X11421464Y-17162970D02*
X11450036Y-17162970D01*
X11478607Y-17177256D01*
X11492893Y-17191541D01*
X11507178Y-17220113D01*
X11521464Y-17277256D01*
X11521464Y-17348684D01*
X11507178Y-17405827D01*
X11492893Y-17434398D01*
X11478607Y-17448684D01*
X11450036Y-17462970D01*
X11421464Y-17462970D01*
X11392893Y-17448684D01*
X11378607Y-17434398D01*
X11364321Y-17405827D01*
X11350036Y-17348684D01*
X11350036Y-17277256D01*
X11364321Y-17220113D01*
X11378607Y-17191541D01*
X11392893Y-17177256D01*
X11421464Y-17162970D01*
X11650036Y-17434398D02*
X11664321Y-17448684D01*
X11650036Y-17462970D01*
X11635750Y-17448684D01*
X11650036Y-17434398D01*
X11650036Y-17462970D01*
X11850036Y-17162970D02*
X11878607Y-17162970D01*
X11907178Y-17177256D01*
X11921464Y-17191541D01*
X11935750Y-17220113D01*
X11950036Y-17277256D01*
X11950036Y-17348684D01*
X11935750Y-17405827D01*
X11921464Y-17434398D01*
X11907178Y-17448684D01*
X11878607Y-17462970D01*
X11850036Y-17462970D01*
X11821464Y-17448684D01*
X11807178Y-17434398D01*
X11792893Y-17405827D01*
X11778607Y-17348684D01*
X11778607Y-17277256D01*
X11792893Y-17220113D01*
X11807178Y-17191541D01*
X11821464Y-17177256D01*
X11850036Y-17162970D01*
X12207178Y-17262970D02*
X12207178Y-17462970D01*
X12135750Y-17148684D02*
X12064321Y-17362970D01*
X12250036Y-17362970D01*
X12421464Y-17162970D02*
X12450036Y-17162970D01*
X12478607Y-17177256D01*
X12492893Y-17191541D01*
X12507178Y-17220113D01*
X12521464Y-17277256D01*
X12521464Y-17348684D01*
X12507178Y-17405827D01*
X12492893Y-17434398D01*
X12478607Y-17448684D01*
X12450036Y-17462970D01*
X12421464Y-17462970D01*
X12392893Y-17448684D01*
X12378607Y-17434398D01*
X12364321Y-17405827D01*
X12350036Y-17348684D01*
X12350036Y-17277256D01*
X12364321Y-17220113D01*
X12378607Y-17191541D01*
X12392893Y-17177256D01*
X12421464Y-17162970D01*
X12635750Y-17162970D02*
X12635750Y-17220113D01*
X12750036Y-17162970D02*
X12750036Y-17220113D01*
X13192893Y-17577256D02*
X13178607Y-17562970D01*
X13150036Y-17520113D01*
X13135750Y-17491541D01*
X13121464Y-17448684D01*
X13107178Y-17377256D01*
X13107178Y-17320113D01*
X13121464Y-17248684D01*
X13135750Y-17205827D01*
X13150036Y-17177256D01*
X13178607Y-17134398D01*
X13192893Y-17120113D01*
X13435750Y-17162970D02*
X13378607Y-17162970D01*
X13350036Y-17177256D01*
X13335750Y-17191541D01*
X13307178Y-17234398D01*
X13292893Y-17291541D01*
X13292893Y-17405827D01*
X13307178Y-17434398D01*
X13321464Y-17448684D01*
X13350036Y-17462970D01*
X13407178Y-17462970D01*
X13435750Y-17448684D01*
X13450036Y-17434398D01*
X13464321Y-17405827D01*
X13464321Y-17334398D01*
X13450036Y-17305827D01*
X13435750Y-17291541D01*
X13407178Y-17277256D01*
X13350036Y-17277256D01*
X13321464Y-17291541D01*
X13307178Y-17305827D01*
X13292893Y-17334398D01*
X13578607Y-17191541D02*
X13592893Y-17177256D01*
X13621464Y-17162970D01*
X13692893Y-17162970D01*
X13721464Y-17177256D01*
X13735750Y-17191541D01*
X13750036Y-17220113D01*
X13750036Y-17248684D01*
X13735750Y-17291541D01*
X13564321Y-17462970D01*
X13750036Y-17462970D01*
X14107178Y-17462970D02*
X14107178Y-17162970D01*
X14235750Y-17462970D02*
X14235750Y-17305827D01*
X14221464Y-17277256D01*
X14192893Y-17262970D01*
X14150036Y-17262970D01*
X14121464Y-17277256D01*
X14107178Y-17291541D01*
X14421464Y-17462970D02*
X14392893Y-17448684D01*
X14378607Y-17434398D01*
X14364321Y-17405827D01*
X14364321Y-17320113D01*
X14378607Y-17291541D01*
X14392893Y-17277256D01*
X14421464Y-17262970D01*
X14464321Y-17262970D01*
X14492893Y-17277256D01*
X14507178Y-17291541D01*
X14521464Y-17320113D01*
X14521464Y-17405827D01*
X14507178Y-17434398D01*
X14492893Y-17448684D01*
X14464321Y-17462970D01*
X14421464Y-17462970D01*
X14692893Y-17462970D02*
X14664321Y-17448684D01*
X14650036Y-17420113D01*
X14650036Y-17162970D01*
X14921464Y-17448684D02*
X14892893Y-17462970D01*
X14835750Y-17462970D01*
X14807178Y-17448684D01*
X14792893Y-17420113D01*
X14792893Y-17305827D01*
X14807178Y-17277256D01*
X14835750Y-17262970D01*
X14892893Y-17262970D01*
X14921464Y-17277256D01*
X14935750Y-17305827D01*
X14935750Y-17334398D01*
X14792893Y-17362970D01*
X15050036Y-17448684D02*
X15078607Y-17462970D01*
X15135750Y-17462970D01*
X15164321Y-17448684D01*
X15178607Y-17420113D01*
X15178607Y-17405827D01*
X15164321Y-17377256D01*
X15135750Y-17362970D01*
X15092893Y-17362970D01*
X15064321Y-17348684D01*
X15050036Y-17320113D01*
X15050036Y-17305827D01*
X15064321Y-17277256D01*
X15092893Y-17262970D01*
X15135750Y-17262970D01*
X15164321Y-17277256D01*
X15278607Y-17577256D02*
X15292893Y-17562970D01*
X15321464Y-17520113D01*
X15335750Y-17491541D01*
X15350036Y-17448684D01*
X15364321Y-17377256D01*
X15364321Y-17320113D01*
X15350036Y-17248684D01*
X15335750Y-17205827D01*
X15321464Y-17177256D01*
X15292893Y-17134398D01*
X15278607Y-17120113D01*
X8485962Y-17772753D02*
X8485962Y-17673758D01*
X8386966Y-17673758D01*
X8386966Y-17772753D01*
X8485962Y-17772753D01*
X8950036Y-17858970D02*
X8778607Y-17858970D01*
X8864321Y-17858970D02*
X8864321Y-17558970D01*
X8835750Y-17601827D01*
X8807178Y-17630398D01*
X8778607Y-17644684D01*
X9078607Y-17830398D02*
X9092893Y-17844684D01*
X9078607Y-17858970D01*
X9064321Y-17844684D01*
X9078607Y-17830398D01*
X9078607Y-17858970D01*
X9350036Y-17658970D02*
X9350036Y-17858970D01*
X9278607Y-17544684D02*
X9207178Y-17758970D01*
X9392893Y-17758970D01*
X9564321Y-17558970D02*
X9592893Y-17558970D01*
X9621464Y-17573256D01*
X9635750Y-17587541D01*
X9650036Y-17616113D01*
X9664321Y-17673256D01*
X9664321Y-17744684D01*
X9650036Y-17801827D01*
X9635750Y-17830398D01*
X9621464Y-17844684D01*
X9592893Y-17858970D01*
X9564321Y-17858970D01*
X9535750Y-17844684D01*
X9521464Y-17830398D01*
X9507178Y-17801827D01*
X9492893Y-17744684D01*
X9492893Y-17673256D01*
X9507178Y-17616113D01*
X9521464Y-17587541D01*
X9535750Y-17573256D01*
X9564321Y-17558970D01*
X9792893Y-17858970D02*
X9792893Y-17658970D01*
X9792893Y-17687541D02*
X9807178Y-17673256D01*
X9835750Y-17658970D01*
X9878607Y-17658970D01*
X9907178Y-17673256D01*
X9921464Y-17701827D01*
X9921464Y-17858970D01*
X9921464Y-17701827D02*
X9935750Y-17673256D01*
X9964321Y-17658970D01*
X10007178Y-17658970D01*
X10035750Y-17673256D01*
X10050036Y-17701827D01*
X10050036Y-17858970D01*
X10192893Y-17858970D02*
X10192893Y-17658970D01*
X10192893Y-17687541D02*
X10207178Y-17673256D01*
X10235750Y-17658970D01*
X10278607Y-17658970D01*
X10307178Y-17673256D01*
X10321464Y-17701827D01*
X10321464Y-17858970D01*
X10321464Y-17701827D02*
X10335750Y-17673256D01*
X10364321Y-17658970D01*
X10407178Y-17658970D01*
X10435750Y-17673256D01*
X10450036Y-17701827D01*
X10450036Y-17858970D01*
X11035750Y-17544684D02*
X10778607Y-17930398D01*
X11421464Y-17558970D02*
X11450036Y-17558970D01*
X11478607Y-17573256D01*
X11492893Y-17587541D01*
X11507178Y-17616113D01*
X11521464Y-17673256D01*
X11521464Y-17744684D01*
X11507178Y-17801827D01*
X11492893Y-17830398D01*
X11478607Y-17844684D01*
X11450036Y-17858970D01*
X11421464Y-17858970D01*
X11392893Y-17844684D01*
X11378607Y-17830398D01*
X11364321Y-17801827D01*
X11350036Y-17744684D01*
X11350036Y-17673256D01*
X11364321Y-17616113D01*
X11378607Y-17587541D01*
X11392893Y-17573256D01*
X11421464Y-17558970D01*
X11650036Y-17830398D02*
X11664321Y-17844684D01*
X11650036Y-17858970D01*
X11635750Y-17844684D01*
X11650036Y-17830398D01*
X11650036Y-17858970D01*
X11850036Y-17558970D02*
X11878607Y-17558970D01*
X11907178Y-17573256D01*
X11921464Y-17587541D01*
X11935750Y-17616113D01*
X11950036Y-17673256D01*
X11950036Y-17744684D01*
X11935750Y-17801827D01*
X11921464Y-17830398D01*
X11907178Y-17844684D01*
X11878607Y-17858970D01*
X11850036Y-17858970D01*
X11821464Y-17844684D01*
X11807178Y-17830398D01*
X11792893Y-17801827D01*
X11778607Y-17744684D01*
X11778607Y-17673256D01*
X11792893Y-17616113D01*
X11807178Y-17587541D01*
X11821464Y-17573256D01*
X11850036Y-17558970D01*
X12221464Y-17558970D02*
X12078607Y-17558970D01*
X12064321Y-17701827D01*
X12078607Y-17687541D01*
X12107178Y-17673256D01*
X12178607Y-17673256D01*
X12207178Y-17687541D01*
X12221464Y-17701827D01*
X12235750Y-17730398D01*
X12235750Y-17801827D01*
X12221464Y-17830398D01*
X12207178Y-17844684D01*
X12178607Y-17858970D01*
X12107178Y-17858970D01*
X12078607Y-17844684D01*
X12064321Y-17830398D01*
X12507178Y-17558970D02*
X12364321Y-17558970D01*
X12350036Y-17701827D01*
X12364321Y-17687541D01*
X12392893Y-17673256D01*
X12464321Y-17673256D01*
X12492893Y-17687541D01*
X12507178Y-17701827D01*
X12521464Y-17730398D01*
X12521464Y-17801827D01*
X12507178Y-17830398D01*
X12492893Y-17844684D01*
X12464321Y-17858970D01*
X12392893Y-17858970D01*
X12364321Y-17844684D01*
X12350036Y-17830398D01*
X12635750Y-17558970D02*
X12635750Y-17616113D01*
X12750036Y-17558970D02*
X12750036Y-17616113D01*
X13192893Y-17973256D02*
X13178607Y-17958970D01*
X13150036Y-17916113D01*
X13135750Y-17887541D01*
X13121464Y-17844684D01*
X13107178Y-17773256D01*
X13107178Y-17716113D01*
X13121464Y-17644684D01*
X13135750Y-17601827D01*
X13150036Y-17573256D01*
X13178607Y-17530398D01*
X13192893Y-17516113D01*
X13464321Y-17858970D02*
X13292893Y-17858970D01*
X13378607Y-17858970D02*
X13378607Y-17558970D01*
X13350036Y-17601827D01*
X13321464Y-17630398D01*
X13292893Y-17644684D01*
X13564321Y-17558970D02*
X13750036Y-17558970D01*
X13650036Y-17673256D01*
X13692893Y-17673256D01*
X13721464Y-17687541D01*
X13735750Y-17701827D01*
X13750036Y-17730398D01*
X13750036Y-17801827D01*
X13735750Y-17830398D01*
X13721464Y-17844684D01*
X13692893Y-17858970D01*
X13607178Y-17858970D01*
X13578607Y-17844684D01*
X13564321Y-17830398D01*
X14107178Y-17858970D02*
X14107178Y-17558970D01*
X14235750Y-17858970D02*
X14235750Y-17701827D01*
X14221464Y-17673256D01*
X14192893Y-17658970D01*
X14150036Y-17658970D01*
X14121464Y-17673256D01*
X14107178Y-17687541D01*
X14421464Y-17858970D02*
X14392893Y-17844684D01*
X14378607Y-17830398D01*
X14364321Y-17801827D01*
X14364321Y-17716113D01*
X14378607Y-17687541D01*
X14392893Y-17673256D01*
X14421464Y-17658970D01*
X14464321Y-17658970D01*
X14492893Y-17673256D01*
X14507178Y-17687541D01*
X14521464Y-17716113D01*
X14521464Y-17801827D01*
X14507178Y-17830398D01*
X14492893Y-17844684D01*
X14464321Y-17858970D01*
X14421464Y-17858970D01*
X14692893Y-17858970D02*
X14664321Y-17844684D01*
X14650036Y-17816113D01*
X14650036Y-17558970D01*
X14921464Y-17844684D02*
X14892893Y-17858970D01*
X14835750Y-17858970D01*
X14807178Y-17844684D01*
X14792893Y-17816113D01*
X14792893Y-17701827D01*
X14807178Y-17673256D01*
X14835750Y-17658970D01*
X14892893Y-17658970D01*
X14921464Y-17673256D01*
X14935750Y-17701827D01*
X14935750Y-17730398D01*
X14792893Y-17758970D01*
X15050036Y-17844684D02*
X15078607Y-17858970D01*
X15135750Y-17858970D01*
X15164321Y-17844684D01*
X15178607Y-17816113D01*
X15178607Y-17801827D01*
X15164321Y-17773256D01*
X15135750Y-17758970D01*
X15092893Y-17758970D01*
X15064321Y-17744684D01*
X15050036Y-17716113D01*
X15050036Y-17701827D01*
X15064321Y-17673256D01*
X15092893Y-17658970D01*
X15135750Y-17658970D01*
X15164321Y-17673256D01*
X15278607Y-17973256D02*
X15292893Y-17958970D01*
X15321464Y-17916113D01*
X15335750Y-17887541D01*
X15350036Y-17844684D01*
X15364321Y-17773256D01*
X15364321Y-17716113D01*
X15350036Y-17644684D01*
X15335750Y-17601827D01*
X15321464Y-17573256D01*
X15292893Y-17530398D01*
X15278607Y-17516113D01*
X8406464Y-18219256D02*
X8506464Y-18119256D01*
X8406464Y-18019256D01*
X8306464Y-18119256D01*
X8406464Y-18219256D01*
X8778607Y-17983541D02*
X8792893Y-17969256D01*
X8821464Y-17954970D01*
X8892893Y-17954970D01*
X8921464Y-17969256D01*
X8935750Y-17983541D01*
X8950036Y-18012113D01*
X8950036Y-18040684D01*
X8935750Y-18083541D01*
X8764321Y-18254970D01*
X8950036Y-18254970D01*
X9078607Y-18226398D02*
X9092893Y-18240684D01*
X9078607Y-18254970D01*
X9064321Y-18240684D01*
X9078607Y-18226398D01*
X9078607Y-18254970D01*
X9278607Y-17954970D02*
X9307178Y-17954970D01*
X9335750Y-17969256D01*
X9350036Y-17983541D01*
X9364321Y-18012113D01*
X9378607Y-18069256D01*
X9378607Y-18140684D01*
X9364321Y-18197827D01*
X9350036Y-18226398D01*
X9335750Y-18240684D01*
X9307178Y-18254970D01*
X9278607Y-18254970D01*
X9250036Y-18240684D01*
X9235750Y-18226398D01*
X9221464Y-18197827D01*
X9207178Y-18140684D01*
X9207178Y-18069256D01*
X9221464Y-18012113D01*
X9235750Y-17983541D01*
X9250036Y-17969256D01*
X9278607Y-17954970D01*
X9564321Y-17954970D02*
X9592893Y-17954970D01*
X9621464Y-17969256D01*
X9635750Y-17983541D01*
X9650036Y-18012113D01*
X9664321Y-18069256D01*
X9664321Y-18140684D01*
X9650036Y-18197827D01*
X9635750Y-18226398D01*
X9621464Y-18240684D01*
X9592893Y-18254970D01*
X9564321Y-18254970D01*
X9535750Y-18240684D01*
X9521464Y-18226398D01*
X9507178Y-18197827D01*
X9492893Y-18140684D01*
X9492893Y-18069256D01*
X9507178Y-18012113D01*
X9521464Y-17983541D01*
X9535750Y-17969256D01*
X9564321Y-17954970D01*
X9792893Y-18254970D02*
X9792893Y-18054970D01*
X9792893Y-18083541D02*
X9807178Y-18069256D01*
X9835750Y-18054970D01*
X9878607Y-18054970D01*
X9907178Y-18069256D01*
X9921464Y-18097827D01*
X9921464Y-18254970D01*
X9921464Y-18097827D02*
X9935750Y-18069256D01*
X9964321Y-18054970D01*
X10007178Y-18054970D01*
X10035750Y-18069256D01*
X10050036Y-18097827D01*
X10050036Y-18254970D01*
X10192893Y-18254970D02*
X10192893Y-18054970D01*
X10192893Y-18083541D02*
X10207178Y-18069256D01*
X10235750Y-18054970D01*
X10278607Y-18054970D01*
X10307178Y-18069256D01*
X10321464Y-18097827D01*
X10321464Y-18254970D01*
X10321464Y-18097827D02*
X10335750Y-18069256D01*
X10364321Y-18054970D01*
X10407178Y-18054970D01*
X10435750Y-18069256D01*
X10450036Y-18097827D01*
X10450036Y-18254970D01*
X11035750Y-17940684D02*
X10778607Y-18326398D01*
X11421464Y-17954970D02*
X11450036Y-17954970D01*
X11478607Y-17969256D01*
X11492893Y-17983541D01*
X11507178Y-18012113D01*
X11521464Y-18069256D01*
X11521464Y-18140684D01*
X11507178Y-18197827D01*
X11492893Y-18226398D01*
X11478607Y-18240684D01*
X11450036Y-18254970D01*
X11421464Y-18254970D01*
X11392893Y-18240684D01*
X11378607Y-18226398D01*
X11364321Y-18197827D01*
X11350036Y-18140684D01*
X11350036Y-18069256D01*
X11364321Y-18012113D01*
X11378607Y-17983541D01*
X11392893Y-17969256D01*
X11421464Y-17954970D01*
X11650036Y-18226398D02*
X11664321Y-18240684D01*
X11650036Y-18254970D01*
X11635750Y-18240684D01*
X11650036Y-18226398D01*
X11650036Y-18254970D01*
X11850036Y-17954970D02*
X11878607Y-17954970D01*
X11907178Y-17969256D01*
X11921464Y-17983541D01*
X11935750Y-18012113D01*
X11950036Y-18069256D01*
X11950036Y-18140684D01*
X11935750Y-18197827D01*
X11921464Y-18226398D01*
X11907178Y-18240684D01*
X11878607Y-18254970D01*
X11850036Y-18254970D01*
X11821464Y-18240684D01*
X11807178Y-18226398D01*
X11792893Y-18197827D01*
X11778607Y-18140684D01*
X11778607Y-18069256D01*
X11792893Y-18012113D01*
X11807178Y-17983541D01*
X11821464Y-17969256D01*
X11850036Y-17954970D01*
X12050036Y-17954970D02*
X12250036Y-17954970D01*
X12121464Y-18254970D01*
X12378607Y-18254970D02*
X12435750Y-18254970D01*
X12464321Y-18240684D01*
X12478607Y-18226398D01*
X12507178Y-18183541D01*
X12521464Y-18126398D01*
X12521464Y-18012113D01*
X12507178Y-17983541D01*
X12492893Y-17969256D01*
X12464321Y-17954970D01*
X12407178Y-17954970D01*
X12378607Y-17969256D01*
X12364321Y-17983541D01*
X12350036Y-18012113D01*
X12350036Y-18083541D01*
X12364321Y-18112113D01*
X12378607Y-18126398D01*
X12407178Y-18140684D01*
X12464321Y-18140684D01*
X12492893Y-18126398D01*
X12507178Y-18112113D01*
X12521464Y-18083541D01*
X12635750Y-17954970D02*
X12635750Y-18012113D01*
X12750036Y-17954970D02*
X12750036Y-18012113D01*
X13192893Y-18369256D02*
X13178607Y-18354970D01*
X13150036Y-18312113D01*
X13135750Y-18283541D01*
X13121464Y-18240684D01*
X13107178Y-18169256D01*
X13107178Y-18112113D01*
X13121464Y-18040684D01*
X13135750Y-17997827D01*
X13150036Y-17969256D01*
X13178607Y-17926398D01*
X13192893Y-17912113D01*
X13435750Y-18054970D02*
X13435750Y-18254970D01*
X13364321Y-17940684D02*
X13292893Y-18154970D01*
X13478607Y-18154970D01*
X13821464Y-18254970D02*
X13821464Y-17954970D01*
X13950036Y-18254970D02*
X13950036Y-18097827D01*
X13935750Y-18069256D01*
X13907178Y-18054970D01*
X13864321Y-18054970D01*
X13835750Y-18069256D01*
X13821464Y-18083541D01*
X14135750Y-18254970D02*
X14107178Y-18240684D01*
X14092893Y-18226398D01*
X14078607Y-18197827D01*
X14078607Y-18112113D01*
X14092893Y-18083541D01*
X14107178Y-18069256D01*
X14135750Y-18054970D01*
X14178607Y-18054970D01*
X14207178Y-18069256D01*
X14221464Y-18083541D01*
X14235750Y-18112113D01*
X14235750Y-18197827D01*
X14221464Y-18226398D01*
X14207178Y-18240684D01*
X14178607Y-18254970D01*
X14135750Y-18254970D01*
X14407178Y-18254970D02*
X14378607Y-18240684D01*
X14364321Y-18212113D01*
X14364321Y-17954970D01*
X14635750Y-18240684D02*
X14607178Y-18254970D01*
X14550036Y-18254970D01*
X14521464Y-18240684D01*
X14507178Y-18212113D01*
X14507178Y-18097827D01*
X14521464Y-18069256D01*
X14550036Y-18054970D01*
X14607178Y-18054970D01*
X14635750Y-18069256D01*
X14650036Y-18097827D01*
X14650036Y-18126398D01*
X14507178Y-18154970D01*
X14764321Y-18240684D02*
X14792893Y-18254970D01*
X14850036Y-18254970D01*
X14878607Y-18240684D01*
X14892893Y-18212113D01*
X14892893Y-18197827D01*
X14878607Y-18169256D01*
X14850036Y-18154970D01*
X14807178Y-18154970D01*
X14778607Y-18140684D01*
X14764321Y-18112113D01*
X14764321Y-18097827D01*
X14778607Y-18069256D01*
X14807178Y-18054970D01*
X14850036Y-18054970D01*
X14878607Y-18069256D01*
X14992893Y-18369256D02*
X15007178Y-18354970D01*
X15035750Y-18312113D01*
X15050036Y-18283541D01*
X15064321Y-18240684D01*
X15078607Y-18169256D01*
X15078607Y-18112113D01*
X15064321Y-18040684D01*
X15050036Y-17997827D01*
X15035750Y-17969256D01*
X15007178Y-17926398D01*
X14992893Y-17912113D01*
M02*
