G04 #@! TF.GenerationSoftware,KiCad,Pcbnew,(5.1.2)-2*
G04 #@! TF.CreationDate,2020-01-31T13:49:52-06:00*
G04 #@! TF.ProjectId,Igniter,49676e69-7465-4722-9e6b-696361645f70,rev?*
G04 #@! TF.SameCoordinates,Original*
G04 #@! TF.FileFunction,Soldermask,Top*
G04 #@! TF.FilePolarity,Negative*
%FSLAX46Y46*%
G04 Gerber Fmt 4.6, Leading zero omitted, Abs format (unit mm)*
G04 Created by KiCad (PCBNEW (5.1.2)-2) date 2020-01-31 13:49:52*
%MOMM*%
%LPD*%
G04 APERTURE LIST*
%ADD10C,0.100000*%
G04 APERTURE END LIST*
D10*
G36*
X205691291Y-148892751D02*
G01*
X206019052Y-149028514D01*
X206314030Y-149225612D01*
X206564888Y-149476470D01*
X206761986Y-149771448D01*
X206897749Y-150099209D01*
X206966960Y-150447156D01*
X206966960Y-150801924D01*
X206897749Y-151149871D01*
X206761986Y-151477632D01*
X206564888Y-151772610D01*
X206314030Y-152023468D01*
X206019052Y-152220566D01*
X205691291Y-152356329D01*
X205343344Y-152425540D01*
X204988576Y-152425540D01*
X204640629Y-152356329D01*
X204312868Y-152220566D01*
X204017890Y-152023468D01*
X203767032Y-151772610D01*
X203569934Y-151477632D01*
X203434171Y-151149871D01*
X203364960Y-150801924D01*
X203364960Y-150447156D01*
X203434171Y-150099209D01*
X203569934Y-149771448D01*
X203767032Y-149476470D01*
X204017890Y-149225612D01*
X204312868Y-149028514D01*
X204640629Y-148892751D01*
X204988576Y-148823540D01*
X205343344Y-148823540D01*
X205691291Y-148892751D01*
X205691291Y-148892751D01*
G37*
G36*
X148399051Y-148892751D02*
G01*
X148726812Y-149028514D01*
X149021790Y-149225612D01*
X149272648Y-149476470D01*
X149469746Y-149771448D01*
X149605509Y-150099209D01*
X149674720Y-150447156D01*
X149674720Y-150801924D01*
X149605509Y-151149871D01*
X149469746Y-151477632D01*
X149272648Y-151772610D01*
X149021790Y-152023468D01*
X148726812Y-152220566D01*
X148399051Y-152356329D01*
X148051104Y-152425540D01*
X147696336Y-152425540D01*
X147348389Y-152356329D01*
X147020628Y-152220566D01*
X146725650Y-152023468D01*
X146474792Y-151772610D01*
X146277694Y-151477632D01*
X146141931Y-151149871D01*
X146072720Y-150801924D01*
X146072720Y-150447156D01*
X146141931Y-150099209D01*
X146277694Y-149771448D01*
X146474792Y-149476470D01*
X146725650Y-149225612D01*
X147020628Y-149028514D01*
X147348389Y-148892751D01*
X147696336Y-148823540D01*
X148051104Y-148823540D01*
X148399051Y-148892751D01*
X148399051Y-148892751D01*
G37*
G36*
X90121291Y-148892751D02*
G01*
X90449052Y-149028514D01*
X90744030Y-149225612D01*
X90994888Y-149476470D01*
X91191986Y-149771448D01*
X91327749Y-150099209D01*
X91396960Y-150447156D01*
X91396960Y-150801924D01*
X91327749Y-151149871D01*
X91191986Y-151477632D01*
X90994888Y-151772610D01*
X90744030Y-152023468D01*
X90449052Y-152220566D01*
X90121291Y-152356329D01*
X89773344Y-152425540D01*
X89418576Y-152425540D01*
X89070629Y-152356329D01*
X88742868Y-152220566D01*
X88447890Y-152023468D01*
X88197032Y-151772610D01*
X87999934Y-151477632D01*
X87864171Y-151149871D01*
X87794960Y-150801924D01*
X87794960Y-150447156D01*
X87864171Y-150099209D01*
X87999934Y-149771448D01*
X88197032Y-149476470D01*
X88447890Y-149225612D01*
X88742868Y-149028514D01*
X89070629Y-148892751D01*
X89418576Y-148823540D01*
X89773344Y-148823540D01*
X90121291Y-148892751D01*
X90121291Y-148892751D01*
G37*
G36*
X141925520Y-148665809D02*
G01*
X141958572Y-148675835D01*
X141989023Y-148692112D01*
X142015719Y-148714021D01*
X142037628Y-148740717D01*
X142053905Y-148771168D01*
X142063931Y-148804220D01*
X142067920Y-148844723D01*
X142067920Y-150280917D01*
X142063931Y-150321420D01*
X142053905Y-150354472D01*
X142037628Y-150384923D01*
X142015719Y-150411619D01*
X141989023Y-150433528D01*
X141958572Y-150449805D01*
X141925520Y-150459831D01*
X141885017Y-150463820D01*
X140298823Y-150463820D01*
X140258320Y-150459831D01*
X140225268Y-150449805D01*
X140194817Y-150433528D01*
X140168121Y-150411619D01*
X140146212Y-150384923D01*
X140129935Y-150354472D01*
X140119909Y-150321420D01*
X140115920Y-150280917D01*
X140115920Y-148844723D01*
X140119909Y-148804220D01*
X140129935Y-148771168D01*
X140146212Y-148740717D01*
X140168121Y-148714021D01*
X140194817Y-148692112D01*
X140225268Y-148675835D01*
X140258320Y-148665809D01*
X140298823Y-148661820D01*
X141885017Y-148661820D01*
X141925520Y-148665809D01*
X141925520Y-148665809D01*
G37*
G36*
X173269120Y-148665809D02*
G01*
X173302172Y-148675835D01*
X173332623Y-148692112D01*
X173359319Y-148714021D01*
X173381228Y-148740717D01*
X173397505Y-148771168D01*
X173407531Y-148804220D01*
X173411520Y-148844723D01*
X173411520Y-150280917D01*
X173407531Y-150321420D01*
X173397505Y-150354472D01*
X173381228Y-150384923D01*
X173359319Y-150411619D01*
X173332623Y-150433528D01*
X173302172Y-150449805D01*
X173269120Y-150459831D01*
X173228617Y-150463820D01*
X171642423Y-150463820D01*
X171601920Y-150459831D01*
X171568868Y-150449805D01*
X171538417Y-150433528D01*
X171511721Y-150411619D01*
X171489812Y-150384923D01*
X171473535Y-150354472D01*
X171463509Y-150321420D01*
X171459520Y-150280917D01*
X171459520Y-148844723D01*
X171463509Y-148804220D01*
X171473535Y-148771168D01*
X171489812Y-148740717D01*
X171511721Y-148714021D01*
X171538417Y-148692112D01*
X171568868Y-148675835D01*
X171601920Y-148665809D01*
X171642423Y-148661820D01*
X173228617Y-148661820D01*
X173269120Y-148665809D01*
X173269120Y-148665809D01*
G37*
G36*
X164927760Y-148665809D02*
G01*
X164960812Y-148675835D01*
X164991263Y-148692112D01*
X165017959Y-148714021D01*
X165039868Y-148740717D01*
X165056145Y-148771168D01*
X165066171Y-148804220D01*
X165070160Y-148844723D01*
X165070160Y-150280917D01*
X165066171Y-150321420D01*
X165056145Y-150354472D01*
X165039868Y-150384923D01*
X165017959Y-150411619D01*
X164991263Y-150433528D01*
X164960812Y-150449805D01*
X164927760Y-150459831D01*
X164887257Y-150463820D01*
X163301063Y-150463820D01*
X163260560Y-150459831D01*
X163227508Y-150449805D01*
X163197057Y-150433528D01*
X163170361Y-150411619D01*
X163148452Y-150384923D01*
X163132175Y-150354472D01*
X163122149Y-150321420D01*
X163118160Y-150280917D01*
X163118160Y-148844723D01*
X163122149Y-148804220D01*
X163132175Y-148771168D01*
X163148452Y-148740717D01*
X163170361Y-148714021D01*
X163197057Y-148692112D01*
X163227508Y-148675835D01*
X163260560Y-148665809D01*
X163301063Y-148661820D01*
X164887257Y-148661820D01*
X164927760Y-148665809D01*
X164927760Y-148665809D01*
G37*
G36*
X156586400Y-148665809D02*
G01*
X156619452Y-148675835D01*
X156649903Y-148692112D01*
X156676599Y-148714021D01*
X156698508Y-148740717D01*
X156714785Y-148771168D01*
X156724811Y-148804220D01*
X156728800Y-148844723D01*
X156728800Y-150280917D01*
X156724811Y-150321420D01*
X156714785Y-150354472D01*
X156698508Y-150384923D01*
X156676599Y-150411619D01*
X156649903Y-150433528D01*
X156619452Y-150449805D01*
X156586400Y-150459831D01*
X156545897Y-150463820D01*
X154959703Y-150463820D01*
X154919200Y-150459831D01*
X154886148Y-150449805D01*
X154855697Y-150433528D01*
X154829001Y-150411619D01*
X154807092Y-150384923D01*
X154790815Y-150354472D01*
X154780789Y-150321420D01*
X154776800Y-150280917D01*
X154776800Y-148844723D01*
X154780789Y-148804220D01*
X154790815Y-148771168D01*
X154807092Y-148740717D01*
X154829001Y-148714021D01*
X154855697Y-148692112D01*
X154886148Y-148675835D01*
X154919200Y-148665809D01*
X154959703Y-148661820D01*
X156545897Y-148661820D01*
X156586400Y-148665809D01*
X156586400Y-148665809D01*
G37*
G36*
X134191220Y-148665809D02*
G01*
X134224272Y-148675835D01*
X134254723Y-148692112D01*
X134281419Y-148714021D01*
X134303328Y-148740717D01*
X134319605Y-148771168D01*
X134329631Y-148804220D01*
X134333620Y-148844723D01*
X134333620Y-150280917D01*
X134329631Y-150321420D01*
X134319605Y-150354472D01*
X134303328Y-150384923D01*
X134281419Y-150411619D01*
X134254723Y-150433528D01*
X134224272Y-150449805D01*
X134191220Y-150459831D01*
X134150717Y-150463820D01*
X132564523Y-150463820D01*
X132524020Y-150459831D01*
X132490968Y-150449805D01*
X132460517Y-150433528D01*
X132433821Y-150411619D01*
X132411912Y-150384923D01*
X132395635Y-150354472D01*
X132385609Y-150321420D01*
X132381620Y-150280917D01*
X132381620Y-148844723D01*
X132385609Y-148804220D01*
X132395635Y-148771168D01*
X132411912Y-148740717D01*
X132433821Y-148714021D01*
X132460517Y-148692112D01*
X132490968Y-148675835D01*
X132524020Y-148665809D01*
X132564523Y-148661820D01*
X134150717Y-148661820D01*
X134191220Y-148665809D01*
X134191220Y-148665809D01*
G37*
G36*
X100297460Y-148665809D02*
G01*
X100330512Y-148675835D01*
X100360963Y-148692112D01*
X100387659Y-148714021D01*
X100409568Y-148740717D01*
X100425845Y-148771168D01*
X100435871Y-148804220D01*
X100439860Y-148844723D01*
X100439860Y-150280917D01*
X100435871Y-150321420D01*
X100425845Y-150354472D01*
X100409568Y-150384923D01*
X100387659Y-150411619D01*
X100360963Y-150433528D01*
X100330512Y-150449805D01*
X100297460Y-150459831D01*
X100256957Y-150463820D01*
X98670763Y-150463820D01*
X98630260Y-150459831D01*
X98597208Y-150449805D01*
X98566757Y-150433528D01*
X98540061Y-150411619D01*
X98518152Y-150384923D01*
X98501875Y-150354472D01*
X98491849Y-150321420D01*
X98487860Y-150280917D01*
X98487860Y-148844723D01*
X98491849Y-148804220D01*
X98501875Y-148771168D01*
X98518152Y-148740717D01*
X98540061Y-148714021D01*
X98566757Y-148692112D01*
X98597208Y-148675835D01*
X98630260Y-148665809D01*
X98670763Y-148661820D01*
X100256957Y-148661820D01*
X100297460Y-148665809D01*
X100297460Y-148665809D01*
G37*
G36*
X108531293Y-148665809D02*
G01*
X108564345Y-148675835D01*
X108594796Y-148692112D01*
X108621492Y-148714021D01*
X108643401Y-148740717D01*
X108659678Y-148771168D01*
X108669704Y-148804220D01*
X108673693Y-148844723D01*
X108673693Y-150280917D01*
X108669704Y-150321420D01*
X108659678Y-150354472D01*
X108643401Y-150384923D01*
X108621492Y-150411619D01*
X108594796Y-150433528D01*
X108564345Y-150449805D01*
X108531293Y-150459831D01*
X108490790Y-150463820D01*
X106904596Y-150463820D01*
X106864093Y-150459831D01*
X106831041Y-150449805D01*
X106800590Y-150433528D01*
X106773894Y-150411619D01*
X106751985Y-150384923D01*
X106735708Y-150354472D01*
X106725682Y-150321420D01*
X106721693Y-150280917D01*
X106721693Y-148844723D01*
X106725682Y-148804220D01*
X106735708Y-148771168D01*
X106751985Y-148740717D01*
X106773894Y-148714021D01*
X106800590Y-148692112D01*
X106831041Y-148675835D01*
X106864093Y-148665809D01*
X106904596Y-148661820D01*
X108490790Y-148661820D01*
X108531293Y-148665809D01*
X108531293Y-148665809D01*
G37*
G36*
X116926600Y-148665809D02*
G01*
X116959652Y-148675835D01*
X116990103Y-148692112D01*
X117016799Y-148714021D01*
X117038708Y-148740717D01*
X117054985Y-148771168D01*
X117065011Y-148804220D01*
X117069000Y-148844723D01*
X117069000Y-150280917D01*
X117065011Y-150321420D01*
X117054985Y-150354472D01*
X117038708Y-150384923D01*
X117016799Y-150411619D01*
X116990103Y-150433528D01*
X116959652Y-150449805D01*
X116926600Y-150459831D01*
X116886097Y-150463820D01*
X115299903Y-150463820D01*
X115259400Y-150459831D01*
X115226348Y-150449805D01*
X115195897Y-150433528D01*
X115169201Y-150411619D01*
X115147292Y-150384923D01*
X115131015Y-150354472D01*
X115120989Y-150321420D01*
X115117000Y-150280917D01*
X115117000Y-148844723D01*
X115120989Y-148804220D01*
X115131015Y-148771168D01*
X115147292Y-148740717D01*
X115169201Y-148714021D01*
X115195897Y-148692112D01*
X115226348Y-148675835D01*
X115259400Y-148665809D01*
X115299903Y-148661820D01*
X116886097Y-148661820D01*
X116926600Y-148665809D01*
X116926600Y-148665809D01*
G37*
G36*
X124998960Y-148665809D02*
G01*
X125032012Y-148675835D01*
X125062463Y-148692112D01*
X125089159Y-148714021D01*
X125111068Y-148740717D01*
X125127345Y-148771168D01*
X125137371Y-148804220D01*
X125141360Y-148844723D01*
X125141360Y-150280917D01*
X125137371Y-150321420D01*
X125127345Y-150354472D01*
X125111068Y-150384923D01*
X125089159Y-150411619D01*
X125062463Y-150433528D01*
X125032012Y-150449805D01*
X124998960Y-150459831D01*
X124958457Y-150463820D01*
X123372263Y-150463820D01*
X123331760Y-150459831D01*
X123298708Y-150449805D01*
X123268257Y-150433528D01*
X123241561Y-150411619D01*
X123219652Y-150384923D01*
X123203375Y-150354472D01*
X123193349Y-150321420D01*
X123189360Y-150280917D01*
X123189360Y-148844723D01*
X123193349Y-148804220D01*
X123203375Y-148771168D01*
X123219652Y-148740717D01*
X123241561Y-148714021D01*
X123268257Y-148692112D01*
X123298708Y-148675835D01*
X123331760Y-148665809D01*
X123372263Y-148661820D01*
X124958457Y-148661820D01*
X124998960Y-148665809D01*
X124998960Y-148665809D01*
G37*
G36*
X192096104Y-148441585D02*
G01*
X192264626Y-148511389D01*
X192416291Y-148612728D01*
X192545272Y-148741709D01*
X192646611Y-148893374D01*
X192716415Y-149061896D01*
X192752000Y-149240797D01*
X192752000Y-149423203D01*
X192716415Y-149602104D01*
X192646611Y-149770626D01*
X192545272Y-149922291D01*
X192416291Y-150051272D01*
X192264626Y-150152611D01*
X192096104Y-150222415D01*
X191917203Y-150258000D01*
X191734797Y-150258000D01*
X191555896Y-150222415D01*
X191387374Y-150152611D01*
X191235709Y-150051272D01*
X191106728Y-149922291D01*
X191005389Y-149770626D01*
X190935585Y-149602104D01*
X190900000Y-149423203D01*
X190900000Y-149240797D01*
X190935585Y-149061896D01*
X191005389Y-148893374D01*
X191106728Y-148741709D01*
X191235709Y-148612728D01*
X191387374Y-148511389D01*
X191555896Y-148441585D01*
X191734797Y-148406000D01*
X191917203Y-148406000D01*
X192096104Y-148441585D01*
X192096104Y-148441585D01*
G37*
G36*
X195596104Y-148441585D02*
G01*
X195764626Y-148511389D01*
X195916291Y-148612728D01*
X196045272Y-148741709D01*
X196146611Y-148893374D01*
X196216415Y-149061896D01*
X196252000Y-149240797D01*
X196252000Y-149423203D01*
X196216415Y-149602104D01*
X196146611Y-149770626D01*
X196045272Y-149922291D01*
X195916291Y-150051272D01*
X195764626Y-150152611D01*
X195596104Y-150222415D01*
X195417203Y-150258000D01*
X195234797Y-150258000D01*
X195055896Y-150222415D01*
X194887374Y-150152611D01*
X194735709Y-150051272D01*
X194606728Y-149922291D01*
X194505389Y-149770626D01*
X194435585Y-149602104D01*
X194400000Y-149423203D01*
X194400000Y-149240797D01*
X194435585Y-149061896D01*
X194505389Y-148893374D01*
X194606728Y-148741709D01*
X194735709Y-148612728D01*
X194887374Y-148511389D01*
X195055896Y-148441585D01*
X195234797Y-148406000D01*
X195417203Y-148406000D01*
X195596104Y-148441585D01*
X195596104Y-148441585D01*
G37*
G36*
X182796104Y-148441585D02*
G01*
X182964626Y-148511389D01*
X183116291Y-148612728D01*
X183245272Y-148741709D01*
X183346611Y-148893374D01*
X183416415Y-149061896D01*
X183452000Y-149240797D01*
X183452000Y-149423203D01*
X183416415Y-149602104D01*
X183346611Y-149770626D01*
X183245272Y-149922291D01*
X183116291Y-150051272D01*
X182964626Y-150152611D01*
X182796104Y-150222415D01*
X182617203Y-150258000D01*
X182434797Y-150258000D01*
X182255896Y-150222415D01*
X182087374Y-150152611D01*
X181935709Y-150051272D01*
X181806728Y-149922291D01*
X181705389Y-149770626D01*
X181635585Y-149602104D01*
X181600000Y-149423203D01*
X181600000Y-149240797D01*
X181635585Y-149061896D01*
X181705389Y-148893374D01*
X181806728Y-148741709D01*
X181935709Y-148612728D01*
X182087374Y-148511389D01*
X182255896Y-148441585D01*
X182434797Y-148406000D01*
X182617203Y-148406000D01*
X182796104Y-148441585D01*
X182796104Y-148441585D01*
G37*
G36*
X186296104Y-148441585D02*
G01*
X186464626Y-148511389D01*
X186616291Y-148612728D01*
X186745272Y-148741709D01*
X186846611Y-148893374D01*
X186916415Y-149061896D01*
X186952000Y-149240797D01*
X186952000Y-149423203D01*
X186916415Y-149602104D01*
X186846611Y-149770626D01*
X186745272Y-149922291D01*
X186616291Y-150051272D01*
X186464626Y-150152611D01*
X186296104Y-150222415D01*
X186117203Y-150258000D01*
X185934797Y-150258000D01*
X185755896Y-150222415D01*
X185587374Y-150152611D01*
X185435709Y-150051272D01*
X185306728Y-149922291D01*
X185205389Y-149770626D01*
X185135585Y-149602104D01*
X185100000Y-149423203D01*
X185100000Y-149240797D01*
X185135585Y-149061896D01*
X185205389Y-148893374D01*
X185306728Y-148741709D01*
X185435709Y-148612728D01*
X185587374Y-148511389D01*
X185755896Y-148441585D01*
X185934797Y-148406000D01*
X186117203Y-148406000D01*
X186296104Y-148441585D01*
X186296104Y-148441585D01*
G37*
G36*
X189241715Y-146716352D02*
G01*
X189334657Y-146734839D01*
X189440267Y-146778585D01*
X189589621Y-146840449D01*
X189589622Y-146840450D01*
X189819086Y-146993772D01*
X190014228Y-147188914D01*
X190068825Y-147270625D01*
X190167551Y-147418379D01*
X190273161Y-147673344D01*
X190327000Y-147944012D01*
X190327000Y-148219988D01*
X190273161Y-148490656D01*
X190167551Y-148745621D01*
X190167550Y-148745622D01*
X190014228Y-148975086D01*
X189819086Y-149170228D01*
X189736197Y-149225612D01*
X189589621Y-149323551D01*
X189440267Y-149385415D01*
X189334657Y-149429161D01*
X189244433Y-149447107D01*
X189063988Y-149483000D01*
X188788012Y-149483000D01*
X188607567Y-149447107D01*
X188517343Y-149429161D01*
X188411733Y-149385415D01*
X188262379Y-149323551D01*
X188115803Y-149225612D01*
X188032914Y-149170228D01*
X187837772Y-148975086D01*
X187684450Y-148745622D01*
X187684449Y-148745621D01*
X187578839Y-148490656D01*
X187525000Y-148219988D01*
X187525000Y-147944012D01*
X187578839Y-147673344D01*
X187684449Y-147418379D01*
X187783175Y-147270625D01*
X187837772Y-147188914D01*
X188032914Y-146993772D01*
X188262378Y-146840450D01*
X188262379Y-146840449D01*
X188411733Y-146778585D01*
X188517343Y-146734839D01*
X188610285Y-146716352D01*
X188788012Y-146681000D01*
X189063988Y-146681000D01*
X189241715Y-146716352D01*
X189241715Y-146716352D01*
G37*
G36*
X164279602Y-146168338D02*
G01*
X164345787Y-146174857D01*
X164515626Y-146226377D01*
X164672151Y-146310042D01*
X164707889Y-146339372D01*
X164809346Y-146422634D01*
X164892608Y-146524091D01*
X164921938Y-146559829D01*
X165005603Y-146716354D01*
X165057123Y-146886193D01*
X165074519Y-147062820D01*
X165057123Y-147239447D01*
X165005603Y-147409286D01*
X164921938Y-147565811D01*
X164892608Y-147601549D01*
X164809346Y-147703006D01*
X164707889Y-147786268D01*
X164672151Y-147815598D01*
X164515626Y-147899263D01*
X164345787Y-147950783D01*
X164279602Y-147957302D01*
X164213420Y-147963820D01*
X163974900Y-147963820D01*
X163908718Y-147957302D01*
X163842533Y-147950783D01*
X163672694Y-147899263D01*
X163516169Y-147815598D01*
X163480431Y-147786268D01*
X163378974Y-147703006D01*
X163295712Y-147601549D01*
X163266382Y-147565811D01*
X163182717Y-147409286D01*
X163131197Y-147239447D01*
X163113801Y-147062820D01*
X163131197Y-146886193D01*
X163182717Y-146716354D01*
X163266382Y-146559829D01*
X163295712Y-146524091D01*
X163378974Y-146422634D01*
X163480431Y-146339372D01*
X163516169Y-146310042D01*
X163672694Y-146226377D01*
X163842533Y-146174857D01*
X163908718Y-146168338D01*
X163974900Y-146161820D01*
X164213420Y-146161820D01*
X164279602Y-146168338D01*
X164279602Y-146168338D01*
G37*
G36*
X124350802Y-146168338D02*
G01*
X124416987Y-146174857D01*
X124586826Y-146226377D01*
X124743351Y-146310042D01*
X124779089Y-146339372D01*
X124880546Y-146422634D01*
X124963808Y-146524091D01*
X124993138Y-146559829D01*
X125076803Y-146716354D01*
X125128323Y-146886193D01*
X125145719Y-147062820D01*
X125128323Y-147239447D01*
X125076803Y-147409286D01*
X124993138Y-147565811D01*
X124963808Y-147601549D01*
X124880546Y-147703006D01*
X124779089Y-147786268D01*
X124743351Y-147815598D01*
X124586826Y-147899263D01*
X124416987Y-147950783D01*
X124350802Y-147957302D01*
X124284620Y-147963820D01*
X124046100Y-147963820D01*
X123979918Y-147957302D01*
X123913733Y-147950783D01*
X123743894Y-147899263D01*
X123587369Y-147815598D01*
X123551631Y-147786268D01*
X123450174Y-147703006D01*
X123366912Y-147601549D01*
X123337582Y-147565811D01*
X123253917Y-147409286D01*
X123202397Y-147239447D01*
X123185001Y-147062820D01*
X123202397Y-146886193D01*
X123253917Y-146716354D01*
X123337582Y-146559829D01*
X123366912Y-146524091D01*
X123450174Y-146422634D01*
X123551631Y-146339372D01*
X123587369Y-146310042D01*
X123743894Y-146226377D01*
X123913733Y-146174857D01*
X123979918Y-146168338D01*
X124046100Y-146161820D01*
X124284620Y-146161820D01*
X124350802Y-146168338D01*
X124350802Y-146168338D01*
G37*
G36*
X133543062Y-146168338D02*
G01*
X133609247Y-146174857D01*
X133779086Y-146226377D01*
X133935611Y-146310042D01*
X133971349Y-146339372D01*
X134072806Y-146422634D01*
X134156068Y-146524091D01*
X134185398Y-146559829D01*
X134269063Y-146716354D01*
X134320583Y-146886193D01*
X134337979Y-147062820D01*
X134320583Y-147239447D01*
X134269063Y-147409286D01*
X134185398Y-147565811D01*
X134156068Y-147601549D01*
X134072806Y-147703006D01*
X133971349Y-147786268D01*
X133935611Y-147815598D01*
X133779086Y-147899263D01*
X133609247Y-147950783D01*
X133543062Y-147957302D01*
X133476880Y-147963820D01*
X133238360Y-147963820D01*
X133172178Y-147957302D01*
X133105993Y-147950783D01*
X132936154Y-147899263D01*
X132779629Y-147815598D01*
X132743891Y-147786268D01*
X132642434Y-147703006D01*
X132559172Y-147601549D01*
X132529842Y-147565811D01*
X132446177Y-147409286D01*
X132394657Y-147239447D01*
X132377261Y-147062820D01*
X132394657Y-146886193D01*
X132446177Y-146716354D01*
X132529842Y-146559829D01*
X132559172Y-146524091D01*
X132642434Y-146422634D01*
X132743891Y-146339372D01*
X132779629Y-146310042D01*
X132936154Y-146226377D01*
X133105993Y-146174857D01*
X133172178Y-146168338D01*
X133238360Y-146161820D01*
X133476880Y-146161820D01*
X133543062Y-146168338D01*
X133543062Y-146168338D01*
G37*
G36*
X99649302Y-146168338D02*
G01*
X99715487Y-146174857D01*
X99885326Y-146226377D01*
X100041851Y-146310042D01*
X100077589Y-146339372D01*
X100179046Y-146422634D01*
X100262308Y-146524091D01*
X100291638Y-146559829D01*
X100375303Y-146716354D01*
X100426823Y-146886193D01*
X100444219Y-147062820D01*
X100426823Y-147239447D01*
X100375303Y-147409286D01*
X100291638Y-147565811D01*
X100262308Y-147601549D01*
X100179046Y-147703006D01*
X100077589Y-147786268D01*
X100041851Y-147815598D01*
X99885326Y-147899263D01*
X99715487Y-147950783D01*
X99649302Y-147957302D01*
X99583120Y-147963820D01*
X99344600Y-147963820D01*
X99278418Y-147957302D01*
X99212233Y-147950783D01*
X99042394Y-147899263D01*
X98885869Y-147815598D01*
X98850131Y-147786268D01*
X98748674Y-147703006D01*
X98665412Y-147601549D01*
X98636082Y-147565811D01*
X98552417Y-147409286D01*
X98500897Y-147239447D01*
X98483501Y-147062820D01*
X98500897Y-146886193D01*
X98552417Y-146716354D01*
X98636082Y-146559829D01*
X98665412Y-146524091D01*
X98748674Y-146422634D01*
X98850131Y-146339372D01*
X98885869Y-146310042D01*
X99042394Y-146226377D01*
X99212233Y-146174857D01*
X99278418Y-146168338D01*
X99344600Y-146161820D01*
X99583120Y-146161820D01*
X99649302Y-146168338D01*
X99649302Y-146168338D01*
G37*
G36*
X107883135Y-146168338D02*
G01*
X107949320Y-146174857D01*
X108119159Y-146226377D01*
X108275684Y-146310042D01*
X108311422Y-146339372D01*
X108412879Y-146422634D01*
X108496141Y-146524091D01*
X108525471Y-146559829D01*
X108609136Y-146716354D01*
X108660656Y-146886193D01*
X108678052Y-147062820D01*
X108660656Y-147239447D01*
X108609136Y-147409286D01*
X108525471Y-147565811D01*
X108496141Y-147601549D01*
X108412879Y-147703006D01*
X108311422Y-147786268D01*
X108275684Y-147815598D01*
X108119159Y-147899263D01*
X107949320Y-147950783D01*
X107883135Y-147957302D01*
X107816953Y-147963820D01*
X107578433Y-147963820D01*
X107512251Y-147957302D01*
X107446066Y-147950783D01*
X107276227Y-147899263D01*
X107119702Y-147815598D01*
X107083964Y-147786268D01*
X106982507Y-147703006D01*
X106899245Y-147601549D01*
X106869915Y-147565811D01*
X106786250Y-147409286D01*
X106734730Y-147239447D01*
X106717334Y-147062820D01*
X106734730Y-146886193D01*
X106786250Y-146716354D01*
X106869915Y-146559829D01*
X106899245Y-146524091D01*
X106982507Y-146422634D01*
X107083964Y-146339372D01*
X107119702Y-146310042D01*
X107276227Y-146226377D01*
X107446066Y-146174857D01*
X107512251Y-146168338D01*
X107578433Y-146161820D01*
X107816953Y-146161820D01*
X107883135Y-146168338D01*
X107883135Y-146168338D01*
G37*
G36*
X141277362Y-146168338D02*
G01*
X141343547Y-146174857D01*
X141513386Y-146226377D01*
X141669911Y-146310042D01*
X141705649Y-146339372D01*
X141807106Y-146422634D01*
X141890368Y-146524091D01*
X141919698Y-146559829D01*
X142003363Y-146716354D01*
X142054883Y-146886193D01*
X142072279Y-147062820D01*
X142054883Y-147239447D01*
X142003363Y-147409286D01*
X141919698Y-147565811D01*
X141890368Y-147601549D01*
X141807106Y-147703006D01*
X141705649Y-147786268D01*
X141669911Y-147815598D01*
X141513386Y-147899263D01*
X141343547Y-147950783D01*
X141277362Y-147957302D01*
X141211180Y-147963820D01*
X140972660Y-147963820D01*
X140906478Y-147957302D01*
X140840293Y-147950783D01*
X140670454Y-147899263D01*
X140513929Y-147815598D01*
X140478191Y-147786268D01*
X140376734Y-147703006D01*
X140293472Y-147601549D01*
X140264142Y-147565811D01*
X140180477Y-147409286D01*
X140128957Y-147239447D01*
X140111561Y-147062820D01*
X140128957Y-146886193D01*
X140180477Y-146716354D01*
X140264142Y-146559829D01*
X140293472Y-146524091D01*
X140376734Y-146422634D01*
X140478191Y-146339372D01*
X140513929Y-146310042D01*
X140670454Y-146226377D01*
X140840293Y-146174857D01*
X140906478Y-146168338D01*
X140972660Y-146161820D01*
X141211180Y-146161820D01*
X141277362Y-146168338D01*
X141277362Y-146168338D01*
G37*
G36*
X172620962Y-146168338D02*
G01*
X172687147Y-146174857D01*
X172856986Y-146226377D01*
X173013511Y-146310042D01*
X173049249Y-146339372D01*
X173150706Y-146422634D01*
X173233968Y-146524091D01*
X173263298Y-146559829D01*
X173346963Y-146716354D01*
X173398483Y-146886193D01*
X173415879Y-147062820D01*
X173398483Y-147239447D01*
X173346963Y-147409286D01*
X173263298Y-147565811D01*
X173233968Y-147601549D01*
X173150706Y-147703006D01*
X173049249Y-147786268D01*
X173013511Y-147815598D01*
X172856986Y-147899263D01*
X172687147Y-147950783D01*
X172620962Y-147957302D01*
X172554780Y-147963820D01*
X172316260Y-147963820D01*
X172250078Y-147957302D01*
X172183893Y-147950783D01*
X172014054Y-147899263D01*
X171857529Y-147815598D01*
X171821791Y-147786268D01*
X171720334Y-147703006D01*
X171637072Y-147601549D01*
X171607742Y-147565811D01*
X171524077Y-147409286D01*
X171472557Y-147239447D01*
X171455161Y-147062820D01*
X171472557Y-146886193D01*
X171524077Y-146716354D01*
X171607742Y-146559829D01*
X171637072Y-146524091D01*
X171720334Y-146422634D01*
X171821791Y-146339372D01*
X171857529Y-146310042D01*
X172014054Y-146226377D01*
X172183893Y-146174857D01*
X172250078Y-146168338D01*
X172316260Y-146161820D01*
X172554780Y-146161820D01*
X172620962Y-146168338D01*
X172620962Y-146168338D01*
G37*
G36*
X155938242Y-146168338D02*
G01*
X156004427Y-146174857D01*
X156174266Y-146226377D01*
X156330791Y-146310042D01*
X156366529Y-146339372D01*
X156467986Y-146422634D01*
X156551248Y-146524091D01*
X156580578Y-146559829D01*
X156664243Y-146716354D01*
X156715763Y-146886193D01*
X156733159Y-147062820D01*
X156715763Y-147239447D01*
X156664243Y-147409286D01*
X156580578Y-147565811D01*
X156551248Y-147601549D01*
X156467986Y-147703006D01*
X156366529Y-147786268D01*
X156330791Y-147815598D01*
X156174266Y-147899263D01*
X156004427Y-147950783D01*
X155938242Y-147957302D01*
X155872060Y-147963820D01*
X155633540Y-147963820D01*
X155567358Y-147957302D01*
X155501173Y-147950783D01*
X155331334Y-147899263D01*
X155174809Y-147815598D01*
X155139071Y-147786268D01*
X155037614Y-147703006D01*
X154954352Y-147601549D01*
X154925022Y-147565811D01*
X154841357Y-147409286D01*
X154789837Y-147239447D01*
X154772441Y-147062820D01*
X154789837Y-146886193D01*
X154841357Y-146716354D01*
X154925022Y-146559829D01*
X154954352Y-146524091D01*
X155037614Y-146422634D01*
X155139071Y-146339372D01*
X155174809Y-146310042D01*
X155331334Y-146226377D01*
X155501173Y-146174857D01*
X155567358Y-146168338D01*
X155633540Y-146161820D01*
X155872060Y-146161820D01*
X155938242Y-146168338D01*
X155938242Y-146168338D01*
G37*
G36*
X116278442Y-146168338D02*
G01*
X116344627Y-146174857D01*
X116514466Y-146226377D01*
X116670991Y-146310042D01*
X116706729Y-146339372D01*
X116808186Y-146422634D01*
X116891448Y-146524091D01*
X116920778Y-146559829D01*
X117004443Y-146716354D01*
X117055963Y-146886193D01*
X117073359Y-147062820D01*
X117055963Y-147239447D01*
X117004443Y-147409286D01*
X116920778Y-147565811D01*
X116891448Y-147601549D01*
X116808186Y-147703006D01*
X116706729Y-147786268D01*
X116670991Y-147815598D01*
X116514466Y-147899263D01*
X116344627Y-147950783D01*
X116278442Y-147957302D01*
X116212260Y-147963820D01*
X115973740Y-147963820D01*
X115907558Y-147957302D01*
X115841373Y-147950783D01*
X115671534Y-147899263D01*
X115515009Y-147815598D01*
X115479271Y-147786268D01*
X115377814Y-147703006D01*
X115294552Y-147601549D01*
X115265222Y-147565811D01*
X115181557Y-147409286D01*
X115130037Y-147239447D01*
X115112641Y-147062820D01*
X115130037Y-146886193D01*
X115181557Y-146716354D01*
X115265222Y-146559829D01*
X115294552Y-146524091D01*
X115377814Y-146422634D01*
X115479271Y-146339372D01*
X115515009Y-146310042D01*
X115671534Y-146226377D01*
X115841373Y-146174857D01*
X115907558Y-146168338D01*
X115973740Y-146161820D01*
X116212260Y-146161820D01*
X116278442Y-146168338D01*
X116278442Y-146168338D01*
G37*
G36*
X186296104Y-145941585D02*
G01*
X186464626Y-146011389D01*
X186616291Y-146112728D01*
X186745272Y-146241709D01*
X186846611Y-146393374D01*
X186916415Y-146561896D01*
X186952000Y-146740797D01*
X186952000Y-146923203D01*
X186916415Y-147102104D01*
X186846611Y-147270626D01*
X186745272Y-147422291D01*
X186616291Y-147551272D01*
X186464626Y-147652611D01*
X186296104Y-147722415D01*
X186117203Y-147758000D01*
X185934797Y-147758000D01*
X185755896Y-147722415D01*
X185587374Y-147652611D01*
X185435709Y-147551272D01*
X185306728Y-147422291D01*
X185205389Y-147270626D01*
X185135585Y-147102104D01*
X185100000Y-146923203D01*
X185100000Y-146740797D01*
X185135585Y-146561896D01*
X185205389Y-146393374D01*
X185306728Y-146241709D01*
X185435709Y-146112728D01*
X185587374Y-146011389D01*
X185755896Y-145941585D01*
X185934797Y-145906000D01*
X186117203Y-145906000D01*
X186296104Y-145941585D01*
X186296104Y-145941585D01*
G37*
G36*
X182796104Y-145941585D02*
G01*
X182964626Y-146011389D01*
X183116291Y-146112728D01*
X183245272Y-146241709D01*
X183346611Y-146393374D01*
X183416415Y-146561896D01*
X183452000Y-146740797D01*
X183452000Y-146923203D01*
X183416415Y-147102104D01*
X183346611Y-147270626D01*
X183245272Y-147422291D01*
X183116291Y-147551272D01*
X182964626Y-147652611D01*
X182796104Y-147722415D01*
X182617203Y-147758000D01*
X182434797Y-147758000D01*
X182255896Y-147722415D01*
X182087374Y-147652611D01*
X181935709Y-147551272D01*
X181806728Y-147422291D01*
X181705389Y-147270626D01*
X181635585Y-147102104D01*
X181600000Y-146923203D01*
X181600000Y-146740797D01*
X181635585Y-146561896D01*
X181705389Y-146393374D01*
X181806728Y-146241709D01*
X181935709Y-146112728D01*
X182087374Y-146011389D01*
X182255896Y-145941585D01*
X182434797Y-145906000D01*
X182617203Y-145906000D01*
X182796104Y-145941585D01*
X182796104Y-145941585D01*
G37*
G36*
X192096104Y-145941585D02*
G01*
X192264626Y-146011389D01*
X192416291Y-146112728D01*
X192545272Y-146241709D01*
X192646611Y-146393374D01*
X192716415Y-146561896D01*
X192752000Y-146740797D01*
X192752000Y-146923203D01*
X192716415Y-147102104D01*
X192646611Y-147270626D01*
X192545272Y-147422291D01*
X192416291Y-147551272D01*
X192264626Y-147652611D01*
X192096104Y-147722415D01*
X191917203Y-147758000D01*
X191734797Y-147758000D01*
X191555896Y-147722415D01*
X191387374Y-147652611D01*
X191235709Y-147551272D01*
X191106728Y-147422291D01*
X191005389Y-147270626D01*
X190935585Y-147102104D01*
X190900000Y-146923203D01*
X190900000Y-146740797D01*
X190935585Y-146561896D01*
X191005389Y-146393374D01*
X191106728Y-146241709D01*
X191235709Y-146112728D01*
X191387374Y-146011389D01*
X191555896Y-145941585D01*
X191734797Y-145906000D01*
X191917203Y-145906000D01*
X192096104Y-145941585D01*
X192096104Y-145941585D01*
G37*
G36*
X195596104Y-145941585D02*
G01*
X195764626Y-146011389D01*
X195916291Y-146112728D01*
X196045272Y-146241709D01*
X196146611Y-146393374D01*
X196216415Y-146561896D01*
X196252000Y-146740797D01*
X196252000Y-146923203D01*
X196216415Y-147102104D01*
X196146611Y-147270626D01*
X196045272Y-147422291D01*
X195916291Y-147551272D01*
X195764626Y-147652611D01*
X195596104Y-147722415D01*
X195417203Y-147758000D01*
X195234797Y-147758000D01*
X195055896Y-147722415D01*
X194887374Y-147652611D01*
X194735709Y-147551272D01*
X194606728Y-147422291D01*
X194505389Y-147270626D01*
X194435585Y-147102104D01*
X194400000Y-146923203D01*
X194400000Y-146740797D01*
X194435585Y-146561896D01*
X194505389Y-146393374D01*
X194606728Y-146241709D01*
X194735709Y-146112728D01*
X194887374Y-146011389D01*
X195055896Y-145941585D01*
X195234797Y-145906000D01*
X195417203Y-145906000D01*
X195596104Y-145941585D01*
X195596104Y-145941585D01*
G37*
G36*
X124350802Y-143668338D02*
G01*
X124416987Y-143674857D01*
X124586826Y-143726377D01*
X124743351Y-143810042D01*
X124779089Y-143839372D01*
X124880546Y-143922634D01*
X124963808Y-144024091D01*
X124993138Y-144059829D01*
X125076803Y-144216354D01*
X125128323Y-144386193D01*
X125145719Y-144562820D01*
X125128323Y-144739447D01*
X125076803Y-144909286D01*
X124993138Y-145065811D01*
X124963808Y-145101549D01*
X124880546Y-145203006D01*
X124779089Y-145286268D01*
X124743351Y-145315598D01*
X124586826Y-145399263D01*
X124416987Y-145450783D01*
X124350802Y-145457302D01*
X124284620Y-145463820D01*
X124046100Y-145463820D01*
X123979918Y-145457302D01*
X123913733Y-145450783D01*
X123743894Y-145399263D01*
X123587369Y-145315598D01*
X123551631Y-145286268D01*
X123450174Y-145203006D01*
X123366912Y-145101549D01*
X123337582Y-145065811D01*
X123253917Y-144909286D01*
X123202397Y-144739447D01*
X123185001Y-144562820D01*
X123202397Y-144386193D01*
X123253917Y-144216354D01*
X123337582Y-144059829D01*
X123366912Y-144024091D01*
X123450174Y-143922634D01*
X123551631Y-143839372D01*
X123587369Y-143810042D01*
X123743894Y-143726377D01*
X123913733Y-143674857D01*
X123979918Y-143668338D01*
X124046100Y-143661820D01*
X124284620Y-143661820D01*
X124350802Y-143668338D01*
X124350802Y-143668338D01*
G37*
G36*
X99649302Y-143668338D02*
G01*
X99715487Y-143674857D01*
X99885326Y-143726377D01*
X100041851Y-143810042D01*
X100077589Y-143839372D01*
X100179046Y-143922634D01*
X100262308Y-144024091D01*
X100291638Y-144059829D01*
X100375303Y-144216354D01*
X100426823Y-144386193D01*
X100444219Y-144562820D01*
X100426823Y-144739447D01*
X100375303Y-144909286D01*
X100291638Y-145065811D01*
X100262308Y-145101549D01*
X100179046Y-145203006D01*
X100077589Y-145286268D01*
X100041851Y-145315598D01*
X99885326Y-145399263D01*
X99715487Y-145450783D01*
X99649302Y-145457302D01*
X99583120Y-145463820D01*
X99344600Y-145463820D01*
X99278418Y-145457302D01*
X99212233Y-145450783D01*
X99042394Y-145399263D01*
X98885869Y-145315598D01*
X98850131Y-145286268D01*
X98748674Y-145203006D01*
X98665412Y-145101549D01*
X98636082Y-145065811D01*
X98552417Y-144909286D01*
X98500897Y-144739447D01*
X98483501Y-144562820D01*
X98500897Y-144386193D01*
X98552417Y-144216354D01*
X98636082Y-144059829D01*
X98665412Y-144024091D01*
X98748674Y-143922634D01*
X98850131Y-143839372D01*
X98885869Y-143810042D01*
X99042394Y-143726377D01*
X99212233Y-143674857D01*
X99278418Y-143668338D01*
X99344600Y-143661820D01*
X99583120Y-143661820D01*
X99649302Y-143668338D01*
X99649302Y-143668338D01*
G37*
G36*
X116278442Y-143668338D02*
G01*
X116344627Y-143674857D01*
X116514466Y-143726377D01*
X116670991Y-143810042D01*
X116706729Y-143839372D01*
X116808186Y-143922634D01*
X116891448Y-144024091D01*
X116920778Y-144059829D01*
X117004443Y-144216354D01*
X117055963Y-144386193D01*
X117073359Y-144562820D01*
X117055963Y-144739447D01*
X117004443Y-144909286D01*
X116920778Y-145065811D01*
X116891448Y-145101549D01*
X116808186Y-145203006D01*
X116706729Y-145286268D01*
X116670991Y-145315598D01*
X116514466Y-145399263D01*
X116344627Y-145450783D01*
X116278442Y-145457302D01*
X116212260Y-145463820D01*
X115973740Y-145463820D01*
X115907558Y-145457302D01*
X115841373Y-145450783D01*
X115671534Y-145399263D01*
X115515009Y-145315598D01*
X115479271Y-145286268D01*
X115377814Y-145203006D01*
X115294552Y-145101549D01*
X115265222Y-145065811D01*
X115181557Y-144909286D01*
X115130037Y-144739447D01*
X115112641Y-144562820D01*
X115130037Y-144386193D01*
X115181557Y-144216354D01*
X115265222Y-144059829D01*
X115294552Y-144024091D01*
X115377814Y-143922634D01*
X115479271Y-143839372D01*
X115515009Y-143810042D01*
X115671534Y-143726377D01*
X115841373Y-143674857D01*
X115907558Y-143668338D01*
X115973740Y-143661820D01*
X116212260Y-143661820D01*
X116278442Y-143668338D01*
X116278442Y-143668338D01*
G37*
G36*
X107883135Y-143668338D02*
G01*
X107949320Y-143674857D01*
X108119159Y-143726377D01*
X108275684Y-143810042D01*
X108311422Y-143839372D01*
X108412879Y-143922634D01*
X108496141Y-144024091D01*
X108525471Y-144059829D01*
X108609136Y-144216354D01*
X108660656Y-144386193D01*
X108678052Y-144562820D01*
X108660656Y-144739447D01*
X108609136Y-144909286D01*
X108525471Y-145065811D01*
X108496141Y-145101549D01*
X108412879Y-145203006D01*
X108311422Y-145286268D01*
X108275684Y-145315598D01*
X108119159Y-145399263D01*
X107949320Y-145450783D01*
X107883135Y-145457302D01*
X107816953Y-145463820D01*
X107578433Y-145463820D01*
X107512251Y-145457302D01*
X107446066Y-145450783D01*
X107276227Y-145399263D01*
X107119702Y-145315598D01*
X107083964Y-145286268D01*
X106982507Y-145203006D01*
X106899245Y-145101549D01*
X106869915Y-145065811D01*
X106786250Y-144909286D01*
X106734730Y-144739447D01*
X106717334Y-144562820D01*
X106734730Y-144386193D01*
X106786250Y-144216354D01*
X106869915Y-144059829D01*
X106899245Y-144024091D01*
X106982507Y-143922634D01*
X107083964Y-143839372D01*
X107119702Y-143810042D01*
X107276227Y-143726377D01*
X107446066Y-143674857D01*
X107512251Y-143668338D01*
X107578433Y-143661820D01*
X107816953Y-143661820D01*
X107883135Y-143668338D01*
X107883135Y-143668338D01*
G37*
G36*
X133543062Y-143668338D02*
G01*
X133609247Y-143674857D01*
X133779086Y-143726377D01*
X133935611Y-143810042D01*
X133971349Y-143839372D01*
X134072806Y-143922634D01*
X134156068Y-144024091D01*
X134185398Y-144059829D01*
X134269063Y-144216354D01*
X134320583Y-144386193D01*
X134337979Y-144562820D01*
X134320583Y-144739447D01*
X134269063Y-144909286D01*
X134185398Y-145065811D01*
X134156068Y-145101549D01*
X134072806Y-145203006D01*
X133971349Y-145286268D01*
X133935611Y-145315598D01*
X133779086Y-145399263D01*
X133609247Y-145450783D01*
X133543062Y-145457302D01*
X133476880Y-145463820D01*
X133238360Y-145463820D01*
X133172178Y-145457302D01*
X133105993Y-145450783D01*
X132936154Y-145399263D01*
X132779629Y-145315598D01*
X132743891Y-145286268D01*
X132642434Y-145203006D01*
X132559172Y-145101549D01*
X132529842Y-145065811D01*
X132446177Y-144909286D01*
X132394657Y-144739447D01*
X132377261Y-144562820D01*
X132394657Y-144386193D01*
X132446177Y-144216354D01*
X132529842Y-144059829D01*
X132559172Y-144024091D01*
X132642434Y-143922634D01*
X132743891Y-143839372D01*
X132779629Y-143810042D01*
X132936154Y-143726377D01*
X133105993Y-143674857D01*
X133172178Y-143668338D01*
X133238360Y-143661820D01*
X133476880Y-143661820D01*
X133543062Y-143668338D01*
X133543062Y-143668338D01*
G37*
G36*
X172620962Y-143668338D02*
G01*
X172687147Y-143674857D01*
X172856986Y-143726377D01*
X173013511Y-143810042D01*
X173049249Y-143839372D01*
X173150706Y-143922634D01*
X173233968Y-144024091D01*
X173263298Y-144059829D01*
X173346963Y-144216354D01*
X173398483Y-144386193D01*
X173415879Y-144562820D01*
X173398483Y-144739447D01*
X173346963Y-144909286D01*
X173263298Y-145065811D01*
X173233968Y-145101549D01*
X173150706Y-145203006D01*
X173049249Y-145286268D01*
X173013511Y-145315598D01*
X172856986Y-145399263D01*
X172687147Y-145450783D01*
X172620962Y-145457302D01*
X172554780Y-145463820D01*
X172316260Y-145463820D01*
X172250078Y-145457302D01*
X172183893Y-145450783D01*
X172014054Y-145399263D01*
X171857529Y-145315598D01*
X171821791Y-145286268D01*
X171720334Y-145203006D01*
X171637072Y-145101549D01*
X171607742Y-145065811D01*
X171524077Y-144909286D01*
X171472557Y-144739447D01*
X171455161Y-144562820D01*
X171472557Y-144386193D01*
X171524077Y-144216354D01*
X171607742Y-144059829D01*
X171637072Y-144024091D01*
X171720334Y-143922634D01*
X171821791Y-143839372D01*
X171857529Y-143810042D01*
X172014054Y-143726377D01*
X172183893Y-143674857D01*
X172250078Y-143668338D01*
X172316260Y-143661820D01*
X172554780Y-143661820D01*
X172620962Y-143668338D01*
X172620962Y-143668338D01*
G37*
G36*
X141277362Y-143668338D02*
G01*
X141343547Y-143674857D01*
X141513386Y-143726377D01*
X141669911Y-143810042D01*
X141705649Y-143839372D01*
X141807106Y-143922634D01*
X141890368Y-144024091D01*
X141919698Y-144059829D01*
X142003363Y-144216354D01*
X142054883Y-144386193D01*
X142072279Y-144562820D01*
X142054883Y-144739447D01*
X142003363Y-144909286D01*
X141919698Y-145065811D01*
X141890368Y-145101549D01*
X141807106Y-145203006D01*
X141705649Y-145286268D01*
X141669911Y-145315598D01*
X141513386Y-145399263D01*
X141343547Y-145450783D01*
X141277362Y-145457302D01*
X141211180Y-145463820D01*
X140972660Y-145463820D01*
X140906478Y-145457302D01*
X140840293Y-145450783D01*
X140670454Y-145399263D01*
X140513929Y-145315598D01*
X140478191Y-145286268D01*
X140376734Y-145203006D01*
X140293472Y-145101549D01*
X140264142Y-145065811D01*
X140180477Y-144909286D01*
X140128957Y-144739447D01*
X140111561Y-144562820D01*
X140128957Y-144386193D01*
X140180477Y-144216354D01*
X140264142Y-144059829D01*
X140293472Y-144024091D01*
X140376734Y-143922634D01*
X140478191Y-143839372D01*
X140513929Y-143810042D01*
X140670454Y-143726377D01*
X140840293Y-143674857D01*
X140906478Y-143668338D01*
X140972660Y-143661820D01*
X141211180Y-143661820D01*
X141277362Y-143668338D01*
X141277362Y-143668338D01*
G37*
G36*
X164279602Y-143668338D02*
G01*
X164345787Y-143674857D01*
X164515626Y-143726377D01*
X164672151Y-143810042D01*
X164707889Y-143839372D01*
X164809346Y-143922634D01*
X164892608Y-144024091D01*
X164921938Y-144059829D01*
X165005603Y-144216354D01*
X165057123Y-144386193D01*
X165074519Y-144562820D01*
X165057123Y-144739447D01*
X165005603Y-144909286D01*
X164921938Y-145065811D01*
X164892608Y-145101549D01*
X164809346Y-145203006D01*
X164707889Y-145286268D01*
X164672151Y-145315598D01*
X164515626Y-145399263D01*
X164345787Y-145450783D01*
X164279602Y-145457302D01*
X164213420Y-145463820D01*
X163974900Y-145463820D01*
X163908718Y-145457302D01*
X163842533Y-145450783D01*
X163672694Y-145399263D01*
X163516169Y-145315598D01*
X163480431Y-145286268D01*
X163378974Y-145203006D01*
X163295712Y-145101549D01*
X163266382Y-145065811D01*
X163182717Y-144909286D01*
X163131197Y-144739447D01*
X163113801Y-144562820D01*
X163131197Y-144386193D01*
X163182717Y-144216354D01*
X163266382Y-144059829D01*
X163295712Y-144024091D01*
X163378974Y-143922634D01*
X163480431Y-143839372D01*
X163516169Y-143810042D01*
X163672694Y-143726377D01*
X163842533Y-143674857D01*
X163908718Y-143668338D01*
X163974900Y-143661820D01*
X164213420Y-143661820D01*
X164279602Y-143668338D01*
X164279602Y-143668338D01*
G37*
G36*
X155938242Y-143668338D02*
G01*
X156004427Y-143674857D01*
X156174266Y-143726377D01*
X156330791Y-143810042D01*
X156366529Y-143839372D01*
X156467986Y-143922634D01*
X156551248Y-144024091D01*
X156580578Y-144059829D01*
X156664243Y-144216354D01*
X156715763Y-144386193D01*
X156733159Y-144562820D01*
X156715763Y-144739447D01*
X156664243Y-144909286D01*
X156580578Y-145065811D01*
X156551248Y-145101549D01*
X156467986Y-145203006D01*
X156366529Y-145286268D01*
X156330791Y-145315598D01*
X156174266Y-145399263D01*
X156004427Y-145450783D01*
X155938242Y-145457302D01*
X155872060Y-145463820D01*
X155633540Y-145463820D01*
X155567358Y-145457302D01*
X155501173Y-145450783D01*
X155331334Y-145399263D01*
X155174809Y-145315598D01*
X155139071Y-145286268D01*
X155037614Y-145203006D01*
X154954352Y-145101549D01*
X154925022Y-145065811D01*
X154841357Y-144909286D01*
X154789837Y-144739447D01*
X154772441Y-144562820D01*
X154789837Y-144386193D01*
X154841357Y-144216354D01*
X154925022Y-144059829D01*
X154954352Y-144024091D01*
X155037614Y-143922634D01*
X155139071Y-143839372D01*
X155174809Y-143810042D01*
X155331334Y-143726377D01*
X155501173Y-143674857D01*
X155567358Y-143668338D01*
X155633540Y-143661820D01*
X155872060Y-143661820D01*
X155938242Y-143668338D01*
X155938242Y-143668338D01*
G37*
G36*
X195563142Y-139832242D02*
G01*
X195711101Y-139893529D01*
X195844255Y-139982499D01*
X195957501Y-140095745D01*
X196046471Y-140228899D01*
X196107758Y-140376858D01*
X196139000Y-140533925D01*
X196139000Y-140694075D01*
X196107758Y-140851142D01*
X196046471Y-140999101D01*
X195957501Y-141132255D01*
X195844255Y-141245501D01*
X195711101Y-141334471D01*
X195563142Y-141395758D01*
X195406075Y-141427000D01*
X195245925Y-141427000D01*
X195088858Y-141395758D01*
X194940899Y-141334471D01*
X194807745Y-141245501D01*
X194694499Y-141132255D01*
X194605529Y-140999101D01*
X194544242Y-140851142D01*
X194513000Y-140694075D01*
X194513000Y-140533925D01*
X194544242Y-140376858D01*
X194605529Y-140228899D01*
X194694499Y-140095745D01*
X194807745Y-139982499D01*
X194940899Y-139893529D01*
X195088858Y-139832242D01*
X195245925Y-139801000D01*
X195406075Y-139801000D01*
X195563142Y-139832242D01*
X195563142Y-139832242D01*
G37*
G36*
X99580036Y-135480178D02*
G01*
X99686359Y-135501327D01*
X99986822Y-135625783D01*
X100257231Y-135806465D01*
X100487195Y-136036429D01*
X100667877Y-136306838D01*
X100667878Y-136306840D01*
X100792333Y-136607302D01*
X100855780Y-136926269D01*
X100855780Y-137251491D01*
X100792333Y-137570458D01*
X100675292Y-137853022D01*
X100667877Y-137870922D01*
X100487195Y-138141331D01*
X100257231Y-138371295D01*
X99986822Y-138551977D01*
X99686359Y-138676433D01*
X99580036Y-138697582D01*
X99367391Y-138739880D01*
X99042169Y-138739880D01*
X98829524Y-138697582D01*
X98723201Y-138676433D01*
X98422738Y-138551977D01*
X98152329Y-138371295D01*
X97922365Y-138141331D01*
X97741683Y-137870922D01*
X97734269Y-137853022D01*
X97617227Y-137570458D01*
X97553780Y-137251491D01*
X97553780Y-136926269D01*
X97617227Y-136607302D01*
X97741682Y-136306840D01*
X97741683Y-136306838D01*
X97922365Y-136036429D01*
X98152329Y-135806465D01*
X98422738Y-135625783D01*
X98723201Y-135501327D01*
X98829524Y-135480178D01*
X99042169Y-135437880D01*
X99367391Y-135437880D01*
X99580036Y-135480178D01*
X99580036Y-135480178D01*
G37*
G36*
X182130036Y-135480178D02*
G01*
X182236359Y-135501327D01*
X182536822Y-135625783D01*
X182807231Y-135806465D01*
X183037195Y-136036429D01*
X183217877Y-136306838D01*
X183217878Y-136306840D01*
X183342333Y-136607302D01*
X183405780Y-136926269D01*
X183405780Y-137251491D01*
X183342333Y-137570458D01*
X183225292Y-137853022D01*
X183217877Y-137870922D01*
X183037195Y-138141331D01*
X182807231Y-138371295D01*
X182536822Y-138551977D01*
X182236359Y-138676433D01*
X182130036Y-138697582D01*
X181917391Y-138739880D01*
X181592169Y-138739880D01*
X181379524Y-138697582D01*
X181273201Y-138676433D01*
X180972738Y-138551977D01*
X180702329Y-138371295D01*
X180472365Y-138141331D01*
X180291683Y-137870922D01*
X180284269Y-137853022D01*
X180167227Y-137570458D01*
X180103780Y-137251491D01*
X180103780Y-136926269D01*
X180167227Y-136607302D01*
X180291682Y-136306840D01*
X180291683Y-136306838D01*
X180472365Y-136036429D01*
X180702329Y-135806465D01*
X180972738Y-135625783D01*
X181273201Y-135501327D01*
X181379524Y-135480178D01*
X181592169Y-135437880D01*
X181917391Y-135437880D01*
X182130036Y-135480178D01*
X182130036Y-135480178D01*
G37*
G36*
X128594074Y-136187513D02*
G01*
X128766475Y-136239811D01*
X128925363Y-136324738D01*
X129064629Y-136439031D01*
X129178922Y-136578297D01*
X129263849Y-136737185D01*
X129316147Y-136909586D01*
X129333805Y-137088880D01*
X129316147Y-137268174D01*
X129263849Y-137440575D01*
X129178922Y-137599463D01*
X129064629Y-137738729D01*
X128925363Y-137853022D01*
X128766475Y-137937949D01*
X128594074Y-137990247D01*
X128459711Y-138003480D01*
X128369849Y-138003480D01*
X128235486Y-137990247D01*
X128063085Y-137937949D01*
X127904197Y-137853022D01*
X127764931Y-137738729D01*
X127650638Y-137599463D01*
X127565711Y-137440575D01*
X127513413Y-137268174D01*
X127495755Y-137088880D01*
X127513413Y-136909586D01*
X127565711Y-136737185D01*
X127650638Y-136578297D01*
X127764931Y-136439031D01*
X127904197Y-136324738D01*
X128063085Y-136239811D01*
X128235486Y-136187513D01*
X128369849Y-136174280D01*
X128459711Y-136174280D01*
X128594074Y-136187513D01*
X128594074Y-136187513D01*
G37*
G36*
X136214074Y-136187513D02*
G01*
X136386475Y-136239811D01*
X136545363Y-136324738D01*
X136684629Y-136439031D01*
X136798922Y-136578297D01*
X136883849Y-136737185D01*
X136936147Y-136909586D01*
X136953805Y-137088880D01*
X136936147Y-137268174D01*
X136883849Y-137440575D01*
X136798922Y-137599463D01*
X136684629Y-137738729D01*
X136545363Y-137853022D01*
X136386475Y-137937949D01*
X136214074Y-137990247D01*
X136079711Y-138003480D01*
X135989849Y-138003480D01*
X135855486Y-137990247D01*
X135683085Y-137937949D01*
X135524197Y-137853022D01*
X135384931Y-137738729D01*
X135270638Y-137599463D01*
X135185711Y-137440575D01*
X135133413Y-137268174D01*
X135115755Y-137088880D01*
X135133413Y-136909586D01*
X135185711Y-136737185D01*
X135270638Y-136578297D01*
X135384931Y-136439031D01*
X135524197Y-136324738D01*
X135683085Y-136239811D01*
X135855486Y-136187513D01*
X135989849Y-136174280D01*
X136079711Y-136174280D01*
X136214074Y-136187513D01*
X136214074Y-136187513D01*
G37*
G36*
X131134074Y-136187513D02*
G01*
X131306475Y-136239811D01*
X131465363Y-136324738D01*
X131604629Y-136439031D01*
X131718922Y-136578297D01*
X131803849Y-136737185D01*
X131856147Y-136909586D01*
X131873805Y-137088880D01*
X131856147Y-137268174D01*
X131803849Y-137440575D01*
X131718922Y-137599463D01*
X131604629Y-137738729D01*
X131465363Y-137853022D01*
X131306475Y-137937949D01*
X131134074Y-137990247D01*
X130999711Y-138003480D01*
X130909849Y-138003480D01*
X130775486Y-137990247D01*
X130603085Y-137937949D01*
X130444197Y-137853022D01*
X130304931Y-137738729D01*
X130190638Y-137599463D01*
X130105711Y-137440575D01*
X130053413Y-137268174D01*
X130035755Y-137088880D01*
X130053413Y-136909586D01*
X130105711Y-136737185D01*
X130190638Y-136578297D01*
X130304931Y-136439031D01*
X130444197Y-136324738D01*
X130603085Y-136239811D01*
X130775486Y-136187513D01*
X130909849Y-136174280D01*
X130999711Y-136174280D01*
X131134074Y-136187513D01*
X131134074Y-136187513D01*
G37*
G36*
X126054074Y-136187513D02*
G01*
X126226475Y-136239811D01*
X126385363Y-136324738D01*
X126524629Y-136439031D01*
X126638922Y-136578297D01*
X126723849Y-136737185D01*
X126776147Y-136909586D01*
X126793805Y-137088880D01*
X126776147Y-137268174D01*
X126723849Y-137440575D01*
X126638922Y-137599463D01*
X126524629Y-137738729D01*
X126385363Y-137853022D01*
X126226475Y-137937949D01*
X126054074Y-137990247D01*
X125919711Y-138003480D01*
X125829849Y-138003480D01*
X125695486Y-137990247D01*
X125523085Y-137937949D01*
X125364197Y-137853022D01*
X125224931Y-137738729D01*
X125110638Y-137599463D01*
X125025711Y-137440575D01*
X124973413Y-137268174D01*
X124955755Y-137088880D01*
X124973413Y-136909586D01*
X125025711Y-136737185D01*
X125110638Y-136578297D01*
X125224931Y-136439031D01*
X125364197Y-136324738D01*
X125523085Y-136239811D01*
X125695486Y-136187513D01*
X125829849Y-136174280D01*
X125919711Y-136174280D01*
X126054074Y-136187513D01*
X126054074Y-136187513D01*
G37*
G36*
X123514074Y-136187513D02*
G01*
X123686475Y-136239811D01*
X123845363Y-136324738D01*
X123984629Y-136439031D01*
X124098922Y-136578297D01*
X124183849Y-136737185D01*
X124236147Y-136909586D01*
X124253805Y-137088880D01*
X124236147Y-137268174D01*
X124183849Y-137440575D01*
X124098922Y-137599463D01*
X123984629Y-137738729D01*
X123845363Y-137853022D01*
X123686475Y-137937949D01*
X123514074Y-137990247D01*
X123379711Y-138003480D01*
X123289849Y-138003480D01*
X123155486Y-137990247D01*
X122983085Y-137937949D01*
X122824197Y-137853022D01*
X122684931Y-137738729D01*
X122570638Y-137599463D01*
X122485711Y-137440575D01*
X122433413Y-137268174D01*
X122415755Y-137088880D01*
X122433413Y-136909586D01*
X122485711Y-136737185D01*
X122570638Y-136578297D01*
X122684931Y-136439031D01*
X122824197Y-136324738D01*
X122983085Y-136239811D01*
X123155486Y-136187513D01*
X123289849Y-136174280D01*
X123379711Y-136174280D01*
X123514074Y-136187513D01*
X123514074Y-136187513D01*
G37*
G36*
X118434074Y-136187513D02*
G01*
X118606475Y-136239811D01*
X118765363Y-136324738D01*
X118904629Y-136439031D01*
X119018922Y-136578297D01*
X119103849Y-136737185D01*
X119156147Y-136909586D01*
X119173805Y-137088880D01*
X119156147Y-137268174D01*
X119103849Y-137440575D01*
X119018922Y-137599463D01*
X118904629Y-137738729D01*
X118765363Y-137853022D01*
X118606475Y-137937949D01*
X118434074Y-137990247D01*
X118299711Y-138003480D01*
X118209849Y-138003480D01*
X118075486Y-137990247D01*
X117903085Y-137937949D01*
X117744197Y-137853022D01*
X117604931Y-137738729D01*
X117490638Y-137599463D01*
X117405711Y-137440575D01*
X117353413Y-137268174D01*
X117335755Y-137088880D01*
X117353413Y-136909586D01*
X117405711Y-136737185D01*
X117490638Y-136578297D01*
X117604931Y-136439031D01*
X117744197Y-136324738D01*
X117903085Y-136239811D01*
X118075486Y-136187513D01*
X118209849Y-136174280D01*
X118299711Y-136174280D01*
X118434074Y-136187513D01*
X118434074Y-136187513D01*
G37*
G36*
X176854074Y-136187513D02*
G01*
X177026475Y-136239811D01*
X177185363Y-136324738D01*
X177324629Y-136439031D01*
X177438922Y-136578297D01*
X177523849Y-136737185D01*
X177576147Y-136909586D01*
X177593805Y-137088880D01*
X177576147Y-137268174D01*
X177523849Y-137440575D01*
X177438922Y-137599463D01*
X177324629Y-137738729D01*
X177185363Y-137853022D01*
X177026475Y-137937949D01*
X176854074Y-137990247D01*
X176719711Y-138003480D01*
X176629849Y-138003480D01*
X176495486Y-137990247D01*
X176323085Y-137937949D01*
X176164197Y-137853022D01*
X176024931Y-137738729D01*
X175910638Y-137599463D01*
X175825711Y-137440575D01*
X175773413Y-137268174D01*
X175755755Y-137088880D01*
X175773413Y-136909586D01*
X175825711Y-136737185D01*
X175910638Y-136578297D01*
X176024931Y-136439031D01*
X176164197Y-136324738D01*
X176323085Y-136239811D01*
X176495486Y-136187513D01*
X176629849Y-136174280D01*
X176719711Y-136174280D01*
X176854074Y-136187513D01*
X176854074Y-136187513D01*
G37*
G36*
X174314074Y-136187513D02*
G01*
X174486475Y-136239811D01*
X174645363Y-136324738D01*
X174784629Y-136439031D01*
X174898922Y-136578297D01*
X174983849Y-136737185D01*
X175036147Y-136909586D01*
X175053805Y-137088880D01*
X175036147Y-137268174D01*
X174983849Y-137440575D01*
X174898922Y-137599463D01*
X174784629Y-137738729D01*
X174645363Y-137853022D01*
X174486475Y-137937949D01*
X174314074Y-137990247D01*
X174179711Y-138003480D01*
X174089849Y-138003480D01*
X173955486Y-137990247D01*
X173783085Y-137937949D01*
X173624197Y-137853022D01*
X173484931Y-137738729D01*
X173370638Y-137599463D01*
X173285711Y-137440575D01*
X173233413Y-137268174D01*
X173215755Y-137088880D01*
X173233413Y-136909586D01*
X173285711Y-136737185D01*
X173370638Y-136578297D01*
X173484931Y-136439031D01*
X173624197Y-136324738D01*
X173783085Y-136239811D01*
X173955486Y-136187513D01*
X174089849Y-136174280D01*
X174179711Y-136174280D01*
X174314074Y-136187513D01*
X174314074Y-136187513D01*
G37*
G36*
X171774074Y-136187513D02*
G01*
X171946475Y-136239811D01*
X172105363Y-136324738D01*
X172244629Y-136439031D01*
X172358922Y-136578297D01*
X172443849Y-136737185D01*
X172496147Y-136909586D01*
X172513805Y-137088880D01*
X172496147Y-137268174D01*
X172443849Y-137440575D01*
X172358922Y-137599463D01*
X172244629Y-137738729D01*
X172105363Y-137853022D01*
X171946475Y-137937949D01*
X171774074Y-137990247D01*
X171639711Y-138003480D01*
X171549849Y-138003480D01*
X171415486Y-137990247D01*
X171243085Y-137937949D01*
X171084197Y-137853022D01*
X170944931Y-137738729D01*
X170830638Y-137599463D01*
X170745711Y-137440575D01*
X170693413Y-137268174D01*
X170675755Y-137088880D01*
X170693413Y-136909586D01*
X170745711Y-136737185D01*
X170830638Y-136578297D01*
X170944931Y-136439031D01*
X171084197Y-136324738D01*
X171243085Y-136239811D01*
X171415486Y-136187513D01*
X171549849Y-136174280D01*
X171639711Y-136174280D01*
X171774074Y-136187513D01*
X171774074Y-136187513D01*
G37*
G36*
X169234074Y-136187513D02*
G01*
X169406475Y-136239811D01*
X169565363Y-136324738D01*
X169704629Y-136439031D01*
X169818922Y-136578297D01*
X169903849Y-136737185D01*
X169956147Y-136909586D01*
X169973805Y-137088880D01*
X169956147Y-137268174D01*
X169903849Y-137440575D01*
X169818922Y-137599463D01*
X169704629Y-137738729D01*
X169565363Y-137853022D01*
X169406475Y-137937949D01*
X169234074Y-137990247D01*
X169099711Y-138003480D01*
X169009849Y-138003480D01*
X168875486Y-137990247D01*
X168703085Y-137937949D01*
X168544197Y-137853022D01*
X168404931Y-137738729D01*
X168290638Y-137599463D01*
X168205711Y-137440575D01*
X168153413Y-137268174D01*
X168135755Y-137088880D01*
X168153413Y-136909586D01*
X168205711Y-136737185D01*
X168290638Y-136578297D01*
X168404931Y-136439031D01*
X168544197Y-136324738D01*
X168703085Y-136239811D01*
X168875486Y-136187513D01*
X169009849Y-136174280D01*
X169099711Y-136174280D01*
X169234074Y-136187513D01*
X169234074Y-136187513D01*
G37*
G36*
X166694074Y-136187513D02*
G01*
X166866475Y-136239811D01*
X167025363Y-136324738D01*
X167164629Y-136439031D01*
X167278922Y-136578297D01*
X167363849Y-136737185D01*
X167416147Y-136909586D01*
X167433805Y-137088880D01*
X167416147Y-137268174D01*
X167363849Y-137440575D01*
X167278922Y-137599463D01*
X167164629Y-137738729D01*
X167025363Y-137853022D01*
X166866475Y-137937949D01*
X166694074Y-137990247D01*
X166559711Y-138003480D01*
X166469849Y-138003480D01*
X166335486Y-137990247D01*
X166163085Y-137937949D01*
X166004197Y-137853022D01*
X165864931Y-137738729D01*
X165750638Y-137599463D01*
X165665711Y-137440575D01*
X165613413Y-137268174D01*
X165595755Y-137088880D01*
X165613413Y-136909586D01*
X165665711Y-136737185D01*
X165750638Y-136578297D01*
X165864931Y-136439031D01*
X166004197Y-136324738D01*
X166163085Y-136239811D01*
X166335486Y-136187513D01*
X166469849Y-136174280D01*
X166559711Y-136174280D01*
X166694074Y-136187513D01*
X166694074Y-136187513D01*
G37*
G36*
X164154074Y-136187513D02*
G01*
X164326475Y-136239811D01*
X164485363Y-136324738D01*
X164624629Y-136439031D01*
X164738922Y-136578297D01*
X164823849Y-136737185D01*
X164876147Y-136909586D01*
X164893805Y-137088880D01*
X164876147Y-137268174D01*
X164823849Y-137440575D01*
X164738922Y-137599463D01*
X164624629Y-137738729D01*
X164485363Y-137853022D01*
X164326475Y-137937949D01*
X164154074Y-137990247D01*
X164019711Y-138003480D01*
X163929849Y-138003480D01*
X163795486Y-137990247D01*
X163623085Y-137937949D01*
X163464197Y-137853022D01*
X163324931Y-137738729D01*
X163210638Y-137599463D01*
X163125711Y-137440575D01*
X163073413Y-137268174D01*
X163055755Y-137088880D01*
X163073413Y-136909586D01*
X163125711Y-136737185D01*
X163210638Y-136578297D01*
X163324931Y-136439031D01*
X163464197Y-136324738D01*
X163623085Y-136239811D01*
X163795486Y-136187513D01*
X163929849Y-136174280D01*
X164019711Y-136174280D01*
X164154074Y-136187513D01*
X164154074Y-136187513D01*
G37*
G36*
X159074074Y-136187513D02*
G01*
X159246475Y-136239811D01*
X159405363Y-136324738D01*
X159544629Y-136439031D01*
X159658922Y-136578297D01*
X159743849Y-136737185D01*
X159796147Y-136909586D01*
X159813805Y-137088880D01*
X159796147Y-137268174D01*
X159743849Y-137440575D01*
X159658922Y-137599463D01*
X159544629Y-137738729D01*
X159405363Y-137853022D01*
X159246475Y-137937949D01*
X159074074Y-137990247D01*
X158939711Y-138003480D01*
X158849849Y-138003480D01*
X158715486Y-137990247D01*
X158543085Y-137937949D01*
X158384197Y-137853022D01*
X158244931Y-137738729D01*
X158130638Y-137599463D01*
X158045711Y-137440575D01*
X157993413Y-137268174D01*
X157975755Y-137088880D01*
X157993413Y-136909586D01*
X158045711Y-136737185D01*
X158130638Y-136578297D01*
X158244931Y-136439031D01*
X158384197Y-136324738D01*
X158543085Y-136239811D01*
X158715486Y-136187513D01*
X158849849Y-136174280D01*
X158939711Y-136174280D01*
X159074074Y-136187513D01*
X159074074Y-136187513D01*
G37*
G36*
X161614074Y-136187513D02*
G01*
X161786475Y-136239811D01*
X161945363Y-136324738D01*
X162084629Y-136439031D01*
X162198922Y-136578297D01*
X162283849Y-136737185D01*
X162336147Y-136909586D01*
X162353805Y-137088880D01*
X162336147Y-137268174D01*
X162283849Y-137440575D01*
X162198922Y-137599463D01*
X162084629Y-137738729D01*
X161945363Y-137853022D01*
X161786475Y-137937949D01*
X161614074Y-137990247D01*
X161479711Y-138003480D01*
X161389849Y-138003480D01*
X161255486Y-137990247D01*
X161083085Y-137937949D01*
X160924197Y-137853022D01*
X160784931Y-137738729D01*
X160670638Y-137599463D01*
X160585711Y-137440575D01*
X160533413Y-137268174D01*
X160515755Y-137088880D01*
X160533413Y-136909586D01*
X160585711Y-136737185D01*
X160670638Y-136578297D01*
X160784931Y-136439031D01*
X160924197Y-136324738D01*
X161083085Y-136239811D01*
X161255486Y-136187513D01*
X161389849Y-136174280D01*
X161479711Y-136174280D01*
X161614074Y-136187513D01*
X161614074Y-136187513D01*
G37*
G36*
X115894074Y-136187513D02*
G01*
X116066475Y-136239811D01*
X116225363Y-136324738D01*
X116364629Y-136439031D01*
X116478922Y-136578297D01*
X116563849Y-136737185D01*
X116616147Y-136909586D01*
X116633805Y-137088880D01*
X116616147Y-137268174D01*
X116563849Y-137440575D01*
X116478922Y-137599463D01*
X116364629Y-137738729D01*
X116225363Y-137853022D01*
X116066475Y-137937949D01*
X115894074Y-137990247D01*
X115759711Y-138003480D01*
X115669849Y-138003480D01*
X115535486Y-137990247D01*
X115363085Y-137937949D01*
X115204197Y-137853022D01*
X115064931Y-137738729D01*
X114950638Y-137599463D01*
X114865711Y-137440575D01*
X114813413Y-137268174D01*
X114795755Y-137088880D01*
X114813413Y-136909586D01*
X114865711Y-136737185D01*
X114950638Y-136578297D01*
X115064931Y-136439031D01*
X115204197Y-136324738D01*
X115363085Y-136239811D01*
X115535486Y-136187513D01*
X115669849Y-136174280D01*
X115759711Y-136174280D01*
X115894074Y-136187513D01*
X115894074Y-136187513D01*
G37*
G36*
X143834074Y-136187513D02*
G01*
X144006475Y-136239811D01*
X144165363Y-136324738D01*
X144304629Y-136439031D01*
X144418922Y-136578297D01*
X144503849Y-136737185D01*
X144556147Y-136909586D01*
X144573805Y-137088880D01*
X144556147Y-137268174D01*
X144503849Y-137440575D01*
X144418922Y-137599463D01*
X144304629Y-137738729D01*
X144165363Y-137853022D01*
X144006475Y-137937949D01*
X143834074Y-137990247D01*
X143699711Y-138003480D01*
X143609849Y-138003480D01*
X143475486Y-137990247D01*
X143303085Y-137937949D01*
X143144197Y-137853022D01*
X143004931Y-137738729D01*
X142890638Y-137599463D01*
X142805711Y-137440575D01*
X142753413Y-137268174D01*
X142735755Y-137088880D01*
X142753413Y-136909586D01*
X142805711Y-136737185D01*
X142890638Y-136578297D01*
X143004931Y-136439031D01*
X143144197Y-136324738D01*
X143303085Y-136239811D01*
X143475486Y-136187513D01*
X143609849Y-136174280D01*
X143699711Y-136174280D01*
X143834074Y-136187513D01*
X143834074Y-136187513D01*
G37*
G36*
X146374074Y-136187513D02*
G01*
X146546475Y-136239811D01*
X146705363Y-136324738D01*
X146844629Y-136439031D01*
X146958922Y-136578297D01*
X147043849Y-136737185D01*
X147096147Y-136909586D01*
X147113805Y-137088880D01*
X147096147Y-137268174D01*
X147043849Y-137440575D01*
X146958922Y-137599463D01*
X146844629Y-137738729D01*
X146705363Y-137853022D01*
X146546475Y-137937949D01*
X146374074Y-137990247D01*
X146239711Y-138003480D01*
X146149849Y-138003480D01*
X146015486Y-137990247D01*
X145843085Y-137937949D01*
X145684197Y-137853022D01*
X145544931Y-137738729D01*
X145430638Y-137599463D01*
X145345711Y-137440575D01*
X145293413Y-137268174D01*
X145275755Y-137088880D01*
X145293413Y-136909586D01*
X145345711Y-136737185D01*
X145430638Y-136578297D01*
X145544931Y-136439031D01*
X145684197Y-136324738D01*
X145843085Y-136239811D01*
X146015486Y-136187513D01*
X146149849Y-136174280D01*
X146239711Y-136174280D01*
X146374074Y-136187513D01*
X146374074Y-136187513D01*
G37*
G36*
X141294074Y-136187513D02*
G01*
X141466475Y-136239811D01*
X141625363Y-136324738D01*
X141764629Y-136439031D01*
X141878922Y-136578297D01*
X141963849Y-136737185D01*
X142016147Y-136909586D01*
X142033805Y-137088880D01*
X142016147Y-137268174D01*
X141963849Y-137440575D01*
X141878922Y-137599463D01*
X141764629Y-137738729D01*
X141625363Y-137853022D01*
X141466475Y-137937949D01*
X141294074Y-137990247D01*
X141159711Y-138003480D01*
X141069849Y-138003480D01*
X140935486Y-137990247D01*
X140763085Y-137937949D01*
X140604197Y-137853022D01*
X140464931Y-137738729D01*
X140350638Y-137599463D01*
X140265711Y-137440575D01*
X140213413Y-137268174D01*
X140195755Y-137088880D01*
X140213413Y-136909586D01*
X140265711Y-136737185D01*
X140350638Y-136578297D01*
X140464931Y-136439031D01*
X140604197Y-136324738D01*
X140763085Y-136239811D01*
X140935486Y-136187513D01*
X141069849Y-136174280D01*
X141159711Y-136174280D01*
X141294074Y-136187513D01*
X141294074Y-136187513D01*
G37*
G36*
X138754074Y-136187513D02*
G01*
X138926475Y-136239811D01*
X139085363Y-136324738D01*
X139224629Y-136439031D01*
X139338922Y-136578297D01*
X139423849Y-136737185D01*
X139476147Y-136909586D01*
X139493805Y-137088880D01*
X139476147Y-137268174D01*
X139423849Y-137440575D01*
X139338922Y-137599463D01*
X139224629Y-137738729D01*
X139085363Y-137853022D01*
X138926475Y-137937949D01*
X138754074Y-137990247D01*
X138619711Y-138003480D01*
X138529849Y-138003480D01*
X138395486Y-137990247D01*
X138223085Y-137937949D01*
X138064197Y-137853022D01*
X137924931Y-137738729D01*
X137810638Y-137599463D01*
X137725711Y-137440575D01*
X137673413Y-137268174D01*
X137655755Y-137088880D01*
X137673413Y-136909586D01*
X137725711Y-136737185D01*
X137810638Y-136578297D01*
X137924931Y-136439031D01*
X138064197Y-136324738D01*
X138223085Y-136239811D01*
X138395486Y-136187513D01*
X138529849Y-136174280D01*
X138619711Y-136174280D01*
X138754074Y-136187513D01*
X138754074Y-136187513D01*
G37*
G36*
X120974074Y-136187513D02*
G01*
X121146475Y-136239811D01*
X121305363Y-136324738D01*
X121444629Y-136439031D01*
X121558922Y-136578297D01*
X121643849Y-136737185D01*
X121696147Y-136909586D01*
X121713805Y-137088880D01*
X121696147Y-137268174D01*
X121643849Y-137440575D01*
X121558922Y-137599463D01*
X121444629Y-137738729D01*
X121305363Y-137853022D01*
X121146475Y-137937949D01*
X120974074Y-137990247D01*
X120839711Y-138003480D01*
X120749849Y-138003480D01*
X120615486Y-137990247D01*
X120443085Y-137937949D01*
X120284197Y-137853022D01*
X120144931Y-137738729D01*
X120030638Y-137599463D01*
X119945711Y-137440575D01*
X119893413Y-137268174D01*
X119875755Y-137088880D01*
X119893413Y-136909586D01*
X119945711Y-136737185D01*
X120030638Y-136578297D01*
X120144931Y-136439031D01*
X120284197Y-136324738D01*
X120443085Y-136239811D01*
X120615486Y-136187513D01*
X120749849Y-136174280D01*
X120839711Y-136174280D01*
X120974074Y-136187513D01*
X120974074Y-136187513D01*
G37*
G36*
X148914074Y-136187513D02*
G01*
X149086475Y-136239811D01*
X149245363Y-136324738D01*
X149384629Y-136439031D01*
X149498922Y-136578297D01*
X149583849Y-136737185D01*
X149636147Y-136909586D01*
X149653805Y-137088880D01*
X149636147Y-137268174D01*
X149583849Y-137440575D01*
X149498922Y-137599463D01*
X149384629Y-137738729D01*
X149245363Y-137853022D01*
X149086475Y-137937949D01*
X148914074Y-137990247D01*
X148779711Y-138003480D01*
X148689849Y-138003480D01*
X148555486Y-137990247D01*
X148383085Y-137937949D01*
X148224197Y-137853022D01*
X148084931Y-137738729D01*
X147970638Y-137599463D01*
X147885711Y-137440575D01*
X147833413Y-137268174D01*
X147815755Y-137088880D01*
X147833413Y-136909586D01*
X147885711Y-136737185D01*
X147970638Y-136578297D01*
X148084931Y-136439031D01*
X148224197Y-136324738D01*
X148383085Y-136239811D01*
X148555486Y-136187513D01*
X148689849Y-136174280D01*
X148779711Y-136174280D01*
X148914074Y-136187513D01*
X148914074Y-136187513D01*
G37*
G36*
X151454074Y-136187513D02*
G01*
X151626475Y-136239811D01*
X151785363Y-136324738D01*
X151924629Y-136439031D01*
X152038922Y-136578297D01*
X152123849Y-136737185D01*
X152176147Y-136909586D01*
X152193805Y-137088880D01*
X152176147Y-137268174D01*
X152123849Y-137440575D01*
X152038922Y-137599463D01*
X151924629Y-137738729D01*
X151785363Y-137853022D01*
X151626475Y-137937949D01*
X151454074Y-137990247D01*
X151319711Y-138003480D01*
X151229849Y-138003480D01*
X151095486Y-137990247D01*
X150923085Y-137937949D01*
X150764197Y-137853022D01*
X150624931Y-137738729D01*
X150510638Y-137599463D01*
X150425711Y-137440575D01*
X150373413Y-137268174D01*
X150355755Y-137088880D01*
X150373413Y-136909586D01*
X150425711Y-136737185D01*
X150510638Y-136578297D01*
X150624931Y-136439031D01*
X150764197Y-136324738D01*
X150923085Y-136239811D01*
X151095486Y-136187513D01*
X151229849Y-136174280D01*
X151319711Y-136174280D01*
X151454074Y-136187513D01*
X151454074Y-136187513D01*
G37*
G36*
X153994074Y-136187513D02*
G01*
X154166475Y-136239811D01*
X154325363Y-136324738D01*
X154464629Y-136439031D01*
X154578922Y-136578297D01*
X154663849Y-136737185D01*
X154716147Y-136909586D01*
X154733805Y-137088880D01*
X154716147Y-137268174D01*
X154663849Y-137440575D01*
X154578922Y-137599463D01*
X154464629Y-137738729D01*
X154325363Y-137853022D01*
X154166475Y-137937949D01*
X153994074Y-137990247D01*
X153859711Y-138003480D01*
X153769849Y-138003480D01*
X153635486Y-137990247D01*
X153463085Y-137937949D01*
X153304197Y-137853022D01*
X153164931Y-137738729D01*
X153050638Y-137599463D01*
X152965711Y-137440575D01*
X152913413Y-137268174D01*
X152895755Y-137088880D01*
X152913413Y-136909586D01*
X152965711Y-136737185D01*
X153050638Y-136578297D01*
X153164931Y-136439031D01*
X153304197Y-136324738D01*
X153463085Y-136239811D01*
X153635486Y-136187513D01*
X153769849Y-136174280D01*
X153859711Y-136174280D01*
X153994074Y-136187513D01*
X153994074Y-136187513D01*
G37*
G36*
X113354074Y-136187513D02*
G01*
X113526475Y-136239811D01*
X113685363Y-136324738D01*
X113824629Y-136439031D01*
X113938922Y-136578297D01*
X114023849Y-136737185D01*
X114076147Y-136909586D01*
X114093805Y-137088880D01*
X114076147Y-137268174D01*
X114023849Y-137440575D01*
X113938922Y-137599463D01*
X113824629Y-137738729D01*
X113685363Y-137853022D01*
X113526475Y-137937949D01*
X113354074Y-137990247D01*
X113219711Y-138003480D01*
X113129849Y-138003480D01*
X112995486Y-137990247D01*
X112823085Y-137937949D01*
X112664197Y-137853022D01*
X112524931Y-137738729D01*
X112410638Y-137599463D01*
X112325711Y-137440575D01*
X112273413Y-137268174D01*
X112255755Y-137088880D01*
X112273413Y-136909586D01*
X112325711Y-136737185D01*
X112410638Y-136578297D01*
X112524931Y-136439031D01*
X112664197Y-136324738D01*
X112823085Y-136239811D01*
X112995486Y-136187513D01*
X113129849Y-136174280D01*
X113219711Y-136174280D01*
X113354074Y-136187513D01*
X113354074Y-136187513D01*
G37*
G36*
X195563142Y-132822242D02*
G01*
X195711101Y-132883529D01*
X195844255Y-132972499D01*
X195957501Y-133085745D01*
X196046471Y-133218899D01*
X196107758Y-133366858D01*
X196139000Y-133523925D01*
X196139000Y-133684075D01*
X196107758Y-133841142D01*
X196046471Y-133989101D01*
X195957501Y-134122255D01*
X195844255Y-134235501D01*
X195711101Y-134324471D01*
X195563142Y-134385758D01*
X195406075Y-134417000D01*
X195245925Y-134417000D01*
X195088858Y-134385758D01*
X194940899Y-134324471D01*
X194807745Y-134235501D01*
X194694499Y-134122255D01*
X194605529Y-133989101D01*
X194544242Y-133841142D01*
X194513000Y-133684075D01*
X194513000Y-133523925D01*
X194544242Y-133366858D01*
X194605529Y-133218899D01*
X194694499Y-133085745D01*
X194807745Y-132972499D01*
X194940899Y-132883529D01*
X195088858Y-132822242D01*
X195245925Y-132791000D01*
X195406075Y-132791000D01*
X195563142Y-132822242D01*
X195563142Y-132822242D01*
G37*
G36*
X151650036Y-130400178D02*
G01*
X151756359Y-130421327D01*
X152056822Y-130545783D01*
X152327231Y-130726465D01*
X152557195Y-130956429D01*
X152737877Y-131226838D01*
X152737878Y-131226840D01*
X152862333Y-131527302D01*
X152925780Y-131846269D01*
X152925780Y-132171491D01*
X152862333Y-132490458D01*
X152745292Y-132773022D01*
X152737877Y-132790922D01*
X152557195Y-133061331D01*
X152327231Y-133291295D01*
X152056822Y-133471977D01*
X151756359Y-133596433D01*
X151650036Y-133617582D01*
X151437391Y-133659880D01*
X151112169Y-133659880D01*
X150899524Y-133617582D01*
X150793201Y-133596433D01*
X150492738Y-133471977D01*
X150222329Y-133291295D01*
X149992365Y-133061331D01*
X149811683Y-132790922D01*
X149804269Y-132773022D01*
X149687227Y-132490458D01*
X149623780Y-132171491D01*
X149623780Y-131846269D01*
X149687227Y-131527302D01*
X149811682Y-131226840D01*
X149811683Y-131226838D01*
X149992365Y-130956429D01*
X150222329Y-130726465D01*
X150492738Y-130545783D01*
X150793201Y-130421327D01*
X150899524Y-130400178D01*
X151112169Y-130357880D01*
X151437391Y-130357880D01*
X151650036Y-130400178D01*
X151650036Y-130400178D01*
G37*
G36*
X181934074Y-131107513D02*
G01*
X182106475Y-131159811D01*
X182265363Y-131244738D01*
X182404629Y-131359031D01*
X182518922Y-131498297D01*
X182603849Y-131657185D01*
X182656147Y-131829586D01*
X182673805Y-132008880D01*
X182656147Y-132188174D01*
X182603849Y-132360575D01*
X182518922Y-132519463D01*
X182404629Y-132658729D01*
X182265363Y-132773022D01*
X182106475Y-132857949D01*
X181934074Y-132910247D01*
X181799711Y-132923480D01*
X181709849Y-132923480D01*
X181575486Y-132910247D01*
X181403085Y-132857949D01*
X181244197Y-132773022D01*
X181104931Y-132658729D01*
X180990638Y-132519463D01*
X180905711Y-132360575D01*
X180853413Y-132188174D01*
X180835755Y-132008880D01*
X180853413Y-131829586D01*
X180905711Y-131657185D01*
X180990638Y-131498297D01*
X181104931Y-131359031D01*
X181244197Y-131244738D01*
X181403085Y-131159811D01*
X181575486Y-131107513D01*
X181709849Y-131094280D01*
X181799711Y-131094280D01*
X181934074Y-131107513D01*
X181934074Y-131107513D01*
G37*
G36*
X179394074Y-131107513D02*
G01*
X179566475Y-131159811D01*
X179725363Y-131244738D01*
X179864629Y-131359031D01*
X179978922Y-131498297D01*
X180063849Y-131657185D01*
X180116147Y-131829586D01*
X180133805Y-132008880D01*
X180116147Y-132188174D01*
X180063849Y-132360575D01*
X179978922Y-132519463D01*
X179864629Y-132658729D01*
X179725363Y-132773022D01*
X179566475Y-132857949D01*
X179394074Y-132910247D01*
X179259711Y-132923480D01*
X179169849Y-132923480D01*
X179035486Y-132910247D01*
X178863085Y-132857949D01*
X178704197Y-132773022D01*
X178564931Y-132658729D01*
X178450638Y-132519463D01*
X178365711Y-132360575D01*
X178313413Y-132188174D01*
X178295755Y-132008880D01*
X178313413Y-131829586D01*
X178365711Y-131657185D01*
X178450638Y-131498297D01*
X178564931Y-131359031D01*
X178704197Y-131244738D01*
X178863085Y-131159811D01*
X179035486Y-131107513D01*
X179169849Y-131094280D01*
X179259711Y-131094280D01*
X179394074Y-131107513D01*
X179394074Y-131107513D01*
G37*
G36*
X181934074Y-128567513D02*
G01*
X182106475Y-128619811D01*
X182265363Y-128704738D01*
X182404629Y-128819031D01*
X182518922Y-128958297D01*
X182603849Y-129117185D01*
X182656147Y-129289586D01*
X182673805Y-129468880D01*
X182656147Y-129648174D01*
X182603849Y-129820575D01*
X182518922Y-129979463D01*
X182404629Y-130118729D01*
X182265363Y-130233022D01*
X182106475Y-130317949D01*
X181934074Y-130370247D01*
X181799711Y-130383480D01*
X181709849Y-130383480D01*
X181575486Y-130370247D01*
X181403085Y-130317949D01*
X181244197Y-130233022D01*
X181104931Y-130118729D01*
X180990638Y-129979463D01*
X180905711Y-129820575D01*
X180853413Y-129648174D01*
X180835755Y-129468880D01*
X180853413Y-129289586D01*
X180905711Y-129117185D01*
X180990638Y-128958297D01*
X181104931Y-128819031D01*
X181244197Y-128704738D01*
X181403085Y-128619811D01*
X181575486Y-128567513D01*
X181709849Y-128554280D01*
X181799711Y-128554280D01*
X181934074Y-128567513D01*
X181934074Y-128567513D01*
G37*
G36*
X179394074Y-128567513D02*
G01*
X179566475Y-128619811D01*
X179725363Y-128704738D01*
X179864629Y-128819031D01*
X179978922Y-128958297D01*
X180063849Y-129117185D01*
X180116147Y-129289586D01*
X180133805Y-129468880D01*
X180116147Y-129648174D01*
X180063849Y-129820575D01*
X179978922Y-129979463D01*
X179864629Y-130118729D01*
X179725363Y-130233022D01*
X179566475Y-130317949D01*
X179394074Y-130370247D01*
X179259711Y-130383480D01*
X179169849Y-130383480D01*
X179035486Y-130370247D01*
X178863085Y-130317949D01*
X178704197Y-130233022D01*
X178564931Y-130118729D01*
X178450638Y-129979463D01*
X178365711Y-129820575D01*
X178313413Y-129648174D01*
X178295755Y-129468880D01*
X178313413Y-129289586D01*
X178365711Y-129117185D01*
X178450638Y-128958297D01*
X178564931Y-128819031D01*
X178704197Y-128704738D01*
X178863085Y-128619811D01*
X179035486Y-128567513D01*
X179169849Y-128554280D01*
X179259711Y-128554280D01*
X179394074Y-128567513D01*
X179394074Y-128567513D01*
G37*
G36*
X179394074Y-126027513D02*
G01*
X179566475Y-126079811D01*
X179725363Y-126164738D01*
X179864629Y-126279031D01*
X179978922Y-126418297D01*
X180063849Y-126577185D01*
X180116147Y-126749586D01*
X180133805Y-126928880D01*
X180116147Y-127108174D01*
X180063849Y-127280575D01*
X179978922Y-127439463D01*
X179864629Y-127578729D01*
X179725363Y-127693022D01*
X179566475Y-127777949D01*
X179394074Y-127830247D01*
X179259711Y-127843480D01*
X179169849Y-127843480D01*
X179035486Y-127830247D01*
X178863085Y-127777949D01*
X178704197Y-127693022D01*
X178564931Y-127578729D01*
X178450638Y-127439463D01*
X178365711Y-127280575D01*
X178313413Y-127108174D01*
X178295755Y-126928880D01*
X178313413Y-126749586D01*
X178365711Y-126577185D01*
X178450638Y-126418297D01*
X178564931Y-126279031D01*
X178704197Y-126164738D01*
X178863085Y-126079811D01*
X179035486Y-126027513D01*
X179169849Y-126014280D01*
X179259711Y-126014280D01*
X179394074Y-126027513D01*
X179394074Y-126027513D01*
G37*
G36*
X181934074Y-126027513D02*
G01*
X182106475Y-126079811D01*
X182265363Y-126164738D01*
X182404629Y-126279031D01*
X182518922Y-126418297D01*
X182603849Y-126577185D01*
X182656147Y-126749586D01*
X182673805Y-126928880D01*
X182656147Y-127108174D01*
X182603849Y-127280575D01*
X182518922Y-127439463D01*
X182404629Y-127578729D01*
X182265363Y-127693022D01*
X182106475Y-127777949D01*
X181934074Y-127830247D01*
X181799711Y-127843480D01*
X181709849Y-127843480D01*
X181575486Y-127830247D01*
X181403085Y-127777949D01*
X181244197Y-127693022D01*
X181104931Y-127578729D01*
X180990638Y-127439463D01*
X180905711Y-127280575D01*
X180853413Y-127108174D01*
X180835755Y-126928880D01*
X180853413Y-126749586D01*
X180905711Y-126577185D01*
X180990638Y-126418297D01*
X181104931Y-126279031D01*
X181244197Y-126164738D01*
X181403085Y-126079811D01*
X181575486Y-126027513D01*
X181709849Y-126014280D01*
X181799711Y-126014280D01*
X181934074Y-126027513D01*
X181934074Y-126027513D01*
G37*
G36*
X195563142Y-125812242D02*
G01*
X195711101Y-125873529D01*
X195844255Y-125962499D01*
X195957501Y-126075745D01*
X196046471Y-126208899D01*
X196107758Y-126356858D01*
X196139000Y-126513925D01*
X196139000Y-126674075D01*
X196107758Y-126831142D01*
X196046471Y-126979101D01*
X195957501Y-127112255D01*
X195844255Y-127225501D01*
X195711101Y-127314471D01*
X195563142Y-127375758D01*
X195406075Y-127407000D01*
X195245925Y-127407000D01*
X195088858Y-127375758D01*
X194940899Y-127314471D01*
X194807745Y-127225501D01*
X194694499Y-127112255D01*
X194605529Y-126979101D01*
X194544242Y-126831142D01*
X194513000Y-126674075D01*
X194513000Y-126513925D01*
X194544242Y-126356858D01*
X194605529Y-126208899D01*
X194694499Y-126075745D01*
X194807745Y-125962499D01*
X194940899Y-125873529D01*
X195088858Y-125812242D01*
X195245925Y-125781000D01*
X195406075Y-125781000D01*
X195563142Y-125812242D01*
X195563142Y-125812242D01*
G37*
G36*
X167780800Y-127054900D02*
G01*
X166578800Y-127054900D01*
X166578800Y-125852900D01*
X167780800Y-125852900D01*
X167780800Y-127054900D01*
X167780800Y-127054900D01*
G37*
G36*
X170580800Y-127054900D02*
G01*
X169378800Y-127054900D01*
X169378800Y-125852900D01*
X170580800Y-125852900D01*
X170580800Y-127054900D01*
X170580800Y-127054900D01*
G37*
G36*
X161972300Y-124233600D02*
G01*
X159870300Y-124233600D01*
X159870300Y-122631600D01*
X161972300Y-122631600D01*
X161972300Y-124233600D01*
X161972300Y-124233600D01*
G37*
G36*
X177212300Y-124030400D02*
G01*
X175110300Y-124030400D01*
X175110300Y-122428400D01*
X177212300Y-122428400D01*
X177212300Y-124030400D01*
X177212300Y-124030400D01*
G37*
G36*
X89891000Y-123351000D02*
G01*
X86589000Y-123351000D01*
X86589000Y-122049000D01*
X89891000Y-122049000D01*
X89891000Y-123351000D01*
X89891000Y-123351000D01*
G37*
G36*
X98691000Y-123351000D02*
G01*
X97389000Y-123351000D01*
X97389000Y-122049000D01*
X98691000Y-122049000D01*
X98691000Y-123351000D01*
X98691000Y-123351000D01*
G37*
G36*
X92291000Y-123351000D02*
G01*
X91389000Y-123351000D01*
X91389000Y-122049000D01*
X92291000Y-122049000D01*
X92291000Y-123351000D01*
X92291000Y-123351000D01*
G37*
G36*
X168272300Y-123083600D02*
G01*
X166170300Y-123083600D01*
X166170300Y-119181600D01*
X168272300Y-119181600D01*
X168272300Y-123083600D01*
X168272300Y-123083600D01*
G37*
G36*
X183512300Y-122880400D02*
G01*
X181410300Y-122880400D01*
X181410300Y-118978400D01*
X183512300Y-118978400D01*
X183512300Y-122880400D01*
X183512300Y-122880400D01*
G37*
G36*
X157918404Y-121098947D02*
G01*
X157954944Y-121110032D01*
X157988621Y-121128033D01*
X158018141Y-121152259D01*
X158042367Y-121181779D01*
X158060368Y-121215456D01*
X158071453Y-121251996D01*
X158075800Y-121296138D01*
X158075800Y-122245062D01*
X158071453Y-122289204D01*
X158060368Y-122325744D01*
X158042367Y-122359421D01*
X158018141Y-122388941D01*
X157988621Y-122413167D01*
X157954944Y-122431168D01*
X157918404Y-122442253D01*
X157874262Y-122446600D01*
X156425338Y-122446600D01*
X156381196Y-122442253D01*
X156344656Y-122431168D01*
X156310979Y-122413167D01*
X156281459Y-122388941D01*
X156257233Y-122359421D01*
X156239232Y-122325744D01*
X156228147Y-122289204D01*
X156223800Y-122245062D01*
X156223800Y-121296138D01*
X156228147Y-121251996D01*
X156239232Y-121215456D01*
X156257233Y-121181779D01*
X156281459Y-121152259D01*
X156310979Y-121128033D01*
X156344656Y-121110032D01*
X156381196Y-121098947D01*
X156425338Y-121094600D01*
X157874262Y-121094600D01*
X157918404Y-121098947D01*
X157918404Y-121098947D01*
G37*
G36*
X115459000Y-122371000D02*
G01*
X114057000Y-122371000D01*
X114057000Y-121469000D01*
X115459000Y-121469000D01*
X115459000Y-122371000D01*
X115459000Y-122371000D01*
G37*
G36*
X109159000Y-122371000D02*
G01*
X107757000Y-122371000D01*
X107757000Y-121469000D01*
X109159000Y-121469000D01*
X109159000Y-122371000D01*
X109159000Y-122371000D01*
G37*
G36*
X102991000Y-122251000D02*
G01*
X101689000Y-122251000D01*
X101689000Y-121425999D01*
X101686598Y-121401613D01*
X101679485Y-121378164D01*
X101667934Y-121356553D01*
X101652389Y-121337611D01*
X101633447Y-121322066D01*
X101611836Y-121310515D01*
X101588387Y-121303402D01*
X101564001Y-121301000D01*
X101489000Y-121301000D01*
X101489000Y-120499000D01*
X102991000Y-120499000D01*
X102991000Y-122251000D01*
X102991000Y-122251000D01*
G37*
G36*
X173120304Y-120730647D02*
G01*
X173156844Y-120741732D01*
X173190521Y-120759733D01*
X173220041Y-120783959D01*
X173244267Y-120813479D01*
X173262268Y-120847156D01*
X173273353Y-120883696D01*
X173277700Y-120927838D01*
X173277700Y-121876762D01*
X173273353Y-121920904D01*
X173262268Y-121957444D01*
X173244267Y-121991121D01*
X173220041Y-122020641D01*
X173190521Y-122044867D01*
X173156844Y-122062868D01*
X173120304Y-122073953D01*
X173076162Y-122078300D01*
X171627238Y-122078300D01*
X171583096Y-122073953D01*
X171546556Y-122062868D01*
X171512879Y-122044867D01*
X171483359Y-122020641D01*
X171459133Y-121991121D01*
X171441132Y-121957444D01*
X171430047Y-121920904D01*
X171425700Y-121876762D01*
X171425700Y-120927838D01*
X171430047Y-120883696D01*
X171441132Y-120847156D01*
X171459133Y-120813479D01*
X171483359Y-120783959D01*
X171512879Y-120759733D01*
X171546556Y-120741732D01*
X171583096Y-120730647D01*
X171627238Y-120726300D01*
X173076162Y-120726300D01*
X173120304Y-120730647D01*
X173120304Y-120730647D01*
G37*
G36*
X161972300Y-121933600D02*
G01*
X159870300Y-121933600D01*
X159870300Y-120331600D01*
X161972300Y-120331600D01*
X161972300Y-121933600D01*
X161972300Y-121933600D01*
G37*
G36*
X205107731Y-119005136D02*
G01*
X205210644Y-119015272D01*
X205406017Y-119074538D01*
X205474737Y-119095384D01*
X205677625Y-119203830D01*
X205718120Y-119225475D01*
X205763683Y-119262868D01*
X205931450Y-119400550D01*
X206034193Y-119525744D01*
X206106525Y-119613880D01*
X206106526Y-119613882D01*
X206236616Y-119857263D01*
X206236617Y-119857267D01*
X206316728Y-120121356D01*
X206343778Y-120396000D01*
X206316728Y-120670644D01*
X206293601Y-120746883D01*
X206236616Y-120934737D01*
X206140165Y-121115183D01*
X206106525Y-121178120D01*
X206075884Y-121215456D01*
X205931450Y-121391450D01*
X205773691Y-121520918D01*
X205718120Y-121566525D01*
X205718118Y-121566526D01*
X205474737Y-121696616D01*
X205406017Y-121717462D01*
X205210644Y-121776728D01*
X205107731Y-121786864D01*
X205004820Y-121797000D01*
X204267180Y-121797000D01*
X204164269Y-121786864D01*
X204061356Y-121776728D01*
X203865983Y-121717462D01*
X203797263Y-121696616D01*
X203553882Y-121566526D01*
X203553880Y-121566525D01*
X203498309Y-121520918D01*
X203340550Y-121391450D01*
X203196116Y-121215456D01*
X203165475Y-121178120D01*
X203131835Y-121115183D01*
X203035384Y-120934737D01*
X202978399Y-120746883D01*
X202955272Y-120670644D01*
X202928222Y-120396000D01*
X202955272Y-120121356D01*
X203035383Y-119857267D01*
X203035384Y-119857263D01*
X203165474Y-119613882D01*
X203165475Y-119613880D01*
X203237807Y-119525744D01*
X203340550Y-119400550D01*
X203508317Y-119262868D01*
X203553880Y-119225475D01*
X203594375Y-119203830D01*
X203797263Y-119095384D01*
X203865983Y-119074538D01*
X204061356Y-119015272D01*
X204164269Y-119005136D01*
X204267180Y-118995000D01*
X205004820Y-118995000D01*
X205107731Y-119005136D01*
X205107731Y-119005136D01*
G37*
G36*
X200710031Y-118998621D02*
G01*
X200739486Y-119007556D01*
X200766623Y-119022062D01*
X200790414Y-119041586D01*
X200809938Y-119065377D01*
X200824444Y-119092514D01*
X200833379Y-119121969D01*
X200837000Y-119158734D01*
X200837000Y-121633266D01*
X200833379Y-121670031D01*
X200824444Y-121699486D01*
X200809938Y-121726623D01*
X200790414Y-121750414D01*
X200766623Y-121769938D01*
X200739486Y-121784444D01*
X200710031Y-121793379D01*
X200673266Y-121797000D01*
X197598734Y-121797000D01*
X197561969Y-121793379D01*
X197532514Y-121784444D01*
X197505377Y-121769938D01*
X197481586Y-121750414D01*
X197462062Y-121726623D01*
X197447556Y-121699486D01*
X197438621Y-121670031D01*
X197435000Y-121633266D01*
X197435000Y-119158734D01*
X197438621Y-119121969D01*
X197447556Y-119092514D01*
X197462062Y-119065377D01*
X197481586Y-119041586D01*
X197505377Y-119022062D01*
X197532514Y-119007556D01*
X197561969Y-118998621D01*
X197598734Y-118995000D01*
X200673266Y-118995000D01*
X200710031Y-118998621D01*
X200710031Y-118998621D01*
G37*
G36*
X177212300Y-121730400D02*
G01*
X175110300Y-121730400D01*
X175110300Y-120128400D01*
X177212300Y-120128400D01*
X177212300Y-121730400D01*
X177212300Y-121730400D01*
G37*
G36*
X186173400Y-121495300D02*
G01*
X184971400Y-121495300D01*
X184971400Y-120293300D01*
X186173400Y-120293300D01*
X186173400Y-121495300D01*
X186173400Y-121495300D01*
G37*
G36*
X115459000Y-121091000D02*
G01*
X114057000Y-121091000D01*
X114057000Y-120189000D01*
X115459000Y-120189000D01*
X115459000Y-121091000D01*
X115459000Y-121091000D01*
G37*
G36*
X109159000Y-121091000D02*
G01*
X107757000Y-121091000D01*
X107757000Y-120189000D01*
X109159000Y-120189000D01*
X109159000Y-121091000D01*
X109159000Y-121091000D01*
G37*
G36*
X102991000Y-120201000D02*
G01*
X101489000Y-120201000D01*
X101489000Y-119399000D01*
X102991000Y-119399000D01*
X102991000Y-120201000D01*
X102991000Y-120201000D01*
G37*
G36*
X115459000Y-119831000D02*
G01*
X114057000Y-119831000D01*
X114057000Y-118929000D01*
X115459000Y-118929000D01*
X115459000Y-119831000D01*
X115459000Y-119831000D01*
G37*
G36*
X109159000Y-119831000D02*
G01*
X107757000Y-119831000D01*
X107757000Y-118929000D01*
X109159000Y-118929000D01*
X109159000Y-119831000D01*
X109159000Y-119831000D01*
G37*
G36*
X157918404Y-118298947D02*
G01*
X157954944Y-118310032D01*
X157988621Y-118328033D01*
X158018141Y-118352259D01*
X158042367Y-118381779D01*
X158060368Y-118415456D01*
X158071453Y-118451996D01*
X158075800Y-118496138D01*
X158075800Y-119445062D01*
X158071453Y-119489204D01*
X158060368Y-119525744D01*
X158042367Y-119559421D01*
X158018141Y-119588941D01*
X157988621Y-119613167D01*
X157954944Y-119631168D01*
X157918404Y-119642253D01*
X157874262Y-119646600D01*
X156425338Y-119646600D01*
X156381196Y-119642253D01*
X156344656Y-119631168D01*
X156310979Y-119613167D01*
X156281459Y-119588941D01*
X156257233Y-119559421D01*
X156239232Y-119525744D01*
X156228147Y-119489204D01*
X156223800Y-119445062D01*
X156223800Y-118496138D01*
X156228147Y-118451996D01*
X156239232Y-118415456D01*
X156257233Y-118381779D01*
X156281459Y-118352259D01*
X156310979Y-118328033D01*
X156344656Y-118310032D01*
X156381196Y-118298947D01*
X156425338Y-118294600D01*
X157874262Y-118294600D01*
X157918404Y-118298947D01*
X157918404Y-118298947D01*
G37*
G36*
X161972300Y-119633600D02*
G01*
X159870300Y-119633600D01*
X159870300Y-118031600D01*
X161972300Y-118031600D01*
X161972300Y-119633600D01*
X161972300Y-119633600D01*
G37*
G36*
X177212300Y-119430400D02*
G01*
X175110300Y-119430400D01*
X175110300Y-117828400D01*
X177212300Y-117828400D01*
X177212300Y-119430400D01*
X177212300Y-119430400D01*
G37*
G36*
X173120304Y-117930647D02*
G01*
X173156844Y-117941732D01*
X173190521Y-117959733D01*
X173220041Y-117983959D01*
X173244267Y-118013479D01*
X173262268Y-118047156D01*
X173273353Y-118083696D01*
X173277700Y-118127838D01*
X173277700Y-119076762D01*
X173273353Y-119120904D01*
X173262268Y-119157444D01*
X173244267Y-119191121D01*
X173220041Y-119220641D01*
X173190521Y-119244867D01*
X173156844Y-119262868D01*
X173120304Y-119273953D01*
X173076162Y-119278300D01*
X171627238Y-119278300D01*
X171583096Y-119273953D01*
X171546556Y-119262868D01*
X171512879Y-119244867D01*
X171483359Y-119220641D01*
X171459133Y-119191121D01*
X171441132Y-119157444D01*
X171430047Y-119120904D01*
X171425700Y-119076762D01*
X171425700Y-118127838D01*
X171430047Y-118083696D01*
X171441132Y-118047156D01*
X171459133Y-118013479D01*
X171483359Y-117983959D01*
X171512879Y-117959733D01*
X171546556Y-117941732D01*
X171583096Y-117930647D01*
X171627238Y-117926300D01*
X173076162Y-117926300D01*
X173120304Y-117930647D01*
X173120304Y-117930647D01*
G37*
G36*
X102991000Y-119101000D02*
G01*
X101489000Y-119101000D01*
X101489000Y-118299000D01*
X102991000Y-118299000D01*
X102991000Y-119101000D01*
X102991000Y-119101000D01*
G37*
G36*
X138052000Y-119071000D02*
G01*
X136200000Y-119071000D01*
X136200000Y-118419000D01*
X138052000Y-118419000D01*
X138052000Y-119071000D01*
X138052000Y-119071000D01*
G37*
G36*
X145452000Y-119071000D02*
G01*
X143600000Y-119071000D01*
X143600000Y-118419000D01*
X145452000Y-118419000D01*
X145452000Y-119071000D01*
X145452000Y-119071000D01*
G37*
G36*
X186173400Y-118695300D02*
G01*
X184971400Y-118695300D01*
X184971400Y-117493300D01*
X186173400Y-117493300D01*
X186173400Y-118695300D01*
X186173400Y-118695300D01*
G37*
G36*
X109159000Y-118561000D02*
G01*
X107757000Y-118561000D01*
X107757000Y-117659000D01*
X109159000Y-117659000D01*
X109159000Y-118561000D01*
X109159000Y-118561000D01*
G37*
G36*
X115459000Y-118561000D02*
G01*
X114057000Y-118561000D01*
X114057000Y-117659000D01*
X115459000Y-117659000D01*
X115459000Y-118561000D01*
X115459000Y-118561000D01*
G37*
G36*
X102991000Y-118001000D02*
G01*
X101489000Y-118001000D01*
X101489000Y-117199000D01*
X102991000Y-117199000D01*
X102991000Y-118001000D01*
X102991000Y-118001000D01*
G37*
G36*
X145452000Y-117801000D02*
G01*
X143600000Y-117801000D01*
X143600000Y-117149000D01*
X145452000Y-117149000D01*
X145452000Y-117801000D01*
X145452000Y-117801000D01*
G37*
G36*
X138052000Y-117801000D02*
G01*
X136200000Y-117801000D01*
X136200000Y-117149000D01*
X138052000Y-117149000D01*
X138052000Y-117801000D01*
X138052000Y-117801000D01*
G37*
G36*
X115459000Y-117281000D02*
G01*
X114057000Y-117281000D01*
X114057000Y-116379000D01*
X115459000Y-116379000D01*
X115459000Y-117281000D01*
X115459000Y-117281000D01*
G37*
G36*
X109159000Y-117281000D02*
G01*
X107757000Y-117281000D01*
X107757000Y-116379000D01*
X109159000Y-116379000D01*
X109159000Y-117281000D01*
X109159000Y-117281000D01*
G37*
G36*
X102991000Y-116901000D02*
G01*
X101489000Y-116901000D01*
X101489000Y-116099000D01*
X102991000Y-116099000D01*
X102991000Y-116901000D01*
X102991000Y-116901000D01*
G37*
G36*
X138052000Y-116531000D02*
G01*
X136200000Y-116531000D01*
X136200000Y-115879000D01*
X138052000Y-115879000D01*
X138052000Y-116531000D01*
X138052000Y-116531000D01*
G37*
G36*
X145452000Y-116531000D02*
G01*
X143600000Y-116531000D01*
X143600000Y-115879000D01*
X145452000Y-115879000D01*
X145452000Y-116531000D01*
X145452000Y-116531000D01*
G37*
G36*
X109159000Y-116011000D02*
G01*
X107757000Y-116011000D01*
X107757000Y-115109000D01*
X109159000Y-115109000D01*
X109159000Y-116011000D01*
X109159000Y-116011000D01*
G37*
G36*
X115459000Y-116011000D02*
G01*
X114057000Y-116011000D01*
X114057000Y-115109000D01*
X115459000Y-115109000D01*
X115459000Y-116011000D01*
X115459000Y-116011000D01*
G37*
G36*
X102991000Y-115801000D02*
G01*
X101489000Y-115801000D01*
X101489000Y-114999000D01*
X102991000Y-114999000D01*
X102991000Y-115801000D01*
X102991000Y-115801000D01*
G37*
G36*
X145452000Y-115261000D02*
G01*
X143600000Y-115261000D01*
X143600000Y-114609000D01*
X145452000Y-114609000D01*
X145452000Y-115261000D01*
X145452000Y-115261000D01*
G37*
G36*
X138052000Y-115261000D02*
G01*
X136200000Y-115261000D01*
X136200000Y-114609000D01*
X138052000Y-114609000D01*
X138052000Y-115261000D01*
X138052000Y-115261000D01*
G37*
G36*
X149041074Y-113327513D02*
G01*
X149213475Y-113379811D01*
X149372363Y-113464738D01*
X149511629Y-113579031D01*
X149625922Y-113718297D01*
X149710849Y-113877185D01*
X149763147Y-114049586D01*
X149780805Y-114228880D01*
X149763147Y-114408174D01*
X149710849Y-114580575D01*
X149625922Y-114739463D01*
X149511629Y-114878729D01*
X149372363Y-114993022D01*
X149213475Y-115077949D01*
X149041074Y-115130247D01*
X148906711Y-115143480D01*
X148816849Y-115143480D01*
X148682486Y-115130247D01*
X148510085Y-115077949D01*
X148351197Y-114993022D01*
X148211931Y-114878729D01*
X148097638Y-114739463D01*
X148012711Y-114580575D01*
X147960413Y-114408174D01*
X147942755Y-114228880D01*
X147960413Y-114049586D01*
X148012711Y-113877185D01*
X148097638Y-113718297D01*
X148211931Y-113579031D01*
X148351197Y-113464738D01*
X148510085Y-113379811D01*
X148682486Y-113327513D01*
X148816849Y-113314280D01*
X148906711Y-113314280D01*
X149041074Y-113327513D01*
X149041074Y-113327513D01*
G37*
G36*
X151581074Y-113327513D02*
G01*
X151753475Y-113379811D01*
X151912363Y-113464738D01*
X152051629Y-113579031D01*
X152165922Y-113718297D01*
X152250849Y-113877185D01*
X152303147Y-114049586D01*
X152320805Y-114228880D01*
X152303147Y-114408174D01*
X152250849Y-114580575D01*
X152165922Y-114739463D01*
X152051629Y-114878729D01*
X151912363Y-114993022D01*
X151753475Y-115077949D01*
X151581074Y-115130247D01*
X151446711Y-115143480D01*
X151356849Y-115143480D01*
X151222486Y-115130247D01*
X151050085Y-115077949D01*
X150891197Y-114993022D01*
X150751931Y-114878729D01*
X150637638Y-114739463D01*
X150552711Y-114580575D01*
X150500413Y-114408174D01*
X150482755Y-114228880D01*
X150500413Y-114049586D01*
X150552711Y-113877185D01*
X150637638Y-113718297D01*
X150751931Y-113579031D01*
X150891197Y-113464738D01*
X151050085Y-113379811D01*
X151222486Y-113327513D01*
X151356849Y-113314280D01*
X151446711Y-113314280D01*
X151581074Y-113327513D01*
X151581074Y-113327513D01*
G37*
G36*
X180226800Y-115028000D02*
G01*
X179024800Y-115028000D01*
X179024800Y-113826000D01*
X180226800Y-113826000D01*
X180226800Y-115028000D01*
X180226800Y-115028000D01*
G37*
G36*
X183026800Y-115028000D02*
G01*
X181824800Y-115028000D01*
X181824800Y-113826000D01*
X183026800Y-113826000D01*
X183026800Y-115028000D01*
X183026800Y-115028000D01*
G37*
G36*
X167704600Y-114913700D02*
G01*
X166502600Y-114913700D01*
X166502600Y-113711700D01*
X167704600Y-113711700D01*
X167704600Y-114913700D01*
X167704600Y-114913700D01*
G37*
G36*
X170504600Y-114913700D02*
G01*
X169302600Y-114913700D01*
X169302600Y-113711700D01*
X170504600Y-113711700D01*
X170504600Y-114913700D01*
X170504600Y-114913700D01*
G37*
G36*
X115459000Y-114751000D02*
G01*
X114057000Y-114751000D01*
X114057000Y-113849000D01*
X115459000Y-113849000D01*
X115459000Y-114751000D01*
X115459000Y-114751000D01*
G37*
G36*
X109159000Y-114751000D02*
G01*
X107757000Y-114751000D01*
X107757000Y-113849000D01*
X109159000Y-113849000D01*
X109159000Y-114751000D01*
X109159000Y-114751000D01*
G37*
G36*
X102991000Y-114701000D02*
G01*
X101489000Y-114701000D01*
X101489000Y-113899000D01*
X102991000Y-113899000D01*
X102991000Y-114701000D01*
X102991000Y-114701000D01*
G37*
G36*
X122816604Y-112705247D02*
G01*
X122853144Y-112716332D01*
X122886821Y-112734333D01*
X122916341Y-112758559D01*
X122940567Y-112788079D01*
X122958568Y-112821756D01*
X122969653Y-112858296D01*
X122974000Y-112902438D01*
X122974000Y-114351362D01*
X122969653Y-114395504D01*
X122958568Y-114432044D01*
X122940567Y-114465721D01*
X122916341Y-114495241D01*
X122886821Y-114519467D01*
X122853144Y-114537468D01*
X122816604Y-114548553D01*
X122772462Y-114552900D01*
X121823538Y-114552900D01*
X121779396Y-114548553D01*
X121742856Y-114537468D01*
X121709179Y-114519467D01*
X121679659Y-114495241D01*
X121655433Y-114465721D01*
X121637432Y-114432044D01*
X121626347Y-114395504D01*
X121622000Y-114351362D01*
X121622000Y-112902438D01*
X121626347Y-112858296D01*
X121637432Y-112821756D01*
X121655433Y-112788079D01*
X121679659Y-112758559D01*
X121709179Y-112734333D01*
X121742856Y-112716332D01*
X121779396Y-112705247D01*
X121823538Y-112700900D01*
X122772462Y-112700900D01*
X122816604Y-112705247D01*
X122816604Y-112705247D01*
G37*
G36*
X131435284Y-112705247D02*
G01*
X131471824Y-112716332D01*
X131505501Y-112734333D01*
X131535021Y-112758559D01*
X131559247Y-112788079D01*
X131577248Y-112821756D01*
X131588333Y-112858296D01*
X131592680Y-112902438D01*
X131592680Y-114351362D01*
X131588333Y-114395504D01*
X131577248Y-114432044D01*
X131559247Y-114465721D01*
X131535021Y-114495241D01*
X131505501Y-114519467D01*
X131471824Y-114537468D01*
X131435284Y-114548553D01*
X131391142Y-114552900D01*
X130442218Y-114552900D01*
X130398076Y-114548553D01*
X130361536Y-114537468D01*
X130327859Y-114519467D01*
X130298339Y-114495241D01*
X130274113Y-114465721D01*
X130256112Y-114432044D01*
X130245027Y-114395504D01*
X130240680Y-114351362D01*
X130240680Y-112902438D01*
X130245027Y-112858296D01*
X130256112Y-112821756D01*
X130274113Y-112788079D01*
X130298339Y-112758559D01*
X130327859Y-112734333D01*
X130361536Y-112716332D01*
X130398076Y-112705247D01*
X130442218Y-112700900D01*
X131391142Y-112700900D01*
X131435284Y-112705247D01*
X131435284Y-112705247D01*
G37*
G36*
X128635284Y-112705247D02*
G01*
X128671824Y-112716332D01*
X128705501Y-112734333D01*
X128735021Y-112758559D01*
X128759247Y-112788079D01*
X128777248Y-112821756D01*
X128788333Y-112858296D01*
X128792680Y-112902438D01*
X128792680Y-114351362D01*
X128788333Y-114395504D01*
X128777248Y-114432044D01*
X128759247Y-114465721D01*
X128735021Y-114495241D01*
X128705501Y-114519467D01*
X128671824Y-114537468D01*
X128635284Y-114548553D01*
X128591142Y-114552900D01*
X127642218Y-114552900D01*
X127598076Y-114548553D01*
X127561536Y-114537468D01*
X127527859Y-114519467D01*
X127498339Y-114495241D01*
X127474113Y-114465721D01*
X127456112Y-114432044D01*
X127445027Y-114395504D01*
X127440680Y-114351362D01*
X127440680Y-112902438D01*
X127445027Y-112858296D01*
X127456112Y-112821756D01*
X127474113Y-112788079D01*
X127498339Y-112758559D01*
X127527859Y-112734333D01*
X127561536Y-112716332D01*
X127598076Y-112705247D01*
X127642218Y-112700900D01*
X128591142Y-112700900D01*
X128635284Y-112705247D01*
X128635284Y-112705247D01*
G37*
G36*
X125616604Y-112705247D02*
G01*
X125653144Y-112716332D01*
X125686821Y-112734333D01*
X125716341Y-112758559D01*
X125740567Y-112788079D01*
X125758568Y-112821756D01*
X125769653Y-112858296D01*
X125774000Y-112902438D01*
X125774000Y-114351362D01*
X125769653Y-114395504D01*
X125758568Y-114432044D01*
X125740567Y-114465721D01*
X125716341Y-114495241D01*
X125686821Y-114519467D01*
X125653144Y-114537468D01*
X125616604Y-114548553D01*
X125572462Y-114552900D01*
X124623538Y-114552900D01*
X124579396Y-114548553D01*
X124542856Y-114537468D01*
X124509179Y-114519467D01*
X124479659Y-114495241D01*
X124455433Y-114465721D01*
X124437432Y-114432044D01*
X124426347Y-114395504D01*
X124422000Y-114351362D01*
X124422000Y-112902438D01*
X124426347Y-112858296D01*
X124437432Y-112821756D01*
X124455433Y-112788079D01*
X124479659Y-112758559D01*
X124509179Y-112734333D01*
X124542856Y-112716332D01*
X124579396Y-112705247D01*
X124623538Y-112700900D01*
X125572462Y-112700900D01*
X125616604Y-112705247D01*
X125616604Y-112705247D01*
G37*
G36*
X102991000Y-113601000D02*
G01*
X101489000Y-113601000D01*
X101489000Y-112799000D01*
X102991000Y-112799000D01*
X102991000Y-113601000D01*
X102991000Y-113601000D01*
G37*
G36*
X109159000Y-113471000D02*
G01*
X107757000Y-113471000D01*
X107757000Y-112569000D01*
X109159000Y-112569000D01*
X109159000Y-113471000D01*
X109159000Y-113471000D01*
G37*
G36*
X115459000Y-113471000D02*
G01*
X114057000Y-113471000D01*
X114057000Y-112569000D01*
X115459000Y-112569000D01*
X115459000Y-113471000D01*
X115459000Y-113471000D01*
G37*
G36*
X151581074Y-110787513D02*
G01*
X151753475Y-110839811D01*
X151912363Y-110924738D01*
X152051629Y-111039031D01*
X152165922Y-111178297D01*
X152250849Y-111337185D01*
X152303147Y-111509586D01*
X152320805Y-111688880D01*
X152303147Y-111868174D01*
X152250849Y-112040575D01*
X152165922Y-112199463D01*
X152051629Y-112338729D01*
X151912363Y-112453022D01*
X151753475Y-112537949D01*
X151581074Y-112590247D01*
X151446711Y-112603480D01*
X151356849Y-112603480D01*
X151222486Y-112590247D01*
X151050085Y-112537949D01*
X150891197Y-112453022D01*
X150751931Y-112338729D01*
X150637638Y-112199463D01*
X150552711Y-112040575D01*
X150500413Y-111868174D01*
X150482755Y-111688880D01*
X150500413Y-111509586D01*
X150552711Y-111337185D01*
X150637638Y-111178297D01*
X150751931Y-111039031D01*
X150891197Y-110924738D01*
X151050085Y-110839811D01*
X151222486Y-110787513D01*
X151356849Y-110774280D01*
X151446711Y-110774280D01*
X151581074Y-110787513D01*
X151581074Y-110787513D01*
G37*
G36*
X149041074Y-110787513D02*
G01*
X149213475Y-110839811D01*
X149372363Y-110924738D01*
X149511629Y-111039031D01*
X149625922Y-111178297D01*
X149710849Y-111337185D01*
X149763147Y-111509586D01*
X149780805Y-111688880D01*
X149763147Y-111868174D01*
X149710849Y-112040575D01*
X149625922Y-112199463D01*
X149511629Y-112338729D01*
X149372363Y-112453022D01*
X149213475Y-112537949D01*
X149041074Y-112590247D01*
X148906711Y-112603480D01*
X148816849Y-112603480D01*
X148682486Y-112590247D01*
X148510085Y-112537949D01*
X148351197Y-112453022D01*
X148211931Y-112338729D01*
X148097638Y-112199463D01*
X148012711Y-112040575D01*
X147960413Y-111868174D01*
X147942755Y-111688880D01*
X147960413Y-111509586D01*
X148012711Y-111337185D01*
X148097638Y-111178297D01*
X148211931Y-111039031D01*
X148351197Y-110924738D01*
X148510085Y-110839811D01*
X148682486Y-110787513D01*
X148816849Y-110774280D01*
X148906711Y-110774280D01*
X149041074Y-110787513D01*
X149041074Y-110787513D01*
G37*
G36*
X161883400Y-112105100D02*
G01*
X159781400Y-112105100D01*
X159781400Y-110503100D01*
X161883400Y-110503100D01*
X161883400Y-112105100D01*
X161883400Y-112105100D01*
G37*
G36*
X177212300Y-112105100D02*
G01*
X175110300Y-112105100D01*
X175110300Y-110503100D01*
X177212300Y-110503100D01*
X177212300Y-112105100D01*
X177212300Y-112105100D01*
G37*
G36*
X190525213Y-108884671D02*
G01*
X190714910Y-108922404D01*
X190997174Y-109039321D01*
X191251205Y-109209059D01*
X191467241Y-109425095D01*
X191636979Y-109679126D01*
X191753896Y-109961390D01*
X191771571Y-110050247D01*
X191798724Y-110186753D01*
X191813500Y-110261040D01*
X191813500Y-110566560D01*
X191753896Y-110866210D01*
X191636979Y-111148474D01*
X191467241Y-111402505D01*
X191251205Y-111618541D01*
X190997174Y-111788279D01*
X190714910Y-111905196D01*
X190565085Y-111934998D01*
X190415261Y-111964800D01*
X190109739Y-111964800D01*
X189959915Y-111934998D01*
X189810090Y-111905196D01*
X189527826Y-111788279D01*
X189273795Y-111618541D01*
X189057759Y-111402505D01*
X188888021Y-111148474D01*
X188771104Y-110866210D01*
X188711500Y-110566560D01*
X188711500Y-110261040D01*
X188726277Y-110186753D01*
X188753429Y-110050247D01*
X188771104Y-109961390D01*
X188888021Y-109679126D01*
X189057759Y-109425095D01*
X189273795Y-109209059D01*
X189527826Y-109039321D01*
X189810090Y-108922404D01*
X189999787Y-108884671D01*
X190109739Y-108862800D01*
X190415261Y-108862800D01*
X190525213Y-108884671D01*
X190525213Y-108884671D01*
G37*
G36*
X206075213Y-108884671D02*
G01*
X206264910Y-108922404D01*
X206547174Y-109039321D01*
X206801205Y-109209059D01*
X207017241Y-109425095D01*
X207186979Y-109679126D01*
X207303896Y-109961390D01*
X207321571Y-110050247D01*
X207348724Y-110186753D01*
X207363500Y-110261040D01*
X207363500Y-110566560D01*
X207303896Y-110866210D01*
X207186979Y-111148474D01*
X207017241Y-111402505D01*
X206801205Y-111618541D01*
X206547174Y-111788279D01*
X206264910Y-111905196D01*
X206115085Y-111934998D01*
X205965261Y-111964800D01*
X205659739Y-111964800D01*
X205509915Y-111934998D01*
X205360090Y-111905196D01*
X205077826Y-111788279D01*
X204823795Y-111618541D01*
X204607759Y-111402505D01*
X204438021Y-111148474D01*
X204321104Y-110866210D01*
X204261500Y-110566560D01*
X204261500Y-110261040D01*
X204276277Y-110186753D01*
X204303429Y-110050247D01*
X204321104Y-109961390D01*
X204438021Y-109679126D01*
X204607759Y-109425095D01*
X204823795Y-109209059D01*
X205077826Y-109039321D01*
X205360090Y-108922404D01*
X205549787Y-108884671D01*
X205659739Y-108862800D01*
X205965261Y-108862800D01*
X206075213Y-108884671D01*
X206075213Y-108884671D01*
G37*
G36*
X102991000Y-111851000D02*
G01*
X101489000Y-111851000D01*
X101489000Y-110749000D01*
X102991000Y-110749000D01*
X102991000Y-111851000D01*
X102991000Y-111851000D01*
G37*
G36*
X168183400Y-110955100D02*
G01*
X166081400Y-110955100D01*
X166081400Y-107053100D01*
X168183400Y-107053100D01*
X168183400Y-110955100D01*
X168183400Y-110955100D01*
G37*
G36*
X183512300Y-110955100D02*
G01*
X181410300Y-110955100D01*
X181410300Y-107053100D01*
X183512300Y-107053100D01*
X183512300Y-110955100D01*
X183512300Y-110955100D01*
G37*
G36*
X88241000Y-110201000D02*
G01*
X87004323Y-110201000D01*
X86979937Y-110203402D01*
X86956488Y-110210515D01*
X86934877Y-110222066D01*
X86915935Y-110237611D01*
X86877611Y-110275935D01*
X86862066Y-110294877D01*
X86850515Y-110316488D01*
X86843402Y-110339937D01*
X86841000Y-110364323D01*
X86841000Y-110701000D01*
X86239000Y-110701000D01*
X86239000Y-108599000D01*
X88241000Y-108599000D01*
X88241000Y-110201000D01*
X88241000Y-110201000D01*
G37*
G36*
X145452000Y-110308000D02*
G01*
X143600000Y-110308000D01*
X143600000Y-109656000D01*
X145452000Y-109656000D01*
X145452000Y-110308000D01*
X145452000Y-110308000D01*
G37*
G36*
X138052000Y-110308000D02*
G01*
X136200000Y-110308000D01*
X136200000Y-109656000D01*
X138052000Y-109656000D01*
X138052000Y-110308000D01*
X138052000Y-110308000D01*
G37*
G36*
X174174404Y-108843447D02*
G01*
X174210944Y-108854532D01*
X174244621Y-108872533D01*
X174274141Y-108896759D01*
X174298367Y-108926279D01*
X174316368Y-108959956D01*
X174327453Y-108996496D01*
X174331800Y-109040638D01*
X174331800Y-109989562D01*
X174327453Y-110033704D01*
X174316368Y-110070244D01*
X174298367Y-110103921D01*
X174274141Y-110133441D01*
X174244621Y-110157667D01*
X174210944Y-110175668D01*
X174174404Y-110186753D01*
X174130262Y-110191100D01*
X172681338Y-110191100D01*
X172637196Y-110186753D01*
X172600656Y-110175668D01*
X172566979Y-110157667D01*
X172537459Y-110133441D01*
X172513233Y-110103921D01*
X172495232Y-110070244D01*
X172484147Y-110033704D01*
X172479800Y-109989562D01*
X172479800Y-109040638D01*
X172484147Y-108996496D01*
X172495232Y-108959956D01*
X172513233Y-108926279D01*
X172537459Y-108896759D01*
X172566979Y-108872533D01*
X172600656Y-108854532D01*
X172637196Y-108843447D01*
X172681338Y-108839100D01*
X174130262Y-108839100D01*
X174174404Y-108843447D01*
X174174404Y-108843447D01*
G37*
G36*
X157702504Y-108843447D02*
G01*
X157739044Y-108854532D01*
X157772721Y-108872533D01*
X157802241Y-108896759D01*
X157826467Y-108926279D01*
X157844468Y-108959956D01*
X157855553Y-108996496D01*
X157859900Y-109040638D01*
X157859900Y-109989562D01*
X157855553Y-110033704D01*
X157844468Y-110070244D01*
X157826467Y-110103921D01*
X157802241Y-110133441D01*
X157772721Y-110157667D01*
X157739044Y-110175668D01*
X157702504Y-110186753D01*
X157658362Y-110191100D01*
X156209438Y-110191100D01*
X156165296Y-110186753D01*
X156128756Y-110175668D01*
X156095079Y-110157667D01*
X156065559Y-110133441D01*
X156041333Y-110103921D01*
X156023332Y-110070244D01*
X156012247Y-110033704D01*
X156007900Y-109989562D01*
X156007900Y-109040638D01*
X156012247Y-108996496D01*
X156023332Y-108959956D01*
X156041333Y-108926279D01*
X156065559Y-108896759D01*
X156095079Y-108872533D01*
X156128756Y-108854532D01*
X156165296Y-108843447D01*
X156209438Y-108839100D01*
X157658362Y-108839100D01*
X157702504Y-108843447D01*
X157702504Y-108843447D01*
G37*
G36*
X151581074Y-108247513D02*
G01*
X151753475Y-108299811D01*
X151912363Y-108384738D01*
X152051629Y-108499031D01*
X152165922Y-108638297D01*
X152250849Y-108797185D01*
X152303147Y-108969586D01*
X152320805Y-109148880D01*
X152303147Y-109328174D01*
X152250849Y-109500575D01*
X152165922Y-109659463D01*
X152051629Y-109798729D01*
X151912363Y-109913022D01*
X151753475Y-109997949D01*
X151581074Y-110050247D01*
X151446711Y-110063480D01*
X151356849Y-110063480D01*
X151222486Y-110050247D01*
X151050085Y-109997949D01*
X150891197Y-109913022D01*
X150751931Y-109798729D01*
X150637638Y-109659463D01*
X150552711Y-109500575D01*
X150500413Y-109328174D01*
X150482755Y-109148880D01*
X150500413Y-108969586D01*
X150552711Y-108797185D01*
X150637638Y-108638297D01*
X150751931Y-108499031D01*
X150891197Y-108384738D01*
X151050085Y-108299811D01*
X151222486Y-108247513D01*
X151356849Y-108234280D01*
X151446711Y-108234280D01*
X151581074Y-108247513D01*
X151581074Y-108247513D01*
G37*
G36*
X149041074Y-108247513D02*
G01*
X149213475Y-108299811D01*
X149372363Y-108384738D01*
X149511629Y-108499031D01*
X149625922Y-108638297D01*
X149710849Y-108797185D01*
X149763147Y-108969586D01*
X149780805Y-109148880D01*
X149763147Y-109328174D01*
X149710849Y-109500575D01*
X149625922Y-109659463D01*
X149511629Y-109798729D01*
X149372363Y-109913022D01*
X149213475Y-109997949D01*
X149041074Y-110050247D01*
X148906711Y-110063480D01*
X148816849Y-110063480D01*
X148682486Y-110050247D01*
X148510085Y-109997949D01*
X148351197Y-109913022D01*
X148211931Y-109798729D01*
X148097638Y-109659463D01*
X148012711Y-109500575D01*
X147960413Y-109328174D01*
X147942755Y-109148880D01*
X147960413Y-108969586D01*
X148012711Y-108797185D01*
X148097638Y-108638297D01*
X148211931Y-108499031D01*
X148351197Y-108384738D01*
X148510085Y-108299811D01*
X148682486Y-108247513D01*
X148816849Y-108234280D01*
X148906711Y-108234280D01*
X149041074Y-108247513D01*
X149041074Y-108247513D01*
G37*
G36*
X131435284Y-108133882D02*
G01*
X131471824Y-108144967D01*
X131505501Y-108162968D01*
X131535021Y-108187194D01*
X131559247Y-108216714D01*
X131577248Y-108250391D01*
X131588333Y-108286931D01*
X131592680Y-108331073D01*
X131592680Y-109779997D01*
X131588333Y-109824139D01*
X131577248Y-109860679D01*
X131559247Y-109894356D01*
X131535021Y-109923876D01*
X131505501Y-109948102D01*
X131471824Y-109966103D01*
X131435284Y-109977188D01*
X131391142Y-109981535D01*
X130442218Y-109981535D01*
X130398076Y-109977188D01*
X130361536Y-109966103D01*
X130327859Y-109948102D01*
X130298339Y-109923876D01*
X130274113Y-109894356D01*
X130256112Y-109860679D01*
X130245027Y-109824139D01*
X130240680Y-109779997D01*
X130240680Y-108331073D01*
X130245027Y-108286931D01*
X130256112Y-108250391D01*
X130274113Y-108216714D01*
X130298339Y-108187194D01*
X130327859Y-108162968D01*
X130361536Y-108144967D01*
X130398076Y-108133882D01*
X130442218Y-108129535D01*
X131391142Y-108129535D01*
X131435284Y-108133882D01*
X131435284Y-108133882D01*
G37*
G36*
X125616604Y-108133882D02*
G01*
X125653144Y-108144967D01*
X125686821Y-108162968D01*
X125716341Y-108187194D01*
X125740567Y-108216714D01*
X125758568Y-108250391D01*
X125769653Y-108286931D01*
X125774000Y-108331073D01*
X125774000Y-109779997D01*
X125769653Y-109824139D01*
X125758568Y-109860679D01*
X125740567Y-109894356D01*
X125716341Y-109923876D01*
X125686821Y-109948102D01*
X125653144Y-109966103D01*
X125616604Y-109977188D01*
X125572462Y-109981535D01*
X124623538Y-109981535D01*
X124579396Y-109977188D01*
X124542856Y-109966103D01*
X124509179Y-109948102D01*
X124479659Y-109923876D01*
X124455433Y-109894356D01*
X124437432Y-109860679D01*
X124426347Y-109824139D01*
X124422000Y-109779997D01*
X124422000Y-108331073D01*
X124426347Y-108286931D01*
X124437432Y-108250391D01*
X124455433Y-108216714D01*
X124479659Y-108187194D01*
X124509179Y-108162968D01*
X124542856Y-108144967D01*
X124579396Y-108133882D01*
X124623538Y-108129535D01*
X125572462Y-108129535D01*
X125616604Y-108133882D01*
X125616604Y-108133882D01*
G37*
G36*
X122816604Y-108133882D02*
G01*
X122853144Y-108144967D01*
X122886821Y-108162968D01*
X122916341Y-108187194D01*
X122940567Y-108216714D01*
X122958568Y-108250391D01*
X122969653Y-108286931D01*
X122974000Y-108331073D01*
X122974000Y-109779997D01*
X122969653Y-109824139D01*
X122958568Y-109860679D01*
X122940567Y-109894356D01*
X122916341Y-109923876D01*
X122886821Y-109948102D01*
X122853144Y-109966103D01*
X122816604Y-109977188D01*
X122772462Y-109981535D01*
X121823538Y-109981535D01*
X121779396Y-109977188D01*
X121742856Y-109966103D01*
X121709179Y-109948102D01*
X121679659Y-109923876D01*
X121655433Y-109894356D01*
X121637432Y-109860679D01*
X121626347Y-109824139D01*
X121622000Y-109779997D01*
X121622000Y-108331073D01*
X121626347Y-108286931D01*
X121637432Y-108250391D01*
X121655433Y-108216714D01*
X121679659Y-108187194D01*
X121709179Y-108162968D01*
X121742856Y-108144967D01*
X121779396Y-108133882D01*
X121823538Y-108129535D01*
X122772462Y-108129535D01*
X122816604Y-108133882D01*
X122816604Y-108133882D01*
G37*
G36*
X128635284Y-108133882D02*
G01*
X128671824Y-108144967D01*
X128705501Y-108162968D01*
X128735021Y-108187194D01*
X128759247Y-108216714D01*
X128777248Y-108250391D01*
X128788333Y-108286931D01*
X128792680Y-108331073D01*
X128792680Y-109779997D01*
X128788333Y-109824139D01*
X128777248Y-109860679D01*
X128759247Y-109894356D01*
X128735021Y-109923876D01*
X128705501Y-109948102D01*
X128671824Y-109966103D01*
X128635284Y-109977188D01*
X128591142Y-109981535D01*
X127642218Y-109981535D01*
X127598076Y-109977188D01*
X127561536Y-109966103D01*
X127527859Y-109948102D01*
X127498339Y-109923876D01*
X127474113Y-109894356D01*
X127456112Y-109860679D01*
X127445027Y-109824139D01*
X127440680Y-109779997D01*
X127440680Y-108331073D01*
X127445027Y-108286931D01*
X127456112Y-108250391D01*
X127474113Y-108216714D01*
X127498339Y-108187194D01*
X127527859Y-108162968D01*
X127561536Y-108144967D01*
X127598076Y-108133882D01*
X127642218Y-108129535D01*
X128591142Y-108129535D01*
X128635284Y-108133882D01*
X128635284Y-108133882D01*
G37*
G36*
X161883400Y-109805100D02*
G01*
X159781400Y-109805100D01*
X159781400Y-108203100D01*
X161883400Y-108203100D01*
X161883400Y-109805100D01*
X161883400Y-109805100D01*
G37*
G36*
X177212300Y-109805100D02*
G01*
X175110300Y-109805100D01*
X175110300Y-108203100D01*
X177212300Y-108203100D01*
X177212300Y-109805100D01*
X177212300Y-109805100D01*
G37*
G36*
X145452000Y-109038000D02*
G01*
X143600000Y-109038000D01*
X143600000Y-108386000D01*
X145452000Y-108386000D01*
X145452000Y-109038000D01*
X145452000Y-109038000D01*
G37*
G36*
X138052000Y-109038000D02*
G01*
X136200000Y-109038000D01*
X136200000Y-108386000D01*
X138052000Y-108386000D01*
X138052000Y-109038000D01*
X138052000Y-109038000D01*
G37*
G36*
X145452000Y-107768000D02*
G01*
X143600000Y-107768000D01*
X143600000Y-107116000D01*
X145452000Y-107116000D01*
X145452000Y-107768000D01*
X145452000Y-107768000D01*
G37*
G36*
X138052000Y-107768000D02*
G01*
X136200000Y-107768000D01*
X136200000Y-107116000D01*
X138052000Y-107116000D01*
X138052000Y-107768000D01*
X138052000Y-107768000D01*
G37*
G36*
X177212300Y-107505100D02*
G01*
X175110300Y-107505100D01*
X175110300Y-105903100D01*
X177212300Y-105903100D01*
X177212300Y-107505100D01*
X177212300Y-107505100D01*
G37*
G36*
X161883400Y-107505100D02*
G01*
X159781400Y-107505100D01*
X159781400Y-105903100D01*
X161883400Y-105903100D01*
X161883400Y-107505100D01*
X161883400Y-107505100D01*
G37*
G36*
X157702504Y-106043447D02*
G01*
X157739044Y-106054532D01*
X157772721Y-106072533D01*
X157802241Y-106096759D01*
X157826467Y-106126279D01*
X157844468Y-106159956D01*
X157855553Y-106196496D01*
X157859900Y-106240638D01*
X157859900Y-107189562D01*
X157855553Y-107233704D01*
X157844468Y-107270244D01*
X157826467Y-107303921D01*
X157802241Y-107333441D01*
X157772721Y-107357667D01*
X157739044Y-107375668D01*
X157702504Y-107386753D01*
X157658362Y-107391100D01*
X156209438Y-107391100D01*
X156165296Y-107386753D01*
X156128756Y-107375668D01*
X156095079Y-107357667D01*
X156065559Y-107333441D01*
X156041333Y-107303921D01*
X156023332Y-107270244D01*
X156012247Y-107233704D01*
X156007900Y-107189562D01*
X156007900Y-106240638D01*
X156012247Y-106196496D01*
X156023332Y-106159956D01*
X156041333Y-106126279D01*
X156065559Y-106096759D01*
X156095079Y-106072533D01*
X156128756Y-106054532D01*
X156165296Y-106043447D01*
X156209438Y-106039100D01*
X157658362Y-106039100D01*
X157702504Y-106043447D01*
X157702504Y-106043447D01*
G37*
G36*
X174174404Y-106043447D02*
G01*
X174210944Y-106054532D01*
X174244621Y-106072533D01*
X174274141Y-106096759D01*
X174298367Y-106126279D01*
X174316368Y-106159956D01*
X174327453Y-106196496D01*
X174331800Y-106240638D01*
X174331800Y-107189562D01*
X174327453Y-107233704D01*
X174316368Y-107270244D01*
X174298367Y-107303921D01*
X174274141Y-107333441D01*
X174244621Y-107357667D01*
X174210944Y-107375668D01*
X174174404Y-107386753D01*
X174130262Y-107391100D01*
X172681338Y-107391100D01*
X172637196Y-107386753D01*
X172600656Y-107375668D01*
X172566979Y-107357667D01*
X172537459Y-107333441D01*
X172513233Y-107303921D01*
X172495232Y-107270244D01*
X172484147Y-107233704D01*
X172479800Y-107189562D01*
X172479800Y-106240638D01*
X172484147Y-106196496D01*
X172495232Y-106159956D01*
X172513233Y-106126279D01*
X172537459Y-106096759D01*
X172566979Y-106072533D01*
X172600656Y-106054532D01*
X172637196Y-106043447D01*
X172681338Y-106039100D01*
X174130262Y-106039100D01*
X174174404Y-106043447D01*
X174174404Y-106043447D01*
G37*
G36*
X138052000Y-106498000D02*
G01*
X136200000Y-106498000D01*
X136200000Y-105846000D01*
X138052000Y-105846000D01*
X138052000Y-106498000D01*
X138052000Y-106498000D01*
G37*
G36*
X145452000Y-106498000D02*
G01*
X143600000Y-106498000D01*
X143600000Y-105846000D01*
X145452000Y-105846000D01*
X145452000Y-106498000D01*
X145452000Y-106498000D01*
G37*
G36*
X108084604Y-104234347D02*
G01*
X108121144Y-104245432D01*
X108154821Y-104263433D01*
X108184341Y-104287659D01*
X108208567Y-104317179D01*
X108226568Y-104350856D01*
X108237653Y-104387396D01*
X108242000Y-104431538D01*
X108242000Y-105880462D01*
X108237653Y-105924604D01*
X108226568Y-105961144D01*
X108208567Y-105994821D01*
X108184341Y-106024341D01*
X108154821Y-106048567D01*
X108121144Y-106066568D01*
X108084604Y-106077653D01*
X108040462Y-106082000D01*
X107091538Y-106082000D01*
X107047396Y-106077653D01*
X107010856Y-106066568D01*
X106977179Y-106048567D01*
X106947659Y-106024341D01*
X106923433Y-105994821D01*
X106905432Y-105961144D01*
X106894347Y-105924604D01*
X106890000Y-105880462D01*
X106890000Y-104431538D01*
X106894347Y-104387396D01*
X106905432Y-104350856D01*
X106923433Y-104317179D01*
X106947659Y-104287659D01*
X106977179Y-104263433D01*
X107010856Y-104245432D01*
X107047396Y-104234347D01*
X107091538Y-104230000D01*
X108040462Y-104230000D01*
X108084604Y-104234347D01*
X108084604Y-104234347D01*
G37*
G36*
X116726604Y-104234347D02*
G01*
X116763144Y-104245432D01*
X116796821Y-104263433D01*
X116826341Y-104287659D01*
X116850567Y-104317179D01*
X116868568Y-104350856D01*
X116879653Y-104387396D01*
X116884000Y-104431538D01*
X116884000Y-105880462D01*
X116879653Y-105924604D01*
X116868568Y-105961144D01*
X116850567Y-105994821D01*
X116826341Y-106024341D01*
X116796821Y-106048567D01*
X116763144Y-106066568D01*
X116726604Y-106077653D01*
X116682462Y-106082000D01*
X115733538Y-106082000D01*
X115689396Y-106077653D01*
X115652856Y-106066568D01*
X115619179Y-106048567D01*
X115589659Y-106024341D01*
X115565433Y-105994821D01*
X115547432Y-105961144D01*
X115536347Y-105924604D01*
X115532000Y-105880462D01*
X115532000Y-104431538D01*
X115536347Y-104387396D01*
X115547432Y-104350856D01*
X115565433Y-104317179D01*
X115589659Y-104287659D01*
X115619179Y-104263433D01*
X115652856Y-104245432D01*
X115689396Y-104234347D01*
X115733538Y-104230000D01*
X116682462Y-104230000D01*
X116726604Y-104234347D01*
X116726604Y-104234347D01*
G37*
G36*
X110884604Y-104234347D02*
G01*
X110921144Y-104245432D01*
X110954821Y-104263433D01*
X110984341Y-104287659D01*
X111008567Y-104317179D01*
X111026568Y-104350856D01*
X111037653Y-104387396D01*
X111042000Y-104431538D01*
X111042000Y-105880462D01*
X111037653Y-105924604D01*
X111026568Y-105961144D01*
X111008567Y-105994821D01*
X110984341Y-106024341D01*
X110954821Y-106048567D01*
X110921144Y-106066568D01*
X110884604Y-106077653D01*
X110840462Y-106082000D01*
X109891538Y-106082000D01*
X109847396Y-106077653D01*
X109810856Y-106066568D01*
X109777179Y-106048567D01*
X109747659Y-106024341D01*
X109723433Y-105994821D01*
X109705432Y-105961144D01*
X109694347Y-105924604D01*
X109690000Y-105880462D01*
X109690000Y-104431538D01*
X109694347Y-104387396D01*
X109705432Y-104350856D01*
X109723433Y-104317179D01*
X109747659Y-104287659D01*
X109777179Y-104263433D01*
X109810856Y-104245432D01*
X109847396Y-104234347D01*
X109891538Y-104230000D01*
X110840462Y-104230000D01*
X110884604Y-104234347D01*
X110884604Y-104234347D01*
G37*
G36*
X113926604Y-104234347D02*
G01*
X113963144Y-104245432D01*
X113996821Y-104263433D01*
X114026341Y-104287659D01*
X114050567Y-104317179D01*
X114068568Y-104350856D01*
X114079653Y-104387396D01*
X114084000Y-104431538D01*
X114084000Y-105880462D01*
X114079653Y-105924604D01*
X114068568Y-105961144D01*
X114050567Y-105994821D01*
X114026341Y-106024341D01*
X113996821Y-106048567D01*
X113963144Y-106066568D01*
X113926604Y-106077653D01*
X113882462Y-106082000D01*
X112933538Y-106082000D01*
X112889396Y-106077653D01*
X112852856Y-106066568D01*
X112819179Y-106048567D01*
X112789659Y-106024341D01*
X112765433Y-105994821D01*
X112747432Y-105961144D01*
X112736347Y-105924604D01*
X112732000Y-105880462D01*
X112732000Y-104431538D01*
X112736347Y-104387396D01*
X112747432Y-104350856D01*
X112765433Y-104317179D01*
X112789659Y-104287659D01*
X112819179Y-104263433D01*
X112852856Y-104245432D01*
X112889396Y-104234347D01*
X112933538Y-104230000D01*
X113882462Y-104230000D01*
X113926604Y-104234347D01*
X113926604Y-104234347D01*
G37*
G36*
X151624004Y-102455000D02*
G01*
X151756359Y-102481327D01*
X152056822Y-102605783D01*
X152327231Y-102786465D01*
X152557195Y-103016429D01*
X152737877Y-103286838D01*
X152862333Y-103587301D01*
X152872292Y-103637368D01*
X152925780Y-103906269D01*
X152925780Y-104231491D01*
X152894768Y-104387396D01*
X152862333Y-104550459D01*
X152737877Y-104850922D01*
X152557195Y-105121331D01*
X152327231Y-105351295D01*
X152056822Y-105531977D01*
X151756359Y-105656433D01*
X151650036Y-105677582D01*
X151437391Y-105719880D01*
X151112169Y-105719880D01*
X150899524Y-105677582D01*
X150793201Y-105656433D01*
X150492738Y-105531977D01*
X150222329Y-105351295D01*
X149992365Y-105121331D01*
X149811683Y-104850922D01*
X149687227Y-104550459D01*
X149654792Y-104387396D01*
X149623780Y-104231491D01*
X149623780Y-103906269D01*
X149677268Y-103637368D01*
X149687227Y-103587301D01*
X149811683Y-103286838D01*
X149992365Y-103016429D01*
X150222329Y-102786465D01*
X150492738Y-102605783D01*
X150793201Y-102481327D01*
X150925556Y-102455000D01*
X151112169Y-102417880D01*
X151437391Y-102417880D01*
X151624004Y-102455000D01*
X151624004Y-102455000D01*
G37*
G36*
X131435284Y-103562517D02*
G01*
X131471824Y-103573602D01*
X131505501Y-103591603D01*
X131535021Y-103615829D01*
X131559247Y-103645349D01*
X131577248Y-103679026D01*
X131588333Y-103715566D01*
X131592680Y-103759708D01*
X131592680Y-105208632D01*
X131588333Y-105252774D01*
X131577248Y-105289314D01*
X131559247Y-105322991D01*
X131535021Y-105352511D01*
X131505501Y-105376737D01*
X131471824Y-105394738D01*
X131435284Y-105405823D01*
X131391142Y-105410170D01*
X130442218Y-105410170D01*
X130398076Y-105405823D01*
X130361536Y-105394738D01*
X130327859Y-105376737D01*
X130298339Y-105352511D01*
X130274113Y-105322991D01*
X130256112Y-105289314D01*
X130245027Y-105252774D01*
X130240680Y-105208632D01*
X130240680Y-103759708D01*
X130245027Y-103715566D01*
X130256112Y-103679026D01*
X130274113Y-103645349D01*
X130298339Y-103615829D01*
X130327859Y-103591603D01*
X130361536Y-103573602D01*
X130398076Y-103562517D01*
X130442218Y-103558170D01*
X131391142Y-103558170D01*
X131435284Y-103562517D01*
X131435284Y-103562517D01*
G37*
G36*
X128635284Y-103562517D02*
G01*
X128671824Y-103573602D01*
X128705501Y-103591603D01*
X128735021Y-103615829D01*
X128759247Y-103645349D01*
X128777248Y-103679026D01*
X128788333Y-103715566D01*
X128792680Y-103759708D01*
X128792680Y-105208632D01*
X128788333Y-105252774D01*
X128777248Y-105289314D01*
X128759247Y-105322991D01*
X128735021Y-105352511D01*
X128705501Y-105376737D01*
X128671824Y-105394738D01*
X128635284Y-105405823D01*
X128591142Y-105410170D01*
X127642218Y-105410170D01*
X127598076Y-105405823D01*
X127561536Y-105394738D01*
X127527859Y-105376737D01*
X127498339Y-105352511D01*
X127474113Y-105322991D01*
X127456112Y-105289314D01*
X127445027Y-105252774D01*
X127440680Y-105208632D01*
X127440680Y-103759708D01*
X127445027Y-103715566D01*
X127456112Y-103679026D01*
X127474113Y-103645349D01*
X127498339Y-103615829D01*
X127527859Y-103591603D01*
X127561536Y-103573602D01*
X127598076Y-103562517D01*
X127642218Y-103558170D01*
X128591142Y-103558170D01*
X128635284Y-103562517D01*
X128635284Y-103562517D01*
G37*
G36*
X125616604Y-103562517D02*
G01*
X125653144Y-103573602D01*
X125686821Y-103591603D01*
X125716341Y-103615829D01*
X125740567Y-103645349D01*
X125758568Y-103679026D01*
X125769653Y-103715566D01*
X125774000Y-103759708D01*
X125774000Y-105208632D01*
X125769653Y-105252774D01*
X125758568Y-105289314D01*
X125740567Y-105322991D01*
X125716341Y-105352511D01*
X125686821Y-105376737D01*
X125653144Y-105394738D01*
X125616604Y-105405823D01*
X125572462Y-105410170D01*
X124623538Y-105410170D01*
X124579396Y-105405823D01*
X124542856Y-105394738D01*
X124509179Y-105376737D01*
X124479659Y-105352511D01*
X124455433Y-105322991D01*
X124437432Y-105289314D01*
X124426347Y-105252774D01*
X124422000Y-105208632D01*
X124422000Y-103759708D01*
X124426347Y-103715566D01*
X124437432Y-103679026D01*
X124455433Y-103645349D01*
X124479659Y-103615829D01*
X124509179Y-103591603D01*
X124542856Y-103573602D01*
X124579396Y-103562517D01*
X124623538Y-103558170D01*
X125572462Y-103558170D01*
X125616604Y-103562517D01*
X125616604Y-103562517D01*
G37*
G36*
X122816604Y-103562517D02*
G01*
X122853144Y-103573602D01*
X122886821Y-103591603D01*
X122916341Y-103615829D01*
X122940567Y-103645349D01*
X122958568Y-103679026D01*
X122969653Y-103715566D01*
X122974000Y-103759708D01*
X122974000Y-105208632D01*
X122969653Y-105252774D01*
X122958568Y-105289314D01*
X122940567Y-105322991D01*
X122916341Y-105352511D01*
X122886821Y-105376737D01*
X122853144Y-105394738D01*
X122816604Y-105405823D01*
X122772462Y-105410170D01*
X121823538Y-105410170D01*
X121779396Y-105405823D01*
X121742856Y-105394738D01*
X121709179Y-105376737D01*
X121679659Y-105352511D01*
X121655433Y-105322991D01*
X121637432Y-105289314D01*
X121626347Y-105252774D01*
X121622000Y-105208632D01*
X121622000Y-103759708D01*
X121626347Y-103715566D01*
X121637432Y-103679026D01*
X121655433Y-103645349D01*
X121679659Y-103615829D01*
X121709179Y-103591603D01*
X121742856Y-103573602D01*
X121779396Y-103562517D01*
X121823538Y-103558170D01*
X122772462Y-103558170D01*
X122816604Y-103562517D01*
X122816604Y-103562517D01*
G37*
G36*
X170657000Y-102455000D02*
G01*
X169455000Y-102455000D01*
X169455000Y-101253000D01*
X170657000Y-101253000D01*
X170657000Y-102455000D01*
X170657000Y-102455000D01*
G37*
G36*
X167857000Y-102455000D02*
G01*
X166655000Y-102455000D01*
X166655000Y-101253000D01*
X167857000Y-101253000D01*
X167857000Y-102455000D01*
X167857000Y-102455000D01*
G37*
G36*
X145452000Y-101672000D02*
G01*
X143600000Y-101672000D01*
X143600000Y-101020000D01*
X145452000Y-101020000D01*
X145452000Y-101672000D01*
X145452000Y-101672000D01*
G37*
G36*
X138052000Y-101672000D02*
G01*
X136200000Y-101672000D01*
X136200000Y-101020000D01*
X138052000Y-101020000D01*
X138052000Y-101672000D01*
X138052000Y-101672000D01*
G37*
G36*
X190258266Y-98480000D02*
G01*
X190464910Y-98521104D01*
X190747174Y-98638021D01*
X191001205Y-98807759D01*
X191217241Y-99023795D01*
X191386979Y-99277826D01*
X191503896Y-99560090D01*
X191503896Y-99560091D01*
X191553905Y-99811500D01*
X191563500Y-99859740D01*
X191563500Y-100165260D01*
X191503896Y-100464910D01*
X191386979Y-100747174D01*
X191217241Y-101001205D01*
X191001205Y-101217241D01*
X190747174Y-101386979D01*
X190464910Y-101503896D01*
X190315085Y-101533698D01*
X190165261Y-101563500D01*
X189859739Y-101563500D01*
X189709915Y-101533698D01*
X189560090Y-101503896D01*
X189277826Y-101386979D01*
X189023795Y-101217241D01*
X188807759Y-101001205D01*
X188638021Y-100747174D01*
X188521104Y-100464910D01*
X188461500Y-100165260D01*
X188461500Y-99859740D01*
X188471096Y-99811500D01*
X188521104Y-99560091D01*
X188521104Y-99560090D01*
X188638021Y-99277826D01*
X188807759Y-99023795D01*
X189023795Y-98807759D01*
X189277826Y-98638021D01*
X189560090Y-98521104D01*
X189766734Y-98480000D01*
X189859739Y-98461500D01*
X190165261Y-98461500D01*
X190258266Y-98480000D01*
X190258266Y-98480000D01*
G37*
G36*
X205808266Y-98480000D02*
G01*
X206014910Y-98521104D01*
X206297174Y-98638021D01*
X206551205Y-98807759D01*
X206767241Y-99023795D01*
X206936979Y-99277826D01*
X207053896Y-99560090D01*
X207053896Y-99560091D01*
X207103905Y-99811500D01*
X207113500Y-99859740D01*
X207113500Y-100165260D01*
X207053896Y-100464910D01*
X206936979Y-100747174D01*
X206767241Y-101001205D01*
X206551205Y-101217241D01*
X206297174Y-101386979D01*
X206014910Y-101503896D01*
X205865085Y-101533698D01*
X205715261Y-101563500D01*
X205409739Y-101563500D01*
X205259915Y-101533698D01*
X205110090Y-101503896D01*
X204827826Y-101386979D01*
X204573795Y-101217241D01*
X204357759Y-101001205D01*
X204188021Y-100747174D01*
X204071104Y-100464910D01*
X204011500Y-100165260D01*
X204011500Y-99859740D01*
X204021096Y-99811500D01*
X204071104Y-99560091D01*
X204071104Y-99560090D01*
X204188021Y-99277826D01*
X204357759Y-99023795D01*
X204573795Y-98807759D01*
X204827826Y-98638021D01*
X205110090Y-98521104D01*
X205316734Y-98480000D01*
X205409739Y-98461500D01*
X205715261Y-98461500D01*
X205808266Y-98480000D01*
X205808266Y-98480000D01*
G37*
G36*
X122816604Y-98991152D02*
G01*
X122853144Y-99002237D01*
X122886821Y-99020238D01*
X122916341Y-99044464D01*
X122940567Y-99073984D01*
X122958568Y-99107661D01*
X122969653Y-99144201D01*
X122974000Y-99188343D01*
X122974000Y-100637267D01*
X122969653Y-100681409D01*
X122958568Y-100717949D01*
X122940567Y-100751626D01*
X122916341Y-100781146D01*
X122886821Y-100805372D01*
X122853144Y-100823373D01*
X122816604Y-100834458D01*
X122772462Y-100838805D01*
X121823538Y-100838805D01*
X121779396Y-100834458D01*
X121742856Y-100823373D01*
X121709179Y-100805372D01*
X121679659Y-100781146D01*
X121655433Y-100751626D01*
X121637432Y-100717949D01*
X121626347Y-100681409D01*
X121622000Y-100637267D01*
X121622000Y-99188343D01*
X121626347Y-99144201D01*
X121637432Y-99107661D01*
X121655433Y-99073984D01*
X121679659Y-99044464D01*
X121709179Y-99020238D01*
X121742856Y-99002237D01*
X121779396Y-98991152D01*
X121823538Y-98986805D01*
X122772462Y-98986805D01*
X122816604Y-98991152D01*
X122816604Y-98991152D01*
G37*
G36*
X131435284Y-98991152D02*
G01*
X131471824Y-99002237D01*
X131505501Y-99020238D01*
X131535021Y-99044464D01*
X131559247Y-99073984D01*
X131577248Y-99107661D01*
X131588333Y-99144201D01*
X131592680Y-99188343D01*
X131592680Y-100637267D01*
X131588333Y-100681409D01*
X131577248Y-100717949D01*
X131559247Y-100751626D01*
X131535021Y-100781146D01*
X131505501Y-100805372D01*
X131471824Y-100823373D01*
X131435284Y-100834458D01*
X131391142Y-100838805D01*
X130442218Y-100838805D01*
X130398076Y-100834458D01*
X130361536Y-100823373D01*
X130327859Y-100805372D01*
X130298339Y-100781146D01*
X130274113Y-100751626D01*
X130256112Y-100717949D01*
X130245027Y-100681409D01*
X130240680Y-100637267D01*
X130240680Y-99188343D01*
X130245027Y-99144201D01*
X130256112Y-99107661D01*
X130274113Y-99073984D01*
X130298339Y-99044464D01*
X130327859Y-99020238D01*
X130361536Y-99002237D01*
X130398076Y-98991152D01*
X130442218Y-98986805D01*
X131391142Y-98986805D01*
X131435284Y-98991152D01*
X131435284Y-98991152D01*
G37*
G36*
X128635284Y-98991152D02*
G01*
X128671824Y-99002237D01*
X128705501Y-99020238D01*
X128735021Y-99044464D01*
X128759247Y-99073984D01*
X128777248Y-99107661D01*
X128788333Y-99144201D01*
X128792680Y-99188343D01*
X128792680Y-100637267D01*
X128788333Y-100681409D01*
X128777248Y-100717949D01*
X128759247Y-100751626D01*
X128735021Y-100781146D01*
X128705501Y-100805372D01*
X128671824Y-100823373D01*
X128635284Y-100834458D01*
X128591142Y-100838805D01*
X127642218Y-100838805D01*
X127598076Y-100834458D01*
X127561536Y-100823373D01*
X127527859Y-100805372D01*
X127498339Y-100781146D01*
X127474113Y-100751626D01*
X127456112Y-100717949D01*
X127445027Y-100681409D01*
X127440680Y-100637267D01*
X127440680Y-99188343D01*
X127445027Y-99144201D01*
X127456112Y-99107661D01*
X127474113Y-99073984D01*
X127498339Y-99044464D01*
X127527859Y-99020238D01*
X127561536Y-99002237D01*
X127598076Y-98991152D01*
X127642218Y-98986805D01*
X128591142Y-98986805D01*
X128635284Y-98991152D01*
X128635284Y-98991152D01*
G37*
G36*
X110884604Y-98991152D02*
G01*
X110921144Y-99002237D01*
X110954821Y-99020238D01*
X110984341Y-99044464D01*
X111008567Y-99073984D01*
X111026568Y-99107661D01*
X111037653Y-99144201D01*
X111042000Y-99188343D01*
X111042000Y-100637267D01*
X111037653Y-100681409D01*
X111026568Y-100717949D01*
X111008567Y-100751626D01*
X110984341Y-100781146D01*
X110954821Y-100805372D01*
X110921144Y-100823373D01*
X110884604Y-100834458D01*
X110840462Y-100838805D01*
X109891538Y-100838805D01*
X109847396Y-100834458D01*
X109810856Y-100823373D01*
X109777179Y-100805372D01*
X109747659Y-100781146D01*
X109723433Y-100751626D01*
X109705432Y-100717949D01*
X109694347Y-100681409D01*
X109690000Y-100637267D01*
X109690000Y-99188343D01*
X109694347Y-99144201D01*
X109705432Y-99107661D01*
X109723433Y-99073984D01*
X109747659Y-99044464D01*
X109777179Y-99020238D01*
X109810856Y-99002237D01*
X109847396Y-98991152D01*
X109891538Y-98986805D01*
X110840462Y-98986805D01*
X110884604Y-98991152D01*
X110884604Y-98991152D01*
G37*
G36*
X108084604Y-98991152D02*
G01*
X108121144Y-99002237D01*
X108154821Y-99020238D01*
X108184341Y-99044464D01*
X108208567Y-99073984D01*
X108226568Y-99107661D01*
X108237653Y-99144201D01*
X108242000Y-99188343D01*
X108242000Y-100637267D01*
X108237653Y-100681409D01*
X108226568Y-100717949D01*
X108208567Y-100751626D01*
X108184341Y-100781146D01*
X108154821Y-100805372D01*
X108121144Y-100823373D01*
X108084604Y-100834458D01*
X108040462Y-100838805D01*
X107091538Y-100838805D01*
X107047396Y-100834458D01*
X107010856Y-100823373D01*
X106977179Y-100805372D01*
X106947659Y-100781146D01*
X106923433Y-100751626D01*
X106905432Y-100717949D01*
X106894347Y-100681409D01*
X106890000Y-100637267D01*
X106890000Y-99188343D01*
X106894347Y-99144201D01*
X106905432Y-99107661D01*
X106923433Y-99073984D01*
X106947659Y-99044464D01*
X106977179Y-99020238D01*
X107010856Y-99002237D01*
X107047396Y-98991152D01*
X107091538Y-98986805D01*
X108040462Y-98986805D01*
X108084604Y-98991152D01*
X108084604Y-98991152D01*
G37*
G36*
X116703284Y-98991152D02*
G01*
X116739824Y-99002237D01*
X116773501Y-99020238D01*
X116803021Y-99044464D01*
X116827247Y-99073984D01*
X116845248Y-99107661D01*
X116856333Y-99144201D01*
X116860680Y-99188343D01*
X116860680Y-100637267D01*
X116856333Y-100681409D01*
X116845248Y-100717949D01*
X116827247Y-100751626D01*
X116803021Y-100781146D01*
X116773501Y-100805372D01*
X116739824Y-100823373D01*
X116703284Y-100834458D01*
X116659142Y-100838805D01*
X115710218Y-100838805D01*
X115666076Y-100834458D01*
X115629536Y-100823373D01*
X115595859Y-100805372D01*
X115566339Y-100781146D01*
X115542113Y-100751626D01*
X115524112Y-100717949D01*
X115513027Y-100681409D01*
X115508680Y-100637267D01*
X115508680Y-99188343D01*
X115513027Y-99144201D01*
X115524112Y-99107661D01*
X115542113Y-99073984D01*
X115566339Y-99044464D01*
X115595859Y-99020238D01*
X115629536Y-99002237D01*
X115666076Y-98991152D01*
X115710218Y-98986805D01*
X116659142Y-98986805D01*
X116703284Y-98991152D01*
X116703284Y-98991152D01*
G37*
G36*
X125616604Y-98991152D02*
G01*
X125653144Y-99002237D01*
X125686821Y-99020238D01*
X125716341Y-99044464D01*
X125740567Y-99073984D01*
X125758568Y-99107661D01*
X125769653Y-99144201D01*
X125774000Y-99188343D01*
X125774000Y-100637267D01*
X125769653Y-100681409D01*
X125758568Y-100717949D01*
X125740567Y-100751626D01*
X125716341Y-100781146D01*
X125686821Y-100805372D01*
X125653144Y-100823373D01*
X125616604Y-100834458D01*
X125572462Y-100838805D01*
X124623538Y-100838805D01*
X124579396Y-100834458D01*
X124542856Y-100823373D01*
X124509179Y-100805372D01*
X124479659Y-100781146D01*
X124455433Y-100751626D01*
X124437432Y-100717949D01*
X124426347Y-100681409D01*
X124422000Y-100637267D01*
X124422000Y-99188343D01*
X124426347Y-99144201D01*
X124437432Y-99107661D01*
X124455433Y-99073984D01*
X124479659Y-99044464D01*
X124509179Y-99020238D01*
X124542856Y-99002237D01*
X124579396Y-98991152D01*
X124623538Y-98986805D01*
X125572462Y-98986805D01*
X125616604Y-98991152D01*
X125616604Y-98991152D01*
G37*
G36*
X113903284Y-98991152D02*
G01*
X113939824Y-99002237D01*
X113973501Y-99020238D01*
X114003021Y-99044464D01*
X114027247Y-99073984D01*
X114045248Y-99107661D01*
X114056333Y-99144201D01*
X114060680Y-99188343D01*
X114060680Y-100637267D01*
X114056333Y-100681409D01*
X114045248Y-100717949D01*
X114027247Y-100751626D01*
X114003021Y-100781146D01*
X113973501Y-100805372D01*
X113939824Y-100823373D01*
X113903284Y-100834458D01*
X113859142Y-100838805D01*
X112910218Y-100838805D01*
X112866076Y-100834458D01*
X112829536Y-100823373D01*
X112795859Y-100805372D01*
X112766339Y-100781146D01*
X112742113Y-100751626D01*
X112724112Y-100717949D01*
X112713027Y-100681409D01*
X112708680Y-100637267D01*
X112708680Y-99188343D01*
X112713027Y-99144201D01*
X112724112Y-99107661D01*
X112742113Y-99073984D01*
X112766339Y-99044464D01*
X112795859Y-99020238D01*
X112829536Y-99002237D01*
X112866076Y-98991152D01*
X112910218Y-98986805D01*
X113859142Y-98986805D01*
X113903284Y-98991152D01*
X113903284Y-98991152D01*
G37*
G36*
X138052000Y-100402000D02*
G01*
X136200000Y-100402000D01*
X136200000Y-99750000D01*
X138052000Y-99750000D01*
X138052000Y-100402000D01*
X138052000Y-100402000D01*
G37*
G36*
X145452000Y-100402000D02*
G01*
X143600000Y-100402000D01*
X143600000Y-99750000D01*
X145452000Y-99750000D01*
X145452000Y-100402000D01*
X145452000Y-100402000D01*
G37*
G36*
X161883400Y-99811500D02*
G01*
X159781400Y-99811500D01*
X159781400Y-98209500D01*
X161883400Y-98209500D01*
X161883400Y-99811500D01*
X161883400Y-99811500D01*
G37*
G36*
X177212300Y-99633700D02*
G01*
X175110300Y-99633700D01*
X175110300Y-98031700D01*
X177212300Y-98031700D01*
X177212300Y-99633700D01*
X177212300Y-99633700D01*
G37*
G36*
X145452000Y-99132000D02*
G01*
X143600000Y-99132000D01*
X143600000Y-98480000D01*
X145452000Y-98480000D01*
X145452000Y-99132000D01*
X145452000Y-99132000D01*
G37*
G36*
X138052000Y-99132000D02*
G01*
X136200000Y-99132000D01*
X136200000Y-98480000D01*
X138052000Y-98480000D01*
X138052000Y-99132000D01*
X138052000Y-99132000D01*
G37*
G36*
X168183400Y-98661500D02*
G01*
X166081400Y-98661500D01*
X166081400Y-94759500D01*
X168183400Y-94759500D01*
X168183400Y-98661500D01*
X168183400Y-98661500D01*
G37*
G36*
X183512300Y-98483700D02*
G01*
X181410300Y-98483700D01*
X181410300Y-94581700D01*
X183512300Y-94581700D01*
X183512300Y-98483700D01*
X183512300Y-98483700D01*
G37*
G36*
X138052000Y-97862000D02*
G01*
X136200000Y-97862000D01*
X136200000Y-97210000D01*
X138052000Y-97210000D01*
X138052000Y-97862000D01*
X138052000Y-97862000D01*
G37*
G36*
X145452000Y-97862000D02*
G01*
X143600000Y-97862000D01*
X143600000Y-97210000D01*
X145452000Y-97210000D01*
X145452000Y-97862000D01*
X145452000Y-97862000D01*
G37*
G36*
X157588204Y-96511747D02*
G01*
X157624744Y-96522832D01*
X157658421Y-96540833D01*
X157687941Y-96565059D01*
X157712167Y-96594579D01*
X157730168Y-96628256D01*
X157741253Y-96664796D01*
X157745600Y-96708938D01*
X157745600Y-97657862D01*
X157741253Y-97702004D01*
X157730168Y-97738544D01*
X157712167Y-97772221D01*
X157687941Y-97801741D01*
X157658421Y-97825967D01*
X157624744Y-97843968D01*
X157588204Y-97855053D01*
X157544062Y-97859400D01*
X156095138Y-97859400D01*
X156050996Y-97855053D01*
X156014456Y-97843968D01*
X155980779Y-97825967D01*
X155951259Y-97801741D01*
X155927033Y-97772221D01*
X155909032Y-97738544D01*
X155897947Y-97702004D01*
X155893600Y-97657862D01*
X155893600Y-96708938D01*
X155897947Y-96664796D01*
X155909032Y-96628256D01*
X155927033Y-96594579D01*
X155951259Y-96565059D01*
X155980779Y-96540833D01*
X156014456Y-96522832D01*
X156050996Y-96511747D01*
X156095138Y-96507400D01*
X157544062Y-96507400D01*
X157588204Y-96511747D01*
X157588204Y-96511747D01*
G37*
G36*
X161883400Y-97511500D02*
G01*
X159781400Y-97511500D01*
X159781400Y-95909500D01*
X161883400Y-95909500D01*
X161883400Y-97511500D01*
X161883400Y-97511500D01*
G37*
G36*
X177212300Y-97333700D02*
G01*
X175110300Y-97333700D01*
X175110300Y-95731700D01*
X177212300Y-95731700D01*
X177212300Y-97333700D01*
X177212300Y-97333700D01*
G37*
G36*
X131435284Y-94419787D02*
G01*
X131471824Y-94430872D01*
X131505501Y-94448873D01*
X131535021Y-94473099D01*
X131559247Y-94502619D01*
X131577248Y-94536296D01*
X131588333Y-94572836D01*
X131592680Y-94616978D01*
X131592680Y-96065902D01*
X131588333Y-96110044D01*
X131577248Y-96146584D01*
X131559247Y-96180261D01*
X131535021Y-96209781D01*
X131505501Y-96234007D01*
X131471824Y-96252008D01*
X131435284Y-96263093D01*
X131391142Y-96267440D01*
X130442218Y-96267440D01*
X130398076Y-96263093D01*
X130361536Y-96252008D01*
X130327859Y-96234007D01*
X130298339Y-96209781D01*
X130274113Y-96180261D01*
X130256112Y-96146584D01*
X130245027Y-96110044D01*
X130240680Y-96065902D01*
X130240680Y-94616978D01*
X130245027Y-94572836D01*
X130256112Y-94536296D01*
X130274113Y-94502619D01*
X130298339Y-94473099D01*
X130327859Y-94448873D01*
X130361536Y-94430872D01*
X130398076Y-94419787D01*
X130442218Y-94415440D01*
X131391142Y-94415440D01*
X131435284Y-94419787D01*
X131435284Y-94419787D01*
G37*
G36*
X110884604Y-94419787D02*
G01*
X110921144Y-94430872D01*
X110954821Y-94448873D01*
X110984341Y-94473099D01*
X111008567Y-94502619D01*
X111026568Y-94536296D01*
X111037653Y-94572836D01*
X111042000Y-94616978D01*
X111042000Y-96065902D01*
X111037653Y-96110044D01*
X111026568Y-96146584D01*
X111008567Y-96180261D01*
X110984341Y-96209781D01*
X110954821Y-96234007D01*
X110921144Y-96252008D01*
X110884604Y-96263093D01*
X110840462Y-96267440D01*
X109891538Y-96267440D01*
X109847396Y-96263093D01*
X109810856Y-96252008D01*
X109777179Y-96234007D01*
X109747659Y-96209781D01*
X109723433Y-96180261D01*
X109705432Y-96146584D01*
X109694347Y-96110044D01*
X109690000Y-96065902D01*
X109690000Y-94616978D01*
X109694347Y-94572836D01*
X109705432Y-94536296D01*
X109723433Y-94502619D01*
X109747659Y-94473099D01*
X109777179Y-94448873D01*
X109810856Y-94430872D01*
X109847396Y-94419787D01*
X109891538Y-94415440D01*
X110840462Y-94415440D01*
X110884604Y-94419787D01*
X110884604Y-94419787D01*
G37*
G36*
X128635284Y-94419787D02*
G01*
X128671824Y-94430872D01*
X128705501Y-94448873D01*
X128735021Y-94473099D01*
X128759247Y-94502619D01*
X128777248Y-94536296D01*
X128788333Y-94572836D01*
X128792680Y-94616978D01*
X128792680Y-96065902D01*
X128788333Y-96110044D01*
X128777248Y-96146584D01*
X128759247Y-96180261D01*
X128735021Y-96209781D01*
X128705501Y-96234007D01*
X128671824Y-96252008D01*
X128635284Y-96263093D01*
X128591142Y-96267440D01*
X127642218Y-96267440D01*
X127598076Y-96263093D01*
X127561536Y-96252008D01*
X127527859Y-96234007D01*
X127498339Y-96209781D01*
X127474113Y-96180261D01*
X127456112Y-96146584D01*
X127445027Y-96110044D01*
X127440680Y-96065902D01*
X127440680Y-94616978D01*
X127445027Y-94572836D01*
X127456112Y-94536296D01*
X127474113Y-94502619D01*
X127498339Y-94473099D01*
X127527859Y-94448873D01*
X127561536Y-94430872D01*
X127598076Y-94419787D01*
X127642218Y-94415440D01*
X128591142Y-94415440D01*
X128635284Y-94419787D01*
X128635284Y-94419787D01*
G37*
G36*
X125616604Y-94419787D02*
G01*
X125653144Y-94430872D01*
X125686821Y-94448873D01*
X125716341Y-94473099D01*
X125740567Y-94502619D01*
X125758568Y-94536296D01*
X125769653Y-94572836D01*
X125774000Y-94616978D01*
X125774000Y-96065902D01*
X125769653Y-96110044D01*
X125758568Y-96146584D01*
X125740567Y-96180261D01*
X125716341Y-96209781D01*
X125686821Y-96234007D01*
X125653144Y-96252008D01*
X125616604Y-96263093D01*
X125572462Y-96267440D01*
X124623538Y-96267440D01*
X124579396Y-96263093D01*
X124542856Y-96252008D01*
X124509179Y-96234007D01*
X124479659Y-96209781D01*
X124455433Y-96180261D01*
X124437432Y-96146584D01*
X124426347Y-96110044D01*
X124422000Y-96065902D01*
X124422000Y-94616978D01*
X124426347Y-94572836D01*
X124437432Y-94536296D01*
X124455433Y-94502619D01*
X124479659Y-94473099D01*
X124509179Y-94448873D01*
X124542856Y-94430872D01*
X124579396Y-94419787D01*
X124623538Y-94415440D01*
X125572462Y-94415440D01*
X125616604Y-94419787D01*
X125616604Y-94419787D01*
G37*
G36*
X116703284Y-94419787D02*
G01*
X116739824Y-94430872D01*
X116773501Y-94448873D01*
X116803021Y-94473099D01*
X116827247Y-94502619D01*
X116845248Y-94536296D01*
X116856333Y-94572836D01*
X116860680Y-94616978D01*
X116860680Y-96065902D01*
X116856333Y-96110044D01*
X116845248Y-96146584D01*
X116827247Y-96180261D01*
X116803021Y-96209781D01*
X116773501Y-96234007D01*
X116739824Y-96252008D01*
X116703284Y-96263093D01*
X116659142Y-96267440D01*
X115710218Y-96267440D01*
X115666076Y-96263093D01*
X115629536Y-96252008D01*
X115595859Y-96234007D01*
X115566339Y-96209781D01*
X115542113Y-96180261D01*
X115524112Y-96146584D01*
X115513027Y-96110044D01*
X115508680Y-96065902D01*
X115508680Y-94616978D01*
X115513027Y-94572836D01*
X115524112Y-94536296D01*
X115542113Y-94502619D01*
X115566339Y-94473099D01*
X115595859Y-94448873D01*
X115629536Y-94430872D01*
X115666076Y-94419787D01*
X115710218Y-94415440D01*
X116659142Y-94415440D01*
X116703284Y-94419787D01*
X116703284Y-94419787D01*
G37*
G36*
X108084604Y-94419787D02*
G01*
X108121144Y-94430872D01*
X108154821Y-94448873D01*
X108184341Y-94473099D01*
X108208567Y-94502619D01*
X108226568Y-94536296D01*
X108237653Y-94572836D01*
X108242000Y-94616978D01*
X108242000Y-96065902D01*
X108237653Y-96110044D01*
X108226568Y-96146584D01*
X108208567Y-96180261D01*
X108184341Y-96209781D01*
X108154821Y-96234007D01*
X108121144Y-96252008D01*
X108084604Y-96263093D01*
X108040462Y-96267440D01*
X107091538Y-96267440D01*
X107047396Y-96263093D01*
X107010856Y-96252008D01*
X106977179Y-96234007D01*
X106947659Y-96209781D01*
X106923433Y-96180261D01*
X106905432Y-96146584D01*
X106894347Y-96110044D01*
X106890000Y-96065902D01*
X106890000Y-94616978D01*
X106894347Y-94572836D01*
X106905432Y-94536296D01*
X106923433Y-94502619D01*
X106947659Y-94473099D01*
X106977179Y-94448873D01*
X107010856Y-94430872D01*
X107047396Y-94419787D01*
X107091538Y-94415440D01*
X108040462Y-94415440D01*
X108084604Y-94419787D01*
X108084604Y-94419787D01*
G37*
G36*
X122816604Y-94419787D02*
G01*
X122853144Y-94430872D01*
X122886821Y-94448873D01*
X122916341Y-94473099D01*
X122940567Y-94502619D01*
X122958568Y-94536296D01*
X122969653Y-94572836D01*
X122974000Y-94616978D01*
X122974000Y-96065902D01*
X122969653Y-96110044D01*
X122958568Y-96146584D01*
X122940567Y-96180261D01*
X122916341Y-96209781D01*
X122886821Y-96234007D01*
X122853144Y-96252008D01*
X122816604Y-96263093D01*
X122772462Y-96267440D01*
X121823538Y-96267440D01*
X121779396Y-96263093D01*
X121742856Y-96252008D01*
X121709179Y-96234007D01*
X121679659Y-96209781D01*
X121655433Y-96180261D01*
X121637432Y-96146584D01*
X121626347Y-96110044D01*
X121622000Y-96065902D01*
X121622000Y-94616978D01*
X121626347Y-94572836D01*
X121637432Y-94536296D01*
X121655433Y-94502619D01*
X121679659Y-94473099D01*
X121709179Y-94448873D01*
X121742856Y-94430872D01*
X121779396Y-94419787D01*
X121823538Y-94415440D01*
X122772462Y-94415440D01*
X122816604Y-94419787D01*
X122816604Y-94419787D01*
G37*
G36*
X113903284Y-94419787D02*
G01*
X113939824Y-94430872D01*
X113973501Y-94448873D01*
X114003021Y-94473099D01*
X114027247Y-94502619D01*
X114045248Y-94536296D01*
X114056333Y-94572836D01*
X114060680Y-94616978D01*
X114060680Y-96065902D01*
X114056333Y-96110044D01*
X114045248Y-96146584D01*
X114027247Y-96180261D01*
X114003021Y-96209781D01*
X113973501Y-96234007D01*
X113939824Y-96252008D01*
X113903284Y-96263093D01*
X113859142Y-96267440D01*
X112910218Y-96267440D01*
X112866076Y-96263093D01*
X112829536Y-96252008D01*
X112795859Y-96234007D01*
X112766339Y-96209781D01*
X112742113Y-96180261D01*
X112724112Y-96146584D01*
X112713027Y-96110044D01*
X112708680Y-96065902D01*
X112708680Y-94616978D01*
X112713027Y-94572836D01*
X112724112Y-94536296D01*
X112742113Y-94502619D01*
X112766339Y-94473099D01*
X112795859Y-94448873D01*
X112829536Y-94430872D01*
X112866076Y-94419787D01*
X112910218Y-94415440D01*
X113859142Y-94415440D01*
X113903284Y-94419787D01*
X113903284Y-94419787D01*
G37*
G36*
X161883400Y-95211500D02*
G01*
X159781400Y-95211500D01*
X159781400Y-93609500D01*
X161883400Y-93609500D01*
X161883400Y-95211500D01*
X161883400Y-95211500D01*
G37*
G36*
X157588204Y-93711747D02*
G01*
X157624744Y-93722832D01*
X157658421Y-93740833D01*
X157687941Y-93765059D01*
X157712167Y-93794579D01*
X157730168Y-93828256D01*
X157741253Y-93864796D01*
X157745600Y-93908938D01*
X157745600Y-94857862D01*
X157741253Y-94902004D01*
X157730168Y-94938544D01*
X157712167Y-94972221D01*
X157687941Y-95001741D01*
X157658421Y-95025967D01*
X157624744Y-95043968D01*
X157588204Y-95055053D01*
X157544062Y-95059400D01*
X156095138Y-95059400D01*
X156050996Y-95055053D01*
X156014456Y-95043968D01*
X155980779Y-95025967D01*
X155951259Y-95001741D01*
X155927033Y-94972221D01*
X155909032Y-94938544D01*
X155897947Y-94902004D01*
X155893600Y-94857862D01*
X155893600Y-93908938D01*
X155897947Y-93864796D01*
X155909032Y-93828256D01*
X155927033Y-93794579D01*
X155951259Y-93765059D01*
X155980779Y-93740833D01*
X156014456Y-93722832D01*
X156050996Y-93711747D01*
X156095138Y-93707400D01*
X157544062Y-93707400D01*
X157588204Y-93711747D01*
X157588204Y-93711747D01*
G37*
G36*
X177212300Y-95033700D02*
G01*
X175110300Y-95033700D01*
X175110300Y-93431700D01*
X177212300Y-93431700D01*
X177212300Y-95033700D01*
X177212300Y-95033700D01*
G37*
G36*
X197898004Y-91863547D02*
G01*
X197934544Y-91874632D01*
X197968221Y-91892633D01*
X197997741Y-91916859D01*
X198021967Y-91946379D01*
X198039968Y-91980056D01*
X198051053Y-92016596D01*
X198055400Y-92060738D01*
X198055400Y-93009662D01*
X198051053Y-93053804D01*
X198039968Y-93090344D01*
X198021967Y-93124021D01*
X197997741Y-93153541D01*
X197968221Y-93177767D01*
X197934544Y-93195768D01*
X197898004Y-93206853D01*
X197853862Y-93211200D01*
X196404938Y-93211200D01*
X196360796Y-93206853D01*
X196324256Y-93195768D01*
X196290579Y-93177767D01*
X196261059Y-93153541D01*
X196236833Y-93124021D01*
X196218832Y-93090344D01*
X196207747Y-93053804D01*
X196203400Y-93009662D01*
X196203400Y-92060738D01*
X196207747Y-92016596D01*
X196218832Y-91980056D01*
X196236833Y-91946379D01*
X196261059Y-91916859D01*
X196290579Y-91892633D01*
X196324256Y-91874632D01*
X196360796Y-91863547D01*
X196404938Y-91859200D01*
X197853862Y-91859200D01*
X197898004Y-91863547D01*
X197898004Y-91863547D01*
G37*
G36*
X191062900Y-93136200D02*
G01*
X189860900Y-93136200D01*
X189860900Y-91934200D01*
X191062900Y-91934200D01*
X191062900Y-93136200D01*
X191062900Y-93136200D01*
G37*
G36*
X205787811Y-88974151D02*
G01*
X206115572Y-89109914D01*
X206410550Y-89307012D01*
X206661408Y-89557870D01*
X206858506Y-89852848D01*
X206994269Y-90180609D01*
X207063480Y-90528556D01*
X207063480Y-90883324D01*
X206994269Y-91231271D01*
X206858506Y-91559032D01*
X206661408Y-91854010D01*
X206410550Y-92104868D01*
X206115572Y-92301966D01*
X205787811Y-92437729D01*
X205439864Y-92506940D01*
X205085096Y-92506940D01*
X204737149Y-92437729D01*
X204409388Y-92301966D01*
X204114410Y-92104868D01*
X203863552Y-91854010D01*
X203666454Y-91559032D01*
X203530691Y-91231271D01*
X203461480Y-90883324D01*
X203461480Y-90528556D01*
X203530691Y-90180609D01*
X203666454Y-89852848D01*
X203863552Y-89557870D01*
X204114410Y-89307012D01*
X204409388Y-89109914D01*
X204737149Y-88974151D01*
X205085096Y-88904940D01*
X205439864Y-88904940D01*
X205787811Y-88974151D01*
X205787811Y-88974151D01*
G37*
G36*
X175780036Y-87220178D02*
G01*
X175886359Y-87241327D01*
X176186822Y-87365783D01*
X176457231Y-87546465D01*
X176687195Y-87776429D01*
X176867877Y-88046838D01*
X176867878Y-88046840D01*
X176992333Y-88347302D01*
X177055780Y-88666269D01*
X177055780Y-88991491D01*
X177027393Y-89134200D01*
X176992333Y-89310459D01*
X176980319Y-89339463D01*
X176875292Y-89593022D01*
X176867877Y-89610922D01*
X176687195Y-89881331D01*
X176457231Y-90111295D01*
X176186822Y-90291977D01*
X175886359Y-90416433D01*
X175780036Y-90437582D01*
X175567391Y-90479880D01*
X175242169Y-90479880D01*
X175029524Y-90437582D01*
X174923201Y-90416433D01*
X174622738Y-90291977D01*
X174352329Y-90111295D01*
X174122365Y-89881331D01*
X173941683Y-89610922D01*
X173934269Y-89593022D01*
X173829241Y-89339463D01*
X173817227Y-89310459D01*
X173782167Y-89134200D01*
X173753780Y-88991491D01*
X173753780Y-88666269D01*
X173817227Y-88347302D01*
X173941682Y-88046840D01*
X173941683Y-88046838D01*
X174122365Y-87776429D01*
X174352329Y-87546465D01*
X174622738Y-87365783D01*
X174923201Y-87241327D01*
X175029524Y-87220178D01*
X175242169Y-87177880D01*
X175567391Y-87177880D01*
X175780036Y-87220178D01*
X175780036Y-87220178D01*
G37*
G36*
X100850036Y-87220178D02*
G01*
X100956359Y-87241327D01*
X101256822Y-87365783D01*
X101527231Y-87546465D01*
X101757195Y-87776429D01*
X101937877Y-88046838D01*
X101937878Y-88046840D01*
X102062333Y-88347302D01*
X102125780Y-88666269D01*
X102125780Y-88991491D01*
X102097393Y-89134200D01*
X102062333Y-89310459D01*
X102050319Y-89339463D01*
X101945292Y-89593022D01*
X101937877Y-89610922D01*
X101757195Y-89881331D01*
X101527231Y-90111295D01*
X101256822Y-90291977D01*
X100956359Y-90416433D01*
X100850036Y-90437582D01*
X100637391Y-90479880D01*
X100312169Y-90479880D01*
X100099524Y-90437582D01*
X99993201Y-90416433D01*
X99692738Y-90291977D01*
X99422329Y-90111295D01*
X99192365Y-89881331D01*
X99011683Y-89610922D01*
X99004269Y-89593022D01*
X98899241Y-89339463D01*
X98887227Y-89310459D01*
X98852167Y-89134200D01*
X98823780Y-88991491D01*
X98823780Y-88666269D01*
X98887227Y-88347302D01*
X99011682Y-88046840D01*
X99011683Y-88046838D01*
X99192365Y-87776429D01*
X99422329Y-87546465D01*
X99692738Y-87365783D01*
X99993201Y-87241327D01*
X100099524Y-87220178D01*
X100312169Y-87177880D01*
X100637391Y-87177880D01*
X100850036Y-87220178D01*
X100850036Y-87220178D01*
G37*
G36*
X197898004Y-89063547D02*
G01*
X197934544Y-89074632D01*
X197968221Y-89092633D01*
X197997741Y-89116859D01*
X198021967Y-89146379D01*
X198039968Y-89180056D01*
X198051053Y-89216596D01*
X198055400Y-89260738D01*
X198055400Y-90209662D01*
X198051053Y-90253804D01*
X198039968Y-90290344D01*
X198021967Y-90324021D01*
X197997741Y-90353541D01*
X197968221Y-90377767D01*
X197934544Y-90395768D01*
X197898004Y-90406853D01*
X197853862Y-90411200D01*
X196404938Y-90411200D01*
X196360796Y-90406853D01*
X196324256Y-90395768D01*
X196290579Y-90377767D01*
X196261059Y-90353541D01*
X196236833Y-90324021D01*
X196218832Y-90290344D01*
X196207747Y-90253804D01*
X196203400Y-90209662D01*
X196203400Y-89260738D01*
X196207747Y-89216596D01*
X196218832Y-89180056D01*
X196236833Y-89146379D01*
X196261059Y-89116859D01*
X196290579Y-89092633D01*
X196324256Y-89074632D01*
X196360796Y-89063547D01*
X196404938Y-89059200D01*
X197853862Y-89059200D01*
X197898004Y-89063547D01*
X197898004Y-89063547D01*
G37*
G36*
X191062900Y-90336200D02*
G01*
X189860900Y-90336200D01*
X189860900Y-89134200D01*
X191062900Y-89134200D01*
X191062900Y-90336200D01*
X191062900Y-90336200D01*
G37*
G36*
X127070074Y-87927513D02*
G01*
X127242475Y-87979811D01*
X127401363Y-88064738D01*
X127540629Y-88179031D01*
X127654922Y-88318297D01*
X127739849Y-88477185D01*
X127792147Y-88649586D01*
X127809805Y-88828880D01*
X127792147Y-89008174D01*
X127739849Y-89180575D01*
X127654922Y-89339463D01*
X127540629Y-89478729D01*
X127401363Y-89593022D01*
X127242475Y-89677949D01*
X127070074Y-89730247D01*
X126935711Y-89743480D01*
X126845849Y-89743480D01*
X126711486Y-89730247D01*
X126539085Y-89677949D01*
X126380197Y-89593022D01*
X126240931Y-89478729D01*
X126126638Y-89339463D01*
X126041711Y-89180575D01*
X125989413Y-89008174D01*
X125971755Y-88828880D01*
X125989413Y-88649586D01*
X126041711Y-88477185D01*
X126126638Y-88318297D01*
X126240931Y-88179031D01*
X126380197Y-88064738D01*
X126539085Y-87979811D01*
X126711486Y-87927513D01*
X126845849Y-87914280D01*
X126935711Y-87914280D01*
X127070074Y-87927513D01*
X127070074Y-87927513D01*
G37*
G36*
X146374074Y-87927513D02*
G01*
X146546475Y-87979811D01*
X146705363Y-88064738D01*
X146844629Y-88179031D01*
X146958922Y-88318297D01*
X147043849Y-88477185D01*
X147096147Y-88649586D01*
X147113805Y-88828880D01*
X147096147Y-89008174D01*
X147043849Y-89180575D01*
X146958922Y-89339463D01*
X146844629Y-89478729D01*
X146705363Y-89593022D01*
X146546475Y-89677949D01*
X146374074Y-89730247D01*
X146239711Y-89743480D01*
X146149849Y-89743480D01*
X146015486Y-89730247D01*
X145843085Y-89677949D01*
X145684197Y-89593022D01*
X145544931Y-89478729D01*
X145430638Y-89339463D01*
X145345711Y-89180575D01*
X145293413Y-89008174D01*
X145275755Y-88828880D01*
X145293413Y-88649586D01*
X145345711Y-88477185D01*
X145430638Y-88318297D01*
X145544931Y-88179031D01*
X145684197Y-88064738D01*
X145843085Y-87979811D01*
X146015486Y-87927513D01*
X146149849Y-87914280D01*
X146239711Y-87914280D01*
X146374074Y-87927513D01*
X146374074Y-87927513D01*
G37*
G36*
X131134074Y-87927513D02*
G01*
X131306475Y-87979811D01*
X131465363Y-88064738D01*
X131604629Y-88179031D01*
X131718922Y-88318297D01*
X131803849Y-88477185D01*
X131856147Y-88649586D01*
X131873805Y-88828880D01*
X131856147Y-89008174D01*
X131803849Y-89180575D01*
X131718922Y-89339463D01*
X131604629Y-89478729D01*
X131465363Y-89593022D01*
X131306475Y-89677949D01*
X131134074Y-89730247D01*
X130999711Y-89743480D01*
X130909849Y-89743480D01*
X130775486Y-89730247D01*
X130603085Y-89677949D01*
X130444197Y-89593022D01*
X130304931Y-89478729D01*
X130190638Y-89339463D01*
X130105711Y-89180575D01*
X130053413Y-89008174D01*
X130035755Y-88828880D01*
X130053413Y-88649586D01*
X130105711Y-88477185D01*
X130190638Y-88318297D01*
X130304931Y-88179031D01*
X130444197Y-88064738D01*
X130603085Y-87979811D01*
X130775486Y-87927513D01*
X130909849Y-87914280D01*
X130999711Y-87914280D01*
X131134074Y-87927513D01*
X131134074Y-87927513D01*
G37*
G36*
X133674074Y-87927513D02*
G01*
X133846475Y-87979811D01*
X134005363Y-88064738D01*
X134144629Y-88179031D01*
X134258922Y-88318297D01*
X134343849Y-88477185D01*
X134396147Y-88649586D01*
X134413805Y-88828880D01*
X134396147Y-89008174D01*
X134343849Y-89180575D01*
X134258922Y-89339463D01*
X134144629Y-89478729D01*
X134005363Y-89593022D01*
X133846475Y-89677949D01*
X133674074Y-89730247D01*
X133539711Y-89743480D01*
X133449849Y-89743480D01*
X133315486Y-89730247D01*
X133143085Y-89677949D01*
X132984197Y-89593022D01*
X132844931Y-89478729D01*
X132730638Y-89339463D01*
X132645711Y-89180575D01*
X132593413Y-89008174D01*
X132575755Y-88828880D01*
X132593413Y-88649586D01*
X132645711Y-88477185D01*
X132730638Y-88318297D01*
X132844931Y-88179031D01*
X132984197Y-88064738D01*
X133143085Y-87979811D01*
X133315486Y-87927513D01*
X133449849Y-87914280D01*
X133539711Y-87914280D01*
X133674074Y-87927513D01*
X133674074Y-87927513D01*
G37*
G36*
X136214074Y-87927513D02*
G01*
X136386475Y-87979811D01*
X136545363Y-88064738D01*
X136684629Y-88179031D01*
X136798922Y-88318297D01*
X136883849Y-88477185D01*
X136936147Y-88649586D01*
X136953805Y-88828880D01*
X136936147Y-89008174D01*
X136883849Y-89180575D01*
X136798922Y-89339463D01*
X136684629Y-89478729D01*
X136545363Y-89593022D01*
X136386475Y-89677949D01*
X136214074Y-89730247D01*
X136079711Y-89743480D01*
X135989849Y-89743480D01*
X135855486Y-89730247D01*
X135683085Y-89677949D01*
X135524197Y-89593022D01*
X135384931Y-89478729D01*
X135270638Y-89339463D01*
X135185711Y-89180575D01*
X135133413Y-89008174D01*
X135115755Y-88828880D01*
X135133413Y-88649586D01*
X135185711Y-88477185D01*
X135270638Y-88318297D01*
X135384931Y-88179031D01*
X135524197Y-88064738D01*
X135683085Y-87979811D01*
X135855486Y-87927513D01*
X135989849Y-87914280D01*
X136079711Y-87914280D01*
X136214074Y-87927513D01*
X136214074Y-87927513D01*
G37*
G36*
X166694074Y-87927513D02*
G01*
X166866475Y-87979811D01*
X167025363Y-88064738D01*
X167164629Y-88179031D01*
X167278922Y-88318297D01*
X167363849Y-88477185D01*
X167416147Y-88649586D01*
X167433805Y-88828880D01*
X167416147Y-89008174D01*
X167363849Y-89180575D01*
X167278922Y-89339463D01*
X167164629Y-89478729D01*
X167025363Y-89593022D01*
X166866475Y-89677949D01*
X166694074Y-89730247D01*
X166559711Y-89743480D01*
X166469849Y-89743480D01*
X166335486Y-89730247D01*
X166163085Y-89677949D01*
X166004197Y-89593022D01*
X165864931Y-89478729D01*
X165750638Y-89339463D01*
X165665711Y-89180575D01*
X165613413Y-89008174D01*
X165595755Y-88828880D01*
X165613413Y-88649586D01*
X165665711Y-88477185D01*
X165750638Y-88318297D01*
X165864931Y-88179031D01*
X166004197Y-88064738D01*
X166163085Y-87979811D01*
X166335486Y-87927513D01*
X166469849Y-87914280D01*
X166559711Y-87914280D01*
X166694074Y-87927513D01*
X166694074Y-87927513D01*
G37*
G36*
X169234074Y-87927513D02*
G01*
X169406475Y-87979811D01*
X169565363Y-88064738D01*
X169704629Y-88179031D01*
X169818922Y-88318297D01*
X169903849Y-88477185D01*
X169956147Y-88649586D01*
X169973805Y-88828880D01*
X169956147Y-89008174D01*
X169903849Y-89180575D01*
X169818922Y-89339463D01*
X169704629Y-89478729D01*
X169565363Y-89593022D01*
X169406475Y-89677949D01*
X169234074Y-89730247D01*
X169099711Y-89743480D01*
X169009849Y-89743480D01*
X168875486Y-89730247D01*
X168703085Y-89677949D01*
X168544197Y-89593022D01*
X168404931Y-89478729D01*
X168290638Y-89339463D01*
X168205711Y-89180575D01*
X168153413Y-89008174D01*
X168135755Y-88828880D01*
X168153413Y-88649586D01*
X168205711Y-88477185D01*
X168290638Y-88318297D01*
X168404931Y-88179031D01*
X168544197Y-88064738D01*
X168703085Y-87979811D01*
X168875486Y-87927513D01*
X169009849Y-87914280D01*
X169099711Y-87914280D01*
X169234074Y-87927513D01*
X169234074Y-87927513D01*
G37*
G36*
X171774074Y-87927513D02*
G01*
X171946475Y-87979811D01*
X172105363Y-88064738D01*
X172244629Y-88179031D01*
X172358922Y-88318297D01*
X172443849Y-88477185D01*
X172496147Y-88649586D01*
X172513805Y-88828880D01*
X172496147Y-89008174D01*
X172443849Y-89180575D01*
X172358922Y-89339463D01*
X172244629Y-89478729D01*
X172105363Y-89593022D01*
X171946475Y-89677949D01*
X171774074Y-89730247D01*
X171639711Y-89743480D01*
X171549849Y-89743480D01*
X171415486Y-89730247D01*
X171243085Y-89677949D01*
X171084197Y-89593022D01*
X170944931Y-89478729D01*
X170830638Y-89339463D01*
X170745711Y-89180575D01*
X170693413Y-89008174D01*
X170675755Y-88828880D01*
X170693413Y-88649586D01*
X170745711Y-88477185D01*
X170830638Y-88318297D01*
X170944931Y-88179031D01*
X171084197Y-88064738D01*
X171243085Y-87979811D01*
X171415486Y-87927513D01*
X171549849Y-87914280D01*
X171639711Y-87914280D01*
X171774074Y-87927513D01*
X171774074Y-87927513D01*
G37*
G36*
X138754074Y-87927513D02*
G01*
X138926475Y-87979811D01*
X139085363Y-88064738D01*
X139224629Y-88179031D01*
X139338922Y-88318297D01*
X139423849Y-88477185D01*
X139476147Y-88649586D01*
X139493805Y-88828880D01*
X139476147Y-89008174D01*
X139423849Y-89180575D01*
X139338922Y-89339463D01*
X139224629Y-89478729D01*
X139085363Y-89593022D01*
X138926475Y-89677949D01*
X138754074Y-89730247D01*
X138619711Y-89743480D01*
X138529849Y-89743480D01*
X138395486Y-89730247D01*
X138223085Y-89677949D01*
X138064197Y-89593022D01*
X137924931Y-89478729D01*
X137810638Y-89339463D01*
X137725711Y-89180575D01*
X137673413Y-89008174D01*
X137655755Y-88828880D01*
X137673413Y-88649586D01*
X137725711Y-88477185D01*
X137810638Y-88318297D01*
X137924931Y-88179031D01*
X138064197Y-88064738D01*
X138223085Y-87979811D01*
X138395486Y-87927513D01*
X138529849Y-87914280D01*
X138619711Y-87914280D01*
X138754074Y-87927513D01*
X138754074Y-87927513D01*
G37*
G36*
X153994074Y-87927513D02*
G01*
X154166475Y-87979811D01*
X154325363Y-88064738D01*
X154464629Y-88179031D01*
X154578922Y-88318297D01*
X154663849Y-88477185D01*
X154716147Y-88649586D01*
X154733805Y-88828880D01*
X154716147Y-89008174D01*
X154663849Y-89180575D01*
X154578922Y-89339463D01*
X154464629Y-89478729D01*
X154325363Y-89593022D01*
X154166475Y-89677949D01*
X153994074Y-89730247D01*
X153859711Y-89743480D01*
X153769849Y-89743480D01*
X153635486Y-89730247D01*
X153463085Y-89677949D01*
X153304197Y-89593022D01*
X153164931Y-89478729D01*
X153050638Y-89339463D01*
X152965711Y-89180575D01*
X152913413Y-89008174D01*
X152895755Y-88828880D01*
X152913413Y-88649586D01*
X152965711Y-88477185D01*
X153050638Y-88318297D01*
X153164931Y-88179031D01*
X153304197Y-88064738D01*
X153463085Y-87979811D01*
X153635486Y-87927513D01*
X153769849Y-87914280D01*
X153859711Y-87914280D01*
X153994074Y-87927513D01*
X153994074Y-87927513D01*
G37*
G36*
X156534074Y-87927513D02*
G01*
X156706475Y-87979811D01*
X156865363Y-88064738D01*
X157004629Y-88179031D01*
X157118922Y-88318297D01*
X157203849Y-88477185D01*
X157256147Y-88649586D01*
X157273805Y-88828880D01*
X157256147Y-89008174D01*
X157203849Y-89180575D01*
X157118922Y-89339463D01*
X157004629Y-89478729D01*
X156865363Y-89593022D01*
X156706475Y-89677949D01*
X156534074Y-89730247D01*
X156399711Y-89743480D01*
X156309849Y-89743480D01*
X156175486Y-89730247D01*
X156003085Y-89677949D01*
X155844197Y-89593022D01*
X155704931Y-89478729D01*
X155590638Y-89339463D01*
X155505711Y-89180575D01*
X155453413Y-89008174D01*
X155435755Y-88828880D01*
X155453413Y-88649586D01*
X155505711Y-88477185D01*
X155590638Y-88318297D01*
X155704931Y-88179031D01*
X155844197Y-88064738D01*
X156003085Y-87979811D01*
X156175486Y-87927513D01*
X156309849Y-87914280D01*
X156399711Y-87914280D01*
X156534074Y-87927513D01*
X156534074Y-87927513D01*
G37*
G36*
X141294074Y-87927513D02*
G01*
X141466475Y-87979811D01*
X141625363Y-88064738D01*
X141764629Y-88179031D01*
X141878922Y-88318297D01*
X141963849Y-88477185D01*
X142016147Y-88649586D01*
X142033805Y-88828880D01*
X142016147Y-89008174D01*
X141963849Y-89180575D01*
X141878922Y-89339463D01*
X141764629Y-89478729D01*
X141625363Y-89593022D01*
X141466475Y-89677949D01*
X141294074Y-89730247D01*
X141159711Y-89743480D01*
X141069849Y-89743480D01*
X140935486Y-89730247D01*
X140763085Y-89677949D01*
X140604197Y-89593022D01*
X140464931Y-89478729D01*
X140350638Y-89339463D01*
X140265711Y-89180575D01*
X140213413Y-89008174D01*
X140195755Y-88828880D01*
X140213413Y-88649586D01*
X140265711Y-88477185D01*
X140350638Y-88318297D01*
X140464931Y-88179031D01*
X140604197Y-88064738D01*
X140763085Y-87979811D01*
X140935486Y-87927513D01*
X141069849Y-87914280D01*
X141159711Y-87914280D01*
X141294074Y-87927513D01*
X141294074Y-87927513D01*
G37*
G36*
X148914074Y-87927513D02*
G01*
X149086475Y-87979811D01*
X149245363Y-88064738D01*
X149384629Y-88179031D01*
X149498922Y-88318297D01*
X149583849Y-88477185D01*
X149636147Y-88649586D01*
X149653805Y-88828880D01*
X149636147Y-89008174D01*
X149583849Y-89180575D01*
X149498922Y-89339463D01*
X149384629Y-89478729D01*
X149245363Y-89593022D01*
X149086475Y-89677949D01*
X148914074Y-89730247D01*
X148779711Y-89743480D01*
X148689849Y-89743480D01*
X148555486Y-89730247D01*
X148383085Y-89677949D01*
X148224197Y-89593022D01*
X148084931Y-89478729D01*
X147970638Y-89339463D01*
X147885711Y-89180575D01*
X147833413Y-89008174D01*
X147815755Y-88828880D01*
X147833413Y-88649586D01*
X147885711Y-88477185D01*
X147970638Y-88318297D01*
X148084931Y-88179031D01*
X148224197Y-88064738D01*
X148383085Y-87979811D01*
X148555486Y-87927513D01*
X148689849Y-87914280D01*
X148779711Y-87914280D01*
X148914074Y-87927513D01*
X148914074Y-87927513D01*
G37*
G36*
X124530074Y-87927513D02*
G01*
X124702475Y-87979811D01*
X124861363Y-88064738D01*
X125000629Y-88179031D01*
X125114922Y-88318297D01*
X125199849Y-88477185D01*
X125252147Y-88649586D01*
X125269805Y-88828880D01*
X125252147Y-89008174D01*
X125199849Y-89180575D01*
X125114922Y-89339463D01*
X125000629Y-89478729D01*
X124861363Y-89593022D01*
X124702475Y-89677949D01*
X124530074Y-89730247D01*
X124395711Y-89743480D01*
X124305849Y-89743480D01*
X124171486Y-89730247D01*
X123999085Y-89677949D01*
X123840197Y-89593022D01*
X123700931Y-89478729D01*
X123586638Y-89339463D01*
X123501711Y-89180575D01*
X123449413Y-89008174D01*
X123431755Y-88828880D01*
X123449413Y-88649586D01*
X123501711Y-88477185D01*
X123586638Y-88318297D01*
X123700931Y-88179031D01*
X123840197Y-88064738D01*
X123999085Y-87979811D01*
X124171486Y-87927513D01*
X124305849Y-87914280D01*
X124395711Y-87914280D01*
X124530074Y-87927513D01*
X124530074Y-87927513D01*
G37*
G36*
X121990074Y-87927513D02*
G01*
X122162475Y-87979811D01*
X122321363Y-88064738D01*
X122460629Y-88179031D01*
X122574922Y-88318297D01*
X122659849Y-88477185D01*
X122712147Y-88649586D01*
X122729805Y-88828880D01*
X122712147Y-89008174D01*
X122659849Y-89180575D01*
X122574922Y-89339463D01*
X122460629Y-89478729D01*
X122321363Y-89593022D01*
X122162475Y-89677949D01*
X121990074Y-89730247D01*
X121855711Y-89743480D01*
X121765849Y-89743480D01*
X121631486Y-89730247D01*
X121459085Y-89677949D01*
X121300197Y-89593022D01*
X121160931Y-89478729D01*
X121046638Y-89339463D01*
X120961711Y-89180575D01*
X120909413Y-89008174D01*
X120891755Y-88828880D01*
X120909413Y-88649586D01*
X120961711Y-88477185D01*
X121046638Y-88318297D01*
X121160931Y-88179031D01*
X121300197Y-88064738D01*
X121459085Y-87979811D01*
X121631486Y-87927513D01*
X121765849Y-87914280D01*
X121855711Y-87914280D01*
X121990074Y-87927513D01*
X121990074Y-87927513D01*
G37*
G36*
X143834074Y-87927513D02*
G01*
X144006475Y-87979811D01*
X144165363Y-88064738D01*
X144304629Y-88179031D01*
X144418922Y-88318297D01*
X144503849Y-88477185D01*
X144556147Y-88649586D01*
X144573805Y-88828880D01*
X144556147Y-89008174D01*
X144503849Y-89180575D01*
X144418922Y-89339463D01*
X144304629Y-89478729D01*
X144165363Y-89593022D01*
X144006475Y-89677949D01*
X143834074Y-89730247D01*
X143699711Y-89743480D01*
X143609849Y-89743480D01*
X143475486Y-89730247D01*
X143303085Y-89677949D01*
X143144197Y-89593022D01*
X143004931Y-89478729D01*
X142890638Y-89339463D01*
X142805711Y-89180575D01*
X142753413Y-89008174D01*
X142735755Y-88828880D01*
X142753413Y-88649586D01*
X142805711Y-88477185D01*
X142890638Y-88318297D01*
X143004931Y-88179031D01*
X143144197Y-88064738D01*
X143303085Y-87979811D01*
X143475486Y-87927513D01*
X143609849Y-87914280D01*
X143699711Y-87914280D01*
X143834074Y-87927513D01*
X143834074Y-87927513D01*
G37*
G36*
X161614074Y-87927513D02*
G01*
X161786475Y-87979811D01*
X161945363Y-88064738D01*
X162084629Y-88179031D01*
X162198922Y-88318297D01*
X162283849Y-88477185D01*
X162336147Y-88649586D01*
X162353805Y-88828880D01*
X162336147Y-89008174D01*
X162283849Y-89180575D01*
X162198922Y-89339463D01*
X162084629Y-89478729D01*
X161945363Y-89593022D01*
X161786475Y-89677949D01*
X161614074Y-89730247D01*
X161479711Y-89743480D01*
X161389849Y-89743480D01*
X161255486Y-89730247D01*
X161083085Y-89677949D01*
X160924197Y-89593022D01*
X160784931Y-89478729D01*
X160670638Y-89339463D01*
X160585711Y-89180575D01*
X160533413Y-89008174D01*
X160515755Y-88828880D01*
X160533413Y-88649586D01*
X160585711Y-88477185D01*
X160670638Y-88318297D01*
X160784931Y-88179031D01*
X160924197Y-88064738D01*
X161083085Y-87979811D01*
X161255486Y-87927513D01*
X161389849Y-87914280D01*
X161479711Y-87914280D01*
X161614074Y-87927513D01*
X161614074Y-87927513D01*
G37*
G36*
X159074074Y-87927513D02*
G01*
X159246475Y-87979811D01*
X159405363Y-88064738D01*
X159544629Y-88179031D01*
X159658922Y-88318297D01*
X159743849Y-88477185D01*
X159796147Y-88649586D01*
X159813805Y-88828880D01*
X159796147Y-89008174D01*
X159743849Y-89180575D01*
X159658922Y-89339463D01*
X159544629Y-89478729D01*
X159405363Y-89593022D01*
X159246475Y-89677949D01*
X159074074Y-89730247D01*
X158939711Y-89743480D01*
X158849849Y-89743480D01*
X158715486Y-89730247D01*
X158543085Y-89677949D01*
X158384197Y-89593022D01*
X158244931Y-89478729D01*
X158130638Y-89339463D01*
X158045711Y-89180575D01*
X157993413Y-89008174D01*
X157975755Y-88828880D01*
X157993413Y-88649586D01*
X158045711Y-88477185D01*
X158130638Y-88318297D01*
X158244931Y-88179031D01*
X158384197Y-88064738D01*
X158543085Y-87979811D01*
X158715486Y-87927513D01*
X158849849Y-87914280D01*
X158939711Y-87914280D01*
X159074074Y-87927513D01*
X159074074Y-87927513D01*
G37*
G36*
X114370074Y-87927513D02*
G01*
X114542475Y-87979811D01*
X114701363Y-88064738D01*
X114840629Y-88179031D01*
X114954922Y-88318297D01*
X115039849Y-88477185D01*
X115092147Y-88649586D01*
X115109805Y-88828880D01*
X115092147Y-89008174D01*
X115039849Y-89180575D01*
X114954922Y-89339463D01*
X114840629Y-89478729D01*
X114701363Y-89593022D01*
X114542475Y-89677949D01*
X114370074Y-89730247D01*
X114235711Y-89743480D01*
X114145849Y-89743480D01*
X114011486Y-89730247D01*
X113839085Y-89677949D01*
X113680197Y-89593022D01*
X113540931Y-89478729D01*
X113426638Y-89339463D01*
X113341711Y-89180575D01*
X113289413Y-89008174D01*
X113271755Y-88828880D01*
X113289413Y-88649586D01*
X113341711Y-88477185D01*
X113426638Y-88318297D01*
X113540931Y-88179031D01*
X113680197Y-88064738D01*
X113839085Y-87979811D01*
X114011486Y-87927513D01*
X114145849Y-87914280D01*
X114235711Y-87914280D01*
X114370074Y-87927513D01*
X114370074Y-87927513D01*
G37*
G36*
X116910074Y-87927513D02*
G01*
X117082475Y-87979811D01*
X117241363Y-88064738D01*
X117380629Y-88179031D01*
X117494922Y-88318297D01*
X117579849Y-88477185D01*
X117632147Y-88649586D01*
X117649805Y-88828880D01*
X117632147Y-89008174D01*
X117579849Y-89180575D01*
X117494922Y-89339463D01*
X117380629Y-89478729D01*
X117241363Y-89593022D01*
X117082475Y-89677949D01*
X116910074Y-89730247D01*
X116775711Y-89743480D01*
X116685849Y-89743480D01*
X116551486Y-89730247D01*
X116379085Y-89677949D01*
X116220197Y-89593022D01*
X116080931Y-89478729D01*
X115966638Y-89339463D01*
X115881711Y-89180575D01*
X115829413Y-89008174D01*
X115811755Y-88828880D01*
X115829413Y-88649586D01*
X115881711Y-88477185D01*
X115966638Y-88318297D01*
X116080931Y-88179031D01*
X116220197Y-88064738D01*
X116379085Y-87979811D01*
X116551486Y-87927513D01*
X116685849Y-87914280D01*
X116775711Y-87914280D01*
X116910074Y-87927513D01*
X116910074Y-87927513D01*
G37*
G36*
X119450074Y-87927513D02*
G01*
X119622475Y-87979811D01*
X119781363Y-88064738D01*
X119920629Y-88179031D01*
X120034922Y-88318297D01*
X120119849Y-88477185D01*
X120172147Y-88649586D01*
X120189805Y-88828880D01*
X120172147Y-89008174D01*
X120119849Y-89180575D01*
X120034922Y-89339463D01*
X119920629Y-89478729D01*
X119781363Y-89593022D01*
X119622475Y-89677949D01*
X119450074Y-89730247D01*
X119315711Y-89743480D01*
X119225849Y-89743480D01*
X119091486Y-89730247D01*
X118919085Y-89677949D01*
X118760197Y-89593022D01*
X118620931Y-89478729D01*
X118506638Y-89339463D01*
X118421711Y-89180575D01*
X118369413Y-89008174D01*
X118351755Y-88828880D01*
X118369413Y-88649586D01*
X118421711Y-88477185D01*
X118506638Y-88318297D01*
X118620931Y-88179031D01*
X118760197Y-88064738D01*
X118919085Y-87979811D01*
X119091486Y-87927513D01*
X119225849Y-87914280D01*
X119315711Y-87914280D01*
X119450074Y-87927513D01*
X119450074Y-87927513D01*
G37*
G36*
X104210074Y-87927513D02*
G01*
X104382475Y-87979811D01*
X104541363Y-88064738D01*
X104680629Y-88179031D01*
X104794922Y-88318297D01*
X104879849Y-88477185D01*
X104932147Y-88649586D01*
X104949805Y-88828880D01*
X104932147Y-89008174D01*
X104879849Y-89180575D01*
X104794922Y-89339463D01*
X104680629Y-89478729D01*
X104541363Y-89593022D01*
X104382475Y-89677949D01*
X104210074Y-89730247D01*
X104075711Y-89743480D01*
X103985849Y-89743480D01*
X103851486Y-89730247D01*
X103679085Y-89677949D01*
X103520197Y-89593022D01*
X103380931Y-89478729D01*
X103266638Y-89339463D01*
X103181711Y-89180575D01*
X103129413Y-89008174D01*
X103111755Y-88828880D01*
X103129413Y-88649586D01*
X103181711Y-88477185D01*
X103266638Y-88318297D01*
X103380931Y-88179031D01*
X103520197Y-88064738D01*
X103679085Y-87979811D01*
X103851486Y-87927513D01*
X103985849Y-87914280D01*
X104075711Y-87914280D01*
X104210074Y-87927513D01*
X104210074Y-87927513D01*
G37*
G36*
X106750074Y-87927513D02*
G01*
X106922475Y-87979811D01*
X107081363Y-88064738D01*
X107220629Y-88179031D01*
X107334922Y-88318297D01*
X107419849Y-88477185D01*
X107472147Y-88649586D01*
X107489805Y-88828880D01*
X107472147Y-89008174D01*
X107419849Y-89180575D01*
X107334922Y-89339463D01*
X107220629Y-89478729D01*
X107081363Y-89593022D01*
X106922475Y-89677949D01*
X106750074Y-89730247D01*
X106615711Y-89743480D01*
X106525849Y-89743480D01*
X106391486Y-89730247D01*
X106219085Y-89677949D01*
X106060197Y-89593022D01*
X105920931Y-89478729D01*
X105806638Y-89339463D01*
X105721711Y-89180575D01*
X105669413Y-89008174D01*
X105651755Y-88828880D01*
X105669413Y-88649586D01*
X105721711Y-88477185D01*
X105806638Y-88318297D01*
X105920931Y-88179031D01*
X106060197Y-88064738D01*
X106219085Y-87979811D01*
X106391486Y-87927513D01*
X106525849Y-87914280D01*
X106615711Y-87914280D01*
X106750074Y-87927513D01*
X106750074Y-87927513D01*
G37*
G36*
X109290074Y-87927513D02*
G01*
X109462475Y-87979811D01*
X109621363Y-88064738D01*
X109760629Y-88179031D01*
X109874922Y-88318297D01*
X109959849Y-88477185D01*
X110012147Y-88649586D01*
X110029805Y-88828880D01*
X110012147Y-89008174D01*
X109959849Y-89180575D01*
X109874922Y-89339463D01*
X109760629Y-89478729D01*
X109621363Y-89593022D01*
X109462475Y-89677949D01*
X109290074Y-89730247D01*
X109155711Y-89743480D01*
X109065849Y-89743480D01*
X108931486Y-89730247D01*
X108759085Y-89677949D01*
X108600197Y-89593022D01*
X108460931Y-89478729D01*
X108346638Y-89339463D01*
X108261711Y-89180575D01*
X108209413Y-89008174D01*
X108191755Y-88828880D01*
X108209413Y-88649586D01*
X108261711Y-88477185D01*
X108346638Y-88318297D01*
X108460931Y-88179031D01*
X108600197Y-88064738D01*
X108759085Y-87979811D01*
X108931486Y-87927513D01*
X109065849Y-87914280D01*
X109155711Y-87914280D01*
X109290074Y-87927513D01*
X109290074Y-87927513D01*
G37*
G36*
X111830074Y-87927513D02*
G01*
X112002475Y-87979811D01*
X112161363Y-88064738D01*
X112300629Y-88179031D01*
X112414922Y-88318297D01*
X112499849Y-88477185D01*
X112552147Y-88649586D01*
X112569805Y-88828880D01*
X112552147Y-89008174D01*
X112499849Y-89180575D01*
X112414922Y-89339463D01*
X112300629Y-89478729D01*
X112161363Y-89593022D01*
X112002475Y-89677949D01*
X111830074Y-89730247D01*
X111695711Y-89743480D01*
X111605849Y-89743480D01*
X111471486Y-89730247D01*
X111299085Y-89677949D01*
X111140197Y-89593022D01*
X111000931Y-89478729D01*
X110886638Y-89339463D01*
X110801711Y-89180575D01*
X110749413Y-89008174D01*
X110731755Y-88828880D01*
X110749413Y-88649586D01*
X110801711Y-88477185D01*
X110886638Y-88318297D01*
X111000931Y-88179031D01*
X111140197Y-88064738D01*
X111299085Y-87979811D01*
X111471486Y-87927513D01*
X111605849Y-87914280D01*
X111695711Y-87914280D01*
X111830074Y-87927513D01*
X111830074Y-87927513D01*
G37*
G36*
X164154074Y-87927513D02*
G01*
X164326475Y-87979811D01*
X164485363Y-88064738D01*
X164624629Y-88179031D01*
X164738922Y-88318297D01*
X164823849Y-88477185D01*
X164876147Y-88649586D01*
X164893805Y-88828880D01*
X164876147Y-89008174D01*
X164823849Y-89180575D01*
X164738922Y-89339463D01*
X164624629Y-89478729D01*
X164485363Y-89593022D01*
X164326475Y-89677949D01*
X164154074Y-89730247D01*
X164019711Y-89743480D01*
X163929849Y-89743480D01*
X163795486Y-89730247D01*
X163623085Y-89677949D01*
X163464197Y-89593022D01*
X163324931Y-89478729D01*
X163210638Y-89339463D01*
X163125711Y-89180575D01*
X163073413Y-89008174D01*
X163055755Y-88828880D01*
X163073413Y-88649586D01*
X163125711Y-88477185D01*
X163210638Y-88318297D01*
X163324931Y-88179031D01*
X163464197Y-88064738D01*
X163623085Y-87979811D01*
X163795486Y-87927513D01*
X163929849Y-87914280D01*
X164019711Y-87914280D01*
X164154074Y-87927513D01*
X164154074Y-87927513D01*
G37*
M02*
