G04 #@! TF.GenerationSoftware,KiCad,Pcbnew,(5.0.0)*
G04 #@! TF.CreationDate,2020-01-14T16:13:25-06:00*
G04 #@! TF.ProjectId,Igniter,49676E697465722E6B696361645F7063,rev?*
G04 #@! TF.SameCoordinates,Original*
G04 #@! TF.FileFunction,Legend,Top*
G04 #@! TF.FilePolarity,Positive*
%FSLAX46Y46*%
G04 Gerber Fmt 4.6, Leading zero omitted, Abs format (unit mm)*
G04 Created by KiCad (PCBNEW (5.0.0)) date 01/14/20 16:13:25*
%MOMM*%
%LPD*%
G01*
G04 APERTURE LIST*
%ADD10C,0.150000*%
%ADD11C,0.120000*%
G04 APERTURE END LIST*
D10*
X97793632Y-154005540D02*
X97793632Y-153005540D01*
X98174584Y-153005540D01*
X98269822Y-153053160D01*
X98317441Y-153100779D01*
X98365060Y-153196017D01*
X98365060Y-153338874D01*
X98317441Y-153434112D01*
X98269822Y-153481731D01*
X98174584Y-153529350D01*
X97793632Y-153529350D01*
X98650775Y-153005540D02*
X99222203Y-153005540D01*
X98936489Y-154005540D02*
X98936489Y-153005540D01*
X100079346Y-154005540D02*
X99507918Y-154005540D01*
X99793632Y-154005540D02*
X99793632Y-153005540D01*
X99698394Y-153148398D01*
X99603156Y-153243636D01*
X99507918Y-153291255D01*
X131113423Y-153917281D02*
X131256280Y-153964900D01*
X131494376Y-153964900D01*
X131589614Y-153917281D01*
X131637233Y-153869662D01*
X131684852Y-153774424D01*
X131684852Y-153679186D01*
X131637233Y-153583948D01*
X131589614Y-153536329D01*
X131494376Y-153488710D01*
X131303900Y-153441091D01*
X131208661Y-153393472D01*
X131161042Y-153345853D01*
X131113423Y-153250615D01*
X131113423Y-153155377D01*
X131161042Y-153060139D01*
X131208661Y-153012520D01*
X131303900Y-152964900D01*
X131541995Y-152964900D01*
X131684852Y-153012520D01*
X132303900Y-152964900D02*
X132494376Y-152964900D01*
X132589614Y-153012520D01*
X132684852Y-153107758D01*
X132732471Y-153298234D01*
X132732471Y-153631567D01*
X132684852Y-153822043D01*
X132589614Y-153917281D01*
X132494376Y-153964900D01*
X132303900Y-153964900D01*
X132208661Y-153917281D01*
X132113423Y-153822043D01*
X132065804Y-153631567D01*
X132065804Y-153298234D01*
X132113423Y-153107758D01*
X132208661Y-153012520D01*
X132303900Y-152964900D01*
X133637233Y-153964900D02*
X133161042Y-153964900D01*
X133161042Y-152964900D01*
X134494376Y-153964900D02*
X133922947Y-153964900D01*
X134208661Y-153964900D02*
X134208661Y-152964900D01*
X134113423Y-153107758D01*
X134018185Y-153202996D01*
X133922947Y-153250615D01*
D11*
G04 #@! TO.C,Q2*
X165892400Y-100120500D02*
X165892400Y-98860500D01*
X165892400Y-93300500D02*
X165892400Y-94560500D01*
X162132400Y-100120500D02*
X165892400Y-100120500D01*
X159882400Y-93300500D02*
X165892400Y-93300500D01*
D10*
G04 #@! TO.C,XA1*
X85234780Y-86288880D02*
X182770780Y-86288880D01*
X85234780Y-139628880D02*
X184294780Y-139628880D01*
X182770780Y-86288880D02*
X184294780Y-87812880D01*
X184294780Y-139628880D02*
X184294780Y-138358880D01*
X184294780Y-138358880D02*
X186834780Y-135818880D01*
X186834780Y-135818880D02*
X186834780Y-101528880D01*
X186834780Y-101528880D02*
X184294780Y-98988880D01*
X184294780Y-98988880D02*
X184294780Y-87812880D01*
X85234780Y-86288880D02*
X85234780Y-139628880D01*
D11*
G04 #@! TO.C,J12*
X174645520Y-152422820D02*
X174645520Y-150012820D01*
X172235520Y-152422820D02*
X174645520Y-152422820D01*
X169225520Y-142002820D02*
X169225520Y-152122820D01*
X173345520Y-142002820D02*
X169225520Y-142002820D01*
X174345520Y-143002820D02*
X173345520Y-142002820D01*
X174345520Y-152122820D02*
X174345520Y-143002820D01*
X169225520Y-152122820D02*
X174345520Y-152122820D01*
G04 #@! TO.C,J11*
X166304160Y-152422820D02*
X166304160Y-150012820D01*
X163894160Y-152422820D02*
X166304160Y-152422820D01*
X160884160Y-142002820D02*
X160884160Y-152122820D01*
X165004160Y-142002820D02*
X160884160Y-142002820D01*
X166004160Y-143002820D02*
X165004160Y-142002820D01*
X166004160Y-152122820D02*
X166004160Y-143002820D01*
X160884160Y-152122820D02*
X166004160Y-152122820D01*
G04 #@! TO.C,J10*
X157962800Y-152422820D02*
X157962800Y-150012820D01*
X155552800Y-152422820D02*
X157962800Y-152422820D01*
X152542800Y-142002820D02*
X152542800Y-152122820D01*
X156662800Y-142002820D02*
X152542800Y-142002820D01*
X157662800Y-143002820D02*
X156662800Y-142002820D01*
X157662800Y-152122820D02*
X157662800Y-143002820D01*
X152542800Y-152122820D02*
X157662800Y-152122820D01*
G04 #@! TO.C,J9*
X143301920Y-152422820D02*
X143301920Y-150012820D01*
X140891920Y-152422820D02*
X143301920Y-152422820D01*
X137881920Y-142002820D02*
X137881920Y-152122820D01*
X142001920Y-142002820D02*
X137881920Y-142002820D01*
X143001920Y-143002820D02*
X142001920Y-142002820D01*
X143001920Y-152122820D02*
X143001920Y-143002820D01*
X137881920Y-152122820D02*
X143001920Y-152122820D01*
G04 #@! TO.C,J8*
X135567620Y-152422820D02*
X135567620Y-150012820D01*
X133157620Y-152422820D02*
X135567620Y-152422820D01*
X130147620Y-142002820D02*
X130147620Y-152122820D01*
X134267620Y-142002820D02*
X130147620Y-142002820D01*
X135267620Y-143002820D02*
X134267620Y-142002820D01*
X135267620Y-152122820D02*
X135267620Y-143002820D01*
X130147620Y-152122820D02*
X135267620Y-152122820D01*
G04 #@! TO.C,D12*
X115036400Y-132646800D02*
X111151400Y-132646800D01*
X111151400Y-132646800D02*
X111151400Y-134916800D01*
X111151400Y-134916800D02*
X115036400Y-134916800D01*
D10*
G04 #@! TO.C,F1*
X178236880Y-152085300D02*
X198193660Y-152085300D01*
X178231800Y-146085300D02*
X198188580Y-146085300D01*
X178231800Y-152085300D02*
X178231800Y-146085300D01*
X198188580Y-152085300D02*
X198188580Y-146085300D01*
D11*
G04 #@! TO.C,IC1*
X109220300Y-112189300D02*
X109220300Y-112589300D01*
X109220300Y-112589300D02*
X107820300Y-112589300D01*
X109220300Y-112189300D02*
X114020300Y-112189300D01*
X109220300Y-122989300D02*
X114020300Y-122989300D01*
G04 #@! TO.C,J13*
X87280000Y-122070000D02*
X86830000Y-122070000D01*
X86340000Y-113540000D02*
X86830000Y-114040000D01*
X86330000Y-111130000D02*
X86330000Y-113530000D01*
X87280000Y-114040000D02*
X86830000Y-114040000D01*
X87280000Y-122070000D02*
X87280000Y-114040000D01*
X91190000Y-123190000D02*
X90090000Y-123190000D01*
X97190000Y-123190000D02*
X92490000Y-123190000D01*
X102500000Y-109220000D02*
X88440000Y-109220000D01*
X102500000Y-123190000D02*
X98890000Y-123190000D01*
X102500000Y-109220000D02*
X102500000Y-110780000D01*
X102500000Y-122680000D02*
X102500000Y-123190000D01*
X102500000Y-112830000D02*
X102500000Y-112280000D01*
G04 #@! TO.C,D13*
X190619900Y-145325720D02*
X194504900Y-145325720D01*
X194504900Y-145325720D02*
X194504900Y-143055720D01*
X194504900Y-143055720D02*
X190619900Y-143055720D01*
D10*
G04 #@! TO.C,U2*
X114559900Y-96566200D02*
X114559900Y-97221200D01*
X120059900Y-96566200D02*
X120059900Y-97316200D01*
X120059900Y-102976200D02*
X120059900Y-102226200D01*
X114559900Y-102976200D02*
X114559900Y-102226200D01*
X114559900Y-96566200D02*
X120059900Y-96566200D01*
X114559900Y-102976200D02*
X120059900Y-102976200D01*
X114559900Y-97221200D02*
X112809900Y-97221200D01*
G04 #@! TO.C,U3*
X139286800Y-97221200D02*
X137536800Y-97221200D01*
X139286800Y-102976200D02*
X144786800Y-102976200D01*
X139286800Y-96566200D02*
X144786800Y-96566200D01*
X139286800Y-102976200D02*
X139286800Y-102226200D01*
X144786800Y-102976200D02*
X144786800Y-102226200D01*
X144786800Y-96566200D02*
X144786800Y-97316200D01*
X139286800Y-96566200D02*
X139286800Y-97221200D01*
G04 #@! TO.C,U4*
X139286800Y-113457200D02*
X139286800Y-114112200D01*
X144786800Y-113457200D02*
X144786800Y-114207200D01*
X144786800Y-119867200D02*
X144786800Y-119117200D01*
X139286800Y-119867200D02*
X139286800Y-119117200D01*
X139286800Y-113457200D02*
X144786800Y-113457200D01*
X139286800Y-119867200D02*
X144786800Y-119867200D01*
X139286800Y-114112200D02*
X137536800Y-114112200D01*
D11*
G04 #@! TO.C,R1*
X118727136Y-134691800D02*
X119931264Y-134691800D01*
X118727136Y-132871800D02*
X119931264Y-132871800D01*
G04 #@! TO.C,R4*
X187886424Y-145100720D02*
X186682296Y-145100720D01*
X187886424Y-143280720D02*
X186682296Y-143280720D01*
G04 #@! TO.C,R5*
X107573536Y-102776700D02*
X108777664Y-102776700D01*
X107573536Y-100956700D02*
X108777664Y-100956700D01*
G04 #@! TO.C,R6*
X198039400Y-91737264D02*
X198039400Y-90533136D01*
X196219400Y-91737264D02*
X196219400Y-90533136D01*
G04 #@! TO.C,R7*
X132300436Y-102776700D02*
X133504564Y-102776700D01*
X132300436Y-100956700D02*
X133504564Y-100956700D01*
G04 #@! TO.C,R8*
X108777664Y-96105300D02*
X107573536Y-96105300D01*
X108777664Y-97925300D02*
X107573536Y-97925300D01*
G04 #@! TO.C,R9*
X133504564Y-97925300D02*
X132300436Y-97925300D01*
X133504564Y-96105300D02*
X132300436Y-96105300D01*
G04 #@! TO.C,R10*
X133504564Y-113986900D02*
X132300436Y-113986900D01*
X133504564Y-115806900D02*
X132300436Y-115806900D01*
G04 #@! TO.C,R15*
X157729600Y-95181336D02*
X157729600Y-96385464D01*
X155909600Y-95181336D02*
X155909600Y-96385464D01*
G04 #@! TO.C,D1*
X189461900Y-93335200D02*
X189461900Y-89485200D01*
X191461900Y-93335200D02*
X191461900Y-89485200D01*
X189461900Y-93335200D02*
X191461900Y-93335200D01*
G04 #@! TO.C,D2*
X170779800Y-102714300D02*
X170779800Y-100714300D01*
X170779800Y-100714300D02*
X166929800Y-100714300D01*
X170779800Y-102714300D02*
X166929800Y-102714300D01*
G04 #@! TO.C,J6*
X187212500Y-116063800D02*
X208612500Y-116063800D01*
X187212500Y-105963800D02*
X208612500Y-105963800D01*
X208612500Y-116063800D02*
X208612500Y-105963800D01*
X187212500Y-116063800D02*
X187212500Y-105963800D01*
G04 #@! TO.C,J7*
X208612500Y-95429300D02*
X208612500Y-105529300D01*
X187212500Y-95429300D02*
X187212500Y-105529300D01*
X208612500Y-105529300D02*
X187212500Y-105529300D01*
X208612500Y-95429300D02*
X187212500Y-95429300D01*
G04 #@! TO.C,D7*
X100089700Y-103001700D02*
X103974700Y-103001700D01*
X100089700Y-100731700D02*
X100089700Y-103001700D01*
X103974700Y-100731700D02*
X100089700Y-100731700D01*
G04 #@! TO.C,D9*
X128447600Y-100731700D02*
X124562600Y-100731700D01*
X124562600Y-100731700D02*
X124562600Y-103001700D01*
X124562600Y-103001700D02*
X128447600Y-103001700D01*
G04 #@! TO.C,D10*
X128447600Y-95880300D02*
X124562600Y-95880300D01*
X124562600Y-95880300D02*
X124562600Y-98150300D01*
X124562600Y-98150300D02*
X128447600Y-98150300D01*
G04 #@! TO.C,D11*
X124562600Y-116031900D02*
X128447600Y-116031900D01*
X124562600Y-113761900D02*
X124562600Y-116031900D01*
X128447600Y-113761900D02*
X124562600Y-113761900D01*
G04 #@! TO.C,D8*
X103974700Y-95880300D02*
X100089700Y-95880300D01*
X100089700Y-95880300D02*
X100089700Y-98150300D01*
X100089700Y-98150300D02*
X103974700Y-98150300D01*
G04 #@! TO.C,D3*
X170703600Y-115312700D02*
X170703600Y-113312700D01*
X170703600Y-113312700D02*
X166853600Y-113312700D01*
X170703600Y-115312700D02*
X166853600Y-115312700D01*
G04 #@! TO.C,D4*
X178825800Y-113427000D02*
X182675800Y-113427000D01*
X178825800Y-115427000D02*
X182675800Y-115427000D01*
X178825800Y-113427000D02*
X178825800Y-115427000D01*
G04 #@! TO.C,D5*
X170779800Y-127453900D02*
X170779800Y-125453900D01*
X170779800Y-125453900D02*
X166929800Y-125453900D01*
X170779800Y-127453900D02*
X166929800Y-127453900D01*
G04 #@! TO.C,D6*
X186572400Y-117294300D02*
X186572400Y-121144300D01*
X184572400Y-117294300D02*
X184572400Y-121144300D01*
X186572400Y-117294300D02*
X184572400Y-117294300D01*
G04 #@! TO.C,R2*
X157843900Y-107513036D02*
X157843900Y-108717164D01*
X156023900Y-107513036D02*
X156023900Y-108717164D01*
G04 #@! TO.C,R3*
X172495800Y-107513036D02*
X172495800Y-108717164D01*
X174315800Y-107513036D02*
X174315800Y-108717164D01*
G04 #@! TO.C,R11*
X158059800Y-119768536D02*
X158059800Y-120972664D01*
X156239800Y-119768536D02*
X156239800Y-120972664D01*
G04 #@! TO.C,R12*
X171441700Y-119400236D02*
X171441700Y-120604364D01*
X173261700Y-119400236D02*
X173261700Y-120604364D01*
G04 #@! TO.C,J1*
X96253860Y-152122820D02*
X101373860Y-152122820D01*
X101373860Y-152122820D02*
X101373860Y-143002820D01*
X101373860Y-143002820D02*
X100373860Y-142002820D01*
X100373860Y-142002820D02*
X96253860Y-142002820D01*
X96253860Y-142002820D02*
X96253860Y-152122820D01*
X99263860Y-152422820D02*
X101673860Y-152422820D01*
X101673860Y-152422820D02*
X101673860Y-150012820D01*
G04 #@! TO.C,J2*
X104487693Y-152122820D02*
X109607693Y-152122820D01*
X109607693Y-152122820D02*
X109607693Y-143002820D01*
X109607693Y-143002820D02*
X108607693Y-142002820D01*
X108607693Y-142002820D02*
X104487693Y-142002820D01*
X104487693Y-142002820D02*
X104487693Y-152122820D01*
X107497693Y-152422820D02*
X109907693Y-152422820D01*
X109907693Y-152422820D02*
X109907693Y-150012820D01*
G04 #@! TO.C,J3*
X118141526Y-152422820D02*
X118141526Y-150012820D01*
X115731526Y-152422820D02*
X118141526Y-152422820D01*
X112721526Y-142002820D02*
X112721526Y-152122820D01*
X116841526Y-142002820D02*
X112721526Y-142002820D01*
X117841526Y-143002820D02*
X116841526Y-142002820D01*
X117841526Y-152122820D02*
X117841526Y-143002820D01*
X112721526Y-152122820D02*
X117841526Y-152122820D01*
G04 #@! TO.C,J4*
X126375360Y-152422820D02*
X126375360Y-150012820D01*
X123965360Y-152422820D02*
X126375360Y-152422820D01*
X120955360Y-142002820D02*
X120955360Y-152122820D01*
X125075360Y-142002820D02*
X120955360Y-142002820D01*
X126075360Y-143002820D02*
X125075360Y-142002820D01*
X126075360Y-152122820D02*
X126075360Y-143002820D01*
X120955360Y-152122820D02*
X126075360Y-152122820D01*
G04 #@! TO.C,J5*
X206697920Y-120200420D02*
X206697920Y-117390420D01*
X206697920Y-117390420D02*
X196877920Y-117390420D01*
X196877920Y-117390420D02*
X196877920Y-118390420D01*
X196877920Y-118390420D02*
X195477920Y-118390420D01*
X195477920Y-118390420D02*
X195477920Y-120200420D01*
X206697920Y-120200420D02*
X206697920Y-123010420D01*
X206697920Y-123010420D02*
X196877920Y-123010420D01*
X196877920Y-123010420D02*
X196877920Y-122010420D01*
X196877920Y-122010420D02*
X195477920Y-122010420D01*
X195477920Y-122010420D02*
X195477920Y-120200420D01*
X206937920Y-120000420D02*
X206937920Y-117150420D01*
X206937920Y-117150420D02*
X204087920Y-117150420D01*
G04 #@! TO.C,Q3*
X159882400Y-105594100D02*
X165892400Y-105594100D01*
X162132400Y-112414100D02*
X165892400Y-112414100D01*
X165892400Y-105594100D02*
X165892400Y-106854100D01*
X165892400Y-112414100D02*
X165892400Y-111154100D01*
G04 #@! TO.C,Q4*
X181221300Y-112414100D02*
X181221300Y-111154100D01*
X181221300Y-105594100D02*
X181221300Y-106854100D01*
X177461300Y-112414100D02*
X181221300Y-112414100D01*
X175211300Y-105594100D02*
X181221300Y-105594100D01*
G04 #@! TO.C,Q5*
X159971300Y-117722600D02*
X165981300Y-117722600D01*
X162221300Y-124542600D02*
X165981300Y-124542600D01*
X165981300Y-117722600D02*
X165981300Y-118982600D01*
X165981300Y-124542600D02*
X165981300Y-123282600D01*
G04 #@! TO.C,Q6*
X181221300Y-124339400D02*
X181221300Y-123079400D01*
X181221300Y-117519400D02*
X181221300Y-118779400D01*
X177461300Y-124339400D02*
X181221300Y-124339400D01*
X175211300Y-117519400D02*
X181221300Y-117519400D01*
G04 #@! TO.C,Q1*
X181221300Y-99942700D02*
X181221300Y-98682700D01*
X181221300Y-93122700D02*
X181221300Y-94382700D01*
X177461300Y-99942700D02*
X181221300Y-99942700D01*
X175211300Y-93122700D02*
X181221300Y-93122700D01*
D10*
G04 #@! TO.C,SW1*
X196246600Y-142777800D02*
X196246600Y-124277800D01*
X196253100Y-124277800D02*
X210253100Y-124277800D01*
X196253100Y-142786100D02*
X210253100Y-142786100D01*
X210253100Y-142786100D02*
X210253100Y-124286100D01*
X210248500Y-124282200D02*
X212248500Y-124282200D01*
X210248500Y-142786100D02*
X212248500Y-142786100D01*
X212255100Y-142786100D02*
X212255100Y-124282200D01*
G04 #@! TO.C,Q2*
X163887161Y-92758119D02*
X163791923Y-92710500D01*
X163696685Y-92615261D01*
X163553828Y-92472404D01*
X163458590Y-92424785D01*
X163363352Y-92424785D01*
X163410971Y-92662880D02*
X163315733Y-92615261D01*
X163220495Y-92520023D01*
X163172876Y-92329547D01*
X163172876Y-91996214D01*
X163220495Y-91805738D01*
X163315733Y-91710500D01*
X163410971Y-91662880D01*
X163601447Y-91662880D01*
X163696685Y-91710500D01*
X163791923Y-91805738D01*
X163839542Y-91996214D01*
X163839542Y-92329547D01*
X163791923Y-92520023D01*
X163696685Y-92615261D01*
X163601447Y-92662880D01*
X163410971Y-92662880D01*
X164220495Y-91758119D02*
X164268114Y-91710500D01*
X164363352Y-91662880D01*
X164601447Y-91662880D01*
X164696685Y-91710500D01*
X164744304Y-91758119D01*
X164791923Y-91853357D01*
X164791923Y-91948595D01*
X164744304Y-92091452D01*
X164172876Y-92662880D01*
X164791923Y-92662880D01*
G04 #@! TO.C,XA1*
X86536684Y-84725260D02*
X87203351Y-85725260D01*
X87203351Y-84725260D02*
X86536684Y-85725260D01*
X87536684Y-85439546D02*
X88012875Y-85439546D01*
X87441446Y-85725260D02*
X87774780Y-84725260D01*
X88108113Y-85725260D01*
X88965256Y-85725260D02*
X88393827Y-85725260D01*
X88679541Y-85725260D02*
X88679541Y-84725260D01*
X88584303Y-84868118D01*
X88489065Y-84963356D01*
X88393827Y-85010975D01*
X147718780Y-107982022D02*
X147766399Y-108029641D01*
X147718780Y-108077260D01*
X147671160Y-108029641D01*
X147718780Y-107982022D01*
X147718780Y-108077260D01*
G04 #@! TO.C,J12*
X167587900Y-147872343D02*
X168302186Y-147872343D01*
X168445043Y-147919962D01*
X168540281Y-148015200D01*
X168587900Y-148158058D01*
X168587900Y-148253296D01*
X168587900Y-146872343D02*
X168587900Y-147443772D01*
X168587900Y-147158058D02*
X167587900Y-147158058D01*
X167730758Y-147253296D01*
X167825996Y-147348534D01*
X167873615Y-147443772D01*
X167683139Y-146491391D02*
X167635520Y-146443772D01*
X167587900Y-146348534D01*
X167587900Y-146110439D01*
X167635520Y-146015200D01*
X167683139Y-145967581D01*
X167778377Y-145919962D01*
X167873615Y-145919962D01*
X168016472Y-145967581D01*
X168587900Y-146539010D01*
X168587900Y-145919962D01*
G04 #@! TO.C,J11*
X159246540Y-147872343D02*
X159960826Y-147872343D01*
X160103683Y-147919962D01*
X160198921Y-148015200D01*
X160246540Y-148158058D01*
X160246540Y-148253296D01*
X160246540Y-146872343D02*
X160246540Y-147443772D01*
X160246540Y-147158058D02*
X159246540Y-147158058D01*
X159389398Y-147253296D01*
X159484636Y-147348534D01*
X159532255Y-147443772D01*
X160246540Y-145919962D02*
X160246540Y-146491391D01*
X160246540Y-146205677D02*
X159246540Y-146205677D01*
X159389398Y-146300915D01*
X159484636Y-146396153D01*
X159532255Y-146491391D01*
G04 #@! TO.C,J10*
X150905180Y-147872343D02*
X151619466Y-147872343D01*
X151762323Y-147919962D01*
X151857561Y-148015200D01*
X151905180Y-148158058D01*
X151905180Y-148253296D01*
X151905180Y-146872343D02*
X151905180Y-147443772D01*
X151905180Y-147158058D02*
X150905180Y-147158058D01*
X151048038Y-147253296D01*
X151143276Y-147348534D01*
X151190895Y-147443772D01*
X150905180Y-146253296D02*
X150905180Y-146158058D01*
X150952800Y-146062820D01*
X151000419Y-146015200D01*
X151095657Y-145967581D01*
X151286133Y-145919962D01*
X151524228Y-145919962D01*
X151714704Y-145967581D01*
X151809942Y-146015200D01*
X151857561Y-146062820D01*
X151905180Y-146158058D01*
X151905180Y-146253296D01*
X151857561Y-146348534D01*
X151809942Y-146396153D01*
X151714704Y-146443772D01*
X151524228Y-146491391D01*
X151286133Y-146491391D01*
X151095657Y-146443772D01*
X151000419Y-146396153D01*
X150952800Y-146348534D01*
X150905180Y-146253296D01*
G04 #@! TO.C,J9*
X136244300Y-147396153D02*
X136958586Y-147396153D01*
X137101443Y-147443772D01*
X137196681Y-147539010D01*
X137244300Y-147681867D01*
X137244300Y-147777105D01*
X137244300Y-146872343D02*
X137244300Y-146681867D01*
X137196681Y-146586629D01*
X137149062Y-146539010D01*
X137006205Y-146443772D01*
X136815729Y-146396153D01*
X136434777Y-146396153D01*
X136339539Y-146443772D01*
X136291920Y-146491391D01*
X136244300Y-146586629D01*
X136244300Y-146777105D01*
X136291920Y-146872343D01*
X136339539Y-146919962D01*
X136434777Y-146967581D01*
X136672872Y-146967581D01*
X136768110Y-146919962D01*
X136815729Y-146872343D01*
X136863348Y-146777105D01*
X136863348Y-146586629D01*
X136815729Y-146491391D01*
X136768110Y-146443772D01*
X136672872Y-146396153D01*
G04 #@! TO.C,J8*
X128510000Y-147396153D02*
X129224286Y-147396153D01*
X129367143Y-147443772D01*
X129462381Y-147539010D01*
X129510000Y-147681867D01*
X129510000Y-147777105D01*
X128938572Y-146777105D02*
X128890953Y-146872343D01*
X128843334Y-146919962D01*
X128748096Y-146967581D01*
X128700477Y-146967581D01*
X128605239Y-146919962D01*
X128557620Y-146872343D01*
X128510000Y-146777105D01*
X128510000Y-146586629D01*
X128557620Y-146491391D01*
X128605239Y-146443772D01*
X128700477Y-146396153D01*
X128748096Y-146396153D01*
X128843334Y-146443772D01*
X128890953Y-146491391D01*
X128938572Y-146586629D01*
X128938572Y-146777105D01*
X128986191Y-146872343D01*
X129033810Y-146919962D01*
X129129048Y-146967581D01*
X129319524Y-146967581D01*
X129414762Y-146919962D01*
X129462381Y-146872343D01*
X129510000Y-146777105D01*
X129510000Y-146586629D01*
X129462381Y-146491391D01*
X129414762Y-146443772D01*
X129319524Y-146396153D01*
X129129048Y-146396153D01*
X129033810Y-146443772D01*
X128986191Y-146491391D01*
X128938572Y-146586629D01*
G04 #@! TO.C,D12*
X112188464Y-131443480D02*
X112807512Y-131443480D01*
X112474179Y-131824433D01*
X112617036Y-131824433D01*
X112712274Y-131872052D01*
X112759893Y-131919671D01*
X112807512Y-132014909D01*
X112807512Y-132253004D01*
X112759893Y-132348242D01*
X112712274Y-132395861D01*
X112617036Y-132443480D01*
X112331321Y-132443480D01*
X112236083Y-132395861D01*
X112188464Y-132348242D01*
X113093226Y-131443480D02*
X113426560Y-132443480D01*
X113759893Y-131443480D01*
X113997988Y-131443480D02*
X114617036Y-131443480D01*
X114283702Y-131824433D01*
X114426560Y-131824433D01*
X114521798Y-131872052D01*
X114569417Y-131919671D01*
X114617036Y-132014909D01*
X114617036Y-132253004D01*
X114569417Y-132348242D01*
X114521798Y-132395861D01*
X114426560Y-132443480D01*
X114140845Y-132443480D01*
X114045607Y-132395861D01*
X113997988Y-132348242D01*
G04 #@! TO.C,F1*
X187613966Y-153166771D02*
X187280633Y-153166771D01*
X187280633Y-153690580D02*
X187280633Y-152690580D01*
X187756823Y-152690580D01*
X188661585Y-153690580D02*
X188090157Y-153690580D01*
X188375871Y-153690580D02*
X188375871Y-152690580D01*
X188280633Y-152833438D01*
X188185395Y-152928676D01*
X188090157Y-152976295D01*
G04 #@! TO.C,IC1*
X110644109Y-111841680D02*
X110644109Y-110841680D01*
X111691728Y-111746442D02*
X111644109Y-111794061D01*
X111501252Y-111841680D01*
X111406014Y-111841680D01*
X111263157Y-111794061D01*
X111167919Y-111698823D01*
X111120300Y-111603585D01*
X111072680Y-111413109D01*
X111072680Y-111270252D01*
X111120300Y-111079776D01*
X111167919Y-110984538D01*
X111263157Y-110889300D01*
X111406014Y-110841680D01*
X111501252Y-110841680D01*
X111644109Y-110889300D01*
X111691728Y-110936919D01*
X112644109Y-111841680D02*
X112072680Y-111841680D01*
X112358395Y-111841680D02*
X112358395Y-110841680D01*
X112263157Y-110984538D01*
X112167919Y-111079776D01*
X112072680Y-111127395D01*
G04 #@! TO.C,J13*
X103592380Y-117439523D02*
X104306666Y-117439523D01*
X104449523Y-117487142D01*
X104544761Y-117582380D01*
X104592380Y-117725238D01*
X104592380Y-117820476D01*
X104592380Y-116439523D02*
X104592380Y-117010952D01*
X104592380Y-116725238D02*
X103592380Y-116725238D01*
X103735238Y-116820476D01*
X103830476Y-116915714D01*
X103878095Y-117010952D01*
X103592380Y-116106190D02*
X103592380Y-115487142D01*
X103973333Y-115820476D01*
X103973333Y-115677619D01*
X104020952Y-115582380D01*
X104068571Y-115534761D01*
X104163809Y-115487142D01*
X104401904Y-115487142D01*
X104497142Y-115534761D01*
X104544761Y-115582380D01*
X104592380Y-115677619D01*
X104592380Y-115963333D01*
X104544761Y-116058571D01*
X104497142Y-116106190D01*
G04 #@! TO.C,D13*
X190922423Y-141889219D02*
X190970042Y-141841600D01*
X191065280Y-141793980D01*
X191303376Y-141793980D01*
X191398614Y-141841600D01*
X191446233Y-141889219D01*
X191493852Y-141984457D01*
X191493852Y-142079695D01*
X191446233Y-142222552D01*
X190874804Y-142793980D01*
X191493852Y-142793980D01*
X192350995Y-142127314D02*
X192350995Y-142793980D01*
X192112900Y-141746361D02*
X191874804Y-142460647D01*
X192493852Y-142460647D01*
X192731947Y-141793980D02*
X193065280Y-142793980D01*
X193398614Y-141793980D01*
G04 #@! TO.C,U2*
X116547995Y-95093580D02*
X116547995Y-95903104D01*
X116595614Y-95998342D01*
X116643233Y-96045961D01*
X116738471Y-96093580D01*
X116928947Y-96093580D01*
X117024185Y-96045961D01*
X117071804Y-95998342D01*
X117119423Y-95903104D01*
X117119423Y-95093580D01*
X117547995Y-95188819D02*
X117595614Y-95141200D01*
X117690852Y-95093580D01*
X117928947Y-95093580D01*
X118024185Y-95141200D01*
X118071804Y-95188819D01*
X118119423Y-95284057D01*
X118119423Y-95379295D01*
X118071804Y-95522152D01*
X117500376Y-96093580D01*
X118119423Y-96093580D01*
G04 #@! TO.C,U3*
X141274895Y-95093580D02*
X141274895Y-95903104D01*
X141322514Y-95998342D01*
X141370133Y-96045961D01*
X141465371Y-96093580D01*
X141655847Y-96093580D01*
X141751085Y-96045961D01*
X141798704Y-95998342D01*
X141846323Y-95903104D01*
X141846323Y-95093580D01*
X142227276Y-95093580D02*
X142846323Y-95093580D01*
X142512990Y-95474533D01*
X142655847Y-95474533D01*
X142751085Y-95522152D01*
X142798704Y-95569771D01*
X142846323Y-95665009D01*
X142846323Y-95903104D01*
X142798704Y-95998342D01*
X142751085Y-96045961D01*
X142655847Y-96093580D01*
X142370133Y-96093580D01*
X142274895Y-96045961D01*
X142227276Y-95998342D01*
G04 #@! TO.C,U4*
X141274895Y-111984580D02*
X141274895Y-112794104D01*
X141322514Y-112889342D01*
X141370133Y-112936961D01*
X141465371Y-112984580D01*
X141655847Y-112984580D01*
X141751085Y-112936961D01*
X141798704Y-112889342D01*
X141846323Y-112794104D01*
X141846323Y-111984580D01*
X142751085Y-112317914D02*
X142751085Y-112984580D01*
X142512990Y-111936961D02*
X142274895Y-112651247D01*
X142893942Y-112651247D01*
G04 #@! TO.C,R1*
X119172693Y-132443480D02*
X118839360Y-131967290D01*
X118601264Y-132443480D02*
X118601264Y-131443480D01*
X118982217Y-131443480D01*
X119077455Y-131491100D01*
X119125074Y-131538719D01*
X119172693Y-131633957D01*
X119172693Y-131776814D01*
X119125074Y-131872052D01*
X119077455Y-131919671D01*
X118982217Y-131967290D01*
X118601264Y-131967290D01*
X120125074Y-132443480D02*
X119553645Y-132443480D01*
X119839360Y-132443480D02*
X119839360Y-131443480D01*
X119744121Y-131586338D01*
X119648883Y-131681576D01*
X119553645Y-131729195D01*
G04 #@! TO.C,R4*
X187117693Y-142915900D02*
X186784360Y-142439710D01*
X186546264Y-142915900D02*
X186546264Y-141915900D01*
X186927217Y-141915900D01*
X187022455Y-141963520D01*
X187070074Y-142011139D01*
X187117693Y-142106377D01*
X187117693Y-142249234D01*
X187070074Y-142344472D01*
X187022455Y-142392091D01*
X186927217Y-142439710D01*
X186546264Y-142439710D01*
X187974836Y-142249234D02*
X187974836Y-142915900D01*
X187736740Y-141868281D02*
X187498645Y-142582567D01*
X188117693Y-142582567D01*
G04 #@! TO.C,R5*
X108008933Y-100499080D02*
X107675600Y-100022890D01*
X107437504Y-100499080D02*
X107437504Y-99499080D01*
X107818457Y-99499080D01*
X107913695Y-99546700D01*
X107961314Y-99594319D01*
X108008933Y-99689557D01*
X108008933Y-99832414D01*
X107961314Y-99927652D01*
X107913695Y-99975271D01*
X107818457Y-100022890D01*
X107437504Y-100022890D01*
X108913695Y-99499080D02*
X108437504Y-99499080D01*
X108389885Y-99975271D01*
X108437504Y-99927652D01*
X108532742Y-99880033D01*
X108770838Y-99880033D01*
X108866076Y-99927652D01*
X108913695Y-99975271D01*
X108961314Y-100070509D01*
X108961314Y-100308604D01*
X108913695Y-100403842D01*
X108866076Y-100451461D01*
X108770838Y-100499080D01*
X108532742Y-100499080D01*
X108437504Y-100451461D01*
X108389885Y-100403842D01*
G04 #@! TO.C,R6*
X199486780Y-91314566D02*
X199010590Y-91647900D01*
X199486780Y-91885995D02*
X198486780Y-91885995D01*
X198486780Y-91505042D01*
X198534400Y-91409804D01*
X198582019Y-91362185D01*
X198677257Y-91314566D01*
X198820114Y-91314566D01*
X198915352Y-91362185D01*
X198962971Y-91409804D01*
X199010590Y-91505042D01*
X199010590Y-91885995D01*
X198486780Y-90457423D02*
X198486780Y-90647900D01*
X198534400Y-90743138D01*
X198582019Y-90790757D01*
X198724876Y-90885995D01*
X198915352Y-90933614D01*
X199296304Y-90933614D01*
X199391542Y-90885995D01*
X199439161Y-90838376D01*
X199486780Y-90743138D01*
X199486780Y-90552661D01*
X199439161Y-90457423D01*
X199391542Y-90409804D01*
X199296304Y-90362185D01*
X199058209Y-90362185D01*
X198962971Y-90409804D01*
X198915352Y-90457423D01*
X198867733Y-90552661D01*
X198867733Y-90743138D01*
X198915352Y-90838376D01*
X198962971Y-90885995D01*
X199058209Y-90933614D01*
G04 #@! TO.C,R7*
X132735833Y-100499080D02*
X132402500Y-100022890D01*
X132164404Y-100499080D02*
X132164404Y-99499080D01*
X132545357Y-99499080D01*
X132640595Y-99546700D01*
X132688214Y-99594319D01*
X132735833Y-99689557D01*
X132735833Y-99832414D01*
X132688214Y-99927652D01*
X132640595Y-99975271D01*
X132545357Y-100022890D01*
X132164404Y-100022890D01*
X133069166Y-99499080D02*
X133735833Y-99499080D01*
X133307261Y-100499080D01*
G04 #@! TO.C,R8*
X108008933Y-95689680D02*
X107675600Y-95213490D01*
X107437504Y-95689680D02*
X107437504Y-94689680D01*
X107818457Y-94689680D01*
X107913695Y-94737300D01*
X107961314Y-94784919D01*
X108008933Y-94880157D01*
X108008933Y-95023014D01*
X107961314Y-95118252D01*
X107913695Y-95165871D01*
X107818457Y-95213490D01*
X107437504Y-95213490D01*
X108580361Y-95118252D02*
X108485123Y-95070633D01*
X108437504Y-95023014D01*
X108389885Y-94927776D01*
X108389885Y-94880157D01*
X108437504Y-94784919D01*
X108485123Y-94737300D01*
X108580361Y-94689680D01*
X108770838Y-94689680D01*
X108866076Y-94737300D01*
X108913695Y-94784919D01*
X108961314Y-94880157D01*
X108961314Y-94927776D01*
X108913695Y-95023014D01*
X108866076Y-95070633D01*
X108770838Y-95118252D01*
X108580361Y-95118252D01*
X108485123Y-95165871D01*
X108437504Y-95213490D01*
X108389885Y-95308728D01*
X108389885Y-95499204D01*
X108437504Y-95594442D01*
X108485123Y-95642061D01*
X108580361Y-95689680D01*
X108770838Y-95689680D01*
X108866076Y-95642061D01*
X108913695Y-95594442D01*
X108961314Y-95499204D01*
X108961314Y-95308728D01*
X108913695Y-95213490D01*
X108866076Y-95165871D01*
X108770838Y-95118252D01*
G04 #@! TO.C,R9*
X132735833Y-95664280D02*
X132402500Y-95188090D01*
X132164404Y-95664280D02*
X132164404Y-94664280D01*
X132545357Y-94664280D01*
X132640595Y-94711900D01*
X132688214Y-94759519D01*
X132735833Y-94854757D01*
X132735833Y-94997614D01*
X132688214Y-95092852D01*
X132640595Y-95140471D01*
X132545357Y-95188090D01*
X132164404Y-95188090D01*
X133212023Y-95664280D02*
X133402500Y-95664280D01*
X133497738Y-95616661D01*
X133545357Y-95569042D01*
X133640595Y-95426185D01*
X133688214Y-95235709D01*
X133688214Y-94854757D01*
X133640595Y-94759519D01*
X133592976Y-94711900D01*
X133497738Y-94664280D01*
X133307261Y-94664280D01*
X133212023Y-94711900D01*
X133164404Y-94759519D01*
X133116785Y-94854757D01*
X133116785Y-95092852D01*
X133164404Y-95188090D01*
X133212023Y-95235709D01*
X133307261Y-95283328D01*
X133497738Y-95283328D01*
X133592976Y-95235709D01*
X133640595Y-95188090D01*
X133688214Y-95092852D01*
G04 #@! TO.C,R10*
X132259642Y-113495080D02*
X131926309Y-113018890D01*
X131688214Y-113495080D02*
X131688214Y-112495080D01*
X132069166Y-112495080D01*
X132164404Y-112542700D01*
X132212023Y-112590319D01*
X132259642Y-112685557D01*
X132259642Y-112828414D01*
X132212023Y-112923652D01*
X132164404Y-112971271D01*
X132069166Y-113018890D01*
X131688214Y-113018890D01*
X133212023Y-113495080D02*
X132640595Y-113495080D01*
X132926309Y-113495080D02*
X132926309Y-112495080D01*
X132831071Y-112637938D01*
X132735833Y-112733176D01*
X132640595Y-112780795D01*
X133831071Y-112495080D02*
X133926309Y-112495080D01*
X134021547Y-112542700D01*
X134069166Y-112590319D01*
X134116785Y-112685557D01*
X134164404Y-112876033D01*
X134164404Y-113114128D01*
X134116785Y-113304604D01*
X134069166Y-113399842D01*
X134021547Y-113447461D01*
X133926309Y-113495080D01*
X133831071Y-113495080D01*
X133735833Y-113447461D01*
X133688214Y-113399842D01*
X133640595Y-113304604D01*
X133592976Y-113114128D01*
X133592976Y-112876033D01*
X133640595Y-112685557D01*
X133688214Y-112590319D01*
X133735833Y-112542700D01*
X133831071Y-112495080D01*
G04 #@! TO.C,R15*
X159091980Y-96426257D02*
X158615790Y-96759590D01*
X159091980Y-96997685D02*
X158091980Y-96997685D01*
X158091980Y-96616733D01*
X158139600Y-96521495D01*
X158187219Y-96473876D01*
X158282457Y-96426257D01*
X158425314Y-96426257D01*
X158520552Y-96473876D01*
X158568171Y-96521495D01*
X158615790Y-96616733D01*
X158615790Y-96997685D01*
X159091980Y-95473876D02*
X159091980Y-96045304D01*
X159091980Y-95759590D02*
X158091980Y-95759590D01*
X158234838Y-95854828D01*
X158330076Y-95950066D01*
X158377695Y-96045304D01*
X158091980Y-94569114D02*
X158091980Y-95045304D01*
X158568171Y-95092923D01*
X158520552Y-95045304D01*
X158472933Y-94950066D01*
X158472933Y-94711971D01*
X158520552Y-94616733D01*
X158568171Y-94569114D01*
X158663409Y-94521495D01*
X158901504Y-94521495D01*
X158996742Y-94569114D01*
X159044361Y-94616733D01*
X159091980Y-94711971D01*
X159091980Y-94950066D01*
X159044361Y-95045304D01*
X158996742Y-95092923D01*
G04 #@! TO.C,D1*
X189009280Y-92000295D02*
X188009280Y-92000295D01*
X188009280Y-91762200D01*
X188056900Y-91619342D01*
X188152138Y-91524104D01*
X188247376Y-91476485D01*
X188437852Y-91428866D01*
X188580709Y-91428866D01*
X188771185Y-91476485D01*
X188866423Y-91524104D01*
X188961661Y-91619342D01*
X189009280Y-91762200D01*
X189009280Y-92000295D01*
X189009280Y-90476485D02*
X189009280Y-91047914D01*
X189009280Y-90762200D02*
X188009280Y-90762200D01*
X188152138Y-90857438D01*
X188247376Y-90952676D01*
X188294995Y-91047914D01*
G04 #@! TO.C,D2*
X167968704Y-104071680D02*
X167968704Y-103071680D01*
X168206800Y-103071680D01*
X168349657Y-103119300D01*
X168444895Y-103214538D01*
X168492514Y-103309776D01*
X168540133Y-103500252D01*
X168540133Y-103643109D01*
X168492514Y-103833585D01*
X168444895Y-103928823D01*
X168349657Y-104024061D01*
X168206800Y-104071680D01*
X167968704Y-104071680D01*
X168921085Y-103166919D02*
X168968704Y-103119300D01*
X169063942Y-103071680D01*
X169302038Y-103071680D01*
X169397276Y-103119300D01*
X169444895Y-103166919D01*
X169492514Y-103262157D01*
X169492514Y-103357395D01*
X169444895Y-103500252D01*
X168873466Y-104071680D01*
X169492514Y-104071680D01*
G04 #@! TO.C,J6*
X197179166Y-113466180D02*
X197179166Y-114180466D01*
X197131547Y-114323323D01*
X197036309Y-114418561D01*
X196893452Y-114466180D01*
X196798214Y-114466180D01*
X198083928Y-113466180D02*
X197893452Y-113466180D01*
X197798214Y-113513800D01*
X197750595Y-113561419D01*
X197655357Y-113704276D01*
X197607738Y-113894752D01*
X197607738Y-114275704D01*
X197655357Y-114370942D01*
X197702976Y-114418561D01*
X197798214Y-114466180D01*
X197988690Y-114466180D01*
X198083928Y-114418561D01*
X198131547Y-114370942D01*
X198179166Y-114275704D01*
X198179166Y-114037609D01*
X198131547Y-113942371D01*
X198083928Y-113894752D01*
X197988690Y-113847133D01*
X197798214Y-113847133D01*
X197702976Y-113894752D01*
X197655357Y-113942371D01*
X197607738Y-114037609D01*
G04 #@! TO.C,J7*
X197979166Y-96931680D02*
X197979166Y-97645966D01*
X197931547Y-97788823D01*
X197836309Y-97884061D01*
X197693452Y-97931680D01*
X197598214Y-97931680D01*
X198360119Y-96931680D02*
X199026785Y-96931680D01*
X198598214Y-97931680D01*
G04 #@! TO.C,D7*
X101636604Y-100499080D02*
X101636604Y-99499080D01*
X101874700Y-99499080D01*
X102017557Y-99546700D01*
X102112795Y-99641938D01*
X102160414Y-99737176D01*
X102208033Y-99927652D01*
X102208033Y-100070509D01*
X102160414Y-100260985D01*
X102112795Y-100356223D01*
X102017557Y-100451461D01*
X101874700Y-100499080D01*
X101636604Y-100499080D01*
X102541366Y-99499080D02*
X103208033Y-99499080D01*
X102779461Y-100499080D01*
G04 #@! TO.C,D9*
X126109504Y-100499080D02*
X126109504Y-99499080D01*
X126347600Y-99499080D01*
X126490457Y-99546700D01*
X126585695Y-99641938D01*
X126633314Y-99737176D01*
X126680933Y-99927652D01*
X126680933Y-100070509D01*
X126633314Y-100260985D01*
X126585695Y-100356223D01*
X126490457Y-100451461D01*
X126347600Y-100499080D01*
X126109504Y-100499080D01*
X127157123Y-100499080D02*
X127347600Y-100499080D01*
X127442838Y-100451461D01*
X127490457Y-100403842D01*
X127585695Y-100260985D01*
X127633314Y-100070509D01*
X127633314Y-99689557D01*
X127585695Y-99594319D01*
X127538076Y-99546700D01*
X127442838Y-99499080D01*
X127252361Y-99499080D01*
X127157123Y-99546700D01*
X127109504Y-99594319D01*
X127061885Y-99689557D01*
X127061885Y-99927652D01*
X127109504Y-100022890D01*
X127157123Y-100070509D01*
X127252361Y-100118128D01*
X127442838Y-100118128D01*
X127538076Y-100070509D01*
X127585695Y-100022890D01*
X127633314Y-99927652D01*
G04 #@! TO.C,D10*
X125633314Y-95647680D02*
X125633314Y-94647680D01*
X125871409Y-94647680D01*
X126014266Y-94695300D01*
X126109504Y-94790538D01*
X126157123Y-94885776D01*
X126204742Y-95076252D01*
X126204742Y-95219109D01*
X126157123Y-95409585D01*
X126109504Y-95504823D01*
X126014266Y-95600061D01*
X125871409Y-95647680D01*
X125633314Y-95647680D01*
X127157123Y-95647680D02*
X126585695Y-95647680D01*
X126871409Y-95647680D02*
X126871409Y-94647680D01*
X126776171Y-94790538D01*
X126680933Y-94885776D01*
X126585695Y-94933395D01*
X127776171Y-94647680D02*
X127871409Y-94647680D01*
X127966647Y-94695300D01*
X128014266Y-94742919D01*
X128061885Y-94838157D01*
X128109504Y-95028633D01*
X128109504Y-95266728D01*
X128061885Y-95457204D01*
X128014266Y-95552442D01*
X127966647Y-95600061D01*
X127871409Y-95647680D01*
X127776171Y-95647680D01*
X127680933Y-95600061D01*
X127633314Y-95552442D01*
X127585695Y-95457204D01*
X127538076Y-95266728D01*
X127538076Y-95028633D01*
X127585695Y-94838157D01*
X127633314Y-94742919D01*
X127680933Y-94695300D01*
X127776171Y-94647680D01*
G04 #@! TO.C,D11*
X125633314Y-113529280D02*
X125633314Y-112529280D01*
X125871409Y-112529280D01*
X126014266Y-112576900D01*
X126109504Y-112672138D01*
X126157123Y-112767376D01*
X126204742Y-112957852D01*
X126204742Y-113100709D01*
X126157123Y-113291185D01*
X126109504Y-113386423D01*
X126014266Y-113481661D01*
X125871409Y-113529280D01*
X125633314Y-113529280D01*
X127157123Y-113529280D02*
X126585695Y-113529280D01*
X126871409Y-113529280D02*
X126871409Y-112529280D01*
X126776171Y-112672138D01*
X126680933Y-112767376D01*
X126585695Y-112814995D01*
X128109504Y-113529280D02*
X127538076Y-113529280D01*
X127823790Y-113529280D02*
X127823790Y-112529280D01*
X127728552Y-112672138D01*
X127633314Y-112767376D01*
X127538076Y-112814995D01*
G04 #@! TO.C,D8*
X101636604Y-95647680D02*
X101636604Y-94647680D01*
X101874700Y-94647680D01*
X102017557Y-94695300D01*
X102112795Y-94790538D01*
X102160414Y-94885776D01*
X102208033Y-95076252D01*
X102208033Y-95219109D01*
X102160414Y-95409585D01*
X102112795Y-95504823D01*
X102017557Y-95600061D01*
X101874700Y-95647680D01*
X101636604Y-95647680D01*
X102779461Y-95076252D02*
X102684223Y-95028633D01*
X102636604Y-94981014D01*
X102588985Y-94885776D01*
X102588985Y-94838157D01*
X102636604Y-94742919D01*
X102684223Y-94695300D01*
X102779461Y-94647680D01*
X102969938Y-94647680D01*
X103065176Y-94695300D01*
X103112795Y-94742919D01*
X103160414Y-94838157D01*
X103160414Y-94885776D01*
X103112795Y-94981014D01*
X103065176Y-95028633D01*
X102969938Y-95076252D01*
X102779461Y-95076252D01*
X102684223Y-95123871D01*
X102636604Y-95171490D01*
X102588985Y-95266728D01*
X102588985Y-95457204D01*
X102636604Y-95552442D01*
X102684223Y-95600061D01*
X102779461Y-95647680D01*
X102969938Y-95647680D01*
X103065176Y-95600061D01*
X103112795Y-95552442D01*
X103160414Y-95457204D01*
X103160414Y-95266728D01*
X103112795Y-95171490D01*
X103065176Y-95123871D01*
X102969938Y-95076252D01*
G04 #@! TO.C,D3*
X167892504Y-116670080D02*
X167892504Y-115670080D01*
X168130600Y-115670080D01*
X168273457Y-115717700D01*
X168368695Y-115812938D01*
X168416314Y-115908176D01*
X168463933Y-116098652D01*
X168463933Y-116241509D01*
X168416314Y-116431985D01*
X168368695Y-116527223D01*
X168273457Y-116622461D01*
X168130600Y-116670080D01*
X167892504Y-116670080D01*
X168797266Y-115670080D02*
X169416314Y-115670080D01*
X169082980Y-116051033D01*
X169225838Y-116051033D01*
X169321076Y-116098652D01*
X169368695Y-116146271D01*
X169416314Y-116241509D01*
X169416314Y-116479604D01*
X169368695Y-116574842D01*
X169321076Y-116622461D01*
X169225838Y-116670080D01*
X168940123Y-116670080D01*
X168844885Y-116622461D01*
X168797266Y-116574842D01*
G04 #@! TO.C,D4*
X180160704Y-112974380D02*
X180160704Y-111974380D01*
X180398800Y-111974380D01*
X180541657Y-112022000D01*
X180636895Y-112117238D01*
X180684514Y-112212476D01*
X180732133Y-112402952D01*
X180732133Y-112545809D01*
X180684514Y-112736285D01*
X180636895Y-112831523D01*
X180541657Y-112926761D01*
X180398800Y-112974380D01*
X180160704Y-112974380D01*
X181589276Y-112307714D02*
X181589276Y-112974380D01*
X181351180Y-111926761D02*
X181113085Y-112641047D01*
X181732133Y-112641047D01*
G04 #@! TO.C,D5*
X167968704Y-128811280D02*
X167968704Y-127811280D01*
X168206800Y-127811280D01*
X168349657Y-127858900D01*
X168444895Y-127954138D01*
X168492514Y-128049376D01*
X168540133Y-128239852D01*
X168540133Y-128382709D01*
X168492514Y-128573185D01*
X168444895Y-128668423D01*
X168349657Y-128763661D01*
X168206800Y-128811280D01*
X167968704Y-128811280D01*
X169444895Y-127811280D02*
X168968704Y-127811280D01*
X168921085Y-128287471D01*
X168968704Y-128239852D01*
X169063942Y-128192233D01*
X169302038Y-128192233D01*
X169397276Y-128239852D01*
X169444895Y-128287471D01*
X169492514Y-128382709D01*
X169492514Y-128620804D01*
X169444895Y-128716042D01*
X169397276Y-128763661D01*
X169302038Y-128811280D01*
X169063942Y-128811280D01*
X168968704Y-128763661D01*
X168921085Y-128716042D01*
G04 #@! TO.C,D6*
X184910504Y-122880380D02*
X184910504Y-121880380D01*
X185148600Y-121880380D01*
X185291457Y-121928000D01*
X185386695Y-122023238D01*
X185434314Y-122118476D01*
X185481933Y-122308952D01*
X185481933Y-122451809D01*
X185434314Y-122642285D01*
X185386695Y-122737523D01*
X185291457Y-122832761D01*
X185148600Y-122880380D01*
X184910504Y-122880380D01*
X186339076Y-121880380D02*
X186148600Y-121880380D01*
X186053361Y-121928000D01*
X186005742Y-121975619D01*
X185910504Y-122118476D01*
X185862885Y-122308952D01*
X185862885Y-122689904D01*
X185910504Y-122785142D01*
X185958123Y-122832761D01*
X186053361Y-122880380D01*
X186243838Y-122880380D01*
X186339076Y-122832761D01*
X186386695Y-122785142D01*
X186434314Y-122689904D01*
X186434314Y-122451809D01*
X186386695Y-122356571D01*
X186339076Y-122308952D01*
X186243838Y-122261333D01*
X186053361Y-122261333D01*
X185958123Y-122308952D01*
X185910504Y-122356571D01*
X185862885Y-122451809D01*
G04 #@! TO.C,R2*
X159206280Y-108281766D02*
X158730090Y-108615100D01*
X159206280Y-108853195D02*
X158206280Y-108853195D01*
X158206280Y-108472242D01*
X158253900Y-108377004D01*
X158301519Y-108329385D01*
X158396757Y-108281766D01*
X158539614Y-108281766D01*
X158634852Y-108329385D01*
X158682471Y-108377004D01*
X158730090Y-108472242D01*
X158730090Y-108853195D01*
X158301519Y-107900814D02*
X158253900Y-107853195D01*
X158206280Y-107757957D01*
X158206280Y-107519861D01*
X158253900Y-107424623D01*
X158301519Y-107377004D01*
X158396757Y-107329385D01*
X158491995Y-107329385D01*
X158634852Y-107377004D01*
X159206280Y-107948433D01*
X159206280Y-107329385D01*
G04 #@! TO.C,R3*
X173289933Y-105646480D02*
X172956600Y-105170290D01*
X172718504Y-105646480D02*
X172718504Y-104646480D01*
X173099457Y-104646480D01*
X173194695Y-104694100D01*
X173242314Y-104741719D01*
X173289933Y-104836957D01*
X173289933Y-104979814D01*
X173242314Y-105075052D01*
X173194695Y-105122671D01*
X173099457Y-105170290D01*
X172718504Y-105170290D01*
X173623266Y-104646480D02*
X174242314Y-104646480D01*
X173908980Y-105027433D01*
X174051838Y-105027433D01*
X174147076Y-105075052D01*
X174194695Y-105122671D01*
X174242314Y-105217909D01*
X174242314Y-105456004D01*
X174194695Y-105551242D01*
X174147076Y-105598861D01*
X174051838Y-105646480D01*
X173766123Y-105646480D01*
X173670885Y-105598861D01*
X173623266Y-105551242D01*
G04 #@! TO.C,R11*
X159422180Y-121013457D02*
X158945990Y-121346790D01*
X159422180Y-121584885D02*
X158422180Y-121584885D01*
X158422180Y-121203933D01*
X158469800Y-121108695D01*
X158517419Y-121061076D01*
X158612657Y-121013457D01*
X158755514Y-121013457D01*
X158850752Y-121061076D01*
X158898371Y-121108695D01*
X158945990Y-121203933D01*
X158945990Y-121584885D01*
X159422180Y-120061076D02*
X159422180Y-120632504D01*
X159422180Y-120346790D02*
X158422180Y-120346790D01*
X158565038Y-120442028D01*
X158660276Y-120537266D01*
X158707895Y-120632504D01*
X159422180Y-119108695D02*
X159422180Y-119680123D01*
X159422180Y-119394409D02*
X158422180Y-119394409D01*
X158565038Y-119489647D01*
X158660276Y-119584885D01*
X158707895Y-119680123D01*
G04 #@! TO.C,R12*
X174624080Y-120645157D02*
X174147890Y-120978490D01*
X174624080Y-121216585D02*
X173624080Y-121216585D01*
X173624080Y-120835633D01*
X173671700Y-120740395D01*
X173719319Y-120692776D01*
X173814557Y-120645157D01*
X173957414Y-120645157D01*
X174052652Y-120692776D01*
X174100271Y-120740395D01*
X174147890Y-120835633D01*
X174147890Y-121216585D01*
X174624080Y-119692776D02*
X174624080Y-120264204D01*
X174624080Y-119978490D02*
X173624080Y-119978490D01*
X173766938Y-120073728D01*
X173862176Y-120168966D01*
X173909795Y-120264204D01*
X173719319Y-119311823D02*
X173671700Y-119264204D01*
X173624080Y-119168966D01*
X173624080Y-118930871D01*
X173671700Y-118835633D01*
X173719319Y-118788014D01*
X173814557Y-118740395D01*
X173909795Y-118740395D01*
X174052652Y-118788014D01*
X174624080Y-119359442D01*
X174624080Y-118740395D01*
G04 #@! TO.C,J1*
X94616240Y-147396153D02*
X95330526Y-147396153D01*
X95473383Y-147443772D01*
X95568621Y-147539010D01*
X95616240Y-147681867D01*
X95616240Y-147777105D01*
X95616240Y-146396153D02*
X95616240Y-146967581D01*
X95616240Y-146681867D02*
X94616240Y-146681867D01*
X94759098Y-146777105D01*
X94854336Y-146872343D01*
X94901955Y-146967581D01*
G04 #@! TO.C,J2*
X102850073Y-147396153D02*
X103564359Y-147396153D01*
X103707216Y-147443772D01*
X103802454Y-147539010D01*
X103850073Y-147681867D01*
X103850073Y-147777105D01*
X102945312Y-146967581D02*
X102897693Y-146919962D01*
X102850073Y-146824724D01*
X102850073Y-146586629D01*
X102897693Y-146491391D01*
X102945312Y-146443772D01*
X103040550Y-146396153D01*
X103135788Y-146396153D01*
X103278645Y-146443772D01*
X103850073Y-147015200D01*
X103850073Y-146396153D01*
G04 #@! TO.C,J3*
X111083906Y-147396153D02*
X111798192Y-147396153D01*
X111941049Y-147443772D01*
X112036287Y-147539010D01*
X112083906Y-147681867D01*
X112083906Y-147777105D01*
X111083906Y-147015200D02*
X111083906Y-146396153D01*
X111464859Y-146729486D01*
X111464859Y-146586629D01*
X111512478Y-146491391D01*
X111560097Y-146443772D01*
X111655335Y-146396153D01*
X111893430Y-146396153D01*
X111988668Y-146443772D01*
X112036287Y-146491391D01*
X112083906Y-146586629D01*
X112083906Y-146872343D01*
X112036287Y-146967581D01*
X111988668Y-147015200D01*
G04 #@! TO.C,J4*
X119317740Y-147396153D02*
X120032026Y-147396153D01*
X120174883Y-147443772D01*
X120270121Y-147539010D01*
X120317740Y-147681867D01*
X120317740Y-147777105D01*
X119651074Y-146491391D02*
X120317740Y-146491391D01*
X119270121Y-146729486D02*
X119984407Y-146967581D01*
X119984407Y-146348534D01*
G04 #@! TO.C,J5*
X207240300Y-120533753D02*
X207954586Y-120533753D01*
X208097443Y-120581372D01*
X208192681Y-120676610D01*
X208240300Y-120819467D01*
X208240300Y-120914705D01*
X207240300Y-119581372D02*
X207240300Y-120057562D01*
X207716491Y-120105181D01*
X207668872Y-120057562D01*
X207621253Y-119962324D01*
X207621253Y-119724229D01*
X207668872Y-119628991D01*
X207716491Y-119581372D01*
X207811729Y-119533753D01*
X208049824Y-119533753D01*
X208145062Y-119581372D01*
X208192681Y-119628991D01*
X208240300Y-119724229D01*
X208240300Y-119962324D01*
X208192681Y-120057562D01*
X208145062Y-120105181D01*
G04 #@! TO.C,MH1*
X146540386Y-146576920D02*
X146540386Y-145576920D01*
X146873720Y-146291206D01*
X147207053Y-145576920D01*
X147207053Y-146576920D01*
X147683243Y-146576920D02*
X147683243Y-145576920D01*
X147683243Y-146053111D02*
X148254672Y-146053111D01*
X148254672Y-146576920D02*
X148254672Y-145576920D01*
X149254672Y-146576920D02*
X148683243Y-146576920D01*
X148968958Y-146576920D02*
X148968958Y-145576920D01*
X148873720Y-145719778D01*
X148778481Y-145815016D01*
X148683243Y-145862635D01*
G04 #@! TO.C,MH2*
X203832626Y-146576920D02*
X203832626Y-145576920D01*
X204165960Y-146291206D01*
X204499293Y-145576920D01*
X204499293Y-146576920D01*
X204975483Y-146576920D02*
X204975483Y-145576920D01*
X204975483Y-146053111D02*
X205546912Y-146053111D01*
X205546912Y-146576920D02*
X205546912Y-145576920D01*
X205975483Y-145672159D02*
X206023102Y-145624540D01*
X206118340Y-145576920D01*
X206356436Y-145576920D01*
X206451674Y-145624540D01*
X206499293Y-145672159D01*
X206546912Y-145767397D01*
X206546912Y-145862635D01*
X206499293Y-146005492D01*
X205927864Y-146576920D01*
X206546912Y-146576920D01*
G04 #@! TO.C,MH3*
X88262626Y-146576920D02*
X88262626Y-145576920D01*
X88595960Y-146291206D01*
X88929293Y-145576920D01*
X88929293Y-146576920D01*
X89405483Y-146576920D02*
X89405483Y-145576920D01*
X89405483Y-146053111D02*
X89976912Y-146053111D01*
X89976912Y-146576920D02*
X89976912Y-145576920D01*
X90357864Y-145576920D02*
X90976912Y-145576920D01*
X90643579Y-145957873D01*
X90786436Y-145957873D01*
X90881674Y-146005492D01*
X90929293Y-146053111D01*
X90976912Y-146148349D01*
X90976912Y-146386444D01*
X90929293Y-146481682D01*
X90881674Y-146529301D01*
X90786436Y-146576920D01*
X90500721Y-146576920D01*
X90405483Y-146529301D01*
X90357864Y-146481682D01*
G04 #@! TO.C,MH4*
X203929146Y-86658320D02*
X203929146Y-85658320D01*
X204262480Y-86372606D01*
X204595813Y-85658320D01*
X204595813Y-86658320D01*
X205072003Y-86658320D02*
X205072003Y-85658320D01*
X205072003Y-86134511D02*
X205643432Y-86134511D01*
X205643432Y-86658320D02*
X205643432Y-85658320D01*
X206548194Y-85991654D02*
X206548194Y-86658320D01*
X206310099Y-85610701D02*
X206072003Y-86324987D01*
X206691051Y-86324987D01*
G04 #@! TO.C,Q3*
X163887161Y-105051719D02*
X163791923Y-105004100D01*
X163696685Y-104908861D01*
X163553828Y-104766004D01*
X163458590Y-104718385D01*
X163363352Y-104718385D01*
X163410971Y-104956480D02*
X163315733Y-104908861D01*
X163220495Y-104813623D01*
X163172876Y-104623147D01*
X163172876Y-104289814D01*
X163220495Y-104099338D01*
X163315733Y-104004100D01*
X163410971Y-103956480D01*
X163601447Y-103956480D01*
X163696685Y-104004100D01*
X163791923Y-104099338D01*
X163839542Y-104289814D01*
X163839542Y-104623147D01*
X163791923Y-104813623D01*
X163696685Y-104908861D01*
X163601447Y-104956480D01*
X163410971Y-104956480D01*
X164172876Y-103956480D02*
X164791923Y-103956480D01*
X164458590Y-104337433D01*
X164601447Y-104337433D01*
X164696685Y-104385052D01*
X164744304Y-104432671D01*
X164791923Y-104527909D01*
X164791923Y-104766004D01*
X164744304Y-104861242D01*
X164696685Y-104908861D01*
X164601447Y-104956480D01*
X164315733Y-104956480D01*
X164220495Y-104908861D01*
X164172876Y-104861242D01*
G04 #@! TO.C,Q4*
X179216061Y-105051719D02*
X179120823Y-105004100D01*
X179025585Y-104908861D01*
X178882728Y-104766004D01*
X178787490Y-104718385D01*
X178692252Y-104718385D01*
X178739871Y-104956480D02*
X178644633Y-104908861D01*
X178549395Y-104813623D01*
X178501776Y-104623147D01*
X178501776Y-104289814D01*
X178549395Y-104099338D01*
X178644633Y-104004100D01*
X178739871Y-103956480D01*
X178930347Y-103956480D01*
X179025585Y-104004100D01*
X179120823Y-104099338D01*
X179168442Y-104289814D01*
X179168442Y-104623147D01*
X179120823Y-104813623D01*
X179025585Y-104908861D01*
X178930347Y-104956480D01*
X178739871Y-104956480D01*
X180025585Y-104289814D02*
X180025585Y-104956480D01*
X179787490Y-103908861D02*
X179549395Y-104623147D01*
X180168442Y-104623147D01*
G04 #@! TO.C,Q5*
X163976061Y-117180219D02*
X163880823Y-117132600D01*
X163785585Y-117037361D01*
X163642728Y-116894504D01*
X163547490Y-116846885D01*
X163452252Y-116846885D01*
X163499871Y-117084980D02*
X163404633Y-117037361D01*
X163309395Y-116942123D01*
X163261776Y-116751647D01*
X163261776Y-116418314D01*
X163309395Y-116227838D01*
X163404633Y-116132600D01*
X163499871Y-116084980D01*
X163690347Y-116084980D01*
X163785585Y-116132600D01*
X163880823Y-116227838D01*
X163928442Y-116418314D01*
X163928442Y-116751647D01*
X163880823Y-116942123D01*
X163785585Y-117037361D01*
X163690347Y-117084980D01*
X163499871Y-117084980D01*
X164833204Y-116084980D02*
X164357014Y-116084980D01*
X164309395Y-116561171D01*
X164357014Y-116513552D01*
X164452252Y-116465933D01*
X164690347Y-116465933D01*
X164785585Y-116513552D01*
X164833204Y-116561171D01*
X164880823Y-116656409D01*
X164880823Y-116894504D01*
X164833204Y-116989742D01*
X164785585Y-117037361D01*
X164690347Y-117084980D01*
X164452252Y-117084980D01*
X164357014Y-117037361D01*
X164309395Y-116989742D01*
G04 #@! TO.C,Q6*
X179216061Y-116977019D02*
X179120823Y-116929400D01*
X179025585Y-116834161D01*
X178882728Y-116691304D01*
X178787490Y-116643685D01*
X178692252Y-116643685D01*
X178739871Y-116881780D02*
X178644633Y-116834161D01*
X178549395Y-116738923D01*
X178501776Y-116548447D01*
X178501776Y-116215114D01*
X178549395Y-116024638D01*
X178644633Y-115929400D01*
X178739871Y-115881780D01*
X178930347Y-115881780D01*
X179025585Y-115929400D01*
X179120823Y-116024638D01*
X179168442Y-116215114D01*
X179168442Y-116548447D01*
X179120823Y-116738923D01*
X179025585Y-116834161D01*
X178930347Y-116881780D01*
X178739871Y-116881780D01*
X180025585Y-115881780D02*
X179835109Y-115881780D01*
X179739871Y-115929400D01*
X179692252Y-115977019D01*
X179597014Y-116119876D01*
X179549395Y-116310352D01*
X179549395Y-116691304D01*
X179597014Y-116786542D01*
X179644633Y-116834161D01*
X179739871Y-116881780D01*
X179930347Y-116881780D01*
X180025585Y-116834161D01*
X180073204Y-116786542D01*
X180120823Y-116691304D01*
X180120823Y-116453209D01*
X180073204Y-116357971D01*
X180025585Y-116310352D01*
X179930347Y-116262733D01*
X179739871Y-116262733D01*
X179644633Y-116310352D01*
X179597014Y-116357971D01*
X179549395Y-116453209D01*
G04 #@! TO.C,Q1*
X179216061Y-92580319D02*
X179120823Y-92532700D01*
X179025585Y-92437461D01*
X178882728Y-92294604D01*
X178787490Y-92246985D01*
X178692252Y-92246985D01*
X178739871Y-92485080D02*
X178644633Y-92437461D01*
X178549395Y-92342223D01*
X178501776Y-92151747D01*
X178501776Y-91818414D01*
X178549395Y-91627938D01*
X178644633Y-91532700D01*
X178739871Y-91485080D01*
X178930347Y-91485080D01*
X179025585Y-91532700D01*
X179120823Y-91627938D01*
X179168442Y-91818414D01*
X179168442Y-92151747D01*
X179120823Y-92342223D01*
X179025585Y-92437461D01*
X178930347Y-92485080D01*
X178739871Y-92485080D01*
X180120823Y-92485080D02*
X179549395Y-92485080D01*
X179835109Y-92485080D02*
X179835109Y-91485080D01*
X179739871Y-91627938D01*
X179644633Y-91723176D01*
X179549395Y-91770795D01*
G04 #@! TO.C,SW1*
X201663466Y-143952861D02*
X201806323Y-144000480D01*
X202044419Y-144000480D01*
X202139657Y-143952861D01*
X202187276Y-143905242D01*
X202234895Y-143810004D01*
X202234895Y-143714766D01*
X202187276Y-143619528D01*
X202139657Y-143571909D01*
X202044419Y-143524290D01*
X201853942Y-143476671D01*
X201758704Y-143429052D01*
X201711085Y-143381433D01*
X201663466Y-143286195D01*
X201663466Y-143190957D01*
X201711085Y-143095719D01*
X201758704Y-143048100D01*
X201853942Y-143000480D01*
X202092038Y-143000480D01*
X202234895Y-143048100D01*
X202568228Y-143000480D02*
X202806323Y-144000480D01*
X202996800Y-143286195D01*
X203187276Y-144000480D01*
X203425371Y-143000480D01*
X204330133Y-144000480D02*
X203758704Y-144000480D01*
X204044419Y-144000480D02*
X204044419Y-143000480D01*
X203949180Y-143143338D01*
X203853942Y-143238576D01*
X203758704Y-143286195D01*
G04 #@! TD*
M02*
