G04 #@! TF.GenerationSoftware,KiCad,Pcbnew,(5.0.0)*
G04 #@! TF.CreationDate,2020-01-14T16:13:25-06:00*
G04 #@! TF.ProjectId,Igniter,49676E697465722E6B696361645F7063,rev?*
G04 #@! TF.SameCoordinates,Original*
G04 #@! TF.FileFunction,Soldermask,Top*
G04 #@! TF.FilePolarity,Negative*
%FSLAX46Y46*%
G04 Gerber Fmt 4.6, Leading zero omitted, Abs format (unit mm)*
G04 Created by KiCad (PCBNEW (5.0.0)) date 01/14/20 16:13:25*
%MOMM*%
%LPD*%
G01*
G04 APERTURE LIST*
%ADD10C,0.100000*%
G04 APERTURE END LIST*
D10*
G36*
X205691291Y-148892751D02*
X206019052Y-149028514D01*
X206314033Y-149225614D01*
X206564886Y-149476467D01*
X206761986Y-149771448D01*
X206897749Y-150099209D01*
X206966960Y-150447156D01*
X206966960Y-150801924D01*
X206897749Y-151149871D01*
X206761986Y-151477632D01*
X206564886Y-151772613D01*
X206314033Y-152023466D01*
X206019052Y-152220566D01*
X205691291Y-152356329D01*
X205343344Y-152425540D01*
X204988576Y-152425540D01*
X204640629Y-152356329D01*
X204312868Y-152220566D01*
X204017887Y-152023466D01*
X203767034Y-151772613D01*
X203569934Y-151477632D01*
X203434171Y-151149871D01*
X203364960Y-150801924D01*
X203364960Y-150447156D01*
X203434171Y-150099209D01*
X203569934Y-149771448D01*
X203767034Y-149476467D01*
X204017887Y-149225614D01*
X204312868Y-149028514D01*
X204640629Y-148892751D01*
X204988576Y-148823540D01*
X205343344Y-148823540D01*
X205691291Y-148892751D01*
X205691291Y-148892751D01*
G37*
G36*
X148399051Y-148892751D02*
X148726812Y-149028514D01*
X149021793Y-149225614D01*
X149272646Y-149476467D01*
X149469746Y-149771448D01*
X149605509Y-150099209D01*
X149674720Y-150447156D01*
X149674720Y-150801924D01*
X149605509Y-151149871D01*
X149469746Y-151477632D01*
X149272646Y-151772613D01*
X149021793Y-152023466D01*
X148726812Y-152220566D01*
X148399051Y-152356329D01*
X148051104Y-152425540D01*
X147696336Y-152425540D01*
X147348389Y-152356329D01*
X147020628Y-152220566D01*
X146725647Y-152023466D01*
X146474794Y-151772613D01*
X146277694Y-151477632D01*
X146141931Y-151149871D01*
X146072720Y-150801924D01*
X146072720Y-150447156D01*
X146141931Y-150099209D01*
X146277694Y-149771448D01*
X146474794Y-149476467D01*
X146725647Y-149225614D01*
X147020628Y-149028514D01*
X147348389Y-148892751D01*
X147696336Y-148823540D01*
X148051104Y-148823540D01*
X148399051Y-148892751D01*
X148399051Y-148892751D01*
G37*
G36*
X90121291Y-148892751D02*
X90449052Y-149028514D01*
X90744033Y-149225614D01*
X90994886Y-149476467D01*
X91191986Y-149771448D01*
X91327749Y-150099209D01*
X91396960Y-150447156D01*
X91396960Y-150801924D01*
X91327749Y-151149871D01*
X91191986Y-151477632D01*
X90994886Y-151772613D01*
X90744033Y-152023466D01*
X90449052Y-152220566D01*
X90121291Y-152356329D01*
X89773344Y-152425540D01*
X89418576Y-152425540D01*
X89070629Y-152356329D01*
X88742868Y-152220566D01*
X88447887Y-152023466D01*
X88197034Y-151772613D01*
X87999934Y-151477632D01*
X87864171Y-151149871D01*
X87794960Y-150801924D01*
X87794960Y-150447156D01*
X87864171Y-150099209D01*
X87999934Y-149771448D01*
X88197034Y-149476467D01*
X88447887Y-149225614D01*
X88742868Y-149028514D01*
X89070629Y-148892751D01*
X89418576Y-148823540D01*
X89773344Y-148823540D01*
X90121291Y-148892751D01*
X90121291Y-148892751D01*
G37*
G36*
X181817404Y-149444885D02*
X181985926Y-149514689D01*
X182137591Y-149616028D01*
X182266572Y-149745009D01*
X182367911Y-149896674D01*
X182437715Y-150065196D01*
X182473300Y-150244097D01*
X182473300Y-150426503D01*
X182437715Y-150605404D01*
X182367911Y-150773926D01*
X182266572Y-150925591D01*
X182137591Y-151054572D01*
X181985926Y-151155911D01*
X181817404Y-151225715D01*
X181638503Y-151261300D01*
X181456097Y-151261300D01*
X181277196Y-151225715D01*
X181108674Y-151155911D01*
X180957009Y-151054572D01*
X180828028Y-150925591D01*
X180726689Y-150773926D01*
X180656885Y-150605404D01*
X180621300Y-150426503D01*
X180621300Y-150244097D01*
X180656885Y-150065196D01*
X180726689Y-149896674D01*
X180828028Y-149745009D01*
X180957009Y-149616028D01*
X181108674Y-149514689D01*
X181277196Y-149444885D01*
X181456097Y-149409300D01*
X181638503Y-149409300D01*
X181817404Y-149444885D01*
X181817404Y-149444885D01*
G37*
G36*
X185317404Y-149444885D02*
X185485926Y-149514689D01*
X185637591Y-149616028D01*
X185766572Y-149745009D01*
X185867911Y-149896674D01*
X185937715Y-150065196D01*
X185973300Y-150244097D01*
X185973300Y-150426503D01*
X185937715Y-150605404D01*
X185867911Y-150773926D01*
X185766572Y-150925591D01*
X185637591Y-151054572D01*
X185485926Y-151155911D01*
X185317404Y-151225715D01*
X185138503Y-151261300D01*
X184956097Y-151261300D01*
X184777196Y-151225715D01*
X184608674Y-151155911D01*
X184457009Y-151054572D01*
X184328028Y-150925591D01*
X184226689Y-150773926D01*
X184156885Y-150605404D01*
X184121300Y-150426503D01*
X184121300Y-150244097D01*
X184156885Y-150065196D01*
X184226689Y-149896674D01*
X184328028Y-149745009D01*
X184457009Y-149616028D01*
X184608674Y-149514689D01*
X184777196Y-149444885D01*
X184956097Y-149409300D01*
X185138503Y-149409300D01*
X185317404Y-149444885D01*
X185317404Y-149444885D01*
G37*
G36*
X191117404Y-149444885D02*
X191285926Y-149514689D01*
X191437591Y-149616028D01*
X191566572Y-149745009D01*
X191667911Y-149896674D01*
X191737715Y-150065196D01*
X191773300Y-150244097D01*
X191773300Y-150426503D01*
X191737715Y-150605404D01*
X191667911Y-150773926D01*
X191566572Y-150925591D01*
X191437591Y-151054572D01*
X191285926Y-151155911D01*
X191117404Y-151225715D01*
X190938503Y-151261300D01*
X190756097Y-151261300D01*
X190577196Y-151225715D01*
X190408674Y-151155911D01*
X190257009Y-151054572D01*
X190128028Y-150925591D01*
X190026689Y-150773926D01*
X189956885Y-150605404D01*
X189921300Y-150426503D01*
X189921300Y-150244097D01*
X189956885Y-150065196D01*
X190026689Y-149896674D01*
X190128028Y-149745009D01*
X190257009Y-149616028D01*
X190408674Y-149514689D01*
X190577196Y-149444885D01*
X190756097Y-149409300D01*
X190938503Y-149409300D01*
X191117404Y-149444885D01*
X191117404Y-149444885D01*
G37*
G36*
X194617404Y-149444885D02*
X194785926Y-149514689D01*
X194937591Y-149616028D01*
X195066572Y-149745009D01*
X195167911Y-149896674D01*
X195237715Y-150065196D01*
X195273300Y-150244097D01*
X195273300Y-150426503D01*
X195237715Y-150605404D01*
X195167911Y-150773926D01*
X195066572Y-150925591D01*
X194937591Y-151054572D01*
X194785926Y-151155911D01*
X194617404Y-151225715D01*
X194438503Y-151261300D01*
X194256097Y-151261300D01*
X194077196Y-151225715D01*
X193908674Y-151155911D01*
X193757009Y-151054572D01*
X193628028Y-150925591D01*
X193526689Y-150773926D01*
X193456885Y-150605404D01*
X193421300Y-150426503D01*
X193421300Y-150244097D01*
X193456885Y-150065196D01*
X193526689Y-149896674D01*
X193628028Y-149745009D01*
X193757009Y-149616028D01*
X193908674Y-149514689D01*
X194077196Y-149444885D01*
X194256097Y-149409300D01*
X194438503Y-149409300D01*
X194617404Y-149444885D01*
X194617404Y-149444885D01*
G37*
G36*
X141925520Y-148665809D02*
X141958569Y-148675834D01*
X141989026Y-148692114D01*
X142015719Y-148714021D01*
X142037626Y-148740714D01*
X142053906Y-148771171D01*
X142063931Y-148804220D01*
X142067920Y-148844724D01*
X142067920Y-150280916D01*
X142063931Y-150321420D01*
X142053906Y-150354469D01*
X142037626Y-150384926D01*
X142015719Y-150411619D01*
X141989026Y-150433526D01*
X141958569Y-150449806D01*
X141925520Y-150459831D01*
X141885016Y-150463820D01*
X140298824Y-150463820D01*
X140258320Y-150459831D01*
X140225271Y-150449806D01*
X140194814Y-150433526D01*
X140168121Y-150411619D01*
X140146214Y-150384926D01*
X140129934Y-150354469D01*
X140119909Y-150321420D01*
X140115920Y-150280916D01*
X140115920Y-148844724D01*
X140119909Y-148804220D01*
X140129934Y-148771171D01*
X140146214Y-148740714D01*
X140168121Y-148714021D01*
X140194814Y-148692114D01*
X140225271Y-148675834D01*
X140258320Y-148665809D01*
X140298824Y-148661820D01*
X141885016Y-148661820D01*
X141925520Y-148665809D01*
X141925520Y-148665809D01*
G37*
G36*
X173269120Y-148665809D02*
X173302169Y-148675834D01*
X173332626Y-148692114D01*
X173359319Y-148714021D01*
X173381226Y-148740714D01*
X173397506Y-148771171D01*
X173407531Y-148804220D01*
X173411520Y-148844724D01*
X173411520Y-150280916D01*
X173407531Y-150321420D01*
X173397506Y-150354469D01*
X173381226Y-150384926D01*
X173359319Y-150411619D01*
X173332626Y-150433526D01*
X173302169Y-150449806D01*
X173269120Y-150459831D01*
X173228616Y-150463820D01*
X171642424Y-150463820D01*
X171601920Y-150459831D01*
X171568871Y-150449806D01*
X171538414Y-150433526D01*
X171511721Y-150411619D01*
X171489814Y-150384926D01*
X171473534Y-150354469D01*
X171463509Y-150321420D01*
X171459520Y-150280916D01*
X171459520Y-148844724D01*
X171463509Y-148804220D01*
X171473534Y-148771171D01*
X171489814Y-148740714D01*
X171511721Y-148714021D01*
X171538414Y-148692114D01*
X171568871Y-148675834D01*
X171601920Y-148665809D01*
X171642424Y-148661820D01*
X173228616Y-148661820D01*
X173269120Y-148665809D01*
X173269120Y-148665809D01*
G37*
G36*
X164927760Y-148665809D02*
X164960809Y-148675834D01*
X164991266Y-148692114D01*
X165017959Y-148714021D01*
X165039866Y-148740714D01*
X165056146Y-148771171D01*
X165066171Y-148804220D01*
X165070160Y-148844724D01*
X165070160Y-150280916D01*
X165066171Y-150321420D01*
X165056146Y-150354469D01*
X165039866Y-150384926D01*
X165017959Y-150411619D01*
X164991266Y-150433526D01*
X164960809Y-150449806D01*
X164927760Y-150459831D01*
X164887256Y-150463820D01*
X163301064Y-150463820D01*
X163260560Y-150459831D01*
X163227511Y-150449806D01*
X163197054Y-150433526D01*
X163170361Y-150411619D01*
X163148454Y-150384926D01*
X163132174Y-150354469D01*
X163122149Y-150321420D01*
X163118160Y-150280916D01*
X163118160Y-148844724D01*
X163122149Y-148804220D01*
X163132174Y-148771171D01*
X163148454Y-148740714D01*
X163170361Y-148714021D01*
X163197054Y-148692114D01*
X163227511Y-148675834D01*
X163260560Y-148665809D01*
X163301064Y-148661820D01*
X164887256Y-148661820D01*
X164927760Y-148665809D01*
X164927760Y-148665809D01*
G37*
G36*
X156586400Y-148665809D02*
X156619449Y-148675834D01*
X156649906Y-148692114D01*
X156676599Y-148714021D01*
X156698506Y-148740714D01*
X156714786Y-148771171D01*
X156724811Y-148804220D01*
X156728800Y-148844724D01*
X156728800Y-150280916D01*
X156724811Y-150321420D01*
X156714786Y-150354469D01*
X156698506Y-150384926D01*
X156676599Y-150411619D01*
X156649906Y-150433526D01*
X156619449Y-150449806D01*
X156586400Y-150459831D01*
X156545896Y-150463820D01*
X154959704Y-150463820D01*
X154919200Y-150459831D01*
X154886151Y-150449806D01*
X154855694Y-150433526D01*
X154829001Y-150411619D01*
X154807094Y-150384926D01*
X154790814Y-150354469D01*
X154780789Y-150321420D01*
X154776800Y-150280916D01*
X154776800Y-148844724D01*
X154780789Y-148804220D01*
X154790814Y-148771171D01*
X154807094Y-148740714D01*
X154829001Y-148714021D01*
X154855694Y-148692114D01*
X154886151Y-148675834D01*
X154919200Y-148665809D01*
X154959704Y-148661820D01*
X156545896Y-148661820D01*
X156586400Y-148665809D01*
X156586400Y-148665809D01*
G37*
G36*
X100297460Y-148665809D02*
X100330509Y-148675834D01*
X100360966Y-148692114D01*
X100387659Y-148714021D01*
X100409566Y-148740714D01*
X100425846Y-148771171D01*
X100435871Y-148804220D01*
X100439860Y-148844724D01*
X100439860Y-150280916D01*
X100435871Y-150321420D01*
X100425846Y-150354469D01*
X100409566Y-150384926D01*
X100387659Y-150411619D01*
X100360966Y-150433526D01*
X100330509Y-150449806D01*
X100297460Y-150459831D01*
X100256956Y-150463820D01*
X98670764Y-150463820D01*
X98630260Y-150459831D01*
X98597211Y-150449806D01*
X98566754Y-150433526D01*
X98540061Y-150411619D01*
X98518154Y-150384926D01*
X98501874Y-150354469D01*
X98491849Y-150321420D01*
X98487860Y-150280916D01*
X98487860Y-148844724D01*
X98491849Y-148804220D01*
X98501874Y-148771171D01*
X98518154Y-148740714D01*
X98540061Y-148714021D01*
X98566754Y-148692114D01*
X98597211Y-148675834D01*
X98630260Y-148665809D01*
X98670764Y-148661820D01*
X100256956Y-148661820D01*
X100297460Y-148665809D01*
X100297460Y-148665809D01*
G37*
G36*
X116765126Y-148665809D02*
X116798175Y-148675834D01*
X116828632Y-148692114D01*
X116855325Y-148714021D01*
X116877232Y-148740714D01*
X116893512Y-148771171D01*
X116903537Y-148804220D01*
X116907526Y-148844724D01*
X116907526Y-150280916D01*
X116903537Y-150321420D01*
X116893512Y-150354469D01*
X116877232Y-150384926D01*
X116855325Y-150411619D01*
X116828632Y-150433526D01*
X116798175Y-150449806D01*
X116765126Y-150459831D01*
X116724622Y-150463820D01*
X115138430Y-150463820D01*
X115097926Y-150459831D01*
X115064877Y-150449806D01*
X115034420Y-150433526D01*
X115007727Y-150411619D01*
X114985820Y-150384926D01*
X114969540Y-150354469D01*
X114959515Y-150321420D01*
X114955526Y-150280916D01*
X114955526Y-148844724D01*
X114959515Y-148804220D01*
X114969540Y-148771171D01*
X114985820Y-148740714D01*
X115007727Y-148714021D01*
X115034420Y-148692114D01*
X115064877Y-148675834D01*
X115097926Y-148665809D01*
X115138430Y-148661820D01*
X116724622Y-148661820D01*
X116765126Y-148665809D01*
X116765126Y-148665809D01*
G37*
G36*
X134191220Y-148665809D02*
X134224269Y-148675834D01*
X134254726Y-148692114D01*
X134281419Y-148714021D01*
X134303326Y-148740714D01*
X134319606Y-148771171D01*
X134329631Y-148804220D01*
X134333620Y-148844724D01*
X134333620Y-150280916D01*
X134329631Y-150321420D01*
X134319606Y-150354469D01*
X134303326Y-150384926D01*
X134281419Y-150411619D01*
X134254726Y-150433526D01*
X134224269Y-150449806D01*
X134191220Y-150459831D01*
X134150716Y-150463820D01*
X132564524Y-150463820D01*
X132524020Y-150459831D01*
X132490971Y-150449806D01*
X132460514Y-150433526D01*
X132433821Y-150411619D01*
X132411914Y-150384926D01*
X132395634Y-150354469D01*
X132385609Y-150321420D01*
X132381620Y-150280916D01*
X132381620Y-148844724D01*
X132385609Y-148804220D01*
X132395634Y-148771171D01*
X132411914Y-148740714D01*
X132433821Y-148714021D01*
X132460514Y-148692114D01*
X132490971Y-148675834D01*
X132524020Y-148665809D01*
X132564524Y-148661820D01*
X134150716Y-148661820D01*
X134191220Y-148665809D01*
X134191220Y-148665809D01*
G37*
G36*
X124998960Y-148665809D02*
X125032009Y-148675834D01*
X125062466Y-148692114D01*
X125089159Y-148714021D01*
X125111066Y-148740714D01*
X125127346Y-148771171D01*
X125137371Y-148804220D01*
X125141360Y-148844724D01*
X125141360Y-150280916D01*
X125137371Y-150321420D01*
X125127346Y-150354469D01*
X125111066Y-150384926D01*
X125089159Y-150411619D01*
X125062466Y-150433526D01*
X125032009Y-150449806D01*
X124998960Y-150459831D01*
X124958456Y-150463820D01*
X123372264Y-150463820D01*
X123331760Y-150459831D01*
X123298711Y-150449806D01*
X123268254Y-150433526D01*
X123241561Y-150411619D01*
X123219654Y-150384926D01*
X123203374Y-150354469D01*
X123193349Y-150321420D01*
X123189360Y-150280916D01*
X123189360Y-148844724D01*
X123193349Y-148804220D01*
X123203374Y-148771171D01*
X123219654Y-148740714D01*
X123241561Y-148714021D01*
X123268254Y-148692114D01*
X123298711Y-148675834D01*
X123331760Y-148665809D01*
X123372264Y-148661820D01*
X124958456Y-148661820D01*
X124998960Y-148665809D01*
X124998960Y-148665809D01*
G37*
G36*
X108531293Y-148665809D02*
X108564342Y-148675834D01*
X108594799Y-148692114D01*
X108621492Y-148714021D01*
X108643399Y-148740714D01*
X108659679Y-148771171D01*
X108669704Y-148804220D01*
X108673693Y-148844724D01*
X108673693Y-150280916D01*
X108669704Y-150321420D01*
X108659679Y-150354469D01*
X108643399Y-150384926D01*
X108621492Y-150411619D01*
X108594799Y-150433526D01*
X108564342Y-150449806D01*
X108531293Y-150459831D01*
X108490789Y-150463820D01*
X106904597Y-150463820D01*
X106864093Y-150459831D01*
X106831044Y-150449806D01*
X106800587Y-150433526D01*
X106773894Y-150411619D01*
X106751987Y-150384926D01*
X106735707Y-150354469D01*
X106725682Y-150321420D01*
X106721693Y-150280916D01*
X106721693Y-148844724D01*
X106725682Y-148804220D01*
X106735707Y-148771171D01*
X106751987Y-148740714D01*
X106773894Y-148714021D01*
X106800587Y-148692114D01*
X106831044Y-148675834D01*
X106864093Y-148665809D01*
X106904597Y-148661820D01*
X108490789Y-148661820D01*
X108531293Y-148665809D01*
X108531293Y-148665809D01*
G37*
G36*
X188326785Y-147834296D02*
X188326787Y-147834297D01*
X188326788Y-147834297D01*
X188483630Y-147899263D01*
X188563555Y-147932369D01*
X188776642Y-148074749D01*
X188957851Y-148255958D01*
X189100231Y-148469045D01*
X189198304Y-148705815D01*
X189248300Y-148957161D01*
X189248300Y-149213439D01*
X189198304Y-149464785D01*
X189100231Y-149701555D01*
X188957851Y-149914642D01*
X188776642Y-150095851D01*
X188776639Y-150095853D01*
X188563555Y-150238231D01*
X188326788Y-150336303D01*
X188326787Y-150336303D01*
X188326785Y-150336304D01*
X188075439Y-150386300D01*
X187819161Y-150386300D01*
X187567815Y-150336304D01*
X187567813Y-150336303D01*
X187567812Y-150336303D01*
X187331045Y-150238231D01*
X187117961Y-150095853D01*
X187117958Y-150095851D01*
X186936749Y-149914642D01*
X186794369Y-149701555D01*
X186696296Y-149464785D01*
X186646300Y-149213439D01*
X186646300Y-148957161D01*
X186696296Y-148705815D01*
X186794369Y-148469045D01*
X186936749Y-148255958D01*
X187117958Y-148074749D01*
X187331045Y-147932369D01*
X187410970Y-147899263D01*
X187567812Y-147834297D01*
X187567813Y-147834297D01*
X187567815Y-147834296D01*
X187819161Y-147784300D01*
X188075439Y-147784300D01*
X188326785Y-147834296D01*
X188326785Y-147834296D01*
G37*
G36*
X185317404Y-146944885D02*
X185485926Y-147014689D01*
X185637591Y-147116028D01*
X185766572Y-147245009D01*
X185867911Y-147396674D01*
X185937715Y-147565196D01*
X185973300Y-147744097D01*
X185973300Y-147926503D01*
X185937715Y-148105404D01*
X185867911Y-148273926D01*
X185766572Y-148425591D01*
X185637591Y-148554572D01*
X185485926Y-148655911D01*
X185317404Y-148725715D01*
X185138503Y-148761300D01*
X184956097Y-148761300D01*
X184777196Y-148725715D01*
X184608674Y-148655911D01*
X184457009Y-148554572D01*
X184328028Y-148425591D01*
X184226689Y-148273926D01*
X184156885Y-148105404D01*
X184121300Y-147926503D01*
X184121300Y-147744097D01*
X184156885Y-147565196D01*
X184226689Y-147396674D01*
X184328028Y-147245009D01*
X184457009Y-147116028D01*
X184608674Y-147014689D01*
X184777196Y-146944885D01*
X184956097Y-146909300D01*
X185138503Y-146909300D01*
X185317404Y-146944885D01*
X185317404Y-146944885D01*
G37*
G36*
X194617404Y-146944885D02*
X194785926Y-147014689D01*
X194937591Y-147116028D01*
X195066572Y-147245009D01*
X195167911Y-147396674D01*
X195237715Y-147565196D01*
X195273300Y-147744097D01*
X195273300Y-147926503D01*
X195237715Y-148105404D01*
X195167911Y-148273926D01*
X195066572Y-148425591D01*
X194937591Y-148554572D01*
X194785926Y-148655911D01*
X194617404Y-148725715D01*
X194438503Y-148761300D01*
X194256097Y-148761300D01*
X194077196Y-148725715D01*
X193908674Y-148655911D01*
X193757009Y-148554572D01*
X193628028Y-148425591D01*
X193526689Y-148273926D01*
X193456885Y-148105404D01*
X193421300Y-147926503D01*
X193421300Y-147744097D01*
X193456885Y-147565196D01*
X193526689Y-147396674D01*
X193628028Y-147245009D01*
X193757009Y-147116028D01*
X193908674Y-147014689D01*
X194077196Y-146944885D01*
X194256097Y-146909300D01*
X194438503Y-146909300D01*
X194617404Y-146944885D01*
X194617404Y-146944885D01*
G37*
G36*
X191117404Y-146944885D02*
X191285926Y-147014689D01*
X191437591Y-147116028D01*
X191566572Y-147245009D01*
X191667911Y-147396674D01*
X191737715Y-147565196D01*
X191773300Y-147744097D01*
X191773300Y-147926503D01*
X191737715Y-148105404D01*
X191667911Y-148273926D01*
X191566572Y-148425591D01*
X191437591Y-148554572D01*
X191285926Y-148655911D01*
X191117404Y-148725715D01*
X190938503Y-148761300D01*
X190756097Y-148761300D01*
X190577196Y-148725715D01*
X190408674Y-148655911D01*
X190257009Y-148554572D01*
X190128028Y-148425591D01*
X190026689Y-148273926D01*
X189956885Y-148105404D01*
X189921300Y-147926503D01*
X189921300Y-147744097D01*
X189956885Y-147565196D01*
X190026689Y-147396674D01*
X190128028Y-147245009D01*
X190257009Y-147116028D01*
X190408674Y-147014689D01*
X190577196Y-146944885D01*
X190756097Y-146909300D01*
X190938503Y-146909300D01*
X191117404Y-146944885D01*
X191117404Y-146944885D01*
G37*
G36*
X181817404Y-146944885D02*
X181985926Y-147014689D01*
X182137591Y-147116028D01*
X182266572Y-147245009D01*
X182367911Y-147396674D01*
X182437715Y-147565196D01*
X182473300Y-147744097D01*
X182473300Y-147926503D01*
X182437715Y-148105404D01*
X182367911Y-148273926D01*
X182266572Y-148425591D01*
X182137591Y-148554572D01*
X181985926Y-148655911D01*
X181817404Y-148725715D01*
X181638503Y-148761300D01*
X181456097Y-148761300D01*
X181277196Y-148725715D01*
X181108674Y-148655911D01*
X180957009Y-148554572D01*
X180828028Y-148425591D01*
X180726689Y-148273926D01*
X180656885Y-148105404D01*
X180621300Y-147926503D01*
X180621300Y-147744097D01*
X180656885Y-147565196D01*
X180726689Y-147396674D01*
X180828028Y-147245009D01*
X180957009Y-147116028D01*
X181108674Y-147014689D01*
X181277196Y-146944885D01*
X181456097Y-146909300D01*
X181638503Y-146909300D01*
X181817404Y-146944885D01*
X181817404Y-146944885D01*
G37*
G36*
X124350802Y-146168338D02*
X124416987Y-146174857D01*
X124530213Y-146209204D01*
X124586827Y-146226377D01*
X124725447Y-146300472D01*
X124743351Y-146310042D01*
X124779089Y-146339372D01*
X124880546Y-146422634D01*
X124963808Y-146524091D01*
X124993138Y-146559829D01*
X124993139Y-146559831D01*
X125076803Y-146716353D01*
X125076803Y-146716354D01*
X125128323Y-146886193D01*
X125145719Y-147062820D01*
X125128323Y-147239447D01*
X125093976Y-147352673D01*
X125076803Y-147409287D01*
X125002708Y-147547907D01*
X124993138Y-147565811D01*
X124963808Y-147601549D01*
X124880546Y-147703006D01*
X124779089Y-147786268D01*
X124743351Y-147815598D01*
X124743349Y-147815599D01*
X124586827Y-147899263D01*
X124530213Y-147916436D01*
X124416987Y-147950783D01*
X124350802Y-147957302D01*
X124284620Y-147963820D01*
X124046100Y-147963820D01*
X123979918Y-147957302D01*
X123913733Y-147950783D01*
X123800507Y-147916436D01*
X123743893Y-147899263D01*
X123587371Y-147815599D01*
X123587369Y-147815598D01*
X123551631Y-147786268D01*
X123450174Y-147703006D01*
X123366912Y-147601549D01*
X123337582Y-147565811D01*
X123328012Y-147547907D01*
X123253917Y-147409287D01*
X123236744Y-147352673D01*
X123202397Y-147239447D01*
X123185001Y-147062820D01*
X123202397Y-146886193D01*
X123253917Y-146716354D01*
X123253917Y-146716353D01*
X123337581Y-146559831D01*
X123337582Y-146559829D01*
X123366912Y-146524091D01*
X123450174Y-146422634D01*
X123551631Y-146339372D01*
X123587369Y-146310042D01*
X123605273Y-146300472D01*
X123743893Y-146226377D01*
X123800507Y-146209204D01*
X123913733Y-146174857D01*
X123979918Y-146168338D01*
X124046100Y-146161820D01*
X124284620Y-146161820D01*
X124350802Y-146168338D01*
X124350802Y-146168338D01*
G37*
G36*
X141277362Y-146168338D02*
X141343547Y-146174857D01*
X141456773Y-146209204D01*
X141513387Y-146226377D01*
X141652007Y-146300472D01*
X141669911Y-146310042D01*
X141705649Y-146339372D01*
X141807106Y-146422634D01*
X141890368Y-146524091D01*
X141919698Y-146559829D01*
X141919699Y-146559831D01*
X142003363Y-146716353D01*
X142003363Y-146716354D01*
X142054883Y-146886193D01*
X142072279Y-147062820D01*
X142054883Y-147239447D01*
X142020536Y-147352673D01*
X142003363Y-147409287D01*
X141929268Y-147547907D01*
X141919698Y-147565811D01*
X141890368Y-147601549D01*
X141807106Y-147703006D01*
X141705649Y-147786268D01*
X141669911Y-147815598D01*
X141669909Y-147815599D01*
X141513387Y-147899263D01*
X141456773Y-147916436D01*
X141343547Y-147950783D01*
X141277362Y-147957302D01*
X141211180Y-147963820D01*
X140972660Y-147963820D01*
X140906478Y-147957302D01*
X140840293Y-147950783D01*
X140727067Y-147916436D01*
X140670453Y-147899263D01*
X140513931Y-147815599D01*
X140513929Y-147815598D01*
X140478191Y-147786268D01*
X140376734Y-147703006D01*
X140293472Y-147601549D01*
X140264142Y-147565811D01*
X140254572Y-147547907D01*
X140180477Y-147409287D01*
X140163304Y-147352673D01*
X140128957Y-147239447D01*
X140111561Y-147062820D01*
X140128957Y-146886193D01*
X140180477Y-146716354D01*
X140180477Y-146716353D01*
X140264141Y-146559831D01*
X140264142Y-146559829D01*
X140293472Y-146524091D01*
X140376734Y-146422634D01*
X140478191Y-146339372D01*
X140513929Y-146310042D01*
X140531833Y-146300472D01*
X140670453Y-146226377D01*
X140727067Y-146209204D01*
X140840293Y-146174857D01*
X140906478Y-146168338D01*
X140972660Y-146161820D01*
X141211180Y-146161820D01*
X141277362Y-146168338D01*
X141277362Y-146168338D01*
G37*
G36*
X116116968Y-146168338D02*
X116183153Y-146174857D01*
X116296379Y-146209204D01*
X116352993Y-146226377D01*
X116491613Y-146300472D01*
X116509517Y-146310042D01*
X116545255Y-146339372D01*
X116646712Y-146422634D01*
X116729974Y-146524091D01*
X116759304Y-146559829D01*
X116759305Y-146559831D01*
X116842969Y-146716353D01*
X116842969Y-146716354D01*
X116894489Y-146886193D01*
X116911885Y-147062820D01*
X116894489Y-147239447D01*
X116860142Y-147352673D01*
X116842969Y-147409287D01*
X116768874Y-147547907D01*
X116759304Y-147565811D01*
X116729974Y-147601549D01*
X116646712Y-147703006D01*
X116545255Y-147786268D01*
X116509517Y-147815598D01*
X116509515Y-147815599D01*
X116352993Y-147899263D01*
X116296379Y-147916436D01*
X116183153Y-147950783D01*
X116116968Y-147957302D01*
X116050786Y-147963820D01*
X115812266Y-147963820D01*
X115746084Y-147957302D01*
X115679899Y-147950783D01*
X115566673Y-147916436D01*
X115510059Y-147899263D01*
X115353537Y-147815599D01*
X115353535Y-147815598D01*
X115317797Y-147786268D01*
X115216340Y-147703006D01*
X115133078Y-147601549D01*
X115103748Y-147565811D01*
X115094178Y-147547907D01*
X115020083Y-147409287D01*
X115002910Y-147352673D01*
X114968563Y-147239447D01*
X114951167Y-147062820D01*
X114968563Y-146886193D01*
X115020083Y-146716354D01*
X115020083Y-146716353D01*
X115103747Y-146559831D01*
X115103748Y-146559829D01*
X115133078Y-146524091D01*
X115216340Y-146422634D01*
X115317797Y-146339372D01*
X115353535Y-146310042D01*
X115371439Y-146300472D01*
X115510059Y-146226377D01*
X115566673Y-146209204D01*
X115679899Y-146174857D01*
X115746084Y-146168338D01*
X115812266Y-146161820D01*
X116050786Y-146161820D01*
X116116968Y-146168338D01*
X116116968Y-146168338D01*
G37*
G36*
X107883135Y-146168338D02*
X107949320Y-146174857D01*
X108062546Y-146209204D01*
X108119160Y-146226377D01*
X108257780Y-146300472D01*
X108275684Y-146310042D01*
X108311422Y-146339372D01*
X108412879Y-146422634D01*
X108496141Y-146524091D01*
X108525471Y-146559829D01*
X108525472Y-146559831D01*
X108609136Y-146716353D01*
X108609136Y-146716354D01*
X108660656Y-146886193D01*
X108678052Y-147062820D01*
X108660656Y-147239447D01*
X108626309Y-147352673D01*
X108609136Y-147409287D01*
X108535041Y-147547907D01*
X108525471Y-147565811D01*
X108496141Y-147601549D01*
X108412879Y-147703006D01*
X108311422Y-147786268D01*
X108275684Y-147815598D01*
X108275682Y-147815599D01*
X108119160Y-147899263D01*
X108062546Y-147916436D01*
X107949320Y-147950783D01*
X107883135Y-147957302D01*
X107816953Y-147963820D01*
X107578433Y-147963820D01*
X107512251Y-147957302D01*
X107446066Y-147950783D01*
X107332840Y-147916436D01*
X107276226Y-147899263D01*
X107119704Y-147815599D01*
X107119702Y-147815598D01*
X107083964Y-147786268D01*
X106982507Y-147703006D01*
X106899245Y-147601549D01*
X106869915Y-147565811D01*
X106860345Y-147547907D01*
X106786250Y-147409287D01*
X106769077Y-147352673D01*
X106734730Y-147239447D01*
X106717334Y-147062820D01*
X106734730Y-146886193D01*
X106786250Y-146716354D01*
X106786250Y-146716353D01*
X106869914Y-146559831D01*
X106869915Y-146559829D01*
X106899245Y-146524091D01*
X106982507Y-146422634D01*
X107083964Y-146339372D01*
X107119702Y-146310042D01*
X107137606Y-146300472D01*
X107276226Y-146226377D01*
X107332840Y-146209204D01*
X107446066Y-146174857D01*
X107512251Y-146168338D01*
X107578433Y-146161820D01*
X107816953Y-146161820D01*
X107883135Y-146168338D01*
X107883135Y-146168338D01*
G37*
G36*
X99649302Y-146168338D02*
X99715487Y-146174857D01*
X99828713Y-146209204D01*
X99885327Y-146226377D01*
X100023947Y-146300472D01*
X100041851Y-146310042D01*
X100077589Y-146339372D01*
X100179046Y-146422634D01*
X100262308Y-146524091D01*
X100291638Y-146559829D01*
X100291639Y-146559831D01*
X100375303Y-146716353D01*
X100375303Y-146716354D01*
X100426823Y-146886193D01*
X100444219Y-147062820D01*
X100426823Y-147239447D01*
X100392476Y-147352673D01*
X100375303Y-147409287D01*
X100301208Y-147547907D01*
X100291638Y-147565811D01*
X100262308Y-147601549D01*
X100179046Y-147703006D01*
X100077589Y-147786268D01*
X100041851Y-147815598D01*
X100041849Y-147815599D01*
X99885327Y-147899263D01*
X99828713Y-147916436D01*
X99715487Y-147950783D01*
X99649302Y-147957302D01*
X99583120Y-147963820D01*
X99344600Y-147963820D01*
X99278418Y-147957302D01*
X99212233Y-147950783D01*
X99099007Y-147916436D01*
X99042393Y-147899263D01*
X98885871Y-147815599D01*
X98885869Y-147815598D01*
X98850131Y-147786268D01*
X98748674Y-147703006D01*
X98665412Y-147601549D01*
X98636082Y-147565811D01*
X98626512Y-147547907D01*
X98552417Y-147409287D01*
X98535244Y-147352673D01*
X98500897Y-147239447D01*
X98483501Y-147062820D01*
X98500897Y-146886193D01*
X98552417Y-146716354D01*
X98552417Y-146716353D01*
X98636081Y-146559831D01*
X98636082Y-146559829D01*
X98665412Y-146524091D01*
X98748674Y-146422634D01*
X98850131Y-146339372D01*
X98885869Y-146310042D01*
X98903773Y-146300472D01*
X99042393Y-146226377D01*
X99099007Y-146209204D01*
X99212233Y-146174857D01*
X99278418Y-146168338D01*
X99344600Y-146161820D01*
X99583120Y-146161820D01*
X99649302Y-146168338D01*
X99649302Y-146168338D01*
G37*
G36*
X172620962Y-146168338D02*
X172687147Y-146174857D01*
X172800373Y-146209204D01*
X172856987Y-146226377D01*
X172995607Y-146300472D01*
X173013511Y-146310042D01*
X173049249Y-146339372D01*
X173150706Y-146422634D01*
X173233968Y-146524091D01*
X173263298Y-146559829D01*
X173263299Y-146559831D01*
X173346963Y-146716353D01*
X173346963Y-146716354D01*
X173398483Y-146886193D01*
X173415879Y-147062820D01*
X173398483Y-147239447D01*
X173364136Y-147352673D01*
X173346963Y-147409287D01*
X173272868Y-147547907D01*
X173263298Y-147565811D01*
X173233968Y-147601549D01*
X173150706Y-147703006D01*
X173049249Y-147786268D01*
X173013511Y-147815598D01*
X173013509Y-147815599D01*
X172856987Y-147899263D01*
X172800373Y-147916436D01*
X172687147Y-147950783D01*
X172620962Y-147957302D01*
X172554780Y-147963820D01*
X172316260Y-147963820D01*
X172250078Y-147957302D01*
X172183893Y-147950783D01*
X172070667Y-147916436D01*
X172014053Y-147899263D01*
X171857531Y-147815599D01*
X171857529Y-147815598D01*
X171821791Y-147786268D01*
X171720334Y-147703006D01*
X171637072Y-147601549D01*
X171607742Y-147565811D01*
X171598172Y-147547907D01*
X171524077Y-147409287D01*
X171506904Y-147352673D01*
X171472557Y-147239447D01*
X171455161Y-147062820D01*
X171472557Y-146886193D01*
X171524077Y-146716354D01*
X171524077Y-146716353D01*
X171607741Y-146559831D01*
X171607742Y-146559829D01*
X171637072Y-146524091D01*
X171720334Y-146422634D01*
X171821791Y-146339372D01*
X171857529Y-146310042D01*
X171875433Y-146300472D01*
X172014053Y-146226377D01*
X172070667Y-146209204D01*
X172183893Y-146174857D01*
X172250078Y-146168338D01*
X172316260Y-146161820D01*
X172554780Y-146161820D01*
X172620962Y-146168338D01*
X172620962Y-146168338D01*
G37*
G36*
X164279602Y-146168338D02*
X164345787Y-146174857D01*
X164459013Y-146209204D01*
X164515627Y-146226377D01*
X164654247Y-146300472D01*
X164672151Y-146310042D01*
X164707889Y-146339372D01*
X164809346Y-146422634D01*
X164892608Y-146524091D01*
X164921938Y-146559829D01*
X164921939Y-146559831D01*
X165005603Y-146716353D01*
X165005603Y-146716354D01*
X165057123Y-146886193D01*
X165074519Y-147062820D01*
X165057123Y-147239447D01*
X165022776Y-147352673D01*
X165005603Y-147409287D01*
X164931508Y-147547907D01*
X164921938Y-147565811D01*
X164892608Y-147601549D01*
X164809346Y-147703006D01*
X164707889Y-147786268D01*
X164672151Y-147815598D01*
X164672149Y-147815599D01*
X164515627Y-147899263D01*
X164459013Y-147916436D01*
X164345787Y-147950783D01*
X164279602Y-147957302D01*
X164213420Y-147963820D01*
X163974900Y-147963820D01*
X163908718Y-147957302D01*
X163842533Y-147950783D01*
X163729307Y-147916436D01*
X163672693Y-147899263D01*
X163516171Y-147815599D01*
X163516169Y-147815598D01*
X163480431Y-147786268D01*
X163378974Y-147703006D01*
X163295712Y-147601549D01*
X163266382Y-147565811D01*
X163256812Y-147547907D01*
X163182717Y-147409287D01*
X163165544Y-147352673D01*
X163131197Y-147239447D01*
X163113801Y-147062820D01*
X163131197Y-146886193D01*
X163182717Y-146716354D01*
X163182717Y-146716353D01*
X163266381Y-146559831D01*
X163266382Y-146559829D01*
X163295712Y-146524091D01*
X163378974Y-146422634D01*
X163480431Y-146339372D01*
X163516169Y-146310042D01*
X163534073Y-146300472D01*
X163672693Y-146226377D01*
X163729307Y-146209204D01*
X163842533Y-146174857D01*
X163908718Y-146168338D01*
X163974900Y-146161820D01*
X164213420Y-146161820D01*
X164279602Y-146168338D01*
X164279602Y-146168338D01*
G37*
G36*
X155938242Y-146168338D02*
X156004427Y-146174857D01*
X156117653Y-146209204D01*
X156174267Y-146226377D01*
X156312887Y-146300472D01*
X156330791Y-146310042D01*
X156366529Y-146339372D01*
X156467986Y-146422634D01*
X156551248Y-146524091D01*
X156580578Y-146559829D01*
X156580579Y-146559831D01*
X156664243Y-146716353D01*
X156664243Y-146716354D01*
X156715763Y-146886193D01*
X156733159Y-147062820D01*
X156715763Y-147239447D01*
X156681416Y-147352673D01*
X156664243Y-147409287D01*
X156590148Y-147547907D01*
X156580578Y-147565811D01*
X156551248Y-147601549D01*
X156467986Y-147703006D01*
X156366529Y-147786268D01*
X156330791Y-147815598D01*
X156330789Y-147815599D01*
X156174267Y-147899263D01*
X156117653Y-147916436D01*
X156004427Y-147950783D01*
X155938242Y-147957302D01*
X155872060Y-147963820D01*
X155633540Y-147963820D01*
X155567358Y-147957302D01*
X155501173Y-147950783D01*
X155387947Y-147916436D01*
X155331333Y-147899263D01*
X155174811Y-147815599D01*
X155174809Y-147815598D01*
X155139071Y-147786268D01*
X155037614Y-147703006D01*
X154954352Y-147601549D01*
X154925022Y-147565811D01*
X154915452Y-147547907D01*
X154841357Y-147409287D01*
X154824184Y-147352673D01*
X154789837Y-147239447D01*
X154772441Y-147062820D01*
X154789837Y-146886193D01*
X154841357Y-146716354D01*
X154841357Y-146716353D01*
X154925021Y-146559831D01*
X154925022Y-146559829D01*
X154954352Y-146524091D01*
X155037614Y-146422634D01*
X155139071Y-146339372D01*
X155174809Y-146310042D01*
X155192713Y-146300472D01*
X155331333Y-146226377D01*
X155387947Y-146209204D01*
X155501173Y-146174857D01*
X155567358Y-146168338D01*
X155633540Y-146161820D01*
X155872060Y-146161820D01*
X155938242Y-146168338D01*
X155938242Y-146168338D01*
G37*
G36*
X133543062Y-146168338D02*
X133609247Y-146174857D01*
X133722473Y-146209204D01*
X133779087Y-146226377D01*
X133917707Y-146300472D01*
X133935611Y-146310042D01*
X133971349Y-146339372D01*
X134072806Y-146422634D01*
X134156068Y-146524091D01*
X134185398Y-146559829D01*
X134185399Y-146559831D01*
X134269063Y-146716353D01*
X134269063Y-146716354D01*
X134320583Y-146886193D01*
X134337979Y-147062820D01*
X134320583Y-147239447D01*
X134286236Y-147352673D01*
X134269063Y-147409287D01*
X134194968Y-147547907D01*
X134185398Y-147565811D01*
X134156068Y-147601549D01*
X134072806Y-147703006D01*
X133971349Y-147786268D01*
X133935611Y-147815598D01*
X133935609Y-147815599D01*
X133779087Y-147899263D01*
X133722473Y-147916436D01*
X133609247Y-147950783D01*
X133543062Y-147957302D01*
X133476880Y-147963820D01*
X133238360Y-147963820D01*
X133172178Y-147957302D01*
X133105993Y-147950783D01*
X132992767Y-147916436D01*
X132936153Y-147899263D01*
X132779631Y-147815599D01*
X132779629Y-147815598D01*
X132743891Y-147786268D01*
X132642434Y-147703006D01*
X132559172Y-147601549D01*
X132529842Y-147565811D01*
X132520272Y-147547907D01*
X132446177Y-147409287D01*
X132429004Y-147352673D01*
X132394657Y-147239447D01*
X132377261Y-147062820D01*
X132394657Y-146886193D01*
X132446177Y-146716354D01*
X132446177Y-146716353D01*
X132529841Y-146559831D01*
X132529842Y-146559829D01*
X132559172Y-146524091D01*
X132642434Y-146422634D01*
X132743891Y-146339372D01*
X132779629Y-146310042D01*
X132797533Y-146300472D01*
X132936153Y-146226377D01*
X132992767Y-146209204D01*
X133105993Y-146174857D01*
X133172178Y-146168338D01*
X133238360Y-146161820D01*
X133476880Y-146161820D01*
X133543062Y-146168338D01*
X133543062Y-146168338D01*
G37*
G36*
X141277362Y-143668338D02*
X141343547Y-143674857D01*
X141456773Y-143709204D01*
X141513387Y-143726377D01*
X141652007Y-143800472D01*
X141669911Y-143810042D01*
X141705649Y-143839372D01*
X141807106Y-143922634D01*
X141890368Y-144024091D01*
X141919698Y-144059829D01*
X141919699Y-144059831D01*
X142003363Y-144216353D01*
X142003363Y-144216354D01*
X142054883Y-144386193D01*
X142072279Y-144562820D01*
X142054883Y-144739447D01*
X142022463Y-144846320D01*
X142003363Y-144909287D01*
X141981709Y-144949798D01*
X141919698Y-145065811D01*
X141915317Y-145071149D01*
X141807106Y-145203006D01*
X141705649Y-145286268D01*
X141669911Y-145315598D01*
X141669909Y-145315599D01*
X141513387Y-145399263D01*
X141456773Y-145416436D01*
X141343547Y-145450783D01*
X141277362Y-145457302D01*
X141211180Y-145463820D01*
X140972660Y-145463820D01*
X140906478Y-145457302D01*
X140840293Y-145450783D01*
X140727067Y-145416436D01*
X140670453Y-145399263D01*
X140513931Y-145315599D01*
X140513929Y-145315598D01*
X140478191Y-145286268D01*
X140376734Y-145203006D01*
X140268523Y-145071149D01*
X140264142Y-145065811D01*
X140202131Y-144949798D01*
X140180477Y-144909287D01*
X140161377Y-144846320D01*
X140128957Y-144739447D01*
X140111561Y-144562820D01*
X140128957Y-144386193D01*
X140180477Y-144216354D01*
X140180477Y-144216353D01*
X140264141Y-144059831D01*
X140264142Y-144059829D01*
X140293472Y-144024091D01*
X140376734Y-143922634D01*
X140478191Y-143839372D01*
X140513929Y-143810042D01*
X140531833Y-143800472D01*
X140670453Y-143726377D01*
X140727067Y-143709204D01*
X140840293Y-143674857D01*
X140906478Y-143668338D01*
X140972660Y-143661820D01*
X141211180Y-143661820D01*
X141277362Y-143668338D01*
X141277362Y-143668338D01*
G37*
G36*
X133543062Y-143668338D02*
X133609247Y-143674857D01*
X133722473Y-143709204D01*
X133779087Y-143726377D01*
X133917707Y-143800472D01*
X133935611Y-143810042D01*
X133971349Y-143839372D01*
X134072806Y-143922634D01*
X134156068Y-144024091D01*
X134185398Y-144059829D01*
X134185399Y-144059831D01*
X134269063Y-144216353D01*
X134269063Y-144216354D01*
X134320583Y-144386193D01*
X134337979Y-144562820D01*
X134320583Y-144739447D01*
X134288163Y-144846320D01*
X134269063Y-144909287D01*
X134247409Y-144949798D01*
X134185398Y-145065811D01*
X134181017Y-145071149D01*
X134072806Y-145203006D01*
X133971349Y-145286268D01*
X133935611Y-145315598D01*
X133935609Y-145315599D01*
X133779087Y-145399263D01*
X133722473Y-145416436D01*
X133609247Y-145450783D01*
X133543062Y-145457302D01*
X133476880Y-145463820D01*
X133238360Y-145463820D01*
X133172178Y-145457302D01*
X133105993Y-145450783D01*
X132992767Y-145416436D01*
X132936153Y-145399263D01*
X132779631Y-145315599D01*
X132779629Y-145315598D01*
X132743891Y-145286268D01*
X132642434Y-145203006D01*
X132534223Y-145071149D01*
X132529842Y-145065811D01*
X132467831Y-144949798D01*
X132446177Y-144909287D01*
X132427077Y-144846320D01*
X132394657Y-144739447D01*
X132377261Y-144562820D01*
X132394657Y-144386193D01*
X132446177Y-144216354D01*
X132446177Y-144216353D01*
X132529841Y-144059831D01*
X132529842Y-144059829D01*
X132559172Y-144024091D01*
X132642434Y-143922634D01*
X132743891Y-143839372D01*
X132779629Y-143810042D01*
X132797533Y-143800472D01*
X132936153Y-143726377D01*
X132992767Y-143709204D01*
X133105993Y-143674857D01*
X133172178Y-143668338D01*
X133238360Y-143661820D01*
X133476880Y-143661820D01*
X133543062Y-143668338D01*
X133543062Y-143668338D01*
G37*
G36*
X99649302Y-143668338D02*
X99715487Y-143674857D01*
X99828713Y-143709204D01*
X99885327Y-143726377D01*
X100023947Y-143800472D01*
X100041851Y-143810042D01*
X100077589Y-143839372D01*
X100179046Y-143922634D01*
X100262308Y-144024091D01*
X100291638Y-144059829D01*
X100291639Y-144059831D01*
X100375303Y-144216353D01*
X100375303Y-144216354D01*
X100426823Y-144386193D01*
X100444219Y-144562820D01*
X100426823Y-144739447D01*
X100394403Y-144846320D01*
X100375303Y-144909287D01*
X100353649Y-144949798D01*
X100291638Y-145065811D01*
X100287257Y-145071149D01*
X100179046Y-145203006D01*
X100077589Y-145286268D01*
X100041851Y-145315598D01*
X100041849Y-145315599D01*
X99885327Y-145399263D01*
X99828713Y-145416436D01*
X99715487Y-145450783D01*
X99649302Y-145457302D01*
X99583120Y-145463820D01*
X99344600Y-145463820D01*
X99278418Y-145457302D01*
X99212233Y-145450783D01*
X99099007Y-145416436D01*
X99042393Y-145399263D01*
X98885871Y-145315599D01*
X98885869Y-145315598D01*
X98850131Y-145286268D01*
X98748674Y-145203006D01*
X98640463Y-145071149D01*
X98636082Y-145065811D01*
X98574071Y-144949798D01*
X98552417Y-144909287D01*
X98533317Y-144846320D01*
X98500897Y-144739447D01*
X98483501Y-144562820D01*
X98500897Y-144386193D01*
X98552417Y-144216354D01*
X98552417Y-144216353D01*
X98636081Y-144059831D01*
X98636082Y-144059829D01*
X98665412Y-144024091D01*
X98748674Y-143922634D01*
X98850131Y-143839372D01*
X98885869Y-143810042D01*
X98903773Y-143800472D01*
X99042393Y-143726377D01*
X99099007Y-143709204D01*
X99212233Y-143674857D01*
X99278418Y-143668338D01*
X99344600Y-143661820D01*
X99583120Y-143661820D01*
X99649302Y-143668338D01*
X99649302Y-143668338D01*
G37*
G36*
X107883135Y-143668338D02*
X107949320Y-143674857D01*
X108062546Y-143709204D01*
X108119160Y-143726377D01*
X108257780Y-143800472D01*
X108275684Y-143810042D01*
X108311422Y-143839372D01*
X108412879Y-143922634D01*
X108496141Y-144024091D01*
X108525471Y-144059829D01*
X108525472Y-144059831D01*
X108609136Y-144216353D01*
X108609136Y-144216354D01*
X108660656Y-144386193D01*
X108678052Y-144562820D01*
X108660656Y-144739447D01*
X108628236Y-144846320D01*
X108609136Y-144909287D01*
X108587482Y-144949798D01*
X108525471Y-145065811D01*
X108521090Y-145071149D01*
X108412879Y-145203006D01*
X108311422Y-145286268D01*
X108275684Y-145315598D01*
X108275682Y-145315599D01*
X108119160Y-145399263D01*
X108062546Y-145416436D01*
X107949320Y-145450783D01*
X107883135Y-145457302D01*
X107816953Y-145463820D01*
X107578433Y-145463820D01*
X107512251Y-145457302D01*
X107446066Y-145450783D01*
X107332840Y-145416436D01*
X107276226Y-145399263D01*
X107119704Y-145315599D01*
X107119702Y-145315598D01*
X107083964Y-145286268D01*
X106982507Y-145203006D01*
X106874296Y-145071149D01*
X106869915Y-145065811D01*
X106807904Y-144949798D01*
X106786250Y-144909287D01*
X106767150Y-144846320D01*
X106734730Y-144739447D01*
X106717334Y-144562820D01*
X106734730Y-144386193D01*
X106786250Y-144216354D01*
X106786250Y-144216353D01*
X106869914Y-144059831D01*
X106869915Y-144059829D01*
X106899245Y-144024091D01*
X106982507Y-143922634D01*
X107083964Y-143839372D01*
X107119702Y-143810042D01*
X107137606Y-143800472D01*
X107276226Y-143726377D01*
X107332840Y-143709204D01*
X107446066Y-143674857D01*
X107512251Y-143668338D01*
X107578433Y-143661820D01*
X107816953Y-143661820D01*
X107883135Y-143668338D01*
X107883135Y-143668338D01*
G37*
G36*
X116116968Y-143668338D02*
X116183153Y-143674857D01*
X116296379Y-143709204D01*
X116352993Y-143726377D01*
X116491613Y-143800472D01*
X116509517Y-143810042D01*
X116545255Y-143839372D01*
X116646712Y-143922634D01*
X116729974Y-144024091D01*
X116759304Y-144059829D01*
X116759305Y-144059831D01*
X116842969Y-144216353D01*
X116842969Y-144216354D01*
X116894489Y-144386193D01*
X116911885Y-144562820D01*
X116894489Y-144739447D01*
X116862069Y-144846320D01*
X116842969Y-144909287D01*
X116821315Y-144949798D01*
X116759304Y-145065811D01*
X116754923Y-145071149D01*
X116646712Y-145203006D01*
X116545255Y-145286268D01*
X116509517Y-145315598D01*
X116509515Y-145315599D01*
X116352993Y-145399263D01*
X116296379Y-145416436D01*
X116183153Y-145450783D01*
X116116968Y-145457302D01*
X116050786Y-145463820D01*
X115812266Y-145463820D01*
X115746084Y-145457302D01*
X115679899Y-145450783D01*
X115566673Y-145416436D01*
X115510059Y-145399263D01*
X115353537Y-145315599D01*
X115353535Y-145315598D01*
X115317797Y-145286268D01*
X115216340Y-145203006D01*
X115108129Y-145071149D01*
X115103748Y-145065811D01*
X115041737Y-144949798D01*
X115020083Y-144909287D01*
X115000983Y-144846320D01*
X114968563Y-144739447D01*
X114951167Y-144562820D01*
X114968563Y-144386193D01*
X115020083Y-144216354D01*
X115020083Y-144216353D01*
X115103747Y-144059831D01*
X115103748Y-144059829D01*
X115133078Y-144024091D01*
X115216340Y-143922634D01*
X115317797Y-143839372D01*
X115353535Y-143810042D01*
X115371439Y-143800472D01*
X115510059Y-143726377D01*
X115566673Y-143709204D01*
X115679899Y-143674857D01*
X115746084Y-143668338D01*
X115812266Y-143661820D01*
X116050786Y-143661820D01*
X116116968Y-143668338D01*
X116116968Y-143668338D01*
G37*
G36*
X172620962Y-143668338D02*
X172687147Y-143674857D01*
X172800373Y-143709204D01*
X172856987Y-143726377D01*
X172995607Y-143800472D01*
X173013511Y-143810042D01*
X173049249Y-143839372D01*
X173150706Y-143922634D01*
X173233968Y-144024091D01*
X173263298Y-144059829D01*
X173263299Y-144059831D01*
X173346963Y-144216353D01*
X173346963Y-144216354D01*
X173398483Y-144386193D01*
X173415879Y-144562820D01*
X173398483Y-144739447D01*
X173366063Y-144846320D01*
X173346963Y-144909287D01*
X173325309Y-144949798D01*
X173263298Y-145065811D01*
X173258917Y-145071149D01*
X173150706Y-145203006D01*
X173049249Y-145286268D01*
X173013511Y-145315598D01*
X173013509Y-145315599D01*
X172856987Y-145399263D01*
X172800373Y-145416436D01*
X172687147Y-145450783D01*
X172620962Y-145457302D01*
X172554780Y-145463820D01*
X172316260Y-145463820D01*
X172250078Y-145457302D01*
X172183893Y-145450783D01*
X172070667Y-145416436D01*
X172014053Y-145399263D01*
X171857531Y-145315599D01*
X171857529Y-145315598D01*
X171821791Y-145286268D01*
X171720334Y-145203006D01*
X171612123Y-145071149D01*
X171607742Y-145065811D01*
X171545731Y-144949798D01*
X171524077Y-144909287D01*
X171504977Y-144846320D01*
X171472557Y-144739447D01*
X171455161Y-144562820D01*
X171472557Y-144386193D01*
X171524077Y-144216354D01*
X171524077Y-144216353D01*
X171607741Y-144059831D01*
X171607742Y-144059829D01*
X171637072Y-144024091D01*
X171720334Y-143922634D01*
X171821791Y-143839372D01*
X171857529Y-143810042D01*
X171875433Y-143800472D01*
X172014053Y-143726377D01*
X172070667Y-143709204D01*
X172183893Y-143674857D01*
X172250078Y-143668338D01*
X172316260Y-143661820D01*
X172554780Y-143661820D01*
X172620962Y-143668338D01*
X172620962Y-143668338D01*
G37*
G36*
X155938242Y-143668338D02*
X156004427Y-143674857D01*
X156117653Y-143709204D01*
X156174267Y-143726377D01*
X156312887Y-143800472D01*
X156330791Y-143810042D01*
X156366529Y-143839372D01*
X156467986Y-143922634D01*
X156551248Y-144024091D01*
X156580578Y-144059829D01*
X156580579Y-144059831D01*
X156664243Y-144216353D01*
X156664243Y-144216354D01*
X156715763Y-144386193D01*
X156733159Y-144562820D01*
X156715763Y-144739447D01*
X156683343Y-144846320D01*
X156664243Y-144909287D01*
X156642589Y-144949798D01*
X156580578Y-145065811D01*
X156576197Y-145071149D01*
X156467986Y-145203006D01*
X156366529Y-145286268D01*
X156330791Y-145315598D01*
X156330789Y-145315599D01*
X156174267Y-145399263D01*
X156117653Y-145416436D01*
X156004427Y-145450783D01*
X155938242Y-145457302D01*
X155872060Y-145463820D01*
X155633540Y-145463820D01*
X155567358Y-145457302D01*
X155501173Y-145450783D01*
X155387947Y-145416436D01*
X155331333Y-145399263D01*
X155174811Y-145315599D01*
X155174809Y-145315598D01*
X155139071Y-145286268D01*
X155037614Y-145203006D01*
X154929403Y-145071149D01*
X154925022Y-145065811D01*
X154863011Y-144949798D01*
X154841357Y-144909287D01*
X154822257Y-144846320D01*
X154789837Y-144739447D01*
X154772441Y-144562820D01*
X154789837Y-144386193D01*
X154841357Y-144216354D01*
X154841357Y-144216353D01*
X154925021Y-144059831D01*
X154925022Y-144059829D01*
X154954352Y-144024091D01*
X155037614Y-143922634D01*
X155139071Y-143839372D01*
X155174809Y-143810042D01*
X155192713Y-143800472D01*
X155331333Y-143726377D01*
X155387947Y-143709204D01*
X155501173Y-143674857D01*
X155567358Y-143668338D01*
X155633540Y-143661820D01*
X155872060Y-143661820D01*
X155938242Y-143668338D01*
X155938242Y-143668338D01*
G37*
G36*
X164279602Y-143668338D02*
X164345787Y-143674857D01*
X164459013Y-143709204D01*
X164515627Y-143726377D01*
X164654247Y-143800472D01*
X164672151Y-143810042D01*
X164707889Y-143839372D01*
X164809346Y-143922634D01*
X164892608Y-144024091D01*
X164921938Y-144059829D01*
X164921939Y-144059831D01*
X165005603Y-144216353D01*
X165005603Y-144216354D01*
X165057123Y-144386193D01*
X165074519Y-144562820D01*
X165057123Y-144739447D01*
X165024703Y-144846320D01*
X165005603Y-144909287D01*
X164983949Y-144949798D01*
X164921938Y-145065811D01*
X164917557Y-145071149D01*
X164809346Y-145203006D01*
X164707889Y-145286268D01*
X164672151Y-145315598D01*
X164672149Y-145315599D01*
X164515627Y-145399263D01*
X164459013Y-145416436D01*
X164345787Y-145450783D01*
X164279602Y-145457302D01*
X164213420Y-145463820D01*
X163974900Y-145463820D01*
X163908718Y-145457302D01*
X163842533Y-145450783D01*
X163729307Y-145416436D01*
X163672693Y-145399263D01*
X163516171Y-145315599D01*
X163516169Y-145315598D01*
X163480431Y-145286268D01*
X163378974Y-145203006D01*
X163270763Y-145071149D01*
X163266382Y-145065811D01*
X163204371Y-144949798D01*
X163182717Y-144909287D01*
X163163617Y-144846320D01*
X163131197Y-144739447D01*
X163113801Y-144562820D01*
X163131197Y-144386193D01*
X163182717Y-144216354D01*
X163182717Y-144216353D01*
X163266381Y-144059831D01*
X163266382Y-144059829D01*
X163295712Y-144024091D01*
X163378974Y-143922634D01*
X163480431Y-143839372D01*
X163516169Y-143810042D01*
X163534073Y-143800472D01*
X163672693Y-143726377D01*
X163729307Y-143709204D01*
X163842533Y-143674857D01*
X163908718Y-143668338D01*
X163974900Y-143661820D01*
X164213420Y-143661820D01*
X164279602Y-143668338D01*
X164279602Y-143668338D01*
G37*
G36*
X124350802Y-143668338D02*
X124416987Y-143674857D01*
X124530213Y-143709204D01*
X124586827Y-143726377D01*
X124725447Y-143800472D01*
X124743351Y-143810042D01*
X124779089Y-143839372D01*
X124880546Y-143922634D01*
X124963808Y-144024091D01*
X124993138Y-144059829D01*
X124993139Y-144059831D01*
X125076803Y-144216353D01*
X125076803Y-144216354D01*
X125128323Y-144386193D01*
X125145719Y-144562820D01*
X125128323Y-144739447D01*
X125095903Y-144846320D01*
X125076803Y-144909287D01*
X125055149Y-144949798D01*
X124993138Y-145065811D01*
X124988757Y-145071149D01*
X124880546Y-145203006D01*
X124779089Y-145286268D01*
X124743351Y-145315598D01*
X124743349Y-145315599D01*
X124586827Y-145399263D01*
X124530213Y-145416436D01*
X124416987Y-145450783D01*
X124350802Y-145457302D01*
X124284620Y-145463820D01*
X124046100Y-145463820D01*
X123979918Y-145457302D01*
X123913733Y-145450783D01*
X123800507Y-145416436D01*
X123743893Y-145399263D01*
X123587371Y-145315599D01*
X123587369Y-145315598D01*
X123551631Y-145286268D01*
X123450174Y-145203006D01*
X123341963Y-145071149D01*
X123337582Y-145065811D01*
X123275571Y-144949798D01*
X123253917Y-144909287D01*
X123234817Y-144846320D01*
X123202397Y-144739447D01*
X123185001Y-144562820D01*
X123202397Y-144386193D01*
X123253917Y-144216354D01*
X123253917Y-144216353D01*
X123337581Y-144059831D01*
X123337582Y-144059829D01*
X123366912Y-144024091D01*
X123450174Y-143922634D01*
X123551631Y-143839372D01*
X123587369Y-143810042D01*
X123605273Y-143800472D01*
X123743893Y-143726377D01*
X123800507Y-143709204D01*
X123913733Y-143674857D01*
X123979918Y-143668338D01*
X124046100Y-143661820D01*
X124284620Y-143661820D01*
X124350802Y-143668338D01*
X124350802Y-143668338D01*
G37*
G36*
X189202964Y-143269067D02*
X189239505Y-143280152D01*
X189273180Y-143298151D01*
X189302701Y-143322379D01*
X189326929Y-143351900D01*
X189344928Y-143385575D01*
X189356013Y-143422116D01*
X189360360Y-143466258D01*
X189360360Y-144915182D01*
X189356013Y-144959324D01*
X189344928Y-144995865D01*
X189326929Y-145029540D01*
X189302701Y-145059061D01*
X189273180Y-145083289D01*
X189239505Y-145101288D01*
X189202964Y-145112373D01*
X189158822Y-145116720D01*
X188209898Y-145116720D01*
X188165756Y-145112373D01*
X188129215Y-145101288D01*
X188095540Y-145083289D01*
X188066019Y-145059061D01*
X188041791Y-145029540D01*
X188023792Y-144995865D01*
X188012707Y-144959324D01*
X188008360Y-144915182D01*
X188008360Y-143466258D01*
X188012707Y-143422116D01*
X188023792Y-143385575D01*
X188041791Y-143351900D01*
X188066019Y-143322379D01*
X188095540Y-143298151D01*
X188129215Y-143280152D01*
X188165756Y-143269067D01*
X188209898Y-143264720D01*
X189158822Y-143264720D01*
X189202964Y-143269067D01*
X189202964Y-143269067D01*
G37*
G36*
X194138504Y-143269067D02*
X194175045Y-143280152D01*
X194208720Y-143298151D01*
X194238241Y-143322379D01*
X194262469Y-143351900D01*
X194280468Y-143385575D01*
X194291553Y-143422116D01*
X194295900Y-143466258D01*
X194295900Y-144915182D01*
X194291553Y-144959324D01*
X194280468Y-144995865D01*
X194262469Y-145029540D01*
X194238241Y-145059061D01*
X194208720Y-145083289D01*
X194175045Y-145101288D01*
X194138504Y-145112373D01*
X194094362Y-145116720D01*
X193145438Y-145116720D01*
X193101296Y-145112373D01*
X193064755Y-145101288D01*
X193031080Y-145083289D01*
X193001559Y-145059061D01*
X192977331Y-145029540D01*
X192959332Y-144995865D01*
X192948247Y-144959324D01*
X192943900Y-144915182D01*
X192943900Y-143466258D01*
X192948247Y-143422116D01*
X192959332Y-143385575D01*
X192977331Y-143351900D01*
X193001559Y-143322379D01*
X193031080Y-143298151D01*
X193064755Y-143280152D01*
X193101296Y-143269067D01*
X193145438Y-143264720D01*
X194094362Y-143264720D01*
X194138504Y-143269067D01*
X194138504Y-143269067D01*
G37*
G36*
X191338504Y-143269067D02*
X191375045Y-143280152D01*
X191408720Y-143298151D01*
X191438241Y-143322379D01*
X191462469Y-143351900D01*
X191480468Y-143385575D01*
X191491553Y-143422116D01*
X191495900Y-143466258D01*
X191495900Y-144915182D01*
X191491553Y-144959324D01*
X191480468Y-144995865D01*
X191462469Y-145029540D01*
X191438241Y-145059061D01*
X191408720Y-145083289D01*
X191375045Y-145101288D01*
X191338504Y-145112373D01*
X191294362Y-145116720D01*
X190345438Y-145116720D01*
X190301296Y-145112373D01*
X190264755Y-145101288D01*
X190231080Y-145083289D01*
X190201559Y-145059061D01*
X190177331Y-145029540D01*
X190159332Y-144995865D01*
X190148247Y-144959324D01*
X190143900Y-144915182D01*
X190143900Y-143466258D01*
X190148247Y-143422116D01*
X190159332Y-143385575D01*
X190177331Y-143351900D01*
X190201559Y-143322379D01*
X190231080Y-143298151D01*
X190264755Y-143280152D01*
X190301296Y-143269067D01*
X190345438Y-143264720D01*
X191294362Y-143264720D01*
X191338504Y-143269067D01*
X191338504Y-143269067D01*
G37*
G36*
X186402964Y-143269067D02*
X186439505Y-143280152D01*
X186473180Y-143298151D01*
X186502701Y-143322379D01*
X186526929Y-143351900D01*
X186544928Y-143385575D01*
X186556013Y-143422116D01*
X186560360Y-143466258D01*
X186560360Y-144915182D01*
X186556013Y-144959324D01*
X186544928Y-144995865D01*
X186526929Y-145029540D01*
X186502701Y-145059061D01*
X186473180Y-145083289D01*
X186439505Y-145101288D01*
X186402964Y-145112373D01*
X186358822Y-145116720D01*
X185409898Y-145116720D01*
X185365756Y-145112373D01*
X185329215Y-145101288D01*
X185295540Y-145083289D01*
X185266019Y-145059061D01*
X185241791Y-145029540D01*
X185223792Y-144995865D01*
X185212707Y-144959324D01*
X185208360Y-144915182D01*
X185208360Y-143466258D01*
X185212707Y-143422116D01*
X185223792Y-143385575D01*
X185241791Y-143351900D01*
X185266019Y-143322379D01*
X185295540Y-143298151D01*
X185329215Y-143280152D01*
X185365756Y-143269067D01*
X185409898Y-143264720D01*
X186358822Y-143264720D01*
X186402964Y-143269067D01*
X186402964Y-143269067D01*
G37*
G36*
X195283742Y-139756042D02*
X195431702Y-139817330D01*
X195564858Y-139906302D01*
X195678098Y-140019542D01*
X195767070Y-140152698D01*
X195828358Y-140300658D01*
X195859600Y-140457725D01*
X195859600Y-140617875D01*
X195828358Y-140774942D01*
X195767070Y-140922902D01*
X195678098Y-141056058D01*
X195564858Y-141169298D01*
X195431702Y-141258270D01*
X195283742Y-141319558D01*
X195126675Y-141350800D01*
X194966525Y-141350800D01*
X194809458Y-141319558D01*
X194661498Y-141258270D01*
X194528342Y-141169298D01*
X194415102Y-141056058D01*
X194326130Y-140922902D01*
X194264842Y-140774942D01*
X194233600Y-140617875D01*
X194233600Y-140457725D01*
X194264842Y-140300658D01*
X194326130Y-140152698D01*
X194415102Y-140019542D01*
X194528342Y-139906302D01*
X194661498Y-139817330D01*
X194809458Y-139756042D01*
X194966525Y-139724800D01*
X195126675Y-139724800D01*
X195283742Y-139756042D01*
X195283742Y-139756042D01*
G37*
G36*
X99580036Y-135480178D02*
X99686359Y-135501327D01*
X99986822Y-135625783D01*
X100253632Y-135804060D01*
X100257234Y-135806467D01*
X100487193Y-136036426D01*
X100487195Y-136036429D01*
X100667877Y-136306838D01*
X100780319Y-136578296D01*
X100792333Y-136607302D01*
X100855780Y-136926269D01*
X100855780Y-137251491D01*
X100818169Y-137440574D01*
X100792333Y-137570459D01*
X100667877Y-137870922D01*
X100623091Y-137937949D01*
X100487193Y-138141334D01*
X100257234Y-138371293D01*
X100257231Y-138371295D01*
X99986822Y-138551977D01*
X99686359Y-138676433D01*
X99580036Y-138697582D01*
X99367391Y-138739880D01*
X99042169Y-138739880D01*
X98829524Y-138697582D01*
X98723201Y-138676433D01*
X98422738Y-138551977D01*
X98152329Y-138371295D01*
X98152326Y-138371293D01*
X97922367Y-138141334D01*
X97786469Y-137937949D01*
X97741683Y-137870922D01*
X97617227Y-137570459D01*
X97591391Y-137440574D01*
X97553780Y-137251491D01*
X97553780Y-136926269D01*
X97617227Y-136607302D01*
X97629242Y-136578296D01*
X97741683Y-136306838D01*
X97922365Y-136036429D01*
X97922367Y-136036426D01*
X98152326Y-135806467D01*
X98155928Y-135804060D01*
X98422738Y-135625783D01*
X98723201Y-135501327D01*
X98829524Y-135480178D01*
X99042169Y-135437880D01*
X99367391Y-135437880D01*
X99580036Y-135480178D01*
X99580036Y-135480178D01*
G37*
G36*
X182130036Y-135480178D02*
X182236359Y-135501327D01*
X182536822Y-135625783D01*
X182803632Y-135804060D01*
X182807234Y-135806467D01*
X183037193Y-136036426D01*
X183037195Y-136036429D01*
X183217877Y-136306838D01*
X183330319Y-136578296D01*
X183342333Y-136607302D01*
X183405780Y-136926269D01*
X183405780Y-137251491D01*
X183368169Y-137440574D01*
X183342333Y-137570459D01*
X183217877Y-137870922D01*
X183173091Y-137937949D01*
X183037193Y-138141334D01*
X182807234Y-138371293D01*
X182807231Y-138371295D01*
X182536822Y-138551977D01*
X182236359Y-138676433D01*
X182130036Y-138697582D01*
X181917391Y-138739880D01*
X181592169Y-138739880D01*
X181379524Y-138697582D01*
X181273201Y-138676433D01*
X180972738Y-138551977D01*
X180702329Y-138371295D01*
X180702326Y-138371293D01*
X180472367Y-138141334D01*
X180336469Y-137937949D01*
X180291683Y-137870922D01*
X180167227Y-137570459D01*
X180141391Y-137440574D01*
X180103780Y-137251491D01*
X180103780Y-136926269D01*
X180167227Y-136607302D01*
X180179242Y-136578296D01*
X180291683Y-136306838D01*
X180472365Y-136036429D01*
X180472367Y-136036426D01*
X180702326Y-135806467D01*
X180705928Y-135804060D01*
X180972738Y-135625783D01*
X181273201Y-135501327D01*
X181379524Y-135480178D01*
X181592169Y-135437880D01*
X181917391Y-135437880D01*
X182130036Y-135480178D01*
X182130036Y-135480178D01*
G37*
G36*
X176854074Y-136187513D02*
X177026474Y-136239811D01*
X177026476Y-136239812D01*
X177185363Y-136324739D01*
X177324629Y-136439031D01*
X177438921Y-136578297D01*
X177523848Y-136737184D01*
X177523849Y-136737186D01*
X177576147Y-136909586D01*
X177593805Y-137088880D01*
X177576147Y-137268174D01*
X177523849Y-137440574D01*
X177523848Y-137440576D01*
X177438921Y-137599463D01*
X177324629Y-137738729D01*
X177185363Y-137853021D01*
X177026476Y-137937948D01*
X177026474Y-137937949D01*
X176854074Y-137990247D01*
X176719711Y-138003480D01*
X176629849Y-138003480D01*
X176495486Y-137990247D01*
X176323086Y-137937949D01*
X176323084Y-137937948D01*
X176164197Y-137853021D01*
X176024931Y-137738729D01*
X175910639Y-137599463D01*
X175825712Y-137440576D01*
X175825711Y-137440574D01*
X175773413Y-137268174D01*
X175755755Y-137088880D01*
X175773413Y-136909586D01*
X175825711Y-136737186D01*
X175825712Y-136737184D01*
X175910639Y-136578297D01*
X176024931Y-136439031D01*
X176164197Y-136324739D01*
X176323084Y-136239812D01*
X176323086Y-136239811D01*
X176495486Y-136187513D01*
X176629849Y-136174280D01*
X176719711Y-136174280D01*
X176854074Y-136187513D01*
X176854074Y-136187513D01*
G37*
G36*
X143834074Y-136187513D02*
X144006474Y-136239811D01*
X144006476Y-136239812D01*
X144165363Y-136324739D01*
X144304629Y-136439031D01*
X144418921Y-136578297D01*
X144503848Y-136737184D01*
X144503849Y-136737186D01*
X144556147Y-136909586D01*
X144573805Y-137088880D01*
X144556147Y-137268174D01*
X144503849Y-137440574D01*
X144503848Y-137440576D01*
X144418921Y-137599463D01*
X144304629Y-137738729D01*
X144165363Y-137853021D01*
X144006476Y-137937948D01*
X144006474Y-137937949D01*
X143834074Y-137990247D01*
X143699711Y-138003480D01*
X143609849Y-138003480D01*
X143475486Y-137990247D01*
X143303086Y-137937949D01*
X143303084Y-137937948D01*
X143144197Y-137853021D01*
X143004931Y-137738729D01*
X142890639Y-137599463D01*
X142805712Y-137440576D01*
X142805711Y-137440574D01*
X142753413Y-137268174D01*
X142735755Y-137088880D01*
X142753413Y-136909586D01*
X142805711Y-136737186D01*
X142805712Y-136737184D01*
X142890639Y-136578297D01*
X143004931Y-136439031D01*
X143144197Y-136324739D01*
X143303084Y-136239812D01*
X143303086Y-136239811D01*
X143475486Y-136187513D01*
X143609849Y-136174280D01*
X143699711Y-136174280D01*
X143834074Y-136187513D01*
X143834074Y-136187513D01*
G37*
G36*
X141294074Y-136187513D02*
X141466474Y-136239811D01*
X141466476Y-136239812D01*
X141625363Y-136324739D01*
X141764629Y-136439031D01*
X141878921Y-136578297D01*
X141963848Y-136737184D01*
X141963849Y-136737186D01*
X142016147Y-136909586D01*
X142033805Y-137088880D01*
X142016147Y-137268174D01*
X141963849Y-137440574D01*
X141963848Y-137440576D01*
X141878921Y-137599463D01*
X141764629Y-137738729D01*
X141625363Y-137853021D01*
X141466476Y-137937948D01*
X141466474Y-137937949D01*
X141294074Y-137990247D01*
X141159711Y-138003480D01*
X141069849Y-138003480D01*
X140935486Y-137990247D01*
X140763086Y-137937949D01*
X140763084Y-137937948D01*
X140604197Y-137853021D01*
X140464931Y-137738729D01*
X140350639Y-137599463D01*
X140265712Y-137440576D01*
X140265711Y-137440574D01*
X140213413Y-137268174D01*
X140195755Y-137088880D01*
X140213413Y-136909586D01*
X140265711Y-136737186D01*
X140265712Y-136737184D01*
X140350639Y-136578297D01*
X140464931Y-136439031D01*
X140604197Y-136324739D01*
X140763084Y-136239812D01*
X140763086Y-136239811D01*
X140935486Y-136187513D01*
X141069849Y-136174280D01*
X141159711Y-136174280D01*
X141294074Y-136187513D01*
X141294074Y-136187513D01*
G37*
G36*
X113354074Y-136187513D02*
X113526474Y-136239811D01*
X113526476Y-136239812D01*
X113685363Y-136324739D01*
X113824629Y-136439031D01*
X113938921Y-136578297D01*
X114023848Y-136737184D01*
X114023849Y-136737186D01*
X114076147Y-136909586D01*
X114093805Y-137088880D01*
X114076147Y-137268174D01*
X114023849Y-137440574D01*
X114023848Y-137440576D01*
X113938921Y-137599463D01*
X113824629Y-137738729D01*
X113685363Y-137853021D01*
X113526476Y-137937948D01*
X113526474Y-137937949D01*
X113354074Y-137990247D01*
X113219711Y-138003480D01*
X113129849Y-138003480D01*
X112995486Y-137990247D01*
X112823086Y-137937949D01*
X112823084Y-137937948D01*
X112664197Y-137853021D01*
X112524931Y-137738729D01*
X112410639Y-137599463D01*
X112325712Y-137440576D01*
X112325711Y-137440574D01*
X112273413Y-137268174D01*
X112255755Y-137088880D01*
X112273413Y-136909586D01*
X112325711Y-136737186D01*
X112325712Y-136737184D01*
X112410639Y-136578297D01*
X112524931Y-136439031D01*
X112664197Y-136324739D01*
X112823084Y-136239812D01*
X112823086Y-136239811D01*
X112995486Y-136187513D01*
X113129849Y-136174280D01*
X113219711Y-136174280D01*
X113354074Y-136187513D01*
X113354074Y-136187513D01*
G37*
G36*
X115894074Y-136187513D02*
X116066474Y-136239811D01*
X116066476Y-136239812D01*
X116225363Y-136324739D01*
X116364629Y-136439031D01*
X116478921Y-136578297D01*
X116563848Y-136737184D01*
X116563849Y-136737186D01*
X116616147Y-136909586D01*
X116633805Y-137088880D01*
X116616147Y-137268174D01*
X116563849Y-137440574D01*
X116563848Y-137440576D01*
X116478921Y-137599463D01*
X116364629Y-137738729D01*
X116225363Y-137853021D01*
X116066476Y-137937948D01*
X116066474Y-137937949D01*
X115894074Y-137990247D01*
X115759711Y-138003480D01*
X115669849Y-138003480D01*
X115535486Y-137990247D01*
X115363086Y-137937949D01*
X115363084Y-137937948D01*
X115204197Y-137853021D01*
X115064931Y-137738729D01*
X114950639Y-137599463D01*
X114865712Y-137440576D01*
X114865711Y-137440574D01*
X114813413Y-137268174D01*
X114795755Y-137088880D01*
X114813413Y-136909586D01*
X114865711Y-136737186D01*
X114865712Y-136737184D01*
X114950639Y-136578297D01*
X115064931Y-136439031D01*
X115204197Y-136324739D01*
X115363084Y-136239812D01*
X115363086Y-136239811D01*
X115535486Y-136187513D01*
X115669849Y-136174280D01*
X115759711Y-136174280D01*
X115894074Y-136187513D01*
X115894074Y-136187513D01*
G37*
G36*
X118434074Y-136187513D02*
X118606474Y-136239811D01*
X118606476Y-136239812D01*
X118765363Y-136324739D01*
X118904629Y-136439031D01*
X119018921Y-136578297D01*
X119103848Y-136737184D01*
X119103849Y-136737186D01*
X119156147Y-136909586D01*
X119173805Y-137088880D01*
X119156147Y-137268174D01*
X119103849Y-137440574D01*
X119103848Y-137440576D01*
X119018921Y-137599463D01*
X118904629Y-137738729D01*
X118765363Y-137853021D01*
X118606476Y-137937948D01*
X118606474Y-137937949D01*
X118434074Y-137990247D01*
X118299711Y-138003480D01*
X118209849Y-138003480D01*
X118075486Y-137990247D01*
X117903086Y-137937949D01*
X117903084Y-137937948D01*
X117744197Y-137853021D01*
X117604931Y-137738729D01*
X117490639Y-137599463D01*
X117405712Y-137440576D01*
X117405711Y-137440574D01*
X117353413Y-137268174D01*
X117335755Y-137088880D01*
X117353413Y-136909586D01*
X117405711Y-136737186D01*
X117405712Y-136737184D01*
X117490639Y-136578297D01*
X117604931Y-136439031D01*
X117744197Y-136324739D01*
X117903084Y-136239812D01*
X117903086Y-136239811D01*
X118075486Y-136187513D01*
X118209849Y-136174280D01*
X118299711Y-136174280D01*
X118434074Y-136187513D01*
X118434074Y-136187513D01*
G37*
G36*
X120974074Y-136187513D02*
X121146474Y-136239811D01*
X121146476Y-136239812D01*
X121305363Y-136324739D01*
X121444629Y-136439031D01*
X121558921Y-136578297D01*
X121643848Y-136737184D01*
X121643849Y-136737186D01*
X121696147Y-136909586D01*
X121713805Y-137088880D01*
X121696147Y-137268174D01*
X121643849Y-137440574D01*
X121643848Y-137440576D01*
X121558921Y-137599463D01*
X121444629Y-137738729D01*
X121305363Y-137853021D01*
X121146476Y-137937948D01*
X121146474Y-137937949D01*
X120974074Y-137990247D01*
X120839711Y-138003480D01*
X120749849Y-138003480D01*
X120615486Y-137990247D01*
X120443086Y-137937949D01*
X120443084Y-137937948D01*
X120284197Y-137853021D01*
X120144931Y-137738729D01*
X120030639Y-137599463D01*
X119945712Y-137440576D01*
X119945711Y-137440574D01*
X119893413Y-137268174D01*
X119875755Y-137088880D01*
X119893413Y-136909586D01*
X119945711Y-136737186D01*
X119945712Y-136737184D01*
X120030639Y-136578297D01*
X120144931Y-136439031D01*
X120284197Y-136324739D01*
X120443084Y-136239812D01*
X120443086Y-136239811D01*
X120615486Y-136187513D01*
X120749849Y-136174280D01*
X120839711Y-136174280D01*
X120974074Y-136187513D01*
X120974074Y-136187513D01*
G37*
G36*
X123514074Y-136187513D02*
X123686474Y-136239811D01*
X123686476Y-136239812D01*
X123845363Y-136324739D01*
X123984629Y-136439031D01*
X124098921Y-136578297D01*
X124183848Y-136737184D01*
X124183849Y-136737186D01*
X124236147Y-136909586D01*
X124253805Y-137088880D01*
X124236147Y-137268174D01*
X124183849Y-137440574D01*
X124183848Y-137440576D01*
X124098921Y-137599463D01*
X123984629Y-137738729D01*
X123845363Y-137853021D01*
X123686476Y-137937948D01*
X123686474Y-137937949D01*
X123514074Y-137990247D01*
X123379711Y-138003480D01*
X123289849Y-138003480D01*
X123155486Y-137990247D01*
X122983086Y-137937949D01*
X122983084Y-137937948D01*
X122824197Y-137853021D01*
X122684931Y-137738729D01*
X122570639Y-137599463D01*
X122485712Y-137440576D01*
X122485711Y-137440574D01*
X122433413Y-137268174D01*
X122415755Y-137088880D01*
X122433413Y-136909586D01*
X122485711Y-136737186D01*
X122485712Y-136737184D01*
X122570639Y-136578297D01*
X122684931Y-136439031D01*
X122824197Y-136324739D01*
X122983084Y-136239812D01*
X122983086Y-136239811D01*
X123155486Y-136187513D01*
X123289849Y-136174280D01*
X123379711Y-136174280D01*
X123514074Y-136187513D01*
X123514074Y-136187513D01*
G37*
G36*
X126054074Y-136187513D02*
X126226474Y-136239811D01*
X126226476Y-136239812D01*
X126385363Y-136324739D01*
X126524629Y-136439031D01*
X126638921Y-136578297D01*
X126723848Y-136737184D01*
X126723849Y-136737186D01*
X126776147Y-136909586D01*
X126793805Y-137088880D01*
X126776147Y-137268174D01*
X126723849Y-137440574D01*
X126723848Y-137440576D01*
X126638921Y-137599463D01*
X126524629Y-137738729D01*
X126385363Y-137853021D01*
X126226476Y-137937948D01*
X126226474Y-137937949D01*
X126054074Y-137990247D01*
X125919711Y-138003480D01*
X125829849Y-138003480D01*
X125695486Y-137990247D01*
X125523086Y-137937949D01*
X125523084Y-137937948D01*
X125364197Y-137853021D01*
X125224931Y-137738729D01*
X125110639Y-137599463D01*
X125025712Y-137440576D01*
X125025711Y-137440574D01*
X124973413Y-137268174D01*
X124955755Y-137088880D01*
X124973413Y-136909586D01*
X125025711Y-136737186D01*
X125025712Y-136737184D01*
X125110639Y-136578297D01*
X125224931Y-136439031D01*
X125364197Y-136324739D01*
X125523084Y-136239812D01*
X125523086Y-136239811D01*
X125695486Y-136187513D01*
X125829849Y-136174280D01*
X125919711Y-136174280D01*
X126054074Y-136187513D01*
X126054074Y-136187513D01*
G37*
G36*
X128594074Y-136187513D02*
X128766474Y-136239811D01*
X128766476Y-136239812D01*
X128925363Y-136324739D01*
X129064629Y-136439031D01*
X129178921Y-136578297D01*
X129263848Y-136737184D01*
X129263849Y-136737186D01*
X129316147Y-136909586D01*
X129333805Y-137088880D01*
X129316147Y-137268174D01*
X129263849Y-137440574D01*
X129263848Y-137440576D01*
X129178921Y-137599463D01*
X129064629Y-137738729D01*
X128925363Y-137853021D01*
X128766476Y-137937948D01*
X128766474Y-137937949D01*
X128594074Y-137990247D01*
X128459711Y-138003480D01*
X128369849Y-138003480D01*
X128235486Y-137990247D01*
X128063086Y-137937949D01*
X128063084Y-137937948D01*
X127904197Y-137853021D01*
X127764931Y-137738729D01*
X127650639Y-137599463D01*
X127565712Y-137440576D01*
X127565711Y-137440574D01*
X127513413Y-137268174D01*
X127495755Y-137088880D01*
X127513413Y-136909586D01*
X127565711Y-136737186D01*
X127565712Y-136737184D01*
X127650639Y-136578297D01*
X127764931Y-136439031D01*
X127904197Y-136324739D01*
X128063084Y-136239812D01*
X128063086Y-136239811D01*
X128235486Y-136187513D01*
X128369849Y-136174280D01*
X128459711Y-136174280D01*
X128594074Y-136187513D01*
X128594074Y-136187513D01*
G37*
G36*
X131134074Y-136187513D02*
X131306474Y-136239811D01*
X131306476Y-136239812D01*
X131465363Y-136324739D01*
X131604629Y-136439031D01*
X131718921Y-136578297D01*
X131803848Y-136737184D01*
X131803849Y-136737186D01*
X131856147Y-136909586D01*
X131873805Y-137088880D01*
X131856147Y-137268174D01*
X131803849Y-137440574D01*
X131803848Y-137440576D01*
X131718921Y-137599463D01*
X131604629Y-137738729D01*
X131465363Y-137853021D01*
X131306476Y-137937948D01*
X131306474Y-137937949D01*
X131134074Y-137990247D01*
X130999711Y-138003480D01*
X130909849Y-138003480D01*
X130775486Y-137990247D01*
X130603086Y-137937949D01*
X130603084Y-137937948D01*
X130444197Y-137853021D01*
X130304931Y-137738729D01*
X130190639Y-137599463D01*
X130105712Y-137440576D01*
X130105711Y-137440574D01*
X130053413Y-137268174D01*
X130035755Y-137088880D01*
X130053413Y-136909586D01*
X130105711Y-136737186D01*
X130105712Y-136737184D01*
X130190639Y-136578297D01*
X130304931Y-136439031D01*
X130444197Y-136324739D01*
X130603084Y-136239812D01*
X130603086Y-136239811D01*
X130775486Y-136187513D01*
X130909849Y-136174280D01*
X130999711Y-136174280D01*
X131134074Y-136187513D01*
X131134074Y-136187513D01*
G37*
G36*
X136214074Y-136187513D02*
X136386474Y-136239811D01*
X136386476Y-136239812D01*
X136545363Y-136324739D01*
X136684629Y-136439031D01*
X136798921Y-136578297D01*
X136883848Y-136737184D01*
X136883849Y-136737186D01*
X136936147Y-136909586D01*
X136953805Y-137088880D01*
X136936147Y-137268174D01*
X136883849Y-137440574D01*
X136883848Y-137440576D01*
X136798921Y-137599463D01*
X136684629Y-137738729D01*
X136545363Y-137853021D01*
X136386476Y-137937948D01*
X136386474Y-137937949D01*
X136214074Y-137990247D01*
X136079711Y-138003480D01*
X135989849Y-138003480D01*
X135855486Y-137990247D01*
X135683086Y-137937949D01*
X135683084Y-137937948D01*
X135524197Y-137853021D01*
X135384931Y-137738729D01*
X135270639Y-137599463D01*
X135185712Y-137440576D01*
X135185711Y-137440574D01*
X135133413Y-137268174D01*
X135115755Y-137088880D01*
X135133413Y-136909586D01*
X135185711Y-136737186D01*
X135185712Y-136737184D01*
X135270639Y-136578297D01*
X135384931Y-136439031D01*
X135524197Y-136324739D01*
X135683084Y-136239812D01*
X135683086Y-136239811D01*
X135855486Y-136187513D01*
X135989849Y-136174280D01*
X136079711Y-136174280D01*
X136214074Y-136187513D01*
X136214074Y-136187513D01*
G37*
G36*
X171774074Y-136187513D02*
X171946474Y-136239811D01*
X171946476Y-136239812D01*
X172105363Y-136324739D01*
X172244629Y-136439031D01*
X172358921Y-136578297D01*
X172443848Y-136737184D01*
X172443849Y-136737186D01*
X172496147Y-136909586D01*
X172513805Y-137088880D01*
X172496147Y-137268174D01*
X172443849Y-137440574D01*
X172443848Y-137440576D01*
X172358921Y-137599463D01*
X172244629Y-137738729D01*
X172105363Y-137853021D01*
X171946476Y-137937948D01*
X171946474Y-137937949D01*
X171774074Y-137990247D01*
X171639711Y-138003480D01*
X171549849Y-138003480D01*
X171415486Y-137990247D01*
X171243086Y-137937949D01*
X171243084Y-137937948D01*
X171084197Y-137853021D01*
X170944931Y-137738729D01*
X170830639Y-137599463D01*
X170745712Y-137440576D01*
X170745711Y-137440574D01*
X170693413Y-137268174D01*
X170675755Y-137088880D01*
X170693413Y-136909586D01*
X170745711Y-136737186D01*
X170745712Y-136737184D01*
X170830639Y-136578297D01*
X170944931Y-136439031D01*
X171084197Y-136324739D01*
X171243084Y-136239812D01*
X171243086Y-136239811D01*
X171415486Y-136187513D01*
X171549849Y-136174280D01*
X171639711Y-136174280D01*
X171774074Y-136187513D01*
X171774074Y-136187513D01*
G37*
G36*
X174314074Y-136187513D02*
X174486474Y-136239811D01*
X174486476Y-136239812D01*
X174645363Y-136324739D01*
X174784629Y-136439031D01*
X174898921Y-136578297D01*
X174983848Y-136737184D01*
X174983849Y-136737186D01*
X175036147Y-136909586D01*
X175053805Y-137088880D01*
X175036147Y-137268174D01*
X174983849Y-137440574D01*
X174983848Y-137440576D01*
X174898921Y-137599463D01*
X174784629Y-137738729D01*
X174645363Y-137853021D01*
X174486476Y-137937948D01*
X174486474Y-137937949D01*
X174314074Y-137990247D01*
X174179711Y-138003480D01*
X174089849Y-138003480D01*
X173955486Y-137990247D01*
X173783086Y-137937949D01*
X173783084Y-137937948D01*
X173624197Y-137853021D01*
X173484931Y-137738729D01*
X173370639Y-137599463D01*
X173285712Y-137440576D01*
X173285711Y-137440574D01*
X173233413Y-137268174D01*
X173215755Y-137088880D01*
X173233413Y-136909586D01*
X173285711Y-136737186D01*
X173285712Y-136737184D01*
X173370639Y-136578297D01*
X173484931Y-136439031D01*
X173624197Y-136324739D01*
X173783084Y-136239812D01*
X173783086Y-136239811D01*
X173955486Y-136187513D01*
X174089849Y-136174280D01*
X174179711Y-136174280D01*
X174314074Y-136187513D01*
X174314074Y-136187513D01*
G37*
G36*
X164154074Y-136187513D02*
X164326474Y-136239811D01*
X164326476Y-136239812D01*
X164485363Y-136324739D01*
X164624629Y-136439031D01*
X164738921Y-136578297D01*
X164823848Y-136737184D01*
X164823849Y-136737186D01*
X164876147Y-136909586D01*
X164893805Y-137088880D01*
X164876147Y-137268174D01*
X164823849Y-137440574D01*
X164823848Y-137440576D01*
X164738921Y-137599463D01*
X164624629Y-137738729D01*
X164485363Y-137853021D01*
X164326476Y-137937948D01*
X164326474Y-137937949D01*
X164154074Y-137990247D01*
X164019711Y-138003480D01*
X163929849Y-138003480D01*
X163795486Y-137990247D01*
X163623086Y-137937949D01*
X163623084Y-137937948D01*
X163464197Y-137853021D01*
X163324931Y-137738729D01*
X163210639Y-137599463D01*
X163125712Y-137440576D01*
X163125711Y-137440574D01*
X163073413Y-137268174D01*
X163055755Y-137088880D01*
X163073413Y-136909586D01*
X163125711Y-136737186D01*
X163125712Y-136737184D01*
X163210639Y-136578297D01*
X163324931Y-136439031D01*
X163464197Y-136324739D01*
X163623084Y-136239812D01*
X163623086Y-136239811D01*
X163795486Y-136187513D01*
X163929849Y-136174280D01*
X164019711Y-136174280D01*
X164154074Y-136187513D01*
X164154074Y-136187513D01*
G37*
G36*
X146374074Y-136187513D02*
X146546474Y-136239811D01*
X146546476Y-136239812D01*
X146705363Y-136324739D01*
X146844629Y-136439031D01*
X146958921Y-136578297D01*
X147043848Y-136737184D01*
X147043849Y-136737186D01*
X147096147Y-136909586D01*
X147113805Y-137088880D01*
X147096147Y-137268174D01*
X147043849Y-137440574D01*
X147043848Y-137440576D01*
X146958921Y-137599463D01*
X146844629Y-137738729D01*
X146705363Y-137853021D01*
X146546476Y-137937948D01*
X146546474Y-137937949D01*
X146374074Y-137990247D01*
X146239711Y-138003480D01*
X146149849Y-138003480D01*
X146015486Y-137990247D01*
X145843086Y-137937949D01*
X145843084Y-137937948D01*
X145684197Y-137853021D01*
X145544931Y-137738729D01*
X145430639Y-137599463D01*
X145345712Y-137440576D01*
X145345711Y-137440574D01*
X145293413Y-137268174D01*
X145275755Y-137088880D01*
X145293413Y-136909586D01*
X145345711Y-136737186D01*
X145345712Y-136737184D01*
X145430639Y-136578297D01*
X145544931Y-136439031D01*
X145684197Y-136324739D01*
X145843084Y-136239812D01*
X145843086Y-136239811D01*
X146015486Y-136187513D01*
X146149849Y-136174280D01*
X146239711Y-136174280D01*
X146374074Y-136187513D01*
X146374074Y-136187513D01*
G37*
G36*
X148914074Y-136187513D02*
X149086474Y-136239811D01*
X149086476Y-136239812D01*
X149245363Y-136324739D01*
X149384629Y-136439031D01*
X149498921Y-136578297D01*
X149583848Y-136737184D01*
X149583849Y-136737186D01*
X149636147Y-136909586D01*
X149653805Y-137088880D01*
X149636147Y-137268174D01*
X149583849Y-137440574D01*
X149583848Y-137440576D01*
X149498921Y-137599463D01*
X149384629Y-137738729D01*
X149245363Y-137853021D01*
X149086476Y-137937948D01*
X149086474Y-137937949D01*
X148914074Y-137990247D01*
X148779711Y-138003480D01*
X148689849Y-138003480D01*
X148555486Y-137990247D01*
X148383086Y-137937949D01*
X148383084Y-137937948D01*
X148224197Y-137853021D01*
X148084931Y-137738729D01*
X147970639Y-137599463D01*
X147885712Y-137440576D01*
X147885711Y-137440574D01*
X147833413Y-137268174D01*
X147815755Y-137088880D01*
X147833413Y-136909586D01*
X147885711Y-136737186D01*
X147885712Y-136737184D01*
X147970639Y-136578297D01*
X148084931Y-136439031D01*
X148224197Y-136324739D01*
X148383084Y-136239812D01*
X148383086Y-136239811D01*
X148555486Y-136187513D01*
X148689849Y-136174280D01*
X148779711Y-136174280D01*
X148914074Y-136187513D01*
X148914074Y-136187513D01*
G37*
G36*
X151454074Y-136187513D02*
X151626474Y-136239811D01*
X151626476Y-136239812D01*
X151785363Y-136324739D01*
X151924629Y-136439031D01*
X152038921Y-136578297D01*
X152123848Y-136737184D01*
X152123849Y-136737186D01*
X152176147Y-136909586D01*
X152193805Y-137088880D01*
X152176147Y-137268174D01*
X152123849Y-137440574D01*
X152123848Y-137440576D01*
X152038921Y-137599463D01*
X151924629Y-137738729D01*
X151785363Y-137853021D01*
X151626476Y-137937948D01*
X151626474Y-137937949D01*
X151454074Y-137990247D01*
X151319711Y-138003480D01*
X151229849Y-138003480D01*
X151095486Y-137990247D01*
X150923086Y-137937949D01*
X150923084Y-137937948D01*
X150764197Y-137853021D01*
X150624931Y-137738729D01*
X150510639Y-137599463D01*
X150425712Y-137440576D01*
X150425711Y-137440574D01*
X150373413Y-137268174D01*
X150355755Y-137088880D01*
X150373413Y-136909586D01*
X150425711Y-136737186D01*
X150425712Y-136737184D01*
X150510639Y-136578297D01*
X150624931Y-136439031D01*
X150764197Y-136324739D01*
X150923084Y-136239812D01*
X150923086Y-136239811D01*
X151095486Y-136187513D01*
X151229849Y-136174280D01*
X151319711Y-136174280D01*
X151454074Y-136187513D01*
X151454074Y-136187513D01*
G37*
G36*
X153994074Y-136187513D02*
X154166474Y-136239811D01*
X154166476Y-136239812D01*
X154325363Y-136324739D01*
X154464629Y-136439031D01*
X154578921Y-136578297D01*
X154663848Y-136737184D01*
X154663849Y-136737186D01*
X154716147Y-136909586D01*
X154733805Y-137088880D01*
X154716147Y-137268174D01*
X154663849Y-137440574D01*
X154663848Y-137440576D01*
X154578921Y-137599463D01*
X154464629Y-137738729D01*
X154325363Y-137853021D01*
X154166476Y-137937948D01*
X154166474Y-137937949D01*
X153994074Y-137990247D01*
X153859711Y-138003480D01*
X153769849Y-138003480D01*
X153635486Y-137990247D01*
X153463086Y-137937949D01*
X153463084Y-137937948D01*
X153304197Y-137853021D01*
X153164931Y-137738729D01*
X153050639Y-137599463D01*
X152965712Y-137440576D01*
X152965711Y-137440574D01*
X152913413Y-137268174D01*
X152895755Y-137088880D01*
X152913413Y-136909586D01*
X152965711Y-136737186D01*
X152965712Y-136737184D01*
X153050639Y-136578297D01*
X153164931Y-136439031D01*
X153304197Y-136324739D01*
X153463084Y-136239812D01*
X153463086Y-136239811D01*
X153635486Y-136187513D01*
X153769849Y-136174280D01*
X153859711Y-136174280D01*
X153994074Y-136187513D01*
X153994074Y-136187513D01*
G37*
G36*
X161614074Y-136187513D02*
X161786474Y-136239811D01*
X161786476Y-136239812D01*
X161945363Y-136324739D01*
X162084629Y-136439031D01*
X162198921Y-136578297D01*
X162283848Y-136737184D01*
X162283849Y-136737186D01*
X162336147Y-136909586D01*
X162353805Y-137088880D01*
X162336147Y-137268174D01*
X162283849Y-137440574D01*
X162283848Y-137440576D01*
X162198921Y-137599463D01*
X162084629Y-137738729D01*
X161945363Y-137853021D01*
X161786476Y-137937948D01*
X161786474Y-137937949D01*
X161614074Y-137990247D01*
X161479711Y-138003480D01*
X161389849Y-138003480D01*
X161255486Y-137990247D01*
X161083086Y-137937949D01*
X161083084Y-137937948D01*
X160924197Y-137853021D01*
X160784931Y-137738729D01*
X160670639Y-137599463D01*
X160585712Y-137440576D01*
X160585711Y-137440574D01*
X160533413Y-137268174D01*
X160515755Y-137088880D01*
X160533413Y-136909586D01*
X160585711Y-136737186D01*
X160585712Y-136737184D01*
X160670639Y-136578297D01*
X160784931Y-136439031D01*
X160924197Y-136324739D01*
X161083084Y-136239812D01*
X161083086Y-136239811D01*
X161255486Y-136187513D01*
X161389849Y-136174280D01*
X161479711Y-136174280D01*
X161614074Y-136187513D01*
X161614074Y-136187513D01*
G37*
G36*
X138754074Y-136187513D02*
X138926474Y-136239811D01*
X138926476Y-136239812D01*
X139085363Y-136324739D01*
X139224629Y-136439031D01*
X139338921Y-136578297D01*
X139423848Y-136737184D01*
X139423849Y-136737186D01*
X139476147Y-136909586D01*
X139493805Y-137088880D01*
X139476147Y-137268174D01*
X139423849Y-137440574D01*
X139423848Y-137440576D01*
X139338921Y-137599463D01*
X139224629Y-137738729D01*
X139085363Y-137853021D01*
X138926476Y-137937948D01*
X138926474Y-137937949D01*
X138754074Y-137990247D01*
X138619711Y-138003480D01*
X138529849Y-138003480D01*
X138395486Y-137990247D01*
X138223086Y-137937949D01*
X138223084Y-137937948D01*
X138064197Y-137853021D01*
X137924931Y-137738729D01*
X137810639Y-137599463D01*
X137725712Y-137440576D01*
X137725711Y-137440574D01*
X137673413Y-137268174D01*
X137655755Y-137088880D01*
X137673413Y-136909586D01*
X137725711Y-136737186D01*
X137725712Y-136737184D01*
X137810639Y-136578297D01*
X137924931Y-136439031D01*
X138064197Y-136324739D01*
X138223084Y-136239812D01*
X138223086Y-136239811D01*
X138395486Y-136187513D01*
X138529849Y-136174280D01*
X138619711Y-136174280D01*
X138754074Y-136187513D01*
X138754074Y-136187513D01*
G37*
G36*
X166694074Y-136187513D02*
X166866474Y-136239811D01*
X166866476Y-136239812D01*
X167025363Y-136324739D01*
X167164629Y-136439031D01*
X167278921Y-136578297D01*
X167363848Y-136737184D01*
X167363849Y-136737186D01*
X167416147Y-136909586D01*
X167433805Y-137088880D01*
X167416147Y-137268174D01*
X167363849Y-137440574D01*
X167363848Y-137440576D01*
X167278921Y-137599463D01*
X167164629Y-137738729D01*
X167025363Y-137853021D01*
X166866476Y-137937948D01*
X166866474Y-137937949D01*
X166694074Y-137990247D01*
X166559711Y-138003480D01*
X166469849Y-138003480D01*
X166335486Y-137990247D01*
X166163086Y-137937949D01*
X166163084Y-137937948D01*
X166004197Y-137853021D01*
X165864931Y-137738729D01*
X165750639Y-137599463D01*
X165665712Y-137440576D01*
X165665711Y-137440574D01*
X165613413Y-137268174D01*
X165595755Y-137088880D01*
X165613413Y-136909586D01*
X165665711Y-136737186D01*
X165665712Y-136737184D01*
X165750639Y-136578297D01*
X165864931Y-136439031D01*
X166004197Y-136324739D01*
X166163084Y-136239812D01*
X166163086Y-136239811D01*
X166335486Y-136187513D01*
X166469849Y-136174280D01*
X166559711Y-136174280D01*
X166694074Y-136187513D01*
X166694074Y-136187513D01*
G37*
G36*
X169234074Y-136187513D02*
X169406474Y-136239811D01*
X169406476Y-136239812D01*
X169565363Y-136324739D01*
X169704629Y-136439031D01*
X169818921Y-136578297D01*
X169903848Y-136737184D01*
X169903849Y-136737186D01*
X169956147Y-136909586D01*
X169973805Y-137088880D01*
X169956147Y-137268174D01*
X169903849Y-137440574D01*
X169903848Y-137440576D01*
X169818921Y-137599463D01*
X169704629Y-137738729D01*
X169565363Y-137853021D01*
X169406476Y-137937948D01*
X169406474Y-137937949D01*
X169234074Y-137990247D01*
X169099711Y-138003480D01*
X169009849Y-138003480D01*
X168875486Y-137990247D01*
X168703086Y-137937949D01*
X168703084Y-137937948D01*
X168544197Y-137853021D01*
X168404931Y-137738729D01*
X168290639Y-137599463D01*
X168205712Y-137440576D01*
X168205711Y-137440574D01*
X168153413Y-137268174D01*
X168135755Y-137088880D01*
X168153413Y-136909586D01*
X168205711Y-136737186D01*
X168205712Y-136737184D01*
X168290639Y-136578297D01*
X168404931Y-136439031D01*
X168544197Y-136324739D01*
X168703084Y-136239812D01*
X168703086Y-136239811D01*
X168875486Y-136187513D01*
X169009849Y-136174280D01*
X169099711Y-136174280D01*
X169234074Y-136187513D01*
X169234074Y-136187513D01*
G37*
G36*
X159074074Y-136187513D02*
X159246474Y-136239811D01*
X159246476Y-136239812D01*
X159405363Y-136324739D01*
X159544629Y-136439031D01*
X159658921Y-136578297D01*
X159743848Y-136737184D01*
X159743849Y-136737186D01*
X159796147Y-136909586D01*
X159813805Y-137088880D01*
X159796147Y-137268174D01*
X159743849Y-137440574D01*
X159743848Y-137440576D01*
X159658921Y-137599463D01*
X159544629Y-137738729D01*
X159405363Y-137853021D01*
X159246476Y-137937948D01*
X159246474Y-137937949D01*
X159074074Y-137990247D01*
X158939711Y-138003480D01*
X158849849Y-138003480D01*
X158715486Y-137990247D01*
X158543086Y-137937949D01*
X158543084Y-137937948D01*
X158384197Y-137853021D01*
X158244931Y-137738729D01*
X158130639Y-137599463D01*
X158045712Y-137440576D01*
X158045711Y-137440574D01*
X157993413Y-137268174D01*
X157975755Y-137088880D01*
X157993413Y-136909586D01*
X158045711Y-136737186D01*
X158045712Y-136737184D01*
X158130639Y-136578297D01*
X158244931Y-136439031D01*
X158384197Y-136324739D01*
X158543084Y-136239812D01*
X158543086Y-136239811D01*
X158715486Y-136187513D01*
X158849849Y-136174280D01*
X158939711Y-136174280D01*
X159074074Y-136187513D01*
X159074074Y-136187513D01*
G37*
G36*
X115355004Y-132860147D02*
X115391545Y-132871232D01*
X115425220Y-132889231D01*
X115454741Y-132913459D01*
X115478969Y-132942980D01*
X115496968Y-132976655D01*
X115508053Y-133013196D01*
X115512400Y-133057338D01*
X115512400Y-134506262D01*
X115508053Y-134550404D01*
X115496968Y-134586945D01*
X115478969Y-134620620D01*
X115454741Y-134650141D01*
X115425220Y-134674369D01*
X115391545Y-134692368D01*
X115355004Y-134703453D01*
X115310862Y-134707800D01*
X114361938Y-134707800D01*
X114317796Y-134703453D01*
X114281255Y-134692368D01*
X114247580Y-134674369D01*
X114218059Y-134650141D01*
X114193831Y-134620620D01*
X114175832Y-134586945D01*
X114164747Y-134550404D01*
X114160400Y-134506262D01*
X114160400Y-133057338D01*
X114164747Y-133013196D01*
X114175832Y-132976655D01*
X114193831Y-132942980D01*
X114218059Y-132913459D01*
X114247580Y-132889231D01*
X114281255Y-132871232D01*
X114317796Y-132860147D01*
X114361938Y-132855800D01*
X115310862Y-132855800D01*
X115355004Y-132860147D01*
X115355004Y-132860147D01*
G37*
G36*
X121247804Y-132860147D02*
X121284345Y-132871232D01*
X121318020Y-132889231D01*
X121347541Y-132913459D01*
X121371769Y-132942980D01*
X121389768Y-132976655D01*
X121400853Y-133013196D01*
X121405200Y-133057338D01*
X121405200Y-134506262D01*
X121400853Y-134550404D01*
X121389768Y-134586945D01*
X121371769Y-134620620D01*
X121347541Y-134650141D01*
X121318020Y-134674369D01*
X121284345Y-134692368D01*
X121247804Y-134703453D01*
X121203662Y-134707800D01*
X120254738Y-134707800D01*
X120210596Y-134703453D01*
X120174055Y-134692368D01*
X120140380Y-134674369D01*
X120110859Y-134650141D01*
X120086631Y-134620620D01*
X120068632Y-134586945D01*
X120057547Y-134550404D01*
X120053200Y-134506262D01*
X120053200Y-133057338D01*
X120057547Y-133013196D01*
X120068632Y-132976655D01*
X120086631Y-132942980D01*
X120110859Y-132913459D01*
X120140380Y-132889231D01*
X120174055Y-132871232D01*
X120210596Y-132860147D01*
X120254738Y-132855800D01*
X121203662Y-132855800D01*
X121247804Y-132860147D01*
X121247804Y-132860147D01*
G37*
G36*
X118447804Y-132860147D02*
X118484345Y-132871232D01*
X118518020Y-132889231D01*
X118547541Y-132913459D01*
X118571769Y-132942980D01*
X118589768Y-132976655D01*
X118600853Y-133013196D01*
X118605200Y-133057338D01*
X118605200Y-134506262D01*
X118600853Y-134550404D01*
X118589768Y-134586945D01*
X118571769Y-134620620D01*
X118547541Y-134650141D01*
X118518020Y-134674369D01*
X118484345Y-134692368D01*
X118447804Y-134703453D01*
X118403662Y-134707800D01*
X117454738Y-134707800D01*
X117410596Y-134703453D01*
X117374055Y-134692368D01*
X117340380Y-134674369D01*
X117310859Y-134650141D01*
X117286631Y-134620620D01*
X117268632Y-134586945D01*
X117257547Y-134550404D01*
X117253200Y-134506262D01*
X117253200Y-133057338D01*
X117257547Y-133013196D01*
X117268632Y-132976655D01*
X117286631Y-132942980D01*
X117310859Y-132913459D01*
X117340380Y-132889231D01*
X117374055Y-132871232D01*
X117410596Y-132860147D01*
X117454738Y-132855800D01*
X118403662Y-132855800D01*
X118447804Y-132860147D01*
X118447804Y-132860147D01*
G37*
G36*
X112555004Y-132860147D02*
X112591545Y-132871232D01*
X112625220Y-132889231D01*
X112654741Y-132913459D01*
X112678969Y-132942980D01*
X112696968Y-132976655D01*
X112708053Y-133013196D01*
X112712400Y-133057338D01*
X112712400Y-134506262D01*
X112708053Y-134550404D01*
X112696968Y-134586945D01*
X112678969Y-134620620D01*
X112654741Y-134650141D01*
X112625220Y-134674369D01*
X112591545Y-134692368D01*
X112555004Y-134703453D01*
X112510862Y-134707800D01*
X111561938Y-134707800D01*
X111517796Y-134703453D01*
X111481255Y-134692368D01*
X111447580Y-134674369D01*
X111418059Y-134650141D01*
X111393831Y-134620620D01*
X111375832Y-134586945D01*
X111364747Y-134550404D01*
X111360400Y-134506262D01*
X111360400Y-133057338D01*
X111364747Y-133013196D01*
X111375832Y-132976655D01*
X111393831Y-132942980D01*
X111418059Y-132913459D01*
X111447580Y-132889231D01*
X111481255Y-132871232D01*
X111517796Y-132860147D01*
X111561938Y-132855800D01*
X112510862Y-132855800D01*
X112555004Y-132860147D01*
X112555004Y-132860147D01*
G37*
G36*
X195283742Y-132746042D02*
X195431702Y-132807330D01*
X195498730Y-132852117D01*
X195504243Y-132855800D01*
X195564858Y-132896302D01*
X195678098Y-133009542D01*
X195767070Y-133142698D01*
X195828358Y-133290658D01*
X195859600Y-133447725D01*
X195859600Y-133607875D01*
X195828358Y-133764942D01*
X195767070Y-133912902D01*
X195678098Y-134046058D01*
X195564858Y-134159298D01*
X195431702Y-134248270D01*
X195283742Y-134309558D01*
X195126675Y-134340800D01*
X194966525Y-134340800D01*
X194809458Y-134309558D01*
X194661498Y-134248270D01*
X194528342Y-134159298D01*
X194415102Y-134046058D01*
X194326130Y-133912902D01*
X194264842Y-133764942D01*
X194233600Y-133607875D01*
X194233600Y-133447725D01*
X194264842Y-133290658D01*
X194326130Y-133142698D01*
X194415102Y-133009542D01*
X194528342Y-132896302D01*
X194588958Y-132855800D01*
X194594470Y-132852117D01*
X194661498Y-132807330D01*
X194809458Y-132746042D01*
X194966525Y-132714800D01*
X195126675Y-132714800D01*
X195283742Y-132746042D01*
X195283742Y-132746042D01*
G37*
G36*
X151650036Y-130400178D02*
X151756359Y-130421327D01*
X152056822Y-130545783D01*
X152323632Y-130724060D01*
X152327234Y-130726467D01*
X152557193Y-130956426D01*
X152557195Y-130956429D01*
X152737877Y-131226838D01*
X152850319Y-131498296D01*
X152862333Y-131527302D01*
X152925780Y-131846269D01*
X152925780Y-132171491D01*
X152888169Y-132360574D01*
X152862333Y-132490459D01*
X152737877Y-132790922D01*
X152672189Y-132889231D01*
X152557193Y-133061334D01*
X152327234Y-133291293D01*
X152327231Y-133291295D01*
X152056822Y-133471977D01*
X151756359Y-133596433D01*
X151698841Y-133607874D01*
X151437391Y-133659880D01*
X151112169Y-133659880D01*
X150850719Y-133607874D01*
X150793201Y-133596433D01*
X150492738Y-133471977D01*
X150222329Y-133291295D01*
X150222326Y-133291293D01*
X149992367Y-133061334D01*
X149877371Y-132889231D01*
X149811683Y-132790922D01*
X149687227Y-132490459D01*
X149661391Y-132360574D01*
X149623780Y-132171491D01*
X149623780Y-131846269D01*
X149687227Y-131527302D01*
X149699242Y-131498296D01*
X149811683Y-131226838D01*
X149992365Y-130956429D01*
X149992367Y-130956426D01*
X150222326Y-130726467D01*
X150225928Y-130724060D01*
X150492738Y-130545783D01*
X150793201Y-130421327D01*
X150899524Y-130400178D01*
X151112169Y-130357880D01*
X151437391Y-130357880D01*
X151650036Y-130400178D01*
X151650036Y-130400178D01*
G37*
G36*
X181934074Y-131107513D02*
X182106474Y-131159811D01*
X182106476Y-131159812D01*
X182265363Y-131244739D01*
X182404629Y-131359031D01*
X182518921Y-131498297D01*
X182603848Y-131657184D01*
X182603849Y-131657186D01*
X182656147Y-131829586D01*
X182673805Y-132008880D01*
X182656147Y-132188174D01*
X182603849Y-132360574D01*
X182603848Y-132360576D01*
X182518921Y-132519463D01*
X182404629Y-132658729D01*
X182265363Y-132773021D01*
X182106476Y-132857948D01*
X182106474Y-132857949D01*
X181934074Y-132910247D01*
X181799711Y-132923480D01*
X181709849Y-132923480D01*
X181575486Y-132910247D01*
X181403086Y-132857949D01*
X181403084Y-132857948D01*
X181244197Y-132773021D01*
X181104931Y-132658729D01*
X180990639Y-132519463D01*
X180905712Y-132360576D01*
X180905711Y-132360574D01*
X180853413Y-132188174D01*
X180835755Y-132008880D01*
X180853413Y-131829586D01*
X180905711Y-131657186D01*
X180905712Y-131657184D01*
X180990639Y-131498297D01*
X181104931Y-131359031D01*
X181244197Y-131244739D01*
X181403084Y-131159812D01*
X181403086Y-131159811D01*
X181575486Y-131107513D01*
X181709849Y-131094280D01*
X181799711Y-131094280D01*
X181934074Y-131107513D01*
X181934074Y-131107513D01*
G37*
G36*
X179394074Y-131107513D02*
X179566474Y-131159811D01*
X179566476Y-131159812D01*
X179725363Y-131244739D01*
X179864629Y-131359031D01*
X179978921Y-131498297D01*
X180063848Y-131657184D01*
X180063849Y-131657186D01*
X180116147Y-131829586D01*
X180133805Y-132008880D01*
X180116147Y-132188174D01*
X180063849Y-132360574D01*
X180063848Y-132360576D01*
X179978921Y-132519463D01*
X179864629Y-132658729D01*
X179725363Y-132773021D01*
X179566476Y-132857948D01*
X179566474Y-132857949D01*
X179394074Y-132910247D01*
X179259711Y-132923480D01*
X179169849Y-132923480D01*
X179035486Y-132910247D01*
X178863086Y-132857949D01*
X178863084Y-132857948D01*
X178704197Y-132773021D01*
X178564931Y-132658729D01*
X178450639Y-132519463D01*
X178365712Y-132360576D01*
X178365711Y-132360574D01*
X178313413Y-132188174D01*
X178295755Y-132008880D01*
X178313413Y-131829586D01*
X178365711Y-131657186D01*
X178365712Y-131657184D01*
X178450639Y-131498297D01*
X178564931Y-131359031D01*
X178704197Y-131244739D01*
X178863084Y-131159812D01*
X178863086Y-131159811D01*
X179035486Y-131107513D01*
X179169849Y-131094280D01*
X179259711Y-131094280D01*
X179394074Y-131107513D01*
X179394074Y-131107513D01*
G37*
G36*
X179394074Y-128567513D02*
X179566474Y-128619811D01*
X179566476Y-128619812D01*
X179725363Y-128704739D01*
X179725365Y-128704740D01*
X179725364Y-128704740D01*
X179864629Y-128819031D01*
X179978920Y-128958296D01*
X180063849Y-129117186D01*
X180116147Y-129289586D01*
X180133805Y-129468880D01*
X180116147Y-129648174D01*
X180063849Y-129820574D01*
X180063848Y-129820576D01*
X179978921Y-129979463D01*
X179864629Y-130118729D01*
X179725363Y-130233021D01*
X179566476Y-130317948D01*
X179566474Y-130317949D01*
X179394074Y-130370247D01*
X179259711Y-130383480D01*
X179169849Y-130383480D01*
X179035486Y-130370247D01*
X178863086Y-130317949D01*
X178863084Y-130317948D01*
X178704197Y-130233021D01*
X178564931Y-130118729D01*
X178450639Y-129979463D01*
X178365712Y-129820576D01*
X178365711Y-129820574D01*
X178313413Y-129648174D01*
X178295755Y-129468880D01*
X178313413Y-129289586D01*
X178365711Y-129117186D01*
X178450640Y-128958296D01*
X178564931Y-128819031D01*
X178704196Y-128704740D01*
X178704195Y-128704740D01*
X178704197Y-128704739D01*
X178863084Y-128619812D01*
X178863086Y-128619811D01*
X179035486Y-128567513D01*
X179169849Y-128554280D01*
X179259711Y-128554280D01*
X179394074Y-128567513D01*
X179394074Y-128567513D01*
G37*
G36*
X181934074Y-128567513D02*
X182106474Y-128619811D01*
X182106476Y-128619812D01*
X182265363Y-128704739D01*
X182265365Y-128704740D01*
X182265364Y-128704740D01*
X182404629Y-128819031D01*
X182518920Y-128958296D01*
X182603849Y-129117186D01*
X182656147Y-129289586D01*
X182673805Y-129468880D01*
X182656147Y-129648174D01*
X182603849Y-129820574D01*
X182603848Y-129820576D01*
X182518921Y-129979463D01*
X182404629Y-130118729D01*
X182265363Y-130233021D01*
X182106476Y-130317948D01*
X182106474Y-130317949D01*
X181934074Y-130370247D01*
X181799711Y-130383480D01*
X181709849Y-130383480D01*
X181575486Y-130370247D01*
X181403086Y-130317949D01*
X181403084Y-130317948D01*
X181244197Y-130233021D01*
X181104931Y-130118729D01*
X180990639Y-129979463D01*
X180905712Y-129820576D01*
X180905711Y-129820574D01*
X180853413Y-129648174D01*
X180835755Y-129468880D01*
X180853413Y-129289586D01*
X180905711Y-129117186D01*
X180990640Y-128958296D01*
X181104931Y-128819031D01*
X181244196Y-128704740D01*
X181244195Y-128704740D01*
X181244197Y-128704739D01*
X181403084Y-128619812D01*
X181403086Y-128619811D01*
X181575486Y-128567513D01*
X181709849Y-128554280D01*
X181799711Y-128554280D01*
X181934074Y-128567513D01*
X181934074Y-128567513D01*
G37*
G36*
X179394074Y-126027513D02*
X179566474Y-126079811D01*
X179566476Y-126079812D01*
X179725363Y-126164739D01*
X179725365Y-126164740D01*
X179725364Y-126164740D01*
X179864629Y-126279031D01*
X179978920Y-126418296D01*
X180063849Y-126577186D01*
X180116147Y-126749586D01*
X180133805Y-126928880D01*
X180116147Y-127108174D01*
X180063849Y-127280574D01*
X180063848Y-127280576D01*
X179978921Y-127439463D01*
X179864629Y-127578729D01*
X179725363Y-127693021D01*
X179566476Y-127777948D01*
X179566474Y-127777949D01*
X179394074Y-127830247D01*
X179259711Y-127843480D01*
X179169849Y-127843480D01*
X179035486Y-127830247D01*
X178863086Y-127777949D01*
X178863084Y-127777948D01*
X178704197Y-127693021D01*
X178564931Y-127578729D01*
X178450639Y-127439463D01*
X178365712Y-127280576D01*
X178365711Y-127280574D01*
X178313413Y-127108174D01*
X178295755Y-126928880D01*
X178313413Y-126749586D01*
X178365711Y-126577186D01*
X178450640Y-126418296D01*
X178564931Y-126279031D01*
X178704196Y-126164740D01*
X178704195Y-126164740D01*
X178704197Y-126164739D01*
X178863084Y-126079812D01*
X178863086Y-126079811D01*
X179035486Y-126027513D01*
X179169849Y-126014280D01*
X179259711Y-126014280D01*
X179394074Y-126027513D01*
X179394074Y-126027513D01*
G37*
G36*
X181934074Y-126027513D02*
X182106474Y-126079811D01*
X182106476Y-126079812D01*
X182265363Y-126164739D01*
X182265365Y-126164740D01*
X182265364Y-126164740D01*
X182404629Y-126279031D01*
X182518920Y-126418296D01*
X182603849Y-126577186D01*
X182656147Y-126749586D01*
X182673805Y-126928880D01*
X182656147Y-127108174D01*
X182603849Y-127280574D01*
X182603848Y-127280576D01*
X182518921Y-127439463D01*
X182404629Y-127578729D01*
X182265363Y-127693021D01*
X182106476Y-127777948D01*
X182106474Y-127777949D01*
X181934074Y-127830247D01*
X181799711Y-127843480D01*
X181709849Y-127843480D01*
X181575486Y-127830247D01*
X181403086Y-127777949D01*
X181403084Y-127777948D01*
X181244197Y-127693021D01*
X181104931Y-127578729D01*
X180990639Y-127439463D01*
X180905712Y-127280576D01*
X180905711Y-127280574D01*
X180853413Y-127108174D01*
X180835755Y-126928880D01*
X180853413Y-126749586D01*
X180905711Y-126577186D01*
X180990640Y-126418296D01*
X181104931Y-126279031D01*
X181244196Y-126164740D01*
X181244195Y-126164740D01*
X181244197Y-126164739D01*
X181403084Y-126079812D01*
X181403086Y-126079811D01*
X181575486Y-126027513D01*
X181709849Y-126014280D01*
X181799711Y-126014280D01*
X181934074Y-126027513D01*
X181934074Y-126027513D01*
G37*
G36*
X195283742Y-125736042D02*
X195431702Y-125797330D01*
X195564858Y-125886302D01*
X195678098Y-125999542D01*
X195767070Y-126132698D01*
X195828358Y-126280658D01*
X195859600Y-126437725D01*
X195859600Y-126597875D01*
X195828358Y-126754942D01*
X195767070Y-126902902D01*
X195678098Y-127036058D01*
X195564858Y-127149298D01*
X195431702Y-127238270D01*
X195283742Y-127299558D01*
X195126675Y-127330800D01*
X194966525Y-127330800D01*
X194809458Y-127299558D01*
X194661498Y-127238270D01*
X194528342Y-127149298D01*
X194415102Y-127036058D01*
X194326130Y-126902902D01*
X194264842Y-126754942D01*
X194233600Y-126597875D01*
X194233600Y-126437725D01*
X194264842Y-126280658D01*
X194326130Y-126132698D01*
X194415102Y-125999542D01*
X194528342Y-125886302D01*
X194661498Y-125797330D01*
X194809458Y-125736042D01*
X194966525Y-125704800D01*
X195126675Y-125704800D01*
X195283742Y-125736042D01*
X195283742Y-125736042D01*
G37*
G36*
X170580800Y-127054900D02*
X169378800Y-127054900D01*
X169378800Y-125852900D01*
X170580800Y-125852900D01*
X170580800Y-127054900D01*
X170580800Y-127054900D01*
G37*
G36*
X167780800Y-127054900D02*
X166578800Y-127054900D01*
X166578800Y-125852900D01*
X167780800Y-125852900D01*
X167780800Y-127054900D01*
X167780800Y-127054900D01*
G37*
G36*
X161972300Y-124233600D02*
X159870300Y-124233600D01*
X159870300Y-122631600D01*
X161972300Y-122631600D01*
X161972300Y-124233600D01*
X161972300Y-124233600D01*
G37*
G36*
X177212300Y-124030400D02*
X175110300Y-124030400D01*
X175110300Y-122428400D01*
X177212300Y-122428400D01*
X177212300Y-124030400D01*
X177212300Y-124030400D01*
G37*
G36*
X92291000Y-123581000D02*
X91389000Y-123581000D01*
X91389000Y-122279000D01*
X92291000Y-122279000D01*
X92291000Y-123581000D01*
X92291000Y-123581000D01*
G37*
G36*
X89891000Y-123581000D02*
X86589000Y-123581000D01*
X86589000Y-122279000D01*
X89891000Y-122279000D01*
X89891000Y-123581000D01*
X89891000Y-123581000D01*
G37*
G36*
X98691000Y-123581000D02*
X97389000Y-123581000D01*
X97389000Y-122279000D01*
X98691000Y-122279000D01*
X98691000Y-123581000D01*
X98691000Y-123581000D01*
G37*
G36*
X168272300Y-123083600D02*
X166170300Y-123083600D01*
X166170300Y-119181600D01*
X168272300Y-119181600D01*
X168272300Y-123083600D01*
X168272300Y-123083600D01*
G37*
G36*
X183512300Y-122880400D02*
X181410300Y-122880400D01*
X181410300Y-118978400D01*
X183512300Y-118978400D01*
X183512300Y-122880400D01*
X183512300Y-122880400D01*
G37*
G36*
X109171300Y-122490300D02*
X107769300Y-122490300D01*
X107769300Y-121588300D01*
X109171300Y-121588300D01*
X109171300Y-122490300D01*
X109171300Y-122490300D01*
G37*
G36*
X115471300Y-122490300D02*
X114069300Y-122490300D01*
X114069300Y-121588300D01*
X115471300Y-121588300D01*
X115471300Y-122490300D01*
X115471300Y-122490300D01*
G37*
G36*
X102991000Y-122481000D02*
X101689000Y-122481000D01*
X101689000Y-121656000D01*
X101686598Y-121631614D01*
X101679485Y-121608165D01*
X101667934Y-121586554D01*
X101652388Y-121567612D01*
X101633446Y-121552066D01*
X101611835Y-121540515D01*
X101588386Y-121533402D01*
X101564000Y-121531000D01*
X101489000Y-121531000D01*
X101489000Y-120729000D01*
X102991000Y-120729000D01*
X102991000Y-122481000D01*
X102991000Y-122481000D01*
G37*
G36*
X157918404Y-121098947D02*
X157954945Y-121110032D01*
X157988620Y-121128031D01*
X158018141Y-121152259D01*
X158042369Y-121181780D01*
X158060368Y-121215455D01*
X158071453Y-121251996D01*
X158075800Y-121296138D01*
X158075800Y-122245062D01*
X158071453Y-122289204D01*
X158060368Y-122325745D01*
X158042369Y-122359420D01*
X158018141Y-122388941D01*
X157988620Y-122413169D01*
X157954945Y-122431168D01*
X157918404Y-122442253D01*
X157874262Y-122446600D01*
X156425338Y-122446600D01*
X156381196Y-122442253D01*
X156344655Y-122431168D01*
X156310980Y-122413169D01*
X156281459Y-122388941D01*
X156257231Y-122359420D01*
X156239232Y-122325745D01*
X156228147Y-122289204D01*
X156223800Y-122245062D01*
X156223800Y-121296138D01*
X156228147Y-121251996D01*
X156239232Y-121215455D01*
X156257231Y-121181780D01*
X156281459Y-121152259D01*
X156310980Y-121128031D01*
X156344655Y-121110032D01*
X156381196Y-121098947D01*
X156425338Y-121094600D01*
X157874262Y-121094600D01*
X157918404Y-121098947D01*
X157918404Y-121098947D01*
G37*
G36*
X173120304Y-120730647D02*
X173156845Y-120741732D01*
X173190520Y-120759731D01*
X173220041Y-120783959D01*
X173244269Y-120813480D01*
X173262268Y-120847155D01*
X173273353Y-120883696D01*
X173277700Y-120927838D01*
X173277700Y-121876762D01*
X173273353Y-121920904D01*
X173262268Y-121957445D01*
X173244269Y-121991120D01*
X173220041Y-122020641D01*
X173190520Y-122044869D01*
X173156845Y-122062868D01*
X173120304Y-122073953D01*
X173076162Y-122078300D01*
X171627238Y-122078300D01*
X171583096Y-122073953D01*
X171546555Y-122062868D01*
X171512880Y-122044869D01*
X171483359Y-122020641D01*
X171459131Y-121991120D01*
X171441132Y-121957445D01*
X171430047Y-121920904D01*
X171425700Y-121876762D01*
X171425700Y-120927838D01*
X171430047Y-120883696D01*
X171441132Y-120847155D01*
X171459131Y-120813480D01*
X171483359Y-120783959D01*
X171512880Y-120759731D01*
X171546555Y-120741732D01*
X171583096Y-120730647D01*
X171627238Y-120726300D01*
X173076162Y-120726300D01*
X173120304Y-120730647D01*
X173120304Y-120730647D01*
G37*
G36*
X161972300Y-121933600D02*
X159870300Y-121933600D01*
X159870300Y-120331600D01*
X161972300Y-120331600D01*
X161972300Y-121933600D01*
X161972300Y-121933600D01*
G37*
G36*
X177212300Y-121730400D02*
X175110300Y-121730400D01*
X175110300Y-120128400D01*
X177212300Y-120128400D01*
X177212300Y-121730400D01*
X177212300Y-121730400D01*
G37*
G36*
X199309651Y-118809556D02*
X199412564Y-118819692D01*
X199577734Y-118869796D01*
X199676654Y-118899803D01*
X199757782Y-118943167D01*
X199920040Y-119029895D01*
X200021179Y-119112899D01*
X200133370Y-119204970D01*
X200225441Y-119317161D01*
X200308445Y-119418300D01*
X200388141Y-119567402D01*
X200438537Y-119661686D01*
X200438537Y-119661687D01*
X200518648Y-119925776D01*
X200545698Y-120200420D01*
X200518648Y-120475064D01*
X200465241Y-120651123D01*
X200438537Y-120739154D01*
X200427538Y-120759731D01*
X200308445Y-120982540D01*
X200225441Y-121083679D01*
X200133370Y-121195870D01*
X200021179Y-121287941D01*
X199920040Y-121370945D01*
X199757782Y-121457673D01*
X199676654Y-121501037D01*
X199596241Y-121525430D01*
X199412564Y-121581148D01*
X199309651Y-121591284D01*
X199206740Y-121601420D01*
X198469100Y-121601420D01*
X198366189Y-121591284D01*
X198263276Y-121581148D01*
X198079599Y-121525430D01*
X197999186Y-121501037D01*
X197918058Y-121457673D01*
X197755800Y-121370945D01*
X197654661Y-121287941D01*
X197542470Y-121195870D01*
X197450399Y-121083679D01*
X197367395Y-120982540D01*
X197248302Y-120759731D01*
X197237303Y-120739154D01*
X197210599Y-120651123D01*
X197157192Y-120475064D01*
X197130142Y-120200420D01*
X197157192Y-119925776D01*
X197237303Y-119661687D01*
X197237303Y-119661686D01*
X197287699Y-119567402D01*
X197367395Y-119418300D01*
X197450399Y-119317161D01*
X197542470Y-119204970D01*
X197654661Y-119112899D01*
X197755800Y-119029895D01*
X197918058Y-118943167D01*
X197999186Y-118899803D01*
X198098106Y-118869796D01*
X198263276Y-118819692D01*
X198366189Y-118809556D01*
X198469100Y-118799420D01*
X199206740Y-118799420D01*
X199309651Y-118809556D01*
X199309651Y-118809556D01*
G37*
G36*
X205911952Y-118803041D02*
X205941407Y-118811976D01*
X205968544Y-118826482D01*
X205992334Y-118846006D01*
X206011858Y-118869796D01*
X206026364Y-118896933D01*
X206035299Y-118926388D01*
X206038920Y-118963153D01*
X206038920Y-121437687D01*
X206035299Y-121474452D01*
X206026364Y-121503907D01*
X206011858Y-121531044D01*
X205992334Y-121554834D01*
X205968544Y-121574358D01*
X205941407Y-121588864D01*
X205911952Y-121597799D01*
X205875187Y-121601420D01*
X202800653Y-121601420D01*
X202763888Y-121597799D01*
X202734433Y-121588864D01*
X202707296Y-121574358D01*
X202683506Y-121554834D01*
X202663982Y-121531044D01*
X202649476Y-121503907D01*
X202640541Y-121474452D01*
X202636920Y-121437687D01*
X202636920Y-118963153D01*
X202640541Y-118926388D01*
X202649476Y-118896933D01*
X202663982Y-118869796D01*
X202683506Y-118846006D01*
X202707296Y-118826482D01*
X202734433Y-118811976D01*
X202763888Y-118803041D01*
X202800653Y-118799420D01*
X205875187Y-118799420D01*
X205911952Y-118803041D01*
X205911952Y-118803041D01*
G37*
G36*
X186173400Y-121495300D02*
X184971400Y-121495300D01*
X184971400Y-120293300D01*
X186173400Y-120293300D01*
X186173400Y-121495300D01*
X186173400Y-121495300D01*
G37*
G36*
X109171300Y-121210300D02*
X107769300Y-121210300D01*
X107769300Y-120308300D01*
X109171300Y-120308300D01*
X109171300Y-121210300D01*
X109171300Y-121210300D01*
G37*
G36*
X115471300Y-121210300D02*
X114069300Y-121210300D01*
X114069300Y-120308300D01*
X115471300Y-120308300D01*
X115471300Y-121210300D01*
X115471300Y-121210300D01*
G37*
G36*
X102991000Y-120431000D02*
X101489000Y-120431000D01*
X101489000Y-119629000D01*
X102991000Y-119629000D01*
X102991000Y-120431000D01*
X102991000Y-120431000D01*
G37*
G36*
X109171300Y-119950300D02*
X107769300Y-119950300D01*
X107769300Y-119048300D01*
X109171300Y-119048300D01*
X109171300Y-119950300D01*
X109171300Y-119950300D01*
G37*
G36*
X115471300Y-119950300D02*
X114069300Y-119950300D01*
X114069300Y-119048300D01*
X115471300Y-119048300D01*
X115471300Y-119950300D01*
X115471300Y-119950300D01*
G37*
G36*
X157918404Y-118298947D02*
X157954945Y-118310032D01*
X157988620Y-118328031D01*
X158018141Y-118352259D01*
X158042369Y-118381780D01*
X158060368Y-118415455D01*
X158071453Y-118451996D01*
X158075800Y-118496138D01*
X158075800Y-119445062D01*
X158071453Y-119489204D01*
X158060368Y-119525745D01*
X158042369Y-119559420D01*
X158018141Y-119588941D01*
X157988620Y-119613169D01*
X157954945Y-119631168D01*
X157918404Y-119642253D01*
X157874262Y-119646600D01*
X156425338Y-119646600D01*
X156381196Y-119642253D01*
X156344655Y-119631168D01*
X156310980Y-119613169D01*
X156281459Y-119588941D01*
X156257231Y-119559420D01*
X156239232Y-119525745D01*
X156228147Y-119489204D01*
X156223800Y-119445062D01*
X156223800Y-118496138D01*
X156228147Y-118451996D01*
X156239232Y-118415455D01*
X156257231Y-118381780D01*
X156281459Y-118352259D01*
X156310980Y-118328031D01*
X156344655Y-118310032D01*
X156381196Y-118298947D01*
X156425338Y-118294600D01*
X157874262Y-118294600D01*
X157918404Y-118298947D01*
X157918404Y-118298947D01*
G37*
G36*
X161972300Y-119633600D02*
X159870300Y-119633600D01*
X159870300Y-118031600D01*
X161972300Y-118031600D01*
X161972300Y-119633600D01*
X161972300Y-119633600D01*
G37*
G36*
X177212300Y-119430400D02*
X175110300Y-119430400D01*
X175110300Y-117828400D01*
X177212300Y-117828400D01*
X177212300Y-119430400D01*
X177212300Y-119430400D01*
G37*
G36*
X102991000Y-119331000D02*
X101489000Y-119331000D01*
X101489000Y-118529000D01*
X102991000Y-118529000D01*
X102991000Y-119331000D01*
X102991000Y-119331000D01*
G37*
G36*
X173120304Y-117930647D02*
X173156845Y-117941732D01*
X173190520Y-117959731D01*
X173220041Y-117983959D01*
X173244269Y-118013480D01*
X173262268Y-118047155D01*
X173273353Y-118083696D01*
X173277700Y-118127838D01*
X173277700Y-119076762D01*
X173273353Y-119120904D01*
X173262268Y-119157445D01*
X173244269Y-119191120D01*
X173220041Y-119220641D01*
X173190520Y-119244869D01*
X173156845Y-119262868D01*
X173120304Y-119273953D01*
X173076162Y-119278300D01*
X171627238Y-119278300D01*
X171583096Y-119273953D01*
X171546555Y-119262868D01*
X171512880Y-119244869D01*
X171483359Y-119220641D01*
X171459131Y-119191120D01*
X171441132Y-119157445D01*
X171430047Y-119120904D01*
X171425700Y-119076762D01*
X171425700Y-118127838D01*
X171430047Y-118083696D01*
X171441132Y-118047155D01*
X171459131Y-118013480D01*
X171483359Y-117983959D01*
X171512880Y-117959731D01*
X171546555Y-117941732D01*
X171583096Y-117930647D01*
X171627238Y-117926300D01*
X173076162Y-117926300D01*
X173120304Y-117930647D01*
X173120304Y-117930647D01*
G37*
G36*
X139262800Y-118893200D02*
X137410800Y-118893200D01*
X137410800Y-118241200D01*
X139262800Y-118241200D01*
X139262800Y-118893200D01*
X139262800Y-118893200D01*
G37*
G36*
X146662800Y-118893200D02*
X144810800Y-118893200D01*
X144810800Y-118241200D01*
X146662800Y-118241200D01*
X146662800Y-118893200D01*
X146662800Y-118893200D01*
G37*
G36*
X186173400Y-118695300D02*
X184971400Y-118695300D01*
X184971400Y-117493300D01*
X186173400Y-117493300D01*
X186173400Y-118695300D01*
X186173400Y-118695300D01*
G37*
G36*
X109171300Y-118680300D02*
X107769300Y-118680300D01*
X107769300Y-117778300D01*
X109171300Y-117778300D01*
X109171300Y-118680300D01*
X109171300Y-118680300D01*
G37*
G36*
X115471300Y-118680300D02*
X114069300Y-118680300D01*
X114069300Y-117778300D01*
X115471300Y-117778300D01*
X115471300Y-118680300D01*
X115471300Y-118680300D01*
G37*
G36*
X102991000Y-118231000D02*
X101489000Y-118231000D01*
X101489000Y-117429000D01*
X102991000Y-117429000D01*
X102991000Y-118231000D01*
X102991000Y-118231000D01*
G37*
G36*
X146662800Y-117623200D02*
X144810800Y-117623200D01*
X144810800Y-116971200D01*
X146662800Y-116971200D01*
X146662800Y-117623200D01*
X146662800Y-117623200D01*
G37*
G36*
X139262800Y-117623200D02*
X137410800Y-117623200D01*
X137410800Y-116971200D01*
X139262800Y-116971200D01*
X139262800Y-117623200D01*
X139262800Y-117623200D01*
G37*
G36*
X109171300Y-117400300D02*
X107769300Y-117400300D01*
X107769300Y-116498300D01*
X109171300Y-116498300D01*
X109171300Y-117400300D01*
X109171300Y-117400300D01*
G37*
G36*
X115471300Y-117400300D02*
X114069300Y-117400300D01*
X114069300Y-116498300D01*
X115471300Y-116498300D01*
X115471300Y-117400300D01*
X115471300Y-117400300D01*
G37*
G36*
X102991000Y-117131000D02*
X101489000Y-117131000D01*
X101489000Y-116329000D01*
X102991000Y-116329000D01*
X102991000Y-117131000D01*
X102991000Y-117131000D01*
G37*
G36*
X139262800Y-116353200D02*
X137410800Y-116353200D01*
X137410800Y-115701200D01*
X139262800Y-115701200D01*
X139262800Y-116353200D01*
X139262800Y-116353200D01*
G37*
G36*
X146662800Y-116353200D02*
X144810800Y-116353200D01*
X144810800Y-115701200D01*
X146662800Y-115701200D01*
X146662800Y-116353200D01*
X146662800Y-116353200D01*
G37*
G36*
X115471300Y-116130300D02*
X114069300Y-116130300D01*
X114069300Y-115228300D01*
X115471300Y-115228300D01*
X115471300Y-116130300D01*
X115471300Y-116130300D01*
G37*
G36*
X109171300Y-116130300D02*
X107769300Y-116130300D01*
X107769300Y-115228300D01*
X109171300Y-115228300D01*
X109171300Y-116130300D01*
X109171300Y-116130300D01*
G37*
G36*
X102991000Y-116031000D02*
X101489000Y-116031000D01*
X101489000Y-115229000D01*
X102991000Y-115229000D01*
X102991000Y-116031000D01*
X102991000Y-116031000D01*
G37*
G36*
X132021104Y-113975247D02*
X132057645Y-113986332D01*
X132091320Y-114004331D01*
X132120841Y-114028559D01*
X132145069Y-114058080D01*
X132163068Y-114091755D01*
X132174153Y-114128296D01*
X132178500Y-114172438D01*
X132178500Y-115621362D01*
X132174153Y-115665504D01*
X132163068Y-115702045D01*
X132145069Y-115735720D01*
X132120841Y-115765241D01*
X132091320Y-115789469D01*
X132057645Y-115807468D01*
X132021104Y-115818553D01*
X131976962Y-115822900D01*
X131028038Y-115822900D01*
X130983896Y-115818553D01*
X130947355Y-115807468D01*
X130913680Y-115789469D01*
X130884159Y-115765241D01*
X130859931Y-115735720D01*
X130841932Y-115702045D01*
X130830847Y-115665504D01*
X130826500Y-115621362D01*
X130826500Y-114172438D01*
X130830847Y-114128296D01*
X130841932Y-114091755D01*
X130859931Y-114058080D01*
X130884159Y-114028559D01*
X130913680Y-114004331D01*
X130947355Y-113986332D01*
X130983896Y-113975247D01*
X131028038Y-113970900D01*
X131976962Y-113970900D01*
X132021104Y-113975247D01*
X132021104Y-113975247D01*
G37*
G36*
X128766204Y-113975247D02*
X128802745Y-113986332D01*
X128836420Y-114004331D01*
X128865941Y-114028559D01*
X128890169Y-114058080D01*
X128908168Y-114091755D01*
X128919253Y-114128296D01*
X128923600Y-114172438D01*
X128923600Y-115621362D01*
X128919253Y-115665504D01*
X128908168Y-115702045D01*
X128890169Y-115735720D01*
X128865941Y-115765241D01*
X128836420Y-115789469D01*
X128802745Y-115807468D01*
X128766204Y-115818553D01*
X128722062Y-115822900D01*
X127773138Y-115822900D01*
X127728996Y-115818553D01*
X127692455Y-115807468D01*
X127658780Y-115789469D01*
X127629259Y-115765241D01*
X127605031Y-115735720D01*
X127587032Y-115702045D01*
X127575947Y-115665504D01*
X127571600Y-115621362D01*
X127571600Y-114172438D01*
X127575947Y-114128296D01*
X127587032Y-114091755D01*
X127605031Y-114058080D01*
X127629259Y-114028559D01*
X127658780Y-114004331D01*
X127692455Y-113986332D01*
X127728996Y-113975247D01*
X127773138Y-113970900D01*
X128722062Y-113970900D01*
X128766204Y-113975247D01*
X128766204Y-113975247D01*
G37*
G36*
X125966204Y-113975247D02*
X126002745Y-113986332D01*
X126036420Y-114004331D01*
X126065941Y-114028559D01*
X126090169Y-114058080D01*
X126108168Y-114091755D01*
X126119253Y-114128296D01*
X126123600Y-114172438D01*
X126123600Y-115621362D01*
X126119253Y-115665504D01*
X126108168Y-115702045D01*
X126090169Y-115735720D01*
X126065941Y-115765241D01*
X126036420Y-115789469D01*
X126002745Y-115807468D01*
X125966204Y-115818553D01*
X125922062Y-115822900D01*
X124973138Y-115822900D01*
X124928996Y-115818553D01*
X124892455Y-115807468D01*
X124858780Y-115789469D01*
X124829259Y-115765241D01*
X124805031Y-115735720D01*
X124787032Y-115702045D01*
X124775947Y-115665504D01*
X124771600Y-115621362D01*
X124771600Y-114172438D01*
X124775947Y-114128296D01*
X124787032Y-114091755D01*
X124805031Y-114058080D01*
X124829259Y-114028559D01*
X124858780Y-114004331D01*
X124892455Y-113986332D01*
X124928996Y-113975247D01*
X124973138Y-113970900D01*
X125922062Y-113970900D01*
X125966204Y-113975247D01*
X125966204Y-113975247D01*
G37*
G36*
X134821104Y-113975247D02*
X134857645Y-113986332D01*
X134891320Y-114004331D01*
X134920841Y-114028559D01*
X134945069Y-114058080D01*
X134963068Y-114091755D01*
X134974153Y-114128296D01*
X134978500Y-114172438D01*
X134978500Y-115621362D01*
X134974153Y-115665504D01*
X134963068Y-115702045D01*
X134945069Y-115735720D01*
X134920841Y-115765241D01*
X134891320Y-115789469D01*
X134857645Y-115807468D01*
X134821104Y-115818553D01*
X134776962Y-115822900D01*
X133828038Y-115822900D01*
X133783896Y-115818553D01*
X133747355Y-115807468D01*
X133713680Y-115789469D01*
X133684159Y-115765241D01*
X133659931Y-115735720D01*
X133641932Y-115702045D01*
X133630847Y-115665504D01*
X133626500Y-115621362D01*
X133626500Y-114172438D01*
X133630847Y-114128296D01*
X133641932Y-114091755D01*
X133659931Y-114058080D01*
X133684159Y-114028559D01*
X133713680Y-114004331D01*
X133747355Y-113986332D01*
X133783896Y-113975247D01*
X133828038Y-113970900D01*
X134776962Y-113970900D01*
X134821104Y-113975247D01*
X134821104Y-113975247D01*
G37*
G36*
X149041074Y-113327513D02*
X149213474Y-113379811D01*
X149213476Y-113379812D01*
X149372363Y-113464739D01*
X149511629Y-113579031D01*
X149625921Y-113718297D01*
X149686162Y-113831000D01*
X149710849Y-113877186D01*
X149763147Y-114049586D01*
X149780805Y-114228880D01*
X149763147Y-114408174D01*
X149710849Y-114580574D01*
X149710848Y-114580576D01*
X149625921Y-114739463D01*
X149511629Y-114878729D01*
X149372363Y-114993021D01*
X149213476Y-115077948D01*
X149213474Y-115077949D01*
X149041074Y-115130247D01*
X148906711Y-115143480D01*
X148816849Y-115143480D01*
X148682486Y-115130247D01*
X148510086Y-115077949D01*
X148510084Y-115077948D01*
X148351197Y-114993021D01*
X148211931Y-114878729D01*
X148097639Y-114739463D01*
X148012712Y-114580576D01*
X148012711Y-114580574D01*
X147960413Y-114408174D01*
X147942755Y-114228880D01*
X147960413Y-114049586D01*
X148012711Y-113877186D01*
X148037398Y-113831000D01*
X148097639Y-113718297D01*
X148211931Y-113579031D01*
X148351197Y-113464739D01*
X148510084Y-113379812D01*
X148510086Y-113379811D01*
X148682486Y-113327513D01*
X148816849Y-113314280D01*
X148906711Y-113314280D01*
X149041074Y-113327513D01*
X149041074Y-113327513D01*
G37*
G36*
X151581074Y-113327513D02*
X151753474Y-113379811D01*
X151753476Y-113379812D01*
X151912363Y-113464739D01*
X152051629Y-113579031D01*
X152165921Y-113718297D01*
X152226162Y-113831000D01*
X152250849Y-113877186D01*
X152303147Y-114049586D01*
X152320805Y-114228880D01*
X152303147Y-114408174D01*
X152250849Y-114580574D01*
X152250848Y-114580576D01*
X152165921Y-114739463D01*
X152051629Y-114878729D01*
X151912363Y-114993021D01*
X151753476Y-115077948D01*
X151753474Y-115077949D01*
X151581074Y-115130247D01*
X151446711Y-115143480D01*
X151356849Y-115143480D01*
X151222486Y-115130247D01*
X151050086Y-115077949D01*
X151050084Y-115077948D01*
X150891197Y-114993021D01*
X150751931Y-114878729D01*
X150637639Y-114739463D01*
X150552712Y-114580576D01*
X150552711Y-114580574D01*
X150500413Y-114408174D01*
X150482755Y-114228880D01*
X150500413Y-114049586D01*
X150552711Y-113877186D01*
X150577398Y-113831000D01*
X150637639Y-113718297D01*
X150751931Y-113579031D01*
X150891197Y-113464739D01*
X151050084Y-113379812D01*
X151050086Y-113379811D01*
X151222486Y-113327513D01*
X151356849Y-113314280D01*
X151446711Y-113314280D01*
X151581074Y-113327513D01*
X151581074Y-113327513D01*
G37*
G36*
X146662800Y-115083200D02*
X144810800Y-115083200D01*
X144810800Y-114431200D01*
X146662800Y-114431200D01*
X146662800Y-115083200D01*
X146662800Y-115083200D01*
G37*
G36*
X139262800Y-115083200D02*
X137410800Y-115083200D01*
X137410800Y-114431200D01*
X139262800Y-114431200D01*
X139262800Y-115083200D01*
X139262800Y-115083200D01*
G37*
G36*
X180226800Y-115028000D02*
X179024800Y-115028000D01*
X179024800Y-113826000D01*
X180226800Y-113826000D01*
X180226800Y-115028000D01*
X180226800Y-115028000D01*
G37*
G36*
X183026800Y-115028000D02*
X181824800Y-115028000D01*
X181824800Y-113826000D01*
X183026800Y-113826000D01*
X183026800Y-115028000D01*
X183026800Y-115028000D01*
G37*
G36*
X102991000Y-114931000D02*
X101489000Y-114931000D01*
X101489000Y-114129000D01*
X102991000Y-114129000D01*
X102991000Y-114931000D01*
X102991000Y-114931000D01*
G37*
G36*
X167704600Y-114913700D02*
X166502600Y-114913700D01*
X166502600Y-113711700D01*
X167704600Y-113711700D01*
X167704600Y-114913700D01*
X167704600Y-114913700D01*
G37*
G36*
X170504600Y-114913700D02*
X169302600Y-114913700D01*
X169302600Y-113711700D01*
X170504600Y-113711700D01*
X170504600Y-114913700D01*
X170504600Y-114913700D01*
G37*
G36*
X115471300Y-114870300D02*
X114069300Y-114870300D01*
X114069300Y-113968300D01*
X115471300Y-113968300D01*
X115471300Y-114870300D01*
X115471300Y-114870300D01*
G37*
G36*
X109171300Y-114870300D02*
X107769300Y-114870300D01*
X107769300Y-113968300D01*
X109171300Y-113968300D01*
X109171300Y-114870300D01*
X109171300Y-114870300D01*
G37*
G36*
X102991000Y-113831000D02*
X101489000Y-113831000D01*
X101489000Y-113029000D01*
X102991000Y-113029000D01*
X102991000Y-113831000D01*
X102991000Y-113831000D01*
G37*
G36*
X115471300Y-113590300D02*
X114069300Y-113590300D01*
X114069300Y-112688300D01*
X115471300Y-112688300D01*
X115471300Y-113590300D01*
X115471300Y-113590300D01*
G37*
G36*
X109171300Y-113590300D02*
X107769300Y-113590300D01*
X107769300Y-112688300D01*
X109171300Y-112688300D01*
X109171300Y-113590300D01*
X109171300Y-113590300D01*
G37*
G36*
X151581074Y-110787513D02*
X151753474Y-110839811D01*
X151753476Y-110839812D01*
X151912363Y-110924739D01*
X152051629Y-111039031D01*
X152165920Y-111178296D01*
X152250849Y-111337186D01*
X152303147Y-111509586D01*
X152320805Y-111688880D01*
X152303147Y-111868174D01*
X152250849Y-112040574D01*
X152250848Y-112040576D01*
X152165921Y-112199463D01*
X152051629Y-112338729D01*
X151912363Y-112453021D01*
X151753476Y-112537948D01*
X151753474Y-112537949D01*
X151581074Y-112590247D01*
X151446711Y-112603480D01*
X151356849Y-112603480D01*
X151222486Y-112590247D01*
X151050086Y-112537949D01*
X151050084Y-112537948D01*
X150891197Y-112453021D01*
X150751931Y-112338729D01*
X150637639Y-112199463D01*
X150552712Y-112040576D01*
X150552711Y-112040574D01*
X150500413Y-111868174D01*
X150482755Y-111688880D01*
X150500413Y-111509586D01*
X150552711Y-111337186D01*
X150637640Y-111178296D01*
X150751931Y-111039031D01*
X150891197Y-110924739D01*
X151050084Y-110839812D01*
X151050086Y-110839811D01*
X151222486Y-110787513D01*
X151356849Y-110774280D01*
X151446711Y-110774280D01*
X151581074Y-110787513D01*
X151581074Y-110787513D01*
G37*
G36*
X149041074Y-110787513D02*
X149213474Y-110839811D01*
X149213476Y-110839812D01*
X149372363Y-110924739D01*
X149511629Y-111039031D01*
X149625920Y-111178296D01*
X149710849Y-111337186D01*
X149763147Y-111509586D01*
X149780805Y-111688880D01*
X149763147Y-111868174D01*
X149710849Y-112040574D01*
X149710848Y-112040576D01*
X149625921Y-112199463D01*
X149511629Y-112338729D01*
X149372363Y-112453021D01*
X149213476Y-112537948D01*
X149213474Y-112537949D01*
X149041074Y-112590247D01*
X148906711Y-112603480D01*
X148816849Y-112603480D01*
X148682486Y-112590247D01*
X148510086Y-112537949D01*
X148510084Y-112537948D01*
X148351197Y-112453021D01*
X148211931Y-112338729D01*
X148097639Y-112199463D01*
X148012712Y-112040576D01*
X148012711Y-112040574D01*
X147960413Y-111868174D01*
X147942755Y-111688880D01*
X147960413Y-111509586D01*
X148012711Y-111337186D01*
X148097640Y-111178296D01*
X148211931Y-111039031D01*
X148351197Y-110924739D01*
X148510084Y-110839812D01*
X148510086Y-110839811D01*
X148682486Y-110787513D01*
X148816849Y-110774280D01*
X148906711Y-110774280D01*
X149041074Y-110787513D01*
X149041074Y-110787513D01*
G37*
G36*
X161883400Y-112105100D02*
X159781400Y-112105100D01*
X159781400Y-110503100D01*
X161883400Y-110503100D01*
X161883400Y-112105100D01*
X161883400Y-112105100D01*
G37*
G36*
X177212300Y-112105100D02*
X175110300Y-112105100D01*
X175110300Y-110503100D01*
X177212300Y-110503100D01*
X177212300Y-112105100D01*
X177212300Y-112105100D01*
G37*
G36*
X102991000Y-112081000D02*
X101489000Y-112081000D01*
X101489000Y-110979000D01*
X102991000Y-110979000D01*
X102991000Y-112081000D01*
X102991000Y-112081000D01*
G37*
G36*
X190585984Y-108896759D02*
X190714910Y-108922404D01*
X190997174Y-109039321D01*
X191251205Y-109209059D01*
X191467241Y-109425095D01*
X191636979Y-109679126D01*
X191753896Y-109961390D01*
X191753896Y-109961391D01*
X191813500Y-110261038D01*
X191813500Y-110566562D01*
X191807978Y-110594323D01*
X191753896Y-110866210D01*
X191636979Y-111148474D01*
X191467241Y-111402505D01*
X191251205Y-111618541D01*
X190997174Y-111788279D01*
X190714910Y-111905196D01*
X190615027Y-111925064D01*
X190415262Y-111964800D01*
X190109738Y-111964800D01*
X189909973Y-111925064D01*
X189810090Y-111905196D01*
X189527826Y-111788279D01*
X189273795Y-111618541D01*
X189057759Y-111402505D01*
X188888021Y-111148474D01*
X188771104Y-110866210D01*
X188717022Y-110594323D01*
X188711500Y-110566562D01*
X188711500Y-110261038D01*
X188771104Y-109961391D01*
X188771104Y-109961390D01*
X188888021Y-109679126D01*
X189057759Y-109425095D01*
X189273795Y-109209059D01*
X189527826Y-109039321D01*
X189810090Y-108922404D01*
X189939016Y-108896759D01*
X190109738Y-108862800D01*
X190415262Y-108862800D01*
X190585984Y-108896759D01*
X190585984Y-108896759D01*
G37*
G36*
X206135984Y-108896759D02*
X206264910Y-108922404D01*
X206547174Y-109039321D01*
X206801205Y-109209059D01*
X207017241Y-109425095D01*
X207186979Y-109679126D01*
X207303896Y-109961390D01*
X207303896Y-109961391D01*
X207363500Y-110261038D01*
X207363500Y-110566562D01*
X207357978Y-110594323D01*
X207303896Y-110866210D01*
X207186979Y-111148474D01*
X207017241Y-111402505D01*
X206801205Y-111618541D01*
X206547174Y-111788279D01*
X206264910Y-111905196D01*
X206165027Y-111925064D01*
X205965262Y-111964800D01*
X205659738Y-111964800D01*
X205459973Y-111925064D01*
X205360090Y-111905196D01*
X205077826Y-111788279D01*
X204823795Y-111618541D01*
X204607759Y-111402505D01*
X204438021Y-111148474D01*
X204321104Y-110866210D01*
X204267022Y-110594323D01*
X204261500Y-110566562D01*
X204261500Y-110261038D01*
X204321104Y-109961391D01*
X204321104Y-109961390D01*
X204438021Y-109679126D01*
X204607759Y-109425095D01*
X204823795Y-109209059D01*
X205077826Y-109039321D01*
X205360090Y-108922404D01*
X205489016Y-108896759D01*
X205659738Y-108862800D01*
X205965262Y-108862800D01*
X206135984Y-108896759D01*
X206135984Y-108896759D01*
G37*
G36*
X183512300Y-110955100D02*
X181410300Y-110955100D01*
X181410300Y-107053100D01*
X183512300Y-107053100D01*
X183512300Y-110955100D01*
X183512300Y-110955100D01*
G37*
G36*
X168183400Y-110955100D02*
X166081400Y-110955100D01*
X166081400Y-107053100D01*
X168183400Y-107053100D01*
X168183400Y-110955100D01*
X168183400Y-110955100D01*
G37*
G36*
X88241000Y-110431000D02*
X87004323Y-110431000D01*
X86979937Y-110433402D01*
X86956488Y-110440515D01*
X86934877Y-110452066D01*
X86915935Y-110467612D01*
X86877612Y-110505935D01*
X86862066Y-110524877D01*
X86850515Y-110546488D01*
X86843402Y-110569937D01*
X86841000Y-110594323D01*
X86841000Y-110931000D01*
X86239000Y-110931000D01*
X86239000Y-108829000D01*
X88241000Y-108829000D01*
X88241000Y-110431000D01*
X88241000Y-110431000D01*
G37*
G36*
X157702504Y-108843447D02*
X157739045Y-108854532D01*
X157772720Y-108872531D01*
X157802241Y-108896759D01*
X157826469Y-108926280D01*
X157844468Y-108959955D01*
X157855553Y-108996496D01*
X157859900Y-109040638D01*
X157859900Y-109989562D01*
X157855553Y-110033704D01*
X157844468Y-110070245D01*
X157826469Y-110103920D01*
X157802241Y-110133441D01*
X157772720Y-110157669D01*
X157739045Y-110175668D01*
X157702504Y-110186753D01*
X157658362Y-110191100D01*
X156209438Y-110191100D01*
X156165296Y-110186753D01*
X156128755Y-110175668D01*
X156095080Y-110157669D01*
X156065559Y-110133441D01*
X156041331Y-110103920D01*
X156023332Y-110070245D01*
X156012247Y-110033704D01*
X156007900Y-109989562D01*
X156007900Y-109040638D01*
X156012247Y-108996496D01*
X156023332Y-108959955D01*
X156041331Y-108926280D01*
X156065559Y-108896759D01*
X156095080Y-108872531D01*
X156128755Y-108854532D01*
X156165296Y-108843447D01*
X156209438Y-108839100D01*
X157658362Y-108839100D01*
X157702504Y-108843447D01*
X157702504Y-108843447D01*
G37*
G36*
X174174404Y-108843447D02*
X174210945Y-108854532D01*
X174244620Y-108872531D01*
X174274141Y-108896759D01*
X174298369Y-108926280D01*
X174316368Y-108959955D01*
X174327453Y-108996496D01*
X174331800Y-109040638D01*
X174331800Y-109989562D01*
X174327453Y-110033704D01*
X174316368Y-110070245D01*
X174298369Y-110103920D01*
X174274141Y-110133441D01*
X174244620Y-110157669D01*
X174210945Y-110175668D01*
X174174404Y-110186753D01*
X174130262Y-110191100D01*
X172681338Y-110191100D01*
X172637196Y-110186753D01*
X172600655Y-110175668D01*
X172566980Y-110157669D01*
X172537459Y-110133441D01*
X172513231Y-110103920D01*
X172495232Y-110070245D01*
X172484147Y-110033704D01*
X172479800Y-109989562D01*
X172479800Y-109040638D01*
X172484147Y-108996496D01*
X172495232Y-108959955D01*
X172513231Y-108926280D01*
X172537459Y-108896759D01*
X172566980Y-108872531D01*
X172600655Y-108854532D01*
X172637196Y-108843447D01*
X172681338Y-108839100D01*
X174130262Y-108839100D01*
X174174404Y-108843447D01*
X174174404Y-108843447D01*
G37*
G36*
X151581074Y-108247513D02*
X151753474Y-108299811D01*
X151753476Y-108299812D01*
X151912363Y-108384739D01*
X151912365Y-108384740D01*
X151912364Y-108384740D01*
X152051629Y-108499031D01*
X152165920Y-108638296D01*
X152250849Y-108797186D01*
X152303147Y-108969586D01*
X152320805Y-109148880D01*
X152303147Y-109328174D01*
X152250849Y-109500574D01*
X152250848Y-109500576D01*
X152165921Y-109659463D01*
X152051629Y-109798729D01*
X151912363Y-109913021D01*
X151769165Y-109989562D01*
X151753474Y-109997949D01*
X151581074Y-110050247D01*
X151446711Y-110063480D01*
X151356849Y-110063480D01*
X151222486Y-110050247D01*
X151050086Y-109997949D01*
X151034395Y-109989562D01*
X150891197Y-109913021D01*
X150751931Y-109798729D01*
X150637639Y-109659463D01*
X150552712Y-109500576D01*
X150552711Y-109500574D01*
X150500413Y-109328174D01*
X150482755Y-109148880D01*
X150500413Y-108969586D01*
X150552711Y-108797186D01*
X150637640Y-108638296D01*
X150751931Y-108499031D01*
X150891196Y-108384740D01*
X150891195Y-108384740D01*
X150891197Y-108384739D01*
X151050084Y-108299812D01*
X151050086Y-108299811D01*
X151222486Y-108247513D01*
X151356849Y-108234280D01*
X151446711Y-108234280D01*
X151581074Y-108247513D01*
X151581074Y-108247513D01*
G37*
G36*
X149041074Y-108247513D02*
X149213474Y-108299811D01*
X149213476Y-108299812D01*
X149372363Y-108384739D01*
X149372365Y-108384740D01*
X149372364Y-108384740D01*
X149511629Y-108499031D01*
X149625920Y-108638296D01*
X149710849Y-108797186D01*
X149763147Y-108969586D01*
X149780805Y-109148880D01*
X149763147Y-109328174D01*
X149710849Y-109500574D01*
X149710848Y-109500576D01*
X149625921Y-109659463D01*
X149511629Y-109798729D01*
X149372363Y-109913021D01*
X149229165Y-109989562D01*
X149213474Y-109997949D01*
X149041074Y-110050247D01*
X148906711Y-110063480D01*
X148816849Y-110063480D01*
X148682486Y-110050247D01*
X148510086Y-109997949D01*
X148494395Y-109989562D01*
X148351197Y-109913021D01*
X148211931Y-109798729D01*
X148097639Y-109659463D01*
X148012712Y-109500576D01*
X148012711Y-109500574D01*
X147960413Y-109328174D01*
X147942755Y-109148880D01*
X147960413Y-108969586D01*
X148012711Y-108797186D01*
X148097640Y-108638296D01*
X148211931Y-108499031D01*
X148351196Y-108384740D01*
X148351195Y-108384740D01*
X148351197Y-108384739D01*
X148510084Y-108299812D01*
X148510086Y-108299811D01*
X148682486Y-108247513D01*
X148816849Y-108234280D01*
X148906711Y-108234280D01*
X149041074Y-108247513D01*
X149041074Y-108247513D01*
G37*
G36*
X161883400Y-109805100D02*
X159781400Y-109805100D01*
X159781400Y-108203100D01*
X161883400Y-108203100D01*
X161883400Y-109805100D01*
X161883400Y-109805100D01*
G37*
G36*
X177212300Y-109805100D02*
X175110300Y-109805100D01*
X175110300Y-108203100D01*
X177212300Y-108203100D01*
X177212300Y-109805100D01*
X177212300Y-109805100D01*
G37*
G36*
X177212300Y-107505100D02*
X175110300Y-107505100D01*
X175110300Y-105903100D01*
X177212300Y-105903100D01*
X177212300Y-107505100D01*
X177212300Y-107505100D01*
G37*
G36*
X161883400Y-107505100D02*
X159781400Y-107505100D01*
X159781400Y-105903100D01*
X161883400Y-105903100D01*
X161883400Y-107505100D01*
X161883400Y-107505100D01*
G37*
G36*
X174174404Y-106043447D02*
X174210945Y-106054532D01*
X174244620Y-106072531D01*
X174274141Y-106096759D01*
X174298369Y-106126280D01*
X174316368Y-106159955D01*
X174327453Y-106196496D01*
X174331800Y-106240638D01*
X174331800Y-107189562D01*
X174327453Y-107233704D01*
X174316368Y-107270245D01*
X174298369Y-107303920D01*
X174274141Y-107333441D01*
X174244620Y-107357669D01*
X174210945Y-107375668D01*
X174174404Y-107386753D01*
X174130262Y-107391100D01*
X172681338Y-107391100D01*
X172637196Y-107386753D01*
X172600655Y-107375668D01*
X172566980Y-107357669D01*
X172537459Y-107333441D01*
X172513231Y-107303920D01*
X172495232Y-107270245D01*
X172484147Y-107233704D01*
X172479800Y-107189562D01*
X172479800Y-106240638D01*
X172484147Y-106196496D01*
X172495232Y-106159955D01*
X172513231Y-106126280D01*
X172537459Y-106096759D01*
X172566980Y-106072531D01*
X172600655Y-106054532D01*
X172637196Y-106043447D01*
X172681338Y-106039100D01*
X174130262Y-106039100D01*
X174174404Y-106043447D01*
X174174404Y-106043447D01*
G37*
G36*
X157702504Y-106043447D02*
X157739045Y-106054532D01*
X157772720Y-106072531D01*
X157802241Y-106096759D01*
X157826469Y-106126280D01*
X157844468Y-106159955D01*
X157855553Y-106196496D01*
X157859900Y-106240638D01*
X157859900Y-107189562D01*
X157855553Y-107233704D01*
X157844468Y-107270245D01*
X157826469Y-107303920D01*
X157802241Y-107333441D01*
X157772720Y-107357669D01*
X157739045Y-107375668D01*
X157702504Y-107386753D01*
X157658362Y-107391100D01*
X156209438Y-107391100D01*
X156165296Y-107386753D01*
X156128755Y-107375668D01*
X156095080Y-107357669D01*
X156065559Y-107333441D01*
X156041331Y-107303920D01*
X156023332Y-107270245D01*
X156012247Y-107233704D01*
X156007900Y-107189562D01*
X156007900Y-106240638D01*
X156012247Y-106196496D01*
X156023332Y-106159955D01*
X156041331Y-106126280D01*
X156065559Y-106096759D01*
X156095080Y-106072531D01*
X156128755Y-106054532D01*
X156165296Y-106043447D01*
X156209438Y-106039100D01*
X157658362Y-106039100D01*
X157702504Y-106043447D01*
X157702504Y-106043447D01*
G37*
G36*
X151617866Y-102453779D02*
X151756359Y-102481327D01*
X152056822Y-102605783D01*
X152218034Y-102713502D01*
X152327234Y-102786467D01*
X152557193Y-103016426D01*
X152737878Y-103286840D01*
X152862333Y-103587302D01*
X152925780Y-103906269D01*
X152925780Y-104231491D01*
X152862333Y-104550458D01*
X152737878Y-104850920D01*
X152557193Y-105121334D01*
X152327234Y-105351293D01*
X152327231Y-105351295D01*
X152056822Y-105531977D01*
X151756359Y-105656433D01*
X151650036Y-105677582D01*
X151437391Y-105719880D01*
X151112169Y-105719880D01*
X150899524Y-105677582D01*
X150793201Y-105656433D01*
X150492738Y-105531977D01*
X150222329Y-105351295D01*
X150222326Y-105351293D01*
X149992367Y-105121334D01*
X149811682Y-104850920D01*
X149687227Y-104550458D01*
X149623780Y-104231491D01*
X149623780Y-103906269D01*
X149687227Y-103587302D01*
X149811682Y-103286840D01*
X149992367Y-103016426D01*
X150222326Y-102786467D01*
X150331526Y-102713502D01*
X150492738Y-102605783D01*
X150793201Y-102481327D01*
X150931694Y-102453779D01*
X151112169Y-102417880D01*
X151437391Y-102417880D01*
X151617866Y-102453779D01*
X151617866Y-102453779D01*
G37*
G36*
X125966204Y-100945047D02*
X126002745Y-100956132D01*
X126036420Y-100974131D01*
X126065941Y-100998359D01*
X126090169Y-101027880D01*
X126108168Y-101061555D01*
X126119253Y-101098096D01*
X126123600Y-101142238D01*
X126123600Y-102591162D01*
X126119253Y-102635304D01*
X126108168Y-102671845D01*
X126090169Y-102705520D01*
X126065941Y-102735041D01*
X126036420Y-102759269D01*
X126002745Y-102777268D01*
X125966204Y-102788353D01*
X125922062Y-102792700D01*
X124973138Y-102792700D01*
X124928996Y-102788353D01*
X124892455Y-102777268D01*
X124858780Y-102759269D01*
X124829259Y-102735041D01*
X124805031Y-102705520D01*
X124787032Y-102671845D01*
X124775947Y-102635304D01*
X124771600Y-102591162D01*
X124771600Y-101142238D01*
X124775947Y-101098096D01*
X124787032Y-101061555D01*
X124805031Y-101027880D01*
X124829259Y-100998359D01*
X124858780Y-100974131D01*
X124892455Y-100956132D01*
X124928996Y-100945047D01*
X124973138Y-100940700D01*
X125922062Y-100940700D01*
X125966204Y-100945047D01*
X125966204Y-100945047D01*
G37*
G36*
X134821104Y-100945047D02*
X134857645Y-100956132D01*
X134891320Y-100974131D01*
X134920841Y-100998359D01*
X134945069Y-101027880D01*
X134963068Y-101061555D01*
X134974153Y-101098096D01*
X134978500Y-101142238D01*
X134978500Y-102591162D01*
X134974153Y-102635304D01*
X134963068Y-102671845D01*
X134945069Y-102705520D01*
X134920841Y-102735041D01*
X134891320Y-102759269D01*
X134857645Y-102777268D01*
X134821104Y-102788353D01*
X134776962Y-102792700D01*
X133828038Y-102792700D01*
X133783896Y-102788353D01*
X133747355Y-102777268D01*
X133713680Y-102759269D01*
X133684159Y-102735041D01*
X133659931Y-102705520D01*
X133641932Y-102671845D01*
X133630847Y-102635304D01*
X133626500Y-102591162D01*
X133626500Y-101142238D01*
X133630847Y-101098096D01*
X133641932Y-101061555D01*
X133659931Y-101027880D01*
X133684159Y-100998359D01*
X133713680Y-100974131D01*
X133747355Y-100956132D01*
X133783896Y-100945047D01*
X133828038Y-100940700D01*
X134776962Y-100940700D01*
X134821104Y-100945047D01*
X134821104Y-100945047D01*
G37*
G36*
X110094204Y-100945047D02*
X110130745Y-100956132D01*
X110164420Y-100974131D01*
X110193941Y-100998359D01*
X110218169Y-101027880D01*
X110236168Y-101061555D01*
X110247253Y-101098096D01*
X110251600Y-101142238D01*
X110251600Y-102591162D01*
X110247253Y-102635304D01*
X110236168Y-102671845D01*
X110218169Y-102705520D01*
X110193941Y-102735041D01*
X110164420Y-102759269D01*
X110130745Y-102777268D01*
X110094204Y-102788353D01*
X110050062Y-102792700D01*
X109101138Y-102792700D01*
X109056996Y-102788353D01*
X109020455Y-102777268D01*
X108986780Y-102759269D01*
X108957259Y-102735041D01*
X108933031Y-102705520D01*
X108915032Y-102671845D01*
X108903947Y-102635304D01*
X108899600Y-102591162D01*
X108899600Y-101142238D01*
X108903947Y-101098096D01*
X108915032Y-101061555D01*
X108933031Y-101027880D01*
X108957259Y-100998359D01*
X108986780Y-100974131D01*
X109020455Y-100956132D01*
X109056996Y-100945047D01*
X109101138Y-100940700D01*
X110050062Y-100940700D01*
X110094204Y-100945047D01*
X110094204Y-100945047D01*
G37*
G36*
X107294204Y-100945047D02*
X107330745Y-100956132D01*
X107364420Y-100974131D01*
X107393941Y-100998359D01*
X107418169Y-101027880D01*
X107436168Y-101061555D01*
X107447253Y-101098096D01*
X107451600Y-101142238D01*
X107451600Y-102591162D01*
X107447253Y-102635304D01*
X107436168Y-102671845D01*
X107418169Y-102705520D01*
X107393941Y-102735041D01*
X107364420Y-102759269D01*
X107330745Y-102777268D01*
X107294204Y-102788353D01*
X107250062Y-102792700D01*
X106301138Y-102792700D01*
X106256996Y-102788353D01*
X106220455Y-102777268D01*
X106186780Y-102759269D01*
X106157259Y-102735041D01*
X106133031Y-102705520D01*
X106115032Y-102671845D01*
X106103947Y-102635304D01*
X106099600Y-102591162D01*
X106099600Y-101142238D01*
X106103947Y-101098096D01*
X106115032Y-101061555D01*
X106133031Y-101027880D01*
X106157259Y-100998359D01*
X106186780Y-100974131D01*
X106220455Y-100956132D01*
X106256996Y-100945047D01*
X106301138Y-100940700D01*
X107250062Y-100940700D01*
X107294204Y-100945047D01*
X107294204Y-100945047D01*
G37*
G36*
X128766204Y-100945047D02*
X128802745Y-100956132D01*
X128836420Y-100974131D01*
X128865941Y-100998359D01*
X128890169Y-101027880D01*
X128908168Y-101061555D01*
X128919253Y-101098096D01*
X128923600Y-101142238D01*
X128923600Y-102591162D01*
X128919253Y-102635304D01*
X128908168Y-102671845D01*
X128890169Y-102705520D01*
X128865941Y-102735041D01*
X128836420Y-102759269D01*
X128802745Y-102777268D01*
X128766204Y-102788353D01*
X128722062Y-102792700D01*
X127773138Y-102792700D01*
X127728996Y-102788353D01*
X127692455Y-102777268D01*
X127658780Y-102759269D01*
X127629259Y-102735041D01*
X127605031Y-102705520D01*
X127587032Y-102671845D01*
X127575947Y-102635304D01*
X127571600Y-102591162D01*
X127571600Y-101142238D01*
X127575947Y-101098096D01*
X127587032Y-101061555D01*
X127605031Y-101027880D01*
X127629259Y-100998359D01*
X127658780Y-100974131D01*
X127692455Y-100956132D01*
X127728996Y-100945047D01*
X127773138Y-100940700D01*
X128722062Y-100940700D01*
X128766204Y-100945047D01*
X128766204Y-100945047D01*
G37*
G36*
X101493304Y-100945047D02*
X101529845Y-100956132D01*
X101563520Y-100974131D01*
X101593041Y-100998359D01*
X101617269Y-101027880D01*
X101635268Y-101061555D01*
X101646353Y-101098096D01*
X101650700Y-101142238D01*
X101650700Y-102591162D01*
X101646353Y-102635304D01*
X101635268Y-102671845D01*
X101617269Y-102705520D01*
X101593041Y-102735041D01*
X101563520Y-102759269D01*
X101529845Y-102777268D01*
X101493304Y-102788353D01*
X101449162Y-102792700D01*
X100500238Y-102792700D01*
X100456096Y-102788353D01*
X100419555Y-102777268D01*
X100385880Y-102759269D01*
X100356359Y-102735041D01*
X100332131Y-102705520D01*
X100314132Y-102671845D01*
X100303047Y-102635304D01*
X100298700Y-102591162D01*
X100298700Y-101142238D01*
X100303047Y-101098096D01*
X100314132Y-101061555D01*
X100332131Y-101027880D01*
X100356359Y-100998359D01*
X100385880Y-100974131D01*
X100419555Y-100956132D01*
X100456096Y-100945047D01*
X100500238Y-100940700D01*
X101449162Y-100940700D01*
X101493304Y-100945047D01*
X101493304Y-100945047D01*
G37*
G36*
X104293304Y-100945047D02*
X104329845Y-100956132D01*
X104363520Y-100974131D01*
X104393041Y-100998359D01*
X104417269Y-101027880D01*
X104435268Y-101061555D01*
X104446353Y-101098096D01*
X104450700Y-101142238D01*
X104450700Y-102591162D01*
X104446353Y-102635304D01*
X104435268Y-102671845D01*
X104417269Y-102705520D01*
X104393041Y-102735041D01*
X104363520Y-102759269D01*
X104329845Y-102777268D01*
X104293304Y-102788353D01*
X104249162Y-102792700D01*
X103300238Y-102792700D01*
X103256096Y-102788353D01*
X103219555Y-102777268D01*
X103185880Y-102759269D01*
X103156359Y-102735041D01*
X103132131Y-102705520D01*
X103114132Y-102671845D01*
X103103047Y-102635304D01*
X103098700Y-102591162D01*
X103098700Y-101142238D01*
X103103047Y-101098096D01*
X103114132Y-101061555D01*
X103132131Y-101027880D01*
X103156359Y-100998359D01*
X103185880Y-100974131D01*
X103219555Y-100956132D01*
X103256096Y-100945047D01*
X103300238Y-100940700D01*
X104249162Y-100940700D01*
X104293304Y-100945047D01*
X104293304Y-100945047D01*
G37*
G36*
X132021104Y-100945047D02*
X132057645Y-100956132D01*
X132091320Y-100974131D01*
X132120841Y-100998359D01*
X132145069Y-101027880D01*
X132163068Y-101061555D01*
X132174153Y-101098096D01*
X132178500Y-101142238D01*
X132178500Y-102591162D01*
X132174153Y-102635304D01*
X132163068Y-102671845D01*
X132145069Y-102705520D01*
X132120841Y-102735041D01*
X132091320Y-102759269D01*
X132057645Y-102777268D01*
X132021104Y-102788353D01*
X131976962Y-102792700D01*
X131028038Y-102792700D01*
X130983896Y-102788353D01*
X130947355Y-102777268D01*
X130913680Y-102759269D01*
X130884159Y-102735041D01*
X130859931Y-102705520D01*
X130841932Y-102671845D01*
X130830847Y-102635304D01*
X130826500Y-102591162D01*
X130826500Y-101142238D01*
X130830847Y-101098096D01*
X130841932Y-101061555D01*
X130859931Y-101027880D01*
X130884159Y-100998359D01*
X130913680Y-100974131D01*
X130947355Y-100956132D01*
X130983896Y-100945047D01*
X131028038Y-100940700D01*
X131976962Y-100940700D01*
X132021104Y-100945047D01*
X132021104Y-100945047D01*
G37*
G36*
X190365027Y-99568036D02*
X190464910Y-99587904D01*
X190747174Y-99704821D01*
X191001205Y-99874559D01*
X191217241Y-100090595D01*
X191386979Y-100344626D01*
X191503896Y-100626890D01*
X191563500Y-100926540D01*
X191563500Y-101232060D01*
X191503896Y-101531710D01*
X191386979Y-101813974D01*
X191217241Y-102068005D01*
X191001205Y-102284041D01*
X190747174Y-102453779D01*
X190464910Y-102570696D01*
X190365027Y-102590564D01*
X190165262Y-102630300D01*
X189859738Y-102630300D01*
X189659973Y-102590564D01*
X189560090Y-102570696D01*
X189277826Y-102453779D01*
X189023795Y-102284041D01*
X188807759Y-102068005D01*
X188638021Y-101813974D01*
X188521104Y-101531710D01*
X188461500Y-101232060D01*
X188461500Y-100926540D01*
X188521104Y-100626890D01*
X188638021Y-100344626D01*
X188807759Y-100090595D01*
X189023795Y-99874559D01*
X189277826Y-99704821D01*
X189560090Y-99587904D01*
X189659973Y-99568036D01*
X189859738Y-99528300D01*
X190165262Y-99528300D01*
X190365027Y-99568036D01*
X190365027Y-99568036D01*
G37*
G36*
X205915027Y-99568036D02*
X206014910Y-99587904D01*
X206297174Y-99704821D01*
X206551205Y-99874559D01*
X206767241Y-100090595D01*
X206936979Y-100344626D01*
X207053896Y-100626890D01*
X207113500Y-100926540D01*
X207113500Y-101232060D01*
X207053896Y-101531710D01*
X206936979Y-101813974D01*
X206767241Y-102068005D01*
X206551205Y-102284041D01*
X206297174Y-102453779D01*
X206014910Y-102570696D01*
X205915027Y-102590564D01*
X205715262Y-102630300D01*
X205409738Y-102630300D01*
X205209973Y-102590564D01*
X205110090Y-102570696D01*
X204827826Y-102453779D01*
X204573795Y-102284041D01*
X204357759Y-102068005D01*
X204188021Y-101813974D01*
X204071104Y-101531710D01*
X204011500Y-101232060D01*
X204011500Y-100926540D01*
X204071104Y-100626890D01*
X204188021Y-100344626D01*
X204357759Y-100090595D01*
X204573795Y-99874559D01*
X204827826Y-99704821D01*
X205110090Y-99587904D01*
X205209973Y-99568036D01*
X205409738Y-99528300D01*
X205715262Y-99528300D01*
X205915027Y-99568036D01*
X205915027Y-99568036D01*
G37*
G36*
X167780800Y-102315300D02*
X166578800Y-102315300D01*
X166578800Y-101113300D01*
X167780800Y-101113300D01*
X167780800Y-102315300D01*
X167780800Y-102315300D01*
G37*
G36*
X170580800Y-102315300D02*
X169378800Y-102315300D01*
X169378800Y-101113300D01*
X170580800Y-101113300D01*
X170580800Y-102315300D01*
X170580800Y-102315300D01*
G37*
G36*
X139262800Y-102002200D02*
X137410800Y-102002200D01*
X137410800Y-101350200D01*
X139262800Y-101350200D01*
X139262800Y-102002200D01*
X139262800Y-102002200D01*
G37*
G36*
X121935900Y-102002200D02*
X120083900Y-102002200D01*
X120083900Y-101350200D01*
X121935900Y-101350200D01*
X121935900Y-102002200D01*
X121935900Y-102002200D01*
G37*
G36*
X146662800Y-102002200D02*
X144810800Y-102002200D01*
X144810800Y-101350200D01*
X146662800Y-101350200D01*
X146662800Y-102002200D01*
X146662800Y-102002200D01*
G37*
G36*
X114535900Y-102002200D02*
X112683900Y-102002200D01*
X112683900Y-101350200D01*
X114535900Y-101350200D01*
X114535900Y-102002200D01*
X114535900Y-102002200D01*
G37*
G36*
X139262800Y-100732200D02*
X137410800Y-100732200D01*
X137410800Y-100080200D01*
X139262800Y-100080200D01*
X139262800Y-100732200D01*
X139262800Y-100732200D01*
G37*
G36*
X146662800Y-100732200D02*
X144810800Y-100732200D01*
X144810800Y-100080200D01*
X146662800Y-100080200D01*
X146662800Y-100732200D01*
X146662800Y-100732200D01*
G37*
G36*
X121935900Y-100732200D02*
X120083900Y-100732200D01*
X120083900Y-100080200D01*
X121935900Y-100080200D01*
X121935900Y-100732200D01*
X121935900Y-100732200D01*
G37*
G36*
X114535900Y-100732200D02*
X112683900Y-100732200D01*
X112683900Y-100080200D01*
X114535900Y-100080200D01*
X114535900Y-100732200D01*
X114535900Y-100732200D01*
G37*
G36*
X161883400Y-99811500D02*
X159781400Y-99811500D01*
X159781400Y-98209500D01*
X161883400Y-98209500D01*
X161883400Y-99811500D01*
X161883400Y-99811500D01*
G37*
G36*
X177212300Y-99633700D02*
X175110300Y-99633700D01*
X175110300Y-98031700D01*
X177212300Y-98031700D01*
X177212300Y-99633700D01*
X177212300Y-99633700D01*
G37*
G36*
X146662800Y-99462200D02*
X144810800Y-99462200D01*
X144810800Y-98810200D01*
X146662800Y-98810200D01*
X146662800Y-99462200D01*
X146662800Y-99462200D01*
G37*
G36*
X114535900Y-99462200D02*
X112683900Y-99462200D01*
X112683900Y-98810200D01*
X114535900Y-98810200D01*
X114535900Y-99462200D01*
X114535900Y-99462200D01*
G37*
G36*
X139262800Y-99462200D02*
X137410800Y-99462200D01*
X137410800Y-98810200D01*
X139262800Y-98810200D01*
X139262800Y-99462200D01*
X139262800Y-99462200D01*
G37*
G36*
X121935900Y-99462200D02*
X120083900Y-99462200D01*
X120083900Y-98810200D01*
X121935900Y-98810200D01*
X121935900Y-99462200D01*
X121935900Y-99462200D01*
G37*
G36*
X168183400Y-98661500D02*
X166081400Y-98661500D01*
X166081400Y-94759500D01*
X168183400Y-94759500D01*
X168183400Y-98661500D01*
X168183400Y-98661500D01*
G37*
G36*
X183512300Y-98483700D02*
X181410300Y-98483700D01*
X181410300Y-94581700D01*
X183512300Y-94581700D01*
X183512300Y-98483700D01*
X183512300Y-98483700D01*
G37*
G36*
X114535900Y-98192200D02*
X112683900Y-98192200D01*
X112683900Y-97540200D01*
X114535900Y-97540200D01*
X114535900Y-98192200D01*
X114535900Y-98192200D01*
G37*
G36*
X146662800Y-98192200D02*
X144810800Y-98192200D01*
X144810800Y-97540200D01*
X146662800Y-97540200D01*
X146662800Y-98192200D01*
X146662800Y-98192200D01*
G37*
G36*
X139262800Y-98192200D02*
X137410800Y-98192200D01*
X137410800Y-97540200D01*
X139262800Y-97540200D01*
X139262800Y-98192200D01*
X139262800Y-98192200D01*
G37*
G36*
X121935900Y-98192200D02*
X120083900Y-98192200D01*
X120083900Y-97540200D01*
X121935900Y-97540200D01*
X121935900Y-98192200D01*
X121935900Y-98192200D01*
G37*
G36*
X132021104Y-96093647D02*
X132057645Y-96104732D01*
X132091320Y-96122731D01*
X132120841Y-96146959D01*
X132145069Y-96176480D01*
X132163068Y-96210155D01*
X132174153Y-96246696D01*
X132178500Y-96290838D01*
X132178500Y-97739762D01*
X132174153Y-97783904D01*
X132163068Y-97820445D01*
X132145069Y-97854120D01*
X132120841Y-97883641D01*
X132091320Y-97907869D01*
X132057645Y-97925868D01*
X132021104Y-97936953D01*
X131976962Y-97941300D01*
X131028038Y-97941300D01*
X130983896Y-97936953D01*
X130947355Y-97925868D01*
X130913680Y-97907869D01*
X130884159Y-97883641D01*
X130859931Y-97854120D01*
X130841932Y-97820445D01*
X130830847Y-97783904D01*
X130826500Y-97739762D01*
X130826500Y-96290838D01*
X130830847Y-96246696D01*
X130841932Y-96210155D01*
X130859931Y-96176480D01*
X130884159Y-96146959D01*
X130913680Y-96122731D01*
X130947355Y-96104732D01*
X130983896Y-96093647D01*
X131028038Y-96089300D01*
X131976962Y-96089300D01*
X132021104Y-96093647D01*
X132021104Y-96093647D01*
G37*
G36*
X101493304Y-96093647D02*
X101529845Y-96104732D01*
X101563520Y-96122731D01*
X101593041Y-96146959D01*
X101617269Y-96176480D01*
X101635268Y-96210155D01*
X101646353Y-96246696D01*
X101650700Y-96290838D01*
X101650700Y-97739762D01*
X101646353Y-97783904D01*
X101635268Y-97820445D01*
X101617269Y-97854120D01*
X101593041Y-97883641D01*
X101563520Y-97907869D01*
X101529845Y-97925868D01*
X101493304Y-97936953D01*
X101449162Y-97941300D01*
X100500238Y-97941300D01*
X100456096Y-97936953D01*
X100419555Y-97925868D01*
X100385880Y-97907869D01*
X100356359Y-97883641D01*
X100332131Y-97854120D01*
X100314132Y-97820445D01*
X100303047Y-97783904D01*
X100298700Y-97739762D01*
X100298700Y-96290838D01*
X100303047Y-96246696D01*
X100314132Y-96210155D01*
X100332131Y-96176480D01*
X100356359Y-96146959D01*
X100385880Y-96122731D01*
X100419555Y-96104732D01*
X100456096Y-96093647D01*
X100500238Y-96089300D01*
X101449162Y-96089300D01*
X101493304Y-96093647D01*
X101493304Y-96093647D01*
G37*
G36*
X104293304Y-96093647D02*
X104329845Y-96104732D01*
X104363520Y-96122731D01*
X104393041Y-96146959D01*
X104417269Y-96176480D01*
X104435268Y-96210155D01*
X104446353Y-96246696D01*
X104450700Y-96290838D01*
X104450700Y-97739762D01*
X104446353Y-97783904D01*
X104435268Y-97820445D01*
X104417269Y-97854120D01*
X104393041Y-97883641D01*
X104363520Y-97907869D01*
X104329845Y-97925868D01*
X104293304Y-97936953D01*
X104249162Y-97941300D01*
X103300238Y-97941300D01*
X103256096Y-97936953D01*
X103219555Y-97925868D01*
X103185880Y-97907869D01*
X103156359Y-97883641D01*
X103132131Y-97854120D01*
X103114132Y-97820445D01*
X103103047Y-97783904D01*
X103098700Y-97739762D01*
X103098700Y-96290838D01*
X103103047Y-96246696D01*
X103114132Y-96210155D01*
X103132131Y-96176480D01*
X103156359Y-96146959D01*
X103185880Y-96122731D01*
X103219555Y-96104732D01*
X103256096Y-96093647D01*
X103300238Y-96089300D01*
X104249162Y-96089300D01*
X104293304Y-96093647D01*
X104293304Y-96093647D01*
G37*
G36*
X128766204Y-96093647D02*
X128802745Y-96104732D01*
X128836420Y-96122731D01*
X128865941Y-96146959D01*
X128890169Y-96176480D01*
X128908168Y-96210155D01*
X128919253Y-96246696D01*
X128923600Y-96290838D01*
X128923600Y-97739762D01*
X128919253Y-97783904D01*
X128908168Y-97820445D01*
X128890169Y-97854120D01*
X128865941Y-97883641D01*
X128836420Y-97907869D01*
X128802745Y-97925868D01*
X128766204Y-97936953D01*
X128722062Y-97941300D01*
X127773138Y-97941300D01*
X127728996Y-97936953D01*
X127692455Y-97925868D01*
X127658780Y-97907869D01*
X127629259Y-97883641D01*
X127605031Y-97854120D01*
X127587032Y-97820445D01*
X127575947Y-97783904D01*
X127571600Y-97739762D01*
X127571600Y-96290838D01*
X127575947Y-96246696D01*
X127587032Y-96210155D01*
X127605031Y-96176480D01*
X127629259Y-96146959D01*
X127658780Y-96122731D01*
X127692455Y-96104732D01*
X127728996Y-96093647D01*
X127773138Y-96089300D01*
X128722062Y-96089300D01*
X128766204Y-96093647D01*
X128766204Y-96093647D01*
G37*
G36*
X107294204Y-96093647D02*
X107330745Y-96104732D01*
X107364420Y-96122731D01*
X107393941Y-96146959D01*
X107418169Y-96176480D01*
X107436168Y-96210155D01*
X107447253Y-96246696D01*
X107451600Y-96290838D01*
X107451600Y-97739762D01*
X107447253Y-97783904D01*
X107436168Y-97820445D01*
X107418169Y-97854120D01*
X107393941Y-97883641D01*
X107364420Y-97907869D01*
X107330745Y-97925868D01*
X107294204Y-97936953D01*
X107250062Y-97941300D01*
X106301138Y-97941300D01*
X106256996Y-97936953D01*
X106220455Y-97925868D01*
X106186780Y-97907869D01*
X106157259Y-97883641D01*
X106133031Y-97854120D01*
X106115032Y-97820445D01*
X106103947Y-97783904D01*
X106099600Y-97739762D01*
X106099600Y-96290838D01*
X106103947Y-96246696D01*
X106115032Y-96210155D01*
X106133031Y-96176480D01*
X106157259Y-96146959D01*
X106186780Y-96122731D01*
X106220455Y-96104732D01*
X106256996Y-96093647D01*
X106301138Y-96089300D01*
X107250062Y-96089300D01*
X107294204Y-96093647D01*
X107294204Y-96093647D01*
G37*
G36*
X110094204Y-96093647D02*
X110130745Y-96104732D01*
X110164420Y-96122731D01*
X110193941Y-96146959D01*
X110218169Y-96176480D01*
X110236168Y-96210155D01*
X110247253Y-96246696D01*
X110251600Y-96290838D01*
X110251600Y-97739762D01*
X110247253Y-97783904D01*
X110236168Y-97820445D01*
X110218169Y-97854120D01*
X110193941Y-97883641D01*
X110164420Y-97907869D01*
X110130745Y-97925868D01*
X110094204Y-97936953D01*
X110050062Y-97941300D01*
X109101138Y-97941300D01*
X109056996Y-97936953D01*
X109020455Y-97925868D01*
X108986780Y-97907869D01*
X108957259Y-97883641D01*
X108933031Y-97854120D01*
X108915032Y-97820445D01*
X108903947Y-97783904D01*
X108899600Y-97739762D01*
X108899600Y-96290838D01*
X108903947Y-96246696D01*
X108915032Y-96210155D01*
X108933031Y-96176480D01*
X108957259Y-96146959D01*
X108986780Y-96122731D01*
X109020455Y-96104732D01*
X109056996Y-96093647D01*
X109101138Y-96089300D01*
X110050062Y-96089300D01*
X110094204Y-96093647D01*
X110094204Y-96093647D01*
G37*
G36*
X134821104Y-96093647D02*
X134857645Y-96104732D01*
X134891320Y-96122731D01*
X134920841Y-96146959D01*
X134945069Y-96176480D01*
X134963068Y-96210155D01*
X134974153Y-96246696D01*
X134978500Y-96290838D01*
X134978500Y-97739762D01*
X134974153Y-97783904D01*
X134963068Y-97820445D01*
X134945069Y-97854120D01*
X134920841Y-97883641D01*
X134891320Y-97907869D01*
X134857645Y-97925868D01*
X134821104Y-97936953D01*
X134776962Y-97941300D01*
X133828038Y-97941300D01*
X133783896Y-97936953D01*
X133747355Y-97925868D01*
X133713680Y-97907869D01*
X133684159Y-97883641D01*
X133659931Y-97854120D01*
X133641932Y-97820445D01*
X133630847Y-97783904D01*
X133626500Y-97739762D01*
X133626500Y-96290838D01*
X133630847Y-96246696D01*
X133641932Y-96210155D01*
X133659931Y-96176480D01*
X133684159Y-96146959D01*
X133713680Y-96122731D01*
X133747355Y-96104732D01*
X133783896Y-96093647D01*
X133828038Y-96089300D01*
X134776962Y-96089300D01*
X134821104Y-96093647D01*
X134821104Y-96093647D01*
G37*
G36*
X125966204Y-96093647D02*
X126002745Y-96104732D01*
X126036420Y-96122731D01*
X126065941Y-96146959D01*
X126090169Y-96176480D01*
X126108168Y-96210155D01*
X126119253Y-96246696D01*
X126123600Y-96290838D01*
X126123600Y-97739762D01*
X126119253Y-97783904D01*
X126108168Y-97820445D01*
X126090169Y-97854120D01*
X126065941Y-97883641D01*
X126036420Y-97907869D01*
X126002745Y-97925868D01*
X125966204Y-97936953D01*
X125922062Y-97941300D01*
X124973138Y-97941300D01*
X124928996Y-97936953D01*
X124892455Y-97925868D01*
X124858780Y-97907869D01*
X124829259Y-97883641D01*
X124805031Y-97854120D01*
X124787032Y-97820445D01*
X124775947Y-97783904D01*
X124771600Y-97739762D01*
X124771600Y-96290838D01*
X124775947Y-96246696D01*
X124787032Y-96210155D01*
X124805031Y-96176480D01*
X124829259Y-96146959D01*
X124858780Y-96122731D01*
X124892455Y-96104732D01*
X124928996Y-96093647D01*
X124973138Y-96089300D01*
X125922062Y-96089300D01*
X125966204Y-96093647D01*
X125966204Y-96093647D01*
G37*
G36*
X157588204Y-96511747D02*
X157624745Y-96522832D01*
X157658420Y-96540831D01*
X157687941Y-96565059D01*
X157712169Y-96594580D01*
X157730168Y-96628255D01*
X157741253Y-96664796D01*
X157745600Y-96708938D01*
X157745600Y-97657862D01*
X157741253Y-97702004D01*
X157730168Y-97738545D01*
X157712169Y-97772220D01*
X157687941Y-97801741D01*
X157658420Y-97825969D01*
X157624745Y-97843968D01*
X157588204Y-97855053D01*
X157544062Y-97859400D01*
X156095138Y-97859400D01*
X156050996Y-97855053D01*
X156014455Y-97843968D01*
X155980780Y-97825969D01*
X155951259Y-97801741D01*
X155927031Y-97772220D01*
X155909032Y-97738545D01*
X155897947Y-97702004D01*
X155893600Y-97657862D01*
X155893600Y-96708938D01*
X155897947Y-96664796D01*
X155909032Y-96628255D01*
X155927031Y-96594580D01*
X155951259Y-96565059D01*
X155980780Y-96540831D01*
X156014455Y-96522832D01*
X156050996Y-96511747D01*
X156095138Y-96507400D01*
X157544062Y-96507400D01*
X157588204Y-96511747D01*
X157588204Y-96511747D01*
G37*
G36*
X161883400Y-97511500D02*
X159781400Y-97511500D01*
X159781400Y-95909500D01*
X161883400Y-95909500D01*
X161883400Y-97511500D01*
X161883400Y-97511500D01*
G37*
G36*
X177212300Y-97333700D02*
X175110300Y-97333700D01*
X175110300Y-95731700D01*
X177212300Y-95731700D01*
X177212300Y-97333700D01*
X177212300Y-97333700D01*
G37*
G36*
X161883400Y-95211500D02*
X159781400Y-95211500D01*
X159781400Y-93609500D01*
X161883400Y-93609500D01*
X161883400Y-95211500D01*
X161883400Y-95211500D01*
G37*
G36*
X157588204Y-93711747D02*
X157624745Y-93722832D01*
X157658420Y-93740831D01*
X157687941Y-93765059D01*
X157712169Y-93794580D01*
X157730168Y-93828255D01*
X157741253Y-93864796D01*
X157745600Y-93908938D01*
X157745600Y-94857862D01*
X157741253Y-94902004D01*
X157730168Y-94938545D01*
X157712169Y-94972220D01*
X157687941Y-95001741D01*
X157658420Y-95025969D01*
X157624745Y-95043968D01*
X157588204Y-95055053D01*
X157544062Y-95059400D01*
X156095138Y-95059400D01*
X156050996Y-95055053D01*
X156014455Y-95043968D01*
X155980780Y-95025969D01*
X155951259Y-95001741D01*
X155927031Y-94972220D01*
X155909032Y-94938545D01*
X155897947Y-94902004D01*
X155893600Y-94857862D01*
X155893600Y-93908938D01*
X155897947Y-93864796D01*
X155909032Y-93828255D01*
X155927031Y-93794580D01*
X155951259Y-93765059D01*
X155980780Y-93740831D01*
X156014455Y-93722832D01*
X156050996Y-93711747D01*
X156095138Y-93707400D01*
X157544062Y-93707400D01*
X157588204Y-93711747D01*
X157588204Y-93711747D01*
G37*
G36*
X177212300Y-95033700D02*
X175110300Y-95033700D01*
X175110300Y-93431700D01*
X177212300Y-93431700D01*
X177212300Y-95033700D01*
X177212300Y-95033700D01*
G37*
G36*
X197898004Y-91863547D02*
X197934545Y-91874632D01*
X197968220Y-91892631D01*
X197997741Y-91916859D01*
X198021969Y-91946380D01*
X198039968Y-91980055D01*
X198051053Y-92016596D01*
X198055400Y-92060738D01*
X198055400Y-93009662D01*
X198051053Y-93053804D01*
X198039968Y-93090345D01*
X198021969Y-93124020D01*
X197997741Y-93153541D01*
X197968220Y-93177769D01*
X197934545Y-93195768D01*
X197898004Y-93206853D01*
X197853862Y-93211200D01*
X196404938Y-93211200D01*
X196360796Y-93206853D01*
X196324255Y-93195768D01*
X196290580Y-93177769D01*
X196261059Y-93153541D01*
X196236831Y-93124020D01*
X196218832Y-93090345D01*
X196207747Y-93053804D01*
X196203400Y-93009662D01*
X196203400Y-92060738D01*
X196207747Y-92016596D01*
X196218832Y-91980055D01*
X196236831Y-91946380D01*
X196261059Y-91916859D01*
X196290580Y-91892631D01*
X196324255Y-91874632D01*
X196360796Y-91863547D01*
X196404938Y-91859200D01*
X197853862Y-91859200D01*
X197898004Y-91863547D01*
X197898004Y-91863547D01*
G37*
G36*
X191062900Y-93136200D02*
X189860900Y-93136200D01*
X189860900Y-91934200D01*
X191062900Y-91934200D01*
X191062900Y-93136200D01*
X191062900Y-93136200D01*
G37*
G36*
X205787811Y-88974151D02*
X206115572Y-89109914D01*
X206410553Y-89307014D01*
X206661406Y-89557867D01*
X206858506Y-89852848D01*
X206994269Y-90180609D01*
X207063480Y-90528556D01*
X207063480Y-90883324D01*
X206994269Y-91231271D01*
X206858506Y-91559032D01*
X206661406Y-91854013D01*
X206410553Y-92104866D01*
X206115572Y-92301966D01*
X205787811Y-92437729D01*
X205439864Y-92506940D01*
X205085096Y-92506940D01*
X204737149Y-92437729D01*
X204409388Y-92301966D01*
X204114407Y-92104866D01*
X203863554Y-91854013D01*
X203666454Y-91559032D01*
X203530691Y-91231271D01*
X203461480Y-90883324D01*
X203461480Y-90528556D01*
X203530691Y-90180609D01*
X203666454Y-89852848D01*
X203863554Y-89557867D01*
X204114407Y-89307014D01*
X204409388Y-89109914D01*
X204737149Y-88974151D01*
X205085096Y-88904940D01*
X205439864Y-88904940D01*
X205787811Y-88974151D01*
X205787811Y-88974151D01*
G37*
G36*
X175780036Y-87220178D02*
X175886359Y-87241327D01*
X176186822Y-87365783D01*
X176453632Y-87544060D01*
X176457234Y-87546467D01*
X176687193Y-87776426D01*
X176687195Y-87776429D01*
X176867877Y-88046838D01*
X176980319Y-88318296D01*
X176992333Y-88347302D01*
X177055780Y-88666269D01*
X177055780Y-88991491D01*
X177027393Y-89134200D01*
X176992333Y-89310459D01*
X176867877Y-89610922D01*
X176823091Y-89677949D01*
X176687193Y-89881334D01*
X176457234Y-90111293D01*
X176457231Y-90111295D01*
X176186822Y-90291977D01*
X175886359Y-90416433D01*
X175780036Y-90437582D01*
X175567391Y-90479880D01*
X175242169Y-90479880D01*
X175029524Y-90437582D01*
X174923201Y-90416433D01*
X174622738Y-90291977D01*
X174352329Y-90111295D01*
X174352326Y-90111293D01*
X174122367Y-89881334D01*
X173986469Y-89677949D01*
X173941683Y-89610922D01*
X173817227Y-89310459D01*
X173782167Y-89134200D01*
X173753780Y-88991491D01*
X173753780Y-88666269D01*
X173817227Y-88347302D01*
X173829242Y-88318296D01*
X173941683Y-88046838D01*
X174122365Y-87776429D01*
X174122367Y-87776426D01*
X174352326Y-87546467D01*
X174355928Y-87544060D01*
X174622738Y-87365783D01*
X174923201Y-87241327D01*
X175029524Y-87220178D01*
X175242169Y-87177880D01*
X175567391Y-87177880D01*
X175780036Y-87220178D01*
X175780036Y-87220178D01*
G37*
G36*
X100850036Y-87220178D02*
X100956359Y-87241327D01*
X101256822Y-87365783D01*
X101523632Y-87544060D01*
X101527234Y-87546467D01*
X101757193Y-87776426D01*
X101757195Y-87776429D01*
X101937877Y-88046838D01*
X102050319Y-88318296D01*
X102062333Y-88347302D01*
X102125780Y-88666269D01*
X102125780Y-88991491D01*
X102097393Y-89134200D01*
X102062333Y-89310459D01*
X101937877Y-89610922D01*
X101893091Y-89677949D01*
X101757193Y-89881334D01*
X101527234Y-90111293D01*
X101527231Y-90111295D01*
X101256822Y-90291977D01*
X100956359Y-90416433D01*
X100850036Y-90437582D01*
X100637391Y-90479880D01*
X100312169Y-90479880D01*
X100099524Y-90437582D01*
X99993201Y-90416433D01*
X99692738Y-90291977D01*
X99422329Y-90111295D01*
X99422326Y-90111293D01*
X99192367Y-89881334D01*
X99056469Y-89677949D01*
X99011683Y-89610922D01*
X98887227Y-89310459D01*
X98852167Y-89134200D01*
X98823780Y-88991491D01*
X98823780Y-88666269D01*
X98887227Y-88347302D01*
X98899242Y-88318296D01*
X99011683Y-88046838D01*
X99192365Y-87776429D01*
X99192367Y-87776426D01*
X99422326Y-87546467D01*
X99425928Y-87544060D01*
X99692738Y-87365783D01*
X99993201Y-87241327D01*
X100099524Y-87220178D01*
X100312169Y-87177880D01*
X100637391Y-87177880D01*
X100850036Y-87220178D01*
X100850036Y-87220178D01*
G37*
G36*
X197898004Y-89063547D02*
X197934545Y-89074632D01*
X197968220Y-89092631D01*
X197997741Y-89116859D01*
X198021969Y-89146380D01*
X198039968Y-89180055D01*
X198051053Y-89216596D01*
X198055400Y-89260738D01*
X198055400Y-90209662D01*
X198051053Y-90253804D01*
X198039968Y-90290345D01*
X198021969Y-90324020D01*
X197997741Y-90353541D01*
X197968220Y-90377769D01*
X197934545Y-90395768D01*
X197898004Y-90406853D01*
X197853862Y-90411200D01*
X196404938Y-90411200D01*
X196360796Y-90406853D01*
X196324255Y-90395768D01*
X196290580Y-90377769D01*
X196261059Y-90353541D01*
X196236831Y-90324020D01*
X196218832Y-90290345D01*
X196207747Y-90253804D01*
X196203400Y-90209662D01*
X196203400Y-89260738D01*
X196207747Y-89216596D01*
X196218832Y-89180055D01*
X196236831Y-89146380D01*
X196261059Y-89116859D01*
X196290580Y-89092631D01*
X196324255Y-89074632D01*
X196360796Y-89063547D01*
X196404938Y-89059200D01*
X197853862Y-89059200D01*
X197898004Y-89063547D01*
X197898004Y-89063547D01*
G37*
G36*
X191062900Y-90336200D02*
X189860900Y-90336200D01*
X189860900Y-89134200D01*
X191062900Y-89134200D01*
X191062900Y-90336200D01*
X191062900Y-90336200D01*
G37*
G36*
X159074074Y-87927513D02*
X159246474Y-87979811D01*
X159246476Y-87979812D01*
X159405363Y-88064739D01*
X159544629Y-88179031D01*
X159658921Y-88318297D01*
X159743848Y-88477184D01*
X159743849Y-88477186D01*
X159796147Y-88649586D01*
X159813805Y-88828880D01*
X159796147Y-89008174D01*
X159744213Y-89179374D01*
X159743848Y-89180576D01*
X159658921Y-89339463D01*
X159544629Y-89478729D01*
X159405363Y-89593021D01*
X159246476Y-89677948D01*
X159246474Y-89677949D01*
X159074074Y-89730247D01*
X158939711Y-89743480D01*
X158849849Y-89743480D01*
X158715486Y-89730247D01*
X158543086Y-89677949D01*
X158543084Y-89677948D01*
X158384197Y-89593021D01*
X158244931Y-89478729D01*
X158130639Y-89339463D01*
X158045712Y-89180576D01*
X158045347Y-89179374D01*
X157993413Y-89008174D01*
X157975755Y-88828880D01*
X157993413Y-88649586D01*
X158045711Y-88477186D01*
X158045712Y-88477184D01*
X158130639Y-88318297D01*
X158244931Y-88179031D01*
X158384197Y-88064739D01*
X158543084Y-87979812D01*
X158543086Y-87979811D01*
X158715486Y-87927513D01*
X158849849Y-87914280D01*
X158939711Y-87914280D01*
X159074074Y-87927513D01*
X159074074Y-87927513D01*
G37*
G36*
X133674074Y-87927513D02*
X133846474Y-87979811D01*
X133846476Y-87979812D01*
X134005363Y-88064739D01*
X134144629Y-88179031D01*
X134258921Y-88318297D01*
X134343848Y-88477184D01*
X134343849Y-88477186D01*
X134396147Y-88649586D01*
X134413805Y-88828880D01*
X134396147Y-89008174D01*
X134344213Y-89179374D01*
X134343848Y-89180576D01*
X134258921Y-89339463D01*
X134144629Y-89478729D01*
X134005363Y-89593021D01*
X133846476Y-89677948D01*
X133846474Y-89677949D01*
X133674074Y-89730247D01*
X133539711Y-89743480D01*
X133449849Y-89743480D01*
X133315486Y-89730247D01*
X133143086Y-89677949D01*
X133143084Y-89677948D01*
X132984197Y-89593021D01*
X132844931Y-89478729D01*
X132730639Y-89339463D01*
X132645712Y-89180576D01*
X132645347Y-89179374D01*
X132593413Y-89008174D01*
X132575755Y-88828880D01*
X132593413Y-88649586D01*
X132645711Y-88477186D01*
X132645712Y-88477184D01*
X132730639Y-88318297D01*
X132844931Y-88179031D01*
X132984197Y-88064739D01*
X133143084Y-87979812D01*
X133143086Y-87979811D01*
X133315486Y-87927513D01*
X133449849Y-87914280D01*
X133539711Y-87914280D01*
X133674074Y-87927513D01*
X133674074Y-87927513D01*
G37*
G36*
X156534074Y-87927513D02*
X156706474Y-87979811D01*
X156706476Y-87979812D01*
X156865363Y-88064739D01*
X157004629Y-88179031D01*
X157118921Y-88318297D01*
X157203848Y-88477184D01*
X157203849Y-88477186D01*
X157256147Y-88649586D01*
X157273805Y-88828880D01*
X157256147Y-89008174D01*
X157204213Y-89179374D01*
X157203848Y-89180576D01*
X157118921Y-89339463D01*
X157004629Y-89478729D01*
X156865363Y-89593021D01*
X156706476Y-89677948D01*
X156706474Y-89677949D01*
X156534074Y-89730247D01*
X156399711Y-89743480D01*
X156309849Y-89743480D01*
X156175486Y-89730247D01*
X156003086Y-89677949D01*
X156003084Y-89677948D01*
X155844197Y-89593021D01*
X155704931Y-89478729D01*
X155590639Y-89339463D01*
X155505712Y-89180576D01*
X155505347Y-89179374D01*
X155453413Y-89008174D01*
X155435755Y-88828880D01*
X155453413Y-88649586D01*
X155505711Y-88477186D01*
X155505712Y-88477184D01*
X155590639Y-88318297D01*
X155704931Y-88179031D01*
X155844197Y-88064739D01*
X156003084Y-87979812D01*
X156003086Y-87979811D01*
X156175486Y-87927513D01*
X156309849Y-87914280D01*
X156399711Y-87914280D01*
X156534074Y-87927513D01*
X156534074Y-87927513D01*
G37*
G36*
X153994074Y-87927513D02*
X154166474Y-87979811D01*
X154166476Y-87979812D01*
X154325363Y-88064739D01*
X154464629Y-88179031D01*
X154578921Y-88318297D01*
X154663848Y-88477184D01*
X154663849Y-88477186D01*
X154716147Y-88649586D01*
X154733805Y-88828880D01*
X154716147Y-89008174D01*
X154664213Y-89179374D01*
X154663848Y-89180576D01*
X154578921Y-89339463D01*
X154464629Y-89478729D01*
X154325363Y-89593021D01*
X154166476Y-89677948D01*
X154166474Y-89677949D01*
X153994074Y-89730247D01*
X153859711Y-89743480D01*
X153769849Y-89743480D01*
X153635486Y-89730247D01*
X153463086Y-89677949D01*
X153463084Y-89677948D01*
X153304197Y-89593021D01*
X153164931Y-89478729D01*
X153050639Y-89339463D01*
X152965712Y-89180576D01*
X152965347Y-89179374D01*
X152913413Y-89008174D01*
X152895755Y-88828880D01*
X152913413Y-88649586D01*
X152965711Y-88477186D01*
X152965712Y-88477184D01*
X153050639Y-88318297D01*
X153164931Y-88179031D01*
X153304197Y-88064739D01*
X153463084Y-87979812D01*
X153463086Y-87979811D01*
X153635486Y-87927513D01*
X153769849Y-87914280D01*
X153859711Y-87914280D01*
X153994074Y-87927513D01*
X153994074Y-87927513D01*
G37*
G36*
X121990074Y-87927513D02*
X122162474Y-87979811D01*
X122162476Y-87979812D01*
X122321363Y-88064739D01*
X122460629Y-88179031D01*
X122574921Y-88318297D01*
X122659848Y-88477184D01*
X122659849Y-88477186D01*
X122712147Y-88649586D01*
X122729805Y-88828880D01*
X122712147Y-89008174D01*
X122660213Y-89179374D01*
X122659848Y-89180576D01*
X122574921Y-89339463D01*
X122460629Y-89478729D01*
X122321363Y-89593021D01*
X122162476Y-89677948D01*
X122162474Y-89677949D01*
X121990074Y-89730247D01*
X121855711Y-89743480D01*
X121765849Y-89743480D01*
X121631486Y-89730247D01*
X121459086Y-89677949D01*
X121459084Y-89677948D01*
X121300197Y-89593021D01*
X121160931Y-89478729D01*
X121046639Y-89339463D01*
X120961712Y-89180576D01*
X120961347Y-89179374D01*
X120909413Y-89008174D01*
X120891755Y-88828880D01*
X120909413Y-88649586D01*
X120961711Y-88477186D01*
X120961712Y-88477184D01*
X121046639Y-88318297D01*
X121160931Y-88179031D01*
X121300197Y-88064739D01*
X121459084Y-87979812D01*
X121459086Y-87979811D01*
X121631486Y-87927513D01*
X121765849Y-87914280D01*
X121855711Y-87914280D01*
X121990074Y-87927513D01*
X121990074Y-87927513D01*
G37*
G36*
X124530074Y-87927513D02*
X124702474Y-87979811D01*
X124702476Y-87979812D01*
X124861363Y-88064739D01*
X125000629Y-88179031D01*
X125114921Y-88318297D01*
X125199848Y-88477184D01*
X125199849Y-88477186D01*
X125252147Y-88649586D01*
X125269805Y-88828880D01*
X125252147Y-89008174D01*
X125200213Y-89179374D01*
X125199848Y-89180576D01*
X125114921Y-89339463D01*
X125000629Y-89478729D01*
X124861363Y-89593021D01*
X124702476Y-89677948D01*
X124702474Y-89677949D01*
X124530074Y-89730247D01*
X124395711Y-89743480D01*
X124305849Y-89743480D01*
X124171486Y-89730247D01*
X123999086Y-89677949D01*
X123999084Y-89677948D01*
X123840197Y-89593021D01*
X123700931Y-89478729D01*
X123586639Y-89339463D01*
X123501712Y-89180576D01*
X123501347Y-89179374D01*
X123449413Y-89008174D01*
X123431755Y-88828880D01*
X123449413Y-88649586D01*
X123501711Y-88477186D01*
X123501712Y-88477184D01*
X123586639Y-88318297D01*
X123700931Y-88179031D01*
X123840197Y-88064739D01*
X123999084Y-87979812D01*
X123999086Y-87979811D01*
X124171486Y-87927513D01*
X124305849Y-87914280D01*
X124395711Y-87914280D01*
X124530074Y-87927513D01*
X124530074Y-87927513D01*
G37*
G36*
X127070074Y-87927513D02*
X127242474Y-87979811D01*
X127242476Y-87979812D01*
X127401363Y-88064739D01*
X127540629Y-88179031D01*
X127654921Y-88318297D01*
X127739848Y-88477184D01*
X127739849Y-88477186D01*
X127792147Y-88649586D01*
X127809805Y-88828880D01*
X127792147Y-89008174D01*
X127740213Y-89179374D01*
X127739848Y-89180576D01*
X127654921Y-89339463D01*
X127540629Y-89478729D01*
X127401363Y-89593021D01*
X127242476Y-89677948D01*
X127242474Y-89677949D01*
X127070074Y-89730247D01*
X126935711Y-89743480D01*
X126845849Y-89743480D01*
X126711486Y-89730247D01*
X126539086Y-89677949D01*
X126539084Y-89677948D01*
X126380197Y-89593021D01*
X126240931Y-89478729D01*
X126126639Y-89339463D01*
X126041712Y-89180576D01*
X126041347Y-89179374D01*
X125989413Y-89008174D01*
X125971755Y-88828880D01*
X125989413Y-88649586D01*
X126041711Y-88477186D01*
X126041712Y-88477184D01*
X126126639Y-88318297D01*
X126240931Y-88179031D01*
X126380197Y-88064739D01*
X126539084Y-87979812D01*
X126539086Y-87979811D01*
X126711486Y-87927513D01*
X126845849Y-87914280D01*
X126935711Y-87914280D01*
X127070074Y-87927513D01*
X127070074Y-87927513D01*
G37*
G36*
X148914074Y-87927513D02*
X149086474Y-87979811D01*
X149086476Y-87979812D01*
X149245363Y-88064739D01*
X149384629Y-88179031D01*
X149498921Y-88318297D01*
X149583848Y-88477184D01*
X149583849Y-88477186D01*
X149636147Y-88649586D01*
X149653805Y-88828880D01*
X149636147Y-89008174D01*
X149584213Y-89179374D01*
X149583848Y-89180576D01*
X149498921Y-89339463D01*
X149384629Y-89478729D01*
X149245363Y-89593021D01*
X149086476Y-89677948D01*
X149086474Y-89677949D01*
X148914074Y-89730247D01*
X148779711Y-89743480D01*
X148689849Y-89743480D01*
X148555486Y-89730247D01*
X148383086Y-89677949D01*
X148383084Y-89677948D01*
X148224197Y-89593021D01*
X148084931Y-89478729D01*
X147970639Y-89339463D01*
X147885712Y-89180576D01*
X147885347Y-89179374D01*
X147833413Y-89008174D01*
X147815755Y-88828880D01*
X147833413Y-88649586D01*
X147885711Y-88477186D01*
X147885712Y-88477184D01*
X147970639Y-88318297D01*
X148084931Y-88179031D01*
X148224197Y-88064739D01*
X148383084Y-87979812D01*
X148383086Y-87979811D01*
X148555486Y-87927513D01*
X148689849Y-87914280D01*
X148779711Y-87914280D01*
X148914074Y-87927513D01*
X148914074Y-87927513D01*
G37*
G36*
X146374074Y-87927513D02*
X146546474Y-87979811D01*
X146546476Y-87979812D01*
X146705363Y-88064739D01*
X146844629Y-88179031D01*
X146958921Y-88318297D01*
X147043848Y-88477184D01*
X147043849Y-88477186D01*
X147096147Y-88649586D01*
X147113805Y-88828880D01*
X147096147Y-89008174D01*
X147044213Y-89179374D01*
X147043848Y-89180576D01*
X146958921Y-89339463D01*
X146844629Y-89478729D01*
X146705363Y-89593021D01*
X146546476Y-89677948D01*
X146546474Y-89677949D01*
X146374074Y-89730247D01*
X146239711Y-89743480D01*
X146149849Y-89743480D01*
X146015486Y-89730247D01*
X145843086Y-89677949D01*
X145843084Y-89677948D01*
X145684197Y-89593021D01*
X145544931Y-89478729D01*
X145430639Y-89339463D01*
X145345712Y-89180576D01*
X145345347Y-89179374D01*
X145293413Y-89008174D01*
X145275755Y-88828880D01*
X145293413Y-88649586D01*
X145345711Y-88477186D01*
X145345712Y-88477184D01*
X145430639Y-88318297D01*
X145544931Y-88179031D01*
X145684197Y-88064739D01*
X145843084Y-87979812D01*
X145843086Y-87979811D01*
X146015486Y-87927513D01*
X146149849Y-87914280D01*
X146239711Y-87914280D01*
X146374074Y-87927513D01*
X146374074Y-87927513D01*
G37*
G36*
X143834074Y-87927513D02*
X144006474Y-87979811D01*
X144006476Y-87979812D01*
X144165363Y-88064739D01*
X144304629Y-88179031D01*
X144418921Y-88318297D01*
X144503848Y-88477184D01*
X144503849Y-88477186D01*
X144556147Y-88649586D01*
X144573805Y-88828880D01*
X144556147Y-89008174D01*
X144504213Y-89179374D01*
X144503848Y-89180576D01*
X144418921Y-89339463D01*
X144304629Y-89478729D01*
X144165363Y-89593021D01*
X144006476Y-89677948D01*
X144006474Y-89677949D01*
X143834074Y-89730247D01*
X143699711Y-89743480D01*
X143609849Y-89743480D01*
X143475486Y-89730247D01*
X143303086Y-89677949D01*
X143303084Y-89677948D01*
X143144197Y-89593021D01*
X143004931Y-89478729D01*
X142890639Y-89339463D01*
X142805712Y-89180576D01*
X142805347Y-89179374D01*
X142753413Y-89008174D01*
X142735755Y-88828880D01*
X142753413Y-88649586D01*
X142805711Y-88477186D01*
X142805712Y-88477184D01*
X142890639Y-88318297D01*
X143004931Y-88179031D01*
X143144197Y-88064739D01*
X143303084Y-87979812D01*
X143303086Y-87979811D01*
X143475486Y-87927513D01*
X143609849Y-87914280D01*
X143699711Y-87914280D01*
X143834074Y-87927513D01*
X143834074Y-87927513D01*
G37*
G36*
X141294074Y-87927513D02*
X141466474Y-87979811D01*
X141466476Y-87979812D01*
X141625363Y-88064739D01*
X141764629Y-88179031D01*
X141878921Y-88318297D01*
X141963848Y-88477184D01*
X141963849Y-88477186D01*
X142016147Y-88649586D01*
X142033805Y-88828880D01*
X142016147Y-89008174D01*
X141964213Y-89179374D01*
X141963848Y-89180576D01*
X141878921Y-89339463D01*
X141764629Y-89478729D01*
X141625363Y-89593021D01*
X141466476Y-89677948D01*
X141466474Y-89677949D01*
X141294074Y-89730247D01*
X141159711Y-89743480D01*
X141069849Y-89743480D01*
X140935486Y-89730247D01*
X140763086Y-89677949D01*
X140763084Y-89677948D01*
X140604197Y-89593021D01*
X140464931Y-89478729D01*
X140350639Y-89339463D01*
X140265712Y-89180576D01*
X140265347Y-89179374D01*
X140213413Y-89008174D01*
X140195755Y-88828880D01*
X140213413Y-88649586D01*
X140265711Y-88477186D01*
X140265712Y-88477184D01*
X140350639Y-88318297D01*
X140464931Y-88179031D01*
X140604197Y-88064739D01*
X140763084Y-87979812D01*
X140763086Y-87979811D01*
X140935486Y-87927513D01*
X141069849Y-87914280D01*
X141159711Y-87914280D01*
X141294074Y-87927513D01*
X141294074Y-87927513D01*
G37*
G36*
X138754074Y-87927513D02*
X138926474Y-87979811D01*
X138926476Y-87979812D01*
X139085363Y-88064739D01*
X139224629Y-88179031D01*
X139338921Y-88318297D01*
X139423848Y-88477184D01*
X139423849Y-88477186D01*
X139476147Y-88649586D01*
X139493805Y-88828880D01*
X139476147Y-89008174D01*
X139424213Y-89179374D01*
X139423848Y-89180576D01*
X139338921Y-89339463D01*
X139224629Y-89478729D01*
X139085363Y-89593021D01*
X138926476Y-89677948D01*
X138926474Y-89677949D01*
X138754074Y-89730247D01*
X138619711Y-89743480D01*
X138529849Y-89743480D01*
X138395486Y-89730247D01*
X138223086Y-89677949D01*
X138223084Y-89677948D01*
X138064197Y-89593021D01*
X137924931Y-89478729D01*
X137810639Y-89339463D01*
X137725712Y-89180576D01*
X137725347Y-89179374D01*
X137673413Y-89008174D01*
X137655755Y-88828880D01*
X137673413Y-88649586D01*
X137725711Y-88477186D01*
X137725712Y-88477184D01*
X137810639Y-88318297D01*
X137924931Y-88179031D01*
X138064197Y-88064739D01*
X138223084Y-87979812D01*
X138223086Y-87979811D01*
X138395486Y-87927513D01*
X138529849Y-87914280D01*
X138619711Y-87914280D01*
X138754074Y-87927513D01*
X138754074Y-87927513D01*
G37*
G36*
X136214074Y-87927513D02*
X136386474Y-87979811D01*
X136386476Y-87979812D01*
X136545363Y-88064739D01*
X136684629Y-88179031D01*
X136798921Y-88318297D01*
X136883848Y-88477184D01*
X136883849Y-88477186D01*
X136936147Y-88649586D01*
X136953805Y-88828880D01*
X136936147Y-89008174D01*
X136884213Y-89179374D01*
X136883848Y-89180576D01*
X136798921Y-89339463D01*
X136684629Y-89478729D01*
X136545363Y-89593021D01*
X136386476Y-89677948D01*
X136386474Y-89677949D01*
X136214074Y-89730247D01*
X136079711Y-89743480D01*
X135989849Y-89743480D01*
X135855486Y-89730247D01*
X135683086Y-89677949D01*
X135683084Y-89677948D01*
X135524197Y-89593021D01*
X135384931Y-89478729D01*
X135270639Y-89339463D01*
X135185712Y-89180576D01*
X135185347Y-89179374D01*
X135133413Y-89008174D01*
X135115755Y-88828880D01*
X135133413Y-88649586D01*
X135185711Y-88477186D01*
X135185712Y-88477184D01*
X135270639Y-88318297D01*
X135384931Y-88179031D01*
X135524197Y-88064739D01*
X135683084Y-87979812D01*
X135683086Y-87979811D01*
X135855486Y-87927513D01*
X135989849Y-87914280D01*
X136079711Y-87914280D01*
X136214074Y-87927513D01*
X136214074Y-87927513D01*
G37*
G36*
X161614074Y-87927513D02*
X161786474Y-87979811D01*
X161786476Y-87979812D01*
X161945363Y-88064739D01*
X162084629Y-88179031D01*
X162198921Y-88318297D01*
X162283848Y-88477184D01*
X162283849Y-88477186D01*
X162336147Y-88649586D01*
X162353805Y-88828880D01*
X162336147Y-89008174D01*
X162284213Y-89179374D01*
X162283848Y-89180576D01*
X162198921Y-89339463D01*
X162084629Y-89478729D01*
X161945363Y-89593021D01*
X161786476Y-89677948D01*
X161786474Y-89677949D01*
X161614074Y-89730247D01*
X161479711Y-89743480D01*
X161389849Y-89743480D01*
X161255486Y-89730247D01*
X161083086Y-89677949D01*
X161083084Y-89677948D01*
X160924197Y-89593021D01*
X160784931Y-89478729D01*
X160670639Y-89339463D01*
X160585712Y-89180576D01*
X160585347Y-89179374D01*
X160533413Y-89008174D01*
X160515755Y-88828880D01*
X160533413Y-88649586D01*
X160585711Y-88477186D01*
X160585712Y-88477184D01*
X160670639Y-88318297D01*
X160784931Y-88179031D01*
X160924197Y-88064739D01*
X161083084Y-87979812D01*
X161083086Y-87979811D01*
X161255486Y-87927513D01*
X161389849Y-87914280D01*
X161479711Y-87914280D01*
X161614074Y-87927513D01*
X161614074Y-87927513D01*
G37*
G36*
X164154074Y-87927513D02*
X164326474Y-87979811D01*
X164326476Y-87979812D01*
X164485363Y-88064739D01*
X164624629Y-88179031D01*
X164738921Y-88318297D01*
X164823848Y-88477184D01*
X164823849Y-88477186D01*
X164876147Y-88649586D01*
X164893805Y-88828880D01*
X164876147Y-89008174D01*
X164824213Y-89179374D01*
X164823848Y-89180576D01*
X164738921Y-89339463D01*
X164624629Y-89478729D01*
X164485363Y-89593021D01*
X164326476Y-89677948D01*
X164326474Y-89677949D01*
X164154074Y-89730247D01*
X164019711Y-89743480D01*
X163929849Y-89743480D01*
X163795486Y-89730247D01*
X163623086Y-89677949D01*
X163623084Y-89677948D01*
X163464197Y-89593021D01*
X163324931Y-89478729D01*
X163210639Y-89339463D01*
X163125712Y-89180576D01*
X163125347Y-89179374D01*
X163073413Y-89008174D01*
X163055755Y-88828880D01*
X163073413Y-88649586D01*
X163125711Y-88477186D01*
X163125712Y-88477184D01*
X163210639Y-88318297D01*
X163324931Y-88179031D01*
X163464197Y-88064739D01*
X163623084Y-87979812D01*
X163623086Y-87979811D01*
X163795486Y-87927513D01*
X163929849Y-87914280D01*
X164019711Y-87914280D01*
X164154074Y-87927513D01*
X164154074Y-87927513D01*
G37*
G36*
X166694074Y-87927513D02*
X166866474Y-87979811D01*
X166866476Y-87979812D01*
X167025363Y-88064739D01*
X167164629Y-88179031D01*
X167278921Y-88318297D01*
X167363848Y-88477184D01*
X167363849Y-88477186D01*
X167416147Y-88649586D01*
X167433805Y-88828880D01*
X167416147Y-89008174D01*
X167364213Y-89179374D01*
X167363848Y-89180576D01*
X167278921Y-89339463D01*
X167164629Y-89478729D01*
X167025363Y-89593021D01*
X166866476Y-89677948D01*
X166866474Y-89677949D01*
X166694074Y-89730247D01*
X166559711Y-89743480D01*
X166469849Y-89743480D01*
X166335486Y-89730247D01*
X166163086Y-89677949D01*
X166163084Y-89677948D01*
X166004197Y-89593021D01*
X165864931Y-89478729D01*
X165750639Y-89339463D01*
X165665712Y-89180576D01*
X165665347Y-89179374D01*
X165613413Y-89008174D01*
X165595755Y-88828880D01*
X165613413Y-88649586D01*
X165665711Y-88477186D01*
X165665712Y-88477184D01*
X165750639Y-88318297D01*
X165864931Y-88179031D01*
X166004197Y-88064739D01*
X166163084Y-87979812D01*
X166163086Y-87979811D01*
X166335486Y-87927513D01*
X166469849Y-87914280D01*
X166559711Y-87914280D01*
X166694074Y-87927513D01*
X166694074Y-87927513D01*
G37*
G36*
X116910074Y-87927513D02*
X117082474Y-87979811D01*
X117082476Y-87979812D01*
X117241363Y-88064739D01*
X117380629Y-88179031D01*
X117494921Y-88318297D01*
X117579848Y-88477184D01*
X117579849Y-88477186D01*
X117632147Y-88649586D01*
X117649805Y-88828880D01*
X117632147Y-89008174D01*
X117580213Y-89179374D01*
X117579848Y-89180576D01*
X117494921Y-89339463D01*
X117380629Y-89478729D01*
X117241363Y-89593021D01*
X117082476Y-89677948D01*
X117082474Y-89677949D01*
X116910074Y-89730247D01*
X116775711Y-89743480D01*
X116685849Y-89743480D01*
X116551486Y-89730247D01*
X116379086Y-89677949D01*
X116379084Y-89677948D01*
X116220197Y-89593021D01*
X116080931Y-89478729D01*
X115966639Y-89339463D01*
X115881712Y-89180576D01*
X115881347Y-89179374D01*
X115829413Y-89008174D01*
X115811755Y-88828880D01*
X115829413Y-88649586D01*
X115881711Y-88477186D01*
X115881712Y-88477184D01*
X115966639Y-88318297D01*
X116080931Y-88179031D01*
X116220197Y-88064739D01*
X116379084Y-87979812D01*
X116379086Y-87979811D01*
X116551486Y-87927513D01*
X116685849Y-87914280D01*
X116775711Y-87914280D01*
X116910074Y-87927513D01*
X116910074Y-87927513D01*
G37*
G36*
X171774074Y-87927513D02*
X171946474Y-87979811D01*
X171946476Y-87979812D01*
X172105363Y-88064739D01*
X172244629Y-88179031D01*
X172358921Y-88318297D01*
X172443848Y-88477184D01*
X172443849Y-88477186D01*
X172496147Y-88649586D01*
X172513805Y-88828880D01*
X172496147Y-89008174D01*
X172444213Y-89179374D01*
X172443848Y-89180576D01*
X172358921Y-89339463D01*
X172244629Y-89478729D01*
X172105363Y-89593021D01*
X171946476Y-89677948D01*
X171946474Y-89677949D01*
X171774074Y-89730247D01*
X171639711Y-89743480D01*
X171549849Y-89743480D01*
X171415486Y-89730247D01*
X171243086Y-89677949D01*
X171243084Y-89677948D01*
X171084197Y-89593021D01*
X170944931Y-89478729D01*
X170830639Y-89339463D01*
X170745712Y-89180576D01*
X170745347Y-89179374D01*
X170693413Y-89008174D01*
X170675755Y-88828880D01*
X170693413Y-88649586D01*
X170745711Y-88477186D01*
X170745712Y-88477184D01*
X170830639Y-88318297D01*
X170944931Y-88179031D01*
X171084197Y-88064739D01*
X171243084Y-87979812D01*
X171243086Y-87979811D01*
X171415486Y-87927513D01*
X171549849Y-87914280D01*
X171639711Y-87914280D01*
X171774074Y-87927513D01*
X171774074Y-87927513D01*
G37*
G36*
X169234074Y-87927513D02*
X169406474Y-87979811D01*
X169406476Y-87979812D01*
X169565363Y-88064739D01*
X169704629Y-88179031D01*
X169818921Y-88318297D01*
X169903848Y-88477184D01*
X169903849Y-88477186D01*
X169956147Y-88649586D01*
X169973805Y-88828880D01*
X169956147Y-89008174D01*
X169904213Y-89179374D01*
X169903848Y-89180576D01*
X169818921Y-89339463D01*
X169704629Y-89478729D01*
X169565363Y-89593021D01*
X169406476Y-89677948D01*
X169406474Y-89677949D01*
X169234074Y-89730247D01*
X169099711Y-89743480D01*
X169009849Y-89743480D01*
X168875486Y-89730247D01*
X168703086Y-89677949D01*
X168703084Y-89677948D01*
X168544197Y-89593021D01*
X168404931Y-89478729D01*
X168290639Y-89339463D01*
X168205712Y-89180576D01*
X168205347Y-89179374D01*
X168153413Y-89008174D01*
X168135755Y-88828880D01*
X168153413Y-88649586D01*
X168205711Y-88477186D01*
X168205712Y-88477184D01*
X168290639Y-88318297D01*
X168404931Y-88179031D01*
X168544197Y-88064739D01*
X168703084Y-87979812D01*
X168703086Y-87979811D01*
X168875486Y-87927513D01*
X169009849Y-87914280D01*
X169099711Y-87914280D01*
X169234074Y-87927513D01*
X169234074Y-87927513D01*
G37*
G36*
X119450074Y-87927513D02*
X119622474Y-87979811D01*
X119622476Y-87979812D01*
X119781363Y-88064739D01*
X119920629Y-88179031D01*
X120034921Y-88318297D01*
X120119848Y-88477184D01*
X120119849Y-88477186D01*
X120172147Y-88649586D01*
X120189805Y-88828880D01*
X120172147Y-89008174D01*
X120120213Y-89179374D01*
X120119848Y-89180576D01*
X120034921Y-89339463D01*
X119920629Y-89478729D01*
X119781363Y-89593021D01*
X119622476Y-89677948D01*
X119622474Y-89677949D01*
X119450074Y-89730247D01*
X119315711Y-89743480D01*
X119225849Y-89743480D01*
X119091486Y-89730247D01*
X118919086Y-89677949D01*
X118919084Y-89677948D01*
X118760197Y-89593021D01*
X118620931Y-89478729D01*
X118506639Y-89339463D01*
X118421712Y-89180576D01*
X118421347Y-89179374D01*
X118369413Y-89008174D01*
X118351755Y-88828880D01*
X118369413Y-88649586D01*
X118421711Y-88477186D01*
X118421712Y-88477184D01*
X118506639Y-88318297D01*
X118620931Y-88179031D01*
X118760197Y-88064739D01*
X118919084Y-87979812D01*
X118919086Y-87979811D01*
X119091486Y-87927513D01*
X119225849Y-87914280D01*
X119315711Y-87914280D01*
X119450074Y-87927513D01*
X119450074Y-87927513D01*
G37*
G36*
X104210074Y-87927513D02*
X104382474Y-87979811D01*
X104382476Y-87979812D01*
X104541363Y-88064739D01*
X104680629Y-88179031D01*
X104794921Y-88318297D01*
X104879848Y-88477184D01*
X104879849Y-88477186D01*
X104932147Y-88649586D01*
X104949805Y-88828880D01*
X104932147Y-89008174D01*
X104880213Y-89179374D01*
X104879848Y-89180576D01*
X104794921Y-89339463D01*
X104680629Y-89478729D01*
X104541363Y-89593021D01*
X104382476Y-89677948D01*
X104382474Y-89677949D01*
X104210074Y-89730247D01*
X104075711Y-89743480D01*
X103985849Y-89743480D01*
X103851486Y-89730247D01*
X103679086Y-89677949D01*
X103679084Y-89677948D01*
X103520197Y-89593021D01*
X103380931Y-89478729D01*
X103266639Y-89339463D01*
X103181712Y-89180576D01*
X103181347Y-89179374D01*
X103129413Y-89008174D01*
X103111755Y-88828880D01*
X103129413Y-88649586D01*
X103181711Y-88477186D01*
X103181712Y-88477184D01*
X103266639Y-88318297D01*
X103380931Y-88179031D01*
X103520197Y-88064739D01*
X103679084Y-87979812D01*
X103679086Y-87979811D01*
X103851486Y-87927513D01*
X103985849Y-87914280D01*
X104075711Y-87914280D01*
X104210074Y-87927513D01*
X104210074Y-87927513D01*
G37*
G36*
X106750074Y-87927513D02*
X106922474Y-87979811D01*
X106922476Y-87979812D01*
X107081363Y-88064739D01*
X107220629Y-88179031D01*
X107334921Y-88318297D01*
X107419848Y-88477184D01*
X107419849Y-88477186D01*
X107472147Y-88649586D01*
X107489805Y-88828880D01*
X107472147Y-89008174D01*
X107420213Y-89179374D01*
X107419848Y-89180576D01*
X107334921Y-89339463D01*
X107220629Y-89478729D01*
X107081363Y-89593021D01*
X106922476Y-89677948D01*
X106922474Y-89677949D01*
X106750074Y-89730247D01*
X106615711Y-89743480D01*
X106525849Y-89743480D01*
X106391486Y-89730247D01*
X106219086Y-89677949D01*
X106219084Y-89677948D01*
X106060197Y-89593021D01*
X105920931Y-89478729D01*
X105806639Y-89339463D01*
X105721712Y-89180576D01*
X105721347Y-89179374D01*
X105669413Y-89008174D01*
X105651755Y-88828880D01*
X105669413Y-88649586D01*
X105721711Y-88477186D01*
X105721712Y-88477184D01*
X105806639Y-88318297D01*
X105920931Y-88179031D01*
X106060197Y-88064739D01*
X106219084Y-87979812D01*
X106219086Y-87979811D01*
X106391486Y-87927513D01*
X106525849Y-87914280D01*
X106615711Y-87914280D01*
X106750074Y-87927513D01*
X106750074Y-87927513D01*
G37*
G36*
X109290074Y-87927513D02*
X109462474Y-87979811D01*
X109462476Y-87979812D01*
X109621363Y-88064739D01*
X109760629Y-88179031D01*
X109874921Y-88318297D01*
X109959848Y-88477184D01*
X109959849Y-88477186D01*
X110012147Y-88649586D01*
X110029805Y-88828880D01*
X110012147Y-89008174D01*
X109960213Y-89179374D01*
X109959848Y-89180576D01*
X109874921Y-89339463D01*
X109760629Y-89478729D01*
X109621363Y-89593021D01*
X109462476Y-89677948D01*
X109462474Y-89677949D01*
X109290074Y-89730247D01*
X109155711Y-89743480D01*
X109065849Y-89743480D01*
X108931486Y-89730247D01*
X108759086Y-89677949D01*
X108759084Y-89677948D01*
X108600197Y-89593021D01*
X108460931Y-89478729D01*
X108346639Y-89339463D01*
X108261712Y-89180576D01*
X108261347Y-89179374D01*
X108209413Y-89008174D01*
X108191755Y-88828880D01*
X108209413Y-88649586D01*
X108261711Y-88477186D01*
X108261712Y-88477184D01*
X108346639Y-88318297D01*
X108460931Y-88179031D01*
X108600197Y-88064739D01*
X108759084Y-87979812D01*
X108759086Y-87979811D01*
X108931486Y-87927513D01*
X109065849Y-87914280D01*
X109155711Y-87914280D01*
X109290074Y-87927513D01*
X109290074Y-87927513D01*
G37*
G36*
X111830074Y-87927513D02*
X112002474Y-87979811D01*
X112002476Y-87979812D01*
X112161363Y-88064739D01*
X112300629Y-88179031D01*
X112414921Y-88318297D01*
X112499848Y-88477184D01*
X112499849Y-88477186D01*
X112552147Y-88649586D01*
X112569805Y-88828880D01*
X112552147Y-89008174D01*
X112500213Y-89179374D01*
X112499848Y-89180576D01*
X112414921Y-89339463D01*
X112300629Y-89478729D01*
X112161363Y-89593021D01*
X112002476Y-89677948D01*
X112002474Y-89677949D01*
X111830074Y-89730247D01*
X111695711Y-89743480D01*
X111605849Y-89743480D01*
X111471486Y-89730247D01*
X111299086Y-89677949D01*
X111299084Y-89677948D01*
X111140197Y-89593021D01*
X111000931Y-89478729D01*
X110886639Y-89339463D01*
X110801712Y-89180576D01*
X110801347Y-89179374D01*
X110749413Y-89008174D01*
X110731755Y-88828880D01*
X110749413Y-88649586D01*
X110801711Y-88477186D01*
X110801712Y-88477184D01*
X110886639Y-88318297D01*
X111000931Y-88179031D01*
X111140197Y-88064739D01*
X111299084Y-87979812D01*
X111299086Y-87979811D01*
X111471486Y-87927513D01*
X111605849Y-87914280D01*
X111695711Y-87914280D01*
X111830074Y-87927513D01*
X111830074Y-87927513D01*
G37*
G36*
X131134074Y-87927513D02*
X131306474Y-87979811D01*
X131306476Y-87979812D01*
X131465363Y-88064739D01*
X131604629Y-88179031D01*
X131718921Y-88318297D01*
X131803848Y-88477184D01*
X131803849Y-88477186D01*
X131856147Y-88649586D01*
X131873805Y-88828880D01*
X131856147Y-89008174D01*
X131804213Y-89179374D01*
X131803848Y-89180576D01*
X131718921Y-89339463D01*
X131604629Y-89478729D01*
X131465363Y-89593021D01*
X131306476Y-89677948D01*
X131306474Y-89677949D01*
X131134074Y-89730247D01*
X130999711Y-89743480D01*
X130909849Y-89743480D01*
X130775486Y-89730247D01*
X130603086Y-89677949D01*
X130603084Y-89677948D01*
X130444197Y-89593021D01*
X130304931Y-89478729D01*
X130190639Y-89339463D01*
X130105712Y-89180576D01*
X130105347Y-89179374D01*
X130053413Y-89008174D01*
X130035755Y-88828880D01*
X130053413Y-88649586D01*
X130105711Y-88477186D01*
X130105712Y-88477184D01*
X130190639Y-88318297D01*
X130304931Y-88179031D01*
X130444197Y-88064739D01*
X130603084Y-87979812D01*
X130603086Y-87979811D01*
X130775486Y-87927513D01*
X130909849Y-87914280D01*
X130999711Y-87914280D01*
X131134074Y-87927513D01*
X131134074Y-87927513D01*
G37*
G36*
X114370074Y-87927513D02*
X114542474Y-87979811D01*
X114542476Y-87979812D01*
X114701363Y-88064739D01*
X114840629Y-88179031D01*
X114954921Y-88318297D01*
X115039848Y-88477184D01*
X115039849Y-88477186D01*
X115092147Y-88649586D01*
X115109805Y-88828880D01*
X115092147Y-89008174D01*
X115040213Y-89179374D01*
X115039848Y-89180576D01*
X114954921Y-89339463D01*
X114840629Y-89478729D01*
X114701363Y-89593021D01*
X114542476Y-89677948D01*
X114542474Y-89677949D01*
X114370074Y-89730247D01*
X114235711Y-89743480D01*
X114145849Y-89743480D01*
X114011486Y-89730247D01*
X113839086Y-89677949D01*
X113839084Y-89677948D01*
X113680197Y-89593021D01*
X113540931Y-89478729D01*
X113426639Y-89339463D01*
X113341712Y-89180576D01*
X113341347Y-89179374D01*
X113289413Y-89008174D01*
X113271755Y-88828880D01*
X113289413Y-88649586D01*
X113341711Y-88477186D01*
X113341712Y-88477184D01*
X113426639Y-88318297D01*
X113540931Y-88179031D01*
X113680197Y-88064739D01*
X113839084Y-87979812D01*
X113839086Y-87979811D01*
X114011486Y-87927513D01*
X114145849Y-87914280D01*
X114235711Y-87914280D01*
X114370074Y-87927513D01*
X114370074Y-87927513D01*
G37*
M02*
