G04 #@! TF.GenerationSoftware,KiCad,Pcbnew,(5.0.0)*
G04 #@! TF.CreationDate,2020-01-14T16:13:25-06:00*
G04 #@! TF.ProjectId,Igniter,49676E697465722E6B696361645F7063,rev?*
G04 #@! TF.SameCoordinates,Original*
G04 #@! TF.FileFunction,Paste,Top*
G04 #@! TF.FilePolarity,Positive*
%FSLAX46Y46*%
G04 Gerber Fmt 4.6, Leading zero omitted, Abs format (unit mm)*
G04 Created by KiCad (PCBNEW (5.0.0)) date 01/14/20 16:13:25*
%MOMM*%
%LPD*%
G01*
G04 APERTURE LIST*
%ADD10R,2.000000X3.800000*%
%ADD11R,2.000000X1.500000*%
%ADD12C,0.100000*%
%ADD13C,1.250000*%
%ADD14R,1.300000X0.800000*%
%ADD15R,1.400000X0.700000*%
%ADD16R,1.900000X1.500000*%
%ADD17R,1.400000X1.000000*%
%ADD18R,1.200000X1.200000*%
%ADD19R,3.200000X1.200000*%
%ADD20R,1.200000X0.700000*%
%ADD21R,0.500000X0.500000*%
%ADD22R,0.800000X1.200000*%
%ADD23C,0.200000*%
%ADD24R,1.750000X0.550000*%
%ADD25R,1.100000X1.100000*%
G04 APERTURE END LIST*
D10*
G04 #@! TO.C,Q2*
X167132400Y-96710500D03*
D11*
X160832400Y-96710500D03*
X160832400Y-99010500D03*
X160832400Y-94410500D03*
G04 #@! TD*
D12*
G04 #@! TO.C,D12*
G36*
X112435904Y-132908004D02*
X112460173Y-132911604D01*
X112483971Y-132917565D01*
X112507071Y-132925830D01*
X112529249Y-132936320D01*
X112550293Y-132948933D01*
X112569998Y-132963547D01*
X112588177Y-132980023D01*
X112604653Y-132998202D01*
X112619267Y-133017907D01*
X112631880Y-133038951D01*
X112642370Y-133061129D01*
X112650635Y-133084229D01*
X112656596Y-133108027D01*
X112660196Y-133132296D01*
X112661400Y-133156800D01*
X112661400Y-134406800D01*
X112660196Y-134431304D01*
X112656596Y-134455573D01*
X112650635Y-134479371D01*
X112642370Y-134502471D01*
X112631880Y-134524649D01*
X112619267Y-134545693D01*
X112604653Y-134565398D01*
X112588177Y-134583577D01*
X112569998Y-134600053D01*
X112550293Y-134614667D01*
X112529249Y-134627280D01*
X112507071Y-134637770D01*
X112483971Y-134646035D01*
X112460173Y-134651996D01*
X112435904Y-134655596D01*
X112411400Y-134656800D01*
X111661400Y-134656800D01*
X111636896Y-134655596D01*
X111612627Y-134651996D01*
X111588829Y-134646035D01*
X111565729Y-134637770D01*
X111543551Y-134627280D01*
X111522507Y-134614667D01*
X111502802Y-134600053D01*
X111484623Y-134583577D01*
X111468147Y-134565398D01*
X111453533Y-134545693D01*
X111440920Y-134524649D01*
X111430430Y-134502471D01*
X111422165Y-134479371D01*
X111416204Y-134455573D01*
X111412604Y-134431304D01*
X111411400Y-134406800D01*
X111411400Y-133156800D01*
X111412604Y-133132296D01*
X111416204Y-133108027D01*
X111422165Y-133084229D01*
X111430430Y-133061129D01*
X111440920Y-133038951D01*
X111453533Y-133017907D01*
X111468147Y-132998202D01*
X111484623Y-132980023D01*
X111502802Y-132963547D01*
X111522507Y-132948933D01*
X111543551Y-132936320D01*
X111565729Y-132925830D01*
X111588829Y-132917565D01*
X111612627Y-132911604D01*
X111636896Y-132908004D01*
X111661400Y-132906800D01*
X112411400Y-132906800D01*
X112435904Y-132908004D01*
X112435904Y-132908004D01*
G37*
D13*
X112036400Y-133781800D03*
D12*
G36*
X115235904Y-132908004D02*
X115260173Y-132911604D01*
X115283971Y-132917565D01*
X115307071Y-132925830D01*
X115329249Y-132936320D01*
X115350293Y-132948933D01*
X115369998Y-132963547D01*
X115388177Y-132980023D01*
X115404653Y-132998202D01*
X115419267Y-133017907D01*
X115431880Y-133038951D01*
X115442370Y-133061129D01*
X115450635Y-133084229D01*
X115456596Y-133108027D01*
X115460196Y-133132296D01*
X115461400Y-133156800D01*
X115461400Y-134406800D01*
X115460196Y-134431304D01*
X115456596Y-134455573D01*
X115450635Y-134479371D01*
X115442370Y-134502471D01*
X115431880Y-134524649D01*
X115419267Y-134545693D01*
X115404653Y-134565398D01*
X115388177Y-134583577D01*
X115369998Y-134600053D01*
X115350293Y-134614667D01*
X115329249Y-134627280D01*
X115307071Y-134637770D01*
X115283971Y-134646035D01*
X115260173Y-134651996D01*
X115235904Y-134655596D01*
X115211400Y-134656800D01*
X114461400Y-134656800D01*
X114436896Y-134655596D01*
X114412627Y-134651996D01*
X114388829Y-134646035D01*
X114365729Y-134637770D01*
X114343551Y-134627280D01*
X114322507Y-134614667D01*
X114302802Y-134600053D01*
X114284623Y-134583577D01*
X114268147Y-134565398D01*
X114253533Y-134545693D01*
X114240920Y-134524649D01*
X114230430Y-134502471D01*
X114222165Y-134479371D01*
X114216204Y-134455573D01*
X114212604Y-134431304D01*
X114211400Y-134406800D01*
X114211400Y-133156800D01*
X114212604Y-133132296D01*
X114216204Y-133108027D01*
X114222165Y-133084229D01*
X114230430Y-133061129D01*
X114240920Y-133038951D01*
X114253533Y-133017907D01*
X114268147Y-132998202D01*
X114284623Y-132980023D01*
X114302802Y-132963547D01*
X114322507Y-132948933D01*
X114343551Y-132936320D01*
X114365729Y-132925830D01*
X114388829Y-132917565D01*
X114412627Y-132911604D01*
X114436896Y-132908004D01*
X114461400Y-132906800D01*
X115211400Y-132906800D01*
X115235904Y-132908004D01*
X115235904Y-132908004D01*
G37*
D13*
X114836400Y-133781800D03*
G04 #@! TD*
D14*
G04 #@! TO.C,IC1*
X108470300Y-113139300D03*
X108470300Y-114419300D03*
X108470300Y-115679300D03*
X108470300Y-116949300D03*
X108470300Y-118229300D03*
X108470300Y-119499300D03*
X108470300Y-120759300D03*
X108470300Y-122039300D03*
X114770300Y-122039300D03*
X114770300Y-120759300D03*
X114770300Y-119499300D03*
X114770300Y-118229300D03*
X114770300Y-116949300D03*
X114770300Y-115679300D03*
X114770300Y-114419300D03*
X114770300Y-113139300D03*
G04 #@! TD*
D15*
G04 #@! TO.C,J13*
X102240000Y-113430000D03*
D16*
X87240000Y-109630000D03*
D17*
X102240000Y-111530000D03*
D18*
X98040000Y-122930000D03*
D19*
X88240000Y-122930000D03*
D20*
X102340000Y-122080000D03*
D15*
X102240000Y-114530000D03*
X102240000Y-115630000D03*
X102240000Y-116730000D03*
X102240000Y-117830000D03*
X102240000Y-118930000D03*
X102240000Y-120030000D03*
X102240000Y-121130000D03*
D21*
X86540000Y-110630000D03*
D22*
X91840000Y-122930000D03*
D23*
X86790000Y-110380000D03*
D12*
G36*
X86648579Y-110380000D02*
X86790000Y-110238579D01*
X86931421Y-110380000D01*
X86790000Y-110521421D01*
X86648579Y-110380000D01*
X86648579Y-110380000D01*
G37*
G04 #@! TD*
G04 #@! TO.C,D13*
G36*
X194019404Y-143316924D02*
X194043673Y-143320524D01*
X194067471Y-143326485D01*
X194090571Y-143334750D01*
X194112749Y-143345240D01*
X194133793Y-143357853D01*
X194153498Y-143372467D01*
X194171677Y-143388943D01*
X194188153Y-143407122D01*
X194202767Y-143426827D01*
X194215380Y-143447871D01*
X194225870Y-143470049D01*
X194234135Y-143493149D01*
X194240096Y-143516947D01*
X194243696Y-143541216D01*
X194244900Y-143565720D01*
X194244900Y-144815720D01*
X194243696Y-144840224D01*
X194240096Y-144864493D01*
X194234135Y-144888291D01*
X194225870Y-144911391D01*
X194215380Y-144933569D01*
X194202767Y-144954613D01*
X194188153Y-144974318D01*
X194171677Y-144992497D01*
X194153498Y-145008973D01*
X194133793Y-145023587D01*
X194112749Y-145036200D01*
X194090571Y-145046690D01*
X194067471Y-145054955D01*
X194043673Y-145060916D01*
X194019404Y-145064516D01*
X193994900Y-145065720D01*
X193244900Y-145065720D01*
X193220396Y-145064516D01*
X193196127Y-145060916D01*
X193172329Y-145054955D01*
X193149229Y-145046690D01*
X193127051Y-145036200D01*
X193106007Y-145023587D01*
X193086302Y-145008973D01*
X193068123Y-144992497D01*
X193051647Y-144974318D01*
X193037033Y-144954613D01*
X193024420Y-144933569D01*
X193013930Y-144911391D01*
X193005665Y-144888291D01*
X192999704Y-144864493D01*
X192996104Y-144840224D01*
X192994900Y-144815720D01*
X192994900Y-143565720D01*
X192996104Y-143541216D01*
X192999704Y-143516947D01*
X193005665Y-143493149D01*
X193013930Y-143470049D01*
X193024420Y-143447871D01*
X193037033Y-143426827D01*
X193051647Y-143407122D01*
X193068123Y-143388943D01*
X193086302Y-143372467D01*
X193106007Y-143357853D01*
X193127051Y-143345240D01*
X193149229Y-143334750D01*
X193172329Y-143326485D01*
X193196127Y-143320524D01*
X193220396Y-143316924D01*
X193244900Y-143315720D01*
X193994900Y-143315720D01*
X194019404Y-143316924D01*
X194019404Y-143316924D01*
G37*
D13*
X193619900Y-144190720D03*
D12*
G36*
X191219404Y-143316924D02*
X191243673Y-143320524D01*
X191267471Y-143326485D01*
X191290571Y-143334750D01*
X191312749Y-143345240D01*
X191333793Y-143357853D01*
X191353498Y-143372467D01*
X191371677Y-143388943D01*
X191388153Y-143407122D01*
X191402767Y-143426827D01*
X191415380Y-143447871D01*
X191425870Y-143470049D01*
X191434135Y-143493149D01*
X191440096Y-143516947D01*
X191443696Y-143541216D01*
X191444900Y-143565720D01*
X191444900Y-144815720D01*
X191443696Y-144840224D01*
X191440096Y-144864493D01*
X191434135Y-144888291D01*
X191425870Y-144911391D01*
X191415380Y-144933569D01*
X191402767Y-144954613D01*
X191388153Y-144974318D01*
X191371677Y-144992497D01*
X191353498Y-145008973D01*
X191333793Y-145023587D01*
X191312749Y-145036200D01*
X191290571Y-145046690D01*
X191267471Y-145054955D01*
X191243673Y-145060916D01*
X191219404Y-145064516D01*
X191194900Y-145065720D01*
X190444900Y-145065720D01*
X190420396Y-145064516D01*
X190396127Y-145060916D01*
X190372329Y-145054955D01*
X190349229Y-145046690D01*
X190327051Y-145036200D01*
X190306007Y-145023587D01*
X190286302Y-145008973D01*
X190268123Y-144992497D01*
X190251647Y-144974318D01*
X190237033Y-144954613D01*
X190224420Y-144933569D01*
X190213930Y-144911391D01*
X190205665Y-144888291D01*
X190199704Y-144864493D01*
X190196104Y-144840224D01*
X190194900Y-144815720D01*
X190194900Y-143565720D01*
X190196104Y-143541216D01*
X190199704Y-143516947D01*
X190205665Y-143493149D01*
X190213930Y-143470049D01*
X190224420Y-143447871D01*
X190237033Y-143426827D01*
X190251647Y-143407122D01*
X190268123Y-143388943D01*
X190286302Y-143372467D01*
X190306007Y-143357853D01*
X190327051Y-143345240D01*
X190349229Y-143334750D01*
X190372329Y-143326485D01*
X190396127Y-143320524D01*
X190420396Y-143316924D01*
X190444900Y-143315720D01*
X191194900Y-143315720D01*
X191219404Y-143316924D01*
X191219404Y-143316924D01*
G37*
D13*
X190819900Y-144190720D03*
G04 #@! TD*
D24*
G04 #@! TO.C,U2*
X113609900Y-97866200D03*
X113609900Y-99136200D03*
X113609900Y-100406200D03*
X113609900Y-101676200D03*
X121009900Y-101676200D03*
X121009900Y-100406200D03*
X121009900Y-99136200D03*
X121009900Y-97866200D03*
G04 #@! TD*
G04 #@! TO.C,U3*
X145736800Y-97866200D03*
X145736800Y-99136200D03*
X145736800Y-100406200D03*
X145736800Y-101676200D03*
X138336800Y-101676200D03*
X138336800Y-100406200D03*
X138336800Y-99136200D03*
X138336800Y-97866200D03*
G04 #@! TD*
G04 #@! TO.C,U4*
X138336800Y-114757200D03*
X138336800Y-116027200D03*
X138336800Y-117297200D03*
X138336800Y-118567200D03*
X145736800Y-118567200D03*
X145736800Y-117297200D03*
X145736800Y-116027200D03*
X145736800Y-114757200D03*
G04 #@! TD*
D12*
G04 #@! TO.C,R1*
G36*
X121128704Y-132908004D02*
X121152973Y-132911604D01*
X121176771Y-132917565D01*
X121199871Y-132925830D01*
X121222049Y-132936320D01*
X121243093Y-132948933D01*
X121262798Y-132963547D01*
X121280977Y-132980023D01*
X121297453Y-132998202D01*
X121312067Y-133017907D01*
X121324680Y-133038951D01*
X121335170Y-133061129D01*
X121343435Y-133084229D01*
X121349396Y-133108027D01*
X121352996Y-133132296D01*
X121354200Y-133156800D01*
X121354200Y-134406800D01*
X121352996Y-134431304D01*
X121349396Y-134455573D01*
X121343435Y-134479371D01*
X121335170Y-134502471D01*
X121324680Y-134524649D01*
X121312067Y-134545693D01*
X121297453Y-134565398D01*
X121280977Y-134583577D01*
X121262798Y-134600053D01*
X121243093Y-134614667D01*
X121222049Y-134627280D01*
X121199871Y-134637770D01*
X121176771Y-134646035D01*
X121152973Y-134651996D01*
X121128704Y-134655596D01*
X121104200Y-134656800D01*
X120354200Y-134656800D01*
X120329696Y-134655596D01*
X120305427Y-134651996D01*
X120281629Y-134646035D01*
X120258529Y-134637770D01*
X120236351Y-134627280D01*
X120215307Y-134614667D01*
X120195602Y-134600053D01*
X120177423Y-134583577D01*
X120160947Y-134565398D01*
X120146333Y-134545693D01*
X120133720Y-134524649D01*
X120123230Y-134502471D01*
X120114965Y-134479371D01*
X120109004Y-134455573D01*
X120105404Y-134431304D01*
X120104200Y-134406800D01*
X120104200Y-133156800D01*
X120105404Y-133132296D01*
X120109004Y-133108027D01*
X120114965Y-133084229D01*
X120123230Y-133061129D01*
X120133720Y-133038951D01*
X120146333Y-133017907D01*
X120160947Y-132998202D01*
X120177423Y-132980023D01*
X120195602Y-132963547D01*
X120215307Y-132948933D01*
X120236351Y-132936320D01*
X120258529Y-132925830D01*
X120281629Y-132917565D01*
X120305427Y-132911604D01*
X120329696Y-132908004D01*
X120354200Y-132906800D01*
X121104200Y-132906800D01*
X121128704Y-132908004D01*
X121128704Y-132908004D01*
G37*
D13*
X120729200Y-133781800D03*
D12*
G36*
X118328704Y-132908004D02*
X118352973Y-132911604D01*
X118376771Y-132917565D01*
X118399871Y-132925830D01*
X118422049Y-132936320D01*
X118443093Y-132948933D01*
X118462798Y-132963547D01*
X118480977Y-132980023D01*
X118497453Y-132998202D01*
X118512067Y-133017907D01*
X118524680Y-133038951D01*
X118535170Y-133061129D01*
X118543435Y-133084229D01*
X118549396Y-133108027D01*
X118552996Y-133132296D01*
X118554200Y-133156800D01*
X118554200Y-134406800D01*
X118552996Y-134431304D01*
X118549396Y-134455573D01*
X118543435Y-134479371D01*
X118535170Y-134502471D01*
X118524680Y-134524649D01*
X118512067Y-134545693D01*
X118497453Y-134565398D01*
X118480977Y-134583577D01*
X118462798Y-134600053D01*
X118443093Y-134614667D01*
X118422049Y-134627280D01*
X118399871Y-134637770D01*
X118376771Y-134646035D01*
X118352973Y-134651996D01*
X118328704Y-134655596D01*
X118304200Y-134656800D01*
X117554200Y-134656800D01*
X117529696Y-134655596D01*
X117505427Y-134651996D01*
X117481629Y-134646035D01*
X117458529Y-134637770D01*
X117436351Y-134627280D01*
X117415307Y-134614667D01*
X117395602Y-134600053D01*
X117377423Y-134583577D01*
X117360947Y-134565398D01*
X117346333Y-134545693D01*
X117333720Y-134524649D01*
X117323230Y-134502471D01*
X117314965Y-134479371D01*
X117309004Y-134455573D01*
X117305404Y-134431304D01*
X117304200Y-134406800D01*
X117304200Y-133156800D01*
X117305404Y-133132296D01*
X117309004Y-133108027D01*
X117314965Y-133084229D01*
X117323230Y-133061129D01*
X117333720Y-133038951D01*
X117346333Y-133017907D01*
X117360947Y-132998202D01*
X117377423Y-132980023D01*
X117395602Y-132963547D01*
X117415307Y-132948933D01*
X117436351Y-132936320D01*
X117458529Y-132925830D01*
X117481629Y-132917565D01*
X117505427Y-132911604D01*
X117529696Y-132908004D01*
X117554200Y-132906800D01*
X118304200Y-132906800D01*
X118328704Y-132908004D01*
X118328704Y-132908004D01*
G37*
D13*
X117929200Y-133781800D03*
G04 #@! TD*
D12*
G04 #@! TO.C,R4*
G36*
X189083864Y-143316924D02*
X189108133Y-143320524D01*
X189131931Y-143326485D01*
X189155031Y-143334750D01*
X189177209Y-143345240D01*
X189198253Y-143357853D01*
X189217958Y-143372467D01*
X189236137Y-143388943D01*
X189252613Y-143407122D01*
X189267227Y-143426827D01*
X189279840Y-143447871D01*
X189290330Y-143470049D01*
X189298595Y-143493149D01*
X189304556Y-143516947D01*
X189308156Y-143541216D01*
X189309360Y-143565720D01*
X189309360Y-144815720D01*
X189308156Y-144840224D01*
X189304556Y-144864493D01*
X189298595Y-144888291D01*
X189290330Y-144911391D01*
X189279840Y-144933569D01*
X189267227Y-144954613D01*
X189252613Y-144974318D01*
X189236137Y-144992497D01*
X189217958Y-145008973D01*
X189198253Y-145023587D01*
X189177209Y-145036200D01*
X189155031Y-145046690D01*
X189131931Y-145054955D01*
X189108133Y-145060916D01*
X189083864Y-145064516D01*
X189059360Y-145065720D01*
X188309360Y-145065720D01*
X188284856Y-145064516D01*
X188260587Y-145060916D01*
X188236789Y-145054955D01*
X188213689Y-145046690D01*
X188191511Y-145036200D01*
X188170467Y-145023587D01*
X188150762Y-145008973D01*
X188132583Y-144992497D01*
X188116107Y-144974318D01*
X188101493Y-144954613D01*
X188088880Y-144933569D01*
X188078390Y-144911391D01*
X188070125Y-144888291D01*
X188064164Y-144864493D01*
X188060564Y-144840224D01*
X188059360Y-144815720D01*
X188059360Y-143565720D01*
X188060564Y-143541216D01*
X188064164Y-143516947D01*
X188070125Y-143493149D01*
X188078390Y-143470049D01*
X188088880Y-143447871D01*
X188101493Y-143426827D01*
X188116107Y-143407122D01*
X188132583Y-143388943D01*
X188150762Y-143372467D01*
X188170467Y-143357853D01*
X188191511Y-143345240D01*
X188213689Y-143334750D01*
X188236789Y-143326485D01*
X188260587Y-143320524D01*
X188284856Y-143316924D01*
X188309360Y-143315720D01*
X189059360Y-143315720D01*
X189083864Y-143316924D01*
X189083864Y-143316924D01*
G37*
D13*
X188684360Y-144190720D03*
D12*
G36*
X186283864Y-143316924D02*
X186308133Y-143320524D01*
X186331931Y-143326485D01*
X186355031Y-143334750D01*
X186377209Y-143345240D01*
X186398253Y-143357853D01*
X186417958Y-143372467D01*
X186436137Y-143388943D01*
X186452613Y-143407122D01*
X186467227Y-143426827D01*
X186479840Y-143447871D01*
X186490330Y-143470049D01*
X186498595Y-143493149D01*
X186504556Y-143516947D01*
X186508156Y-143541216D01*
X186509360Y-143565720D01*
X186509360Y-144815720D01*
X186508156Y-144840224D01*
X186504556Y-144864493D01*
X186498595Y-144888291D01*
X186490330Y-144911391D01*
X186479840Y-144933569D01*
X186467227Y-144954613D01*
X186452613Y-144974318D01*
X186436137Y-144992497D01*
X186417958Y-145008973D01*
X186398253Y-145023587D01*
X186377209Y-145036200D01*
X186355031Y-145046690D01*
X186331931Y-145054955D01*
X186308133Y-145060916D01*
X186283864Y-145064516D01*
X186259360Y-145065720D01*
X185509360Y-145065720D01*
X185484856Y-145064516D01*
X185460587Y-145060916D01*
X185436789Y-145054955D01*
X185413689Y-145046690D01*
X185391511Y-145036200D01*
X185370467Y-145023587D01*
X185350762Y-145008973D01*
X185332583Y-144992497D01*
X185316107Y-144974318D01*
X185301493Y-144954613D01*
X185288880Y-144933569D01*
X185278390Y-144911391D01*
X185270125Y-144888291D01*
X185264164Y-144864493D01*
X185260564Y-144840224D01*
X185259360Y-144815720D01*
X185259360Y-143565720D01*
X185260564Y-143541216D01*
X185264164Y-143516947D01*
X185270125Y-143493149D01*
X185278390Y-143470049D01*
X185288880Y-143447871D01*
X185301493Y-143426827D01*
X185316107Y-143407122D01*
X185332583Y-143388943D01*
X185350762Y-143372467D01*
X185370467Y-143357853D01*
X185391511Y-143345240D01*
X185413689Y-143334750D01*
X185436789Y-143326485D01*
X185460587Y-143320524D01*
X185484856Y-143316924D01*
X185509360Y-143315720D01*
X186259360Y-143315720D01*
X186283864Y-143316924D01*
X186283864Y-143316924D01*
G37*
D13*
X185884360Y-144190720D03*
G04 #@! TD*
D12*
G04 #@! TO.C,R5*
G36*
X109975104Y-100992904D02*
X109999373Y-100996504D01*
X110023171Y-101002465D01*
X110046271Y-101010730D01*
X110068449Y-101021220D01*
X110089493Y-101033833D01*
X110109198Y-101048447D01*
X110127377Y-101064923D01*
X110143853Y-101083102D01*
X110158467Y-101102807D01*
X110171080Y-101123851D01*
X110181570Y-101146029D01*
X110189835Y-101169129D01*
X110195796Y-101192927D01*
X110199396Y-101217196D01*
X110200600Y-101241700D01*
X110200600Y-102491700D01*
X110199396Y-102516204D01*
X110195796Y-102540473D01*
X110189835Y-102564271D01*
X110181570Y-102587371D01*
X110171080Y-102609549D01*
X110158467Y-102630593D01*
X110143853Y-102650298D01*
X110127377Y-102668477D01*
X110109198Y-102684953D01*
X110089493Y-102699567D01*
X110068449Y-102712180D01*
X110046271Y-102722670D01*
X110023171Y-102730935D01*
X109999373Y-102736896D01*
X109975104Y-102740496D01*
X109950600Y-102741700D01*
X109200600Y-102741700D01*
X109176096Y-102740496D01*
X109151827Y-102736896D01*
X109128029Y-102730935D01*
X109104929Y-102722670D01*
X109082751Y-102712180D01*
X109061707Y-102699567D01*
X109042002Y-102684953D01*
X109023823Y-102668477D01*
X109007347Y-102650298D01*
X108992733Y-102630593D01*
X108980120Y-102609549D01*
X108969630Y-102587371D01*
X108961365Y-102564271D01*
X108955404Y-102540473D01*
X108951804Y-102516204D01*
X108950600Y-102491700D01*
X108950600Y-101241700D01*
X108951804Y-101217196D01*
X108955404Y-101192927D01*
X108961365Y-101169129D01*
X108969630Y-101146029D01*
X108980120Y-101123851D01*
X108992733Y-101102807D01*
X109007347Y-101083102D01*
X109023823Y-101064923D01*
X109042002Y-101048447D01*
X109061707Y-101033833D01*
X109082751Y-101021220D01*
X109104929Y-101010730D01*
X109128029Y-101002465D01*
X109151827Y-100996504D01*
X109176096Y-100992904D01*
X109200600Y-100991700D01*
X109950600Y-100991700D01*
X109975104Y-100992904D01*
X109975104Y-100992904D01*
G37*
D13*
X109575600Y-101866700D03*
D12*
G36*
X107175104Y-100992904D02*
X107199373Y-100996504D01*
X107223171Y-101002465D01*
X107246271Y-101010730D01*
X107268449Y-101021220D01*
X107289493Y-101033833D01*
X107309198Y-101048447D01*
X107327377Y-101064923D01*
X107343853Y-101083102D01*
X107358467Y-101102807D01*
X107371080Y-101123851D01*
X107381570Y-101146029D01*
X107389835Y-101169129D01*
X107395796Y-101192927D01*
X107399396Y-101217196D01*
X107400600Y-101241700D01*
X107400600Y-102491700D01*
X107399396Y-102516204D01*
X107395796Y-102540473D01*
X107389835Y-102564271D01*
X107381570Y-102587371D01*
X107371080Y-102609549D01*
X107358467Y-102630593D01*
X107343853Y-102650298D01*
X107327377Y-102668477D01*
X107309198Y-102684953D01*
X107289493Y-102699567D01*
X107268449Y-102712180D01*
X107246271Y-102722670D01*
X107223171Y-102730935D01*
X107199373Y-102736896D01*
X107175104Y-102740496D01*
X107150600Y-102741700D01*
X106400600Y-102741700D01*
X106376096Y-102740496D01*
X106351827Y-102736896D01*
X106328029Y-102730935D01*
X106304929Y-102722670D01*
X106282751Y-102712180D01*
X106261707Y-102699567D01*
X106242002Y-102684953D01*
X106223823Y-102668477D01*
X106207347Y-102650298D01*
X106192733Y-102630593D01*
X106180120Y-102609549D01*
X106169630Y-102587371D01*
X106161365Y-102564271D01*
X106155404Y-102540473D01*
X106151804Y-102516204D01*
X106150600Y-102491700D01*
X106150600Y-101241700D01*
X106151804Y-101217196D01*
X106155404Y-101192927D01*
X106161365Y-101169129D01*
X106169630Y-101146029D01*
X106180120Y-101123851D01*
X106192733Y-101102807D01*
X106207347Y-101083102D01*
X106223823Y-101064923D01*
X106242002Y-101048447D01*
X106261707Y-101033833D01*
X106282751Y-101021220D01*
X106304929Y-101010730D01*
X106328029Y-101002465D01*
X106351827Y-100996504D01*
X106376096Y-100992904D01*
X106400600Y-100991700D01*
X107150600Y-100991700D01*
X107175104Y-100992904D01*
X107175104Y-100992904D01*
G37*
D13*
X106775600Y-101866700D03*
G04 #@! TD*
D12*
G04 #@! TO.C,R6*
G36*
X197778904Y-89111404D02*
X197803173Y-89115004D01*
X197826971Y-89120965D01*
X197850071Y-89129230D01*
X197872249Y-89139720D01*
X197893293Y-89152333D01*
X197912998Y-89166947D01*
X197931177Y-89183423D01*
X197947653Y-89201602D01*
X197962267Y-89221307D01*
X197974880Y-89242351D01*
X197985370Y-89264529D01*
X197993635Y-89287629D01*
X197999596Y-89311427D01*
X198003196Y-89335696D01*
X198004400Y-89360200D01*
X198004400Y-90110200D01*
X198003196Y-90134704D01*
X197999596Y-90158973D01*
X197993635Y-90182771D01*
X197985370Y-90205871D01*
X197974880Y-90228049D01*
X197962267Y-90249093D01*
X197947653Y-90268798D01*
X197931177Y-90286977D01*
X197912998Y-90303453D01*
X197893293Y-90318067D01*
X197872249Y-90330680D01*
X197850071Y-90341170D01*
X197826971Y-90349435D01*
X197803173Y-90355396D01*
X197778904Y-90358996D01*
X197754400Y-90360200D01*
X196504400Y-90360200D01*
X196479896Y-90358996D01*
X196455627Y-90355396D01*
X196431829Y-90349435D01*
X196408729Y-90341170D01*
X196386551Y-90330680D01*
X196365507Y-90318067D01*
X196345802Y-90303453D01*
X196327623Y-90286977D01*
X196311147Y-90268798D01*
X196296533Y-90249093D01*
X196283920Y-90228049D01*
X196273430Y-90205871D01*
X196265165Y-90182771D01*
X196259204Y-90158973D01*
X196255604Y-90134704D01*
X196254400Y-90110200D01*
X196254400Y-89360200D01*
X196255604Y-89335696D01*
X196259204Y-89311427D01*
X196265165Y-89287629D01*
X196273430Y-89264529D01*
X196283920Y-89242351D01*
X196296533Y-89221307D01*
X196311147Y-89201602D01*
X196327623Y-89183423D01*
X196345802Y-89166947D01*
X196365507Y-89152333D01*
X196386551Y-89139720D01*
X196408729Y-89129230D01*
X196431829Y-89120965D01*
X196455627Y-89115004D01*
X196479896Y-89111404D01*
X196504400Y-89110200D01*
X197754400Y-89110200D01*
X197778904Y-89111404D01*
X197778904Y-89111404D01*
G37*
D13*
X197129400Y-89735200D03*
D12*
G36*
X197778904Y-91911404D02*
X197803173Y-91915004D01*
X197826971Y-91920965D01*
X197850071Y-91929230D01*
X197872249Y-91939720D01*
X197893293Y-91952333D01*
X197912998Y-91966947D01*
X197931177Y-91983423D01*
X197947653Y-92001602D01*
X197962267Y-92021307D01*
X197974880Y-92042351D01*
X197985370Y-92064529D01*
X197993635Y-92087629D01*
X197999596Y-92111427D01*
X198003196Y-92135696D01*
X198004400Y-92160200D01*
X198004400Y-92910200D01*
X198003196Y-92934704D01*
X197999596Y-92958973D01*
X197993635Y-92982771D01*
X197985370Y-93005871D01*
X197974880Y-93028049D01*
X197962267Y-93049093D01*
X197947653Y-93068798D01*
X197931177Y-93086977D01*
X197912998Y-93103453D01*
X197893293Y-93118067D01*
X197872249Y-93130680D01*
X197850071Y-93141170D01*
X197826971Y-93149435D01*
X197803173Y-93155396D01*
X197778904Y-93158996D01*
X197754400Y-93160200D01*
X196504400Y-93160200D01*
X196479896Y-93158996D01*
X196455627Y-93155396D01*
X196431829Y-93149435D01*
X196408729Y-93141170D01*
X196386551Y-93130680D01*
X196365507Y-93118067D01*
X196345802Y-93103453D01*
X196327623Y-93086977D01*
X196311147Y-93068798D01*
X196296533Y-93049093D01*
X196283920Y-93028049D01*
X196273430Y-93005871D01*
X196265165Y-92982771D01*
X196259204Y-92958973D01*
X196255604Y-92934704D01*
X196254400Y-92910200D01*
X196254400Y-92160200D01*
X196255604Y-92135696D01*
X196259204Y-92111427D01*
X196265165Y-92087629D01*
X196273430Y-92064529D01*
X196283920Y-92042351D01*
X196296533Y-92021307D01*
X196311147Y-92001602D01*
X196327623Y-91983423D01*
X196345802Y-91966947D01*
X196365507Y-91952333D01*
X196386551Y-91939720D01*
X196408729Y-91929230D01*
X196431829Y-91920965D01*
X196455627Y-91915004D01*
X196479896Y-91911404D01*
X196504400Y-91910200D01*
X197754400Y-91910200D01*
X197778904Y-91911404D01*
X197778904Y-91911404D01*
G37*
D13*
X197129400Y-92535200D03*
G04 #@! TD*
D12*
G04 #@! TO.C,R7*
G36*
X134702004Y-100992904D02*
X134726273Y-100996504D01*
X134750071Y-101002465D01*
X134773171Y-101010730D01*
X134795349Y-101021220D01*
X134816393Y-101033833D01*
X134836098Y-101048447D01*
X134854277Y-101064923D01*
X134870753Y-101083102D01*
X134885367Y-101102807D01*
X134897980Y-101123851D01*
X134908470Y-101146029D01*
X134916735Y-101169129D01*
X134922696Y-101192927D01*
X134926296Y-101217196D01*
X134927500Y-101241700D01*
X134927500Y-102491700D01*
X134926296Y-102516204D01*
X134922696Y-102540473D01*
X134916735Y-102564271D01*
X134908470Y-102587371D01*
X134897980Y-102609549D01*
X134885367Y-102630593D01*
X134870753Y-102650298D01*
X134854277Y-102668477D01*
X134836098Y-102684953D01*
X134816393Y-102699567D01*
X134795349Y-102712180D01*
X134773171Y-102722670D01*
X134750071Y-102730935D01*
X134726273Y-102736896D01*
X134702004Y-102740496D01*
X134677500Y-102741700D01*
X133927500Y-102741700D01*
X133902996Y-102740496D01*
X133878727Y-102736896D01*
X133854929Y-102730935D01*
X133831829Y-102722670D01*
X133809651Y-102712180D01*
X133788607Y-102699567D01*
X133768902Y-102684953D01*
X133750723Y-102668477D01*
X133734247Y-102650298D01*
X133719633Y-102630593D01*
X133707020Y-102609549D01*
X133696530Y-102587371D01*
X133688265Y-102564271D01*
X133682304Y-102540473D01*
X133678704Y-102516204D01*
X133677500Y-102491700D01*
X133677500Y-101241700D01*
X133678704Y-101217196D01*
X133682304Y-101192927D01*
X133688265Y-101169129D01*
X133696530Y-101146029D01*
X133707020Y-101123851D01*
X133719633Y-101102807D01*
X133734247Y-101083102D01*
X133750723Y-101064923D01*
X133768902Y-101048447D01*
X133788607Y-101033833D01*
X133809651Y-101021220D01*
X133831829Y-101010730D01*
X133854929Y-101002465D01*
X133878727Y-100996504D01*
X133902996Y-100992904D01*
X133927500Y-100991700D01*
X134677500Y-100991700D01*
X134702004Y-100992904D01*
X134702004Y-100992904D01*
G37*
D13*
X134302500Y-101866700D03*
D12*
G36*
X131902004Y-100992904D02*
X131926273Y-100996504D01*
X131950071Y-101002465D01*
X131973171Y-101010730D01*
X131995349Y-101021220D01*
X132016393Y-101033833D01*
X132036098Y-101048447D01*
X132054277Y-101064923D01*
X132070753Y-101083102D01*
X132085367Y-101102807D01*
X132097980Y-101123851D01*
X132108470Y-101146029D01*
X132116735Y-101169129D01*
X132122696Y-101192927D01*
X132126296Y-101217196D01*
X132127500Y-101241700D01*
X132127500Y-102491700D01*
X132126296Y-102516204D01*
X132122696Y-102540473D01*
X132116735Y-102564271D01*
X132108470Y-102587371D01*
X132097980Y-102609549D01*
X132085367Y-102630593D01*
X132070753Y-102650298D01*
X132054277Y-102668477D01*
X132036098Y-102684953D01*
X132016393Y-102699567D01*
X131995349Y-102712180D01*
X131973171Y-102722670D01*
X131950071Y-102730935D01*
X131926273Y-102736896D01*
X131902004Y-102740496D01*
X131877500Y-102741700D01*
X131127500Y-102741700D01*
X131102996Y-102740496D01*
X131078727Y-102736896D01*
X131054929Y-102730935D01*
X131031829Y-102722670D01*
X131009651Y-102712180D01*
X130988607Y-102699567D01*
X130968902Y-102684953D01*
X130950723Y-102668477D01*
X130934247Y-102650298D01*
X130919633Y-102630593D01*
X130907020Y-102609549D01*
X130896530Y-102587371D01*
X130888265Y-102564271D01*
X130882304Y-102540473D01*
X130878704Y-102516204D01*
X130877500Y-102491700D01*
X130877500Y-101241700D01*
X130878704Y-101217196D01*
X130882304Y-101192927D01*
X130888265Y-101169129D01*
X130896530Y-101146029D01*
X130907020Y-101123851D01*
X130919633Y-101102807D01*
X130934247Y-101083102D01*
X130950723Y-101064923D01*
X130968902Y-101048447D01*
X130988607Y-101033833D01*
X131009651Y-101021220D01*
X131031829Y-101010730D01*
X131054929Y-101002465D01*
X131078727Y-100996504D01*
X131102996Y-100992904D01*
X131127500Y-100991700D01*
X131877500Y-100991700D01*
X131902004Y-100992904D01*
X131902004Y-100992904D01*
G37*
D13*
X131502500Y-101866700D03*
G04 #@! TD*
D12*
G04 #@! TO.C,R8*
G36*
X107175104Y-96141504D02*
X107199373Y-96145104D01*
X107223171Y-96151065D01*
X107246271Y-96159330D01*
X107268449Y-96169820D01*
X107289493Y-96182433D01*
X107309198Y-96197047D01*
X107327377Y-96213523D01*
X107343853Y-96231702D01*
X107358467Y-96251407D01*
X107371080Y-96272451D01*
X107381570Y-96294629D01*
X107389835Y-96317729D01*
X107395796Y-96341527D01*
X107399396Y-96365796D01*
X107400600Y-96390300D01*
X107400600Y-97640300D01*
X107399396Y-97664804D01*
X107395796Y-97689073D01*
X107389835Y-97712871D01*
X107381570Y-97735971D01*
X107371080Y-97758149D01*
X107358467Y-97779193D01*
X107343853Y-97798898D01*
X107327377Y-97817077D01*
X107309198Y-97833553D01*
X107289493Y-97848167D01*
X107268449Y-97860780D01*
X107246271Y-97871270D01*
X107223171Y-97879535D01*
X107199373Y-97885496D01*
X107175104Y-97889096D01*
X107150600Y-97890300D01*
X106400600Y-97890300D01*
X106376096Y-97889096D01*
X106351827Y-97885496D01*
X106328029Y-97879535D01*
X106304929Y-97871270D01*
X106282751Y-97860780D01*
X106261707Y-97848167D01*
X106242002Y-97833553D01*
X106223823Y-97817077D01*
X106207347Y-97798898D01*
X106192733Y-97779193D01*
X106180120Y-97758149D01*
X106169630Y-97735971D01*
X106161365Y-97712871D01*
X106155404Y-97689073D01*
X106151804Y-97664804D01*
X106150600Y-97640300D01*
X106150600Y-96390300D01*
X106151804Y-96365796D01*
X106155404Y-96341527D01*
X106161365Y-96317729D01*
X106169630Y-96294629D01*
X106180120Y-96272451D01*
X106192733Y-96251407D01*
X106207347Y-96231702D01*
X106223823Y-96213523D01*
X106242002Y-96197047D01*
X106261707Y-96182433D01*
X106282751Y-96169820D01*
X106304929Y-96159330D01*
X106328029Y-96151065D01*
X106351827Y-96145104D01*
X106376096Y-96141504D01*
X106400600Y-96140300D01*
X107150600Y-96140300D01*
X107175104Y-96141504D01*
X107175104Y-96141504D01*
G37*
D13*
X106775600Y-97015300D03*
D12*
G36*
X109975104Y-96141504D02*
X109999373Y-96145104D01*
X110023171Y-96151065D01*
X110046271Y-96159330D01*
X110068449Y-96169820D01*
X110089493Y-96182433D01*
X110109198Y-96197047D01*
X110127377Y-96213523D01*
X110143853Y-96231702D01*
X110158467Y-96251407D01*
X110171080Y-96272451D01*
X110181570Y-96294629D01*
X110189835Y-96317729D01*
X110195796Y-96341527D01*
X110199396Y-96365796D01*
X110200600Y-96390300D01*
X110200600Y-97640300D01*
X110199396Y-97664804D01*
X110195796Y-97689073D01*
X110189835Y-97712871D01*
X110181570Y-97735971D01*
X110171080Y-97758149D01*
X110158467Y-97779193D01*
X110143853Y-97798898D01*
X110127377Y-97817077D01*
X110109198Y-97833553D01*
X110089493Y-97848167D01*
X110068449Y-97860780D01*
X110046271Y-97871270D01*
X110023171Y-97879535D01*
X109999373Y-97885496D01*
X109975104Y-97889096D01*
X109950600Y-97890300D01*
X109200600Y-97890300D01*
X109176096Y-97889096D01*
X109151827Y-97885496D01*
X109128029Y-97879535D01*
X109104929Y-97871270D01*
X109082751Y-97860780D01*
X109061707Y-97848167D01*
X109042002Y-97833553D01*
X109023823Y-97817077D01*
X109007347Y-97798898D01*
X108992733Y-97779193D01*
X108980120Y-97758149D01*
X108969630Y-97735971D01*
X108961365Y-97712871D01*
X108955404Y-97689073D01*
X108951804Y-97664804D01*
X108950600Y-97640300D01*
X108950600Y-96390300D01*
X108951804Y-96365796D01*
X108955404Y-96341527D01*
X108961365Y-96317729D01*
X108969630Y-96294629D01*
X108980120Y-96272451D01*
X108992733Y-96251407D01*
X109007347Y-96231702D01*
X109023823Y-96213523D01*
X109042002Y-96197047D01*
X109061707Y-96182433D01*
X109082751Y-96169820D01*
X109104929Y-96159330D01*
X109128029Y-96151065D01*
X109151827Y-96145104D01*
X109176096Y-96141504D01*
X109200600Y-96140300D01*
X109950600Y-96140300D01*
X109975104Y-96141504D01*
X109975104Y-96141504D01*
G37*
D13*
X109575600Y-97015300D03*
G04 #@! TD*
D12*
G04 #@! TO.C,R9*
G36*
X134702004Y-96141504D02*
X134726273Y-96145104D01*
X134750071Y-96151065D01*
X134773171Y-96159330D01*
X134795349Y-96169820D01*
X134816393Y-96182433D01*
X134836098Y-96197047D01*
X134854277Y-96213523D01*
X134870753Y-96231702D01*
X134885367Y-96251407D01*
X134897980Y-96272451D01*
X134908470Y-96294629D01*
X134916735Y-96317729D01*
X134922696Y-96341527D01*
X134926296Y-96365796D01*
X134927500Y-96390300D01*
X134927500Y-97640300D01*
X134926296Y-97664804D01*
X134922696Y-97689073D01*
X134916735Y-97712871D01*
X134908470Y-97735971D01*
X134897980Y-97758149D01*
X134885367Y-97779193D01*
X134870753Y-97798898D01*
X134854277Y-97817077D01*
X134836098Y-97833553D01*
X134816393Y-97848167D01*
X134795349Y-97860780D01*
X134773171Y-97871270D01*
X134750071Y-97879535D01*
X134726273Y-97885496D01*
X134702004Y-97889096D01*
X134677500Y-97890300D01*
X133927500Y-97890300D01*
X133902996Y-97889096D01*
X133878727Y-97885496D01*
X133854929Y-97879535D01*
X133831829Y-97871270D01*
X133809651Y-97860780D01*
X133788607Y-97848167D01*
X133768902Y-97833553D01*
X133750723Y-97817077D01*
X133734247Y-97798898D01*
X133719633Y-97779193D01*
X133707020Y-97758149D01*
X133696530Y-97735971D01*
X133688265Y-97712871D01*
X133682304Y-97689073D01*
X133678704Y-97664804D01*
X133677500Y-97640300D01*
X133677500Y-96390300D01*
X133678704Y-96365796D01*
X133682304Y-96341527D01*
X133688265Y-96317729D01*
X133696530Y-96294629D01*
X133707020Y-96272451D01*
X133719633Y-96251407D01*
X133734247Y-96231702D01*
X133750723Y-96213523D01*
X133768902Y-96197047D01*
X133788607Y-96182433D01*
X133809651Y-96169820D01*
X133831829Y-96159330D01*
X133854929Y-96151065D01*
X133878727Y-96145104D01*
X133902996Y-96141504D01*
X133927500Y-96140300D01*
X134677500Y-96140300D01*
X134702004Y-96141504D01*
X134702004Y-96141504D01*
G37*
D13*
X134302500Y-97015300D03*
D12*
G36*
X131902004Y-96141504D02*
X131926273Y-96145104D01*
X131950071Y-96151065D01*
X131973171Y-96159330D01*
X131995349Y-96169820D01*
X132016393Y-96182433D01*
X132036098Y-96197047D01*
X132054277Y-96213523D01*
X132070753Y-96231702D01*
X132085367Y-96251407D01*
X132097980Y-96272451D01*
X132108470Y-96294629D01*
X132116735Y-96317729D01*
X132122696Y-96341527D01*
X132126296Y-96365796D01*
X132127500Y-96390300D01*
X132127500Y-97640300D01*
X132126296Y-97664804D01*
X132122696Y-97689073D01*
X132116735Y-97712871D01*
X132108470Y-97735971D01*
X132097980Y-97758149D01*
X132085367Y-97779193D01*
X132070753Y-97798898D01*
X132054277Y-97817077D01*
X132036098Y-97833553D01*
X132016393Y-97848167D01*
X131995349Y-97860780D01*
X131973171Y-97871270D01*
X131950071Y-97879535D01*
X131926273Y-97885496D01*
X131902004Y-97889096D01*
X131877500Y-97890300D01*
X131127500Y-97890300D01*
X131102996Y-97889096D01*
X131078727Y-97885496D01*
X131054929Y-97879535D01*
X131031829Y-97871270D01*
X131009651Y-97860780D01*
X130988607Y-97848167D01*
X130968902Y-97833553D01*
X130950723Y-97817077D01*
X130934247Y-97798898D01*
X130919633Y-97779193D01*
X130907020Y-97758149D01*
X130896530Y-97735971D01*
X130888265Y-97712871D01*
X130882304Y-97689073D01*
X130878704Y-97664804D01*
X130877500Y-97640300D01*
X130877500Y-96390300D01*
X130878704Y-96365796D01*
X130882304Y-96341527D01*
X130888265Y-96317729D01*
X130896530Y-96294629D01*
X130907020Y-96272451D01*
X130919633Y-96251407D01*
X130934247Y-96231702D01*
X130950723Y-96213523D01*
X130968902Y-96197047D01*
X130988607Y-96182433D01*
X131009651Y-96169820D01*
X131031829Y-96159330D01*
X131054929Y-96151065D01*
X131078727Y-96145104D01*
X131102996Y-96141504D01*
X131127500Y-96140300D01*
X131877500Y-96140300D01*
X131902004Y-96141504D01*
X131902004Y-96141504D01*
G37*
D13*
X131502500Y-97015300D03*
G04 #@! TD*
D12*
G04 #@! TO.C,R10*
G36*
X131902004Y-114023104D02*
X131926273Y-114026704D01*
X131950071Y-114032665D01*
X131973171Y-114040930D01*
X131995349Y-114051420D01*
X132016393Y-114064033D01*
X132036098Y-114078647D01*
X132054277Y-114095123D01*
X132070753Y-114113302D01*
X132085367Y-114133007D01*
X132097980Y-114154051D01*
X132108470Y-114176229D01*
X132116735Y-114199329D01*
X132122696Y-114223127D01*
X132126296Y-114247396D01*
X132127500Y-114271900D01*
X132127500Y-115521900D01*
X132126296Y-115546404D01*
X132122696Y-115570673D01*
X132116735Y-115594471D01*
X132108470Y-115617571D01*
X132097980Y-115639749D01*
X132085367Y-115660793D01*
X132070753Y-115680498D01*
X132054277Y-115698677D01*
X132036098Y-115715153D01*
X132016393Y-115729767D01*
X131995349Y-115742380D01*
X131973171Y-115752870D01*
X131950071Y-115761135D01*
X131926273Y-115767096D01*
X131902004Y-115770696D01*
X131877500Y-115771900D01*
X131127500Y-115771900D01*
X131102996Y-115770696D01*
X131078727Y-115767096D01*
X131054929Y-115761135D01*
X131031829Y-115752870D01*
X131009651Y-115742380D01*
X130988607Y-115729767D01*
X130968902Y-115715153D01*
X130950723Y-115698677D01*
X130934247Y-115680498D01*
X130919633Y-115660793D01*
X130907020Y-115639749D01*
X130896530Y-115617571D01*
X130888265Y-115594471D01*
X130882304Y-115570673D01*
X130878704Y-115546404D01*
X130877500Y-115521900D01*
X130877500Y-114271900D01*
X130878704Y-114247396D01*
X130882304Y-114223127D01*
X130888265Y-114199329D01*
X130896530Y-114176229D01*
X130907020Y-114154051D01*
X130919633Y-114133007D01*
X130934247Y-114113302D01*
X130950723Y-114095123D01*
X130968902Y-114078647D01*
X130988607Y-114064033D01*
X131009651Y-114051420D01*
X131031829Y-114040930D01*
X131054929Y-114032665D01*
X131078727Y-114026704D01*
X131102996Y-114023104D01*
X131127500Y-114021900D01*
X131877500Y-114021900D01*
X131902004Y-114023104D01*
X131902004Y-114023104D01*
G37*
D13*
X131502500Y-114896900D03*
D12*
G36*
X134702004Y-114023104D02*
X134726273Y-114026704D01*
X134750071Y-114032665D01*
X134773171Y-114040930D01*
X134795349Y-114051420D01*
X134816393Y-114064033D01*
X134836098Y-114078647D01*
X134854277Y-114095123D01*
X134870753Y-114113302D01*
X134885367Y-114133007D01*
X134897980Y-114154051D01*
X134908470Y-114176229D01*
X134916735Y-114199329D01*
X134922696Y-114223127D01*
X134926296Y-114247396D01*
X134927500Y-114271900D01*
X134927500Y-115521900D01*
X134926296Y-115546404D01*
X134922696Y-115570673D01*
X134916735Y-115594471D01*
X134908470Y-115617571D01*
X134897980Y-115639749D01*
X134885367Y-115660793D01*
X134870753Y-115680498D01*
X134854277Y-115698677D01*
X134836098Y-115715153D01*
X134816393Y-115729767D01*
X134795349Y-115742380D01*
X134773171Y-115752870D01*
X134750071Y-115761135D01*
X134726273Y-115767096D01*
X134702004Y-115770696D01*
X134677500Y-115771900D01*
X133927500Y-115771900D01*
X133902996Y-115770696D01*
X133878727Y-115767096D01*
X133854929Y-115761135D01*
X133831829Y-115752870D01*
X133809651Y-115742380D01*
X133788607Y-115729767D01*
X133768902Y-115715153D01*
X133750723Y-115698677D01*
X133734247Y-115680498D01*
X133719633Y-115660793D01*
X133707020Y-115639749D01*
X133696530Y-115617571D01*
X133688265Y-115594471D01*
X133682304Y-115570673D01*
X133678704Y-115546404D01*
X133677500Y-115521900D01*
X133677500Y-114271900D01*
X133678704Y-114247396D01*
X133682304Y-114223127D01*
X133688265Y-114199329D01*
X133696530Y-114176229D01*
X133707020Y-114154051D01*
X133719633Y-114133007D01*
X133734247Y-114113302D01*
X133750723Y-114095123D01*
X133768902Y-114078647D01*
X133788607Y-114064033D01*
X133809651Y-114051420D01*
X133831829Y-114040930D01*
X133854929Y-114032665D01*
X133878727Y-114026704D01*
X133902996Y-114023104D01*
X133927500Y-114021900D01*
X134677500Y-114021900D01*
X134702004Y-114023104D01*
X134702004Y-114023104D01*
G37*
D13*
X134302500Y-114896900D03*
G04 #@! TD*
D12*
G04 #@! TO.C,R15*
G36*
X157469104Y-93759604D02*
X157493373Y-93763204D01*
X157517171Y-93769165D01*
X157540271Y-93777430D01*
X157562449Y-93787920D01*
X157583493Y-93800533D01*
X157603198Y-93815147D01*
X157621377Y-93831623D01*
X157637853Y-93849802D01*
X157652467Y-93869507D01*
X157665080Y-93890551D01*
X157675570Y-93912729D01*
X157683835Y-93935829D01*
X157689796Y-93959627D01*
X157693396Y-93983896D01*
X157694600Y-94008400D01*
X157694600Y-94758400D01*
X157693396Y-94782904D01*
X157689796Y-94807173D01*
X157683835Y-94830971D01*
X157675570Y-94854071D01*
X157665080Y-94876249D01*
X157652467Y-94897293D01*
X157637853Y-94916998D01*
X157621377Y-94935177D01*
X157603198Y-94951653D01*
X157583493Y-94966267D01*
X157562449Y-94978880D01*
X157540271Y-94989370D01*
X157517171Y-94997635D01*
X157493373Y-95003596D01*
X157469104Y-95007196D01*
X157444600Y-95008400D01*
X156194600Y-95008400D01*
X156170096Y-95007196D01*
X156145827Y-95003596D01*
X156122029Y-94997635D01*
X156098929Y-94989370D01*
X156076751Y-94978880D01*
X156055707Y-94966267D01*
X156036002Y-94951653D01*
X156017823Y-94935177D01*
X156001347Y-94916998D01*
X155986733Y-94897293D01*
X155974120Y-94876249D01*
X155963630Y-94854071D01*
X155955365Y-94830971D01*
X155949404Y-94807173D01*
X155945804Y-94782904D01*
X155944600Y-94758400D01*
X155944600Y-94008400D01*
X155945804Y-93983896D01*
X155949404Y-93959627D01*
X155955365Y-93935829D01*
X155963630Y-93912729D01*
X155974120Y-93890551D01*
X155986733Y-93869507D01*
X156001347Y-93849802D01*
X156017823Y-93831623D01*
X156036002Y-93815147D01*
X156055707Y-93800533D01*
X156076751Y-93787920D01*
X156098929Y-93777430D01*
X156122029Y-93769165D01*
X156145827Y-93763204D01*
X156170096Y-93759604D01*
X156194600Y-93758400D01*
X157444600Y-93758400D01*
X157469104Y-93759604D01*
X157469104Y-93759604D01*
G37*
D13*
X156819600Y-94383400D03*
D12*
G36*
X157469104Y-96559604D02*
X157493373Y-96563204D01*
X157517171Y-96569165D01*
X157540271Y-96577430D01*
X157562449Y-96587920D01*
X157583493Y-96600533D01*
X157603198Y-96615147D01*
X157621377Y-96631623D01*
X157637853Y-96649802D01*
X157652467Y-96669507D01*
X157665080Y-96690551D01*
X157675570Y-96712729D01*
X157683835Y-96735829D01*
X157689796Y-96759627D01*
X157693396Y-96783896D01*
X157694600Y-96808400D01*
X157694600Y-97558400D01*
X157693396Y-97582904D01*
X157689796Y-97607173D01*
X157683835Y-97630971D01*
X157675570Y-97654071D01*
X157665080Y-97676249D01*
X157652467Y-97697293D01*
X157637853Y-97716998D01*
X157621377Y-97735177D01*
X157603198Y-97751653D01*
X157583493Y-97766267D01*
X157562449Y-97778880D01*
X157540271Y-97789370D01*
X157517171Y-97797635D01*
X157493373Y-97803596D01*
X157469104Y-97807196D01*
X157444600Y-97808400D01*
X156194600Y-97808400D01*
X156170096Y-97807196D01*
X156145827Y-97803596D01*
X156122029Y-97797635D01*
X156098929Y-97789370D01*
X156076751Y-97778880D01*
X156055707Y-97766267D01*
X156036002Y-97751653D01*
X156017823Y-97735177D01*
X156001347Y-97716998D01*
X155986733Y-97697293D01*
X155974120Y-97676249D01*
X155963630Y-97654071D01*
X155955365Y-97630971D01*
X155949404Y-97607173D01*
X155945804Y-97582904D01*
X155944600Y-97558400D01*
X155944600Y-96808400D01*
X155945804Y-96783896D01*
X155949404Y-96759627D01*
X155955365Y-96735829D01*
X155963630Y-96712729D01*
X155974120Y-96690551D01*
X155986733Y-96669507D01*
X156001347Y-96649802D01*
X156017823Y-96631623D01*
X156036002Y-96615147D01*
X156055707Y-96600533D01*
X156076751Y-96587920D01*
X156098929Y-96577430D01*
X156122029Y-96569165D01*
X156145827Y-96563204D01*
X156170096Y-96559604D01*
X156194600Y-96558400D01*
X157444600Y-96558400D01*
X157469104Y-96559604D01*
X157469104Y-96559604D01*
G37*
D13*
X156819600Y-97183400D03*
G04 #@! TD*
D25*
G04 #@! TO.C,D1*
X190461900Y-89735200D03*
X190461900Y-92535200D03*
G04 #@! TD*
G04 #@! TO.C,D2*
X169979800Y-101714300D03*
X167179800Y-101714300D03*
G04 #@! TD*
D12*
G04 #@! TO.C,D7*
G36*
X104174204Y-100992904D02*
X104198473Y-100996504D01*
X104222271Y-101002465D01*
X104245371Y-101010730D01*
X104267549Y-101021220D01*
X104288593Y-101033833D01*
X104308298Y-101048447D01*
X104326477Y-101064923D01*
X104342953Y-101083102D01*
X104357567Y-101102807D01*
X104370180Y-101123851D01*
X104380670Y-101146029D01*
X104388935Y-101169129D01*
X104394896Y-101192927D01*
X104398496Y-101217196D01*
X104399700Y-101241700D01*
X104399700Y-102491700D01*
X104398496Y-102516204D01*
X104394896Y-102540473D01*
X104388935Y-102564271D01*
X104380670Y-102587371D01*
X104370180Y-102609549D01*
X104357567Y-102630593D01*
X104342953Y-102650298D01*
X104326477Y-102668477D01*
X104308298Y-102684953D01*
X104288593Y-102699567D01*
X104267549Y-102712180D01*
X104245371Y-102722670D01*
X104222271Y-102730935D01*
X104198473Y-102736896D01*
X104174204Y-102740496D01*
X104149700Y-102741700D01*
X103399700Y-102741700D01*
X103375196Y-102740496D01*
X103350927Y-102736896D01*
X103327129Y-102730935D01*
X103304029Y-102722670D01*
X103281851Y-102712180D01*
X103260807Y-102699567D01*
X103241102Y-102684953D01*
X103222923Y-102668477D01*
X103206447Y-102650298D01*
X103191833Y-102630593D01*
X103179220Y-102609549D01*
X103168730Y-102587371D01*
X103160465Y-102564271D01*
X103154504Y-102540473D01*
X103150904Y-102516204D01*
X103149700Y-102491700D01*
X103149700Y-101241700D01*
X103150904Y-101217196D01*
X103154504Y-101192927D01*
X103160465Y-101169129D01*
X103168730Y-101146029D01*
X103179220Y-101123851D01*
X103191833Y-101102807D01*
X103206447Y-101083102D01*
X103222923Y-101064923D01*
X103241102Y-101048447D01*
X103260807Y-101033833D01*
X103281851Y-101021220D01*
X103304029Y-101010730D01*
X103327129Y-101002465D01*
X103350927Y-100996504D01*
X103375196Y-100992904D01*
X103399700Y-100991700D01*
X104149700Y-100991700D01*
X104174204Y-100992904D01*
X104174204Y-100992904D01*
G37*
D13*
X103774700Y-101866700D03*
D12*
G36*
X101374204Y-100992904D02*
X101398473Y-100996504D01*
X101422271Y-101002465D01*
X101445371Y-101010730D01*
X101467549Y-101021220D01*
X101488593Y-101033833D01*
X101508298Y-101048447D01*
X101526477Y-101064923D01*
X101542953Y-101083102D01*
X101557567Y-101102807D01*
X101570180Y-101123851D01*
X101580670Y-101146029D01*
X101588935Y-101169129D01*
X101594896Y-101192927D01*
X101598496Y-101217196D01*
X101599700Y-101241700D01*
X101599700Y-102491700D01*
X101598496Y-102516204D01*
X101594896Y-102540473D01*
X101588935Y-102564271D01*
X101580670Y-102587371D01*
X101570180Y-102609549D01*
X101557567Y-102630593D01*
X101542953Y-102650298D01*
X101526477Y-102668477D01*
X101508298Y-102684953D01*
X101488593Y-102699567D01*
X101467549Y-102712180D01*
X101445371Y-102722670D01*
X101422271Y-102730935D01*
X101398473Y-102736896D01*
X101374204Y-102740496D01*
X101349700Y-102741700D01*
X100599700Y-102741700D01*
X100575196Y-102740496D01*
X100550927Y-102736896D01*
X100527129Y-102730935D01*
X100504029Y-102722670D01*
X100481851Y-102712180D01*
X100460807Y-102699567D01*
X100441102Y-102684953D01*
X100422923Y-102668477D01*
X100406447Y-102650298D01*
X100391833Y-102630593D01*
X100379220Y-102609549D01*
X100368730Y-102587371D01*
X100360465Y-102564271D01*
X100354504Y-102540473D01*
X100350904Y-102516204D01*
X100349700Y-102491700D01*
X100349700Y-101241700D01*
X100350904Y-101217196D01*
X100354504Y-101192927D01*
X100360465Y-101169129D01*
X100368730Y-101146029D01*
X100379220Y-101123851D01*
X100391833Y-101102807D01*
X100406447Y-101083102D01*
X100422923Y-101064923D01*
X100441102Y-101048447D01*
X100460807Y-101033833D01*
X100481851Y-101021220D01*
X100504029Y-101010730D01*
X100527129Y-101002465D01*
X100550927Y-100996504D01*
X100575196Y-100992904D01*
X100599700Y-100991700D01*
X101349700Y-100991700D01*
X101374204Y-100992904D01*
X101374204Y-100992904D01*
G37*
D13*
X100974700Y-101866700D03*
G04 #@! TD*
D12*
G04 #@! TO.C,D9*
G36*
X125847104Y-100992904D02*
X125871373Y-100996504D01*
X125895171Y-101002465D01*
X125918271Y-101010730D01*
X125940449Y-101021220D01*
X125961493Y-101033833D01*
X125981198Y-101048447D01*
X125999377Y-101064923D01*
X126015853Y-101083102D01*
X126030467Y-101102807D01*
X126043080Y-101123851D01*
X126053570Y-101146029D01*
X126061835Y-101169129D01*
X126067796Y-101192927D01*
X126071396Y-101217196D01*
X126072600Y-101241700D01*
X126072600Y-102491700D01*
X126071396Y-102516204D01*
X126067796Y-102540473D01*
X126061835Y-102564271D01*
X126053570Y-102587371D01*
X126043080Y-102609549D01*
X126030467Y-102630593D01*
X126015853Y-102650298D01*
X125999377Y-102668477D01*
X125981198Y-102684953D01*
X125961493Y-102699567D01*
X125940449Y-102712180D01*
X125918271Y-102722670D01*
X125895171Y-102730935D01*
X125871373Y-102736896D01*
X125847104Y-102740496D01*
X125822600Y-102741700D01*
X125072600Y-102741700D01*
X125048096Y-102740496D01*
X125023827Y-102736896D01*
X125000029Y-102730935D01*
X124976929Y-102722670D01*
X124954751Y-102712180D01*
X124933707Y-102699567D01*
X124914002Y-102684953D01*
X124895823Y-102668477D01*
X124879347Y-102650298D01*
X124864733Y-102630593D01*
X124852120Y-102609549D01*
X124841630Y-102587371D01*
X124833365Y-102564271D01*
X124827404Y-102540473D01*
X124823804Y-102516204D01*
X124822600Y-102491700D01*
X124822600Y-101241700D01*
X124823804Y-101217196D01*
X124827404Y-101192927D01*
X124833365Y-101169129D01*
X124841630Y-101146029D01*
X124852120Y-101123851D01*
X124864733Y-101102807D01*
X124879347Y-101083102D01*
X124895823Y-101064923D01*
X124914002Y-101048447D01*
X124933707Y-101033833D01*
X124954751Y-101021220D01*
X124976929Y-101010730D01*
X125000029Y-101002465D01*
X125023827Y-100996504D01*
X125048096Y-100992904D01*
X125072600Y-100991700D01*
X125822600Y-100991700D01*
X125847104Y-100992904D01*
X125847104Y-100992904D01*
G37*
D13*
X125447600Y-101866700D03*
D12*
G36*
X128647104Y-100992904D02*
X128671373Y-100996504D01*
X128695171Y-101002465D01*
X128718271Y-101010730D01*
X128740449Y-101021220D01*
X128761493Y-101033833D01*
X128781198Y-101048447D01*
X128799377Y-101064923D01*
X128815853Y-101083102D01*
X128830467Y-101102807D01*
X128843080Y-101123851D01*
X128853570Y-101146029D01*
X128861835Y-101169129D01*
X128867796Y-101192927D01*
X128871396Y-101217196D01*
X128872600Y-101241700D01*
X128872600Y-102491700D01*
X128871396Y-102516204D01*
X128867796Y-102540473D01*
X128861835Y-102564271D01*
X128853570Y-102587371D01*
X128843080Y-102609549D01*
X128830467Y-102630593D01*
X128815853Y-102650298D01*
X128799377Y-102668477D01*
X128781198Y-102684953D01*
X128761493Y-102699567D01*
X128740449Y-102712180D01*
X128718271Y-102722670D01*
X128695171Y-102730935D01*
X128671373Y-102736896D01*
X128647104Y-102740496D01*
X128622600Y-102741700D01*
X127872600Y-102741700D01*
X127848096Y-102740496D01*
X127823827Y-102736896D01*
X127800029Y-102730935D01*
X127776929Y-102722670D01*
X127754751Y-102712180D01*
X127733707Y-102699567D01*
X127714002Y-102684953D01*
X127695823Y-102668477D01*
X127679347Y-102650298D01*
X127664733Y-102630593D01*
X127652120Y-102609549D01*
X127641630Y-102587371D01*
X127633365Y-102564271D01*
X127627404Y-102540473D01*
X127623804Y-102516204D01*
X127622600Y-102491700D01*
X127622600Y-101241700D01*
X127623804Y-101217196D01*
X127627404Y-101192927D01*
X127633365Y-101169129D01*
X127641630Y-101146029D01*
X127652120Y-101123851D01*
X127664733Y-101102807D01*
X127679347Y-101083102D01*
X127695823Y-101064923D01*
X127714002Y-101048447D01*
X127733707Y-101033833D01*
X127754751Y-101021220D01*
X127776929Y-101010730D01*
X127800029Y-101002465D01*
X127823827Y-100996504D01*
X127848096Y-100992904D01*
X127872600Y-100991700D01*
X128622600Y-100991700D01*
X128647104Y-100992904D01*
X128647104Y-100992904D01*
G37*
D13*
X128247600Y-101866700D03*
G04 #@! TD*
D12*
G04 #@! TO.C,D10*
G36*
X125847104Y-96141504D02*
X125871373Y-96145104D01*
X125895171Y-96151065D01*
X125918271Y-96159330D01*
X125940449Y-96169820D01*
X125961493Y-96182433D01*
X125981198Y-96197047D01*
X125999377Y-96213523D01*
X126015853Y-96231702D01*
X126030467Y-96251407D01*
X126043080Y-96272451D01*
X126053570Y-96294629D01*
X126061835Y-96317729D01*
X126067796Y-96341527D01*
X126071396Y-96365796D01*
X126072600Y-96390300D01*
X126072600Y-97640300D01*
X126071396Y-97664804D01*
X126067796Y-97689073D01*
X126061835Y-97712871D01*
X126053570Y-97735971D01*
X126043080Y-97758149D01*
X126030467Y-97779193D01*
X126015853Y-97798898D01*
X125999377Y-97817077D01*
X125981198Y-97833553D01*
X125961493Y-97848167D01*
X125940449Y-97860780D01*
X125918271Y-97871270D01*
X125895171Y-97879535D01*
X125871373Y-97885496D01*
X125847104Y-97889096D01*
X125822600Y-97890300D01*
X125072600Y-97890300D01*
X125048096Y-97889096D01*
X125023827Y-97885496D01*
X125000029Y-97879535D01*
X124976929Y-97871270D01*
X124954751Y-97860780D01*
X124933707Y-97848167D01*
X124914002Y-97833553D01*
X124895823Y-97817077D01*
X124879347Y-97798898D01*
X124864733Y-97779193D01*
X124852120Y-97758149D01*
X124841630Y-97735971D01*
X124833365Y-97712871D01*
X124827404Y-97689073D01*
X124823804Y-97664804D01*
X124822600Y-97640300D01*
X124822600Y-96390300D01*
X124823804Y-96365796D01*
X124827404Y-96341527D01*
X124833365Y-96317729D01*
X124841630Y-96294629D01*
X124852120Y-96272451D01*
X124864733Y-96251407D01*
X124879347Y-96231702D01*
X124895823Y-96213523D01*
X124914002Y-96197047D01*
X124933707Y-96182433D01*
X124954751Y-96169820D01*
X124976929Y-96159330D01*
X125000029Y-96151065D01*
X125023827Y-96145104D01*
X125048096Y-96141504D01*
X125072600Y-96140300D01*
X125822600Y-96140300D01*
X125847104Y-96141504D01*
X125847104Y-96141504D01*
G37*
D13*
X125447600Y-97015300D03*
D12*
G36*
X128647104Y-96141504D02*
X128671373Y-96145104D01*
X128695171Y-96151065D01*
X128718271Y-96159330D01*
X128740449Y-96169820D01*
X128761493Y-96182433D01*
X128781198Y-96197047D01*
X128799377Y-96213523D01*
X128815853Y-96231702D01*
X128830467Y-96251407D01*
X128843080Y-96272451D01*
X128853570Y-96294629D01*
X128861835Y-96317729D01*
X128867796Y-96341527D01*
X128871396Y-96365796D01*
X128872600Y-96390300D01*
X128872600Y-97640300D01*
X128871396Y-97664804D01*
X128867796Y-97689073D01*
X128861835Y-97712871D01*
X128853570Y-97735971D01*
X128843080Y-97758149D01*
X128830467Y-97779193D01*
X128815853Y-97798898D01*
X128799377Y-97817077D01*
X128781198Y-97833553D01*
X128761493Y-97848167D01*
X128740449Y-97860780D01*
X128718271Y-97871270D01*
X128695171Y-97879535D01*
X128671373Y-97885496D01*
X128647104Y-97889096D01*
X128622600Y-97890300D01*
X127872600Y-97890300D01*
X127848096Y-97889096D01*
X127823827Y-97885496D01*
X127800029Y-97879535D01*
X127776929Y-97871270D01*
X127754751Y-97860780D01*
X127733707Y-97848167D01*
X127714002Y-97833553D01*
X127695823Y-97817077D01*
X127679347Y-97798898D01*
X127664733Y-97779193D01*
X127652120Y-97758149D01*
X127641630Y-97735971D01*
X127633365Y-97712871D01*
X127627404Y-97689073D01*
X127623804Y-97664804D01*
X127622600Y-97640300D01*
X127622600Y-96390300D01*
X127623804Y-96365796D01*
X127627404Y-96341527D01*
X127633365Y-96317729D01*
X127641630Y-96294629D01*
X127652120Y-96272451D01*
X127664733Y-96251407D01*
X127679347Y-96231702D01*
X127695823Y-96213523D01*
X127714002Y-96197047D01*
X127733707Y-96182433D01*
X127754751Y-96169820D01*
X127776929Y-96159330D01*
X127800029Y-96151065D01*
X127823827Y-96145104D01*
X127848096Y-96141504D01*
X127872600Y-96140300D01*
X128622600Y-96140300D01*
X128647104Y-96141504D01*
X128647104Y-96141504D01*
G37*
D13*
X128247600Y-97015300D03*
G04 #@! TD*
D12*
G04 #@! TO.C,D11*
G36*
X128647104Y-114023104D02*
X128671373Y-114026704D01*
X128695171Y-114032665D01*
X128718271Y-114040930D01*
X128740449Y-114051420D01*
X128761493Y-114064033D01*
X128781198Y-114078647D01*
X128799377Y-114095123D01*
X128815853Y-114113302D01*
X128830467Y-114133007D01*
X128843080Y-114154051D01*
X128853570Y-114176229D01*
X128861835Y-114199329D01*
X128867796Y-114223127D01*
X128871396Y-114247396D01*
X128872600Y-114271900D01*
X128872600Y-115521900D01*
X128871396Y-115546404D01*
X128867796Y-115570673D01*
X128861835Y-115594471D01*
X128853570Y-115617571D01*
X128843080Y-115639749D01*
X128830467Y-115660793D01*
X128815853Y-115680498D01*
X128799377Y-115698677D01*
X128781198Y-115715153D01*
X128761493Y-115729767D01*
X128740449Y-115742380D01*
X128718271Y-115752870D01*
X128695171Y-115761135D01*
X128671373Y-115767096D01*
X128647104Y-115770696D01*
X128622600Y-115771900D01*
X127872600Y-115771900D01*
X127848096Y-115770696D01*
X127823827Y-115767096D01*
X127800029Y-115761135D01*
X127776929Y-115752870D01*
X127754751Y-115742380D01*
X127733707Y-115729767D01*
X127714002Y-115715153D01*
X127695823Y-115698677D01*
X127679347Y-115680498D01*
X127664733Y-115660793D01*
X127652120Y-115639749D01*
X127641630Y-115617571D01*
X127633365Y-115594471D01*
X127627404Y-115570673D01*
X127623804Y-115546404D01*
X127622600Y-115521900D01*
X127622600Y-114271900D01*
X127623804Y-114247396D01*
X127627404Y-114223127D01*
X127633365Y-114199329D01*
X127641630Y-114176229D01*
X127652120Y-114154051D01*
X127664733Y-114133007D01*
X127679347Y-114113302D01*
X127695823Y-114095123D01*
X127714002Y-114078647D01*
X127733707Y-114064033D01*
X127754751Y-114051420D01*
X127776929Y-114040930D01*
X127800029Y-114032665D01*
X127823827Y-114026704D01*
X127848096Y-114023104D01*
X127872600Y-114021900D01*
X128622600Y-114021900D01*
X128647104Y-114023104D01*
X128647104Y-114023104D01*
G37*
D13*
X128247600Y-114896900D03*
D12*
G36*
X125847104Y-114023104D02*
X125871373Y-114026704D01*
X125895171Y-114032665D01*
X125918271Y-114040930D01*
X125940449Y-114051420D01*
X125961493Y-114064033D01*
X125981198Y-114078647D01*
X125999377Y-114095123D01*
X126015853Y-114113302D01*
X126030467Y-114133007D01*
X126043080Y-114154051D01*
X126053570Y-114176229D01*
X126061835Y-114199329D01*
X126067796Y-114223127D01*
X126071396Y-114247396D01*
X126072600Y-114271900D01*
X126072600Y-115521900D01*
X126071396Y-115546404D01*
X126067796Y-115570673D01*
X126061835Y-115594471D01*
X126053570Y-115617571D01*
X126043080Y-115639749D01*
X126030467Y-115660793D01*
X126015853Y-115680498D01*
X125999377Y-115698677D01*
X125981198Y-115715153D01*
X125961493Y-115729767D01*
X125940449Y-115742380D01*
X125918271Y-115752870D01*
X125895171Y-115761135D01*
X125871373Y-115767096D01*
X125847104Y-115770696D01*
X125822600Y-115771900D01*
X125072600Y-115771900D01*
X125048096Y-115770696D01*
X125023827Y-115767096D01*
X125000029Y-115761135D01*
X124976929Y-115752870D01*
X124954751Y-115742380D01*
X124933707Y-115729767D01*
X124914002Y-115715153D01*
X124895823Y-115698677D01*
X124879347Y-115680498D01*
X124864733Y-115660793D01*
X124852120Y-115639749D01*
X124841630Y-115617571D01*
X124833365Y-115594471D01*
X124827404Y-115570673D01*
X124823804Y-115546404D01*
X124822600Y-115521900D01*
X124822600Y-114271900D01*
X124823804Y-114247396D01*
X124827404Y-114223127D01*
X124833365Y-114199329D01*
X124841630Y-114176229D01*
X124852120Y-114154051D01*
X124864733Y-114133007D01*
X124879347Y-114113302D01*
X124895823Y-114095123D01*
X124914002Y-114078647D01*
X124933707Y-114064033D01*
X124954751Y-114051420D01*
X124976929Y-114040930D01*
X125000029Y-114032665D01*
X125023827Y-114026704D01*
X125048096Y-114023104D01*
X125072600Y-114021900D01*
X125822600Y-114021900D01*
X125847104Y-114023104D01*
X125847104Y-114023104D01*
G37*
D13*
X125447600Y-114896900D03*
G04 #@! TD*
D12*
G04 #@! TO.C,D8*
G36*
X101374204Y-96141504D02*
X101398473Y-96145104D01*
X101422271Y-96151065D01*
X101445371Y-96159330D01*
X101467549Y-96169820D01*
X101488593Y-96182433D01*
X101508298Y-96197047D01*
X101526477Y-96213523D01*
X101542953Y-96231702D01*
X101557567Y-96251407D01*
X101570180Y-96272451D01*
X101580670Y-96294629D01*
X101588935Y-96317729D01*
X101594896Y-96341527D01*
X101598496Y-96365796D01*
X101599700Y-96390300D01*
X101599700Y-97640300D01*
X101598496Y-97664804D01*
X101594896Y-97689073D01*
X101588935Y-97712871D01*
X101580670Y-97735971D01*
X101570180Y-97758149D01*
X101557567Y-97779193D01*
X101542953Y-97798898D01*
X101526477Y-97817077D01*
X101508298Y-97833553D01*
X101488593Y-97848167D01*
X101467549Y-97860780D01*
X101445371Y-97871270D01*
X101422271Y-97879535D01*
X101398473Y-97885496D01*
X101374204Y-97889096D01*
X101349700Y-97890300D01*
X100599700Y-97890300D01*
X100575196Y-97889096D01*
X100550927Y-97885496D01*
X100527129Y-97879535D01*
X100504029Y-97871270D01*
X100481851Y-97860780D01*
X100460807Y-97848167D01*
X100441102Y-97833553D01*
X100422923Y-97817077D01*
X100406447Y-97798898D01*
X100391833Y-97779193D01*
X100379220Y-97758149D01*
X100368730Y-97735971D01*
X100360465Y-97712871D01*
X100354504Y-97689073D01*
X100350904Y-97664804D01*
X100349700Y-97640300D01*
X100349700Y-96390300D01*
X100350904Y-96365796D01*
X100354504Y-96341527D01*
X100360465Y-96317729D01*
X100368730Y-96294629D01*
X100379220Y-96272451D01*
X100391833Y-96251407D01*
X100406447Y-96231702D01*
X100422923Y-96213523D01*
X100441102Y-96197047D01*
X100460807Y-96182433D01*
X100481851Y-96169820D01*
X100504029Y-96159330D01*
X100527129Y-96151065D01*
X100550927Y-96145104D01*
X100575196Y-96141504D01*
X100599700Y-96140300D01*
X101349700Y-96140300D01*
X101374204Y-96141504D01*
X101374204Y-96141504D01*
G37*
D13*
X100974700Y-97015300D03*
D12*
G36*
X104174204Y-96141504D02*
X104198473Y-96145104D01*
X104222271Y-96151065D01*
X104245371Y-96159330D01*
X104267549Y-96169820D01*
X104288593Y-96182433D01*
X104308298Y-96197047D01*
X104326477Y-96213523D01*
X104342953Y-96231702D01*
X104357567Y-96251407D01*
X104370180Y-96272451D01*
X104380670Y-96294629D01*
X104388935Y-96317729D01*
X104394896Y-96341527D01*
X104398496Y-96365796D01*
X104399700Y-96390300D01*
X104399700Y-97640300D01*
X104398496Y-97664804D01*
X104394896Y-97689073D01*
X104388935Y-97712871D01*
X104380670Y-97735971D01*
X104370180Y-97758149D01*
X104357567Y-97779193D01*
X104342953Y-97798898D01*
X104326477Y-97817077D01*
X104308298Y-97833553D01*
X104288593Y-97848167D01*
X104267549Y-97860780D01*
X104245371Y-97871270D01*
X104222271Y-97879535D01*
X104198473Y-97885496D01*
X104174204Y-97889096D01*
X104149700Y-97890300D01*
X103399700Y-97890300D01*
X103375196Y-97889096D01*
X103350927Y-97885496D01*
X103327129Y-97879535D01*
X103304029Y-97871270D01*
X103281851Y-97860780D01*
X103260807Y-97848167D01*
X103241102Y-97833553D01*
X103222923Y-97817077D01*
X103206447Y-97798898D01*
X103191833Y-97779193D01*
X103179220Y-97758149D01*
X103168730Y-97735971D01*
X103160465Y-97712871D01*
X103154504Y-97689073D01*
X103150904Y-97664804D01*
X103149700Y-97640300D01*
X103149700Y-96390300D01*
X103150904Y-96365796D01*
X103154504Y-96341527D01*
X103160465Y-96317729D01*
X103168730Y-96294629D01*
X103179220Y-96272451D01*
X103191833Y-96251407D01*
X103206447Y-96231702D01*
X103222923Y-96213523D01*
X103241102Y-96197047D01*
X103260807Y-96182433D01*
X103281851Y-96169820D01*
X103304029Y-96159330D01*
X103327129Y-96151065D01*
X103350927Y-96145104D01*
X103375196Y-96141504D01*
X103399700Y-96140300D01*
X104149700Y-96140300D01*
X104174204Y-96141504D01*
X104174204Y-96141504D01*
G37*
D13*
X103774700Y-97015300D03*
G04 #@! TD*
D25*
G04 #@! TO.C,D3*
X169903600Y-114312700D03*
X167103600Y-114312700D03*
G04 #@! TD*
G04 #@! TO.C,D4*
X182425800Y-114427000D03*
X179625800Y-114427000D03*
G04 #@! TD*
G04 #@! TO.C,D5*
X169979800Y-126453900D03*
X167179800Y-126453900D03*
G04 #@! TD*
G04 #@! TO.C,D6*
X185572400Y-120894300D03*
X185572400Y-118094300D03*
G04 #@! TD*
D12*
G04 #@! TO.C,R2*
G36*
X157583404Y-106091304D02*
X157607673Y-106094904D01*
X157631471Y-106100865D01*
X157654571Y-106109130D01*
X157676749Y-106119620D01*
X157697793Y-106132233D01*
X157717498Y-106146847D01*
X157735677Y-106163323D01*
X157752153Y-106181502D01*
X157766767Y-106201207D01*
X157779380Y-106222251D01*
X157789870Y-106244429D01*
X157798135Y-106267529D01*
X157804096Y-106291327D01*
X157807696Y-106315596D01*
X157808900Y-106340100D01*
X157808900Y-107090100D01*
X157807696Y-107114604D01*
X157804096Y-107138873D01*
X157798135Y-107162671D01*
X157789870Y-107185771D01*
X157779380Y-107207949D01*
X157766767Y-107228993D01*
X157752153Y-107248698D01*
X157735677Y-107266877D01*
X157717498Y-107283353D01*
X157697793Y-107297967D01*
X157676749Y-107310580D01*
X157654571Y-107321070D01*
X157631471Y-107329335D01*
X157607673Y-107335296D01*
X157583404Y-107338896D01*
X157558900Y-107340100D01*
X156308900Y-107340100D01*
X156284396Y-107338896D01*
X156260127Y-107335296D01*
X156236329Y-107329335D01*
X156213229Y-107321070D01*
X156191051Y-107310580D01*
X156170007Y-107297967D01*
X156150302Y-107283353D01*
X156132123Y-107266877D01*
X156115647Y-107248698D01*
X156101033Y-107228993D01*
X156088420Y-107207949D01*
X156077930Y-107185771D01*
X156069665Y-107162671D01*
X156063704Y-107138873D01*
X156060104Y-107114604D01*
X156058900Y-107090100D01*
X156058900Y-106340100D01*
X156060104Y-106315596D01*
X156063704Y-106291327D01*
X156069665Y-106267529D01*
X156077930Y-106244429D01*
X156088420Y-106222251D01*
X156101033Y-106201207D01*
X156115647Y-106181502D01*
X156132123Y-106163323D01*
X156150302Y-106146847D01*
X156170007Y-106132233D01*
X156191051Y-106119620D01*
X156213229Y-106109130D01*
X156236329Y-106100865D01*
X156260127Y-106094904D01*
X156284396Y-106091304D01*
X156308900Y-106090100D01*
X157558900Y-106090100D01*
X157583404Y-106091304D01*
X157583404Y-106091304D01*
G37*
D13*
X156933900Y-106715100D03*
D12*
G36*
X157583404Y-108891304D02*
X157607673Y-108894904D01*
X157631471Y-108900865D01*
X157654571Y-108909130D01*
X157676749Y-108919620D01*
X157697793Y-108932233D01*
X157717498Y-108946847D01*
X157735677Y-108963323D01*
X157752153Y-108981502D01*
X157766767Y-109001207D01*
X157779380Y-109022251D01*
X157789870Y-109044429D01*
X157798135Y-109067529D01*
X157804096Y-109091327D01*
X157807696Y-109115596D01*
X157808900Y-109140100D01*
X157808900Y-109890100D01*
X157807696Y-109914604D01*
X157804096Y-109938873D01*
X157798135Y-109962671D01*
X157789870Y-109985771D01*
X157779380Y-110007949D01*
X157766767Y-110028993D01*
X157752153Y-110048698D01*
X157735677Y-110066877D01*
X157717498Y-110083353D01*
X157697793Y-110097967D01*
X157676749Y-110110580D01*
X157654571Y-110121070D01*
X157631471Y-110129335D01*
X157607673Y-110135296D01*
X157583404Y-110138896D01*
X157558900Y-110140100D01*
X156308900Y-110140100D01*
X156284396Y-110138896D01*
X156260127Y-110135296D01*
X156236329Y-110129335D01*
X156213229Y-110121070D01*
X156191051Y-110110580D01*
X156170007Y-110097967D01*
X156150302Y-110083353D01*
X156132123Y-110066877D01*
X156115647Y-110048698D01*
X156101033Y-110028993D01*
X156088420Y-110007949D01*
X156077930Y-109985771D01*
X156069665Y-109962671D01*
X156063704Y-109938873D01*
X156060104Y-109914604D01*
X156058900Y-109890100D01*
X156058900Y-109140100D01*
X156060104Y-109115596D01*
X156063704Y-109091327D01*
X156069665Y-109067529D01*
X156077930Y-109044429D01*
X156088420Y-109022251D01*
X156101033Y-109001207D01*
X156115647Y-108981502D01*
X156132123Y-108963323D01*
X156150302Y-108946847D01*
X156170007Y-108932233D01*
X156191051Y-108919620D01*
X156213229Y-108909130D01*
X156236329Y-108900865D01*
X156260127Y-108894904D01*
X156284396Y-108891304D01*
X156308900Y-108890100D01*
X157558900Y-108890100D01*
X157583404Y-108891304D01*
X157583404Y-108891304D01*
G37*
D13*
X156933900Y-109515100D03*
G04 #@! TD*
D12*
G04 #@! TO.C,R3*
G36*
X174055304Y-108891304D02*
X174079573Y-108894904D01*
X174103371Y-108900865D01*
X174126471Y-108909130D01*
X174148649Y-108919620D01*
X174169693Y-108932233D01*
X174189398Y-108946847D01*
X174207577Y-108963323D01*
X174224053Y-108981502D01*
X174238667Y-109001207D01*
X174251280Y-109022251D01*
X174261770Y-109044429D01*
X174270035Y-109067529D01*
X174275996Y-109091327D01*
X174279596Y-109115596D01*
X174280800Y-109140100D01*
X174280800Y-109890100D01*
X174279596Y-109914604D01*
X174275996Y-109938873D01*
X174270035Y-109962671D01*
X174261770Y-109985771D01*
X174251280Y-110007949D01*
X174238667Y-110028993D01*
X174224053Y-110048698D01*
X174207577Y-110066877D01*
X174189398Y-110083353D01*
X174169693Y-110097967D01*
X174148649Y-110110580D01*
X174126471Y-110121070D01*
X174103371Y-110129335D01*
X174079573Y-110135296D01*
X174055304Y-110138896D01*
X174030800Y-110140100D01*
X172780800Y-110140100D01*
X172756296Y-110138896D01*
X172732027Y-110135296D01*
X172708229Y-110129335D01*
X172685129Y-110121070D01*
X172662951Y-110110580D01*
X172641907Y-110097967D01*
X172622202Y-110083353D01*
X172604023Y-110066877D01*
X172587547Y-110048698D01*
X172572933Y-110028993D01*
X172560320Y-110007949D01*
X172549830Y-109985771D01*
X172541565Y-109962671D01*
X172535604Y-109938873D01*
X172532004Y-109914604D01*
X172530800Y-109890100D01*
X172530800Y-109140100D01*
X172532004Y-109115596D01*
X172535604Y-109091327D01*
X172541565Y-109067529D01*
X172549830Y-109044429D01*
X172560320Y-109022251D01*
X172572933Y-109001207D01*
X172587547Y-108981502D01*
X172604023Y-108963323D01*
X172622202Y-108946847D01*
X172641907Y-108932233D01*
X172662951Y-108919620D01*
X172685129Y-108909130D01*
X172708229Y-108900865D01*
X172732027Y-108894904D01*
X172756296Y-108891304D01*
X172780800Y-108890100D01*
X174030800Y-108890100D01*
X174055304Y-108891304D01*
X174055304Y-108891304D01*
G37*
D13*
X173405800Y-109515100D03*
D12*
G36*
X174055304Y-106091304D02*
X174079573Y-106094904D01*
X174103371Y-106100865D01*
X174126471Y-106109130D01*
X174148649Y-106119620D01*
X174169693Y-106132233D01*
X174189398Y-106146847D01*
X174207577Y-106163323D01*
X174224053Y-106181502D01*
X174238667Y-106201207D01*
X174251280Y-106222251D01*
X174261770Y-106244429D01*
X174270035Y-106267529D01*
X174275996Y-106291327D01*
X174279596Y-106315596D01*
X174280800Y-106340100D01*
X174280800Y-107090100D01*
X174279596Y-107114604D01*
X174275996Y-107138873D01*
X174270035Y-107162671D01*
X174261770Y-107185771D01*
X174251280Y-107207949D01*
X174238667Y-107228993D01*
X174224053Y-107248698D01*
X174207577Y-107266877D01*
X174189398Y-107283353D01*
X174169693Y-107297967D01*
X174148649Y-107310580D01*
X174126471Y-107321070D01*
X174103371Y-107329335D01*
X174079573Y-107335296D01*
X174055304Y-107338896D01*
X174030800Y-107340100D01*
X172780800Y-107340100D01*
X172756296Y-107338896D01*
X172732027Y-107335296D01*
X172708229Y-107329335D01*
X172685129Y-107321070D01*
X172662951Y-107310580D01*
X172641907Y-107297967D01*
X172622202Y-107283353D01*
X172604023Y-107266877D01*
X172587547Y-107248698D01*
X172572933Y-107228993D01*
X172560320Y-107207949D01*
X172549830Y-107185771D01*
X172541565Y-107162671D01*
X172535604Y-107138873D01*
X172532004Y-107114604D01*
X172530800Y-107090100D01*
X172530800Y-106340100D01*
X172532004Y-106315596D01*
X172535604Y-106291327D01*
X172541565Y-106267529D01*
X172549830Y-106244429D01*
X172560320Y-106222251D01*
X172572933Y-106201207D01*
X172587547Y-106181502D01*
X172604023Y-106163323D01*
X172622202Y-106146847D01*
X172641907Y-106132233D01*
X172662951Y-106119620D01*
X172685129Y-106109130D01*
X172708229Y-106100865D01*
X172732027Y-106094904D01*
X172756296Y-106091304D01*
X172780800Y-106090100D01*
X174030800Y-106090100D01*
X174055304Y-106091304D01*
X174055304Y-106091304D01*
G37*
D13*
X173405800Y-106715100D03*
G04 #@! TD*
D12*
G04 #@! TO.C,R11*
G36*
X157799304Y-118346804D02*
X157823573Y-118350404D01*
X157847371Y-118356365D01*
X157870471Y-118364630D01*
X157892649Y-118375120D01*
X157913693Y-118387733D01*
X157933398Y-118402347D01*
X157951577Y-118418823D01*
X157968053Y-118437002D01*
X157982667Y-118456707D01*
X157995280Y-118477751D01*
X158005770Y-118499929D01*
X158014035Y-118523029D01*
X158019996Y-118546827D01*
X158023596Y-118571096D01*
X158024800Y-118595600D01*
X158024800Y-119345600D01*
X158023596Y-119370104D01*
X158019996Y-119394373D01*
X158014035Y-119418171D01*
X158005770Y-119441271D01*
X157995280Y-119463449D01*
X157982667Y-119484493D01*
X157968053Y-119504198D01*
X157951577Y-119522377D01*
X157933398Y-119538853D01*
X157913693Y-119553467D01*
X157892649Y-119566080D01*
X157870471Y-119576570D01*
X157847371Y-119584835D01*
X157823573Y-119590796D01*
X157799304Y-119594396D01*
X157774800Y-119595600D01*
X156524800Y-119595600D01*
X156500296Y-119594396D01*
X156476027Y-119590796D01*
X156452229Y-119584835D01*
X156429129Y-119576570D01*
X156406951Y-119566080D01*
X156385907Y-119553467D01*
X156366202Y-119538853D01*
X156348023Y-119522377D01*
X156331547Y-119504198D01*
X156316933Y-119484493D01*
X156304320Y-119463449D01*
X156293830Y-119441271D01*
X156285565Y-119418171D01*
X156279604Y-119394373D01*
X156276004Y-119370104D01*
X156274800Y-119345600D01*
X156274800Y-118595600D01*
X156276004Y-118571096D01*
X156279604Y-118546827D01*
X156285565Y-118523029D01*
X156293830Y-118499929D01*
X156304320Y-118477751D01*
X156316933Y-118456707D01*
X156331547Y-118437002D01*
X156348023Y-118418823D01*
X156366202Y-118402347D01*
X156385907Y-118387733D01*
X156406951Y-118375120D01*
X156429129Y-118364630D01*
X156452229Y-118356365D01*
X156476027Y-118350404D01*
X156500296Y-118346804D01*
X156524800Y-118345600D01*
X157774800Y-118345600D01*
X157799304Y-118346804D01*
X157799304Y-118346804D01*
G37*
D13*
X157149800Y-118970600D03*
D12*
G36*
X157799304Y-121146804D02*
X157823573Y-121150404D01*
X157847371Y-121156365D01*
X157870471Y-121164630D01*
X157892649Y-121175120D01*
X157913693Y-121187733D01*
X157933398Y-121202347D01*
X157951577Y-121218823D01*
X157968053Y-121237002D01*
X157982667Y-121256707D01*
X157995280Y-121277751D01*
X158005770Y-121299929D01*
X158014035Y-121323029D01*
X158019996Y-121346827D01*
X158023596Y-121371096D01*
X158024800Y-121395600D01*
X158024800Y-122145600D01*
X158023596Y-122170104D01*
X158019996Y-122194373D01*
X158014035Y-122218171D01*
X158005770Y-122241271D01*
X157995280Y-122263449D01*
X157982667Y-122284493D01*
X157968053Y-122304198D01*
X157951577Y-122322377D01*
X157933398Y-122338853D01*
X157913693Y-122353467D01*
X157892649Y-122366080D01*
X157870471Y-122376570D01*
X157847371Y-122384835D01*
X157823573Y-122390796D01*
X157799304Y-122394396D01*
X157774800Y-122395600D01*
X156524800Y-122395600D01*
X156500296Y-122394396D01*
X156476027Y-122390796D01*
X156452229Y-122384835D01*
X156429129Y-122376570D01*
X156406951Y-122366080D01*
X156385907Y-122353467D01*
X156366202Y-122338853D01*
X156348023Y-122322377D01*
X156331547Y-122304198D01*
X156316933Y-122284493D01*
X156304320Y-122263449D01*
X156293830Y-122241271D01*
X156285565Y-122218171D01*
X156279604Y-122194373D01*
X156276004Y-122170104D01*
X156274800Y-122145600D01*
X156274800Y-121395600D01*
X156276004Y-121371096D01*
X156279604Y-121346827D01*
X156285565Y-121323029D01*
X156293830Y-121299929D01*
X156304320Y-121277751D01*
X156316933Y-121256707D01*
X156331547Y-121237002D01*
X156348023Y-121218823D01*
X156366202Y-121202347D01*
X156385907Y-121187733D01*
X156406951Y-121175120D01*
X156429129Y-121164630D01*
X156452229Y-121156365D01*
X156476027Y-121150404D01*
X156500296Y-121146804D01*
X156524800Y-121145600D01*
X157774800Y-121145600D01*
X157799304Y-121146804D01*
X157799304Y-121146804D01*
G37*
D13*
X157149800Y-121770600D03*
G04 #@! TD*
D12*
G04 #@! TO.C,R12*
G36*
X173001204Y-120778504D02*
X173025473Y-120782104D01*
X173049271Y-120788065D01*
X173072371Y-120796330D01*
X173094549Y-120806820D01*
X173115593Y-120819433D01*
X173135298Y-120834047D01*
X173153477Y-120850523D01*
X173169953Y-120868702D01*
X173184567Y-120888407D01*
X173197180Y-120909451D01*
X173207670Y-120931629D01*
X173215935Y-120954729D01*
X173221896Y-120978527D01*
X173225496Y-121002796D01*
X173226700Y-121027300D01*
X173226700Y-121777300D01*
X173225496Y-121801804D01*
X173221896Y-121826073D01*
X173215935Y-121849871D01*
X173207670Y-121872971D01*
X173197180Y-121895149D01*
X173184567Y-121916193D01*
X173169953Y-121935898D01*
X173153477Y-121954077D01*
X173135298Y-121970553D01*
X173115593Y-121985167D01*
X173094549Y-121997780D01*
X173072371Y-122008270D01*
X173049271Y-122016535D01*
X173025473Y-122022496D01*
X173001204Y-122026096D01*
X172976700Y-122027300D01*
X171726700Y-122027300D01*
X171702196Y-122026096D01*
X171677927Y-122022496D01*
X171654129Y-122016535D01*
X171631029Y-122008270D01*
X171608851Y-121997780D01*
X171587807Y-121985167D01*
X171568102Y-121970553D01*
X171549923Y-121954077D01*
X171533447Y-121935898D01*
X171518833Y-121916193D01*
X171506220Y-121895149D01*
X171495730Y-121872971D01*
X171487465Y-121849871D01*
X171481504Y-121826073D01*
X171477904Y-121801804D01*
X171476700Y-121777300D01*
X171476700Y-121027300D01*
X171477904Y-121002796D01*
X171481504Y-120978527D01*
X171487465Y-120954729D01*
X171495730Y-120931629D01*
X171506220Y-120909451D01*
X171518833Y-120888407D01*
X171533447Y-120868702D01*
X171549923Y-120850523D01*
X171568102Y-120834047D01*
X171587807Y-120819433D01*
X171608851Y-120806820D01*
X171631029Y-120796330D01*
X171654129Y-120788065D01*
X171677927Y-120782104D01*
X171702196Y-120778504D01*
X171726700Y-120777300D01*
X172976700Y-120777300D01*
X173001204Y-120778504D01*
X173001204Y-120778504D01*
G37*
D13*
X172351700Y-121402300D03*
D12*
G36*
X173001204Y-117978504D02*
X173025473Y-117982104D01*
X173049271Y-117988065D01*
X173072371Y-117996330D01*
X173094549Y-118006820D01*
X173115593Y-118019433D01*
X173135298Y-118034047D01*
X173153477Y-118050523D01*
X173169953Y-118068702D01*
X173184567Y-118088407D01*
X173197180Y-118109451D01*
X173207670Y-118131629D01*
X173215935Y-118154729D01*
X173221896Y-118178527D01*
X173225496Y-118202796D01*
X173226700Y-118227300D01*
X173226700Y-118977300D01*
X173225496Y-119001804D01*
X173221896Y-119026073D01*
X173215935Y-119049871D01*
X173207670Y-119072971D01*
X173197180Y-119095149D01*
X173184567Y-119116193D01*
X173169953Y-119135898D01*
X173153477Y-119154077D01*
X173135298Y-119170553D01*
X173115593Y-119185167D01*
X173094549Y-119197780D01*
X173072371Y-119208270D01*
X173049271Y-119216535D01*
X173025473Y-119222496D01*
X173001204Y-119226096D01*
X172976700Y-119227300D01*
X171726700Y-119227300D01*
X171702196Y-119226096D01*
X171677927Y-119222496D01*
X171654129Y-119216535D01*
X171631029Y-119208270D01*
X171608851Y-119197780D01*
X171587807Y-119185167D01*
X171568102Y-119170553D01*
X171549923Y-119154077D01*
X171533447Y-119135898D01*
X171518833Y-119116193D01*
X171506220Y-119095149D01*
X171495730Y-119072971D01*
X171487465Y-119049871D01*
X171481504Y-119026073D01*
X171477904Y-119001804D01*
X171476700Y-118977300D01*
X171476700Y-118227300D01*
X171477904Y-118202796D01*
X171481504Y-118178527D01*
X171487465Y-118154729D01*
X171495730Y-118131629D01*
X171506220Y-118109451D01*
X171518833Y-118088407D01*
X171533447Y-118068702D01*
X171549923Y-118050523D01*
X171568102Y-118034047D01*
X171587807Y-118019433D01*
X171608851Y-118006820D01*
X171631029Y-117996330D01*
X171654129Y-117988065D01*
X171677927Y-117982104D01*
X171702196Y-117978504D01*
X171726700Y-117977300D01*
X172976700Y-117977300D01*
X173001204Y-117978504D01*
X173001204Y-117978504D01*
G37*
D13*
X172351700Y-118602300D03*
G04 #@! TD*
D11*
G04 #@! TO.C,Q3*
X160832400Y-106704100D03*
X160832400Y-111304100D03*
X160832400Y-109004100D03*
D10*
X167132400Y-109004100D03*
G04 #@! TD*
G04 #@! TO.C,Q4*
X182461300Y-109004100D03*
D11*
X176161300Y-109004100D03*
X176161300Y-111304100D03*
X176161300Y-106704100D03*
G04 #@! TD*
G04 #@! TO.C,Q5*
X160921300Y-118832600D03*
X160921300Y-123432600D03*
X160921300Y-121132600D03*
D10*
X167221300Y-121132600D03*
G04 #@! TD*
G04 #@! TO.C,Q6*
X182461300Y-120929400D03*
D11*
X176161300Y-120929400D03*
X176161300Y-123229400D03*
X176161300Y-118629400D03*
G04 #@! TD*
D10*
G04 #@! TO.C,Q1*
X182461300Y-96532700D03*
D11*
X176161300Y-96532700D03*
X176161300Y-98832700D03*
X176161300Y-94232700D03*
G04 #@! TD*
M02*
