G04 #@! TF.GenerationSoftware,KiCad,Pcbnew,(5.1.2)-2*
G04 #@! TF.CreationDate,2020-01-30T23:07:06-06:00*
G04 #@! TF.ProjectId,Igniter,49676e69-7465-4722-9e6b-696361645f70,rev?*
G04 #@! TF.SameCoordinates,Original*
G04 #@! TF.FileFunction,Paste,Top*
G04 #@! TF.FilePolarity,Positive*
%FSLAX46Y46*%
G04 Gerber Fmt 4.6, Leading zero omitted, Abs format (unit mm)*
G04 Created by KiCad (PCBNEW (5.1.2)-2) date 2020-01-30 23:07:06*
%MOMM*%
%LPD*%
G04 APERTURE LIST*
%ADD10R,1.100000X1.100000*%
%ADD11R,1.300000X0.800000*%
%ADD12R,2.000000X3.800000*%
%ADD13R,2.000000X1.500000*%
%ADD14C,0.100000*%
%ADD15C,1.250000*%
%ADD16R,1.400000X0.700000*%
%ADD17R,1.900000X1.500000*%
%ADD18R,1.400000X1.000000*%
%ADD19R,1.200000X1.200000*%
%ADD20R,3.200000X1.200000*%
%ADD21R,1.200000X0.700000*%
%ADD22R,0.500000X0.500000*%
%ADD23R,0.800000X1.200000*%
%ADD24C,0.200000*%
%ADD25R,1.750000X0.550000*%
G04 APERTURE END LIST*
D10*
X170056000Y-101854000D03*
X167256000Y-101854000D03*
D11*
X108458000Y-113020000D03*
X108458000Y-114300000D03*
X108458000Y-115560000D03*
X108458000Y-116830000D03*
X108458000Y-118110000D03*
X108458000Y-119380000D03*
X108458000Y-120640000D03*
X108458000Y-121920000D03*
X114758000Y-121920000D03*
X114758000Y-120640000D03*
X114758000Y-119380000D03*
X114758000Y-118110000D03*
X114758000Y-116830000D03*
X114758000Y-115560000D03*
X114758000Y-114300000D03*
X114758000Y-113020000D03*
D12*
X167132400Y-96710500D03*
D13*
X160832400Y-96710500D03*
X160832400Y-99010500D03*
X160832400Y-94410500D03*
D14*
G36*
X107965504Y-99039009D02*
G01*
X107989773Y-99042609D01*
X108013571Y-99048570D01*
X108036671Y-99056835D01*
X108058849Y-99067325D01*
X108079893Y-99079938D01*
X108099598Y-99094552D01*
X108117777Y-99111028D01*
X108134253Y-99129207D01*
X108148867Y-99148912D01*
X108161480Y-99169956D01*
X108171970Y-99192134D01*
X108180235Y-99215234D01*
X108186196Y-99239032D01*
X108189796Y-99263301D01*
X108191000Y-99287805D01*
X108191000Y-100537805D01*
X108189796Y-100562309D01*
X108186196Y-100586578D01*
X108180235Y-100610376D01*
X108171970Y-100633476D01*
X108161480Y-100655654D01*
X108148867Y-100676698D01*
X108134253Y-100696403D01*
X108117777Y-100714582D01*
X108099598Y-100731058D01*
X108079893Y-100745672D01*
X108058849Y-100758285D01*
X108036671Y-100768775D01*
X108013571Y-100777040D01*
X107989773Y-100783001D01*
X107965504Y-100786601D01*
X107941000Y-100787805D01*
X107191000Y-100787805D01*
X107166496Y-100786601D01*
X107142227Y-100783001D01*
X107118429Y-100777040D01*
X107095329Y-100768775D01*
X107073151Y-100758285D01*
X107052107Y-100745672D01*
X107032402Y-100731058D01*
X107014223Y-100714582D01*
X106997747Y-100696403D01*
X106983133Y-100676698D01*
X106970520Y-100655654D01*
X106960030Y-100633476D01*
X106951765Y-100610376D01*
X106945804Y-100586578D01*
X106942204Y-100562309D01*
X106941000Y-100537805D01*
X106941000Y-99287805D01*
X106942204Y-99263301D01*
X106945804Y-99239032D01*
X106951765Y-99215234D01*
X106960030Y-99192134D01*
X106970520Y-99169956D01*
X106983133Y-99148912D01*
X106997747Y-99129207D01*
X107014223Y-99111028D01*
X107032402Y-99094552D01*
X107052107Y-99079938D01*
X107073151Y-99067325D01*
X107095329Y-99056835D01*
X107118429Y-99048570D01*
X107142227Y-99042609D01*
X107166496Y-99039009D01*
X107191000Y-99037805D01*
X107941000Y-99037805D01*
X107965504Y-99039009D01*
X107965504Y-99039009D01*
G37*
D15*
X107566000Y-99912805D03*
D14*
G36*
X110765504Y-99039009D02*
G01*
X110789773Y-99042609D01*
X110813571Y-99048570D01*
X110836671Y-99056835D01*
X110858849Y-99067325D01*
X110879893Y-99079938D01*
X110899598Y-99094552D01*
X110917777Y-99111028D01*
X110934253Y-99129207D01*
X110948867Y-99148912D01*
X110961480Y-99169956D01*
X110971970Y-99192134D01*
X110980235Y-99215234D01*
X110986196Y-99239032D01*
X110989796Y-99263301D01*
X110991000Y-99287805D01*
X110991000Y-100537805D01*
X110989796Y-100562309D01*
X110986196Y-100586578D01*
X110980235Y-100610376D01*
X110971970Y-100633476D01*
X110961480Y-100655654D01*
X110948867Y-100676698D01*
X110934253Y-100696403D01*
X110917777Y-100714582D01*
X110899598Y-100731058D01*
X110879893Y-100745672D01*
X110858849Y-100758285D01*
X110836671Y-100768775D01*
X110813571Y-100777040D01*
X110789773Y-100783001D01*
X110765504Y-100786601D01*
X110741000Y-100787805D01*
X109991000Y-100787805D01*
X109966496Y-100786601D01*
X109942227Y-100783001D01*
X109918429Y-100777040D01*
X109895329Y-100768775D01*
X109873151Y-100758285D01*
X109852107Y-100745672D01*
X109832402Y-100731058D01*
X109814223Y-100714582D01*
X109797747Y-100696403D01*
X109783133Y-100676698D01*
X109770520Y-100655654D01*
X109760030Y-100633476D01*
X109751765Y-100610376D01*
X109745804Y-100586578D01*
X109742204Y-100562309D01*
X109741000Y-100537805D01*
X109741000Y-99287805D01*
X109742204Y-99263301D01*
X109745804Y-99239032D01*
X109751765Y-99215234D01*
X109760030Y-99192134D01*
X109770520Y-99169956D01*
X109783133Y-99148912D01*
X109797747Y-99129207D01*
X109814223Y-99111028D01*
X109832402Y-99094552D01*
X109852107Y-99079938D01*
X109873151Y-99067325D01*
X109895329Y-99056835D01*
X109918429Y-99048570D01*
X109942227Y-99042609D01*
X109966496Y-99039009D01*
X109991000Y-99037805D01*
X110741000Y-99037805D01*
X110765504Y-99039009D01*
X110765504Y-99039009D01*
G37*
D15*
X110366000Y-99912805D03*
D16*
X102240000Y-113200000D03*
D17*
X87240000Y-109400000D03*
D18*
X102240000Y-111300000D03*
D19*
X98040000Y-122700000D03*
D20*
X88240000Y-122700000D03*
D21*
X102340000Y-121850000D03*
D16*
X102240000Y-114300000D03*
X102240000Y-115400000D03*
X102240000Y-116500000D03*
X102240000Y-117600000D03*
X102240000Y-118700000D03*
X102240000Y-119800000D03*
X102240000Y-120900000D03*
D22*
X86540000Y-110400000D03*
D23*
X91840000Y-122700000D03*
D24*
X86790000Y-110150000D03*
D14*
G36*
X86648579Y-110150000D02*
G01*
X86790000Y-110008579D01*
X86931421Y-110150000D01*
X86790000Y-110291421D01*
X86648579Y-110150000D01*
X86648579Y-110150000D01*
G37*
G36*
X107965504Y-94467644D02*
G01*
X107989773Y-94471244D01*
X108013571Y-94477205D01*
X108036671Y-94485470D01*
X108058849Y-94495960D01*
X108079893Y-94508573D01*
X108099598Y-94523187D01*
X108117777Y-94539663D01*
X108134253Y-94557842D01*
X108148867Y-94577547D01*
X108161480Y-94598591D01*
X108171970Y-94620769D01*
X108180235Y-94643869D01*
X108186196Y-94667667D01*
X108189796Y-94691936D01*
X108191000Y-94716440D01*
X108191000Y-95966440D01*
X108189796Y-95990944D01*
X108186196Y-96015213D01*
X108180235Y-96039011D01*
X108171970Y-96062111D01*
X108161480Y-96084289D01*
X108148867Y-96105333D01*
X108134253Y-96125038D01*
X108117777Y-96143217D01*
X108099598Y-96159693D01*
X108079893Y-96174307D01*
X108058849Y-96186920D01*
X108036671Y-96197410D01*
X108013571Y-96205675D01*
X107989773Y-96211636D01*
X107965504Y-96215236D01*
X107941000Y-96216440D01*
X107191000Y-96216440D01*
X107166496Y-96215236D01*
X107142227Y-96211636D01*
X107118429Y-96205675D01*
X107095329Y-96197410D01*
X107073151Y-96186920D01*
X107052107Y-96174307D01*
X107032402Y-96159693D01*
X107014223Y-96143217D01*
X106997747Y-96125038D01*
X106983133Y-96105333D01*
X106970520Y-96084289D01*
X106960030Y-96062111D01*
X106951765Y-96039011D01*
X106945804Y-96015213D01*
X106942204Y-95990944D01*
X106941000Y-95966440D01*
X106941000Y-94716440D01*
X106942204Y-94691936D01*
X106945804Y-94667667D01*
X106951765Y-94643869D01*
X106960030Y-94620769D01*
X106970520Y-94598591D01*
X106983133Y-94577547D01*
X106997747Y-94557842D01*
X107014223Y-94539663D01*
X107032402Y-94523187D01*
X107052107Y-94508573D01*
X107073151Y-94495960D01*
X107095329Y-94485470D01*
X107118429Y-94477205D01*
X107142227Y-94471244D01*
X107166496Y-94467644D01*
X107191000Y-94466440D01*
X107941000Y-94466440D01*
X107965504Y-94467644D01*
X107965504Y-94467644D01*
G37*
D15*
X107566000Y-95341440D03*
D14*
G36*
X110765504Y-94467644D02*
G01*
X110789773Y-94471244D01*
X110813571Y-94477205D01*
X110836671Y-94485470D01*
X110858849Y-94495960D01*
X110879893Y-94508573D01*
X110899598Y-94523187D01*
X110917777Y-94539663D01*
X110934253Y-94557842D01*
X110948867Y-94577547D01*
X110961480Y-94598591D01*
X110971970Y-94620769D01*
X110980235Y-94643869D01*
X110986196Y-94667667D01*
X110989796Y-94691936D01*
X110991000Y-94716440D01*
X110991000Y-95966440D01*
X110989796Y-95990944D01*
X110986196Y-96015213D01*
X110980235Y-96039011D01*
X110971970Y-96062111D01*
X110961480Y-96084289D01*
X110948867Y-96105333D01*
X110934253Y-96125038D01*
X110917777Y-96143217D01*
X110899598Y-96159693D01*
X110879893Y-96174307D01*
X110858849Y-96186920D01*
X110836671Y-96197410D01*
X110813571Y-96205675D01*
X110789773Y-96211636D01*
X110765504Y-96215236D01*
X110741000Y-96216440D01*
X109991000Y-96216440D01*
X109966496Y-96215236D01*
X109942227Y-96211636D01*
X109918429Y-96205675D01*
X109895329Y-96197410D01*
X109873151Y-96186920D01*
X109852107Y-96174307D01*
X109832402Y-96159693D01*
X109814223Y-96143217D01*
X109797747Y-96125038D01*
X109783133Y-96105333D01*
X109770520Y-96084289D01*
X109760030Y-96062111D01*
X109751765Y-96039011D01*
X109745804Y-96015213D01*
X109742204Y-95990944D01*
X109741000Y-95966440D01*
X109741000Y-94716440D01*
X109742204Y-94691936D01*
X109745804Y-94667667D01*
X109751765Y-94643869D01*
X109760030Y-94620769D01*
X109770520Y-94598591D01*
X109783133Y-94577547D01*
X109797747Y-94557842D01*
X109814223Y-94539663D01*
X109832402Y-94523187D01*
X109852107Y-94508573D01*
X109873151Y-94495960D01*
X109895329Y-94485470D01*
X109918429Y-94477205D01*
X109942227Y-94471244D01*
X109966496Y-94467644D01*
X109991000Y-94466440D01*
X110741000Y-94466440D01*
X110765504Y-94467644D01*
X110765504Y-94467644D01*
G37*
D15*
X110366000Y-95341440D03*
D25*
X137126000Y-97536000D03*
X137126000Y-98806000D03*
X137126000Y-100076000D03*
X137126000Y-101346000D03*
X144526000Y-101346000D03*
X144526000Y-100076000D03*
X144526000Y-98806000D03*
X144526000Y-97536000D03*
X144526000Y-106172000D03*
X144526000Y-107442000D03*
X144526000Y-108712000D03*
X144526000Y-109982000D03*
X137126000Y-109982000D03*
X137126000Y-108712000D03*
X137126000Y-107442000D03*
X137126000Y-106172000D03*
X137126000Y-114935000D03*
X137126000Y-116205000D03*
X137126000Y-117475000D03*
X137126000Y-118745000D03*
X144526000Y-118745000D03*
X144526000Y-117475000D03*
X144526000Y-116205000D03*
X144526000Y-114935000D03*
D14*
G36*
X116584184Y-99039009D02*
G01*
X116608453Y-99042609D01*
X116632251Y-99048570D01*
X116655351Y-99056835D01*
X116677529Y-99067325D01*
X116698573Y-99079938D01*
X116718278Y-99094552D01*
X116736457Y-99111028D01*
X116752933Y-99129207D01*
X116767547Y-99148912D01*
X116780160Y-99169956D01*
X116790650Y-99192134D01*
X116798915Y-99215234D01*
X116804876Y-99239032D01*
X116808476Y-99263301D01*
X116809680Y-99287805D01*
X116809680Y-100537805D01*
X116808476Y-100562309D01*
X116804876Y-100586578D01*
X116798915Y-100610376D01*
X116790650Y-100633476D01*
X116780160Y-100655654D01*
X116767547Y-100676698D01*
X116752933Y-100696403D01*
X116736457Y-100714582D01*
X116718278Y-100731058D01*
X116698573Y-100745672D01*
X116677529Y-100758285D01*
X116655351Y-100768775D01*
X116632251Y-100777040D01*
X116608453Y-100783001D01*
X116584184Y-100786601D01*
X116559680Y-100787805D01*
X115809680Y-100787805D01*
X115785176Y-100786601D01*
X115760907Y-100783001D01*
X115737109Y-100777040D01*
X115714009Y-100768775D01*
X115691831Y-100758285D01*
X115670787Y-100745672D01*
X115651082Y-100731058D01*
X115632903Y-100714582D01*
X115616427Y-100696403D01*
X115601813Y-100676698D01*
X115589200Y-100655654D01*
X115578710Y-100633476D01*
X115570445Y-100610376D01*
X115564484Y-100586578D01*
X115560884Y-100562309D01*
X115559680Y-100537805D01*
X115559680Y-99287805D01*
X115560884Y-99263301D01*
X115564484Y-99239032D01*
X115570445Y-99215234D01*
X115578710Y-99192134D01*
X115589200Y-99169956D01*
X115601813Y-99148912D01*
X115616427Y-99129207D01*
X115632903Y-99111028D01*
X115651082Y-99094552D01*
X115670787Y-99079938D01*
X115691831Y-99067325D01*
X115714009Y-99056835D01*
X115737109Y-99048570D01*
X115760907Y-99042609D01*
X115785176Y-99039009D01*
X115809680Y-99037805D01*
X116559680Y-99037805D01*
X116584184Y-99039009D01*
X116584184Y-99039009D01*
G37*
D15*
X116184680Y-99912805D03*
D14*
G36*
X113784184Y-99039009D02*
G01*
X113808453Y-99042609D01*
X113832251Y-99048570D01*
X113855351Y-99056835D01*
X113877529Y-99067325D01*
X113898573Y-99079938D01*
X113918278Y-99094552D01*
X113936457Y-99111028D01*
X113952933Y-99129207D01*
X113967547Y-99148912D01*
X113980160Y-99169956D01*
X113990650Y-99192134D01*
X113998915Y-99215234D01*
X114004876Y-99239032D01*
X114008476Y-99263301D01*
X114009680Y-99287805D01*
X114009680Y-100537805D01*
X114008476Y-100562309D01*
X114004876Y-100586578D01*
X113998915Y-100610376D01*
X113990650Y-100633476D01*
X113980160Y-100655654D01*
X113967547Y-100676698D01*
X113952933Y-100696403D01*
X113936457Y-100714582D01*
X113918278Y-100731058D01*
X113898573Y-100745672D01*
X113877529Y-100758285D01*
X113855351Y-100768775D01*
X113832251Y-100777040D01*
X113808453Y-100783001D01*
X113784184Y-100786601D01*
X113759680Y-100787805D01*
X113009680Y-100787805D01*
X112985176Y-100786601D01*
X112960907Y-100783001D01*
X112937109Y-100777040D01*
X112914009Y-100768775D01*
X112891831Y-100758285D01*
X112870787Y-100745672D01*
X112851082Y-100731058D01*
X112832903Y-100714582D01*
X112816427Y-100696403D01*
X112801813Y-100676698D01*
X112789200Y-100655654D01*
X112778710Y-100633476D01*
X112770445Y-100610376D01*
X112764484Y-100586578D01*
X112760884Y-100562309D01*
X112759680Y-100537805D01*
X112759680Y-99287805D01*
X112760884Y-99263301D01*
X112764484Y-99239032D01*
X112770445Y-99215234D01*
X112778710Y-99192134D01*
X112789200Y-99169956D01*
X112801813Y-99148912D01*
X112816427Y-99129207D01*
X112832903Y-99111028D01*
X112851082Y-99094552D01*
X112870787Y-99079938D01*
X112891831Y-99067325D01*
X112914009Y-99056835D01*
X112937109Y-99048570D01*
X112960907Y-99042609D01*
X112985176Y-99039009D01*
X113009680Y-99037805D01*
X113759680Y-99037805D01*
X113784184Y-99039009D01*
X113784184Y-99039009D01*
G37*
D15*
X113384680Y-99912805D03*
D14*
G36*
X113784184Y-94467644D02*
G01*
X113808453Y-94471244D01*
X113832251Y-94477205D01*
X113855351Y-94485470D01*
X113877529Y-94495960D01*
X113898573Y-94508573D01*
X113918278Y-94523187D01*
X113936457Y-94539663D01*
X113952933Y-94557842D01*
X113967547Y-94577547D01*
X113980160Y-94598591D01*
X113990650Y-94620769D01*
X113998915Y-94643869D01*
X114004876Y-94667667D01*
X114008476Y-94691936D01*
X114009680Y-94716440D01*
X114009680Y-95966440D01*
X114008476Y-95990944D01*
X114004876Y-96015213D01*
X113998915Y-96039011D01*
X113990650Y-96062111D01*
X113980160Y-96084289D01*
X113967547Y-96105333D01*
X113952933Y-96125038D01*
X113936457Y-96143217D01*
X113918278Y-96159693D01*
X113898573Y-96174307D01*
X113877529Y-96186920D01*
X113855351Y-96197410D01*
X113832251Y-96205675D01*
X113808453Y-96211636D01*
X113784184Y-96215236D01*
X113759680Y-96216440D01*
X113009680Y-96216440D01*
X112985176Y-96215236D01*
X112960907Y-96211636D01*
X112937109Y-96205675D01*
X112914009Y-96197410D01*
X112891831Y-96186920D01*
X112870787Y-96174307D01*
X112851082Y-96159693D01*
X112832903Y-96143217D01*
X112816427Y-96125038D01*
X112801813Y-96105333D01*
X112789200Y-96084289D01*
X112778710Y-96062111D01*
X112770445Y-96039011D01*
X112764484Y-96015213D01*
X112760884Y-95990944D01*
X112759680Y-95966440D01*
X112759680Y-94716440D01*
X112760884Y-94691936D01*
X112764484Y-94667667D01*
X112770445Y-94643869D01*
X112778710Y-94620769D01*
X112789200Y-94598591D01*
X112801813Y-94577547D01*
X112816427Y-94557842D01*
X112832903Y-94539663D01*
X112851082Y-94523187D01*
X112870787Y-94508573D01*
X112891831Y-94495960D01*
X112914009Y-94485470D01*
X112937109Y-94477205D01*
X112960907Y-94471244D01*
X112985176Y-94467644D01*
X113009680Y-94466440D01*
X113759680Y-94466440D01*
X113784184Y-94467644D01*
X113784184Y-94467644D01*
G37*
D15*
X113384680Y-95341440D03*
D14*
G36*
X116584184Y-94467644D02*
G01*
X116608453Y-94471244D01*
X116632251Y-94477205D01*
X116655351Y-94485470D01*
X116677529Y-94495960D01*
X116698573Y-94508573D01*
X116718278Y-94523187D01*
X116736457Y-94539663D01*
X116752933Y-94557842D01*
X116767547Y-94577547D01*
X116780160Y-94598591D01*
X116790650Y-94620769D01*
X116798915Y-94643869D01*
X116804876Y-94667667D01*
X116808476Y-94691936D01*
X116809680Y-94716440D01*
X116809680Y-95966440D01*
X116808476Y-95990944D01*
X116804876Y-96015213D01*
X116798915Y-96039011D01*
X116790650Y-96062111D01*
X116780160Y-96084289D01*
X116767547Y-96105333D01*
X116752933Y-96125038D01*
X116736457Y-96143217D01*
X116718278Y-96159693D01*
X116698573Y-96174307D01*
X116677529Y-96186920D01*
X116655351Y-96197410D01*
X116632251Y-96205675D01*
X116608453Y-96211636D01*
X116584184Y-96215236D01*
X116559680Y-96216440D01*
X115809680Y-96216440D01*
X115785176Y-96215236D01*
X115760907Y-96211636D01*
X115737109Y-96205675D01*
X115714009Y-96197410D01*
X115691831Y-96186920D01*
X115670787Y-96174307D01*
X115651082Y-96159693D01*
X115632903Y-96143217D01*
X115616427Y-96125038D01*
X115601813Y-96105333D01*
X115589200Y-96084289D01*
X115578710Y-96062111D01*
X115570445Y-96039011D01*
X115564484Y-96015213D01*
X115560884Y-95990944D01*
X115559680Y-95966440D01*
X115559680Y-94716440D01*
X115560884Y-94691936D01*
X115564484Y-94667667D01*
X115570445Y-94643869D01*
X115578710Y-94620769D01*
X115589200Y-94598591D01*
X115601813Y-94577547D01*
X115616427Y-94557842D01*
X115632903Y-94539663D01*
X115651082Y-94523187D01*
X115670787Y-94508573D01*
X115691831Y-94495960D01*
X115714009Y-94485470D01*
X115737109Y-94477205D01*
X115760907Y-94471244D01*
X115785176Y-94467644D01*
X115809680Y-94466440D01*
X116559680Y-94466440D01*
X116584184Y-94467644D01*
X116584184Y-94467644D01*
G37*
D15*
X116184680Y-95341440D03*
D14*
G36*
X131316184Y-94467644D02*
G01*
X131340453Y-94471244D01*
X131364251Y-94477205D01*
X131387351Y-94485470D01*
X131409529Y-94495960D01*
X131430573Y-94508573D01*
X131450278Y-94523187D01*
X131468457Y-94539663D01*
X131484933Y-94557842D01*
X131499547Y-94577547D01*
X131512160Y-94598591D01*
X131522650Y-94620769D01*
X131530915Y-94643869D01*
X131536876Y-94667667D01*
X131540476Y-94691936D01*
X131541680Y-94716440D01*
X131541680Y-95966440D01*
X131540476Y-95990944D01*
X131536876Y-96015213D01*
X131530915Y-96039011D01*
X131522650Y-96062111D01*
X131512160Y-96084289D01*
X131499547Y-96105333D01*
X131484933Y-96125038D01*
X131468457Y-96143217D01*
X131450278Y-96159693D01*
X131430573Y-96174307D01*
X131409529Y-96186920D01*
X131387351Y-96197410D01*
X131364251Y-96205675D01*
X131340453Y-96211636D01*
X131316184Y-96215236D01*
X131291680Y-96216440D01*
X130541680Y-96216440D01*
X130517176Y-96215236D01*
X130492907Y-96211636D01*
X130469109Y-96205675D01*
X130446009Y-96197410D01*
X130423831Y-96186920D01*
X130402787Y-96174307D01*
X130383082Y-96159693D01*
X130364903Y-96143217D01*
X130348427Y-96125038D01*
X130333813Y-96105333D01*
X130321200Y-96084289D01*
X130310710Y-96062111D01*
X130302445Y-96039011D01*
X130296484Y-96015213D01*
X130292884Y-95990944D01*
X130291680Y-95966440D01*
X130291680Y-94716440D01*
X130292884Y-94691936D01*
X130296484Y-94667667D01*
X130302445Y-94643869D01*
X130310710Y-94620769D01*
X130321200Y-94598591D01*
X130333813Y-94577547D01*
X130348427Y-94557842D01*
X130364903Y-94539663D01*
X130383082Y-94523187D01*
X130402787Y-94508573D01*
X130423831Y-94495960D01*
X130446009Y-94485470D01*
X130469109Y-94477205D01*
X130492907Y-94471244D01*
X130517176Y-94467644D01*
X130541680Y-94466440D01*
X131291680Y-94466440D01*
X131316184Y-94467644D01*
X131316184Y-94467644D01*
G37*
D15*
X130916680Y-95341440D03*
D14*
G36*
X128516184Y-94467644D02*
G01*
X128540453Y-94471244D01*
X128564251Y-94477205D01*
X128587351Y-94485470D01*
X128609529Y-94495960D01*
X128630573Y-94508573D01*
X128650278Y-94523187D01*
X128668457Y-94539663D01*
X128684933Y-94557842D01*
X128699547Y-94577547D01*
X128712160Y-94598591D01*
X128722650Y-94620769D01*
X128730915Y-94643869D01*
X128736876Y-94667667D01*
X128740476Y-94691936D01*
X128741680Y-94716440D01*
X128741680Y-95966440D01*
X128740476Y-95990944D01*
X128736876Y-96015213D01*
X128730915Y-96039011D01*
X128722650Y-96062111D01*
X128712160Y-96084289D01*
X128699547Y-96105333D01*
X128684933Y-96125038D01*
X128668457Y-96143217D01*
X128650278Y-96159693D01*
X128630573Y-96174307D01*
X128609529Y-96186920D01*
X128587351Y-96197410D01*
X128564251Y-96205675D01*
X128540453Y-96211636D01*
X128516184Y-96215236D01*
X128491680Y-96216440D01*
X127741680Y-96216440D01*
X127717176Y-96215236D01*
X127692907Y-96211636D01*
X127669109Y-96205675D01*
X127646009Y-96197410D01*
X127623831Y-96186920D01*
X127602787Y-96174307D01*
X127583082Y-96159693D01*
X127564903Y-96143217D01*
X127548427Y-96125038D01*
X127533813Y-96105333D01*
X127521200Y-96084289D01*
X127510710Y-96062111D01*
X127502445Y-96039011D01*
X127496484Y-96015213D01*
X127492884Y-95990944D01*
X127491680Y-95966440D01*
X127491680Y-94716440D01*
X127492884Y-94691936D01*
X127496484Y-94667667D01*
X127502445Y-94643869D01*
X127510710Y-94620769D01*
X127521200Y-94598591D01*
X127533813Y-94577547D01*
X127548427Y-94557842D01*
X127564903Y-94539663D01*
X127583082Y-94523187D01*
X127602787Y-94508573D01*
X127623831Y-94495960D01*
X127646009Y-94485470D01*
X127669109Y-94477205D01*
X127692907Y-94471244D01*
X127717176Y-94467644D01*
X127741680Y-94466440D01*
X128491680Y-94466440D01*
X128516184Y-94467644D01*
X128516184Y-94467644D01*
G37*
D15*
X128116680Y-95341440D03*
D14*
G36*
X197778904Y-89111404D02*
G01*
X197803173Y-89115004D01*
X197826971Y-89120965D01*
X197850071Y-89129230D01*
X197872249Y-89139720D01*
X197893293Y-89152333D01*
X197912998Y-89166947D01*
X197931177Y-89183423D01*
X197947653Y-89201602D01*
X197962267Y-89221307D01*
X197974880Y-89242351D01*
X197985370Y-89264529D01*
X197993635Y-89287629D01*
X197999596Y-89311427D01*
X198003196Y-89335696D01*
X198004400Y-89360200D01*
X198004400Y-90110200D01*
X198003196Y-90134704D01*
X197999596Y-90158973D01*
X197993635Y-90182771D01*
X197985370Y-90205871D01*
X197974880Y-90228049D01*
X197962267Y-90249093D01*
X197947653Y-90268798D01*
X197931177Y-90286977D01*
X197912998Y-90303453D01*
X197893293Y-90318067D01*
X197872249Y-90330680D01*
X197850071Y-90341170D01*
X197826971Y-90349435D01*
X197803173Y-90355396D01*
X197778904Y-90358996D01*
X197754400Y-90360200D01*
X196504400Y-90360200D01*
X196479896Y-90358996D01*
X196455627Y-90355396D01*
X196431829Y-90349435D01*
X196408729Y-90341170D01*
X196386551Y-90330680D01*
X196365507Y-90318067D01*
X196345802Y-90303453D01*
X196327623Y-90286977D01*
X196311147Y-90268798D01*
X196296533Y-90249093D01*
X196283920Y-90228049D01*
X196273430Y-90205871D01*
X196265165Y-90182771D01*
X196259204Y-90158973D01*
X196255604Y-90134704D01*
X196254400Y-90110200D01*
X196254400Y-89360200D01*
X196255604Y-89335696D01*
X196259204Y-89311427D01*
X196265165Y-89287629D01*
X196273430Y-89264529D01*
X196283920Y-89242351D01*
X196296533Y-89221307D01*
X196311147Y-89201602D01*
X196327623Y-89183423D01*
X196345802Y-89166947D01*
X196365507Y-89152333D01*
X196386551Y-89139720D01*
X196408729Y-89129230D01*
X196431829Y-89120965D01*
X196455627Y-89115004D01*
X196479896Y-89111404D01*
X196504400Y-89110200D01*
X197754400Y-89110200D01*
X197778904Y-89111404D01*
X197778904Y-89111404D01*
G37*
D15*
X197129400Y-89735200D03*
D14*
G36*
X197778904Y-91911404D02*
G01*
X197803173Y-91915004D01*
X197826971Y-91920965D01*
X197850071Y-91929230D01*
X197872249Y-91939720D01*
X197893293Y-91952333D01*
X197912998Y-91966947D01*
X197931177Y-91983423D01*
X197947653Y-92001602D01*
X197962267Y-92021307D01*
X197974880Y-92042351D01*
X197985370Y-92064529D01*
X197993635Y-92087629D01*
X197999596Y-92111427D01*
X198003196Y-92135696D01*
X198004400Y-92160200D01*
X198004400Y-92910200D01*
X198003196Y-92934704D01*
X197999596Y-92958973D01*
X197993635Y-92982771D01*
X197985370Y-93005871D01*
X197974880Y-93028049D01*
X197962267Y-93049093D01*
X197947653Y-93068798D01*
X197931177Y-93086977D01*
X197912998Y-93103453D01*
X197893293Y-93118067D01*
X197872249Y-93130680D01*
X197850071Y-93141170D01*
X197826971Y-93149435D01*
X197803173Y-93155396D01*
X197778904Y-93158996D01*
X197754400Y-93160200D01*
X196504400Y-93160200D01*
X196479896Y-93158996D01*
X196455627Y-93155396D01*
X196431829Y-93149435D01*
X196408729Y-93141170D01*
X196386551Y-93130680D01*
X196365507Y-93118067D01*
X196345802Y-93103453D01*
X196327623Y-93086977D01*
X196311147Y-93068798D01*
X196296533Y-93049093D01*
X196283920Y-93028049D01*
X196273430Y-93005871D01*
X196265165Y-92982771D01*
X196259204Y-92958973D01*
X196255604Y-92934704D01*
X196254400Y-92910200D01*
X196254400Y-92160200D01*
X196255604Y-92135696D01*
X196259204Y-92111427D01*
X196265165Y-92087629D01*
X196273430Y-92064529D01*
X196283920Y-92042351D01*
X196296533Y-92021307D01*
X196311147Y-92001602D01*
X196327623Y-91983423D01*
X196345802Y-91966947D01*
X196365507Y-91952333D01*
X196386551Y-91939720D01*
X196408729Y-91929230D01*
X196431829Y-91920965D01*
X196455627Y-91915004D01*
X196479896Y-91911404D01*
X196504400Y-91910200D01*
X197754400Y-91910200D01*
X197778904Y-91911404D01*
X197778904Y-91911404D01*
G37*
D15*
X197129400Y-92535200D03*
D14*
G36*
X131316184Y-103610374D02*
G01*
X131340453Y-103613974D01*
X131364251Y-103619935D01*
X131387351Y-103628200D01*
X131409529Y-103638690D01*
X131430573Y-103651303D01*
X131450278Y-103665917D01*
X131468457Y-103682393D01*
X131484933Y-103700572D01*
X131499547Y-103720277D01*
X131512160Y-103741321D01*
X131522650Y-103763499D01*
X131530915Y-103786599D01*
X131536876Y-103810397D01*
X131540476Y-103834666D01*
X131541680Y-103859170D01*
X131541680Y-105109170D01*
X131540476Y-105133674D01*
X131536876Y-105157943D01*
X131530915Y-105181741D01*
X131522650Y-105204841D01*
X131512160Y-105227019D01*
X131499547Y-105248063D01*
X131484933Y-105267768D01*
X131468457Y-105285947D01*
X131450278Y-105302423D01*
X131430573Y-105317037D01*
X131409529Y-105329650D01*
X131387351Y-105340140D01*
X131364251Y-105348405D01*
X131340453Y-105354366D01*
X131316184Y-105357966D01*
X131291680Y-105359170D01*
X130541680Y-105359170D01*
X130517176Y-105357966D01*
X130492907Y-105354366D01*
X130469109Y-105348405D01*
X130446009Y-105340140D01*
X130423831Y-105329650D01*
X130402787Y-105317037D01*
X130383082Y-105302423D01*
X130364903Y-105285947D01*
X130348427Y-105267768D01*
X130333813Y-105248063D01*
X130321200Y-105227019D01*
X130310710Y-105204841D01*
X130302445Y-105181741D01*
X130296484Y-105157943D01*
X130292884Y-105133674D01*
X130291680Y-105109170D01*
X130291680Y-103859170D01*
X130292884Y-103834666D01*
X130296484Y-103810397D01*
X130302445Y-103786599D01*
X130310710Y-103763499D01*
X130321200Y-103741321D01*
X130333813Y-103720277D01*
X130348427Y-103700572D01*
X130364903Y-103682393D01*
X130383082Y-103665917D01*
X130402787Y-103651303D01*
X130423831Y-103638690D01*
X130446009Y-103628200D01*
X130469109Y-103619935D01*
X130492907Y-103613974D01*
X130517176Y-103610374D01*
X130541680Y-103609170D01*
X131291680Y-103609170D01*
X131316184Y-103610374D01*
X131316184Y-103610374D01*
G37*
D15*
X130916680Y-104484170D03*
D14*
G36*
X128516184Y-103610374D02*
G01*
X128540453Y-103613974D01*
X128564251Y-103619935D01*
X128587351Y-103628200D01*
X128609529Y-103638690D01*
X128630573Y-103651303D01*
X128650278Y-103665917D01*
X128668457Y-103682393D01*
X128684933Y-103700572D01*
X128699547Y-103720277D01*
X128712160Y-103741321D01*
X128722650Y-103763499D01*
X128730915Y-103786599D01*
X128736876Y-103810397D01*
X128740476Y-103834666D01*
X128741680Y-103859170D01*
X128741680Y-105109170D01*
X128740476Y-105133674D01*
X128736876Y-105157943D01*
X128730915Y-105181741D01*
X128722650Y-105204841D01*
X128712160Y-105227019D01*
X128699547Y-105248063D01*
X128684933Y-105267768D01*
X128668457Y-105285947D01*
X128650278Y-105302423D01*
X128630573Y-105317037D01*
X128609529Y-105329650D01*
X128587351Y-105340140D01*
X128564251Y-105348405D01*
X128540453Y-105354366D01*
X128516184Y-105357966D01*
X128491680Y-105359170D01*
X127741680Y-105359170D01*
X127717176Y-105357966D01*
X127692907Y-105354366D01*
X127669109Y-105348405D01*
X127646009Y-105340140D01*
X127623831Y-105329650D01*
X127602787Y-105317037D01*
X127583082Y-105302423D01*
X127564903Y-105285947D01*
X127548427Y-105267768D01*
X127533813Y-105248063D01*
X127521200Y-105227019D01*
X127510710Y-105204841D01*
X127502445Y-105181741D01*
X127496484Y-105157943D01*
X127492884Y-105133674D01*
X127491680Y-105109170D01*
X127491680Y-103859170D01*
X127492884Y-103834666D01*
X127496484Y-103810397D01*
X127502445Y-103786599D01*
X127510710Y-103763499D01*
X127521200Y-103741321D01*
X127533813Y-103720277D01*
X127548427Y-103700572D01*
X127564903Y-103682393D01*
X127583082Y-103665917D01*
X127602787Y-103651303D01*
X127623831Y-103638690D01*
X127646009Y-103628200D01*
X127669109Y-103619935D01*
X127692907Y-103613974D01*
X127717176Y-103610374D01*
X127741680Y-103609170D01*
X128491680Y-103609170D01*
X128516184Y-103610374D01*
X128516184Y-103610374D01*
G37*
D15*
X128116680Y-104484170D03*
D14*
G36*
X128516184Y-99039009D02*
G01*
X128540453Y-99042609D01*
X128564251Y-99048570D01*
X128587351Y-99056835D01*
X128609529Y-99067325D01*
X128630573Y-99079938D01*
X128650278Y-99094552D01*
X128668457Y-99111028D01*
X128684933Y-99129207D01*
X128699547Y-99148912D01*
X128712160Y-99169956D01*
X128722650Y-99192134D01*
X128730915Y-99215234D01*
X128736876Y-99239032D01*
X128740476Y-99263301D01*
X128741680Y-99287805D01*
X128741680Y-100537805D01*
X128740476Y-100562309D01*
X128736876Y-100586578D01*
X128730915Y-100610376D01*
X128722650Y-100633476D01*
X128712160Y-100655654D01*
X128699547Y-100676698D01*
X128684933Y-100696403D01*
X128668457Y-100714582D01*
X128650278Y-100731058D01*
X128630573Y-100745672D01*
X128609529Y-100758285D01*
X128587351Y-100768775D01*
X128564251Y-100777040D01*
X128540453Y-100783001D01*
X128516184Y-100786601D01*
X128491680Y-100787805D01*
X127741680Y-100787805D01*
X127717176Y-100786601D01*
X127692907Y-100783001D01*
X127669109Y-100777040D01*
X127646009Y-100768775D01*
X127623831Y-100758285D01*
X127602787Y-100745672D01*
X127583082Y-100731058D01*
X127564903Y-100714582D01*
X127548427Y-100696403D01*
X127533813Y-100676698D01*
X127521200Y-100655654D01*
X127510710Y-100633476D01*
X127502445Y-100610376D01*
X127496484Y-100586578D01*
X127492884Y-100562309D01*
X127491680Y-100537805D01*
X127491680Y-99287805D01*
X127492884Y-99263301D01*
X127496484Y-99239032D01*
X127502445Y-99215234D01*
X127510710Y-99192134D01*
X127521200Y-99169956D01*
X127533813Y-99148912D01*
X127548427Y-99129207D01*
X127564903Y-99111028D01*
X127583082Y-99094552D01*
X127602787Y-99079938D01*
X127623831Y-99067325D01*
X127646009Y-99056835D01*
X127669109Y-99048570D01*
X127692907Y-99042609D01*
X127717176Y-99039009D01*
X127741680Y-99037805D01*
X128491680Y-99037805D01*
X128516184Y-99039009D01*
X128516184Y-99039009D01*
G37*
D15*
X128116680Y-99912805D03*
D14*
G36*
X131316184Y-99039009D02*
G01*
X131340453Y-99042609D01*
X131364251Y-99048570D01*
X131387351Y-99056835D01*
X131409529Y-99067325D01*
X131430573Y-99079938D01*
X131450278Y-99094552D01*
X131468457Y-99111028D01*
X131484933Y-99129207D01*
X131499547Y-99148912D01*
X131512160Y-99169956D01*
X131522650Y-99192134D01*
X131530915Y-99215234D01*
X131536876Y-99239032D01*
X131540476Y-99263301D01*
X131541680Y-99287805D01*
X131541680Y-100537805D01*
X131540476Y-100562309D01*
X131536876Y-100586578D01*
X131530915Y-100610376D01*
X131522650Y-100633476D01*
X131512160Y-100655654D01*
X131499547Y-100676698D01*
X131484933Y-100696403D01*
X131468457Y-100714582D01*
X131450278Y-100731058D01*
X131430573Y-100745672D01*
X131409529Y-100758285D01*
X131387351Y-100768775D01*
X131364251Y-100777040D01*
X131340453Y-100783001D01*
X131316184Y-100786601D01*
X131291680Y-100787805D01*
X130541680Y-100787805D01*
X130517176Y-100786601D01*
X130492907Y-100783001D01*
X130469109Y-100777040D01*
X130446009Y-100768775D01*
X130423831Y-100758285D01*
X130402787Y-100745672D01*
X130383082Y-100731058D01*
X130364903Y-100714582D01*
X130348427Y-100696403D01*
X130333813Y-100676698D01*
X130321200Y-100655654D01*
X130310710Y-100633476D01*
X130302445Y-100610376D01*
X130296484Y-100586578D01*
X130292884Y-100562309D01*
X130291680Y-100537805D01*
X130291680Y-99287805D01*
X130292884Y-99263301D01*
X130296484Y-99239032D01*
X130302445Y-99215234D01*
X130310710Y-99192134D01*
X130321200Y-99169956D01*
X130333813Y-99148912D01*
X130348427Y-99129207D01*
X130364903Y-99111028D01*
X130383082Y-99094552D01*
X130402787Y-99079938D01*
X130423831Y-99067325D01*
X130446009Y-99056835D01*
X130469109Y-99048570D01*
X130492907Y-99042609D01*
X130517176Y-99039009D01*
X130541680Y-99037805D01*
X131291680Y-99037805D01*
X131316184Y-99039009D01*
X131316184Y-99039009D01*
G37*
D15*
X130916680Y-99912805D03*
D14*
G36*
X131316184Y-108181739D02*
G01*
X131340453Y-108185339D01*
X131364251Y-108191300D01*
X131387351Y-108199565D01*
X131409529Y-108210055D01*
X131430573Y-108222668D01*
X131450278Y-108237282D01*
X131468457Y-108253758D01*
X131484933Y-108271937D01*
X131499547Y-108291642D01*
X131512160Y-108312686D01*
X131522650Y-108334864D01*
X131530915Y-108357964D01*
X131536876Y-108381762D01*
X131540476Y-108406031D01*
X131541680Y-108430535D01*
X131541680Y-109680535D01*
X131540476Y-109705039D01*
X131536876Y-109729308D01*
X131530915Y-109753106D01*
X131522650Y-109776206D01*
X131512160Y-109798384D01*
X131499547Y-109819428D01*
X131484933Y-109839133D01*
X131468457Y-109857312D01*
X131450278Y-109873788D01*
X131430573Y-109888402D01*
X131409529Y-109901015D01*
X131387351Y-109911505D01*
X131364251Y-109919770D01*
X131340453Y-109925731D01*
X131316184Y-109929331D01*
X131291680Y-109930535D01*
X130541680Y-109930535D01*
X130517176Y-109929331D01*
X130492907Y-109925731D01*
X130469109Y-109919770D01*
X130446009Y-109911505D01*
X130423831Y-109901015D01*
X130402787Y-109888402D01*
X130383082Y-109873788D01*
X130364903Y-109857312D01*
X130348427Y-109839133D01*
X130333813Y-109819428D01*
X130321200Y-109798384D01*
X130310710Y-109776206D01*
X130302445Y-109753106D01*
X130296484Y-109729308D01*
X130292884Y-109705039D01*
X130291680Y-109680535D01*
X130291680Y-108430535D01*
X130292884Y-108406031D01*
X130296484Y-108381762D01*
X130302445Y-108357964D01*
X130310710Y-108334864D01*
X130321200Y-108312686D01*
X130333813Y-108291642D01*
X130348427Y-108271937D01*
X130364903Y-108253758D01*
X130383082Y-108237282D01*
X130402787Y-108222668D01*
X130423831Y-108210055D01*
X130446009Y-108199565D01*
X130469109Y-108191300D01*
X130492907Y-108185339D01*
X130517176Y-108181739D01*
X130541680Y-108180535D01*
X131291680Y-108180535D01*
X131316184Y-108181739D01*
X131316184Y-108181739D01*
G37*
D15*
X130916680Y-109055535D03*
D14*
G36*
X128516184Y-108181739D02*
G01*
X128540453Y-108185339D01*
X128564251Y-108191300D01*
X128587351Y-108199565D01*
X128609529Y-108210055D01*
X128630573Y-108222668D01*
X128650278Y-108237282D01*
X128668457Y-108253758D01*
X128684933Y-108271937D01*
X128699547Y-108291642D01*
X128712160Y-108312686D01*
X128722650Y-108334864D01*
X128730915Y-108357964D01*
X128736876Y-108381762D01*
X128740476Y-108406031D01*
X128741680Y-108430535D01*
X128741680Y-109680535D01*
X128740476Y-109705039D01*
X128736876Y-109729308D01*
X128730915Y-109753106D01*
X128722650Y-109776206D01*
X128712160Y-109798384D01*
X128699547Y-109819428D01*
X128684933Y-109839133D01*
X128668457Y-109857312D01*
X128650278Y-109873788D01*
X128630573Y-109888402D01*
X128609529Y-109901015D01*
X128587351Y-109911505D01*
X128564251Y-109919770D01*
X128540453Y-109925731D01*
X128516184Y-109929331D01*
X128491680Y-109930535D01*
X127741680Y-109930535D01*
X127717176Y-109929331D01*
X127692907Y-109925731D01*
X127669109Y-109919770D01*
X127646009Y-109911505D01*
X127623831Y-109901015D01*
X127602787Y-109888402D01*
X127583082Y-109873788D01*
X127564903Y-109857312D01*
X127548427Y-109839133D01*
X127533813Y-109819428D01*
X127521200Y-109798384D01*
X127510710Y-109776206D01*
X127502445Y-109753106D01*
X127496484Y-109729308D01*
X127492884Y-109705039D01*
X127491680Y-109680535D01*
X127491680Y-108430535D01*
X127492884Y-108406031D01*
X127496484Y-108381762D01*
X127502445Y-108357964D01*
X127510710Y-108334864D01*
X127521200Y-108312686D01*
X127533813Y-108291642D01*
X127548427Y-108271937D01*
X127564903Y-108253758D01*
X127583082Y-108237282D01*
X127602787Y-108222668D01*
X127623831Y-108210055D01*
X127646009Y-108199565D01*
X127669109Y-108191300D01*
X127692907Y-108185339D01*
X127717176Y-108181739D01*
X127741680Y-108180535D01*
X128491680Y-108180535D01*
X128516184Y-108181739D01*
X128516184Y-108181739D01*
G37*
D15*
X128116680Y-109055535D03*
D14*
G36*
X128516184Y-112753104D02*
G01*
X128540453Y-112756704D01*
X128564251Y-112762665D01*
X128587351Y-112770930D01*
X128609529Y-112781420D01*
X128630573Y-112794033D01*
X128650278Y-112808647D01*
X128668457Y-112825123D01*
X128684933Y-112843302D01*
X128699547Y-112863007D01*
X128712160Y-112884051D01*
X128722650Y-112906229D01*
X128730915Y-112929329D01*
X128736876Y-112953127D01*
X128740476Y-112977396D01*
X128741680Y-113001900D01*
X128741680Y-114251900D01*
X128740476Y-114276404D01*
X128736876Y-114300673D01*
X128730915Y-114324471D01*
X128722650Y-114347571D01*
X128712160Y-114369749D01*
X128699547Y-114390793D01*
X128684933Y-114410498D01*
X128668457Y-114428677D01*
X128650278Y-114445153D01*
X128630573Y-114459767D01*
X128609529Y-114472380D01*
X128587351Y-114482870D01*
X128564251Y-114491135D01*
X128540453Y-114497096D01*
X128516184Y-114500696D01*
X128491680Y-114501900D01*
X127741680Y-114501900D01*
X127717176Y-114500696D01*
X127692907Y-114497096D01*
X127669109Y-114491135D01*
X127646009Y-114482870D01*
X127623831Y-114472380D01*
X127602787Y-114459767D01*
X127583082Y-114445153D01*
X127564903Y-114428677D01*
X127548427Y-114410498D01*
X127533813Y-114390793D01*
X127521200Y-114369749D01*
X127510710Y-114347571D01*
X127502445Y-114324471D01*
X127496484Y-114300673D01*
X127492884Y-114276404D01*
X127491680Y-114251900D01*
X127491680Y-113001900D01*
X127492884Y-112977396D01*
X127496484Y-112953127D01*
X127502445Y-112929329D01*
X127510710Y-112906229D01*
X127521200Y-112884051D01*
X127533813Y-112863007D01*
X127548427Y-112843302D01*
X127564903Y-112825123D01*
X127583082Y-112808647D01*
X127602787Y-112794033D01*
X127623831Y-112781420D01*
X127646009Y-112770930D01*
X127669109Y-112762665D01*
X127692907Y-112756704D01*
X127717176Y-112753104D01*
X127741680Y-112751900D01*
X128491680Y-112751900D01*
X128516184Y-112753104D01*
X128516184Y-112753104D01*
G37*
D15*
X128116680Y-113626900D03*
D14*
G36*
X131316184Y-112753104D02*
G01*
X131340453Y-112756704D01*
X131364251Y-112762665D01*
X131387351Y-112770930D01*
X131409529Y-112781420D01*
X131430573Y-112794033D01*
X131450278Y-112808647D01*
X131468457Y-112825123D01*
X131484933Y-112843302D01*
X131499547Y-112863007D01*
X131512160Y-112884051D01*
X131522650Y-112906229D01*
X131530915Y-112929329D01*
X131536876Y-112953127D01*
X131540476Y-112977396D01*
X131541680Y-113001900D01*
X131541680Y-114251900D01*
X131540476Y-114276404D01*
X131536876Y-114300673D01*
X131530915Y-114324471D01*
X131522650Y-114347571D01*
X131512160Y-114369749D01*
X131499547Y-114390793D01*
X131484933Y-114410498D01*
X131468457Y-114428677D01*
X131450278Y-114445153D01*
X131430573Y-114459767D01*
X131409529Y-114472380D01*
X131387351Y-114482870D01*
X131364251Y-114491135D01*
X131340453Y-114497096D01*
X131316184Y-114500696D01*
X131291680Y-114501900D01*
X130541680Y-114501900D01*
X130517176Y-114500696D01*
X130492907Y-114497096D01*
X130469109Y-114491135D01*
X130446009Y-114482870D01*
X130423831Y-114472380D01*
X130402787Y-114459767D01*
X130383082Y-114445153D01*
X130364903Y-114428677D01*
X130348427Y-114410498D01*
X130333813Y-114390793D01*
X130321200Y-114369749D01*
X130310710Y-114347571D01*
X130302445Y-114324471D01*
X130296484Y-114300673D01*
X130292884Y-114276404D01*
X130291680Y-114251900D01*
X130291680Y-113001900D01*
X130292884Y-112977396D01*
X130296484Y-112953127D01*
X130302445Y-112929329D01*
X130310710Y-112906229D01*
X130321200Y-112884051D01*
X130333813Y-112863007D01*
X130348427Y-112843302D01*
X130364903Y-112825123D01*
X130383082Y-112808647D01*
X130402787Y-112794033D01*
X130423831Y-112781420D01*
X130446009Y-112770930D01*
X130469109Y-112762665D01*
X130492907Y-112756704D01*
X130517176Y-112753104D01*
X130541680Y-112751900D01*
X131291680Y-112751900D01*
X131316184Y-112753104D01*
X131316184Y-112753104D01*
G37*
D15*
X130916680Y-113626900D03*
D14*
G36*
X157469104Y-93759604D02*
G01*
X157493373Y-93763204D01*
X157517171Y-93769165D01*
X157540271Y-93777430D01*
X157562449Y-93787920D01*
X157583493Y-93800533D01*
X157603198Y-93815147D01*
X157621377Y-93831623D01*
X157637853Y-93849802D01*
X157652467Y-93869507D01*
X157665080Y-93890551D01*
X157675570Y-93912729D01*
X157683835Y-93935829D01*
X157689796Y-93959627D01*
X157693396Y-93983896D01*
X157694600Y-94008400D01*
X157694600Y-94758400D01*
X157693396Y-94782904D01*
X157689796Y-94807173D01*
X157683835Y-94830971D01*
X157675570Y-94854071D01*
X157665080Y-94876249D01*
X157652467Y-94897293D01*
X157637853Y-94916998D01*
X157621377Y-94935177D01*
X157603198Y-94951653D01*
X157583493Y-94966267D01*
X157562449Y-94978880D01*
X157540271Y-94989370D01*
X157517171Y-94997635D01*
X157493373Y-95003596D01*
X157469104Y-95007196D01*
X157444600Y-95008400D01*
X156194600Y-95008400D01*
X156170096Y-95007196D01*
X156145827Y-95003596D01*
X156122029Y-94997635D01*
X156098929Y-94989370D01*
X156076751Y-94978880D01*
X156055707Y-94966267D01*
X156036002Y-94951653D01*
X156017823Y-94935177D01*
X156001347Y-94916998D01*
X155986733Y-94897293D01*
X155974120Y-94876249D01*
X155963630Y-94854071D01*
X155955365Y-94830971D01*
X155949404Y-94807173D01*
X155945804Y-94782904D01*
X155944600Y-94758400D01*
X155944600Y-94008400D01*
X155945804Y-93983896D01*
X155949404Y-93959627D01*
X155955365Y-93935829D01*
X155963630Y-93912729D01*
X155974120Y-93890551D01*
X155986733Y-93869507D01*
X156001347Y-93849802D01*
X156017823Y-93831623D01*
X156036002Y-93815147D01*
X156055707Y-93800533D01*
X156076751Y-93787920D01*
X156098929Y-93777430D01*
X156122029Y-93769165D01*
X156145827Y-93763204D01*
X156170096Y-93759604D01*
X156194600Y-93758400D01*
X157444600Y-93758400D01*
X157469104Y-93759604D01*
X157469104Y-93759604D01*
G37*
D15*
X156819600Y-94383400D03*
D14*
G36*
X157469104Y-96559604D02*
G01*
X157493373Y-96563204D01*
X157517171Y-96569165D01*
X157540271Y-96577430D01*
X157562449Y-96587920D01*
X157583493Y-96600533D01*
X157603198Y-96615147D01*
X157621377Y-96631623D01*
X157637853Y-96649802D01*
X157652467Y-96669507D01*
X157665080Y-96690551D01*
X157675570Y-96712729D01*
X157683835Y-96735829D01*
X157689796Y-96759627D01*
X157693396Y-96783896D01*
X157694600Y-96808400D01*
X157694600Y-97558400D01*
X157693396Y-97582904D01*
X157689796Y-97607173D01*
X157683835Y-97630971D01*
X157675570Y-97654071D01*
X157665080Y-97676249D01*
X157652467Y-97697293D01*
X157637853Y-97716998D01*
X157621377Y-97735177D01*
X157603198Y-97751653D01*
X157583493Y-97766267D01*
X157562449Y-97778880D01*
X157540271Y-97789370D01*
X157517171Y-97797635D01*
X157493373Y-97803596D01*
X157469104Y-97807196D01*
X157444600Y-97808400D01*
X156194600Y-97808400D01*
X156170096Y-97807196D01*
X156145827Y-97803596D01*
X156122029Y-97797635D01*
X156098929Y-97789370D01*
X156076751Y-97778880D01*
X156055707Y-97766267D01*
X156036002Y-97751653D01*
X156017823Y-97735177D01*
X156001347Y-97716998D01*
X155986733Y-97697293D01*
X155974120Y-97676249D01*
X155963630Y-97654071D01*
X155955365Y-97630971D01*
X155949404Y-97607173D01*
X155945804Y-97582904D01*
X155944600Y-97558400D01*
X155944600Y-96808400D01*
X155945804Y-96783896D01*
X155949404Y-96759627D01*
X155955365Y-96735829D01*
X155963630Y-96712729D01*
X155974120Y-96690551D01*
X155986733Y-96669507D01*
X156001347Y-96649802D01*
X156017823Y-96631623D01*
X156036002Y-96615147D01*
X156055707Y-96600533D01*
X156076751Y-96587920D01*
X156098929Y-96577430D01*
X156122029Y-96569165D01*
X156145827Y-96563204D01*
X156170096Y-96559604D01*
X156194600Y-96558400D01*
X157444600Y-96558400D01*
X157469104Y-96559604D01*
X157469104Y-96559604D01*
G37*
D15*
X156819600Y-97183400D03*
D10*
X190461900Y-89735200D03*
X190461900Y-92535200D03*
D14*
G36*
X125497504Y-94467644D02*
G01*
X125521773Y-94471244D01*
X125545571Y-94477205D01*
X125568671Y-94485470D01*
X125590849Y-94495960D01*
X125611893Y-94508573D01*
X125631598Y-94523187D01*
X125649777Y-94539663D01*
X125666253Y-94557842D01*
X125680867Y-94577547D01*
X125693480Y-94598591D01*
X125703970Y-94620769D01*
X125712235Y-94643869D01*
X125718196Y-94667667D01*
X125721796Y-94691936D01*
X125723000Y-94716440D01*
X125723000Y-95966440D01*
X125721796Y-95990944D01*
X125718196Y-96015213D01*
X125712235Y-96039011D01*
X125703970Y-96062111D01*
X125693480Y-96084289D01*
X125680867Y-96105333D01*
X125666253Y-96125038D01*
X125649777Y-96143217D01*
X125631598Y-96159693D01*
X125611893Y-96174307D01*
X125590849Y-96186920D01*
X125568671Y-96197410D01*
X125545571Y-96205675D01*
X125521773Y-96211636D01*
X125497504Y-96215236D01*
X125473000Y-96216440D01*
X124723000Y-96216440D01*
X124698496Y-96215236D01*
X124674227Y-96211636D01*
X124650429Y-96205675D01*
X124627329Y-96197410D01*
X124605151Y-96186920D01*
X124584107Y-96174307D01*
X124564402Y-96159693D01*
X124546223Y-96143217D01*
X124529747Y-96125038D01*
X124515133Y-96105333D01*
X124502520Y-96084289D01*
X124492030Y-96062111D01*
X124483765Y-96039011D01*
X124477804Y-96015213D01*
X124474204Y-95990944D01*
X124473000Y-95966440D01*
X124473000Y-94716440D01*
X124474204Y-94691936D01*
X124477804Y-94667667D01*
X124483765Y-94643869D01*
X124492030Y-94620769D01*
X124502520Y-94598591D01*
X124515133Y-94577547D01*
X124529747Y-94557842D01*
X124546223Y-94539663D01*
X124564402Y-94523187D01*
X124584107Y-94508573D01*
X124605151Y-94495960D01*
X124627329Y-94485470D01*
X124650429Y-94477205D01*
X124674227Y-94471244D01*
X124698496Y-94467644D01*
X124723000Y-94466440D01*
X125473000Y-94466440D01*
X125497504Y-94467644D01*
X125497504Y-94467644D01*
G37*
D15*
X125098000Y-95341440D03*
D14*
G36*
X122697504Y-94467644D02*
G01*
X122721773Y-94471244D01*
X122745571Y-94477205D01*
X122768671Y-94485470D01*
X122790849Y-94495960D01*
X122811893Y-94508573D01*
X122831598Y-94523187D01*
X122849777Y-94539663D01*
X122866253Y-94557842D01*
X122880867Y-94577547D01*
X122893480Y-94598591D01*
X122903970Y-94620769D01*
X122912235Y-94643869D01*
X122918196Y-94667667D01*
X122921796Y-94691936D01*
X122923000Y-94716440D01*
X122923000Y-95966440D01*
X122921796Y-95990944D01*
X122918196Y-96015213D01*
X122912235Y-96039011D01*
X122903970Y-96062111D01*
X122893480Y-96084289D01*
X122880867Y-96105333D01*
X122866253Y-96125038D01*
X122849777Y-96143217D01*
X122831598Y-96159693D01*
X122811893Y-96174307D01*
X122790849Y-96186920D01*
X122768671Y-96197410D01*
X122745571Y-96205675D01*
X122721773Y-96211636D01*
X122697504Y-96215236D01*
X122673000Y-96216440D01*
X121923000Y-96216440D01*
X121898496Y-96215236D01*
X121874227Y-96211636D01*
X121850429Y-96205675D01*
X121827329Y-96197410D01*
X121805151Y-96186920D01*
X121784107Y-96174307D01*
X121764402Y-96159693D01*
X121746223Y-96143217D01*
X121729747Y-96125038D01*
X121715133Y-96105333D01*
X121702520Y-96084289D01*
X121692030Y-96062111D01*
X121683765Y-96039011D01*
X121677804Y-96015213D01*
X121674204Y-95990944D01*
X121673000Y-95966440D01*
X121673000Y-94716440D01*
X121674204Y-94691936D01*
X121677804Y-94667667D01*
X121683765Y-94643869D01*
X121692030Y-94620769D01*
X121702520Y-94598591D01*
X121715133Y-94577547D01*
X121729747Y-94557842D01*
X121746223Y-94539663D01*
X121764402Y-94523187D01*
X121784107Y-94508573D01*
X121805151Y-94495960D01*
X121827329Y-94485470D01*
X121850429Y-94477205D01*
X121874227Y-94471244D01*
X121898496Y-94467644D01*
X121923000Y-94466440D01*
X122673000Y-94466440D01*
X122697504Y-94467644D01*
X122697504Y-94467644D01*
G37*
D15*
X122298000Y-95341440D03*
D14*
G36*
X122697504Y-103610374D02*
G01*
X122721773Y-103613974D01*
X122745571Y-103619935D01*
X122768671Y-103628200D01*
X122790849Y-103638690D01*
X122811893Y-103651303D01*
X122831598Y-103665917D01*
X122849777Y-103682393D01*
X122866253Y-103700572D01*
X122880867Y-103720277D01*
X122893480Y-103741321D01*
X122903970Y-103763499D01*
X122912235Y-103786599D01*
X122918196Y-103810397D01*
X122921796Y-103834666D01*
X122923000Y-103859170D01*
X122923000Y-105109170D01*
X122921796Y-105133674D01*
X122918196Y-105157943D01*
X122912235Y-105181741D01*
X122903970Y-105204841D01*
X122893480Y-105227019D01*
X122880867Y-105248063D01*
X122866253Y-105267768D01*
X122849777Y-105285947D01*
X122831598Y-105302423D01*
X122811893Y-105317037D01*
X122790849Y-105329650D01*
X122768671Y-105340140D01*
X122745571Y-105348405D01*
X122721773Y-105354366D01*
X122697504Y-105357966D01*
X122673000Y-105359170D01*
X121923000Y-105359170D01*
X121898496Y-105357966D01*
X121874227Y-105354366D01*
X121850429Y-105348405D01*
X121827329Y-105340140D01*
X121805151Y-105329650D01*
X121784107Y-105317037D01*
X121764402Y-105302423D01*
X121746223Y-105285947D01*
X121729747Y-105267768D01*
X121715133Y-105248063D01*
X121702520Y-105227019D01*
X121692030Y-105204841D01*
X121683765Y-105181741D01*
X121677804Y-105157943D01*
X121674204Y-105133674D01*
X121673000Y-105109170D01*
X121673000Y-103859170D01*
X121674204Y-103834666D01*
X121677804Y-103810397D01*
X121683765Y-103786599D01*
X121692030Y-103763499D01*
X121702520Y-103741321D01*
X121715133Y-103720277D01*
X121729747Y-103700572D01*
X121746223Y-103682393D01*
X121764402Y-103665917D01*
X121784107Y-103651303D01*
X121805151Y-103638690D01*
X121827329Y-103628200D01*
X121850429Y-103619935D01*
X121874227Y-103613974D01*
X121898496Y-103610374D01*
X121923000Y-103609170D01*
X122673000Y-103609170D01*
X122697504Y-103610374D01*
X122697504Y-103610374D01*
G37*
D15*
X122298000Y-104484170D03*
D14*
G36*
X125497504Y-103610374D02*
G01*
X125521773Y-103613974D01*
X125545571Y-103619935D01*
X125568671Y-103628200D01*
X125590849Y-103638690D01*
X125611893Y-103651303D01*
X125631598Y-103665917D01*
X125649777Y-103682393D01*
X125666253Y-103700572D01*
X125680867Y-103720277D01*
X125693480Y-103741321D01*
X125703970Y-103763499D01*
X125712235Y-103786599D01*
X125718196Y-103810397D01*
X125721796Y-103834666D01*
X125723000Y-103859170D01*
X125723000Y-105109170D01*
X125721796Y-105133674D01*
X125718196Y-105157943D01*
X125712235Y-105181741D01*
X125703970Y-105204841D01*
X125693480Y-105227019D01*
X125680867Y-105248063D01*
X125666253Y-105267768D01*
X125649777Y-105285947D01*
X125631598Y-105302423D01*
X125611893Y-105317037D01*
X125590849Y-105329650D01*
X125568671Y-105340140D01*
X125545571Y-105348405D01*
X125521773Y-105354366D01*
X125497504Y-105357966D01*
X125473000Y-105359170D01*
X124723000Y-105359170D01*
X124698496Y-105357966D01*
X124674227Y-105354366D01*
X124650429Y-105348405D01*
X124627329Y-105340140D01*
X124605151Y-105329650D01*
X124584107Y-105317037D01*
X124564402Y-105302423D01*
X124546223Y-105285947D01*
X124529747Y-105267768D01*
X124515133Y-105248063D01*
X124502520Y-105227019D01*
X124492030Y-105204841D01*
X124483765Y-105181741D01*
X124477804Y-105157943D01*
X124474204Y-105133674D01*
X124473000Y-105109170D01*
X124473000Y-103859170D01*
X124474204Y-103834666D01*
X124477804Y-103810397D01*
X124483765Y-103786599D01*
X124492030Y-103763499D01*
X124502520Y-103741321D01*
X124515133Y-103720277D01*
X124529747Y-103700572D01*
X124546223Y-103682393D01*
X124564402Y-103665917D01*
X124584107Y-103651303D01*
X124605151Y-103638690D01*
X124627329Y-103628200D01*
X124650429Y-103619935D01*
X124674227Y-103613974D01*
X124698496Y-103610374D01*
X124723000Y-103609170D01*
X125473000Y-103609170D01*
X125497504Y-103610374D01*
X125497504Y-103610374D01*
G37*
D15*
X125098000Y-104484170D03*
D14*
G36*
X122697504Y-108181739D02*
G01*
X122721773Y-108185339D01*
X122745571Y-108191300D01*
X122768671Y-108199565D01*
X122790849Y-108210055D01*
X122811893Y-108222668D01*
X122831598Y-108237282D01*
X122849777Y-108253758D01*
X122866253Y-108271937D01*
X122880867Y-108291642D01*
X122893480Y-108312686D01*
X122903970Y-108334864D01*
X122912235Y-108357964D01*
X122918196Y-108381762D01*
X122921796Y-108406031D01*
X122923000Y-108430535D01*
X122923000Y-109680535D01*
X122921796Y-109705039D01*
X122918196Y-109729308D01*
X122912235Y-109753106D01*
X122903970Y-109776206D01*
X122893480Y-109798384D01*
X122880867Y-109819428D01*
X122866253Y-109839133D01*
X122849777Y-109857312D01*
X122831598Y-109873788D01*
X122811893Y-109888402D01*
X122790849Y-109901015D01*
X122768671Y-109911505D01*
X122745571Y-109919770D01*
X122721773Y-109925731D01*
X122697504Y-109929331D01*
X122673000Y-109930535D01*
X121923000Y-109930535D01*
X121898496Y-109929331D01*
X121874227Y-109925731D01*
X121850429Y-109919770D01*
X121827329Y-109911505D01*
X121805151Y-109901015D01*
X121784107Y-109888402D01*
X121764402Y-109873788D01*
X121746223Y-109857312D01*
X121729747Y-109839133D01*
X121715133Y-109819428D01*
X121702520Y-109798384D01*
X121692030Y-109776206D01*
X121683765Y-109753106D01*
X121677804Y-109729308D01*
X121674204Y-109705039D01*
X121673000Y-109680535D01*
X121673000Y-108430535D01*
X121674204Y-108406031D01*
X121677804Y-108381762D01*
X121683765Y-108357964D01*
X121692030Y-108334864D01*
X121702520Y-108312686D01*
X121715133Y-108291642D01*
X121729747Y-108271937D01*
X121746223Y-108253758D01*
X121764402Y-108237282D01*
X121784107Y-108222668D01*
X121805151Y-108210055D01*
X121827329Y-108199565D01*
X121850429Y-108191300D01*
X121874227Y-108185339D01*
X121898496Y-108181739D01*
X121923000Y-108180535D01*
X122673000Y-108180535D01*
X122697504Y-108181739D01*
X122697504Y-108181739D01*
G37*
D15*
X122298000Y-109055535D03*
D14*
G36*
X125497504Y-108181739D02*
G01*
X125521773Y-108185339D01*
X125545571Y-108191300D01*
X125568671Y-108199565D01*
X125590849Y-108210055D01*
X125611893Y-108222668D01*
X125631598Y-108237282D01*
X125649777Y-108253758D01*
X125666253Y-108271937D01*
X125680867Y-108291642D01*
X125693480Y-108312686D01*
X125703970Y-108334864D01*
X125712235Y-108357964D01*
X125718196Y-108381762D01*
X125721796Y-108406031D01*
X125723000Y-108430535D01*
X125723000Y-109680535D01*
X125721796Y-109705039D01*
X125718196Y-109729308D01*
X125712235Y-109753106D01*
X125703970Y-109776206D01*
X125693480Y-109798384D01*
X125680867Y-109819428D01*
X125666253Y-109839133D01*
X125649777Y-109857312D01*
X125631598Y-109873788D01*
X125611893Y-109888402D01*
X125590849Y-109901015D01*
X125568671Y-109911505D01*
X125545571Y-109919770D01*
X125521773Y-109925731D01*
X125497504Y-109929331D01*
X125473000Y-109930535D01*
X124723000Y-109930535D01*
X124698496Y-109929331D01*
X124674227Y-109925731D01*
X124650429Y-109919770D01*
X124627329Y-109911505D01*
X124605151Y-109901015D01*
X124584107Y-109888402D01*
X124564402Y-109873788D01*
X124546223Y-109857312D01*
X124529747Y-109839133D01*
X124515133Y-109819428D01*
X124502520Y-109798384D01*
X124492030Y-109776206D01*
X124483765Y-109753106D01*
X124477804Y-109729308D01*
X124474204Y-109705039D01*
X124473000Y-109680535D01*
X124473000Y-108430535D01*
X124474204Y-108406031D01*
X124477804Y-108381762D01*
X124483765Y-108357964D01*
X124492030Y-108334864D01*
X124502520Y-108312686D01*
X124515133Y-108291642D01*
X124529747Y-108271937D01*
X124546223Y-108253758D01*
X124564402Y-108237282D01*
X124584107Y-108222668D01*
X124605151Y-108210055D01*
X124627329Y-108199565D01*
X124650429Y-108191300D01*
X124674227Y-108185339D01*
X124698496Y-108181739D01*
X124723000Y-108180535D01*
X125473000Y-108180535D01*
X125497504Y-108181739D01*
X125497504Y-108181739D01*
G37*
D15*
X125098000Y-109055535D03*
D14*
G36*
X125497504Y-112753104D02*
G01*
X125521773Y-112756704D01*
X125545571Y-112762665D01*
X125568671Y-112770930D01*
X125590849Y-112781420D01*
X125611893Y-112794033D01*
X125631598Y-112808647D01*
X125649777Y-112825123D01*
X125666253Y-112843302D01*
X125680867Y-112863007D01*
X125693480Y-112884051D01*
X125703970Y-112906229D01*
X125712235Y-112929329D01*
X125718196Y-112953127D01*
X125721796Y-112977396D01*
X125723000Y-113001900D01*
X125723000Y-114251900D01*
X125721796Y-114276404D01*
X125718196Y-114300673D01*
X125712235Y-114324471D01*
X125703970Y-114347571D01*
X125693480Y-114369749D01*
X125680867Y-114390793D01*
X125666253Y-114410498D01*
X125649777Y-114428677D01*
X125631598Y-114445153D01*
X125611893Y-114459767D01*
X125590849Y-114472380D01*
X125568671Y-114482870D01*
X125545571Y-114491135D01*
X125521773Y-114497096D01*
X125497504Y-114500696D01*
X125473000Y-114501900D01*
X124723000Y-114501900D01*
X124698496Y-114500696D01*
X124674227Y-114497096D01*
X124650429Y-114491135D01*
X124627329Y-114482870D01*
X124605151Y-114472380D01*
X124584107Y-114459767D01*
X124564402Y-114445153D01*
X124546223Y-114428677D01*
X124529747Y-114410498D01*
X124515133Y-114390793D01*
X124502520Y-114369749D01*
X124492030Y-114347571D01*
X124483765Y-114324471D01*
X124477804Y-114300673D01*
X124474204Y-114276404D01*
X124473000Y-114251900D01*
X124473000Y-113001900D01*
X124474204Y-112977396D01*
X124477804Y-112953127D01*
X124483765Y-112929329D01*
X124492030Y-112906229D01*
X124502520Y-112884051D01*
X124515133Y-112863007D01*
X124529747Y-112843302D01*
X124546223Y-112825123D01*
X124564402Y-112808647D01*
X124584107Y-112794033D01*
X124605151Y-112781420D01*
X124627329Y-112770930D01*
X124650429Y-112762665D01*
X124674227Y-112756704D01*
X124698496Y-112753104D01*
X124723000Y-112751900D01*
X125473000Y-112751900D01*
X125497504Y-112753104D01*
X125497504Y-112753104D01*
G37*
D15*
X125098000Y-113626900D03*
D14*
G36*
X122697504Y-112753104D02*
G01*
X122721773Y-112756704D01*
X122745571Y-112762665D01*
X122768671Y-112770930D01*
X122790849Y-112781420D01*
X122811893Y-112794033D01*
X122831598Y-112808647D01*
X122849777Y-112825123D01*
X122866253Y-112843302D01*
X122880867Y-112863007D01*
X122893480Y-112884051D01*
X122903970Y-112906229D01*
X122912235Y-112929329D01*
X122918196Y-112953127D01*
X122921796Y-112977396D01*
X122923000Y-113001900D01*
X122923000Y-114251900D01*
X122921796Y-114276404D01*
X122918196Y-114300673D01*
X122912235Y-114324471D01*
X122903970Y-114347571D01*
X122893480Y-114369749D01*
X122880867Y-114390793D01*
X122866253Y-114410498D01*
X122849777Y-114428677D01*
X122831598Y-114445153D01*
X122811893Y-114459767D01*
X122790849Y-114472380D01*
X122768671Y-114482870D01*
X122745571Y-114491135D01*
X122721773Y-114497096D01*
X122697504Y-114500696D01*
X122673000Y-114501900D01*
X121923000Y-114501900D01*
X121898496Y-114500696D01*
X121874227Y-114497096D01*
X121850429Y-114491135D01*
X121827329Y-114482870D01*
X121805151Y-114472380D01*
X121784107Y-114459767D01*
X121764402Y-114445153D01*
X121746223Y-114428677D01*
X121729747Y-114410498D01*
X121715133Y-114390793D01*
X121702520Y-114369749D01*
X121692030Y-114347571D01*
X121683765Y-114324471D01*
X121677804Y-114300673D01*
X121674204Y-114276404D01*
X121673000Y-114251900D01*
X121673000Y-113001900D01*
X121674204Y-112977396D01*
X121677804Y-112953127D01*
X121683765Y-112929329D01*
X121692030Y-112906229D01*
X121702520Y-112884051D01*
X121715133Y-112863007D01*
X121729747Y-112843302D01*
X121746223Y-112825123D01*
X121764402Y-112808647D01*
X121784107Y-112794033D01*
X121805151Y-112781420D01*
X121827329Y-112770930D01*
X121850429Y-112762665D01*
X121874227Y-112756704D01*
X121898496Y-112753104D01*
X121923000Y-112751900D01*
X122673000Y-112751900D01*
X122697504Y-112753104D01*
X122697504Y-112753104D01*
G37*
D15*
X122298000Y-113626900D03*
D14*
G36*
X122697504Y-99039009D02*
G01*
X122721773Y-99042609D01*
X122745571Y-99048570D01*
X122768671Y-99056835D01*
X122790849Y-99067325D01*
X122811893Y-99079938D01*
X122831598Y-99094552D01*
X122849777Y-99111028D01*
X122866253Y-99129207D01*
X122880867Y-99148912D01*
X122893480Y-99169956D01*
X122903970Y-99192134D01*
X122912235Y-99215234D01*
X122918196Y-99239032D01*
X122921796Y-99263301D01*
X122923000Y-99287805D01*
X122923000Y-100537805D01*
X122921796Y-100562309D01*
X122918196Y-100586578D01*
X122912235Y-100610376D01*
X122903970Y-100633476D01*
X122893480Y-100655654D01*
X122880867Y-100676698D01*
X122866253Y-100696403D01*
X122849777Y-100714582D01*
X122831598Y-100731058D01*
X122811893Y-100745672D01*
X122790849Y-100758285D01*
X122768671Y-100768775D01*
X122745571Y-100777040D01*
X122721773Y-100783001D01*
X122697504Y-100786601D01*
X122673000Y-100787805D01*
X121923000Y-100787805D01*
X121898496Y-100786601D01*
X121874227Y-100783001D01*
X121850429Y-100777040D01*
X121827329Y-100768775D01*
X121805151Y-100758285D01*
X121784107Y-100745672D01*
X121764402Y-100731058D01*
X121746223Y-100714582D01*
X121729747Y-100696403D01*
X121715133Y-100676698D01*
X121702520Y-100655654D01*
X121692030Y-100633476D01*
X121683765Y-100610376D01*
X121677804Y-100586578D01*
X121674204Y-100562309D01*
X121673000Y-100537805D01*
X121673000Y-99287805D01*
X121674204Y-99263301D01*
X121677804Y-99239032D01*
X121683765Y-99215234D01*
X121692030Y-99192134D01*
X121702520Y-99169956D01*
X121715133Y-99148912D01*
X121729747Y-99129207D01*
X121746223Y-99111028D01*
X121764402Y-99094552D01*
X121784107Y-99079938D01*
X121805151Y-99067325D01*
X121827329Y-99056835D01*
X121850429Y-99048570D01*
X121874227Y-99042609D01*
X121898496Y-99039009D01*
X121923000Y-99037805D01*
X122673000Y-99037805D01*
X122697504Y-99039009D01*
X122697504Y-99039009D01*
G37*
D15*
X122298000Y-99912805D03*
D14*
G36*
X125497504Y-99039009D02*
G01*
X125521773Y-99042609D01*
X125545571Y-99048570D01*
X125568671Y-99056835D01*
X125590849Y-99067325D01*
X125611893Y-99079938D01*
X125631598Y-99094552D01*
X125649777Y-99111028D01*
X125666253Y-99129207D01*
X125680867Y-99148912D01*
X125693480Y-99169956D01*
X125703970Y-99192134D01*
X125712235Y-99215234D01*
X125718196Y-99239032D01*
X125721796Y-99263301D01*
X125723000Y-99287805D01*
X125723000Y-100537805D01*
X125721796Y-100562309D01*
X125718196Y-100586578D01*
X125712235Y-100610376D01*
X125703970Y-100633476D01*
X125693480Y-100655654D01*
X125680867Y-100676698D01*
X125666253Y-100696403D01*
X125649777Y-100714582D01*
X125631598Y-100731058D01*
X125611893Y-100745672D01*
X125590849Y-100758285D01*
X125568671Y-100768775D01*
X125545571Y-100777040D01*
X125521773Y-100783001D01*
X125497504Y-100786601D01*
X125473000Y-100787805D01*
X124723000Y-100787805D01*
X124698496Y-100786601D01*
X124674227Y-100783001D01*
X124650429Y-100777040D01*
X124627329Y-100768775D01*
X124605151Y-100758285D01*
X124584107Y-100745672D01*
X124564402Y-100731058D01*
X124546223Y-100714582D01*
X124529747Y-100696403D01*
X124515133Y-100676698D01*
X124502520Y-100655654D01*
X124492030Y-100633476D01*
X124483765Y-100610376D01*
X124477804Y-100586578D01*
X124474204Y-100562309D01*
X124473000Y-100537805D01*
X124473000Y-99287805D01*
X124474204Y-99263301D01*
X124477804Y-99239032D01*
X124483765Y-99215234D01*
X124492030Y-99192134D01*
X124502520Y-99169956D01*
X124515133Y-99148912D01*
X124529747Y-99129207D01*
X124546223Y-99111028D01*
X124564402Y-99094552D01*
X124584107Y-99079938D01*
X124605151Y-99067325D01*
X124627329Y-99056835D01*
X124650429Y-99048570D01*
X124674227Y-99042609D01*
X124698496Y-99039009D01*
X124723000Y-99037805D01*
X125473000Y-99037805D01*
X125497504Y-99039009D01*
X125497504Y-99039009D01*
G37*
D15*
X125098000Y-99912805D03*
D10*
X169903600Y-114312700D03*
X167103600Y-114312700D03*
X182425800Y-114427000D03*
X179625800Y-114427000D03*
X169979800Y-126453900D03*
X167179800Y-126453900D03*
X185572400Y-120894300D03*
X185572400Y-118094300D03*
D14*
G36*
X157583404Y-106091304D02*
G01*
X157607673Y-106094904D01*
X157631471Y-106100865D01*
X157654571Y-106109130D01*
X157676749Y-106119620D01*
X157697793Y-106132233D01*
X157717498Y-106146847D01*
X157735677Y-106163323D01*
X157752153Y-106181502D01*
X157766767Y-106201207D01*
X157779380Y-106222251D01*
X157789870Y-106244429D01*
X157798135Y-106267529D01*
X157804096Y-106291327D01*
X157807696Y-106315596D01*
X157808900Y-106340100D01*
X157808900Y-107090100D01*
X157807696Y-107114604D01*
X157804096Y-107138873D01*
X157798135Y-107162671D01*
X157789870Y-107185771D01*
X157779380Y-107207949D01*
X157766767Y-107228993D01*
X157752153Y-107248698D01*
X157735677Y-107266877D01*
X157717498Y-107283353D01*
X157697793Y-107297967D01*
X157676749Y-107310580D01*
X157654571Y-107321070D01*
X157631471Y-107329335D01*
X157607673Y-107335296D01*
X157583404Y-107338896D01*
X157558900Y-107340100D01*
X156308900Y-107340100D01*
X156284396Y-107338896D01*
X156260127Y-107335296D01*
X156236329Y-107329335D01*
X156213229Y-107321070D01*
X156191051Y-107310580D01*
X156170007Y-107297967D01*
X156150302Y-107283353D01*
X156132123Y-107266877D01*
X156115647Y-107248698D01*
X156101033Y-107228993D01*
X156088420Y-107207949D01*
X156077930Y-107185771D01*
X156069665Y-107162671D01*
X156063704Y-107138873D01*
X156060104Y-107114604D01*
X156058900Y-107090100D01*
X156058900Y-106340100D01*
X156060104Y-106315596D01*
X156063704Y-106291327D01*
X156069665Y-106267529D01*
X156077930Y-106244429D01*
X156088420Y-106222251D01*
X156101033Y-106201207D01*
X156115647Y-106181502D01*
X156132123Y-106163323D01*
X156150302Y-106146847D01*
X156170007Y-106132233D01*
X156191051Y-106119620D01*
X156213229Y-106109130D01*
X156236329Y-106100865D01*
X156260127Y-106094904D01*
X156284396Y-106091304D01*
X156308900Y-106090100D01*
X157558900Y-106090100D01*
X157583404Y-106091304D01*
X157583404Y-106091304D01*
G37*
D15*
X156933900Y-106715100D03*
D14*
G36*
X157583404Y-108891304D02*
G01*
X157607673Y-108894904D01*
X157631471Y-108900865D01*
X157654571Y-108909130D01*
X157676749Y-108919620D01*
X157697793Y-108932233D01*
X157717498Y-108946847D01*
X157735677Y-108963323D01*
X157752153Y-108981502D01*
X157766767Y-109001207D01*
X157779380Y-109022251D01*
X157789870Y-109044429D01*
X157798135Y-109067529D01*
X157804096Y-109091327D01*
X157807696Y-109115596D01*
X157808900Y-109140100D01*
X157808900Y-109890100D01*
X157807696Y-109914604D01*
X157804096Y-109938873D01*
X157798135Y-109962671D01*
X157789870Y-109985771D01*
X157779380Y-110007949D01*
X157766767Y-110028993D01*
X157752153Y-110048698D01*
X157735677Y-110066877D01*
X157717498Y-110083353D01*
X157697793Y-110097967D01*
X157676749Y-110110580D01*
X157654571Y-110121070D01*
X157631471Y-110129335D01*
X157607673Y-110135296D01*
X157583404Y-110138896D01*
X157558900Y-110140100D01*
X156308900Y-110140100D01*
X156284396Y-110138896D01*
X156260127Y-110135296D01*
X156236329Y-110129335D01*
X156213229Y-110121070D01*
X156191051Y-110110580D01*
X156170007Y-110097967D01*
X156150302Y-110083353D01*
X156132123Y-110066877D01*
X156115647Y-110048698D01*
X156101033Y-110028993D01*
X156088420Y-110007949D01*
X156077930Y-109985771D01*
X156069665Y-109962671D01*
X156063704Y-109938873D01*
X156060104Y-109914604D01*
X156058900Y-109890100D01*
X156058900Y-109140100D01*
X156060104Y-109115596D01*
X156063704Y-109091327D01*
X156069665Y-109067529D01*
X156077930Y-109044429D01*
X156088420Y-109022251D01*
X156101033Y-109001207D01*
X156115647Y-108981502D01*
X156132123Y-108963323D01*
X156150302Y-108946847D01*
X156170007Y-108932233D01*
X156191051Y-108919620D01*
X156213229Y-108909130D01*
X156236329Y-108900865D01*
X156260127Y-108894904D01*
X156284396Y-108891304D01*
X156308900Y-108890100D01*
X157558900Y-108890100D01*
X157583404Y-108891304D01*
X157583404Y-108891304D01*
G37*
D15*
X156933900Y-109515100D03*
D14*
G36*
X174055304Y-108891304D02*
G01*
X174079573Y-108894904D01*
X174103371Y-108900865D01*
X174126471Y-108909130D01*
X174148649Y-108919620D01*
X174169693Y-108932233D01*
X174189398Y-108946847D01*
X174207577Y-108963323D01*
X174224053Y-108981502D01*
X174238667Y-109001207D01*
X174251280Y-109022251D01*
X174261770Y-109044429D01*
X174270035Y-109067529D01*
X174275996Y-109091327D01*
X174279596Y-109115596D01*
X174280800Y-109140100D01*
X174280800Y-109890100D01*
X174279596Y-109914604D01*
X174275996Y-109938873D01*
X174270035Y-109962671D01*
X174261770Y-109985771D01*
X174251280Y-110007949D01*
X174238667Y-110028993D01*
X174224053Y-110048698D01*
X174207577Y-110066877D01*
X174189398Y-110083353D01*
X174169693Y-110097967D01*
X174148649Y-110110580D01*
X174126471Y-110121070D01*
X174103371Y-110129335D01*
X174079573Y-110135296D01*
X174055304Y-110138896D01*
X174030800Y-110140100D01*
X172780800Y-110140100D01*
X172756296Y-110138896D01*
X172732027Y-110135296D01*
X172708229Y-110129335D01*
X172685129Y-110121070D01*
X172662951Y-110110580D01*
X172641907Y-110097967D01*
X172622202Y-110083353D01*
X172604023Y-110066877D01*
X172587547Y-110048698D01*
X172572933Y-110028993D01*
X172560320Y-110007949D01*
X172549830Y-109985771D01*
X172541565Y-109962671D01*
X172535604Y-109938873D01*
X172532004Y-109914604D01*
X172530800Y-109890100D01*
X172530800Y-109140100D01*
X172532004Y-109115596D01*
X172535604Y-109091327D01*
X172541565Y-109067529D01*
X172549830Y-109044429D01*
X172560320Y-109022251D01*
X172572933Y-109001207D01*
X172587547Y-108981502D01*
X172604023Y-108963323D01*
X172622202Y-108946847D01*
X172641907Y-108932233D01*
X172662951Y-108919620D01*
X172685129Y-108909130D01*
X172708229Y-108900865D01*
X172732027Y-108894904D01*
X172756296Y-108891304D01*
X172780800Y-108890100D01*
X174030800Y-108890100D01*
X174055304Y-108891304D01*
X174055304Y-108891304D01*
G37*
D15*
X173405800Y-109515100D03*
D14*
G36*
X174055304Y-106091304D02*
G01*
X174079573Y-106094904D01*
X174103371Y-106100865D01*
X174126471Y-106109130D01*
X174148649Y-106119620D01*
X174169693Y-106132233D01*
X174189398Y-106146847D01*
X174207577Y-106163323D01*
X174224053Y-106181502D01*
X174238667Y-106201207D01*
X174251280Y-106222251D01*
X174261770Y-106244429D01*
X174270035Y-106267529D01*
X174275996Y-106291327D01*
X174279596Y-106315596D01*
X174280800Y-106340100D01*
X174280800Y-107090100D01*
X174279596Y-107114604D01*
X174275996Y-107138873D01*
X174270035Y-107162671D01*
X174261770Y-107185771D01*
X174251280Y-107207949D01*
X174238667Y-107228993D01*
X174224053Y-107248698D01*
X174207577Y-107266877D01*
X174189398Y-107283353D01*
X174169693Y-107297967D01*
X174148649Y-107310580D01*
X174126471Y-107321070D01*
X174103371Y-107329335D01*
X174079573Y-107335296D01*
X174055304Y-107338896D01*
X174030800Y-107340100D01*
X172780800Y-107340100D01*
X172756296Y-107338896D01*
X172732027Y-107335296D01*
X172708229Y-107329335D01*
X172685129Y-107321070D01*
X172662951Y-107310580D01*
X172641907Y-107297967D01*
X172622202Y-107283353D01*
X172604023Y-107266877D01*
X172587547Y-107248698D01*
X172572933Y-107228993D01*
X172560320Y-107207949D01*
X172549830Y-107185771D01*
X172541565Y-107162671D01*
X172535604Y-107138873D01*
X172532004Y-107114604D01*
X172530800Y-107090100D01*
X172530800Y-106340100D01*
X172532004Y-106315596D01*
X172535604Y-106291327D01*
X172541565Y-106267529D01*
X172549830Y-106244429D01*
X172560320Y-106222251D01*
X172572933Y-106201207D01*
X172587547Y-106181502D01*
X172604023Y-106163323D01*
X172622202Y-106146847D01*
X172641907Y-106132233D01*
X172662951Y-106119620D01*
X172685129Y-106109130D01*
X172708229Y-106100865D01*
X172732027Y-106094904D01*
X172756296Y-106091304D01*
X172780800Y-106090100D01*
X174030800Y-106090100D01*
X174055304Y-106091304D01*
X174055304Y-106091304D01*
G37*
D15*
X173405800Y-106715100D03*
D14*
G36*
X157799304Y-118346804D02*
G01*
X157823573Y-118350404D01*
X157847371Y-118356365D01*
X157870471Y-118364630D01*
X157892649Y-118375120D01*
X157913693Y-118387733D01*
X157933398Y-118402347D01*
X157951577Y-118418823D01*
X157968053Y-118437002D01*
X157982667Y-118456707D01*
X157995280Y-118477751D01*
X158005770Y-118499929D01*
X158014035Y-118523029D01*
X158019996Y-118546827D01*
X158023596Y-118571096D01*
X158024800Y-118595600D01*
X158024800Y-119345600D01*
X158023596Y-119370104D01*
X158019996Y-119394373D01*
X158014035Y-119418171D01*
X158005770Y-119441271D01*
X157995280Y-119463449D01*
X157982667Y-119484493D01*
X157968053Y-119504198D01*
X157951577Y-119522377D01*
X157933398Y-119538853D01*
X157913693Y-119553467D01*
X157892649Y-119566080D01*
X157870471Y-119576570D01*
X157847371Y-119584835D01*
X157823573Y-119590796D01*
X157799304Y-119594396D01*
X157774800Y-119595600D01*
X156524800Y-119595600D01*
X156500296Y-119594396D01*
X156476027Y-119590796D01*
X156452229Y-119584835D01*
X156429129Y-119576570D01*
X156406951Y-119566080D01*
X156385907Y-119553467D01*
X156366202Y-119538853D01*
X156348023Y-119522377D01*
X156331547Y-119504198D01*
X156316933Y-119484493D01*
X156304320Y-119463449D01*
X156293830Y-119441271D01*
X156285565Y-119418171D01*
X156279604Y-119394373D01*
X156276004Y-119370104D01*
X156274800Y-119345600D01*
X156274800Y-118595600D01*
X156276004Y-118571096D01*
X156279604Y-118546827D01*
X156285565Y-118523029D01*
X156293830Y-118499929D01*
X156304320Y-118477751D01*
X156316933Y-118456707D01*
X156331547Y-118437002D01*
X156348023Y-118418823D01*
X156366202Y-118402347D01*
X156385907Y-118387733D01*
X156406951Y-118375120D01*
X156429129Y-118364630D01*
X156452229Y-118356365D01*
X156476027Y-118350404D01*
X156500296Y-118346804D01*
X156524800Y-118345600D01*
X157774800Y-118345600D01*
X157799304Y-118346804D01*
X157799304Y-118346804D01*
G37*
D15*
X157149800Y-118970600D03*
D14*
G36*
X157799304Y-121146804D02*
G01*
X157823573Y-121150404D01*
X157847371Y-121156365D01*
X157870471Y-121164630D01*
X157892649Y-121175120D01*
X157913693Y-121187733D01*
X157933398Y-121202347D01*
X157951577Y-121218823D01*
X157968053Y-121237002D01*
X157982667Y-121256707D01*
X157995280Y-121277751D01*
X158005770Y-121299929D01*
X158014035Y-121323029D01*
X158019996Y-121346827D01*
X158023596Y-121371096D01*
X158024800Y-121395600D01*
X158024800Y-122145600D01*
X158023596Y-122170104D01*
X158019996Y-122194373D01*
X158014035Y-122218171D01*
X158005770Y-122241271D01*
X157995280Y-122263449D01*
X157982667Y-122284493D01*
X157968053Y-122304198D01*
X157951577Y-122322377D01*
X157933398Y-122338853D01*
X157913693Y-122353467D01*
X157892649Y-122366080D01*
X157870471Y-122376570D01*
X157847371Y-122384835D01*
X157823573Y-122390796D01*
X157799304Y-122394396D01*
X157774800Y-122395600D01*
X156524800Y-122395600D01*
X156500296Y-122394396D01*
X156476027Y-122390796D01*
X156452229Y-122384835D01*
X156429129Y-122376570D01*
X156406951Y-122366080D01*
X156385907Y-122353467D01*
X156366202Y-122338853D01*
X156348023Y-122322377D01*
X156331547Y-122304198D01*
X156316933Y-122284493D01*
X156304320Y-122263449D01*
X156293830Y-122241271D01*
X156285565Y-122218171D01*
X156279604Y-122194373D01*
X156276004Y-122170104D01*
X156274800Y-122145600D01*
X156274800Y-121395600D01*
X156276004Y-121371096D01*
X156279604Y-121346827D01*
X156285565Y-121323029D01*
X156293830Y-121299929D01*
X156304320Y-121277751D01*
X156316933Y-121256707D01*
X156331547Y-121237002D01*
X156348023Y-121218823D01*
X156366202Y-121202347D01*
X156385907Y-121187733D01*
X156406951Y-121175120D01*
X156429129Y-121164630D01*
X156452229Y-121156365D01*
X156476027Y-121150404D01*
X156500296Y-121146804D01*
X156524800Y-121145600D01*
X157774800Y-121145600D01*
X157799304Y-121146804D01*
X157799304Y-121146804D01*
G37*
D15*
X157149800Y-121770600D03*
D14*
G36*
X173001204Y-120778504D02*
G01*
X173025473Y-120782104D01*
X173049271Y-120788065D01*
X173072371Y-120796330D01*
X173094549Y-120806820D01*
X173115593Y-120819433D01*
X173135298Y-120834047D01*
X173153477Y-120850523D01*
X173169953Y-120868702D01*
X173184567Y-120888407D01*
X173197180Y-120909451D01*
X173207670Y-120931629D01*
X173215935Y-120954729D01*
X173221896Y-120978527D01*
X173225496Y-121002796D01*
X173226700Y-121027300D01*
X173226700Y-121777300D01*
X173225496Y-121801804D01*
X173221896Y-121826073D01*
X173215935Y-121849871D01*
X173207670Y-121872971D01*
X173197180Y-121895149D01*
X173184567Y-121916193D01*
X173169953Y-121935898D01*
X173153477Y-121954077D01*
X173135298Y-121970553D01*
X173115593Y-121985167D01*
X173094549Y-121997780D01*
X173072371Y-122008270D01*
X173049271Y-122016535D01*
X173025473Y-122022496D01*
X173001204Y-122026096D01*
X172976700Y-122027300D01*
X171726700Y-122027300D01*
X171702196Y-122026096D01*
X171677927Y-122022496D01*
X171654129Y-122016535D01*
X171631029Y-122008270D01*
X171608851Y-121997780D01*
X171587807Y-121985167D01*
X171568102Y-121970553D01*
X171549923Y-121954077D01*
X171533447Y-121935898D01*
X171518833Y-121916193D01*
X171506220Y-121895149D01*
X171495730Y-121872971D01*
X171487465Y-121849871D01*
X171481504Y-121826073D01*
X171477904Y-121801804D01*
X171476700Y-121777300D01*
X171476700Y-121027300D01*
X171477904Y-121002796D01*
X171481504Y-120978527D01*
X171487465Y-120954729D01*
X171495730Y-120931629D01*
X171506220Y-120909451D01*
X171518833Y-120888407D01*
X171533447Y-120868702D01*
X171549923Y-120850523D01*
X171568102Y-120834047D01*
X171587807Y-120819433D01*
X171608851Y-120806820D01*
X171631029Y-120796330D01*
X171654129Y-120788065D01*
X171677927Y-120782104D01*
X171702196Y-120778504D01*
X171726700Y-120777300D01*
X172976700Y-120777300D01*
X173001204Y-120778504D01*
X173001204Y-120778504D01*
G37*
D15*
X172351700Y-121402300D03*
D14*
G36*
X173001204Y-117978504D02*
G01*
X173025473Y-117982104D01*
X173049271Y-117988065D01*
X173072371Y-117996330D01*
X173094549Y-118006820D01*
X173115593Y-118019433D01*
X173135298Y-118034047D01*
X173153477Y-118050523D01*
X173169953Y-118068702D01*
X173184567Y-118088407D01*
X173197180Y-118109451D01*
X173207670Y-118131629D01*
X173215935Y-118154729D01*
X173221896Y-118178527D01*
X173225496Y-118202796D01*
X173226700Y-118227300D01*
X173226700Y-118977300D01*
X173225496Y-119001804D01*
X173221896Y-119026073D01*
X173215935Y-119049871D01*
X173207670Y-119072971D01*
X173197180Y-119095149D01*
X173184567Y-119116193D01*
X173169953Y-119135898D01*
X173153477Y-119154077D01*
X173135298Y-119170553D01*
X173115593Y-119185167D01*
X173094549Y-119197780D01*
X173072371Y-119208270D01*
X173049271Y-119216535D01*
X173025473Y-119222496D01*
X173001204Y-119226096D01*
X172976700Y-119227300D01*
X171726700Y-119227300D01*
X171702196Y-119226096D01*
X171677927Y-119222496D01*
X171654129Y-119216535D01*
X171631029Y-119208270D01*
X171608851Y-119197780D01*
X171587807Y-119185167D01*
X171568102Y-119170553D01*
X171549923Y-119154077D01*
X171533447Y-119135898D01*
X171518833Y-119116193D01*
X171506220Y-119095149D01*
X171495730Y-119072971D01*
X171487465Y-119049871D01*
X171481504Y-119026073D01*
X171477904Y-119001804D01*
X171476700Y-118977300D01*
X171476700Y-118227300D01*
X171477904Y-118202796D01*
X171481504Y-118178527D01*
X171487465Y-118154729D01*
X171495730Y-118131629D01*
X171506220Y-118109451D01*
X171518833Y-118088407D01*
X171533447Y-118068702D01*
X171549923Y-118050523D01*
X171568102Y-118034047D01*
X171587807Y-118019433D01*
X171608851Y-118006820D01*
X171631029Y-117996330D01*
X171654129Y-117988065D01*
X171677927Y-117982104D01*
X171702196Y-117978504D01*
X171726700Y-117977300D01*
X172976700Y-117977300D01*
X173001204Y-117978504D01*
X173001204Y-117978504D01*
G37*
D15*
X172351700Y-118602300D03*
D13*
X160832400Y-106704100D03*
X160832400Y-111304100D03*
X160832400Y-109004100D03*
D12*
X167132400Y-109004100D03*
X182461300Y-109004100D03*
D13*
X176161300Y-109004100D03*
X176161300Y-111304100D03*
X176161300Y-106704100D03*
X160921300Y-118832600D03*
X160921300Y-123432600D03*
X160921300Y-121132600D03*
D12*
X167221300Y-121132600D03*
X182461300Y-120929400D03*
D13*
X176161300Y-120929400D03*
X176161300Y-123229400D03*
X176161300Y-118629400D03*
D12*
X182461300Y-96532700D03*
D13*
X176161300Y-96532700D03*
X176161300Y-98832700D03*
X176161300Y-94232700D03*
D14*
G36*
X110765504Y-104282204D02*
G01*
X110789773Y-104285804D01*
X110813571Y-104291765D01*
X110836671Y-104300030D01*
X110858849Y-104310520D01*
X110879893Y-104323133D01*
X110899598Y-104337747D01*
X110917777Y-104354223D01*
X110934253Y-104372402D01*
X110948867Y-104392107D01*
X110961480Y-104413151D01*
X110971970Y-104435329D01*
X110980235Y-104458429D01*
X110986196Y-104482227D01*
X110989796Y-104506496D01*
X110991000Y-104531000D01*
X110991000Y-105781000D01*
X110989796Y-105805504D01*
X110986196Y-105829773D01*
X110980235Y-105853571D01*
X110971970Y-105876671D01*
X110961480Y-105898849D01*
X110948867Y-105919893D01*
X110934253Y-105939598D01*
X110917777Y-105957777D01*
X110899598Y-105974253D01*
X110879893Y-105988867D01*
X110858849Y-106001480D01*
X110836671Y-106011970D01*
X110813571Y-106020235D01*
X110789773Y-106026196D01*
X110765504Y-106029796D01*
X110741000Y-106031000D01*
X109991000Y-106031000D01*
X109966496Y-106029796D01*
X109942227Y-106026196D01*
X109918429Y-106020235D01*
X109895329Y-106011970D01*
X109873151Y-106001480D01*
X109852107Y-105988867D01*
X109832402Y-105974253D01*
X109814223Y-105957777D01*
X109797747Y-105939598D01*
X109783133Y-105919893D01*
X109770520Y-105898849D01*
X109760030Y-105876671D01*
X109751765Y-105853571D01*
X109745804Y-105829773D01*
X109742204Y-105805504D01*
X109741000Y-105781000D01*
X109741000Y-104531000D01*
X109742204Y-104506496D01*
X109745804Y-104482227D01*
X109751765Y-104458429D01*
X109760030Y-104435329D01*
X109770520Y-104413151D01*
X109783133Y-104392107D01*
X109797747Y-104372402D01*
X109814223Y-104354223D01*
X109832402Y-104337747D01*
X109852107Y-104323133D01*
X109873151Y-104310520D01*
X109895329Y-104300030D01*
X109918429Y-104291765D01*
X109942227Y-104285804D01*
X109966496Y-104282204D01*
X109991000Y-104281000D01*
X110741000Y-104281000D01*
X110765504Y-104282204D01*
X110765504Y-104282204D01*
G37*
D15*
X110366000Y-105156000D03*
D14*
G36*
X107965504Y-104282204D02*
G01*
X107989773Y-104285804D01*
X108013571Y-104291765D01*
X108036671Y-104300030D01*
X108058849Y-104310520D01*
X108079893Y-104323133D01*
X108099598Y-104337747D01*
X108117777Y-104354223D01*
X108134253Y-104372402D01*
X108148867Y-104392107D01*
X108161480Y-104413151D01*
X108171970Y-104435329D01*
X108180235Y-104458429D01*
X108186196Y-104482227D01*
X108189796Y-104506496D01*
X108191000Y-104531000D01*
X108191000Y-105781000D01*
X108189796Y-105805504D01*
X108186196Y-105829773D01*
X108180235Y-105853571D01*
X108171970Y-105876671D01*
X108161480Y-105898849D01*
X108148867Y-105919893D01*
X108134253Y-105939598D01*
X108117777Y-105957777D01*
X108099598Y-105974253D01*
X108079893Y-105988867D01*
X108058849Y-106001480D01*
X108036671Y-106011970D01*
X108013571Y-106020235D01*
X107989773Y-106026196D01*
X107965504Y-106029796D01*
X107941000Y-106031000D01*
X107191000Y-106031000D01*
X107166496Y-106029796D01*
X107142227Y-106026196D01*
X107118429Y-106020235D01*
X107095329Y-106011970D01*
X107073151Y-106001480D01*
X107052107Y-105988867D01*
X107032402Y-105974253D01*
X107014223Y-105957777D01*
X106997747Y-105939598D01*
X106983133Y-105919893D01*
X106970520Y-105898849D01*
X106960030Y-105876671D01*
X106951765Y-105853571D01*
X106945804Y-105829773D01*
X106942204Y-105805504D01*
X106941000Y-105781000D01*
X106941000Y-104531000D01*
X106942204Y-104506496D01*
X106945804Y-104482227D01*
X106951765Y-104458429D01*
X106960030Y-104435329D01*
X106970520Y-104413151D01*
X106983133Y-104392107D01*
X106997747Y-104372402D01*
X107014223Y-104354223D01*
X107032402Y-104337747D01*
X107052107Y-104323133D01*
X107073151Y-104310520D01*
X107095329Y-104300030D01*
X107118429Y-104291765D01*
X107142227Y-104285804D01*
X107166496Y-104282204D01*
X107191000Y-104281000D01*
X107941000Y-104281000D01*
X107965504Y-104282204D01*
X107965504Y-104282204D01*
G37*
D15*
X107566000Y-105156000D03*
D14*
G36*
X116607504Y-104282204D02*
G01*
X116631773Y-104285804D01*
X116655571Y-104291765D01*
X116678671Y-104300030D01*
X116700849Y-104310520D01*
X116721893Y-104323133D01*
X116741598Y-104337747D01*
X116759777Y-104354223D01*
X116776253Y-104372402D01*
X116790867Y-104392107D01*
X116803480Y-104413151D01*
X116813970Y-104435329D01*
X116822235Y-104458429D01*
X116828196Y-104482227D01*
X116831796Y-104506496D01*
X116833000Y-104531000D01*
X116833000Y-105781000D01*
X116831796Y-105805504D01*
X116828196Y-105829773D01*
X116822235Y-105853571D01*
X116813970Y-105876671D01*
X116803480Y-105898849D01*
X116790867Y-105919893D01*
X116776253Y-105939598D01*
X116759777Y-105957777D01*
X116741598Y-105974253D01*
X116721893Y-105988867D01*
X116700849Y-106001480D01*
X116678671Y-106011970D01*
X116655571Y-106020235D01*
X116631773Y-106026196D01*
X116607504Y-106029796D01*
X116583000Y-106031000D01*
X115833000Y-106031000D01*
X115808496Y-106029796D01*
X115784227Y-106026196D01*
X115760429Y-106020235D01*
X115737329Y-106011970D01*
X115715151Y-106001480D01*
X115694107Y-105988867D01*
X115674402Y-105974253D01*
X115656223Y-105957777D01*
X115639747Y-105939598D01*
X115625133Y-105919893D01*
X115612520Y-105898849D01*
X115602030Y-105876671D01*
X115593765Y-105853571D01*
X115587804Y-105829773D01*
X115584204Y-105805504D01*
X115583000Y-105781000D01*
X115583000Y-104531000D01*
X115584204Y-104506496D01*
X115587804Y-104482227D01*
X115593765Y-104458429D01*
X115602030Y-104435329D01*
X115612520Y-104413151D01*
X115625133Y-104392107D01*
X115639747Y-104372402D01*
X115656223Y-104354223D01*
X115674402Y-104337747D01*
X115694107Y-104323133D01*
X115715151Y-104310520D01*
X115737329Y-104300030D01*
X115760429Y-104291765D01*
X115784227Y-104285804D01*
X115808496Y-104282204D01*
X115833000Y-104281000D01*
X116583000Y-104281000D01*
X116607504Y-104282204D01*
X116607504Y-104282204D01*
G37*
D15*
X116208000Y-105156000D03*
D14*
G36*
X113807504Y-104282204D02*
G01*
X113831773Y-104285804D01*
X113855571Y-104291765D01*
X113878671Y-104300030D01*
X113900849Y-104310520D01*
X113921893Y-104323133D01*
X113941598Y-104337747D01*
X113959777Y-104354223D01*
X113976253Y-104372402D01*
X113990867Y-104392107D01*
X114003480Y-104413151D01*
X114013970Y-104435329D01*
X114022235Y-104458429D01*
X114028196Y-104482227D01*
X114031796Y-104506496D01*
X114033000Y-104531000D01*
X114033000Y-105781000D01*
X114031796Y-105805504D01*
X114028196Y-105829773D01*
X114022235Y-105853571D01*
X114013970Y-105876671D01*
X114003480Y-105898849D01*
X113990867Y-105919893D01*
X113976253Y-105939598D01*
X113959777Y-105957777D01*
X113941598Y-105974253D01*
X113921893Y-105988867D01*
X113900849Y-106001480D01*
X113878671Y-106011970D01*
X113855571Y-106020235D01*
X113831773Y-106026196D01*
X113807504Y-106029796D01*
X113783000Y-106031000D01*
X113033000Y-106031000D01*
X113008496Y-106029796D01*
X112984227Y-106026196D01*
X112960429Y-106020235D01*
X112937329Y-106011970D01*
X112915151Y-106001480D01*
X112894107Y-105988867D01*
X112874402Y-105974253D01*
X112856223Y-105957777D01*
X112839747Y-105939598D01*
X112825133Y-105919893D01*
X112812520Y-105898849D01*
X112802030Y-105876671D01*
X112793765Y-105853571D01*
X112787804Y-105829773D01*
X112784204Y-105805504D01*
X112783000Y-105781000D01*
X112783000Y-104531000D01*
X112784204Y-104506496D01*
X112787804Y-104482227D01*
X112793765Y-104458429D01*
X112802030Y-104435329D01*
X112812520Y-104413151D01*
X112825133Y-104392107D01*
X112839747Y-104372402D01*
X112856223Y-104354223D01*
X112874402Y-104337747D01*
X112894107Y-104323133D01*
X112915151Y-104310520D01*
X112937329Y-104300030D01*
X112960429Y-104291765D01*
X112984227Y-104285804D01*
X113008496Y-104282204D01*
X113033000Y-104281000D01*
X113783000Y-104281000D01*
X113807504Y-104282204D01*
X113807504Y-104282204D01*
G37*
D15*
X113408000Y-105156000D03*
M02*
