G04 #@! TF.GenerationSoftware,KiCad,Pcbnew,(5.0.0)*
G04 #@! TF.CreationDate,2020-01-14T16:13:25-06:00*
G04 #@! TF.ProjectId,Igniter,49676E697465722E6B696361645F7063,rev?*
G04 #@! TF.SameCoordinates,Original*
G04 #@! TF.FileFunction,Copper,L2,Bot,Signal*
G04 #@! TF.FilePolarity,Positive*
%FSLAX46Y46*%
G04 Gerber Fmt 4.6, Leading zero omitted, Abs format (unit mm)*
G04 Created by KiCad (PCBNEW (5.0.0)) date 01/14/20 16:13:25*
%MOMM*%
%LPD*%
G01*
G04 APERTURE LIST*
G04 #@! TA.AperFunction,ComponentPad*
%ADD10O,1.727200X1.727200*%
G04 #@! TD*
G04 #@! TA.AperFunction,ComponentPad*
%ADD11O,1.850000X1.700000*%
G04 #@! TD*
G04 #@! TA.AperFunction,Conductor*
%ADD12C,0.100000*%
G04 #@! TD*
G04 #@! TA.AperFunction,ComponentPad*
%ADD13C,1.700000*%
G04 #@! TD*
G04 #@! TA.AperFunction,WasherPad*
%ADD14C,2.500000*%
G04 #@! TD*
G04 #@! TA.AperFunction,ComponentPad*
%ADD15C,1.750000*%
G04 #@! TD*
G04 #@! TA.AperFunction,ComponentPad*
%ADD16C,3.000000*%
G04 #@! TD*
G04 #@! TA.AperFunction,ComponentPad*
%ADD17C,2.700000*%
G04 #@! TD*
G04 #@! TA.AperFunction,ComponentPad*
%ADD18O,3.300000X2.700000*%
G04 #@! TD*
G04 #@! TA.AperFunction,ComponentPad*
%ADD19C,1.524000*%
G04 #@! TD*
G04 #@! TA.AperFunction,ViaPad*
%ADD20C,0.800000*%
G04 #@! TD*
G04 #@! TA.AperFunction,Conductor*
%ADD21C,1.000000*%
G04 #@! TD*
G04 #@! TA.AperFunction,Conductor*
%ADD22C,0.250000*%
G04 #@! TD*
G04 APERTURE END LIST*
D10*
G04 #@! TO.P,XA1,MISO*
G04 #@! TO.N,Net-(IC1-Pad9)*
X148861780Y-109148880D03*
G04 #@! TO.P,XA1,GND6*
G04 #@! TO.N,GNDREF*
X181754780Y-132008880D03*
G04 #@! TO.P,XA1,GND5*
X179214780Y-132008880D03*
G04 #@! TO.P,XA1,D53*
G04 #@! TO.N,/CS*
X181754780Y-129468880D03*
G04 #@! TO.P,XA1,D52*
G04 #@! TO.N,N/C*
X179214780Y-129468880D03*
G04 #@! TO.P,XA1,D51*
X181754780Y-126928880D03*
G04 #@! TO.P,XA1,D50*
X179214780Y-126928880D03*
G04 #@! TO.P,XA1,A15*
X176674780Y-137088880D03*
G04 #@! TO.P,XA1,A14*
X174134780Y-137088880D03*
G04 #@! TO.P,XA1,A13*
X171594780Y-137088880D03*
G04 #@! TO.P,XA1,A12*
X169054780Y-137088880D03*
G04 #@! TO.P,XA1,A11*
X166514780Y-137088880D03*
G04 #@! TO.P,XA1,A10*
X163974780Y-137088880D03*
G04 #@! TO.P,XA1,A9*
X161434780Y-137088880D03*
G04 #@! TO.P,XA1,A8*
X158894780Y-137088880D03*
G04 #@! TO.P,XA1,A7*
X153814780Y-137088880D03*
G04 #@! TO.P,XA1,A6*
X151274780Y-137088880D03*
G04 #@! TO.P,XA1,A5*
X148734780Y-137088880D03*
G04 #@! TO.P,XA1,A4*
X146194780Y-137088880D03*
G04 #@! TO.P,XA1,A3*
G04 #@! TO.N,/PT3*
X143654780Y-137088880D03*
G04 #@! TO.P,XA1,A2*
G04 #@! TO.N,/PT2*
X141114780Y-137088880D03*
G04 #@! TO.P,XA1,A1*
G04 #@! TO.N,/PT1*
X138574780Y-137088880D03*
G04 #@! TO.P,XA1,*
G04 #@! TO.N,*
X113174780Y-137088880D03*
G04 #@! TO.P,XA1,D11*
G04 #@! TO.N,N/C*
X119270780Y-88828880D03*
G04 #@! TO.P,XA1,D12*
X116730780Y-88828880D03*
G04 #@! TO.P,XA1,D13*
G04 #@! TO.N,Net-(Q1-Pad1)*
X114190780Y-88828880D03*
G04 #@! TO.P,XA1,AREF*
G04 #@! TO.N,N/C*
X109110780Y-88828880D03*
G04 #@! TO.P,XA1,SDA*
X106570780Y-88828880D03*
G04 #@! TO.P,XA1,SCL*
X104030780Y-88828880D03*
G04 #@! TO.P,XA1,D10*
X121810780Y-88828880D03*
G04 #@! TO.P,XA1,D9*
X124350780Y-88828880D03*
G04 #@! TO.P,XA1,D8*
X126890780Y-88828880D03*
G04 #@! TO.P,XA1,GND1*
G04 #@! TO.N,GNDREF*
X111650780Y-88828880D03*
G04 #@! TO.P,XA1,D7*
G04 #@! TO.N,N/C*
X130954780Y-88828880D03*
G04 #@! TO.P,XA1,D6*
G04 #@! TO.N,SOL5*
X133494780Y-88828880D03*
G04 #@! TO.P,XA1,D5*
G04 #@! TO.N,SOL4*
X136034780Y-88828880D03*
G04 #@! TO.P,XA1,D4*
G04 #@! TO.N,SOL3*
X138574780Y-88828880D03*
G04 #@! TO.P,XA1,D3*
G04 #@! TO.N,SOL2*
X141114780Y-88828880D03*
G04 #@! TO.P,XA1,D2*
G04 #@! TO.N,SOL1*
X143654780Y-88828880D03*
G04 #@! TO.P,XA1,D1*
G04 #@! TO.N,N/C*
X146194780Y-88828880D03*
G04 #@! TO.P,XA1,D0*
X148734780Y-88828880D03*
G04 #@! TO.P,XA1,D14*
X153814780Y-88828880D03*
G04 #@! TO.P,XA1,D15*
X156354780Y-88828880D03*
G04 #@! TO.P,XA1,D16*
X158894780Y-88828880D03*
G04 #@! TO.P,XA1,D17*
X161434780Y-88828880D03*
G04 #@! TO.P,XA1,D18*
X163974780Y-88828880D03*
G04 #@! TO.P,XA1,D19*
X166514780Y-88828880D03*
G04 #@! TO.P,XA1,D20*
X169054780Y-88828880D03*
G04 #@! TO.P,XA1,D21*
X171594780Y-88828880D03*
G04 #@! TO.P,XA1,IORF*
X115714780Y-137088880D03*
G04 #@! TO.P,XA1,RST1*
X118254780Y-137088880D03*
G04 #@! TO.P,XA1,3V3*
G04 #@! TO.N,+3V3*
X120794780Y-137088880D03*
G04 #@! TO.P,XA1,5V1*
G04 #@! TO.N,N/C*
X123334780Y-137088880D03*
G04 #@! TO.P,XA1,GND2*
G04 #@! TO.N,GNDREF*
X125874780Y-137088880D03*
G04 #@! TO.P,XA1,GND3*
X128414780Y-137088880D03*
G04 #@! TO.P,XA1,VIN*
G04 #@! TO.N,N/C*
X130954780Y-137088880D03*
G04 #@! TO.P,XA1,A0*
G04 #@! TO.N,/PT0*
X136034780Y-137088880D03*
G04 #@! TO.P,XA1,5V2*
G04 #@! TO.N,N/C*
X151401780Y-109148880D03*
G04 #@! TO.P,XA1,SCK*
G04 #@! TO.N,Net-(IC1-Pad3)*
X148861780Y-111688880D03*
G04 #@! TO.P,XA1,MOSI*
G04 #@! TO.N,Net-(IC1-Pad5)*
X151401780Y-111688880D03*
G04 #@! TO.P,XA1,GND4*
G04 #@! TO.N,GNDREF*
X151401780Y-114228880D03*
G04 #@! TO.P,XA1,RST2*
G04 #@! TO.N,N/C*
X148861780Y-114228880D03*
G04 #@! TD*
D11*
G04 #@! TO.P,J12,3*
G04 #@! TO.N,+24V*
X172435520Y-144562820D03*
G04 #@! TO.P,J12,2*
G04 #@! TO.N,Net-(D6-Pad2)*
X172435520Y-147062820D03*
D12*
G04 #@! TD*
G04 #@! TO.N,GNDREF*
G04 #@! TO.C,J12*
G36*
X173135024Y-148714024D02*
X173159293Y-148717624D01*
X173183091Y-148723585D01*
X173206191Y-148731850D01*
X173228369Y-148742340D01*
X173249413Y-148754953D01*
X173269118Y-148769567D01*
X173287297Y-148786043D01*
X173303773Y-148804222D01*
X173318387Y-148823927D01*
X173331000Y-148844971D01*
X173341490Y-148867149D01*
X173349755Y-148890249D01*
X173355716Y-148914047D01*
X173359316Y-148938316D01*
X173360520Y-148962820D01*
X173360520Y-150162820D01*
X173359316Y-150187324D01*
X173355716Y-150211593D01*
X173349755Y-150235391D01*
X173341490Y-150258491D01*
X173331000Y-150280669D01*
X173318387Y-150301713D01*
X173303773Y-150321418D01*
X173287297Y-150339597D01*
X173269118Y-150356073D01*
X173249413Y-150370687D01*
X173228369Y-150383300D01*
X173206191Y-150393790D01*
X173183091Y-150402055D01*
X173159293Y-150408016D01*
X173135024Y-150411616D01*
X173110520Y-150412820D01*
X171760520Y-150412820D01*
X171736016Y-150411616D01*
X171711747Y-150408016D01*
X171687949Y-150402055D01*
X171664849Y-150393790D01*
X171642671Y-150383300D01*
X171621627Y-150370687D01*
X171601922Y-150356073D01*
X171583743Y-150339597D01*
X171567267Y-150321418D01*
X171552653Y-150301713D01*
X171540040Y-150280669D01*
X171529550Y-150258491D01*
X171521285Y-150235391D01*
X171515324Y-150211593D01*
X171511724Y-150187324D01*
X171510520Y-150162820D01*
X171510520Y-148962820D01*
X171511724Y-148938316D01*
X171515324Y-148914047D01*
X171521285Y-148890249D01*
X171529550Y-148867149D01*
X171540040Y-148844971D01*
X171552653Y-148823927D01*
X171567267Y-148804222D01*
X171583743Y-148786043D01*
X171601922Y-148769567D01*
X171621627Y-148754953D01*
X171642671Y-148742340D01*
X171664849Y-148731850D01*
X171687949Y-148723585D01*
X171711747Y-148717624D01*
X171736016Y-148714024D01*
X171760520Y-148712820D01*
X173110520Y-148712820D01*
X173135024Y-148714024D01*
X173135024Y-148714024D01*
G37*
D13*
G04 #@! TO.P,J12,1*
G04 #@! TO.N,GNDREF*
X172435520Y-149562820D03*
G04 #@! TD*
D11*
G04 #@! TO.P,J11,3*
G04 #@! TO.N,+24V*
X164094160Y-144562820D03*
G04 #@! TO.P,J11,2*
G04 #@! TO.N,Net-(D5-Pad2)*
X164094160Y-147062820D03*
D12*
G04 #@! TD*
G04 #@! TO.N,GNDREF*
G04 #@! TO.C,J11*
G36*
X164793664Y-148714024D02*
X164817933Y-148717624D01*
X164841731Y-148723585D01*
X164864831Y-148731850D01*
X164887009Y-148742340D01*
X164908053Y-148754953D01*
X164927758Y-148769567D01*
X164945937Y-148786043D01*
X164962413Y-148804222D01*
X164977027Y-148823927D01*
X164989640Y-148844971D01*
X165000130Y-148867149D01*
X165008395Y-148890249D01*
X165014356Y-148914047D01*
X165017956Y-148938316D01*
X165019160Y-148962820D01*
X165019160Y-150162820D01*
X165017956Y-150187324D01*
X165014356Y-150211593D01*
X165008395Y-150235391D01*
X165000130Y-150258491D01*
X164989640Y-150280669D01*
X164977027Y-150301713D01*
X164962413Y-150321418D01*
X164945937Y-150339597D01*
X164927758Y-150356073D01*
X164908053Y-150370687D01*
X164887009Y-150383300D01*
X164864831Y-150393790D01*
X164841731Y-150402055D01*
X164817933Y-150408016D01*
X164793664Y-150411616D01*
X164769160Y-150412820D01*
X163419160Y-150412820D01*
X163394656Y-150411616D01*
X163370387Y-150408016D01*
X163346589Y-150402055D01*
X163323489Y-150393790D01*
X163301311Y-150383300D01*
X163280267Y-150370687D01*
X163260562Y-150356073D01*
X163242383Y-150339597D01*
X163225907Y-150321418D01*
X163211293Y-150301713D01*
X163198680Y-150280669D01*
X163188190Y-150258491D01*
X163179925Y-150235391D01*
X163173964Y-150211593D01*
X163170364Y-150187324D01*
X163169160Y-150162820D01*
X163169160Y-148962820D01*
X163170364Y-148938316D01*
X163173964Y-148914047D01*
X163179925Y-148890249D01*
X163188190Y-148867149D01*
X163198680Y-148844971D01*
X163211293Y-148823927D01*
X163225907Y-148804222D01*
X163242383Y-148786043D01*
X163260562Y-148769567D01*
X163280267Y-148754953D01*
X163301311Y-148742340D01*
X163323489Y-148731850D01*
X163346589Y-148723585D01*
X163370387Y-148717624D01*
X163394656Y-148714024D01*
X163419160Y-148712820D01*
X164769160Y-148712820D01*
X164793664Y-148714024D01*
X164793664Y-148714024D01*
G37*
D13*
G04 #@! TO.P,J11,1*
G04 #@! TO.N,GNDREF*
X164094160Y-149562820D03*
G04 #@! TD*
D11*
G04 #@! TO.P,J10,3*
G04 #@! TO.N,+24V*
X155752800Y-144562820D03*
G04 #@! TO.P,J10,2*
G04 #@! TO.N,Net-(D4-Pad2)*
X155752800Y-147062820D03*
D12*
G04 #@! TD*
G04 #@! TO.N,GNDREF*
G04 #@! TO.C,J10*
G36*
X156452304Y-148714024D02*
X156476573Y-148717624D01*
X156500371Y-148723585D01*
X156523471Y-148731850D01*
X156545649Y-148742340D01*
X156566693Y-148754953D01*
X156586398Y-148769567D01*
X156604577Y-148786043D01*
X156621053Y-148804222D01*
X156635667Y-148823927D01*
X156648280Y-148844971D01*
X156658770Y-148867149D01*
X156667035Y-148890249D01*
X156672996Y-148914047D01*
X156676596Y-148938316D01*
X156677800Y-148962820D01*
X156677800Y-150162820D01*
X156676596Y-150187324D01*
X156672996Y-150211593D01*
X156667035Y-150235391D01*
X156658770Y-150258491D01*
X156648280Y-150280669D01*
X156635667Y-150301713D01*
X156621053Y-150321418D01*
X156604577Y-150339597D01*
X156586398Y-150356073D01*
X156566693Y-150370687D01*
X156545649Y-150383300D01*
X156523471Y-150393790D01*
X156500371Y-150402055D01*
X156476573Y-150408016D01*
X156452304Y-150411616D01*
X156427800Y-150412820D01*
X155077800Y-150412820D01*
X155053296Y-150411616D01*
X155029027Y-150408016D01*
X155005229Y-150402055D01*
X154982129Y-150393790D01*
X154959951Y-150383300D01*
X154938907Y-150370687D01*
X154919202Y-150356073D01*
X154901023Y-150339597D01*
X154884547Y-150321418D01*
X154869933Y-150301713D01*
X154857320Y-150280669D01*
X154846830Y-150258491D01*
X154838565Y-150235391D01*
X154832604Y-150211593D01*
X154829004Y-150187324D01*
X154827800Y-150162820D01*
X154827800Y-148962820D01*
X154829004Y-148938316D01*
X154832604Y-148914047D01*
X154838565Y-148890249D01*
X154846830Y-148867149D01*
X154857320Y-148844971D01*
X154869933Y-148823927D01*
X154884547Y-148804222D01*
X154901023Y-148786043D01*
X154919202Y-148769567D01*
X154938907Y-148754953D01*
X154959951Y-148742340D01*
X154982129Y-148731850D01*
X155005229Y-148723585D01*
X155029027Y-148717624D01*
X155053296Y-148714024D01*
X155077800Y-148712820D01*
X156427800Y-148712820D01*
X156452304Y-148714024D01*
X156452304Y-148714024D01*
G37*
D13*
G04 #@! TO.P,J10,1*
G04 #@! TO.N,GNDREF*
X155752800Y-149562820D03*
G04 #@! TD*
D11*
G04 #@! TO.P,J9,3*
G04 #@! TO.N,+24V*
X141091920Y-144562820D03*
G04 #@! TO.P,J9,2*
G04 #@! TO.N,Net-(D3-Pad2)*
X141091920Y-147062820D03*
D12*
G04 #@! TD*
G04 #@! TO.N,GNDREF*
G04 #@! TO.C,J9*
G36*
X141791424Y-148714024D02*
X141815693Y-148717624D01*
X141839491Y-148723585D01*
X141862591Y-148731850D01*
X141884769Y-148742340D01*
X141905813Y-148754953D01*
X141925518Y-148769567D01*
X141943697Y-148786043D01*
X141960173Y-148804222D01*
X141974787Y-148823927D01*
X141987400Y-148844971D01*
X141997890Y-148867149D01*
X142006155Y-148890249D01*
X142012116Y-148914047D01*
X142015716Y-148938316D01*
X142016920Y-148962820D01*
X142016920Y-150162820D01*
X142015716Y-150187324D01*
X142012116Y-150211593D01*
X142006155Y-150235391D01*
X141997890Y-150258491D01*
X141987400Y-150280669D01*
X141974787Y-150301713D01*
X141960173Y-150321418D01*
X141943697Y-150339597D01*
X141925518Y-150356073D01*
X141905813Y-150370687D01*
X141884769Y-150383300D01*
X141862591Y-150393790D01*
X141839491Y-150402055D01*
X141815693Y-150408016D01*
X141791424Y-150411616D01*
X141766920Y-150412820D01*
X140416920Y-150412820D01*
X140392416Y-150411616D01*
X140368147Y-150408016D01*
X140344349Y-150402055D01*
X140321249Y-150393790D01*
X140299071Y-150383300D01*
X140278027Y-150370687D01*
X140258322Y-150356073D01*
X140240143Y-150339597D01*
X140223667Y-150321418D01*
X140209053Y-150301713D01*
X140196440Y-150280669D01*
X140185950Y-150258491D01*
X140177685Y-150235391D01*
X140171724Y-150211593D01*
X140168124Y-150187324D01*
X140166920Y-150162820D01*
X140166920Y-148962820D01*
X140168124Y-148938316D01*
X140171724Y-148914047D01*
X140177685Y-148890249D01*
X140185950Y-148867149D01*
X140196440Y-148844971D01*
X140209053Y-148823927D01*
X140223667Y-148804222D01*
X140240143Y-148786043D01*
X140258322Y-148769567D01*
X140278027Y-148754953D01*
X140299071Y-148742340D01*
X140321249Y-148731850D01*
X140344349Y-148723585D01*
X140368147Y-148717624D01*
X140392416Y-148714024D01*
X140416920Y-148712820D01*
X141766920Y-148712820D01*
X141791424Y-148714024D01*
X141791424Y-148714024D01*
G37*
D13*
G04 #@! TO.P,J9,1*
G04 #@! TO.N,GNDREF*
X141091920Y-149562820D03*
G04 #@! TD*
D11*
G04 #@! TO.P,J8,3*
G04 #@! TO.N,+24V*
X133357620Y-144562820D03*
G04 #@! TO.P,J8,2*
G04 #@! TO.N,Net-(D2-Pad2)*
X133357620Y-147062820D03*
D12*
G04 #@! TD*
G04 #@! TO.N,GNDREF*
G04 #@! TO.C,J8*
G36*
X134057124Y-148714024D02*
X134081393Y-148717624D01*
X134105191Y-148723585D01*
X134128291Y-148731850D01*
X134150469Y-148742340D01*
X134171513Y-148754953D01*
X134191218Y-148769567D01*
X134209397Y-148786043D01*
X134225873Y-148804222D01*
X134240487Y-148823927D01*
X134253100Y-148844971D01*
X134263590Y-148867149D01*
X134271855Y-148890249D01*
X134277816Y-148914047D01*
X134281416Y-148938316D01*
X134282620Y-148962820D01*
X134282620Y-150162820D01*
X134281416Y-150187324D01*
X134277816Y-150211593D01*
X134271855Y-150235391D01*
X134263590Y-150258491D01*
X134253100Y-150280669D01*
X134240487Y-150301713D01*
X134225873Y-150321418D01*
X134209397Y-150339597D01*
X134191218Y-150356073D01*
X134171513Y-150370687D01*
X134150469Y-150383300D01*
X134128291Y-150393790D01*
X134105191Y-150402055D01*
X134081393Y-150408016D01*
X134057124Y-150411616D01*
X134032620Y-150412820D01*
X132682620Y-150412820D01*
X132658116Y-150411616D01*
X132633847Y-150408016D01*
X132610049Y-150402055D01*
X132586949Y-150393790D01*
X132564771Y-150383300D01*
X132543727Y-150370687D01*
X132524022Y-150356073D01*
X132505843Y-150339597D01*
X132489367Y-150321418D01*
X132474753Y-150301713D01*
X132462140Y-150280669D01*
X132451650Y-150258491D01*
X132443385Y-150235391D01*
X132437424Y-150211593D01*
X132433824Y-150187324D01*
X132432620Y-150162820D01*
X132432620Y-148962820D01*
X132433824Y-148938316D01*
X132437424Y-148914047D01*
X132443385Y-148890249D01*
X132451650Y-148867149D01*
X132462140Y-148844971D01*
X132474753Y-148823927D01*
X132489367Y-148804222D01*
X132505843Y-148786043D01*
X132524022Y-148769567D01*
X132543727Y-148754953D01*
X132564771Y-148742340D01*
X132586949Y-148731850D01*
X132610049Y-148723585D01*
X132633847Y-148717624D01*
X132658116Y-148714024D01*
X132682620Y-148712820D01*
X134032620Y-148712820D01*
X134057124Y-148714024D01*
X134057124Y-148714024D01*
G37*
D13*
G04 #@! TO.P,J8,1*
G04 #@! TO.N,GNDREF*
X133357620Y-149562820D03*
G04 #@! TD*
D14*
G04 #@! TO.P,F1,*
G04 #@! TO.N,*
X187947300Y-149085300D03*
D15*
G04 #@! TO.P,F1,1*
G04 #@! TO.N,+24V*
X181547300Y-147835300D03*
G04 #@! TO.P,F1,2*
X185047300Y-147835300D03*
G04 #@! TO.P,F1,5*
G04 #@! TO.N,Net-(F1-Pad5)*
X190847300Y-147835300D03*
G04 #@! TO.P,F1,6*
X194347300Y-147835300D03*
G04 #@! TO.P,F1,3*
G04 #@! TO.N,+24V*
X181547300Y-150335300D03*
G04 #@! TO.P,F1,4*
X185047300Y-150335300D03*
G04 #@! TO.P,F1,7*
G04 #@! TO.N,Net-(F1-Pad5)*
X190847300Y-150335300D03*
G04 #@! TO.P,F1,8*
X194347300Y-150335300D03*
G04 #@! TD*
D16*
G04 #@! TO.P,J6,2*
G04 #@! TO.N,+24V*
X205812500Y-110413800D03*
G04 #@! TO.P,J6,1*
X190262500Y-110413800D03*
G04 #@! TD*
G04 #@! TO.P,J7,1*
G04 #@! TO.N,Net-(D1-Pad2)*
X205562500Y-101079300D03*
G04 #@! TO.P,J7,2*
X190012500Y-101079300D03*
G04 #@! TD*
D12*
G04 #@! TO.N,GNDREF*
G04 #@! TO.C,J1*
G36*
X100163364Y-148714024D02*
X100187633Y-148717624D01*
X100211431Y-148723585D01*
X100234531Y-148731850D01*
X100256709Y-148742340D01*
X100277753Y-148754953D01*
X100297458Y-148769567D01*
X100315637Y-148786043D01*
X100332113Y-148804222D01*
X100346727Y-148823927D01*
X100359340Y-148844971D01*
X100369830Y-148867149D01*
X100378095Y-148890249D01*
X100384056Y-148914047D01*
X100387656Y-148938316D01*
X100388860Y-148962820D01*
X100388860Y-150162820D01*
X100387656Y-150187324D01*
X100384056Y-150211593D01*
X100378095Y-150235391D01*
X100369830Y-150258491D01*
X100359340Y-150280669D01*
X100346727Y-150301713D01*
X100332113Y-150321418D01*
X100315637Y-150339597D01*
X100297458Y-150356073D01*
X100277753Y-150370687D01*
X100256709Y-150383300D01*
X100234531Y-150393790D01*
X100211431Y-150402055D01*
X100187633Y-150408016D01*
X100163364Y-150411616D01*
X100138860Y-150412820D01*
X98788860Y-150412820D01*
X98764356Y-150411616D01*
X98740087Y-150408016D01*
X98716289Y-150402055D01*
X98693189Y-150393790D01*
X98671011Y-150383300D01*
X98649967Y-150370687D01*
X98630262Y-150356073D01*
X98612083Y-150339597D01*
X98595607Y-150321418D01*
X98580993Y-150301713D01*
X98568380Y-150280669D01*
X98557890Y-150258491D01*
X98549625Y-150235391D01*
X98543664Y-150211593D01*
X98540064Y-150187324D01*
X98538860Y-150162820D01*
X98538860Y-148962820D01*
X98540064Y-148938316D01*
X98543664Y-148914047D01*
X98549625Y-148890249D01*
X98557890Y-148867149D01*
X98568380Y-148844971D01*
X98580993Y-148823927D01*
X98595607Y-148804222D01*
X98612083Y-148786043D01*
X98630262Y-148769567D01*
X98649967Y-148754953D01*
X98671011Y-148742340D01*
X98693189Y-148731850D01*
X98716289Y-148723585D01*
X98740087Y-148717624D01*
X98764356Y-148714024D01*
X98788860Y-148712820D01*
X100138860Y-148712820D01*
X100163364Y-148714024D01*
X100163364Y-148714024D01*
G37*
D13*
G04 #@! TD*
G04 #@! TO.P,J1,1*
G04 #@! TO.N,GNDREF*
X99463860Y-149562820D03*
D11*
G04 #@! TO.P,J1,2*
G04 #@! TO.N,/PT0*
X99463860Y-147062820D03*
G04 #@! TO.P,J1,3*
G04 #@! TO.N,+24V*
X99463860Y-144562820D03*
G04 #@! TD*
D12*
G04 #@! TO.N,GNDREF*
G04 #@! TO.C,J2*
G36*
X108397197Y-148714024D02*
X108421466Y-148717624D01*
X108445264Y-148723585D01*
X108468364Y-148731850D01*
X108490542Y-148742340D01*
X108511586Y-148754953D01*
X108531291Y-148769567D01*
X108549470Y-148786043D01*
X108565946Y-148804222D01*
X108580560Y-148823927D01*
X108593173Y-148844971D01*
X108603663Y-148867149D01*
X108611928Y-148890249D01*
X108617889Y-148914047D01*
X108621489Y-148938316D01*
X108622693Y-148962820D01*
X108622693Y-150162820D01*
X108621489Y-150187324D01*
X108617889Y-150211593D01*
X108611928Y-150235391D01*
X108603663Y-150258491D01*
X108593173Y-150280669D01*
X108580560Y-150301713D01*
X108565946Y-150321418D01*
X108549470Y-150339597D01*
X108531291Y-150356073D01*
X108511586Y-150370687D01*
X108490542Y-150383300D01*
X108468364Y-150393790D01*
X108445264Y-150402055D01*
X108421466Y-150408016D01*
X108397197Y-150411616D01*
X108372693Y-150412820D01*
X107022693Y-150412820D01*
X106998189Y-150411616D01*
X106973920Y-150408016D01*
X106950122Y-150402055D01*
X106927022Y-150393790D01*
X106904844Y-150383300D01*
X106883800Y-150370687D01*
X106864095Y-150356073D01*
X106845916Y-150339597D01*
X106829440Y-150321418D01*
X106814826Y-150301713D01*
X106802213Y-150280669D01*
X106791723Y-150258491D01*
X106783458Y-150235391D01*
X106777497Y-150211593D01*
X106773897Y-150187324D01*
X106772693Y-150162820D01*
X106772693Y-148962820D01*
X106773897Y-148938316D01*
X106777497Y-148914047D01*
X106783458Y-148890249D01*
X106791723Y-148867149D01*
X106802213Y-148844971D01*
X106814826Y-148823927D01*
X106829440Y-148804222D01*
X106845916Y-148786043D01*
X106864095Y-148769567D01*
X106883800Y-148754953D01*
X106904844Y-148742340D01*
X106927022Y-148731850D01*
X106950122Y-148723585D01*
X106973920Y-148717624D01*
X106998189Y-148714024D01*
X107022693Y-148712820D01*
X108372693Y-148712820D01*
X108397197Y-148714024D01*
X108397197Y-148714024D01*
G37*
D13*
G04 #@! TD*
G04 #@! TO.P,J2,1*
G04 #@! TO.N,GNDREF*
X107697693Y-149562820D03*
D11*
G04 #@! TO.P,J2,2*
G04 #@! TO.N,/PT1*
X107697693Y-147062820D03*
G04 #@! TO.P,J2,3*
G04 #@! TO.N,+24V*
X107697693Y-144562820D03*
G04 #@! TD*
G04 #@! TO.P,J3,3*
G04 #@! TO.N,+24V*
X115931526Y-144562820D03*
G04 #@! TO.P,J3,2*
G04 #@! TO.N,/PT2*
X115931526Y-147062820D03*
D12*
G04 #@! TD*
G04 #@! TO.N,GNDREF*
G04 #@! TO.C,J3*
G36*
X116631030Y-148714024D02*
X116655299Y-148717624D01*
X116679097Y-148723585D01*
X116702197Y-148731850D01*
X116724375Y-148742340D01*
X116745419Y-148754953D01*
X116765124Y-148769567D01*
X116783303Y-148786043D01*
X116799779Y-148804222D01*
X116814393Y-148823927D01*
X116827006Y-148844971D01*
X116837496Y-148867149D01*
X116845761Y-148890249D01*
X116851722Y-148914047D01*
X116855322Y-148938316D01*
X116856526Y-148962820D01*
X116856526Y-150162820D01*
X116855322Y-150187324D01*
X116851722Y-150211593D01*
X116845761Y-150235391D01*
X116837496Y-150258491D01*
X116827006Y-150280669D01*
X116814393Y-150301713D01*
X116799779Y-150321418D01*
X116783303Y-150339597D01*
X116765124Y-150356073D01*
X116745419Y-150370687D01*
X116724375Y-150383300D01*
X116702197Y-150393790D01*
X116679097Y-150402055D01*
X116655299Y-150408016D01*
X116631030Y-150411616D01*
X116606526Y-150412820D01*
X115256526Y-150412820D01*
X115232022Y-150411616D01*
X115207753Y-150408016D01*
X115183955Y-150402055D01*
X115160855Y-150393790D01*
X115138677Y-150383300D01*
X115117633Y-150370687D01*
X115097928Y-150356073D01*
X115079749Y-150339597D01*
X115063273Y-150321418D01*
X115048659Y-150301713D01*
X115036046Y-150280669D01*
X115025556Y-150258491D01*
X115017291Y-150235391D01*
X115011330Y-150211593D01*
X115007730Y-150187324D01*
X115006526Y-150162820D01*
X115006526Y-148962820D01*
X115007730Y-148938316D01*
X115011330Y-148914047D01*
X115017291Y-148890249D01*
X115025556Y-148867149D01*
X115036046Y-148844971D01*
X115048659Y-148823927D01*
X115063273Y-148804222D01*
X115079749Y-148786043D01*
X115097928Y-148769567D01*
X115117633Y-148754953D01*
X115138677Y-148742340D01*
X115160855Y-148731850D01*
X115183955Y-148723585D01*
X115207753Y-148717624D01*
X115232022Y-148714024D01*
X115256526Y-148712820D01*
X116606526Y-148712820D01*
X116631030Y-148714024D01*
X116631030Y-148714024D01*
G37*
D13*
G04 #@! TO.P,J3,1*
G04 #@! TO.N,GNDREF*
X115931526Y-149562820D03*
G04 #@! TD*
D11*
G04 #@! TO.P,J4,3*
G04 #@! TO.N,+24V*
X124165360Y-144562820D03*
G04 #@! TO.P,J4,2*
G04 #@! TO.N,/PT3*
X124165360Y-147062820D03*
D12*
G04 #@! TD*
G04 #@! TO.N,GNDREF*
G04 #@! TO.C,J4*
G36*
X124864864Y-148714024D02*
X124889133Y-148717624D01*
X124912931Y-148723585D01*
X124936031Y-148731850D01*
X124958209Y-148742340D01*
X124979253Y-148754953D01*
X124998958Y-148769567D01*
X125017137Y-148786043D01*
X125033613Y-148804222D01*
X125048227Y-148823927D01*
X125060840Y-148844971D01*
X125071330Y-148867149D01*
X125079595Y-148890249D01*
X125085556Y-148914047D01*
X125089156Y-148938316D01*
X125090360Y-148962820D01*
X125090360Y-150162820D01*
X125089156Y-150187324D01*
X125085556Y-150211593D01*
X125079595Y-150235391D01*
X125071330Y-150258491D01*
X125060840Y-150280669D01*
X125048227Y-150301713D01*
X125033613Y-150321418D01*
X125017137Y-150339597D01*
X124998958Y-150356073D01*
X124979253Y-150370687D01*
X124958209Y-150383300D01*
X124936031Y-150393790D01*
X124912931Y-150402055D01*
X124889133Y-150408016D01*
X124864864Y-150411616D01*
X124840360Y-150412820D01*
X123490360Y-150412820D01*
X123465856Y-150411616D01*
X123441587Y-150408016D01*
X123417789Y-150402055D01*
X123394689Y-150393790D01*
X123372511Y-150383300D01*
X123351467Y-150370687D01*
X123331762Y-150356073D01*
X123313583Y-150339597D01*
X123297107Y-150321418D01*
X123282493Y-150301713D01*
X123269880Y-150280669D01*
X123259390Y-150258491D01*
X123251125Y-150235391D01*
X123245164Y-150211593D01*
X123241564Y-150187324D01*
X123240360Y-150162820D01*
X123240360Y-148962820D01*
X123241564Y-148938316D01*
X123245164Y-148914047D01*
X123251125Y-148890249D01*
X123259390Y-148867149D01*
X123269880Y-148844971D01*
X123282493Y-148823927D01*
X123297107Y-148804222D01*
X123313583Y-148786043D01*
X123331762Y-148769567D01*
X123351467Y-148754953D01*
X123372511Y-148742340D01*
X123394689Y-148731850D01*
X123417789Y-148723585D01*
X123441587Y-148717624D01*
X123465856Y-148714024D01*
X123490360Y-148712820D01*
X124840360Y-148712820D01*
X124864864Y-148714024D01*
X124864864Y-148714024D01*
G37*
D13*
G04 #@! TO.P,J4,1*
G04 #@! TO.N,GNDREF*
X124165360Y-149562820D03*
G04 #@! TD*
D12*
G04 #@! TO.N,Net-(J5-Pad1)*
G04 #@! TO.C,J5*
G36*
X205762423Y-118851624D02*
X205786692Y-118855224D01*
X205810490Y-118861185D01*
X205833590Y-118869450D01*
X205855769Y-118879940D01*
X205876812Y-118892553D01*
X205896518Y-118907168D01*
X205914696Y-118923644D01*
X205931172Y-118941822D01*
X205945787Y-118961528D01*
X205958400Y-118982571D01*
X205968890Y-119004750D01*
X205977155Y-119027850D01*
X205983116Y-119051648D01*
X205986716Y-119075917D01*
X205987920Y-119100421D01*
X205987920Y-121300419D01*
X205986716Y-121324923D01*
X205983116Y-121349192D01*
X205977155Y-121372990D01*
X205968890Y-121396090D01*
X205958400Y-121418269D01*
X205945787Y-121439312D01*
X205931172Y-121459018D01*
X205914696Y-121477196D01*
X205896518Y-121493672D01*
X205876812Y-121508287D01*
X205855769Y-121520900D01*
X205833590Y-121531390D01*
X205810490Y-121539655D01*
X205786692Y-121545616D01*
X205762423Y-121549216D01*
X205737919Y-121550420D01*
X202937921Y-121550420D01*
X202913417Y-121549216D01*
X202889148Y-121545616D01*
X202865350Y-121539655D01*
X202842250Y-121531390D01*
X202820071Y-121520900D01*
X202799028Y-121508287D01*
X202779322Y-121493672D01*
X202761144Y-121477196D01*
X202744668Y-121459018D01*
X202730053Y-121439312D01*
X202717440Y-121418269D01*
X202706950Y-121396090D01*
X202698685Y-121372990D01*
X202692724Y-121349192D01*
X202689124Y-121324923D01*
X202687920Y-121300419D01*
X202687920Y-119100421D01*
X202689124Y-119075917D01*
X202692724Y-119051648D01*
X202698685Y-119027850D01*
X202706950Y-119004750D01*
X202717440Y-118982571D01*
X202730053Y-118961528D01*
X202744668Y-118941822D01*
X202761144Y-118923644D01*
X202779322Y-118907168D01*
X202799028Y-118892553D01*
X202820071Y-118879940D01*
X202842250Y-118869450D01*
X202865350Y-118861185D01*
X202889148Y-118855224D01*
X202913417Y-118851624D01*
X202937921Y-118850420D01*
X205737919Y-118850420D01*
X205762423Y-118851624D01*
X205762423Y-118851624D01*
G37*
D17*
G04 #@! TD*
G04 #@! TO.P,J5,1*
G04 #@! TO.N,Net-(J5-Pad1)*
X204337920Y-120200420D03*
D18*
G04 #@! TO.P,J5,2*
G04 #@! TO.N,GNDREF*
X198837920Y-120200420D03*
G04 #@! TD*
D19*
G04 #@! TO.P,SW1,1*
G04 #@! TO.N,Net-(J5-Pad1)*
X195046600Y-140537800D03*
G04 #@! TO.P,SW1,2*
G04 #@! TO.N,Net-(F1-Pad5)*
X195046600Y-133527800D03*
G04 #@! TO.P,SW1,3*
G04 #@! TO.N,N/C*
X195046600Y-126517800D03*
G04 #@! TD*
D20*
G04 #@! TO.N,+24V*
X193255900Y-94322900D03*
X193255900Y-107962700D03*
G04 #@! TO.N,+3V3*
X104731820Y-116738400D03*
X104734360Y-113131600D03*
G04 #@! TO.N,Net-(IC1-Pad2)*
X103873300Y-117835680D03*
X103873300Y-113802160D03*
G04 #@! TO.N,Net-(IC1-Pad4)*
X106371220Y-115630960D03*
X106377740Y-116941600D03*
G04 #@! TO.N,Net-(IC1-Pad6)*
X105641140Y-114531140D03*
X105646220Y-119529860D03*
G04 #@! TO.N,Net-(IC1-Pad10)*
X104071420Y-120032780D03*
X104063800Y-123924060D03*
X116070380Y-123924060D03*
X116337080Y-120761760D03*
G04 #@! TO.N,SOL5*
X154978100Y-116890800D03*
X154978100Y-99593400D03*
X151345900Y-98742500D03*
X151345900Y-93199417D03*
G04 #@! TO.N,SOL1*
X155092400Y-94361000D03*
X155105100Y-90322400D03*
G04 #@! TO.N,SOL2*
X154063700Y-106680000D03*
X154063700Y-91047400D03*
G04 #@! TO.N,SOL3*
X153338700Y-104914700D03*
X153338700Y-91772400D03*
G04 #@! TO.N,SOL4*
X155384500Y-118986300D03*
X155854400Y-98653600D03*
X152613700Y-98628200D03*
X152591915Y-92474417D03*
G04 #@! TD*
D21*
G04 #@! TO.N,+24V*
X193255900Y-94322900D02*
X193255900Y-107962700D01*
D22*
G04 #@! TO.N,+3V3*
X104731820Y-116172715D02*
X104734360Y-116170175D01*
X104731820Y-116738400D02*
X104731820Y-116172715D01*
X104734360Y-116170175D02*
X104734360Y-113131600D01*
G04 #@! TO.N,Net-(IC1-Pad2)*
X103873300Y-117835680D02*
X103873300Y-113802160D01*
G04 #@! TO.N,Net-(IC1-Pad4)*
X106371220Y-115630960D02*
X106371220Y-116935080D01*
X106371220Y-116935080D02*
X106377740Y-116941600D01*
G04 #@! TO.N,Net-(IC1-Pad6)*
X105641140Y-115096825D02*
X105646220Y-115101905D01*
X105641140Y-114531140D02*
X105641140Y-115096825D01*
X105646220Y-115101905D02*
X105646220Y-119529860D01*
G04 #@! TO.N,Net-(IC1-Pad10)*
X104071420Y-120032780D02*
X104071420Y-123916440D01*
X104071420Y-123916440D02*
X104063800Y-123924060D01*
X116070380Y-123924060D02*
X116070380Y-121028460D01*
X116070380Y-121028460D02*
X116337080Y-120761760D01*
G04 #@! TO.N,SOL5*
X154978100Y-116890800D02*
X154978100Y-99593400D01*
X151345900Y-98742500D02*
X151345900Y-93199417D01*
G04 #@! TO.N,SOL1*
X155092400Y-94361000D02*
X155092400Y-90335100D01*
G04 #@! TO.N,SOL2*
X154063700Y-106680000D02*
X154063700Y-91047400D01*
G04 #@! TO.N,SOL3*
X153338700Y-104914700D02*
X153338700Y-91772400D01*
G04 #@! TO.N,SOL4*
X155384500Y-118986300D02*
X155854400Y-118516400D01*
X155854400Y-118516400D02*
X155854400Y-98653600D01*
X152613700Y-98628200D02*
X152613700Y-92496202D01*
X152613700Y-92496202D02*
X152591915Y-92474417D01*
G04 #@! TD*
M02*
