M48
; DRILL file {KiCad (5.1.2)-2} date 1/22/2020 12:34:26 PM
; FORMAT={-:-/ absolute / metric / decimal}
; #@! TF.CreationDate,2020-01-22T12:34:26-06:00
; #@! TF.GenerationSoftware,Kicad,Pcbnew,(5.1.2)-2
; #@! TF.FileFunction,Plated,1,2,PTH
FMAT,2
METRIC
T1C0.400
T2C0.762
T3C0.850
T4C1.016
T5C1.400
T6C2.000
%
G90
G05
T1
X102.362Y-147.066
X102.87Y-140.208
X103.886Y-114.3
X103.886Y-119.38
X104.648Y-115.4
X104.648Y-117.602
X104.902Y-121.158
X104.902Y-133.35
X105.664Y-113.03
X105.664Y-116.586
X105.664Y-134.874
X106.68Y-114.3
X106.68Y-118.618
X106.934Y-120.105
X106.934Y-123.19
X109.982Y-118.11
X109.982Y-132.625
X110.49Y-135.636
X110.49Y-147.066
X111.506Y-115.57
X111.506Y-131.9
X116.332Y-120.65
X116.332Y-123.19
X117.348Y-121.92
X117.348Y-134.149
X117.983Y-99.949
X117.983Y-110.363
X118.11Y-135.632
X118.872Y-138.684
X121.408Y-135.632
X121.534Y-147.043
X122.047Y-139.123
X131.318Y-147.066
X133.858Y-137.16
X133.858Y-140.208
X134.112Y-131.064
X135.255Y-95.25
X135.255Y-100.076
X135.382Y-104.521
X135.382Y-108.712
X136.462Y-130.493
X138.938Y-116.205
X139.7Y-109.982
X140.462Y-107.442
X141.732Y-101.346
X142.494Y-98.806
X144.653Y-146.304
X145.161Y-139.065
X146.558Y-94.234
X146.558Y-97.536
X149.098Y-96.139
X151.346Y-93.199
X151.346Y-98.742
X152.592Y-92.474
X152.614Y-98.628
X152.908Y-128.744
X153.339Y-91.772
X153.339Y-104.915
X154.064Y-91.047
X154.064Y-106.68
X154.978Y-99.593
X154.978Y-116.891
X155.092Y-94.361
X155.105Y-90.322
X155.385Y-118.986
X155.854Y-98.654
X157.226Y-100.584
X157.29Y-104.19
X158.623Y-145.859
X158.686Y-130.194
X160.02Y-139.065
X161.862Y-132.143
X162.941Y-113.411
X166.814Y-146.875
X167.132Y-128.744
X169.926Y-103.505
X169.926Y-105.855
X170.18Y-128.333
X170.18Y-147.002
X171.196Y-133.445
X171.45Y-101.854
X172.784Y-101.79
X172.784Y-104.457
X173.418Y-111.823
X174.053Y-130.194
X174.434Y-116.776
X175.451Y-91.948
X175.577Y-125.73
X176.149Y-102.997
X177.546Y-135.382
X178.308Y-133.445
X178.562Y-146.05
X179.133Y-88.265
X180.276Y-116.051
X183.07Y-116.903
X183.642Y-134.62
X193.256Y-94.323
X193.256Y-107.963
T2
X195.326Y-126.594
X195.326Y-133.604
X195.326Y-140.614
T3
X116.093Y-144.563
X116.093Y-147.063
X116.093Y-149.563
X133.358Y-144.563
X133.358Y-147.063
X133.358Y-149.563
X99.464Y-144.563
X99.464Y-147.063
X99.464Y-149.563
X155.753Y-144.563
X155.753Y-147.063
X155.753Y-149.563
X164.094Y-144.563
X164.094Y-147.063
X164.094Y-149.563
X124.165Y-144.563
X124.165Y-147.063
X124.165Y-149.563
X107.698Y-144.563
X107.698Y-147.063
X107.698Y-149.563
X141.092Y-144.563
X141.092Y-147.063
X141.092Y-149.563
X172.436Y-144.563
X172.436Y-147.063
X172.436Y-149.563
T4
X104.031Y-88.829
X106.571Y-88.829
X109.111Y-88.829
X111.651Y-88.829
X113.175Y-137.089
X114.191Y-88.829
X115.715Y-137.089
X116.731Y-88.829
X118.255Y-137.089
X119.271Y-88.829
X120.795Y-137.089
X121.811Y-88.829
X123.335Y-137.089
X124.351Y-88.829
X125.875Y-137.089
X126.891Y-88.829
X128.415Y-137.089
X130.955Y-88.829
X130.955Y-137.089
X133.495Y-88.829
X136.035Y-88.829
X136.035Y-137.089
X138.575Y-88.829
X138.575Y-137.089
X141.115Y-88.829
X141.115Y-137.089
X143.655Y-88.829
X143.655Y-137.089
X146.195Y-88.829
X146.195Y-137.089
X148.735Y-88.829
X148.735Y-137.089
X148.862Y-109.149
X148.862Y-111.689
X148.862Y-114.229
X151.275Y-137.089
X151.402Y-109.149
X151.402Y-111.689
X151.402Y-114.229
X153.815Y-88.829
X153.815Y-137.089
X156.355Y-88.829
X158.895Y-88.829
X158.895Y-137.089
X161.435Y-88.829
X161.435Y-137.089
X163.975Y-88.829
X163.975Y-137.089
X166.515Y-88.829
X166.515Y-137.089
X169.055Y-88.829
X169.055Y-137.089
X171.595Y-88.829
X171.595Y-137.089
X174.135Y-137.089
X176.675Y-137.089
X179.215Y-126.929
X179.215Y-129.469
X179.215Y-132.009
X181.755Y-126.929
X181.755Y-129.469
X181.755Y-132.009
T5
X182.526Y-146.832
X182.526Y-149.332
X186.026Y-146.832
X186.026Y-149.332
X191.826Y-146.832
X191.826Y-149.332
X195.326Y-146.832
X195.326Y-149.332
X199.136Y-120.396
X204.636Y-120.396
T6
X190.262Y-110.414
X205.812Y-110.414
X190.012Y-100.012
X205.562Y-100.012
T0
M30
